<?xml version="1.0" encoding="UTF-8" standalone="no"?><svg xmlns="http://www.w3.org/2000/svg" xmlns:xlink="http://www.w3.org/1999/xlink" clip-rule="evenodd" stroke-miterlimit="4.00" viewBox="0 0 139 69"><desc>SVG generated by Keynote</desc><defs></defs><g transform="matrix(1.00, 0.00, -0.00, -1.00, 0.0, 69.0)"><text xml:space="preserve" font-family="Avenir-Heavy" font-weight="bold" font-size="30.0" fill="#E42100" transform="matrix(1.00, 0.00, -0.00, -1.00, 0.6, 38.7)">•</text><text xml:space="preserve" font-family="Avenir-Heavy" font-weight="bold" font-size="24.0" fill="#72FA78" transform="matrix(1.00, 0.00, -0.00, -1.00, 35.0, 40.0)">S</text><text xml:space="preserve" font-family="Avenir-Heavy" font-weight="bold" font-size="24.0" fill="#72FA78" transform="matrix(1.00, 0.00, -0.00, -1.00, 48.8, 40.0)">p</text><text xml:space="preserve" font-family="Avenir-Heavy" font-weight="bold" font-size="24.0" fill="#72FA78" transform="matrix(1.00, 0.00, -0.00, -1.00, 63.9, 40.0)">e</text><text xml:space="preserve" font-family="Avenir-Heavy" font-weight="bold" font-size="24.0" fill="#72FA78" transform="matrix(1.00, 0.00, -0.00, -1.00, 77.7, 40.0)">e</text><text xml:space="preserve" font-family="Avenir-Heavy" font-weight="bold" font-size="24.0" fill="#72FA78" transform="matrix(1.00, 0.00, -0.00, -1.00, 91.4, 40.0)">d</text><text xml:space="preserve" font-family="Avenir-Heavy" font-weight="bold" font-size="24.0" fill="#72FA78" transform="matrix(1.00, 0.00, -0.00, -1.00, 106.6, 40.0)">:</text><text xml:space="preserve" font-family="Avenir-Heavy" font-weight="bold" font-size="24.0" fill="#72FA78" transform="matrix(1.00, 0.00, -0.00, -1.00, 113.7, 40.0)"> </text><text xml:space="preserve" font-family="Avenir-Heavy" font-weight="bold" font-size="24.0" fill="#72FA78" transform="matrix(1.00, 0.00, -0.00, -1.00, 120.8, 40.0)"> </text><text xml:space="preserve" font-family="Avenir-Heavy" font-weight="bold" font-size="24.0" fill="#FEFFFE" transform="matrix(1.00, 0.00, -0.00, -1.00, 35.0, 7.0)">(</text><text xml:space="preserve" font-family="Avenir-Heavy" font-weight="bold" font-size="24.0" fill="#FEFFFE" transform="matrix(1.00, 0.00, -0.00, -1.00, 42.1, 7.0)">d</text><text xml:space="preserve" font-family="Avenir-Heavy" font-weight="bold" font-size="24.0" fill="#FEFFFE" transform="matrix(1.00, 0.00, -0.00, -1.00, 57.2, 7.0)">)</text><text xml:space="preserve" font-family="Avenir-Heavy" font-weight="bold" font-size="24.0" fill="#FEFFFE" transform="matrix(1.00, 0.00, -0.00, -1.00, 64.3, 7.0)">t</text><text xml:space="preserve" font-family="Avenir-Heavy" font-weight="bold" font-size="24.0" fill="#FEFFFE" transform="matrix(1.00, 0.00, -0.00, -1.00, 73.7, 7.0)">e</text><text xml:space="preserve" font-family="Avenir-Heavy" font-weight="bold" font-size="24.0" fill="#FEFFFE" transform="matrix(1.00, 0.00, -0.00, -1.00, 87.4, 7.0)">m</text><text xml:space="preserve" font-family="Avenir-Heavy" font-weight="bold" font-size="24.0" fill="#FEFFFE" transform="matrix(1.00, 0.00, -0.00, -1.00, 108.3, 7.0)">p</text><text xml:space="preserve" font-family="Avenir-Heavy" font-weight="bold" font-size="24.0" fill="#FEFFFE" transform="matrix(1.00, 0.00, -0.00, -1.00, 123.4, 7.0)">o</text></g></svg>