<?xml version="1.0" encoding="UTF-8" standalone="no"?><svg xmlns="http://www.w3.org/2000/svg" xmlns:xlink="http://www.w3.org/1999/xlink" clip-rule="evenodd" stroke-miterlimit="4.00" viewBox="0 0 304 42"><desc>SVG generated by Keynote</desc><defs></defs><g transform="matrix(1.00, 0.00, -0.00, -1.00, 0.0, 42.0)"><text xml:space="preserve" font-family="Avenir-Book" font-size="36.0" fill="#FEFFFE" transform="matrix(1.00, 0.00, -0.00, -1.00, 1.0, 13.0)">T</text><text xml:space="preserve" font-family="Avenir-Book" font-size="36.0" fill="#FEFFFE" transform="matrix(1.00, 0.00, -0.00, -1.00, 21.4, 13.0)">i</text><text xml:space="preserve" font-family="Avenir-Book" font-size="36.0" fill="#FEFFFE" transform="matrix(1.00, 0.00, -0.00, -1.00, 30.1, 13.0)">m</text><text xml:space="preserve" font-family="Avenir-Book" font-size="36.0" fill="#FEFFFE" transform="matrix(1.00, 0.00, -0.00, -1.00, 60.7, 13.0)">e</text><text xml:space="preserve" font-family="Avenir-Book" font-size="36.0" fill="#FEFFFE" transform="matrix(1.00, 0.00, -0.00, -1.00, 80.7, 13.0)"> </text><text xml:space="preserve" font-family="Avenir-Book" font-size="36.0" fill="#FEFFFE" transform="matrix(1.00, 0.00, -0.00, -1.00, 90.7, 13.0)">s</text><text xml:space="preserve" font-family="Avenir-Book" font-size="36.0" fill="#FEFFFE" transform="matrix(1.00, 0.00, -0.00, -1.00, 106.1, 13.0)">p</text><text xml:space="preserve" font-family="Avenir-Book" font-size="36.0" fill="#FEFFFE" transform="matrix(1.00, 0.00, -0.00, -1.00, 128.1, 13.0)">a</text><text xml:space="preserve" font-family="Avenir-Book" font-size="36.0" fill="#FEFFFE" transform="matrix(1.00, 0.00, -0.00, -1.00, 146.8, 13.0)">c</text><text xml:space="preserve" font-family="Avenir-Book" font-size="36.0" fill="#FEFFFE" transform="matrix(1.00, 0.00, -0.00, -1.00, 164.1, 13.0)">e</text><text xml:space="preserve" font-family="Avenir-Book" font-size="36.0" fill="#FEFFFE" transform="matrix(1.00, 0.00, -0.00, -1.00, 184.1, 13.0)"> </text><text xml:space="preserve" font-family="Avenir-Book" font-size="36.0" fill="#FEFFFE" transform="matrix(1.00, 0.00, -0.00, -1.00, 194.1, 13.0)">c</text><text xml:space="preserve" font-family="Avenir-Book" font-size="36.0" fill="#FEFFFE" transform="matrix(1.00, 0.00, -0.00, -1.00, 211.5, 13.0)">o</text><text xml:space="preserve" font-family="Avenir-Book" font-size="36.0" fill="#FEFFFE" transform="matrix(1.00, 0.00, -0.00, -1.00, 232.8, 13.0)">n</text><text xml:space="preserve" font-family="Avenir-Book" font-size="36.0" fill="#FEFFFE" transform="matrix(1.00, 0.00, -0.00, -1.00, 252.9, 13.0)">t</text><text xml:space="preserve" font-family="Avenir-Book" font-size="36.0" fill="#FEFFFE" transform="matrix(1.00, 0.00, -0.00, -1.00, 264.8, 13.0)">r</text><text xml:space="preserve" font-family="Avenir-Book" font-size="36.0" fill="#FEFFFE" transform="matrix(1.00, 0.00, -0.00, -1.00, 276.1, 13.0)">o</text><text xml:space="preserve" font-family="Avenir-Book" font-size="36.0" fill="#FEFFFE" transform="matrix(1.00, 0.00, -0.00, -1.00, 297.5, 13.0)">l</text></g></svg>