<?xml version="1.0" encoding="UTF-8" standalone="no"?><svg xmlns="http://www.w3.org/2000/svg" xmlns:xlink="http://www.w3.org/1999/xlink" clip-rule="evenodd" stroke-miterlimit="4.00" viewBox="0 0 189 60"><desc>SVG generated by Keynote</desc><defs></defs><g transform="matrix(1.00, 0.00, -0.00, -1.00, 0.0, 60.0)"><g><clipPath id="clip-599"><path d="M 0.3 1.0 L 188.3 1.0 L 188.3 60.0 L 0.3 60.0 Z M 0.3 1.0 "></path></clipPath><g clip-path="url(#clip-599)"><image xlink:href="B219F7D7E930CB65BD9064E3158A14D0.png" width="186.00" height="57.00" transform="matrix(1.00, 0.00, -0.00, -1.00, 1.3, 58.9)" opacity="0.50"></image><path d="M 2.2 58.5 L 177.2 58.5 L 177.2 12.5 L 2.2 12.5 Z M 2.2 58.5 " fill="#FEFFFE"></path><path d="M 0.0 0.0 L 175.0 0.0 L 175.0 45.9 L 0.0 45.9 Z M 0.0 0.0 " fill="none" stroke="#000000" stroke-width="1.00" transform="matrix(1.00, 0.00, 0.00, -1.00, 2.2, 58.5)"></path></g></g><g><clipPath id="clip-600"><path d="M 12.0 18.5 L 167.5 18.5 L 167.5 52.5 L 12.0 52.5 Z M 12.0 18.5 "></path></clipPath><g clip-path="url(#clip-600)"><text xml:space="preserve" font-family="Helvetica" font-size="20.0" fill="#324763" transform="matrix(1.00, 0.00, -0.00, -1.00, 17.0, 28.0)">n</text><text xml:space="preserve" font-family="Helvetica" font-size="20.0" fill="#324763" transform="matrix(1.00, 0.00, -0.00, -1.00, 28.1, 28.0)">a</text><text xml:space="preserve" font-family="Helvetica" font-size="20.0" fill="#324763" transform="matrix(1.00, 0.00, -0.00, -1.00, 39.3, 28.0)">m</text><text xml:space="preserve" font-family="Helvetica" font-size="20.0" fill="#324763" transform="matrix(1.00, 0.00, -0.00, -1.00, 55.9, 28.0)">e</text><text xml:space="preserve" font-family="Helvetica" font-size="20.0" fill="#324763" transform="matrix(1.00, 0.00, -0.00, -1.00, 67.0, 28.0)">:</text><text xml:space="preserve" font-family="Helvetica" font-size="20.0" fill="#324763" transform="matrix(1.00, 0.00, -0.00, -1.00, 72.6, 28.0)">m</text><text xml:space="preserve" font-family="Helvetica" font-size="20.0" fill="#324763" transform="matrix(1.00, 0.00, -0.00, -1.00, 89.3, 28.0)">a</text><text xml:space="preserve" font-family="Helvetica" font-size="20.0" fill="#324763" transform="matrix(1.00, 0.00, -0.00, -1.00, 100.4, 28.0)">p</text><text xml:space="preserve" font-family="Helvetica" font-size="20.0" fill="#324763" transform="matrix(1.00, 0.00, -0.00, -1.00, 111.5, 28.0)">n</text><text xml:space="preserve" font-family="Helvetica" font-size="20.0" fill="#324763" transform="matrix(1.00, 0.00, -0.00, -1.00, 122.6, 28.0)">a</text><text xml:space="preserve" font-family="Helvetica" font-size="20.0" fill="#324763" transform="matrix(1.00, 0.00, -0.00, -1.00, 133.8, 28.0)">m</text><text xml:space="preserve" font-family="Helvetica" font-size="20.0" fill="#324763" transform="matrix(1.00, 0.00, -0.00, -1.00, 150.4, 28.0)">e</text></g></g></g></svg>