<?xml version="1.0" encoding="UTF-8" standalone="no"?><svg xmlns="http://www.w3.org/2000/svg" xmlns:xlink="http://www.w3.org/1999/xlink" clip-rule="evenodd" stroke-miterlimit="4.00" viewBox="0 0 189 60"><desc>SVG generated by Keynote</desc><defs></defs><g transform="matrix(1.00, 0.00, -0.00, -1.00, 0.0, 60.0)"><g><clipPath id="clip-601"><path d="M 0.5 1.0 L 188.5 1.0 L 188.5 60.0 L 0.5 60.0 Z M 0.5 1.0 "></path></clipPath><g clip-path="url(#clip-601)"><image xlink:href="../../D247BDEC-ADF0-4EEF-A9DC-74CE08D8F75F/assets/B219F7D7E930CB65BD9064E3158A14D0.png" width="186.00" height="57.00" transform="matrix(1.00, 0.00, -0.00, -1.00, 1.5, 58.9)" opacity="0.50"></image><path d="M 2.4 58.5 L 177.4 58.5 L 177.4 12.5 L 2.4 12.5 Z M 2.4 58.5 " fill="#FEFFFE"></path><path d="M 0.0 0.0 L 175.0 0.0 L 175.0 45.9 L 0.0 45.9 Z M 0.0 0.0 " fill="none" stroke="#000000" stroke-width="1.00" transform="matrix(1.00, 0.00, 0.00, -1.00, 2.4, 58.5)"></path></g></g><g><clipPath id="clip-602"><path d="M 12.1 18.5 L 167.6 18.5 L 167.6 52.5 L 12.1 52.5 Z M 12.1 18.5 "></path></clipPath><g clip-path="url(#clip-602)"><text xml:space="preserve" font-family="Helvetica" font-size="20.0" fill="#324763" transform="matrix(1.00, 0.00, -0.00, -1.00, 18.0, 28.0)">n</text><text xml:space="preserve" font-family="Helvetica" font-size="20.0" fill="#324763" transform="matrix(1.00, 0.00, -0.00, -1.00, 29.1, 28.0)">a</text><text xml:space="preserve" font-family="Helvetica" font-size="20.0" fill="#324763" transform="matrix(1.00, 0.00, -0.00, -1.00, 40.3, 28.0)">m</text><text xml:space="preserve" font-family="Helvetica" font-size="20.0" fill="#324763" transform="matrix(1.00, 0.00, -0.00, -1.00, 56.9, 28.0)">e</text><text xml:space="preserve" font-family="Helvetica" font-size="20.0" fill="#324763" transform="matrix(1.00, 0.00, -0.00, -1.00, 68.0, 28.0)">:</text><text xml:space="preserve" font-family="Helvetica" font-size="20.0" fill="#324763" transform="matrix(1.00, 0.00, -0.00, -1.00, 73.6, 28.0)">m</text><text xml:space="preserve" font-family="Helvetica" font-size="20.0" fill="#324763" transform="matrix(1.00, 0.00, -0.00, -1.00, 90.3, 28.0)">a</text><text xml:space="preserve" font-family="Helvetica" font-size="20.0" fill="#324763" transform="matrix(1.00, 0.00, -0.00, -1.00, 101.4, 28.0)">p</text><text xml:space="preserve" font-family="Helvetica" font-size="20.0" fill="#324763" transform="matrix(1.00, 0.00, -0.00, -1.00, 112.5, 28.0)">n</text><text xml:space="preserve" font-family="Helvetica" font-size="20.0" fill="#324763" transform="matrix(1.00, 0.00, -0.00, -1.00, 123.6, 28.0)">a</text><text xml:space="preserve" font-family="Helvetica" font-size="20.0" fill="#324763" transform="matrix(1.00, 0.00, -0.00, -1.00, 134.8, 28.0)">m</text><text xml:space="preserve" font-family="Helvetica" font-size="20.0" fill="#324763" transform="matrix(1.00, 0.00, -0.00, -1.00, 151.4, 28.0)">e</text></g></g></g></svg>