<?xml version="1.0" encoding="UTF-8" standalone="no"?><svg xmlns="http://www.w3.org/2000/svg" xmlns:xlink="http://www.w3.org/1999/xlink" clip-rule="evenodd" stroke-miterlimit="4.00" viewBox="0 0 651 112"><desc>SVG generated by Keynote</desc><defs></defs><g transform="matrix(1.00, 0.00, -0.00, -1.00, 0.0, 112.0)"><text xml:space="preserve" font-family="Courier" font-size="24.0" fill="#000000" transform="matrix(1.00, 0.00, -0.00, -1.00, 1.0, 93.0)">/</text><text xml:space="preserve" font-family="Courier" font-size="24.0" fill="#000000" transform="matrix(1.00, 0.00, -0.00, -1.00, 15.4, 93.0)">I</text><text xml:space="preserve" font-family="Courier" font-size="24.0" fill="#000000" transform="matrix(1.00, 0.00, -0.00, -1.00, 29.8, 93.0)">T</text><text xml:space="preserve" font-family="Courier" font-size="24.0" fill="#000000" transform="matrix(1.00, 0.00, -0.00, -1.00, 44.2, 93.0)">L</text><text xml:space="preserve" font-family="Courier" font-size="24.0" fill="#000000" transform="matrix(1.00, 0.00, -0.00, -1.00, 58.6, 93.0)">/</text><text xml:space="preserve" font-family="Courier" font-size="24.0" fill="#000000" transform="matrix(1.00, 0.00, -0.00, -1.00, 73.0, 93.0)">s</text><text xml:space="preserve" font-family="Courier" font-size="24.0" fill="#000000" transform="matrix(1.00, 0.00, -0.00, -1.00, 87.4, 93.0)">c</text><text xml:space="preserve" font-family="Courier" font-size="24.0" fill="#000000" transform="matrix(1.00, 0.00, -0.00, -1.00, 101.8, 93.0)">e</text><text xml:space="preserve" font-family="Courier" font-size="24.0" fill="#000000" transform="matrix(1.00, 0.00, -0.00, -1.00, 116.2, 93.0)">n</text><text xml:space="preserve" font-family="Courier" font-size="24.0" fill="#000000" transform="matrix(1.00, 0.00, -0.00, -1.00, 130.6, 93.0)">e</text><text xml:space="preserve" font-family="Courier" font-size="24.0" fill="#000000" transform="matrix(1.00, 0.00, -0.00, -1.00, 145.0, 93.0)">/</text><text xml:space="preserve" font-family="Courier" font-size="24.0" fill="#000000" transform="matrix(1.00, 0.00, -0.00, -1.00, 159.5, 93.0)">c</text><text xml:space="preserve" font-family="Courier" font-size="24.0" fill="#000000" transform="matrix(1.00, 0.00, -0.00, -1.00, 173.9, 93.0)">u</text><text xml:space="preserve" font-family="Courier" font-size="24.0" fill="#000000" transform="matrix(1.00, 0.00, -0.00, -1.00, 188.3, 93.0)">r</text><text xml:space="preserve" font-family="Courier" font-size="24.0" fill="#000000" transform="matrix(1.00, 0.00, -0.00, -1.00, 202.7, 93.0)">s</text><text xml:space="preserve" font-family="Courier" font-size="24.0" fill="#000000" transform="matrix(1.00, 0.00, -0.00, -1.00, 217.1, 93.0)">o</text><text xml:space="preserve" font-family="Courier" font-size="24.0" fill="#000000" transform="matrix(1.00, 0.00, -0.00, -1.00, 231.5, 93.0)">r</text><text xml:space="preserve" font-family="Courier" font-size="24.0" fill="#000000" transform="matrix(1.00, 0.00, -0.00, -1.00, 245.9, 93.0)"> </text><text xml:space="preserve" font-family="Courier" font-size="24.0" fill="#000000" transform="matrix(1.00, 0.00, -0.00, -1.00, 260.3, 93.0)">w</text><text xml:space="preserve" font-family="Courier" font-size="24.0" fill="#000000" transform="matrix(1.00, 0.00, -0.00, -1.00, 274.7, 93.0)">a</text><text xml:space="preserve" font-family="Courier" font-size="24.0" fill="#000000" transform="matrix(1.00, 0.00, -0.00, -1.00, 289.1, 93.0)">t</text><text xml:space="preserve" font-family="Courier" font-size="24.0" fill="#000000" transform="matrix(1.00, 0.00, -0.00, -1.00, 303.5, 93.0)">c</text><text xml:space="preserve" font-family="Courier" font-size="24.0" fill="#000000" transform="matrix(1.00, 0.00, -0.00, -1.00, 317.9, 93.0)">h</text><text xml:space="preserve" font-family="Courier" font-size="24.0" fill="#000000" transform="matrix(1.00, 0.00, -0.00, -1.00, 332.3, 93.0)"> </text><text xml:space="preserve" font-family="Courier" font-size="24.0" fill="#000000" transform="matrix(1.00, 0.00, -0.00, -1.00, 346.7, 93.0)">t</text><text xml:space="preserve" font-family="Courier" font-size="24.0" fill="#000000" transform="matrix(1.00, 0.00, -0.00, -1.00, 361.1, 93.0)">i</text><text xml:space="preserve" font-family="Courier" font-size="24.0" fill="#000000" transform="matrix(1.00, 0.00, -0.00, -1.00, 375.5, 93.0)">m</text><text xml:space="preserve" font-family="Courier" font-size="24.0" fill="#000000" transform="matrix(1.00, 0.00, -0.00, -1.00, 389.9, 93.0)">e</text><text xml:space="preserve" font-family="Courier" font-size="24.0" fill="#000000" transform="matrix(1.00, 0.00, -0.00, -1.00, 404.3, 93.0)">E</text><text xml:space="preserve" font-family="Courier" font-size="24.0" fill="#000000" transform="matrix(1.00, 0.00, -0.00, -1.00, 418.7, 93.0)">n</text><text xml:space="preserve" font-family="Courier" font-size="24.0" fill="#000000" transform="matrix(1.00, 0.00, -0.00, -1.00, 433.1, 93.0)">t</text><text xml:space="preserve" font-family="Courier" font-size="24.0" fill="#000000" transform="matrix(1.00, 0.00, -0.00, -1.00, 447.5, 93.0)">e</text><text xml:space="preserve" font-family="Courier" font-size="24.0" fill="#000000" transform="matrix(1.00, 0.00, -0.00, -1.00, 462.0, 93.0)">r</text><text xml:space="preserve" font-family="Courier" font-size="24.0" fill="#000000" transform="matrix(1.00, 0.00, -0.00, -1.00, 476.4, 93.0)"> </text><text xml:space="preserve" font-family="Courier" font-size="24.0" fill="#000000" transform="matrix(1.00, 0.00, -0.00, -1.00, 490.8, 93.0)">2</text><text xml:space="preserve" font-family="Courier" font-size="24.0" fill="#000000" transform="matrix(1.00, 0.00, -0.00, -1.00, 505.2, 93.0)"> </text><text xml:space="preserve" font-family="Courier" font-size="24.0" fill="#000000" transform="matrix(1.00, 0.00, -0.00, -1.00, 519.6, 93.0)">3</text><text xml:space="preserve" font-family="Courier" font-size="24.0" fill="#000000" transform="matrix(1.00, 0.00, -0.00, -1.00, 534.0, 93.0)"> </text><text xml:space="preserve" font-family="Courier" font-size="24.0" fill="#000000" transform="matrix(1.00, 0.00, -0.00, -1.00, 217.0, 64.0)">(</text><text xml:space="preserve" font-family="Courier" font-size="24.0" fill="#000000" transform="matrix(1.00, 0.00, -0.00, -1.00, 231.4, 64.0)">/</text><text xml:space="preserve" font-family="Courier" font-size="24.0" fill="#000000" transform="matrix(1.00, 0.00, -0.00, -1.00, 245.8, 64.0)">I</text><text xml:space="preserve" font-family="Courier" font-size="24.0" fill="#000000" transform="matrix(1.00, 0.00, -0.00, -1.00, 260.2, 64.0)">T</text><text xml:space="preserve" font-family="Courier" font-size="24.0" fill="#000000" transform="matrix(1.00, 0.00, -0.00, -1.00, 274.6, 64.0)">L</text><text xml:space="preserve" font-family="Courier" font-size="24.0" fill="#000000" transform="matrix(1.00, 0.00, -0.00, -1.00, 289.0, 64.0)">/</text><text xml:space="preserve" font-family="Courier" font-size="24.0" fill="#000000" transform="matrix(1.00, 0.00, -0.00, -1.00, 303.4, 64.0)">s</text><text xml:space="preserve" font-family="Courier" font-size="24.0" fill="#000000" transform="matrix(1.00, 0.00, -0.00, -1.00, 317.8, 64.0)">c</text><text xml:space="preserve" font-family="Courier" font-size="24.0" fill="#000000" transform="matrix(1.00, 0.00, -0.00, -1.00, 332.2, 64.0)">e</text><text xml:space="preserve" font-family="Courier" font-size="24.0" fill="#000000" transform="matrix(1.00, 0.00, -0.00, -1.00, 346.6, 64.0)">n</text><text xml:space="preserve" font-family="Courier" font-size="24.0" fill="#000000" transform="matrix(1.00, 0.00, -0.00, -1.00, 361.0, 64.0)">e</text><text xml:space="preserve" font-family="Courier" font-size="24.0" fill="#000000" transform="matrix(1.00, 0.00, -0.00, -1.00, 375.5, 64.0)">/</text><text xml:space="preserve" font-family="Courier" font-size="24.0" fill="#000000" transform="matrix(1.00, 0.00, -0.00, -1.00, 389.9, 64.0)">c</text><text xml:space="preserve" font-family="Courier" font-size="24.0" fill="#000000" transform="matrix(1.00, 0.00, -0.00, -1.00, 404.3, 64.0)">u</text><text xml:space="preserve" font-family="Courier" font-size="24.0" fill="#000000" transform="matrix(1.00, 0.00, -0.00, -1.00, 418.7, 64.0)">r</text><text xml:space="preserve" font-family="Courier" font-size="24.0" fill="#000000" transform="matrix(1.00, 0.00, -0.00, -1.00, 433.1, 64.0)">s</text><text xml:space="preserve" font-family="Courier" font-size="24.0" fill="#000000" transform="matrix(1.00, 0.00, -0.00, -1.00, 447.5, 64.0)">o</text><text xml:space="preserve" font-family="Courier" font-size="24.0" fill="#000000" transform="matrix(1.00, 0.00, -0.00, -1.00, 461.9, 64.0)">r</text><text xml:space="preserve" font-family="Courier" font-size="24.0" fill="#000000" transform="matrix(1.00, 0.00, -0.00, -1.00, 476.3, 64.0)"> </text><text xml:space="preserve" font-family="Courier" font-size="24.0" fill="#000000" transform="matrix(1.00, 0.00, -0.00, -1.00, 490.7, 64.0)">t</text><text xml:space="preserve" font-family="Courier" font-size="24.0" fill="#000000" transform="matrix(1.00, 0.00, -0.00, -1.00, 505.1, 64.0)">e</text><text xml:space="preserve" font-family="Courier" font-size="24.0" fill="#000000" transform="matrix(1.00, 0.00, -0.00, -1.00, 519.5, 64.0)">m</text><text xml:space="preserve" font-family="Courier" font-size="24.0" fill="#000000" transform="matrix(1.00, 0.00, -0.00, -1.00, 533.9, 64.0)">p</text><text xml:space="preserve" font-family="Courier" font-size="24.0" fill="#000000" transform="matrix(1.00, 0.00, -0.00, -1.00, 548.3, 64.0)">o</text><text xml:space="preserve" font-family="Courier" font-size="24.0" fill="#000000" transform="matrix(1.00, 0.00, -0.00, -1.00, 562.7, 64.0)"> </text><text xml:space="preserve" font-family="Courier" font-size="24.0" fill="#000000" transform="matrix(1.00, 0.00, -0.00, -1.00, 577.1, 64.0)">-</text><text xml:space="preserve" font-family="Courier" font-size="24.0" fill="#000000" transform="matrix(1.00, 0.00, -0.00, -1.00, 591.5, 64.0)">8</text><text xml:space="preserve" font-family="Courier" font-size="24.0" fill="#000000" transform="matrix(1.00, 0.00, -0.00, -1.00, 605.9, 64.0)">0</text><text xml:space="preserve" font-family="Courier" font-size="24.0" fill="#000000" transform="matrix(1.00, 0.00, -0.00, -1.00, 620.3, 64.0)">)</text><text xml:space="preserve" font-family="Courier" font-size="24.0" fill="#000000" transform="matrix(1.00, 0.00, -0.00, -1.00, 634.7, 64.0)">;</text><text xml:space="preserve" font-family="Courier" font-size="24.0" fill="#000000" transform="matrix(1.00, 0.00, -0.00, -1.00, 1.0, 35.0)">/</text><text xml:space="preserve" font-family="Courier" font-size="24.0" fill="#000000" transform="matrix(1.00, 0.00, -0.00, -1.00, 15.4, 35.0)">I</text><text xml:space="preserve" font-family="Courier" font-size="24.0" fill="#000000" transform="matrix(1.00, 0.00, -0.00, -1.00, 29.8, 35.0)">T</text><text xml:space="preserve" font-family="Courier" font-size="24.0" fill="#000000" transform="matrix(1.00, 0.00, -0.00, -1.00, 44.2, 35.0)">L</text><text xml:space="preserve" font-family="Courier" font-size="24.0" fill="#000000" transform="matrix(1.00, 0.00, -0.00, -1.00, 58.6, 35.0)">/</text><text xml:space="preserve" font-family="Courier" font-size="24.0" fill="#000000" transform="matrix(1.00, 0.00, -0.00, -1.00, 73.0, 35.0)">s</text><text xml:space="preserve" font-family="Courier" font-size="24.0" fill="#000000" transform="matrix(1.00, 0.00, -0.00, -1.00, 87.4, 35.0)">c</text><text xml:space="preserve" font-family="Courier" font-size="24.0" fill="#000000" transform="matrix(1.00, 0.00, -0.00, -1.00, 101.8, 35.0)">e</text><text xml:space="preserve" font-family="Courier" font-size="24.0" fill="#000000" transform="matrix(1.00, 0.00, -0.00, -1.00, 116.2, 35.0)">n</text><text xml:space="preserve" font-family="Courier" font-size="24.0" fill="#000000" transform="matrix(1.00, 0.00, -0.00, -1.00, 130.6, 35.0)">e</text><text xml:space="preserve" font-family="Courier" font-size="24.0" fill="#000000" transform="matrix(1.00, 0.00, -0.00, -1.00, 145.0, 35.0)">/</text><text xml:space="preserve" font-family="Courier" font-size="24.0" fill="#000000" transform="matrix(1.00, 0.00, -0.00, -1.00, 159.5, 35.0)">c</text><text xml:space="preserve" font-family="Courier" font-size="24.0" fill="#000000" transform="matrix(1.00, 0.00, -0.00, -1.00, 173.9, 35.0)">u</text><text xml:space="preserve" font-family="Courier" font-size="24.0" fill="#000000" transform="matrix(1.00, 0.00, -0.00, -1.00, 188.3, 35.0)">r</text><text xml:space="preserve" font-family="Courier" font-size="24.0" fill="#000000" transform="matrix(1.00, 0.00, -0.00, -1.00, 202.7, 35.0)">s</text><text xml:space="preserve" font-family="Courier" font-size="24.0" fill="#000000" transform="matrix(1.00, 0.00, -0.00, -1.00, 217.1, 35.0)">o</text><text xml:space="preserve" font-family="Courier" font-size="24.0" fill="#000000" transform="matrix(1.00, 0.00, -0.00, -1.00, 231.5, 35.0)">r</text><text xml:space="preserve" font-family="Courier" font-size="24.0" fill="#000000" transform="matrix(1.00, 0.00, -0.00, -1.00, 245.9, 35.0)"> </text><text xml:space="preserve" font-family="Courier" font-size="24.0" fill="#000000" transform="matrix(1.00, 0.00, -0.00, -1.00, 260.3, 35.0)">w</text><text xml:space="preserve" font-family="Courier" font-size="24.0" fill="#000000" transform="matrix(1.00, 0.00, -0.00, -1.00, 274.7, 35.0)">a</text><text xml:space="preserve" font-family="Courier" font-size="24.0" fill="#000000" transform="matrix(1.00, 0.00, -0.00, -1.00, 289.1, 35.0)">t</text><text xml:space="preserve" font-family="Courier" font-size="24.0" fill="#000000" transform="matrix(1.00, 0.00, -0.00, -1.00, 303.5, 35.0)">c</text><text xml:space="preserve" font-family="Courier" font-size="24.0" fill="#000000" transform="matrix(1.00, 0.00, -0.00, -1.00, 317.9, 35.0)">h</text><text xml:space="preserve" font-family="Courier" font-size="24.0" fill="#000000" transform="matrix(1.00, 0.00, -0.00, -1.00, 332.3, 35.0)"> </text><text xml:space="preserve" font-family="Courier" font-size="24.0" fill="#000000" transform="matrix(1.00, 0.00, -0.00, -1.00, 346.7, 35.0)">t</text><text xml:space="preserve" font-family="Courier" font-size="24.0" fill="#000000" transform="matrix(1.00, 0.00, -0.00, -1.00, 361.1, 35.0)">i</text><text xml:space="preserve" font-family="Courier" font-size="24.0" fill="#000000" transform="matrix(1.00, 0.00, -0.00, -1.00, 375.5, 35.0)">m</text><text xml:space="preserve" font-family="Courier" font-size="24.0" fill="#000000" transform="matrix(1.00, 0.00, -0.00, -1.00, 389.9, 35.0)">e</text><text xml:space="preserve" font-family="Courier" font-size="24.0" fill="#000000" transform="matrix(1.00, 0.00, -0.00, -1.00, 404.3, 35.0)">E</text><text xml:space="preserve" font-family="Courier" font-size="24.0" fill="#000000" transform="matrix(1.00, 0.00, -0.00, -1.00, 418.7, 35.0)">n</text><text xml:space="preserve" font-family="Courier" font-size="24.0" fill="#000000" transform="matrix(1.00, 0.00, -0.00, -1.00, 433.1, 35.0)">t</text><text xml:space="preserve" font-family="Courier" font-size="24.0" fill="#000000" transform="matrix(1.00, 0.00, -0.00, -1.00, 447.5, 35.0)">e</text><text xml:space="preserve" font-family="Courier" font-size="24.0" fill="#000000" transform="matrix(1.00, 0.00, -0.00, -1.00, 462.0, 35.0)">r</text><text xml:space="preserve" font-family="Courier" font-size="24.0" fill="#000000" transform="matrix(1.00, 0.00, -0.00, -1.00, 476.4, 35.0)"> </text><text xml:space="preserve" font-family="Courier" font-size="24.0" fill="#000000" transform="matrix(1.00, 0.00, -0.00, -1.00, 490.8, 35.0)">-</text><text xml:space="preserve" font-family="Courier" font-size="24.0" fill="#000000" transform="matrix(1.00, 0.00, -0.00, -1.00, 505.2, 35.0)">1</text><text xml:space="preserve" font-family="Courier" font-size="24.0" fill="#000000" transform="matrix(1.00, 0.00, -0.00, -1.00, 519.6, 35.0)"> </text><text xml:space="preserve" font-family="Courier" font-size="24.0" fill="#000000" transform="matrix(1.00, 0.00, -0.00, -1.00, 534.0, 35.0)">0</text><text xml:space="preserve" font-family="Courier" font-size="24.0" fill="#000000" transform="matrix(1.00, 0.00, -0.00, -1.00, 548.4, 35.0)"> </text><text xml:space="preserve" font-family="Courier" font-size="24.0" fill="#000000" transform="matrix(1.00, 0.00, -0.00, -1.00, 217.0, 6.0)">(</text><text xml:space="preserve" font-family="Courier" font-size="24.0" fill="#000000" transform="matrix(1.00, 0.00, -0.00, -1.00, 231.4, 6.0)">/</text><text xml:space="preserve" font-family="Courier" font-size="24.0" fill="#000000" transform="matrix(1.00, 0.00, -0.00, -1.00, 245.8, 6.0)">I</text><text xml:space="preserve" font-family="Courier" font-size="24.0" fill="#000000" transform="matrix(1.00, 0.00, -0.00, -1.00, 260.2, 6.0)">T</text><text xml:space="preserve" font-family="Courier" font-size="24.0" fill="#000000" transform="matrix(1.00, 0.00, -0.00, -1.00, 274.6, 6.0)">L</text><text xml:space="preserve" font-family="Courier" font-size="24.0" fill="#000000" transform="matrix(1.00, 0.00, -0.00, -1.00, 289.0, 6.0)">/</text><text xml:space="preserve" font-family="Courier" font-size="24.0" fill="#000000" transform="matrix(1.00, 0.00, -0.00, -1.00, 303.4, 6.0)">s</text><text xml:space="preserve" font-family="Courier" font-size="24.0" fill="#000000" transform="matrix(1.00, 0.00, -0.00, -1.00, 317.8, 6.0)">c</text><text xml:space="preserve" font-family="Courier" font-size="24.0" fill="#000000" transform="matrix(1.00, 0.00, -0.00, -1.00, 332.2, 6.0)">e</text><text xml:space="preserve" font-family="Courier" font-size="24.0" fill="#000000" transform="matrix(1.00, 0.00, -0.00, -1.00, 346.6, 6.0)">n</text><text xml:space="preserve" font-family="Courier" font-size="24.0" fill="#000000" transform="matrix(1.00, 0.00, -0.00, -1.00, 361.0, 6.0)">e</text><text xml:space="preserve" font-family="Courier" font-size="24.0" fill="#000000" transform="matrix(1.00, 0.00, -0.00, -1.00, 375.5, 6.0)">/</text><text xml:space="preserve" font-family="Courier" font-size="24.0" fill="#000000" transform="matrix(1.00, 0.00, -0.00, -1.00, 389.9, 6.0)">c</text><text xml:space="preserve" font-family="Courier" font-size="24.0" fill="#000000" transform="matrix(1.00, 0.00, -0.00, -1.00, 404.3, 6.0)">u</text><text xml:space="preserve" font-family="Courier" font-size="24.0" fill="#000000" transform="matrix(1.00, 0.00, -0.00, -1.00, 418.7, 6.0)">r</text><text xml:space="preserve" font-family="Courier" font-size="24.0" fill="#000000" transform="matrix(1.00, 0.00, -0.00, -1.00, 433.1, 6.0)">s</text><text xml:space="preserve" font-family="Courier" font-size="24.0" fill="#000000" transform="matrix(1.00, 0.00, -0.00, -1.00, 447.5, 6.0)">o</text><text xml:space="preserve" font-family="Courier" font-size="24.0" fill="#000000" transform="matrix(1.00, 0.00, -0.00, -1.00, 461.9, 6.0)">r</text><text xml:space="preserve" font-family="Courier" font-size="24.0" fill="#000000" transform="matrix(1.00, 0.00, -0.00, -1.00, 476.3, 6.0)"> </text><text xml:space="preserve" font-family="Courier" font-size="24.0" fill="#000000" transform="matrix(1.00, 0.00, -0.00, -1.00, 490.7, 6.0)">t</text><text xml:space="preserve" font-family="Courier" font-size="24.0" fill="#000000" transform="matrix(1.00, 0.00, -0.00, -1.00, 505.1, 6.0)">e</text><text xml:space="preserve" font-family="Courier" font-size="24.0" fill="#000000" transform="matrix(1.00, 0.00, -0.00, -1.00, 519.5, 6.0)">m</text><text xml:space="preserve" font-family="Courier" font-size="24.0" fill="#000000" transform="matrix(1.00, 0.00, -0.00, -1.00, 533.9, 6.0)">p</text><text xml:space="preserve" font-family="Courier" font-size="24.0" fill="#000000" transform="matrix(1.00, 0.00, -0.00, -1.00, 548.3, 6.0)">o</text><text xml:space="preserve" font-family="Courier" font-size="24.0" fill="#000000" transform="matrix(1.00, 0.00, -0.00, -1.00, 562.7, 6.0)"> </text><text xml:space="preserve" font-family="Courier" font-size="24.0" fill="#000000" transform="matrix(1.00, 0.00, -0.00, -1.00, 577.1, 6.0)">8</text><text xml:space="preserve" font-family="Courier" font-size="24.0" fill="#000000" transform="matrix(1.00, 0.00, -0.00, -1.00, 591.5, 6.0)">0</text><text xml:space="preserve" font-family="Courier" font-size="24.0" fill="#000000" transform="matrix(1.00, 0.00, -0.00, -1.00, 605.9, 6.0)">)</text><text xml:space="preserve" font-family="Courier" font-size="24.0" fill="#000000" transform="matrix(1.00, 0.00, -0.00, -1.00, 620.3, 6.0)">;</text></g></svg>