<?xml version="1.0" encoding="UTF-8" standalone="no"?><svg xmlns="http://www.w3.org/2000/svg" xmlns:xlink="http://www.w3.org/1999/xlink" clip-rule="evenodd" stroke-miterlimit="4.00" viewBox="0 0 1024 768"><desc>SVG generated by Keynote</desc><defs></defs><g transform="matrix(1.00, 0.00, -0.00, -1.00, 0.0, 768.0)"><path d="M 0.0 768.0 L 1024.0 768.0 L 1024.0 0.0 L 0.0 0.0 Z M 0.0 768.0 " fill="#000000"></path><text xml:space="preserve" font-family="Avenir-Book" font-size="20.0" fill="#D5D5D5" transform="matrix(1.00, 0.00, -0.00, -1.00, 431.0, 28.0)">T</text><text xml:space="preserve" font-family="Avenir-Book" font-size="20.0" fill="#D5D5D5" transform="matrix(1.00, 0.00, -0.00, -1.00, 442.5, 28.0)">h</text><text xml:space="preserve" font-family="Avenir-Book" font-size="20.0" fill="#D5D5D5" transform="matrix(1.00, 0.00, -0.00, -1.00, 453.6, 28.0)">e</text><text xml:space="preserve" font-family="Avenir-Book" font-size="20.0" fill="#D5D5D5" transform="matrix(1.00, 0.00, -0.00, -1.00, 464.7, 28.0)"> </text><text xml:space="preserve" font-family="Avenir-Book" font-size="20.0" fill="#D5D5D5" transform="matrix(1.00, 0.00, -0.00, -1.00, 470.3, 28.0)">G</text><text xml:space="preserve" font-family="Avenir-Book" font-size="20.0" fill="#D5D5D5" transform="matrix(1.00, 0.00, -0.00, -1.00, 485.8, 28.0)">u</text><text xml:space="preserve" font-family="Avenir-Book" font-size="20.0" fill="#D5D5D5" transform="matrix(1.00, 0.00, -0.00, -1.00, 497.0, 28.0)">i</text><text xml:space="preserve" font-family="Avenir-Book" font-size="20.0" fill="#D5D5D5" transform="matrix(1.00, 0.00, -0.00, -1.00, 501.8, 28.0)">d</text><text xml:space="preserve" font-family="Avenir-Book" font-size="20.0" fill="#D5D5D5" transform="matrix(1.00, 0.00, -0.00, -1.00, 514.0, 28.0)">o</text><text xml:space="preserve" font-family="Avenir-Book" font-size="20.0" fill="#D5D5D5" transform="matrix(1.00, 0.00, -0.00, -1.00, 525.8, 28.0)"> </text><text xml:space="preserve" font-family="Avenir-Book" font-size="20.0" fill="#D5D5D5" transform="matrix(1.00, 0.00, -0.00, -1.00, 531.4, 28.0)">E</text><text xml:space="preserve" font-family="Avenir-Book" font-size="20.0" fill="#D5D5D5" transform="matrix(1.00, 0.00, -0.00, -1.00, 543.3, 28.0)">n</text><text xml:space="preserve" font-family="Avenir-Book" font-size="20.0" fill="#D5D5D5" transform="matrix(1.00, 0.00, -0.00, -1.00, 554.4, 28.0)">g</text><text xml:space="preserve" font-family="Avenir-Book" font-size="20.0" fill="#D5D5D5" transform="matrix(1.00, 0.00, -0.00, -1.00, 566.6, 28.0)">i</text><text xml:space="preserve" font-family="Avenir-Book" font-size="20.0" fill="#D5D5D5" transform="matrix(1.00, 0.00, -0.00, -1.00, 571.4, 28.0)">n</text><text xml:space="preserve" font-family="Avenir-Book" font-size="20.0" fill="#D5D5D5" transform="matrix(1.00, 0.00, -0.00, -1.00, 582.5, 28.0)">e</text><text xml:space="preserve" font-family="AvenirNext-DemiBold" font-weight="bold" font-size="50.0" fill="#FEFFFF" transform="matrix(1.00, 0.00, -0.00, -1.00, 73.0, 674.0)">T</text><text xml:space="preserve" font-family="AvenirNext-DemiBold" font-weight="bold" font-size="50.0" fill="#FEFFFF" transform="matrix(1.00, 0.00, -0.00, -1.00, 100.5, 674.0)">h</text><text xml:space="preserve" font-family="AvenirNext-DemiBold" font-weight="bold" font-size="50.0" fill="#FEFFFF" transform="matrix(1.00, 0.00, -0.00, -1.00, 129.7, 674.0)">e</text><text xml:space="preserve" font-family="AvenirNext-DemiBold" font-weight="bold" font-size="50.0" fill="#FEFFFF" transform="matrix(1.00, 0.00, -0.00, -1.00, 158.4, 674.0)"> </text><text xml:space="preserve" font-family="AvenirNext-DemiBold" font-weight="bold" font-size="50.0" fill="#FEFFFF" transform="matrix(1.00, 0.00, -0.00, -1.00, 170.9, 674.0)">G</text><text xml:space="preserve" font-family="AvenirNext-DemiBold" font-weight="bold" font-size="50.0" fill="#FEFFFF" transform="matrix(1.00, 0.00, -0.00, -1.00, 209.6, 674.0)">u</text><text xml:space="preserve" font-family="AvenirNext-DemiBold" font-weight="bold" font-size="50.0" fill="#FEFFFF" transform="matrix(1.00, 0.00, -0.00, -1.00, 238.7, 674.0)">i</text><text xml:space="preserve" font-family="AvenirNext-DemiBold" font-weight="bold" font-size="50.0" fill="#FEFFFF" transform="matrix(1.00, 0.00, -0.00, -1.00, 252.1, 674.0)">d</text><text xml:space="preserve" font-family="AvenirNext-DemiBold" font-weight="bold" font-size="50.0" fill="#FEFFFF" transform="matrix(1.00, 0.00, -0.00, -1.00, 283.8, 674.0)">o</text><text xml:space="preserve" font-family="AvenirNext-DemiBold" font-weight="bold" font-size="50.0" fill="#FEFFFF" transform="matrix(1.00, 0.00, -0.00, -1.00, 314.2, 674.0)"> </text><text xml:space="preserve" font-family="AvenirNext-DemiBold" font-weight="bold" font-size="50.0" fill="#FEFFFF" transform="matrix(1.00, 0.00, -0.00, -1.00, 325.9, 674.0)">A</text><text xml:space="preserve" font-family="AvenirNext-DemiBold" font-weight="bold" font-size="50.0" fill="#FEFFFF" transform="matrix(1.00, 0.00, -0.00, -1.00, 361.1, 674.0)">R</text><text xml:space="preserve" font-family="AvenirNext-DemiBold" font-weight="bold" font-size="50.0" fill="#FEFFFF" transform="matrix(1.00, 0.00, -0.00, -1.00, 392.6, 674.0)"> </text><text xml:space="preserve" font-family="AvenirNext-DemiBold" font-weight="bold" font-size="50.0" fill="#FEFFFF" transform="matrix(1.00, 0.00, -0.00, -1.00, 405.1, 674.0)">L</text><text xml:space="preserve" font-family="AvenirNext-DemiBold" font-weight="bold" font-size="50.0" fill="#FEFFFF" transform="matrix(1.00, 0.00, -0.00, -1.00, 430.6, 674.0)">i</text><text xml:space="preserve" font-family="AvenirNext-DemiBold" font-weight="bold" font-size="50.0" fill="#FEFFFF" transform="matrix(1.00, 0.00, -0.00, -1.00, 444.0, 674.0)">b</text><text xml:space="preserve" font-family="AvenirNext-DemiBold" font-weight="bold" font-size="50.0" fill="#FEFFFF" transform="matrix(1.00, 0.00, -0.00, -1.00, 475.8, 674.0)">r</text><text xml:space="preserve" font-family="AvenirNext-DemiBold" font-weight="bold" font-size="50.0" fill="#FEFFFF" transform="matrix(1.00, 0.00, -0.00, -1.00, 493.3, 674.0)">a</text><text xml:space="preserve" font-family="AvenirNext-DemiBold" font-weight="bold" font-size="50.0" fill="#FEFFFF" transform="matrix(1.00, 0.00, -0.00, -1.00, 520.8, 674.0)">r</text><text xml:space="preserve" font-family="AvenirNext-DemiBold" font-weight="bold" font-size="50.0" fill="#FEFFFF" transform="matrix(1.00, 0.00, -0.00, -1.00, 539.0, 674.0)">y</text><text xml:space="preserve" font-family="AvenirNext-DemiBold" font-weight="bold" font-size="40.5" fill="#FEFFFF" transform="matrix(1.00, 0.00, -0.00, -1.00, 74.0, 581.0)">I</text><text xml:space="preserve" font-family="AvenirNext-DemiBold" font-weight="bold" font-size="40.5" fill="#FEFFFF" transform="matrix(1.00, 0.00, -0.00, -1.00, 85.4, 581.0)">n</text><text xml:space="preserve" font-family="AvenirNext-DemiBold" font-weight="bold" font-size="40.5" fill="#FEFFFF" transform="matrix(1.00, 0.00, -0.00, -1.00, 109.0, 581.0)">t</text><text xml:space="preserve" font-family="AvenirNext-DemiBold" font-weight="bold" font-size="40.5" fill="#FEFFFF" transform="matrix(1.00, 0.00, -0.00, -1.00, 122.7, 581.0)">e</text><text xml:space="preserve" font-family="AvenirNext-DemiBold" font-weight="bold" font-size="40.5" fill="#FEFFFF" transform="matrix(1.00, 0.00, -0.00, -1.00, 146.0, 581.0)">n</text><text xml:space="preserve" font-family="AvenirNext-DemiBold" font-weight="bold" font-size="40.5" fill="#FEFFFF" transform="matrix(1.00, 0.00, -0.00, -1.00, 169.5, 581.0)">d</text><text xml:space="preserve" font-family="AvenirNext-DemiBold" font-weight="bold" font-size="40.5" fill="#FEFFFF" transform="matrix(1.00, 0.00, -0.00, -1.00, 195.2, 581.0)">e</text><text xml:space="preserve" font-family="AvenirNext-DemiBold" font-weight="bold" font-size="40.5" fill="#FEFFFF" transform="matrix(1.00, 0.00, -0.00, -1.00, 218.4, 581.0)">d</text><text xml:space="preserve" font-family="AvenirNext-DemiBold" font-weight="bold" font-size="40.5" fill="#FEFFFF" transform="matrix(1.00, 0.00, -0.00, -1.00, 244.1, 581.0)"> </text><text xml:space="preserve" font-family="AvenirNext-DemiBold" font-weight="bold" font-size="40.5" fill="#FEFFFF" transform="matrix(1.00, 0.00, -0.00, -1.00, 254.2, 581.0)">t</text><text xml:space="preserve" font-family="AvenirNext-DemiBold" font-weight="bold" font-size="40.5" fill="#FEFFFF" transform="matrix(1.00, 0.00, -0.00, -1.00, 268.0, 581.0)">o</text><text xml:space="preserve" font-family="AvenirNext-DemiBold" font-weight="bold" font-size="40.5" fill="#FEFFFF" transform="matrix(1.00, 0.00, -0.00, -1.00, 292.7, 581.0)"> </text><text xml:space="preserve" font-family="AvenirNext-DemiBold" font-weight="bold" font-size="40.5" fill="#FEFFFF" transform="matrix(1.00, 0.00, -0.00, -1.00, 302.8, 581.0)">m</text><text xml:space="preserve" font-family="AvenirNext-DemiBold" font-weight="bold" font-size="40.5" fill="#FEFFFF" transform="matrix(1.00, 0.00, -0.00, -1.00, 338.8, 581.0)">a</text><text xml:space="preserve" font-family="AvenirNext-DemiBold" font-weight="bold" font-size="40.5" fill="#FEFFFF" transform="matrix(1.00, 0.00, -0.00, -1.00, 361.1, 581.0)">n</text><text xml:space="preserve" font-family="AvenirNext-DemiBold" font-weight="bold" font-size="40.5" fill="#FEFFFF" transform="matrix(1.00, 0.00, -0.00, -1.00, 384.6, 581.0)">i</text><text xml:space="preserve" font-family="AvenirNext-DemiBold" font-weight="bold" font-size="40.5" fill="#FEFFFF" transform="matrix(1.00, 0.00, -0.00, -1.00, 395.5, 581.0)">p</text><text xml:space="preserve" font-family="AvenirNext-DemiBold" font-weight="bold" font-size="40.5" fill="#FEFFFF" transform="matrix(1.00, 0.00, -0.00, -1.00, 421.1, 581.0)">u</text><text xml:space="preserve" font-family="AvenirNext-DemiBold" font-weight="bold" font-size="40.5" fill="#FEFFFF" transform="matrix(1.00, 0.00, -0.00, -1.00, 444.7, 581.0)">l</text><text xml:space="preserve" font-family="AvenirNext-DemiBold" font-weight="bold" font-size="40.5" fill="#FEFFFF" transform="matrix(1.00, 0.00, -0.00, -1.00, 455.5, 581.0)">a</text><text xml:space="preserve" font-family="AvenirNext-DemiBold" font-weight="bold" font-size="40.5" fill="#FEFFFF" transform="matrix(1.00, 0.00, -0.00, -1.00, 477.4, 581.0)">t</text><text xml:space="preserve" font-family="AvenirNext-DemiBold" font-weight="bold" font-size="40.5" fill="#FEFFFF" transform="matrix(1.00, 0.00, -0.00, -1.00, 491.1, 581.0)">e</text><text xml:space="preserve" font-family="AvenirNext-DemiBold" font-weight="bold" font-size="40.5" fill="#FEFFFF" transform="matrix(1.00, 0.00, -0.00, -1.00, 514.4, 581.0)"> </text><text xml:space="preserve" font-family="AvenirNext-DemiBold" font-weight="bold" font-size="40.5" fill="#FEFFFF" transform="matrix(1.00, 0.00, -0.00, -1.00, 524.5, 581.0)">a</text><text xml:space="preserve" font-family="AvenirNext-DemiBold" font-weight="bold" font-size="40.5" fill="#FEFFFF" transform="matrix(1.00, 0.00, -0.00, -1.00, 546.8, 581.0)">b</text><text xml:space="preserve" font-family="AvenirNext-DemiBold" font-weight="bold" font-size="40.5" fill="#FEFFFF" transform="matrix(1.00, 0.00, -0.00, -1.00, 572.5, 581.0)">s</text><text xml:space="preserve" font-family="AvenirNext-DemiBold" font-weight="bold" font-size="40.5" fill="#FEFFFF" transform="matrix(1.00, 0.00, -0.00, -1.00, 590.4, 581.0)">t</text><text xml:space="preserve" font-family="AvenirNext-DemiBold" font-weight="bold" font-size="40.5" fill="#FEFFFF" transform="matrix(1.00, 0.00, -0.00, -1.00, 604.2, 581.0)">r</text><text xml:space="preserve" font-family="AvenirNext-DemiBold" font-weight="bold" font-size="40.5" fill="#FEFFFF" transform="matrix(1.00, 0.00, -0.00, -1.00, 618.4, 581.0)">a</text><text xml:space="preserve" font-family="AvenirNext-DemiBold" font-weight="bold" font-size="40.5" fill="#FEFFFF" transform="matrix(1.00, 0.00, -0.00, -1.00, 640.7, 581.0)">c</text><text xml:space="preserve" font-family="AvenirNext-DemiBold" font-weight="bold" font-size="40.5" fill="#FEFFFF" transform="matrix(1.00, 0.00, -0.00, -1.00, 660.4, 581.0)">t</text><text xml:space="preserve" font-family="AvenirNext-DemiBold" font-weight="bold" font-size="40.5" fill="#FEFFFF" transform="matrix(1.00, 0.00, -0.00, -1.00, 674.2, 581.0)"> </text><text xml:space="preserve" font-family="AvenirNext-DemiBold" font-weight="bold" font-size="40.5" fill="#FEFFFF" transform="matrix(1.00, 0.00, -0.00, -1.00, 684.3, 581.0)">r</text><text xml:space="preserve" font-family="AvenirNext-DemiBold" font-weight="bold" font-size="40.5" fill="#FEFFFF" transform="matrix(1.00, 0.00, -0.00, -1.00, 698.3, 581.0)">e</text><text xml:space="preserve" font-family="AvenirNext-DemiBold" font-weight="bold" font-size="40.5" fill="#FEFFFF" transform="matrix(1.00, 0.00, -0.00, -1.00, 721.6, 581.0)">p</text><text xml:space="preserve" font-family="AvenirNext-DemiBold" font-weight="bold" font-size="40.5" fill="#FEFFFF" transform="matrix(1.00, 0.00, -0.00, -1.00, 747.2, 581.0)">r</text><text xml:space="preserve" font-family="AvenirNext-DemiBold" font-weight="bold" font-size="40.5" fill="#FEFFFF" transform="matrix(1.00, 0.00, -0.00, -1.00, 761.2, 581.0)">e</text><text xml:space="preserve" font-family="AvenirNext-DemiBold" font-weight="bold" font-size="40.5" fill="#FEFFFF" transform="matrix(1.00, 0.00, -0.00, -1.00, 784.4, 581.0)">s</text><text xml:space="preserve" font-family="AvenirNext-DemiBold" font-weight="bold" font-size="40.5" fill="#FEFFFF" transform="matrix(1.00, 0.00, -0.00, -1.00, 802.4, 581.0)">e</text><text xml:space="preserve" font-family="AvenirNext-DemiBold" font-weight="bold" font-size="40.5" fill="#FEFFFF" transform="matrix(1.00, 0.00, -0.00, -1.00, 825.6, 581.0)">n</text><text xml:space="preserve" font-family="AvenirNext-DemiBold" font-weight="bold" font-size="40.5" fill="#FEFFFF" transform="matrix(1.00, 0.00, -0.00, -1.00, 849.2, 581.0)">t</text><text xml:space="preserve" font-family="AvenirNext-DemiBold" font-weight="bold" font-size="40.5" fill="#FEFFFF" transform="matrix(1.00, 0.00, -0.00, -1.00, 863.0, 581.0)">a</text><text xml:space="preserve" font-family="AvenirNext-DemiBold" font-weight="bold" font-size="40.5" fill="#FEFFFF" transform="matrix(1.00, 0.00, -0.00, -1.00, 884.8, 581.0)">t</text><text xml:space="preserve" font-family="AvenirNext-DemiBold" font-weight="bold" font-size="40.5" fill="#FEFFFF" transform="matrix(1.00, 0.00, -0.00, -1.00, 898.6, 581.0)">i</text><text xml:space="preserve" font-family="AvenirNext-DemiBold" font-weight="bold" font-size="40.5" fill="#FEFFFF" transform="matrix(1.00, 0.00, -0.00, -1.00, 909.4, 581.0)">o</text><text xml:space="preserve" font-family="AvenirNext-DemiBold" font-weight="bold" font-size="40.5" fill="#FEFFFF" transform="matrix(1.00, 0.00, -0.00, -1.00, 934.1, 581.0)">n</text><text xml:space="preserve" font-family="AvenirNext-DemiBold" font-weight="bold" font-size="40.5" fill="#FEFFFF" transform="matrix(1.00, 0.00, -0.00, -1.00, 957.7, 581.0)">s</text><text xml:space="preserve" font-family="Avenir-Heavy" font-weight="bold" font-size="34.0" fill="#DCDDE0" transform="matrix(1.00, 0.00, -0.00, -1.00, 73.0, 533.0)">O</text><text xml:space="preserve" font-family="Avenir-Heavy" font-weight="bold" font-size="34.0" fill="#DCDDE0" transform="matrix(1.00, 0.00, -0.00, -1.00, 101.3, 533.0)">p</text><text xml:space="preserve" font-family="Avenir-Heavy" font-weight="bold" font-size="34.0" fill="#DCDDE0" transform="matrix(1.00, 0.00, -0.00, -1.00, 122.7, 533.0)">e</text><text xml:space="preserve" font-family="Avenir-Heavy" font-weight="bold" font-size="34.0" fill="#DCDDE0" transform="matrix(1.00, 0.00, -0.00, -1.00, 142.3, 533.0)">r</text><text xml:space="preserve" font-family="Avenir-Heavy" font-weight="bold" font-size="34.0" fill="#DCDDE0" transform="matrix(1.00, 0.00, -0.00, -1.00, 155.5, 533.0)">a</text><text xml:space="preserve" font-family="Avenir-Heavy" font-weight="bold" font-size="34.0" fill="#DCDDE0" transform="matrix(1.00, 0.00, -0.00, -1.00, 173.7, 533.0)">t</text><text xml:space="preserve" font-family="Avenir-Heavy" font-weight="bold" font-size="34.0" fill="#DCDDE0" transform="matrix(1.00, 0.00, -0.00, -1.00, 187.0, 533.0)">i</text><text xml:space="preserve" font-family="Avenir-Heavy" font-weight="bold" font-size="34.0" fill="#DCDDE0" transform="matrix(1.00, 0.00, -0.00, -1.00, 195.8, 533.0)">o</text><text xml:space="preserve" font-family="Avenir-Heavy" font-weight="bold" font-size="34.0" fill="#DCDDE0" transform="matrix(1.00, 0.00, -0.00, -1.00, 216.6, 533.0)">n</text><text xml:space="preserve" font-family="Avenir-Heavy" font-weight="bold" font-size="34.0" fill="#DCDDE0" transform="matrix(1.00, 0.00, -0.00, -1.00, 236.1, 533.0)">s</text><text xml:space="preserve" font-family="Avenir-Heavy" font-weight="bold" font-size="34.0" fill="#DCDDE0" transform="matrix(1.00, 0.00, -0.00, -1.00, 251.2, 533.0)">:</text><image xlink:href="432FFC37AF6A52939E77E77BC0F385F1.png" width="676.00" height="39.00" transform="matrix(1.00, 0.00, -0.00, -1.00, 190.1, 128.9)" opacity="0.50"></image><path d="M 193.1 127.9 L 863.4 127.9 L 863.4 94.9 L 193.1 94.9 Z M 193.1 127.9 " fill="#52575F"></path><text xml:space="preserve" font-family="Avenir-Book" font-size="18.0" fill="#D5D5D5" transform="matrix(1.00, 0.00, -0.00, -1.00, 30.0, 28.0)">2</text><text xml:space="preserve" font-family="Avenir-Book" font-size="18.0" fill="#D5D5D5" transform="matrix(1.00, 0.00, -0.00, -1.00, 40.0, 28.0)">8</text><image xlink:href="../../B04F1C97-ECAB-4D96-BED1-068678BAA01E/assets/BEF333F0D2746660C5E29CAA3BCC24B1.png" width="236.00" height="101.00" transform="matrix(1.00, 0.00, -0.00, -1.00, -285.0, 1087.0)"></image><image xlink:href="../../0B3FB327-4F7A-4226-9EA3-387F3AB7BF7B/assets/49FEDE11C22B7029D8762ECD337BED72.png" width="101.00" height="30.00" transform="matrix(1.00, 0.00, -0.00, -1.00, 659.8, 124.9)" opacity="0.50"></image><path d="M 662.8 123.9 L 757.8 123.9 L 757.8 99.9 L 662.8 99.9 Z M 662.8 123.9 " fill="#00872A"></path><image xlink:href="../../03B5691F-98F2-4459-AF91-47EC1DF3C7FD/assets/08801DB60A4543083842762376F32275.png" width="101.00" height="30.00" transform="matrix(1.00, 0.00, -0.00, -1.00, 412.0, 138.1)" opacity="0.50"></image><path d="M 415.0 137.1 L 509.6 137.1 L 509.6 113.1 L 415.0 113.1 Z M 415.0 137.1 " fill="#00872A"></path><image xlink:href="../../03B5691F-98F2-4459-AF91-47EC1DF3C7FD/assets/FC7123D73001BD5E689591325428012C.png" width="63.00" height="30.00" transform="matrix(0.99, 0.00, -0.00, -1.00, 412.0, 111.0)" opacity="0.50"></image><path d="M 415.0 110.0 L 471.6 110.0 L 471.6 86.0 L 415.0 86.0 Z M 415.0 110.0 " fill="#DCBD22"></path><path d="M 0.0 0.0 L 19.4 0.0 L 20.4 0.0 " fill="none" stroke="#C82505" stroke-width="2.00" transform="matrix(1.00, 0.00, 0.00, -1.00, 599.7, 111.9)"></path><path d="M 619.2 107.1 L 628.8 111.9 L 619.2 116.7 Z M 619.2 107.1 " fill="#C82505"></path><text xml:space="preserve" font-family="Futura-Medium" font-size="36.0" fill="#000000" transform="matrix(1.00, 0.00, -0.00, -1.00, 425.0, 118.0)">.</text><text xml:space="preserve" font-family="Futura-Medium" font-size="36.0" fill="#000000" transform="matrix(1.00, 0.00, -0.00, -1.00, 436.1, 118.0)"> </text><text xml:space="preserve" font-family="Futura-Medium" font-size="36.0" fill="#000000" transform="matrix(1.00, 0.00, -0.00, -1.00, 447.2, 118.0)">.</text><text xml:space="preserve" font-family="Futura-Medium" font-size="36.0" fill="#000000" transform="matrix(1.00, 0.00, -0.00, -1.00, 458.3, 118.0)"> </text><text xml:space="preserve" font-family="Futura-Medium" font-size="36.0" fill="#000000" transform="matrix(1.00, 0.00, -0.00, -1.00, 469.4, 118.0)">.</text><text xml:space="preserve" font-family="Futura-Medium" font-size="36.0" fill="#000000" transform="matrix(1.00, 0.00, -0.00, -1.00, 480.5, 118.0)"> </text><text xml:space="preserve" font-family="Futura-Medium" font-size="36.0" fill="#000000" transform="matrix(1.00, 0.00, -0.00, -1.00, 491.6, 118.0)">.</text><text xml:space="preserve" font-family="Futura-Medium" font-size="36.0" fill="#000000" transform="matrix(1.00, 0.00, -0.00, -1.00, 422.0, 96.0)">.</text><text xml:space="preserve" font-family="Futura-Medium" font-size="36.0" fill="#000000" transform="matrix(1.00, 0.00, -0.00, -1.00, 438.0, 102.0)">.</text><text xml:space="preserve" font-family="Futura-Medium" font-size="36.0" fill="#000000" transform="matrix(1.00, 0.00, -0.00, -1.00, 677.0, 109.0)">.</text><text xml:space="preserve" font-family="Futura-Medium" font-size="36.0" fill="#000000" transform="matrix(1.00, 0.00, -0.00, -1.00, 696.0, 115.0)">.</text><text xml:space="preserve" font-family="Futura-Medium" font-size="36.0" fill="#000000" transform="matrix(1.00, 0.00, -0.00, -1.00, 715.0, 109.0)">.</text><text xml:space="preserve" font-family="Futura-Medium" font-size="36.0" fill="#000000" transform="matrix(1.00, 0.00, -0.00, -1.00, 733.0, 115.0)">.</text><text xml:space="preserve" font-family="Helvetica-Light" font-size="26.0" fill="#FEFFFE" transform="matrix(1.00, 0.00, -0.00, -1.00, 197.0, 474.0)">s</text><text xml:space="preserve" font-family="Helvetica-Light" font-size="26.0" fill="#FEFFFE" transform="matrix(1.00, 0.00, -0.00, -1.00, 210.0, 474.0)">e</text><text xml:space="preserve" font-family="Helvetica-Light" font-size="26.0" fill="#FEFFFE" transform="matrix(1.00, 0.00, -0.00, -1.00, 224.5, 474.0)">q</text><text xml:space="preserve" font-family="Helvetica-Light" font-size="26.0" fill="#FEFFFE" transform="matrix(1.00, 0.00, -0.00, -1.00, 240.3, 474.0)"> </text><text xml:space="preserve" font-family="Helvetica-Light" font-size="26.0" fill="#FEFFFE" transform="matrix(1.00, 0.00, -0.00, -1.00, 197.0, 443.0)">p</text><text xml:space="preserve" font-family="Helvetica-Light" font-size="26.0" fill="#FEFFFE" transform="matrix(1.00, 0.00, -0.00, -1.00, 212.9, 443.0)">a</text><text xml:space="preserve" font-family="Helvetica-Light" font-size="26.0" fill="#FEFFFE" transform="matrix(1.00, 0.00, -0.00, -1.00, 227.3, 443.0)">r</text><text xml:space="preserve" font-family="Helvetica-Light" font-size="26.0" fill="#FEFFFE" transform="matrix(1.00, 0.00, -0.00, -1.00, 236.0, 443.0)"> </text><text xml:space="preserve" font-family="Helvetica-Light" font-size="26.0" fill="#FEFFFE" transform="matrix(1.00, 0.00, -0.00, -1.00, 197.0, 412.0)">r</text><text xml:space="preserve" font-family="Helvetica-Light" font-size="26.0" fill="#FEFFFE" transform="matrix(1.00, 0.00, -0.00, -1.00, 205.7, 412.0)">p</text><text xml:space="preserve" font-family="Helvetica-Light" font-size="26.0" fill="#FEFFFE" transform="matrix(1.00, 0.00, -0.00, -1.00, 221.5, 412.0)">a</text><text xml:space="preserve" font-family="Helvetica-Light" font-size="26.0" fill="#FEFFFE" transform="matrix(1.00, 0.00, -0.00, -1.00, 236.0, 412.0)">r</text><text xml:space="preserve" font-family="Helvetica-Light" font-size="26.0" fill="#FEFFFE" transform="matrix(1.00, 0.00, -0.00, -1.00, 244.7, 412.0)"> </text><text xml:space="preserve" font-family="Helvetica-Light" font-size="26.0" fill="#FEFFFE" transform="matrix(1.00, 0.00, -0.00, -1.00, 197.0, 381.0)">h</text><text xml:space="preserve" font-family="Helvetica-Light" font-size="26.0" fill="#FEFFFE" transform="matrix(1.00, 0.00, -0.00, -1.00, 211.5, 381.0)">e</text><text xml:space="preserve" font-family="Helvetica-Light" font-size="26.0" fill="#FEFFFE" transform="matrix(1.00, 0.00, -0.00, -1.00, 225.9, 381.0)">a</text><text xml:space="preserve" font-family="Helvetica-Light" font-size="26.0" fill="#FEFFFE" transform="matrix(1.00, 0.00, -0.00, -1.00, 240.4, 381.0)">d</text><text xml:space="preserve" font-family="Helvetica-Light" font-size="26.0" fill="#FEFFFE" transform="matrix(1.00, 0.00, -0.00, -1.00, 256.3, 381.0)"> </text><text xml:space="preserve" font-family="Helvetica-Light" font-size="26.0" fill="#FEFFFE" transform="matrix(1.00, 0.00, -0.00, -1.00, 197.0, 350.0)">e</text><text xml:space="preserve" font-family="Helvetica-Light" font-size="26.0" fill="#FEFFFE" transform="matrix(1.00, 0.00, -0.00, -1.00, 211.5, 350.0)">v</text><text xml:space="preserve" font-family="Helvetica-Light" font-size="26.0" fill="#FEFFFE" transform="matrix(1.00, 0.00, -0.00, -1.00, 224.5, 350.0)">h</text><text xml:space="preserve" font-family="Helvetica-Light" font-size="26.0" fill="#FEFFFE" transform="matrix(1.00, 0.00, -0.00, -1.00, 238.9, 350.0)">e</text><text xml:space="preserve" font-family="Helvetica-Light" font-size="26.0" fill="#FEFFFE" transform="matrix(1.00, 0.00, -0.00, -1.00, 253.4, 350.0)">a</text><text xml:space="preserve" font-family="Helvetica-Light" font-size="26.0" fill="#FEFFFE" transform="matrix(1.00, 0.00, -0.00, -1.00, 267.8, 350.0)">d</text><text xml:space="preserve" font-family="Helvetica-Light" font-size="26.0" fill="#FEFFFE" transform="matrix(1.00, 0.00, -0.00, -1.00, 283.7, 350.0)"> </text><text xml:space="preserve" font-family="Helvetica-Light" font-size="26.0" fill="#FEFFFE" transform="matrix(1.00, 0.00, -0.00, -1.00, 197.0, 319.0)">t</text><text xml:space="preserve" font-family="Helvetica-Light" font-size="26.0" fill="#FEFFFE" transform="matrix(1.00, 0.00, -0.00, -1.00, 204.2, 319.0)">a</text><text xml:space="preserve" font-family="Helvetica-Light" font-size="26.0" fill="#FEFFFE" transform="matrix(1.00, 0.00, -0.00, -1.00, 218.7, 319.0)">i</text><text xml:space="preserve" font-family="Helvetica-Light" font-size="26.0" fill="#FEFFFE" transform="matrix(1.00, 0.00, -0.00, -1.00, 224.5, 319.0)">l</text><text xml:space="preserve" font-family="Helvetica-Light" font-size="26.0" fill="#FEFFFE" transform="matrix(1.00, 0.00, -0.00, -1.00, 230.2, 319.0)"> </text><text xml:space="preserve" font-family="Helvetica-Light" font-size="26.0" fill="#FEFFFE" transform="matrix(1.00, 0.00, -0.00, -1.00, 197.0, 288.0)">e</text><text xml:space="preserve" font-family="Helvetica-Light" font-size="26.0" fill="#FEFFFE" transform="matrix(1.00, 0.00, -0.00, -1.00, 211.5, 288.0)">v</text><text xml:space="preserve" font-family="Helvetica-Light" font-size="26.0" fill="#FEFFFE" transform="matrix(1.00, 0.00, -0.00, -1.00, 224.5, 288.0)">t</text><text xml:space="preserve" font-family="Helvetica-Light" font-size="26.0" fill="#FEFFFE" transform="matrix(1.00, 0.00, -0.00, -1.00, 231.7, 288.0)">a</text><text xml:space="preserve" font-family="Helvetica-Light" font-size="26.0" fill="#FEFFFE" transform="matrix(1.00, 0.00, -0.00, -1.00, 246.1, 288.0)">i</text><text xml:space="preserve" font-family="Helvetica-Light" font-size="26.0" fill="#FEFFFE" transform="matrix(1.00, 0.00, -0.00, -1.00, 251.9, 288.0)">l</text><text xml:space="preserve" font-family="Helvetica-Light" font-size="26.0" fill="#FEFFFE" transform="matrix(1.00, 0.00, -0.00, -1.00, 257.7, 288.0)"> </text><text xml:space="preserve" font-family="Helvetica-Light" font-size="26.0" fill="#FEFFFE" transform="matrix(1.00, 0.00, -0.00, -1.00, 197.0, 257.0)">d</text><text xml:space="preserve" font-family="Helvetica-Light" font-size="26.0" fill="#FEFFFE" transform="matrix(1.00, 0.00, -0.00, -1.00, 212.9, 257.0)">u</text><text xml:space="preserve" font-family="Helvetica-Light" font-size="26.0" fill="#FEFFFE" transform="matrix(1.00, 0.00, -0.00, -1.00, 227.3, 257.0)">r</text><text xml:space="preserve" font-family="Helvetica-Light" font-size="26.0" fill="#FEFFFE" transform="matrix(1.00, 0.00, -0.00, -1.00, 236.0, 257.0)">a</text><text xml:space="preserve" font-family="Helvetica-Light" font-size="26.0" fill="#FEFFFE" transform="matrix(1.00, 0.00, -0.00, -1.00, 250.5, 257.0)">t</text><text xml:space="preserve" font-family="Helvetica-Light" font-size="26.0" fill="#FEFFFE" transform="matrix(1.00, 0.00, -0.00, -1.00, 257.7, 257.0)">i</text><text xml:space="preserve" font-family="Helvetica-Light" font-size="26.0" fill="#FEFFFE" transform="matrix(1.00, 0.00, -0.00, -1.00, 263.5, 257.0)">o</text><text xml:space="preserve" font-family="Helvetica-Light" font-size="26.0" fill="#FEFFFE" transform="matrix(1.00, 0.00, -0.00, -1.00, 277.9, 257.0)">n</text><text xml:space="preserve" font-family="Helvetica-Light" font-size="26.0" fill="#FEFFFE" transform="matrix(1.00, 0.00, -0.00, -1.00, 292.4, 257.0)"> </text><text xml:space="preserve" font-family="Helvetica-Light" font-size="26.0" fill="#FEFFFE" transform="matrix(1.00, 0.00, -0.00, -1.00, 197.0, 226.0)">t</text><text xml:space="preserve" font-family="Helvetica-Light" font-size="26.0" fill="#FEFFFE" transform="matrix(1.00, 0.00, -0.00, -1.00, 204.2, 226.0)">r</text><text xml:space="preserve" font-family="Helvetica-Light" font-size="26.0" fill="#FEFFFE" transform="matrix(1.00, 0.00, -0.00, -1.00, 212.9, 226.0)">a</text><text xml:space="preserve" font-family="Helvetica-Light" font-size="26.0" fill="#FEFFFE" transform="matrix(1.00, 0.00, -0.00, -1.00, 227.3, 226.0)">n</text><text xml:space="preserve" font-family="Helvetica-Light" font-size="26.0" fill="#FEFFFE" transform="matrix(1.00, 0.00, -0.00, -1.00, 241.8, 226.0)">s</text><text xml:space="preserve" font-family="Helvetica-Light" font-size="26.0" fill="#FEFFFE" transform="matrix(1.00, 0.00, -0.00, -1.00, 254.8, 226.0)">p</text><text xml:space="preserve" font-family="Helvetica-Light" font-size="26.0" fill="#FEFFFE" transform="matrix(1.00, 0.00, -0.00, -1.00, 270.7, 226.0)">o</text><text xml:space="preserve" font-family="Helvetica-Light" font-size="26.0" fill="#FEFFFE" transform="matrix(1.00, 0.00, -0.00, -1.00, 285.1, 226.0)">s</text><text xml:space="preserve" font-family="Helvetica-Light" font-size="26.0" fill="#FEFFFE" transform="matrix(1.00, 0.00, -0.00, -1.00, 298.1, 226.0)">e</text><text xml:space="preserve" font-family="Helvetica-Light" font-size="26.0" fill="#FEFFFE" transform="matrix(1.00, 0.00, -0.00, -1.00, 312.6, 226.0)"> </text><text xml:space="preserve" font-family="Helvetica-Light" font-size="26.0" fill="#FEFFFE" transform="matrix(1.00, 0.00, -0.00, -1.00, 197.0, 195.0)">t</text><text xml:space="preserve" font-family="Helvetica-Light" font-size="26.0" fill="#FEFFFE" transform="matrix(1.00, 0.00, -0.00, -1.00, 204.2, 195.0)">o</text><text xml:space="preserve" font-family="Helvetica-Light" font-size="26.0" fill="#FEFFFE" transform="matrix(1.00, 0.00, -0.00, -1.00, 218.7, 195.0)">p</text><text xml:space="preserve" font-family="Helvetica-Light" font-size="26.0" fill="#FEFFFE" transform="matrix(1.00, 0.00, -0.00, -1.00, 234.6, 195.0)"> </text><text xml:space="preserve" font-family="Helvetica-Light" font-size="26.0" fill="#FEFFFE" transform="matrix(1.00, 0.00, -0.00, -1.00, 197.0, 164.0)">b</text><text xml:space="preserve" font-family="Helvetica-Light" font-size="26.0" fill="#FEFFFE" transform="matrix(1.00, 0.00, -0.00, -1.00, 212.9, 164.0)">o</text><text xml:space="preserve" font-family="Helvetica-Light" font-size="26.0" fill="#FEFFFE" transform="matrix(1.00, 0.00, -0.00, -1.00, 227.3, 164.0)">t</text><text xml:space="preserve" font-family="Helvetica-Light" font-size="26.0" fill="#FEFFFE" transform="matrix(1.00, 0.00, -0.00, -1.00, 234.6, 164.0)">t</text><text xml:space="preserve" font-family="Helvetica-Light" font-size="26.0" fill="#FEFFFE" transform="matrix(1.00, 0.00, -0.00, -1.00, 241.8, 164.0)">o</text><text xml:space="preserve" font-family="Helvetica-Light" font-size="26.0" fill="#FEFFFE" transform="matrix(1.00, 0.00, -0.00, -1.00, 256.3, 164.0)">m</text><text xml:space="preserve" font-family="Helvetica-Light" font-size="26.0" fill="#FEFFFE" transform="matrix(1.00, 0.00, -0.00, -1.00, 277.9, 164.0)"> </text><text xml:space="preserve" font-family="Helvetica-Light" font-size="26.0" fill="#FEFFFE" transform="matrix(1.00, 0.00, -0.00, -1.00, 197.0, 133.0)">r</text><text xml:space="preserve" font-family="Helvetica-Light" font-size="26.0" fill="#FEFFFE" transform="matrix(1.00, 0.00, -0.00, -1.00, 205.7, 133.0)">h</text><text xml:space="preserve" font-family="Helvetica-Light" font-size="26.0" fill="#FEFFFE" transform="matrix(1.00, 0.00, -0.00, -1.00, 220.1, 133.0)">y</text><text xml:space="preserve" font-family="Helvetica-Light" font-size="26.0" fill="#FEFFFE" transform="matrix(1.00, 0.00, -0.00, -1.00, 233.1, 133.0)">t</text><text xml:space="preserve" font-family="Helvetica-Light" font-size="26.0" fill="#FEFFFE" transform="matrix(1.00, 0.00, -0.00, -1.00, 240.3, 133.0)">h</text><text xml:space="preserve" font-family="Helvetica-Light" font-size="26.0" fill="#FEFFFE" transform="matrix(1.00, 0.00, -0.00, -1.00, 254.8, 133.0)">m</text><text xml:space="preserve" font-family="Helvetica-Light" font-size="26.0" fill="#FEFFFE" transform="matrix(1.00, 0.00, -0.00, -1.00, 276.5, 133.0)"> </text><text xml:space="preserve" font-family="Helvetica-Light" font-size="26.0" fill="#FEFFFE" transform="matrix(1.00, 0.00, -0.00, -1.00, 197.0, 102.0)">p</text><text xml:space="preserve" font-family="Helvetica-Light" font-size="26.0" fill="#FEFFFE" transform="matrix(1.00, 0.00, -0.00, -1.00, 212.9, 102.0)">i</text><text xml:space="preserve" font-family="Helvetica-Light" font-size="26.0" fill="#FEFFFE" transform="matrix(1.00, 0.00, -0.00, -1.00, 218.7, 102.0)">t</text><text xml:space="preserve" font-family="Helvetica-Light" font-size="26.0" fill="#FEFFFE" transform="matrix(1.00, 0.00, -0.00, -1.00, 225.9, 102.0)">c</text><text xml:space="preserve" font-family="Helvetica-Light" font-size="26.0" fill="#FEFFFE" transform="matrix(1.00, 0.00, -0.00, -1.00, 240.3, 102.0)">h</text></g></svg>