<?xml version="1.0" encoding="UTF-8" standalone="no"?><svg xmlns="http://www.w3.org/2000/svg" xmlns:xlink="http://www.w3.org/1999/xlink" clip-rule="evenodd" stroke-miterlimit="4.00" viewBox="0 0 222 32"><desc>SVG generated by Keynote</desc><defs></defs><g transform="matrix(1.00, 0.00, -0.00, -1.00, 0.0, 32.0)"><text xml:space="preserve" font-family="Helvetica-Bold" font-weight="bold" font-size="30.0" fill="#0264C0" transform="matrix(1.00, 0.00, -0.00, -1.00, 0.0, 8.0)">c</text><text xml:space="preserve" font-family="Helvetica-Bold" font-weight="bold" font-size="30.0" fill="#0264C0" transform="matrix(1.00, 0.00, -0.00, -1.00, 16.7, 8.0)">h</text><text xml:space="preserve" font-family="Helvetica-Bold" font-weight="bold" font-size="30.0" fill="#0264C0" transform="matrix(1.00, 0.00, -0.00, -1.00, 35.0, 8.0)">a</text><text xml:space="preserve" font-family="Helvetica-Bold" font-weight="bold" font-size="30.0" fill="#0264C0" transform="matrix(1.00, 0.00, -0.00, -1.00, 51.7, 8.0)">n</text><text xml:space="preserve" font-family="Helvetica-Bold" font-weight="bold" font-size="30.0" fill="#0264C0" transform="matrix(1.00, 0.00, -0.00, -1.00, 70.0, 8.0)">g</text><text xml:space="preserve" font-family="Helvetica-Bold" font-weight="bold" font-size="30.0" fill="#0264C0" transform="matrix(1.00, 0.00, -0.00, -1.00, 88.3, 8.0)">e</text><text xml:space="preserve" font-family="Helvetica-Bold" font-weight="bold" font-size="30.0" fill="#0264C0" transform="matrix(1.00, 0.00, -0.00, -1.00, 105.0, 8.0)"> </text><text xml:space="preserve" font-family="Helvetica-Bold" font-weight="bold" font-size="30.0" fill="#0264C0" transform="matrix(1.00, 0.00, -0.00, -1.00, 113.4, 8.0)">t</text><text xml:space="preserve" font-family="Helvetica-Bold" font-weight="bold" font-size="30.0" fill="#0264C0" transform="matrix(1.00, 0.00, -0.00, -1.00, 123.3, 8.0)">h</text><text xml:space="preserve" font-family="Helvetica-Bold" font-weight="bold" font-size="30.0" fill="#0264C0" transform="matrix(1.00, 0.00, -0.00, -1.00, 141.7, 8.0)">e</text><text xml:space="preserve" font-family="Helvetica-Bold" font-weight="bold" font-size="30.0" fill="#0264C0" transform="matrix(1.00, 0.00, -0.00, -1.00, 158.4, 8.0)"> </text><text xml:space="preserve" font-family="Helvetica-Bold" font-weight="bold" font-size="30.0" fill="#0264C0" transform="matrix(1.00, 0.00, -0.00, -1.00, 166.7, 8.0)">t</text><text xml:space="preserve" font-family="Helvetica-Bold" font-weight="bold" font-size="30.0" fill="#0264C0" transform="matrix(1.00, 0.00, -0.00, -1.00, 176.7, 8.0)">e</text><text xml:space="preserve" font-family="Helvetica-Bold" font-weight="bold" font-size="30.0" fill="#0264C0" transform="matrix(1.00, 0.00, -0.00, -1.00, 193.4, 8.0)">x</text><text xml:space="preserve" font-family="Helvetica-Bold" font-weight="bold" font-size="30.0" fill="#0264C0" transform="matrix(1.00, 0.00, -0.00, -1.00, 210.1, 8.0)">t</text></g></svg>