<?xml version="1.0" encoding="UTF-8" standalone="no"?><svg xmlns="http://www.w3.org/2000/svg" xmlns:xlink="http://www.w3.org/1999/xlink" clip-rule="evenodd" stroke-miterlimit="4.00" viewBox="0 0 200 26"><desc>SVG generated by Keynote</desc><defs></defs><g transform="matrix(1.00, 0.00, -0.00, -1.00, 0.0, 26.0)"><text xml:space="preserve" font-family="Helvetica-Bold" font-weight="bold" font-size="30.0" fill="#0264C0" transform="matrix(1.00, 0.00, -0.00, -1.00, 2.0, 2.0)">a</text><text xml:space="preserve" font-family="Helvetica-Bold" font-weight="bold" font-size="30.0" fill="#0264C0" transform="matrix(1.00, 0.00, -0.00, -1.00, 18.7, 2.0)">n</text><text xml:space="preserve" font-family="Helvetica-Bold" font-weight="bold" font-size="30.0" fill="#0264C0" transform="matrix(1.00, 0.00, -0.00, -1.00, 37.0, 2.0)">d</text><text xml:space="preserve" font-family="Helvetica-Bold" font-weight="bold" font-size="30.0" fill="#0264C0" transform="matrix(1.00, 0.00, -0.00, -1.00, 55.3, 2.0)"> </text><text xml:space="preserve" font-family="Helvetica-Bold" font-weight="bold" font-size="30.0" fill="#0264C0" transform="matrix(1.00, 0.00, -0.00, -1.00, 63.7, 2.0)">s</text><text xml:space="preserve" font-family="Helvetica-Bold" font-weight="bold" font-size="30.0" fill="#0264C0" transform="matrix(1.00, 0.00, -0.00, -1.00, 80.3, 2.0)">e</text><text xml:space="preserve" font-family="Helvetica-Bold" font-weight="bold" font-size="30.0" fill="#0264C0" transform="matrix(1.00, 0.00, -0.00, -1.00, 97.0, 2.0)">t</text><text xml:space="preserve" font-family="Helvetica-Bold" font-weight="bold" font-size="30.0" fill="#0264C0" transform="matrix(1.00, 0.00, -0.00, -1.00, 107.0, 2.0)"> </text><text xml:space="preserve" font-family="Helvetica-Bold" font-weight="bold" font-size="30.0" fill="#0264C0" transform="matrix(1.00, 0.00, -0.00, -1.00, 115.4, 2.0)">a</text><text xml:space="preserve" font-family="Helvetica-Bold" font-weight="bold" font-size="30.0" fill="#0264C0" transform="matrix(1.00, 0.00, -0.00, -1.00, 132.0, 2.0)"> </text><text xml:space="preserve" font-family="Helvetica-Bold" font-weight="bold" font-size="30.0" fill="#0264C0" transform="matrix(1.00, 0.00, -0.00, -1.00, 140.4, 2.0)">n</text><text xml:space="preserve" font-family="Helvetica-Bold" font-weight="bold" font-size="30.0" fill="#0264C0" transform="matrix(1.00, 0.00, -0.00, -1.00, 158.7, 2.0)">e</text><text xml:space="preserve" font-family="Helvetica-Bold" font-weight="bold" font-size="30.0" fill="#0264C0" transform="matrix(1.00, 0.00, -0.00, -1.00, 175.4, 2.0)">w</text></g></svg>