<?xml version="1.0" encoding="UTF-8" standalone="no"?><svg xmlns="http://www.w3.org/2000/svg" xmlns:xlink="http://www.w3.org/1999/xlink" clip-rule="evenodd" stroke-miterlimit="4.00" viewBox="0 0 324 89"><desc>SVG generated by Keynote</desc><defs></defs><g transform="matrix(1.00, 0.00, -0.00, -1.00, 0.0, 89.0)"><g><clipPath id="clip-785"><path d="M 25.5 22.4 L 331.1 22.4 L 331.1 96.0 L 25.5 96.0 Z M 25.5 22.4 "></path></clipPath><g clip-path="url(#clip-785)"><text xml:space="preserve" font-family="Avenir-Book" font-size="36.0" fill="#E0CEAC" transform="matrix(1.00, 0.00, -0.00, -1.00, 38.0, 48.0)">J</text><text xml:space="preserve" font-family="Avenir-Book" font-size="36.0" fill="#E0CEAC" transform="matrix(1.00, 0.00, -0.00, -1.00, 55.4, 48.0)">a</text><text xml:space="preserve" font-family="Avenir-Book" font-size="36.0" fill="#E0CEAC" transform="matrix(1.00, 0.00, -0.00, -1.00, 74.0, 48.0)">v</text><text xml:space="preserve" font-family="Avenir-Book" font-size="36.0" fill="#E0CEAC" transform="matrix(1.00, 0.00, -0.00, -1.00, 91.4, 48.0)">a</text><text xml:space="preserve" font-family="Avenir-Book" font-size="36.0" fill="#E0CEAC" transform="matrix(1.00, 0.00, -0.00, -1.00, 110.1, 48.0)">s</text><text xml:space="preserve" font-family="Avenir-Book" font-size="36.0" fill="#E0CEAC" transform="matrix(1.00, 0.00, -0.00, -1.00, 125.4, 48.0)">c</text><text xml:space="preserve" font-family="Avenir-Book" font-size="36.0" fill="#E0CEAC" transform="matrix(1.00, 0.00, -0.00, -1.00, 142.8, 48.0)">r</text><text xml:space="preserve" font-family="Avenir-Book" font-size="36.0" fill="#E0CEAC" transform="matrix(1.00, 0.00, -0.00, -1.00, 154.7, 48.0)">i</text><text xml:space="preserve" font-family="Avenir-Book" font-size="36.0" fill="#E0CEAC" transform="matrix(1.00, 0.00, -0.00, -1.00, 163.4, 48.0)">p</text><text xml:space="preserve" font-family="Avenir-Book" font-size="36.0" fill="#E0CEAC" transform="matrix(1.00, 0.00, -0.00, -1.00, 185.3, 48.0)">t</text><text xml:space="preserve" font-family="Avenir-Book" font-size="36.0" fill="#E0CEAC" transform="matrix(1.00, 0.00, -0.00, -1.00, 197.3, 48.0)"> </text><text xml:space="preserve" font-family="Avenir-Book" font-size="36.0" fill="#E0CEAC" transform="matrix(1.00, 0.00, -0.00, -1.00, 207.3, 48.0)">e</text><text xml:space="preserve" font-family="Avenir-Book" font-size="36.0" fill="#E0CEAC" transform="matrix(1.00, 0.00, -0.00, -1.00, 227.3, 48.0)">n</text><text xml:space="preserve" font-family="Avenir-Book" font-size="36.0" fill="#E0CEAC" transform="matrix(1.00, 0.00, -0.00, -1.00, 247.3, 48.0)">g</text><text xml:space="preserve" font-family="Avenir-Book" font-size="36.0" fill="#E0CEAC" transform="matrix(1.00, 0.00, -0.00, -1.00, 269.3, 48.0)">i</text><text xml:space="preserve" font-family="Avenir-Book" font-size="36.0" fill="#E0CEAC" transform="matrix(1.00, 0.00, -0.00, -1.00, 278.0, 48.0)">n</text><text xml:space="preserve" font-family="Avenir-Book" font-size="36.0" fill="#E0CEAC" transform="matrix(1.00, 0.00, -0.00, -1.00, 298.0, 48.0)">e</text></g></g><g><clipPath id="clip-786"><path d="M -3.0 -2.6 L 241.4 -2.6 L 241.4 46.7 L -3.0 46.7 Z M -3.0 -2.6 "></path></clipPath><g clip-path="url(#clip-786)"><text xml:space="preserve" font-family="Avenir-Book" font-size="30.0" fill="#E42100" transform="matrix(1.00, 0.00, -0.00, -1.00, 5.2, 12.5)">•</text><text xml:space="preserve" font-family="Avenir-Book" font-size="24.0" fill="#FEFFFE" transform="matrix(1.00, 0.00, -0.00, -1.00, 41.0, 14.0)">r</text><text xml:space="preserve" font-family="Avenir-Book" font-size="24.0" fill="#FEFFFE" transform="matrix(1.00, 0.00, -0.00, -1.00, 49.0, 14.0)">u</text><text xml:space="preserve" font-family="Avenir-Book" font-size="24.0" fill="#FEFFFE" transform="matrix(1.00, 0.00, -0.00, -1.00, 62.3, 14.0)">n</text></g></g></g></svg>