<?xml version="1.0" encoding="UTF-8" standalone="no"?><svg xmlns="http://www.w3.org/2000/svg" xmlns:xlink="http://www.w3.org/1999/xlink" clip-rule="evenodd" stroke-miterlimit="4.00" viewBox="0 0 261 160"><desc>SVG generated by Keynote</desc><defs></defs><g transform="matrix(1.00, 0.00, -0.00, -1.00, 0.0, 160.0)"><g><clipPath id="clip-789"><path d="M 27.2 90.6 L 253.1 90.6 L 253.1 164.2 L 27.2 164.2 Z M 27.2 90.6 "></path></clipPath><g clip-path="url(#clip-789)"><text xml:space="preserve" font-family="Avenir-Book" font-size="36.0" fill="#E0CEAC" transform="matrix(1.00, 0.00, -0.00, -1.00, 40.0, 116.0)">S</text><text xml:space="preserve" font-family="Avenir-Book" font-size="36.0" fill="#E0CEAC" transform="matrix(1.00, 0.00, -0.00, -1.00, 60.0, 116.0)">c</text><text xml:space="preserve" font-family="Avenir-Book" font-size="36.0" fill="#E0CEAC" transform="matrix(1.00, 0.00, -0.00, -1.00, 77.4, 116.0)">o</text><text xml:space="preserve" font-family="Avenir-Book" font-size="36.0" fill="#E0CEAC" transform="matrix(1.00, 0.00, -0.00, -1.00, 98.7, 116.0)">r</text><text xml:space="preserve" font-family="Avenir-Book" font-size="36.0" fill="#E0CEAC" transform="matrix(1.00, 0.00, -0.00, -1.00, 110.0, 116.0)">e</text><text xml:space="preserve" font-family="Avenir-Book" font-size="36.0" fill="#E0CEAC" transform="matrix(1.00, 0.00, -0.00, -1.00, 130.0, 116.0)"> </text><text xml:space="preserve" font-family="Avenir-Book" font-size="36.0" fill="#E0CEAC" transform="matrix(1.00, 0.00, -0.00, -1.00, 140.0, 116.0)">l</text><text xml:space="preserve" font-family="Avenir-Book" font-size="36.0" fill="#E0CEAC" transform="matrix(1.00, 0.00, -0.00, -1.00, 148.7, 116.0)">e</text><text xml:space="preserve" font-family="Avenir-Book" font-size="36.0" fill="#E0CEAC" transform="matrix(1.00, 0.00, -0.00, -1.00, 168.7, 116.0)">v</text><text xml:space="preserve" font-family="Avenir-Book" font-size="36.0" fill="#E0CEAC" transform="matrix(1.00, 0.00, -0.00, -1.00, 186.1, 116.0)">e</text><text xml:space="preserve" font-family="Avenir-Book" font-size="36.0" fill="#E0CEAC" transform="matrix(1.00, 0.00, -0.00, -1.00, 206.1, 116.0)">l</text></g></g><g><clipPath id="clip-790"><path d="M -2.7 1.3 L 264.1 1.3 L 264.1 123.8 L -2.7 123.8 Z M -2.7 1.3 "></path></clipPath><g clip-path="url(#clip-790)"><text xml:space="preserve" font-family="Avenir-Book" font-size="30.0" fill="#E42100" transform="matrix(1.00, 0.00, -0.00, -1.00, 5.5, 85.8)">•</text><text xml:space="preserve" font-family="Avenir-Book" font-size="24.0" fill="#FEFFFE" transform="matrix(1.00, 0.00, -0.00, -1.00, 41.0, 88.0)">p</text><text xml:space="preserve" font-family="Avenir-Book" font-size="24.0" fill="#FEFFFE" transform="matrix(1.00, 0.00, -0.00, -1.00, 55.7, 88.0)">a</text><text xml:space="preserve" font-family="Avenir-Book" font-size="24.0" fill="#FEFFFE" transform="matrix(1.00, 0.00, -0.00, -1.00, 68.1, 88.0)">g</text><text xml:space="preserve" font-family="Avenir-Book" font-size="24.0" fill="#FEFFFE" transform="matrix(1.00, 0.00, -0.00, -1.00, 82.8, 88.0)">e</text><text xml:space="preserve" font-family="Avenir-Book" font-size="24.0" fill="#FEFFFE" transform="matrix(1.00, 0.00, -0.00, -1.00, 96.1, 88.0)"> </text><text xml:space="preserve" font-family="Avenir-Book" font-size="30.0" fill="#E42100" transform="matrix(1.00, 0.00, -0.00, -1.00, 5.5, 52.8)">•</text><text xml:space="preserve" font-family="Avenir-Book" font-size="24.0" fill="#FEFFFE" transform="matrix(1.00, 0.00, -0.00, -1.00, 41.0, 55.0)">d</text><text xml:space="preserve" font-family="Avenir-Book" font-size="24.0" fill="#FEFFFE" transform="matrix(1.00, 0.00, -0.00, -1.00, 55.7, 55.0)">p</text><text xml:space="preserve" font-family="Avenir-Book" font-size="24.0" fill="#FEFFFE" transform="matrix(1.00, 0.00, -0.00, -1.00, 70.3, 55.0)">a</text><text xml:space="preserve" font-family="Avenir-Book" font-size="24.0" fill="#FEFFFE" transform="matrix(1.00, 0.00, -0.00, -1.00, 82.8, 55.0)">g</text><text xml:space="preserve" font-family="Avenir-Book" font-size="24.0" fill="#FEFFFE" transform="matrix(1.00, 0.00, -0.00, -1.00, 97.4, 55.0)">e</text><text xml:space="preserve" font-family="Avenir-Book" font-size="24.0" fill="#FEFFFE" transform="matrix(1.00, 0.00, -0.00, -1.00, 110.8, 55.0)"> </text><text xml:space="preserve" font-family="Avenir-Book" font-size="30.0" fill="#E42100" transform="matrix(1.00, 0.00, -0.00, -1.00, 5.5, 19.8)">•</text><text xml:space="preserve" font-family="Avenir-Book" font-size="24.0" fill="#FEFFFE" transform="matrix(1.00, 0.00, -0.00, -1.00, 41.0, 22.0)">p</text><text xml:space="preserve" font-family="Avenir-Book" font-size="24.0" fill="#FEFFFE" transform="matrix(1.00, 0.00, -0.00, -1.00, 55.7, 22.0)">a</text><text xml:space="preserve" font-family="Avenir-Book" font-size="24.0" fill="#FEFFFE" transform="matrix(1.00, 0.00, -0.00, -1.00, 68.1, 22.0)">g</text><text xml:space="preserve" font-family="Avenir-Book" font-size="24.0" fill="#FEFFFE" transform="matrix(1.00, 0.00, -0.00, -1.00, 82.8, 22.0)">e</text><text xml:space="preserve" font-family="Avenir-Book" font-size="24.0" fill="#FEFFFE" transform="matrix(1.00, 0.00, -0.00, -1.00, 96.1, 22.0)">F</text><text xml:space="preserve" font-family="Avenir-Book" font-size="24.0" fill="#FEFFFE" transform="matrix(1.00, 0.00, -0.00, -1.00, 109.5, 22.0)">o</text><text xml:space="preserve" font-family="Avenir-Book" font-size="24.0" fill="#FEFFFE" transform="matrix(1.00, 0.00, -0.00, -1.00, 123.7, 22.0)">r</text><text xml:space="preserve" font-family="Avenir-Book" font-size="24.0" fill="#FEFFFE" transform="matrix(1.00, 0.00, -0.00, -1.00, 132.1, 22.0)">m</text><text xml:space="preserve" font-family="Avenir-Book" font-size="24.0" fill="#FEFFFE" transform="matrix(1.00, 0.00, -0.00, -1.00, 152.6, 22.0)">a</text><text xml:space="preserve" font-family="Avenir-Book" font-size="24.0" fill="#FEFFFE" transform="matrix(1.00, 0.00, -0.00, -1.00, 165.0, 22.0)">t</text></g></g></g></svg>