<?xml version="1.0" encoding="UTF-8" standalone="no"?><svg xmlns="http://www.w3.org/2000/svg" xmlns:xlink="http://www.w3.org/1999/xlink" clip-rule="evenodd" stroke-miterlimit="4.00" viewBox="0 0 806 29"><desc>SVG generated by Keynote</desc><defs></defs><g transform="matrix(1.00, 0.00, -0.00, -1.00, 0.0, 29.0)"><text xml:space="preserve" font-family="Avenir-Book" font-size="24.0" fill="#FEFFFE" transform="matrix(1.00, 0.00, -0.00, -1.00, 2.0, 9.0)">A</text><text xml:space="preserve" font-family="Avenir-Book" font-size="24.0" fill="#FEFFFE" transform="matrix(1.00, 0.00, -0.00, -1.00, 18.5, 9.0)">p</text><text xml:space="preserve" font-family="Avenir-Book" font-size="24.0" fill="#FEFFFE" transform="matrix(1.00, 0.00, -0.00, -1.00, 33.1, 9.0)">p</text><text xml:space="preserve" font-family="Avenir-Book" font-size="24.0" fill="#FEFFFE" transform="matrix(1.00, 0.00, -0.00, -1.00, 47.8, 9.0)">r</text><text xml:space="preserve" font-family="Avenir-Book" font-size="24.0" fill="#FEFFFE" transform="matrix(1.00, 0.00, -0.00, -1.00, 55.3, 9.0)">o</text><text xml:space="preserve" font-family="Avenir-Book" font-size="24.0" fill="#FEFFFE" transform="matrix(1.00, 0.00, -0.00, -1.00, 69.6, 9.0)">a</text><text xml:space="preserve" font-family="Avenir-Book" font-size="24.0" fill="#FEFFFE" transform="matrix(1.00, 0.00, -0.00, -1.00, 82.0, 9.0)">c</text><text xml:space="preserve" font-family="Avenir-Book" font-size="24.0" fill="#FEFFFE" transform="matrix(1.00, 0.00, -0.00, -1.00, 93.6, 9.0)">h</text><text xml:space="preserve" font-family="Avenir-Book" font-size="24.0" fill="#FEFFFE" transform="matrix(1.00, 0.00, -0.00, -1.00, 106.9, 9.0)"> </text><text xml:space="preserve" font-family="Avenir-Book" font-size="24.0" fill="#FEFFFE" transform="matrix(1.00, 0.00, -0.00, -1.00, 113.6, 9.0)">t</text><text xml:space="preserve" font-family="Avenir-Book" font-size="24.0" fill="#FEFFFE" transform="matrix(1.00, 0.00, -0.00, -1.00, 121.6, 9.0)">h</text><text xml:space="preserve" font-family="Avenir-Book" font-size="24.0" fill="#FEFFFE" transform="matrix(1.00, 0.00, -0.00, -1.00, 134.9, 9.0)">e</text><text xml:space="preserve" font-family="Avenir-Book" font-size="24.0" fill="#FEFFFE" transform="matrix(1.00, 0.00, -0.00, -1.00, 148.3, 9.0)"> </text><text xml:space="preserve" font-family="Avenir-Book" font-size="24.0" fill="#FEFFFE" transform="matrix(1.00, 0.00, -0.00, -1.00, 154.9, 9.0)">p</text><text xml:space="preserve" font-family="Avenir-Book" font-size="24.0" fill="#FEFFFE" transform="matrix(1.00, 0.00, -0.00, -1.00, 169.6, 9.0)">r</text><text xml:space="preserve" font-family="Avenir-Book" font-size="24.0" fill="#FEFFFE" transform="matrix(1.00, 0.00, -0.00, -1.00, 177.1, 9.0)">o</text><text xml:space="preserve" font-family="Avenir-Book" font-size="24.0" fill="#FEFFFE" transform="matrix(1.00, 0.00, -0.00, -1.00, 191.4, 9.0)">b</text><text xml:space="preserve" font-family="Avenir-Book" font-size="24.0" fill="#FEFFFE" transform="matrix(1.00, 0.00, -0.00, -1.00, 206.0, 9.0)">l</text><text xml:space="preserve" font-family="Avenir-Book" font-size="24.0" fill="#FEFFFE" transform="matrix(1.00, 0.00, -0.00, -1.00, 211.8, 9.0)">e</text><text xml:space="preserve" font-family="Avenir-Book" font-size="24.0" fill="#FEFFFE" transform="matrix(1.00, 0.00, -0.00, -1.00, 225.1, 9.0)">m</text><text xml:space="preserve" font-family="Avenir-Book" font-size="24.0" fill="#FEFFFE" transform="matrix(1.00, 0.00, -0.00, -1.00, 245.6, 9.0)"> </text><text xml:space="preserve" font-family="Avenir-Book" font-size="24.0" fill="#FEFFFE" transform="matrix(1.00, 0.00, -0.00, -1.00, 252.2, 9.0)">w</text><text xml:space="preserve" font-family="Avenir-Book" font-size="24.0" fill="#FEFFFE" transform="matrix(1.00, 0.00, -0.00, -1.00, 269.6, 9.0)">i</text><text xml:space="preserve" font-family="Avenir-Book" font-size="24.0" fill="#FEFFFE" transform="matrix(1.00, 0.00, -0.00, -1.00, 275.3, 9.0)">t</text><text xml:space="preserve" font-family="Avenir-Book" font-size="24.0" fill="#FEFFFE" transform="matrix(1.00, 0.00, -0.00, -1.00, 283.3, 9.0)">h</text><text xml:space="preserve" font-family="Avenir-Book" font-size="24.0" fill="#FEFFFE" transform="matrix(1.00, 0.00, -0.00, -1.00, 296.6, 9.0)"> </text><text xml:space="preserve" font-family="Avenir-Book" font-size="24.0" fill="#FEFFFE" transform="matrix(1.00, 0.00, -0.00, -1.00, 303.3, 9.0)">s</text><text xml:space="preserve" font-family="Avenir-Book" font-size="24.0" fill="#FEFFFE" transform="matrix(1.00, 0.00, -0.00, -1.00, 313.5, 9.0)">e</text><text xml:space="preserve" font-family="Avenir-Book" font-size="24.0" fill="#FEFFFE" transform="matrix(1.00, 0.00, -0.00, -1.00, 326.9, 9.0)">g</text><text xml:space="preserve" font-family="Avenir-Book" font-size="24.0" fill="#FEFFFE" transform="matrix(1.00, 0.00, -0.00, -1.00, 341.6, 9.0)">m</text><text xml:space="preserve" font-family="Avenir-Book" font-size="24.0" fill="#FEFFFE" transform="matrix(1.00, 0.00, -0.00, -1.00, 362.0, 9.0)">e</text><text xml:space="preserve" font-family="Avenir-Book" font-size="24.0" fill="#FEFFFE" transform="matrix(1.00, 0.00, -0.00, -1.00, 375.3, 9.0)">n</text><text xml:space="preserve" font-family="Avenir-Book" font-size="24.0" fill="#FEFFFE" transform="matrix(1.00, 0.00, -0.00, -1.00, 388.7, 9.0)">t</text><text xml:space="preserve" font-family="Avenir-Book" font-size="24.0" fill="#FEFFFE" transform="matrix(1.00, 0.00, -0.00, -1.00, 396.7, 9.0)">a</text><text xml:space="preserve" font-family="Avenir-Book" font-size="24.0" fill="#FEFFFE" transform="matrix(1.00, 0.00, -0.00, -1.00, 409.1, 9.0)">t</text><text xml:space="preserve" font-family="Avenir-Book" font-size="24.0" fill="#FEFFFE" transform="matrix(1.00, 0.00, -0.00, -1.00, 417.1, 9.0)">i</text><text xml:space="preserve" font-family="Avenir-Book" font-size="24.0" fill="#FEFFFE" transform="matrix(1.00, 0.00, -0.00, -1.00, 422.8, 9.0)">o</text><text xml:space="preserve" font-family="Avenir-Book" font-size="24.0" fill="#FEFFFE" transform="matrix(1.00, 0.00, -0.00, -1.00, 437.1, 9.0)">n</text><text xml:space="preserve" font-family="Avenir-Book" font-size="24.0" fill="#FEFFFE" transform="matrix(1.00, 0.00, -0.00, -1.00, 450.4, 9.0)"> </text><text xml:space="preserve" font-family="Avenir-Book" font-size="24.0" fill="#FEFFFE" transform="matrix(1.00, 0.00, -0.00, -1.00, 457.1, 9.0)">a</text><text xml:space="preserve" font-family="Avenir-Book" font-size="24.0" fill="#FEFFFE" transform="matrix(1.00, 0.00, -0.00, -1.00, 469.5, 9.0)">n</text><text xml:space="preserve" font-family="Avenir-Book" font-size="24.0" fill="#FEFFFE" transform="matrix(1.00, 0.00, -0.00, -1.00, 482.9, 9.0)">d</text><text xml:space="preserve" font-family="Avenir-Book" font-size="24.0" fill="#FEFFFE" transform="matrix(1.00, 0.00, -0.00, -1.00, 497.6, 9.0)"> </text><text xml:space="preserve" font-family="Avenir-Book" font-size="24.0" fill="#FEFFFE" transform="matrix(1.00, 0.00, -0.00, -1.00, 504.2, 9.0)">r</text><text xml:space="preserve" font-family="Avenir-Book" font-size="24.0" fill="#FEFFFE" transform="matrix(1.00, 0.00, -0.00, -1.00, 511.8, 9.0)">e</text><text xml:space="preserve" font-family="Avenir-Book" font-size="24.0" fill="#FEFFFE" transform="matrix(1.00, 0.00, -0.00, -1.00, 525.1, 9.0)">l</text><text xml:space="preserve" font-family="Avenir-Book" font-size="24.0" fill="#FEFFFE" transform="matrix(1.00, 0.00, -0.00, -1.00, 530.9, 9.0)">a</text><text xml:space="preserve" font-family="Avenir-Book" font-size="24.0" fill="#FEFFFE" transform="matrix(1.00, 0.00, -0.00, -1.00, 543.3, 9.0)">t</text><text xml:space="preserve" font-family="Avenir-Book" font-size="24.0" fill="#FEFFFE" transform="matrix(1.00, 0.00, -0.00, -1.00, 551.3, 9.0)">i</text><text xml:space="preserve" font-family="Avenir-Book" font-size="24.0" fill="#FEFFFE" transform="matrix(1.00, 0.00, -0.00, -1.00, 557.0, 9.0)">o</text><text xml:space="preserve" font-family="Avenir-Book" font-size="24.0" fill="#FEFFFE" transform="matrix(1.00, 0.00, -0.00, -1.00, 571.3, 9.0)">n</text><text xml:space="preserve" font-family="Avenir-Book" font-size="24.0" fill="#FEFFFE" transform="matrix(1.00, 0.00, -0.00, -1.00, 584.6, 9.0)">s</text><text xml:space="preserve" font-family="Avenir-Book" font-size="24.0" fill="#FEFFFE" transform="matrix(1.00, 0.00, -0.00, -1.00, 594.8, 9.0)"> </text><text xml:space="preserve" font-family="Avenir-Book" font-size="24.0" fill="#FEFFFE" transform="matrix(1.00, 0.00, -0.00, -1.00, 601.5, 9.0)">b</text><text xml:space="preserve" font-family="Avenir-Book" font-size="24.0" fill="#FEFFFE" transform="matrix(1.00, 0.00, -0.00, -1.00, 616.2, 9.0)">e</text><text xml:space="preserve" font-family="Avenir-Book" font-size="24.0" fill="#FEFFFE" transform="matrix(1.00, 0.00, -0.00, -1.00, 629.5, 9.0)">t</text><text xml:space="preserve" font-family="Avenir-Book" font-size="24.0" fill="#FEFFFE" transform="matrix(1.00, 0.00, -0.00, -1.00, 637.5, 9.0)">w</text><text xml:space="preserve" font-family="Avenir-Book" font-size="24.0" fill="#FEFFFE" transform="matrix(1.00, 0.00, -0.00, -1.00, 654.8, 9.0)">e</text><text xml:space="preserve" font-family="Avenir-Book" font-size="24.0" fill="#FEFFFE" transform="matrix(1.00, 0.00, -0.00, -1.00, 668.2, 9.0)">e</text><text xml:space="preserve" font-family="Avenir-Book" font-size="24.0" fill="#FEFFFE" transform="matrix(1.00, 0.00, -0.00, -1.00, 681.5, 9.0)">n</text><text xml:space="preserve" font-family="Avenir-Book" font-size="24.0" fill="#FEFFFE" transform="matrix(1.00, 0.00, -0.00, -1.00, 694.9, 9.0)"> </text><text xml:space="preserve" font-family="Avenir-Book" font-size="24.0" fill="#FEFFFE" transform="matrix(1.00, 0.00, -0.00, -1.00, 701.5, 9.0)">s</text><text xml:space="preserve" font-family="Avenir-Book" font-size="24.0" fill="#FEFFFE" transform="matrix(1.00, 0.00, -0.00, -1.00, 711.8, 9.0)">e</text><text xml:space="preserve" font-family="Avenir-Book" font-size="24.0" fill="#FEFFFE" transform="matrix(1.00, 0.00, -0.00, -1.00, 725.1, 9.0)">g</text><text xml:space="preserve" font-family="Avenir-Book" font-size="24.0" fill="#FEFFFE" transform="matrix(1.00, 0.00, -0.00, -1.00, 739.8, 9.0)">m</text><text xml:space="preserve" font-family="Avenir-Book" font-size="24.0" fill="#FEFFFE" transform="matrix(1.00, 0.00, -0.00, -1.00, 760.2, 9.0)">e</text><text xml:space="preserve" font-family="Avenir-Book" font-size="24.0" fill="#FEFFFE" transform="matrix(1.00, 0.00, -0.00, -1.00, 773.6, 9.0)">n</text><text xml:space="preserve" font-family="Avenir-Book" font-size="24.0" fill="#FEFFFE" transform="matrix(1.00, 0.00, -0.00, -1.00, 786.9, 9.0)">t</text><text xml:space="preserve" font-family="Avenir-Book" font-size="24.0" fill="#FEFFFE" transform="matrix(1.00, 0.00, -0.00, -1.00, 794.9, 9.0)">s</text></g></svg>