<?xml version="1.0" encoding="UTF-8" standalone="no"?><svg xmlns="http://www.w3.org/2000/svg" xmlns:xlink="http://www.w3.org/1999/xlink" clip-rule="evenodd" stroke-miterlimit="4.00" viewBox="0 0 179 148"><desc>SVG generated by Keynote</desc><defs></defs><g transform="matrix(1.00, 0.00, -0.00, -1.00, 0.0, 148.0)"><g><clipPath id="clip-468"><path d="M 0.5 0.7 L 178.5 0.7 L 178.5 148.0 L 0.5 148.0 Z M 0.5 0.7 "></path></clipPath><g clip-path="url(#clip-468)"><image xlink:href="../../158E0FDC-1BA9-4F0D-B8D3-8D2EB06C70AE/assets/279D522B1631CAE3F4C622AEA1B78AC3.png" width="176.00" height="145.00" transform="matrix(1.00, 0.00, -0.00, -1.00, 1.5, 147.0)" opacity="0.50"></image><path d="M 4.5 146.0 L 174.5 146.0 L 174.5 6.7 L 4.5 6.7 Z M 4.5 146.0 " fill="#A6AAA8"></path></g></g><g><clipPath id="clip-469"><path d="M 10.0 18.0 L 169.5 18.0 L 169.5 146.0 L 10.0 146.0 Z M 10.0 18.0 "></path></clipPath><g clip-path="url(#clip-469)"><image xlink:href="459D233868B51CFA2723685A05EADCB4.png" width="88.00" height="100.00" transform="matrix(0.73, 0.00, -0.00, -0.73, 82.5, 128.4)"></image><image xlink:href="../../158E0FDC-1BA9-4F0D-B8D3-8D2EB06C70AE/assets/459D233868B51CFA2723685A05EADCB4.png" width="88.00" height="100.00" transform="matrix(0.73, 0.00, -0.00, -0.73, 68.2, 116.4)"></image><image xlink:href="B720BACA9D99A1307809EB636A966D62.png" width="108.00" height="39.00" transform="matrix(0.73, 0.00, -0.00, -0.73, 68.2, 128.6)"></image><image xlink:href="5B481D73B71DA44D8E2D94509079DAFA.png" width="42.00" height="117.00" transform="matrix(0.73, 0.00, -0.00, -0.73, 116.6, 128.3)"></image><path d="M 37.3 43.8 L 73.8 80.2 L 80.0 74.0 L 43.5 37.6 Z M 37.3 43.8 " fill="#FFD97E"></path><path d="M 99.8 701.0 L 234.1 569.3 " fill="none" stroke="#000000" stroke-width="1.00" stroke-miterlimit="0.00" transform="matrix(0.73, 0.00, 0.00, -0.73, -41.0, 545.0)"></path><path d="M 133.0 130.8 L 128.1 128.6 L 130.8 128.6 L 130.8 128.6 L 130.8 125.9 Z M 133.0 130.8 " fill="#000000"></path><path d="M 237.1 566.3 L 230.4 569.3 L 234.1 569.3 L 234.1 569.3 L 234.0 573.0 Z M 237.1 566.3 " fill="none" stroke="#000000" stroke-width="1.00" stroke-miterlimit="0.00" transform="matrix(0.73, 0.00, 0.00, -0.73, -41.0, 545.0)"></path><path d="M 27.5 54.6 L 36.3 54.6 L 36.3 111.6 L 27.5 111.6 Z M 27.5 54.6 " fill="#FFD97E"></path><path d="M 75.9 28.2 L 124.4 28.2 L 124.4 37.0 L 75.9 37.0 Z M 75.9 28.2 " fill="#FFD97E"></path><path d="M 99.8 701.0 L 163.8 701.0 L 276.6 701.0 " fill="none" stroke="#000000" stroke-width="1.00" stroke-miterlimit="0.00" transform="matrix(0.73, 0.00, 0.00, -0.73, -41.0, 545.0)"></path><path d="M 165.2 32.3 L 160.1 34.1 L 162.0 32.3 L 162.0 32.3 L 160.1 30.4 Z M 165.2 32.3 " fill="#000000"></path><path d="M 280.9 701.0 L 274.1 698.4 L 276.6 701.0 L 276.6 701.0 L 274.1 703.6 Z M 280.9 701.0 " fill="none" stroke="#000000" stroke-width="1.00" stroke-miterlimit="0.00" transform="matrix(0.73, 0.00, 0.00, -0.73, -41.0, 545.0)"></path><path d="M 99.8 701.0 L 99.8 669.0 L 99.8 659.0 L 99.8 632.0 L 99.8 623.0 L 99.8 557.2 " fill="none" stroke="#000000" stroke-width="1.00" stroke-miterlimit="0.00" transform="matrix(0.73, 0.00, 0.00, -0.73, -41.0, 545.0)"></path><path d="M 32.3 140.6 L 30.4 135.6 L 32.3 137.5 L 32.3 137.5 L 34.1 135.6 Z M 32.3 140.6 " fill="#000000"></path><path d="M 99.8 552.9 L 97.3 559.8 L 99.8 557.2 L 99.8 557.2 L 102.4 559.8 Z M 99.8 552.9 " fill="none" stroke="#000000" stroke-width="1.00" stroke-miterlimit="0.00" transform="matrix(0.73, 0.00, 0.00, -0.73, -41.0, 545.0)"></path><text xml:space="preserve" font-family="Courier" font-size="12.0" fill="#000000" transform="matrix(0.73, 0.00, -0.00, -0.73, 119.7, 20.8)">x</text><text xml:space="preserve" font-family="Courier" font-size="12.0" fill="#000000" transform="matrix(0.73, 0.00, -0.00, -0.73, 125.0, 20.8)">1</text><text xml:space="preserve" font-family="Courier" font-size="12.0" fill="#000000" transform="matrix(0.73, 0.00, -0.00, -0.73, 72.8, 20.8)">x</text><text xml:space="preserve" font-family="Courier" font-size="12.0" fill="#000000" transform="matrix(0.73, 0.00, -0.00, -0.73, 78.1, 20.8)">0</text><text xml:space="preserve" font-family="Courier" font-size="12.0" fill="#000000" transform="matrix(0.73, 0.00, -0.00, -0.73, 14.0, 108.6)">y</text><text xml:space="preserve" font-family="Courier" font-size="12.0" fill="#000000" transform="matrix(0.73, 0.00, -0.00, -0.73, 19.3, 108.6)">1</text><text xml:space="preserve" font-family="Courier" font-size="12.0" fill="#000000" transform="matrix(0.73, 0.00, -0.00, -0.73, 14.1, 54.5)">y</text><text xml:space="preserve" font-family="Courier" font-size="12.0" fill="#000000" transform="matrix(0.73, 0.00, -0.00, -0.73, 19.4, 54.5)">0</text><path d="M 90.6 66.3 L 139.1 66.3 L 139.1 123.3 L 90.6 123.3 Z M 90.6 66.3 " fill="#E2E2E2"></path><path d="M 179.3 576.5 L 245.3 576.5 L 245.3 654.5 L 179.3 654.5 Z M 179.3 576.5 " fill="none" stroke="#000000" stroke-width="1.00" stroke-miterlimit="0.00" stroke-linecap="round" stroke-linejoin="round" transform="matrix(0.73, 0.00, 0.00, -0.73, -41.0, 545.0)"></path><path d="M 76.3 54.2 L 124.7 54.2 L 124.7 111.3 L 76.3 111.3 Z M 76.3 54.2 " fill="#E2E2E2"></path><path d="M 159.8 593.0 L 225.8 593.0 L 225.8 671.0 L 159.8 671.0 Z M 159.8 593.0 " fill="none" stroke="#000000" stroke-width="1.00" stroke-miterlimit="0.00" stroke-linecap="round" stroke-linejoin="round" transform="matrix(0.73, 0.00, 0.00, -0.73, -41.0, 545.0)"></path><path d="M 225.8 593.0 L 245.3 576.5 " fill="none" stroke="#000000" stroke-width="1.00" stroke-miterlimit="0.00" transform="matrix(0.73, 0.00, 0.00, -0.73, -41.0, 545.0)"></path><path d="M 225.8 671.0 L 245.3 654.5 " fill="none" stroke="#000000" stroke-width="1.00" stroke-miterlimit="0.00" transform="matrix(0.73, 0.00, 0.00, -0.73, -41.0, 545.0)"></path><text xml:space="preserve" font-family="Courier" font-size="12.0" fill="#000000" transform="matrix(0.73, 0.00, -0.00, -0.73, 36.3, 45.1)">z</text><text xml:space="preserve" font-family="Courier" font-size="12.0" fill="#000000" transform="matrix(0.73, 0.00, -0.00, -0.73, 41.6, 45.1)">0</text><text xml:space="preserve" font-family="Courier" font-size="12.0" fill="#000000" transform="matrix(0.73, 0.00, -0.00, -0.73, 65.4, 80.2)">z</text><text xml:space="preserve" font-family="Courier" font-size="12.0" fill="#000000" transform="matrix(0.73, 0.00, -0.00, -0.73, 70.7, 80.2)">1</text><path d="M 76.2 111.4 L 91.3 123.5 L 139.0 123.3 L 124.5 111.3 Z M 76.2 111.4 " fill="#EAEAEA"></path><path d="M 159.7 592.8 L 180.2 576.2 L 245.2 576.5 L 225.5 593.0 Z M 159.7 592.8 " fill="none" stroke="#000000" stroke-width="1.00" stroke-miterlimit="0.00" stroke-linecap="round" stroke-linejoin="round" transform="matrix(0.73, 0.00, 0.00, -0.73, -41.0, 545.0)"></path><path d="M 124.7 111.4 L 138.8 123.1 L 138.8 66.1 L 124.7 54.2 L 124.7 54.6 Z M 124.7 111.4 " fill="#EAEAEA"></path><path d="M 225.8 592.8 L 245.0 576.8 L 245.0 654.8 L 225.8 671.0 L 225.8 670.5 Z M 225.8 592.8 " fill="none" stroke="#000000" stroke-width="1.00" stroke-miterlimit="0.00" stroke-linecap="round" stroke-linejoin="round" transform="matrix(0.73, 0.00, 0.00, -0.73, -41.0, 545.0)"></path></g></g></g></svg>