<?xml version="1.0" encoding="UTF-8" standalone="no"?><svg xmlns="http://www.w3.org/2000/svg" xmlns:xlink="http://www.w3.org/1999/xlink" clip-rule="evenodd" stroke-miterlimit="4.00" viewBox="0 0 179 148"><desc>SVG generated by Keynote</desc><defs></defs><g transform="matrix(1.00, 0.00, -0.00, -1.00, 0.0, 148.0)"><g><clipPath id="clip-464"><path d="M 0.8 0.1 L 178.8 0.1 L 178.8 147.5 L 0.8 147.5 Z M 0.8 0.1 "></path></clipPath><g clip-path="url(#clip-464)"><image xlink:href="279D522B1631CAE3F4C622AEA1B78AC3.png" width="176.00" height="145.00" transform="matrix(1.00, 0.00, -0.00, -1.00, 1.8, 146.5)" opacity="0.50"></image><path d="M 4.8 145.5 L 174.8 145.5 L 174.8 6.1 L 4.8 6.1 Z M 4.8 145.5 " fill="#A6AAA8"></path></g></g><g><clipPath id="clip-465"><path d="M 12.2 11.0 L 172.0 11.0 L 172.0 142.0 L 12.2 142.0 Z M 12.2 11.0 "></path></clipPath><g clip-path="url(#clip-465)"><path d="M 74.9 41.0 L 128.2 41.0 L 128.2 103.6 L 74.9 103.6 Z M 74.9 41.0 " fill="#676767" fill-opacity="0.05"></path><path d="M 74.3 41.6 L 127.6 41.6 L 127.6 104.2 L 74.3 104.2 Z M 74.3 41.6 " fill="#676767" fill-opacity="0.07"></path><path d="M 73.8 42.1 L 127.1 42.1 L 127.1 104.7 L 73.8 104.7 Z M 73.8 42.1 " fill="#676767" fill-opacity="0.11"></path><path d="M 73.2 42.7 L 126.5 42.7 L 126.5 105.3 L 73.2 105.3 Z M 73.2 42.7 " fill="#676767" fill-opacity="0.17"></path><path d="M 72.6 43.3 L 125.9 43.3 L 125.9 105.9 L 72.6 105.9 Z M 72.6 43.3 " fill="#676767" fill-opacity="0.25"></path><path d="M 72.1 43.8 L 125.4 43.8 L 125.4 106.4 L 72.1 106.4 Z M 72.1 43.8 " fill="#676767" fill-opacity="0.35"></path><path d="M 71.5 44.4 L 124.8 44.4 L 124.8 107.0 L 71.5 107.0 Z M 71.5 44.4 " fill="#676767" fill-opacity="0.47"></path><path d="M 107.2 79.5 L 141.1 79.5 L 141.1 121.3 L 107.2 121.3 Z M 107.2 79.5 " fill="#676767" fill-opacity="0.04"></path><path d="M 106.6 80.1 L 140.6 80.1 L 140.6 121.8 L 106.6 121.8 Z M 106.6 80.1 " fill="#676767" fill-opacity="0.06"></path><path d="M 106.1 80.7 L 140.0 80.7 L 140.0 122.4 L 106.1 122.4 Z M 106.1 80.7 " fill="#676767" fill-opacity="0.09"></path><path d="M 105.5 81.2 L 139.4 81.2 L 139.4 123.0 L 105.5 123.0 Z M 105.5 81.2 " fill="#676767" fill-opacity="0.14"></path><path d="M 104.9 81.8 L 138.9 81.8 L 138.9 123.5 L 104.9 123.5 Z M 104.9 81.8 " fill="#676767" fill-opacity="0.20"></path><path d="M 104.4 82.4 L 138.3 82.4 L 138.3 124.1 L 104.4 124.1 Z M 104.4 82.4 " fill="#676767" fill-opacity="0.29"></path><path d="M 103.8 82.9 L 137.7 82.9 L 137.7 124.7 L 103.8 124.7 Z M 103.8 82.9 " fill="#676767" fill-opacity="0.39"></path><path d="M 16.2 -125.9 L 69.5 -125.9 L 69.5 -63.3 L 16.2 -63.3 Z M 16.2 -125.9 " fill="#676767" fill-opacity="0.05"></path><path d="M 15.7 -125.4 L 69.0 -125.4 L 69.0 -62.8 L 15.7 -62.8 Z M 15.7 -125.4 " fill="#676767" fill-opacity="0.07"></path><path d="M 15.1 -124.8 L 68.4 -124.8 L 68.4 -62.2 L 15.1 -62.2 Z M 15.1 -124.8 " fill="#676767" fill-opacity="0.11"></path><path d="M 14.5 -124.2 L 67.8 -124.2 L 67.8 -61.6 L 14.5 -61.6 Z M 14.5 -124.2 " fill="#676767" fill-opacity="0.17"></path><path d="M 14.0 -123.7 L 67.3 -123.7 L 67.3 -61.1 L 14.0 -61.1 Z M 14.0 -123.7 " fill="#676767" fill-opacity="0.25"></path><path d="M 13.4 -123.1 L 66.7 -123.1 L 66.7 -60.5 L 13.4 -60.5 Z M 13.4 -123.1 " fill="#676767" fill-opacity="0.35"></path><path d="M 12.8 -122.6 L 66.1 -122.6 L 66.1 -60.0 L 12.8 -60.0 Z M 12.8 -122.6 " fill="#676767" fill-opacity="0.47"></path><path d="M -24.3 218.3 L 40.3 218.3 L 40.3 228.0 L -24.3 228.0 Z M -24.3 218.3 " fill="#72FA78"></path><path d="M -48.6 215.1 L 17.7 215.1 L 17.7 226.3 L -48.6 226.3 Z M -48.6 215.1 " fill="#8DBEFF"></path><path d="M 16.0 83.5 L 25.7 83.5 L 25.7 125.2 L 16.0 125.2 Z M 16.0 83.5 " fill="#72FA78"></path><path d="M 19.3 45.0 L 29.0 45.0 L 29.0 107.6 L 19.3 107.6 Z M 19.3 45.0 " fill="#8DBEFF"></path><path d="M 70.9 17.7 L 124.2 17.7 L 124.2 27.3 L 70.9 27.3 Z M 70.9 17.7 " fill="#8DBEFF"></path><path d="M 103.3 14.5 L 137.2 14.5 L 137.2 24.1 L 103.3 24.1 Z M 103.3 14.5 " fill="#72FA78"></path><path d="M 70.9 45.0 L 124.2 45.0 L 124.2 107.6 L 70.9 107.6 Z M 70.9 45.0 " fill="#E2E2E2"></path><path d="M 240.0 192.0 L 306.0 192.0 L 306.0 270.0 L 240.0 270.0 Z M 240.0 192.0 " fill="none" stroke="#000000" stroke-width="1.00" stroke-miterlimit="0.00" transform="matrix(0.81, 0.00, 0.00, -0.80, -122.9, 261.7)"></path><path d="M 17.7 83.5 L 27.3 83.5 L 27.3 107.6 L 17.7 107.6 Z M 17.7 83.5 " fill="#FFD97E"></path><path d="M -26.0 216.7 L 17.7 216.7 L 17.7 226.3 L -26.0 226.3 Z M -26.0 216.7 " fill="#FFD97E"></path><path d="M 103.3 16.1 L 124.2 16.1 L 124.2 25.7 L 103.3 25.7 Z M 103.3 16.1 " fill="#FFD97E"></path><text xml:space="preserve" font-family="Courier" font-size="12.0" fill="#000000" transform="matrix(0.81, 0.00, -0.00, -0.80, 36.8, 235.9)">t</text><text xml:space="preserve" font-family="Courier" font-size="12.0" fill="#000000" transform="matrix(0.81, 0.00, -0.00, -0.80, 42.6, 235.9)">1</text><text xml:space="preserve" font-family="Courier" font-size="12.0" fill="#000000" transform="matrix(0.81, 0.00, -0.00, -0.80, -27.7, 235.9)">t</text><text xml:space="preserve" font-family="Courier" font-size="12.0" fill="#000000" transform="matrix(0.81, 0.00, -0.00, -0.80, -21.9, 235.9)">0</text><path d="M 180.0 300.0 L 244.0 300.0 L 354.2 300.0 " fill="none" stroke="#000000" stroke-width="1.00" stroke-miterlimit="0.00" transform="matrix(0.81, 0.00, 0.00, -0.80, -122.9, 261.7)"></path><path d="M 168.7 20.9 L 163.2 22.9 L 165.3 20.9 L 163.2 20.9 L 165.3 20.9 L 163.2 18.8 Z M 168.7 20.9 " fill="#000000"></path><path d="M 361.1 300.0 L 354.2 297.4 L 356.8 300.0 L 354.2 300.0 L 356.8 300.0 L 354.2 302.6 Z M 361.1 300.0 " fill="none" stroke="#000000" stroke-width="1.00" stroke-miterlimit="0.00" transform="matrix(0.81, 0.00, 0.00, -0.80, -122.9, 261.7)"></path><path d="M 180.0 300.0 L 180.0 268.0 L 180.0 258.0 L 180.0 231.0 L 180.0 222.0 L 180.0 158.8 " fill="none" stroke="#000000" stroke-width="1.00" stroke-miterlimit="0.00" transform="matrix(0.81, 0.00, 0.00, -0.80, -122.9, 261.7)"></path><path d="M 22.5 139.7 L 20.4 134.2 L 22.5 136.3 L 22.5 134.2 L 22.5 136.3 L 24.6 134.2 Z M 22.5 139.7 " fill="#000000"></path><path d="M 180.0 151.9 L 177.4 158.8 L 180.0 156.2 L 180.0 158.8 L 180.0 156.2 L 182.6 158.8 Z M 180.0 151.9 " fill="none" stroke="#000000" stroke-width="1.00" stroke-miterlimit="0.00" transform="matrix(0.81, 0.00, 0.00, -0.80, -122.9, 261.7)"></path><path d="M 240.0 270.0 L 177.0 270.0 " fill="none" stroke="#000000" stroke-width="1.00" stroke-miterlimit="0.00" stroke-dasharray="4.0, 4.0" transform="matrix(0.81, 0.00, 0.00, -0.80, -122.9, 261.7)"></path><path d="M 240.0 192.0 L 180.0 192.0 " fill="none" stroke="#000000" stroke-width="1.00" stroke-miterlimit="0.00" stroke-dasharray="4.0, 4.0" transform="matrix(0.81, 0.00, 0.00, -0.80, -122.9, 261.7)"></path><path d="M 240.0 270.0 L 240.0 300.0 " fill="none" stroke="#000000" stroke-width="1.00" stroke-miterlimit="0.00" stroke-dasharray="4.0, 4.0" transform="matrix(0.81, 0.00, 0.00, -0.80, -122.9, 261.7)"></path><path d="M 306.0 270.0 L 306.0 300.0 " fill="none" stroke="#000000" stroke-width="1.00" stroke-miterlimit="0.00" stroke-dasharray="4.0, 4.0" transform="matrix(0.81, 0.00, 0.00, -0.80, -122.9, 261.7)"></path><text xml:space="preserve" font-family="Courier" font-size="12.0" fill="#000000" transform="matrix(0.81, 0.00, -0.00, -0.80, 14.2, 235.9)">t</text><text xml:space="preserve" font-family="Courier" font-size="12.0" fill="#000000" transform="matrix(0.81, 0.00, -0.00, -0.80, 20.0, 235.9)">3</text><path d="M -42.5 175.9 L 22.9 175.9 L 22.9 185.5 L -42.5 185.5 Z M -42.5 175.9 " fill="#FFD97E"></path><path d="M 100.5 100.4 L 181.2 100.4 " fill="none" stroke="#000000" stroke-width="1.00" stroke-miterlimit="0.00" transform="matrix(0.81, 0.00, 0.00, -0.80, -122.9, 261.7)"></path><path d="M 211.2 100.4 L 181.2 100.4 M 181.2 112.4 L 181.2 88.3 " fill="none" stroke="#000000" stroke-width="1.00" stroke-miterlimit="0.00" transform="matrix(0.81, 0.00, 0.00, -0.80, -122.9, 261.7)"></path><path d="M 70.5 100.4 L 100.5 100.4 M 100.5 88.3 L 100.5 112.4 " fill="none" stroke="#000000" stroke-width="1.00" stroke-miterlimit="0.00" transform="matrix(0.81, 0.00, 0.00, -0.80, -122.9, 261.7)"></path><text xml:space="preserve" font-family="Courier" font-size="12.0" fill="#000000" transform="matrix(0.81, 0.00, -0.00, -0.80, 20.3, 195.0)">t</text><text xml:space="preserve" font-family="Courier" font-size="12.0" fill="#000000" transform="matrix(0.81, 0.00, -0.00, -0.80, 26.1, 195.0)">1</text><text xml:space="preserve" font-family="Courier" font-size="12.0" fill="#000000" transform="matrix(0.81, 0.00, -0.00, -0.80, -44.2, 195.0)">t</text><text xml:space="preserve" font-family="Courier" font-size="12.0" fill="#000000" transform="matrix(0.81, 0.00, -0.00, -0.80, -38.4, 195.0)">0</text><path d="M 103.3 83.5 L 137.2 83.5 L 137.2 125.2 L 103.3 125.2 Z M 103.3 83.5 " fill="#E2E2E2" fill-opacity="0.82"></path><path d="M 280.0 170.0 L 322.0 170.0 L 322.0 222.0 L 280.0 222.0 Z M 280.0 170.0 " fill="none" stroke="#000000" stroke-width="1.00" stroke-miterlimit="0.00" transform="matrix(0.81, 0.00, 0.00, -0.80, -122.9, 261.7)"></path><path d="M 280.0 222.0 L 180.0 222.0 " fill="none" stroke="#000000" stroke-width="1.00" stroke-miterlimit="0.00" stroke-dasharray="4.0, 4.0" transform="matrix(0.81, 0.00, 0.00, -0.80, -122.9, 261.7)"></path><path d="M 280.0 170.0 L 180.0 170.0 " fill="none" stroke="#000000" stroke-width="1.00" stroke-miterlimit="0.00" stroke-dasharray="4.0, 4.0" transform="matrix(0.81, 0.00, 0.00, -0.80, -122.9, 261.7)"></path><path d="M 322.0 222.0 L 322.0 302.0 " fill="none" stroke="#000000" stroke-width="1.00" stroke-miterlimit="0.00" stroke-dasharray="4.0, 4.0" transform="matrix(0.81, 0.00, 0.00, -0.80, -122.9, 261.7)"></path><path d="M 280.0 222.0 L 280.0 302.0 " fill="none" stroke="#000000" stroke-width="1.00" stroke-miterlimit="0.00" stroke-dasharray="4.0, 4.0" transform="matrix(0.81, 0.00, 0.00, -0.80, -122.9, 261.7)"></path><path d="M 12.3 -122.0 L 65.6 -122.0 L 65.6 -59.4 L 12.3 -59.4 Z M 12.3 -122.0 " fill="#E2E2E2"></path><path d="M 167.3 400.0 L 233.3 400.0 L 233.3 478.0 L 167.3 478.0 Z M 167.3 400.0 " fill="none" stroke="#000000" stroke-width="1.00" stroke-miterlimit="0.00" transform="matrix(0.81, 0.00, 0.00, -0.80, -122.9, 261.7)"></path><path d="M -41.0 -122.0 L -31.3 -122.0 L -31.3 -59.4 L -41.0 -59.4 Z M -41.0 -122.0 " fill="#FFD97E"></path><path d="M 12.3 -150.9 L 65.6 -150.9 L 65.6 -141.3 L 12.3 -141.3 Z M 12.3 -150.9 " fill="#FFD97E"></path><path d="M 107.3 508.0 L 171.3 508.0 L 281.6 508.0 " fill="none" stroke="#000000" stroke-width="1.00" stroke-miterlimit="0.00" transform="matrix(0.81, 0.00, 0.00, -0.80, -122.9, 261.7)"></path><path d="M 110.1 -146.1 L 104.5 -144.0 L 106.6 -146.1 L 104.5 -146.1 L 106.6 -146.1 L 104.5 -148.1 Z M 110.1 -146.1 " fill="#000000"></path><path d="M 288.4 508.0 L 281.6 505.4 L 284.1 508.0 L 281.6 508.0 L 284.1 508.0 L 281.6 510.6 Z M 288.4 508.0 " fill="none" stroke="#000000" stroke-width="1.00" stroke-miterlimit="0.00" transform="matrix(0.81, 0.00, 0.00, -0.80, -122.9, 261.7)"></path><path d="M 107.3 508.0 L 107.3 476.0 L 107.3 466.0 L 107.3 439.0 L 107.3 430.0 L 107.3 366.8 " fill="none" stroke="#000000" stroke-width="1.00" stroke-miterlimit="0.00" transform="matrix(0.81, 0.00, 0.00, -0.80, -122.9, 261.7)"></path><path d="M -36.2 -27.2 L -38.3 -32.7 L -36.2 -30.6 L -36.2 -32.7 L -36.2 -30.6 L -34.1 -32.7 Z M -36.2 -27.2 " fill="#000000"></path><path d="M 107.3 359.9 L 104.8 366.8 L 107.3 364.2 L 107.3 366.8 L 107.3 364.2 L 109.9 366.8 Z M 107.3 359.9 " fill="none" stroke="#000000" stroke-width="1.00" stroke-miterlimit="0.00" transform="matrix(0.81, 0.00, 0.00, -0.80, -122.9, 261.7)"></path><path d="M 167.3 477.8 L 135.0 477.8 L 135.0 478.0 L 104.3 478.0 " fill="none" stroke="#000000" stroke-width="1.00" stroke-miterlimit="0.00" stroke-dasharray="4.0, 4.0" transform="matrix(0.81, 0.00, 0.00, -0.80, -122.9, 261.7)"></path><path d="M 167.3 400.2 L 137.0 400.2 L 137.0 400.0 L 107.3 400.0 " fill="none" stroke="#000000" stroke-width="1.00" stroke-miterlimit="0.00" stroke-dasharray="4.0, 4.0" transform="matrix(0.81, 0.00, 0.00, -0.80, -122.9, 261.7)"></path><path d="M 167.3 477.8 L 167.3 508.0 " fill="none" stroke="#000000" stroke-width="1.00" stroke-miterlimit="0.00" stroke-dasharray="4.0, 4.0" transform="matrix(0.81, 0.00, 0.00, -0.80, -122.9, 261.7)"></path><path d="M 233.2 478.0 L 233.2 493.0 L 233.3 493.0 L 233.3 508.0 " fill="none" stroke="#000000" stroke-width="1.00" stroke-miterlimit="0.00" stroke-dasharray="4.0, 4.0" transform="matrix(0.81, 0.00, 0.00, -0.80, -122.9, 261.7)"></path><text xml:space="preserve" font-family="Courier" font-size="12.0" fill="#000000" transform="matrix(0.81, 0.00, -0.00, -0.80, 60.5, -159.0)">x</text><text xml:space="preserve" font-family="Courier" font-size="12.0" fill="#000000" transform="matrix(0.81, 0.00, -0.00, -0.80, 66.3, -159.0)">1</text><text xml:space="preserve" font-family="Courier" font-size="12.0" fill="#000000" transform="matrix(0.81, 0.00, -0.00, -0.80, 8.9, -159.0)">x</text><text xml:space="preserve" font-family="Courier" font-size="12.0" fill="#000000" transform="matrix(0.81, 0.00, -0.00, -0.80, 14.7, -159.0)">0</text><text xml:space="preserve" font-family="Courier" font-size="12.0" fill="#000000" transform="matrix(0.81, 0.00, -0.00, -0.80, -55.8, -62.7)">y</text><text xml:space="preserve" font-family="Courier" font-size="12.0" fill="#000000" transform="matrix(0.81, 0.00, -0.00, -0.80, -50.0, -62.7)">1</text><text xml:space="preserve" font-family="Courier" font-size="12.0" fill="#000000" transform="matrix(0.81, 0.00, -0.00, -0.80, -55.7, -122.1)">y</text><text xml:space="preserve" font-family="Courier" font-size="12.0" fill="#000000" transform="matrix(0.81, 0.00, -0.00, -0.80, -49.9, -122.1)">0</text><path d="M 121.0 49.5 L 201.7 49.5 " fill="none" stroke="#000000" stroke-width="1.00" stroke-miterlimit="0.00" transform="matrix(0.81, 0.00, 0.00, -0.80, -122.9, 261.7)"></path><path d="M 231.7 49.5 L 201.7 49.5 M 201.7 61.5 L 201.7 37.5 " fill="none" stroke="#000000" stroke-width="1.00" stroke-miterlimit="0.00" transform="matrix(0.81, 0.00, 0.00, -0.80, -122.9, 261.7)"></path><path d="M 91.0 49.5 L 121.0 49.5 M 121.0 37.5 L 121.0 61.5 " fill="none" stroke="#000000" stroke-width="1.00" stroke-miterlimit="0.00" transform="matrix(0.81, 0.00, 0.00, -0.80, -122.9, 261.7)"></path><path d="M 93.0 49.5 L 173.7 49.5 " fill="none" stroke="#000000" stroke-width="1.00" stroke-miterlimit="0.00" transform="matrix(0.81, 0.00, 0.00, -0.80, -122.9, 261.7)"></path><path d="M 203.7 49.5 L 173.7 49.5 M 173.7 61.5 L 173.7 37.5 " fill="none" stroke="#000000" stroke-width="1.00" stroke-miterlimit="0.00" transform="matrix(0.81, 0.00, 0.00, -0.80, -122.9, 261.7)"></path><path d="M 63.0 49.5 L 93.0 49.5 M 93.0 37.5 L 93.0 61.5 " fill="none" stroke="#000000" stroke-width="1.00" stroke-miterlimit="0.00" transform="matrix(0.81, 0.00, 0.00, -0.80, -122.9, 261.7)"></path><text xml:space="preserve" font-family="Courier" font-size="12.0" fill="#000000" transform="matrix(0.81, 0.00, -0.00, -0.80, -50.3, 235.9)">t</text><text xml:space="preserve" font-family="Courier" font-size="12.0" fill="#000000" transform="matrix(0.81, 0.00, -0.00, -0.80, -44.5, 235.9)">2</text></g></g></g></svg>