<?xml version="1.0" encoding="UTF-8" standalone="no"?><svg xmlns="http://www.w3.org/2000/svg" xmlns:xlink="http://www.w3.org/1999/xlink" clip-rule="evenodd" stroke-miterlimit="4.00" viewBox="0 0 553 28"><desc>SVG generated by Keynote</desc><defs></defs><g transform="matrix(1.00, 0.00, -0.00, -1.00, 0.0, 28.0)"><text xml:space="preserve" font-family="Courier" font-size="30.0" fill="#F5D327" transform="matrix(1.00, 0.00, -0.00, -1.00, -1.0, 7.0)">s</text><text xml:space="preserve" font-family="Courier" font-size="30.0" fill="#F5D327" transform="matrix(1.00, 0.00, -0.00, -1.00, 17.0, 7.0)">c</text><text xml:space="preserve" font-family="Courier" font-size="30.0" fill="#F5D327" transform="matrix(1.00, 0.00, -0.00, -1.00, 35.0, 7.0)">o</text><text xml:space="preserve" font-family="Courier" font-size="30.0" fill="#F5D327" transform="matrix(1.00, 0.00, -0.00, -1.00, 53.0, 7.0)">r</text><text xml:space="preserve" font-family="Courier" font-size="30.0" fill="#F5D327" transform="matrix(1.00, 0.00, -0.00, -1.00, 71.0, 7.0)">e</text><text xml:space="preserve" font-family="Courier" font-size="30.0" fill="#F5D327" transform="matrix(1.00, 0.00, -0.00, -1.00, 89.0, 7.0)">-</text><text xml:space="preserve" font-family="Courier" font-size="30.0" fill="#F5D327" transform="matrix(1.00, 0.00, -0.00, -1.00, 107.0, 7.0)">&gt;</text><text xml:space="preserve" font-family="Courier" font-size="30.0" fill="#F5D327" transform="matrix(1.00, 0.00, -0.00, -1.00, 125.0, 7.0)">c</text><text xml:space="preserve" font-family="Courier" font-size="30.0" fill="#F5D327" transform="matrix(1.00, 0.00, -0.00, -1.00, 143.0, 7.0)">o</text><text xml:space="preserve" font-family="Courier" font-size="30.0" fill="#F5D327" transform="matrix(1.00, 0.00, -0.00, -1.00, 161.1, 7.0)">l</text><text xml:space="preserve" font-family="Courier" font-size="30.0" fill="#F5D327" transform="matrix(1.00, 0.00, -0.00, -1.00, 179.1, 7.0)">o</text><text xml:space="preserve" font-family="Courier" font-size="30.0" fill="#F5D327" transform="matrix(1.00, 0.00, -0.00, -1.00, 197.1, 7.0)">r</text><text xml:space="preserve" font-family="Courier" font-size="30.0" fill="#F5D327" transform="matrix(1.00, 0.00, -0.00, -1.00, 215.1, 7.0)">(</text><text xml:space="preserve" font-family="Courier" font-size="30.0" fill="#F5D327" transform="matrix(1.00, 0.00, -0.00, -1.00, 233.1, 7.0)">2</text><text xml:space="preserve" font-family="Courier" font-size="30.0" fill="#F5D327" transform="matrix(1.00, 0.00, -0.00, -1.00, 251.1, 7.0)">5</text><text xml:space="preserve" font-family="Courier" font-size="30.0" fill="#F5D327" transform="matrix(1.00, 0.00, -0.00, -1.00, 269.1, 7.0)">5</text><text xml:space="preserve" font-family="Courier" font-size="30.0" fill="#F5D327" transform="matrix(1.00, 0.00, -0.00, -1.00, 287.1, 7.0)">,</text><text xml:space="preserve" font-family="Courier" font-size="30.0" fill="#F5D327" transform="matrix(1.00, 0.00, -0.00, -1.00, 305.1, 7.0)"> </text><text xml:space="preserve" font-family="Courier" font-size="30.0" fill="#F5D327" transform="matrix(1.00, 0.00, -0.00, -1.00, 323.1, 7.0)">1</text><text xml:space="preserve" font-family="Courier" font-size="30.0" fill="#F5D327" transform="matrix(1.00, 0.00, -0.00, -1.00, 341.1, 7.0)">2</text><text xml:space="preserve" font-family="Courier" font-size="30.0" fill="#F5D327" transform="matrix(1.00, 0.00, -0.00, -1.00, 359.1, 7.0)">8</text><text xml:space="preserve" font-family="Courier" font-size="30.0" fill="#F5D327" transform="matrix(1.00, 0.00, -0.00, -1.00, 377.1, 7.0)">,</text><text xml:space="preserve" font-family="Courier" font-size="30.0" fill="#F5D327" transform="matrix(1.00, 0.00, -0.00, -1.00, 395.1, 7.0)"> </text><text xml:space="preserve" font-family="Courier" font-size="30.0" fill="#F5D327" transform="matrix(1.00, 0.00, -0.00, -1.00, 413.1, 7.0)">4</text><text xml:space="preserve" font-family="Courier" font-size="30.0" fill="#F5D327" transform="matrix(1.00, 0.00, -0.00, -1.00, 431.1, 7.0)">0</text><text xml:space="preserve" font-family="Courier" font-size="30.0" fill="#F5D327" transform="matrix(1.00, 0.00, -0.00, -1.00, 449.1, 7.0)">,</text><text xml:space="preserve" font-family="Courier" font-size="30.0" fill="#F5D327" transform="matrix(1.00, 0.00, -0.00, -1.00, 467.2, 7.0)"> </text><text xml:space="preserve" font-family="Courier" font-size="30.0" fill="#F5D327" transform="matrix(1.00, 0.00, -0.00, -1.00, 485.2, 7.0)">1</text><text xml:space="preserve" font-family="Courier" font-size="30.0" fill="#F5D327" transform="matrix(1.00, 0.00, -0.00, -1.00, 503.2, 7.0)">5</text><text xml:space="preserve" font-family="Courier" font-size="30.0" fill="#F5D327" transform="matrix(1.00, 0.00, -0.00, -1.00, 521.2, 7.0)">0</text><text xml:space="preserve" font-family="Courier" font-size="30.0" fill="#F5D327" transform="matrix(1.00, 0.00, -0.00, -1.00, 539.2, 7.0)">)</text></g></svg>