<?xml version="1.0" encoding="UTF-8" standalone="no"?><svg xmlns="http://www.w3.org/2000/svg" xmlns:xlink="http://www.w3.org/1999/xlink" clip-rule="evenodd" stroke-miterlimit="4.00" viewBox="0 0 797 166"><desc>SVG generated by Keynote</desc><defs></defs><g transform="matrix(1.00, 0.00, -0.00, -1.00, 0.0, 166.0)"><g><clipPath id="clip-33"><path d="M -7.3 99.2 L 493.0 99.2 L 493.0 172.8 L -7.3 172.8 Z M -7.3 99.2 "></path></clipPath><g clip-path="url(#clip-33)"><text xml:space="preserve" font-family="Avenir-Book" font-size="36.0" fill="#DCDDE0" transform="matrix(1.00, 0.00, -0.00, -1.00, 5.0, 125.0)">O</text><text xml:space="preserve" font-family="Avenir-Book" font-size="36.0" fill="#DCDDE0" transform="matrix(1.00, 0.00, -0.00, -1.00, 35.0, 125.0)">S</text><text xml:space="preserve" font-family="Avenir-Book" font-size="36.0" fill="#DCDDE0" transform="matrix(1.00, 0.00, -0.00, -1.00, 55.0, 125.0)">C</text><text xml:space="preserve" font-family="Avenir-Book" font-size="36.0" fill="#DCDDE0" transform="matrix(1.00, 0.00, -0.00, -1.00, 80.4, 125.0)"> </text><text xml:space="preserve" font-family="Avenir-Book" font-size="36.0" fill="#DCDDE0" transform="matrix(1.00, 0.00, -0.00, -1.00, 90.4, 125.0)">m</text><text xml:space="preserve" font-family="Avenir-Book" font-size="36.0" fill="#DCDDE0" transform="matrix(1.00, 0.00, -0.00, -1.00, 121.1, 125.0)">e</text><text xml:space="preserve" font-family="Avenir-Book" font-size="36.0" fill="#DCDDE0" transform="matrix(1.00, 0.00, -0.00, -1.00, 141.1, 125.0)">s</text><text xml:space="preserve" font-family="Avenir-Book" font-size="36.0" fill="#DCDDE0" transform="matrix(1.00, 0.00, -0.00, -1.00, 156.4, 125.0)">s</text><text xml:space="preserve" font-family="Avenir-Book" font-size="36.0" fill="#DCDDE0" transform="matrix(1.00, 0.00, -0.00, -1.00, 171.8, 125.0)">a</text><text xml:space="preserve" font-family="Avenir-Book" font-size="36.0" fill="#DCDDE0" transform="matrix(1.00, 0.00, -0.00, -1.00, 190.4, 125.0)">g</text><text xml:space="preserve" font-family="Avenir-Book" font-size="36.0" fill="#DCDDE0" transform="matrix(1.00, 0.00, -0.00, -1.00, 212.4, 125.0)">e</text><text xml:space="preserve" font-family="Avenir-Book" font-size="36.0" fill="#DCDDE0" transform="matrix(1.00, 0.00, -0.00, -1.00, 232.4, 125.0)"> </text><text xml:space="preserve" font-family="Avenir-Book" font-size="36.0" fill="#DCDDE0" transform="matrix(1.00, 0.00, -0.00, -1.00, 242.5, 125.0)">g</text><text xml:space="preserve" font-family="Avenir-Book" font-size="36.0" fill="#DCDDE0" transform="matrix(1.00, 0.00, -0.00, -1.00, 264.5, 125.0)">e</text><text xml:space="preserve" font-family="Avenir-Book" font-size="36.0" fill="#DCDDE0" transform="matrix(1.00, 0.00, -0.00, -1.00, 284.5, 125.0)">n</text><text xml:space="preserve" font-family="Avenir-Book" font-size="36.0" fill="#DCDDE0" transform="matrix(1.00, 0.00, -0.00, -1.00, 304.5, 125.0)">e</text><text xml:space="preserve" font-family="Avenir-Book" font-size="36.0" fill="#DCDDE0" transform="matrix(1.00, 0.00, -0.00, -1.00, 324.5, 125.0)">r</text><text xml:space="preserve" font-family="Avenir-Book" font-size="36.0" fill="#DCDDE0" transform="matrix(1.00, 0.00, -0.00, -1.00, 336.5, 125.0)">a</text><text xml:space="preserve" font-family="Avenir-Book" font-size="36.0" fill="#DCDDE0" transform="matrix(1.00, 0.00, -0.00, -1.00, 355.1, 125.0)">l</text><text xml:space="preserve" font-family="Avenir-Book" font-size="36.0" fill="#DCDDE0" transform="matrix(1.00, 0.00, -0.00, -1.00, 363.8, 125.0)"> </text><text xml:space="preserve" font-family="Avenir-Book" font-size="36.0" fill="#DCDDE0" transform="matrix(1.00, 0.00, -0.00, -1.00, 373.8, 125.0)">f</text><text xml:space="preserve" font-family="Avenir-Book" font-size="36.0" fill="#DCDDE0" transform="matrix(1.00, 0.00, -0.00, -1.00, 384.4, 125.0)">o</text><text xml:space="preserve" font-family="Avenir-Book" font-size="36.0" fill="#DCDDE0" transform="matrix(1.00, 0.00, -0.00, -1.00, 405.8, 125.0)">r</text><text xml:space="preserve" font-family="Avenir-Book" font-size="36.0" fill="#DCDDE0" transform="matrix(1.00, 0.00, -0.00, -1.00, 418.4, 125.0)">m</text><text xml:space="preserve" font-family="Avenir-Book" font-size="36.0" fill="#DCDDE0" transform="matrix(1.00, 0.00, -0.00, -1.00, 449.1, 125.0)">a</text><text xml:space="preserve" font-family="Avenir-Book" font-size="36.0" fill="#DCDDE0" transform="matrix(1.00, 0.00, -0.00, -1.00, 467.7, 125.0)">t</text></g></g><g><clipPath id="clip-34"><path d="M 53.0 1.0 L 797.0 1.0 L 797.0 135.0 L 53.0 135.0 Z M 53.0 1.0 "></path></clipPath><g clip-path="url(#clip-34)"><image xlink:href="A3D205114B302A36EE1BC375BCE3C73D.png" width="118.00" height="54.00" transform="matrix(1.64, 0.00, -0.00, -1.64, 94.7, 106.7)"></image><image xlink:href="../../D51D7656-423F-4084-A5B7-0BE4A0E5ADDE/assets/A3D205114B302A36EE1BC375BCE3C73D.png" width="118.00" height="54.00" transform="matrix(1.64, 0.00, -0.00, -1.64, 320.6, 106.7)"></image><image xlink:href="../../D51D7656-423F-4084-A5B7-0BE4A0E5ADDE/assets/A3D205114B302A36EE1BC375BCE3C73D.png" width="118.00" height="54.00" transform="matrix(1.64, 0.00, -0.00, -1.64, 546.4, 106.7)"></image><path d="M 112.7 42.8 L 269.8 42.8 L 269.8 95.2 L 112.7 95.2 Z M 112.7 42.8 " fill="#FEFFFF"></path><path d="M 90.0 177.0 L 186.0 177.0 L 186.0 209.0 L 90.0 209.0 Z M 90.0 177.0 " fill="none" stroke="#000000" stroke-width="1.00" stroke-miterlimit="0.00" stroke-linecap="round" stroke-linejoin="round" transform="matrix(1.64, 0.00, 0.00, -1.64, -34.6, 385.3)"></path><text xml:space="preserve" font-family="Helvetica" font-size="12.0" fill="#000000" transform="matrix(1.64, 0.00, -0.00, -1.64, 131.2, 63.9)">O</text><text xml:space="preserve" font-family="Helvetica" font-size="12.0" fill="#000000" transform="matrix(1.64, 0.00, -0.00, -1.64, 146.5, 63.9)">S</text><text xml:space="preserve" font-family="Helvetica" font-size="12.0" fill="#000000" transform="matrix(1.64, 0.00, -0.00, -1.64, 159.6, 63.9)">C</text><text xml:space="preserve" font-family="Helvetica" font-size="12.0" fill="#000000" transform="matrix(1.64, 0.00, -0.00, -1.64, 173.8, 63.9)"> </text><text xml:space="preserve" font-family="Helvetica" font-size="12.0" fill="#000000" transform="matrix(1.64, 0.00, -0.00, -1.64, 179.2, 63.9)">a</text><text xml:space="preserve" font-family="Helvetica" font-size="12.0" fill="#000000" transform="matrix(1.64, 0.00, -0.00, -1.64, 190.1, 63.9)">d</text><text xml:space="preserve" font-family="Helvetica" font-size="12.0" fill="#000000" transform="matrix(1.64, 0.00, -0.00, -1.64, 201.1, 63.9)">d</text><text xml:space="preserve" font-family="Helvetica" font-size="12.0" fill="#000000" transform="matrix(1.64, 0.00, -0.00, -1.64, 212.0, 63.9)">r</text><text xml:space="preserve" font-family="Helvetica" font-size="12.0" fill="#000000" transform="matrix(1.64, 0.00, -0.00, -1.64, 218.5, 63.9)">e</text><text xml:space="preserve" font-family="Helvetica" font-size="12.0" fill="#000000" transform="matrix(1.64, 0.00, -0.00, -1.64, 229.5, 63.9)">s</text><text xml:space="preserve" font-family="Helvetica" font-size="12.0" fill="#000000" transform="matrix(1.64, 0.00, -0.00, -1.64, 239.3, 63.9)">s</text><path d="M 338.6 42.8 L 495.7 42.8 L 495.7 95.2 L 338.6 95.2 Z M 338.6 42.8 " fill="#FEFFFF"></path><path d="M 228.0 177.0 L 324.0 177.0 L 324.0 209.0 L 228.0 209.0 Z M 228.0 177.0 " fill="none" stroke="#000000" stroke-width="1.00" stroke-miterlimit="0.00" stroke-linecap="round" stroke-linejoin="round" transform="matrix(1.64, 0.00, 0.00, -1.64, -34.6, 385.3)"></path><text xml:space="preserve" font-family="Helvetica" font-size="12.0" fill="#000000" transform="matrix(1.64, 0.00, -0.00, -1.64, 349.4, 63.9)">m</text><text xml:space="preserve" font-family="Helvetica" font-size="12.0" fill="#000000" transform="matrix(1.64, 0.00, -0.00, -1.64, 365.8, 63.9)">e</text><text xml:space="preserve" font-family="Helvetica" font-size="12.0" fill="#000000" transform="matrix(1.64, 0.00, -0.00, -1.64, 376.7, 63.9)">s</text><text xml:space="preserve" font-family="Helvetica" font-size="12.0" fill="#000000" transform="matrix(1.64, 0.00, -0.00, -1.64, 386.5, 63.9)">s</text><text xml:space="preserve" font-family="Helvetica" font-size="12.0" fill="#000000" transform="matrix(1.64, 0.00, -0.00, -1.64, 396.3, 63.9)">a</text><text xml:space="preserve" font-family="Helvetica" font-size="12.0" fill="#000000" transform="matrix(1.64, 0.00, -0.00, -1.64, 407.3, 63.9)">g</text><text xml:space="preserve" font-family="Helvetica" font-size="12.0" fill="#000000" transform="matrix(1.64, 0.00, -0.00, -1.64, 418.2, 63.9)">e</text><text xml:space="preserve" font-family="Helvetica" font-size="12.0" fill="#000000" transform="matrix(1.64, 0.00, -0.00, -1.64, 429.1, 63.9)"> </text><text xml:space="preserve" font-family="Helvetica" font-size="12.0" fill="#000000" transform="matrix(1.64, 0.00, -0.00, -1.64, 434.6, 63.9)">s</text><text xml:space="preserve" font-family="Helvetica" font-size="12.0" fill="#000000" transform="matrix(1.64, 0.00, -0.00, -1.64, 444.4, 63.9)">t</text><text xml:space="preserve" font-family="Helvetica" font-size="12.0" fill="#000000" transform="matrix(1.64, 0.00, -0.00, -1.64, 449.8, 63.9)">r</text><text xml:space="preserve" font-family="Helvetica" font-size="12.0" fill="#000000" transform="matrix(1.64, 0.00, -0.00, -1.64, 456.4, 63.9)">i</text><text xml:space="preserve" font-family="Helvetica" font-size="12.0" fill="#000000" transform="matrix(1.64, 0.00, -0.00, -1.64, 460.8, 63.9)">n</text><text xml:space="preserve" font-family="Helvetica" font-size="12.0" fill="#000000" transform="matrix(1.64, 0.00, -0.00, -1.64, 471.7, 63.9)">g</text><path d="M 564.4 42.8 L 721.6 42.8 L 721.6 95.2 L 564.4 95.2 Z M 564.4 42.8 " fill="#FEFFFF"></path><path d="M 366.0 177.0 L 462.0 177.0 L 462.0 209.0 L 366.0 209.0 Z M 366.0 177.0 " fill="none" stroke="#000000" stroke-width="1.00" stroke-miterlimit="0.00" stroke-linecap="round" stroke-linejoin="round" transform="matrix(1.64, 0.00, 0.00, -1.64, -34.6, 385.3)"></path><text xml:space="preserve" font-family="Helvetica" font-size="12.0" fill="#000000" transform="matrix(1.64, 0.00, -0.00, -1.64, 597.1, 63.9)">p</text><text xml:space="preserve" font-family="Helvetica" font-size="12.0" fill="#000000" transform="matrix(1.64, 0.00, -0.00, -1.64, 608.0, 63.9)">a</text><text xml:space="preserve" font-family="Helvetica" font-size="12.0" fill="#000000" transform="matrix(1.64, 0.00, -0.00, -1.64, 618.9, 63.9)">r</text><text xml:space="preserve" font-family="Helvetica" font-size="12.0" fill="#000000" transform="matrix(1.64, 0.00, -0.00, -1.64, 625.5, 63.9)">a</text><text xml:space="preserve" font-family="Helvetica" font-size="12.0" fill="#000000" transform="matrix(1.64, 0.00, -0.00, -1.64, 636.4, 63.9)">m</text><text xml:space="preserve" font-family="Helvetica" font-size="12.0" fill="#000000" transform="matrix(1.64, 0.00, -0.00, -1.64, 652.8, 63.9)">e</text><text xml:space="preserve" font-family="Helvetica" font-size="12.0" fill="#000000" transform="matrix(1.64, 0.00, -0.00, -1.64, 663.7, 63.9)">t</text><text xml:space="preserve" font-family="Helvetica" font-size="12.0" fill="#000000" transform="matrix(1.64, 0.00, -0.00, -1.64, 669.2, 63.9)">e</text><text xml:space="preserve" font-family="Helvetica" font-size="12.0" fill="#000000" transform="matrix(1.64, 0.00, -0.00, -1.64, 680.1, 63.9)">r</text><path d="M 186.0 193.0 L 193.0 193.0 L 221.0 193.0 L 228.0 193.0 " fill="none" stroke="#000000" stroke-width="1.00" stroke-miterlimit="0.00" transform="matrix(1.64, 0.00, 0.00, -1.64, -34.6, 385.3)"></path><path d="M 324.0 193.0 L 331.0 193.0 L 359.0 193.0 L 366.0 193.0 " fill="none" stroke="#000000" stroke-width="1.00" stroke-miterlimit="0.00" transform="matrix(1.64, 0.00, 0.00, -1.64, -34.6, 385.3)"></path><path d="M 462.0 193.0 L 469.0 193.0 L 504.0 193.0 L 504.0 192.0 " fill="none" stroke="#000000" stroke-width="1.00" stroke-miterlimit="0.00" transform="matrix(1.64, 0.00, 0.00, -1.64, -34.6, 385.3)"></path><path d="M 59.0 194.0 L 59.0 193.0 L 83.0 193.0 L 90.0 193.0 " fill="none" stroke="#000000" stroke-width="1.00" stroke-miterlimit="0.00" transform="matrix(1.64, 0.00, 0.00, -1.64, -34.6, 385.3)"></path><path d="M 324.0 193.0 C 333.0 195.0 344.0 192.8 351.0 199.0 C 358.0 205.2 347.5 225.0 366.0 230.0 C 384.5 235.0 443.3 234.3 462.0 229.0 C 480.7 223.7 473.0 204.0 478.0 198.0 C 480.6 194.9 483.0 194.1 485.4 193.9 " fill="none" stroke="#000000" stroke-width="1.00" stroke-miterlimit="0.00" stroke-linecap="round" stroke-linejoin="round" transform="matrix(1.64, 0.00, 0.00, -1.64, -34.6, 385.3)"></path><path d="M 768.0 68.6 L 754.4 71.9 L 759.9 67.6 L 759.9 67.6 L 755.6 62.1 Z M 768.0 68.6 " fill="#000000"></path><path d="M 490.4 193.2 L 482.1 191.2 L 485.4 193.9 L 485.4 193.9 L 482.8 197.2 Z M 490.4 193.2 " fill="none" stroke="#000000" stroke-width="1.00" stroke-miterlimit="0.00" transform="matrix(1.64, 0.00, 0.00, -1.64, -34.6, 385.3)"></path><path d="M 462.0 193.0 C 466.3 187.7 475.0 182.8 475.0 177.0 C 475.0 171.2 480.2 161.2 462.0 158.0 C 443.8 154.8 384.3 154.8 366.0 158.0 C 347.7 161.2 352.0 171.2 352.0 177.0 C 352.0 181.1 356.6 184.7 360.9 188.3 " fill="none" stroke="#000000" stroke-width="1.00" stroke-miterlimit="0.00" stroke-linecap="round" stroke-linejoin="round" transform="matrix(1.64, 0.00, 0.00, -1.64, -34.6, 385.3)"></path><path d="M 562.2 71.1 L 555.9 83.6 L 556.2 76.7 L 556.2 76.7 L 549.2 76.4 Z M 562.2 71.1 " fill="#000000"></path><path d="M 364.6 191.7 L 360.8 184.1 L 360.9 188.3 L 360.9 188.3 L 356.7 188.5 Z M 364.6 191.7 " fill="none" stroke="#000000" stroke-width="1.00" stroke-miterlimit="0.00" transform="matrix(1.64, 0.00, 0.00, -1.64, -34.6, 385.3)"></path></g></g></g></svg>