<?xml version="1.0" encoding="UTF-8" standalone="no"?><svg xmlns="http://www.w3.org/2000/svg" xmlns:xlink="http://www.w3.org/1999/xlink" clip-rule="evenodd" stroke-miterlimit="4.00" viewBox="0 0 1024 768"><desc>SVG generated by Keynote</desc><defs><linearGradient id="gradSh1.2" x1="0.0" y1="0.0" x2="100.0" y2="0.0" gradientUnits="userSpaceOnUse" gradientTransform="matrix(0.00, 0.52, 0.47, 0.00, 485.4, 382.4)"><stop offset="0.00000" stop-color="#7E649B"></stop><stop offset="0.00733" stop-color="#7E659B"></stop><stop offset="1.00000" stop-color="#7996B9"></stop></linearGradient><linearGradient id="gradSh1.3" x1="0.0" y1="0.0" x2="100.0" y2="0.0" gradientUnits="userSpaceOnUse" gradientTransform="matrix(0.00, 0.52, 0.47, 0.00, 485.4, 299.3)"><stop offset="0.00000" stop-color="#7E649B"></stop><stop offset="0.00733" stop-color="#7E659B"></stop><stop offset="1.00000" stop-color="#7996B9"></stop></linearGradient><linearGradient id="gradSh1.4" x1="0.0" y1="0.0" x2="100.0" y2="0.0" gradientUnits="userSpaceOnUse" gradientTransform="matrix(0.00, 0.52, 0.47, 0.00, 485.4, 216.8)"><stop offset="0.00000" stop-color="#7E649B"></stop><stop offset="0.00733" stop-color="#7E659B"></stop><stop offset="1.00000" stop-color="#7996B9"></stop></linearGradient><linearGradient id="gradSh1.5" x1="0.0" y1="0.0" x2="100.0" y2="0.0" gradientUnits="userSpaceOnUse" gradientTransform="matrix(0.00, 0.52, 0.47, 0.00, 485.4, 133.4)"><stop offset="0.00000" stop-color="#7E649B"></stop><stop offset="0.00733" stop-color="#7E659B"></stop><stop offset="1.00000" stop-color="#7996B9"></stop></linearGradient><linearGradient id="gradSh1.6" x1="0.0" y1="0.0" x2="100.0" y2="0.0" gradientUnits="userSpaceOnUse" gradientTransform="matrix(0.00, 0.52, 0.47, 0.00, 485.4, 50.3)"><stop offset="0.00000" stop-color="#7E649B"></stop><stop offset="0.00733" stop-color="#7E659B"></stop><stop offset="1.00000" stop-color="#7996B9"></stop></linearGradient></defs><g transform="matrix(1.00, 0.00, -0.00, -1.00, 0.0, 768.0)"><path d="M 0.0 768.0 L 1024.0 768.0 L 1024.0 0.0 L 0.0 0.0 Z M 0.0 768.0 " fill="#000000"></path><text xml:space="preserve" font-family="AvenirNext-DemiBold" font-weight="bold" font-size="53.0" fill="#FEFFFF" transform="matrix(1.00, 0.00, -0.00, -1.00, 74.0, 677.0)">I</text><text xml:space="preserve" font-family="AvenirNext-DemiBold" font-weight="bold" font-size="53.0" fill="#FEFFFF" transform="matrix(1.00, 0.00, -0.00, -1.00, 88.9, 677.0)">N</text><text xml:space="preserve" font-family="AvenirNext-DemiBold" font-weight="bold" font-size="53.0" fill="#FEFFFF" transform="matrix(1.00, 0.00, -0.00, -1.00, 130.3, 677.0)">S</text><text xml:space="preserve" font-family="AvenirNext-DemiBold" font-weight="bold" font-size="53.0" fill="#FEFFFF" transform="matrix(1.00, 0.00, -0.00, -1.00, 160.7, 677.0)">c</text><text xml:space="preserve" font-family="AvenirNext-DemiBold" font-weight="bold" font-size="53.0" fill="#FEFFFF" transform="matrix(1.00, 0.00, -0.00, -1.00, 186.6, 677.0)">o</text><text xml:space="preserve" font-family="AvenirNext-DemiBold" font-weight="bold" font-size="53.0" fill="#FEFFFF" transform="matrix(1.00, 0.00, -0.00, -1.00, 218.9, 677.0)">r</text><text xml:space="preserve" font-family="AvenirNext-DemiBold" font-weight="bold" font-size="53.0" fill="#FEFFFF" transform="matrix(1.00, 0.00, -0.00, -1.00, 237.2, 677.0)">e</text><text xml:space="preserve" font-family="Avenir-Book" font-size="18.0" fill="#D5D5D5" transform="matrix(1.00, 0.00, -0.00, -1.00, 35.0, 28.0)">8</text><text xml:space="preserve" font-family="Avenir-Book" font-size="27.5" fill="#FEFFFF" transform="matrix(1.00, 0.00, -0.00, -1.00, 74.0, 633.0)">A</text><text xml:space="preserve" font-family="Avenir-Book" font-size="27.5" fill="#FEFFFF" transform="matrix(1.00, 0.00, -0.00, -1.00, 92.9, 633.0)">n</text><text xml:space="preserve" font-family="Avenir-Book" font-size="27.5" fill="#FEFFFF" transform="matrix(1.00, 0.00, -0.00, -1.00, 108.2, 633.0)"> </text><text xml:space="preserve" font-family="Avenir-Book" font-size="27.5" fill="#FEFFFF" transform="matrix(1.00, 0.00, -0.00, -1.00, 115.8, 633.0)">e</text><text xml:space="preserve" font-family="Avenir-Book" font-size="27.5" fill="#FEFFFF" transform="matrix(1.00, 0.00, -0.00, -1.00, 131.1, 633.0)">n</text><text xml:space="preserve" font-family="Avenir-Book" font-size="27.5" fill="#FEFFFF" transform="matrix(1.00, 0.00, -0.00, -1.00, 146.4, 633.0)">v</text><text xml:space="preserve" font-family="Avenir-Book" font-size="27.5" fill="#FEFFFF" transform="matrix(1.00, 0.00, -0.00, -1.00, 159.6, 633.0)">i</text><text xml:space="preserve" font-family="Avenir-Book" font-size="27.5" fill="#FEFFFF" transform="matrix(1.00, 0.00, -0.00, -1.00, 166.2, 633.0)">r</text><text xml:space="preserve" font-family="Avenir-Book" font-size="27.5" fill="#FEFFFF" transform="matrix(1.00, 0.00, -0.00, -1.00, 174.9, 633.0)">o</text><text xml:space="preserve" font-family="Avenir-Book" font-size="27.5" fill="#FEFFFF" transform="matrix(1.00, 0.00, -0.00, -1.00, 191.2, 633.0)">n</text><text xml:space="preserve" font-family="Avenir-Book" font-size="27.5" fill="#FEFFFF" transform="matrix(1.00, 0.00, -0.00, -1.00, 206.5, 633.0)">m</text><text xml:space="preserve" font-family="Avenir-Book" font-size="27.5" fill="#FEFFFF" transform="matrix(1.00, 0.00, -0.00, -1.00, 229.9, 633.0)">e</text><text xml:space="preserve" font-family="Avenir-Book" font-size="27.5" fill="#FEFFFF" transform="matrix(1.00, 0.00, -0.00, -1.00, 245.2, 633.0)">n</text><text xml:space="preserve" font-family="Avenir-Book" font-size="27.5" fill="#FEFFFF" transform="matrix(1.00, 0.00, -0.00, -1.00, 260.5, 633.0)">t</text><text xml:space="preserve" font-family="Avenir-Book" font-size="27.5" fill="#FEFFFF" transform="matrix(1.00, 0.00, -0.00, -1.00, 269.6, 633.0)"> </text><text xml:space="preserve" font-family="Avenir-Book" font-size="27.5" fill="#FEFFFF" transform="matrix(1.00, 0.00, -0.00, -1.00, 277.3, 633.0)">f</text><text xml:space="preserve" font-family="Avenir-Book" font-size="27.5" fill="#FEFFFF" transform="matrix(1.00, 0.00, -0.00, -1.00, 285.4, 633.0)">o</text><text xml:space="preserve" font-family="Avenir-Book" font-size="27.5" fill="#FEFFFF" transform="matrix(1.00, 0.00, -0.00, -1.00, 301.7, 633.0)">r</text><text xml:space="preserve" font-family="Avenir-Book" font-size="27.5" fill="#FEFFFF" transform="matrix(1.00, 0.00, -0.00, -1.00, 310.8, 633.0)"> </text><text xml:space="preserve" font-family="Avenir-Book" font-size="27.5" fill="#FEFFFF" transform="matrix(1.00, 0.00, -0.00, -1.00, 318.5, 633.0)">t</text><text xml:space="preserve" font-family="Avenir-Book" font-size="27.5" fill="#FEFFFF" transform="matrix(1.00, 0.00, -0.00, -1.00, 327.6, 633.0)">h</text><text xml:space="preserve" font-family="Avenir-Book" font-size="27.5" fill="#FEFFFF" transform="matrix(1.00, 0.00, -0.00, -1.00, 342.9, 633.0)">e</text><text xml:space="preserve" font-family="Avenir-Book" font-size="27.5" fill="#FEFFFF" transform="matrix(1.00, 0.00, -0.00, -1.00, 358.2, 633.0)"> </text><text xml:space="preserve" font-family="Avenir-Book" font-size="27.5" fill="#FEFFFF" transform="matrix(1.00, 0.00, -0.00, -1.00, 365.8, 633.0)">d</text><text xml:space="preserve" font-family="Avenir-Book" font-size="27.5" fill="#FEFFFF" transform="matrix(1.00, 0.00, -0.00, -1.00, 382.6, 633.0)">e</text><text xml:space="preserve" font-family="Avenir-Book" font-size="27.5" fill="#FEFFFF" transform="matrix(1.00, 0.00, -0.00, -1.00, 397.9, 633.0)">s</text><text xml:space="preserve" font-family="Avenir-Book" font-size="27.5" fill="#FEFFFF" transform="matrix(1.00, 0.00, -0.00, -1.00, 409.6, 633.0)">i</text><text xml:space="preserve" font-family="Avenir-Book" font-size="27.5" fill="#FEFFFF" transform="matrix(1.00, 0.00, -0.00, -1.00, 416.2, 633.0)">g</text><text xml:space="preserve" font-family="Avenir-Book" font-size="27.5" fill="#FEFFFF" transform="matrix(1.00, 0.00, -0.00, -1.00, 433.0, 633.0)">n</text><text xml:space="preserve" font-family="Avenir-Book" font-size="27.5" fill="#FEFFFF" transform="matrix(1.00, 0.00, -0.00, -1.00, 448.3, 633.0)"> </text><text xml:space="preserve" font-family="Avenir-Book" font-size="27.5" fill="#FEFFFF" transform="matrix(1.00, 0.00, -0.00, -1.00, 456.0, 633.0)">o</text><text xml:space="preserve" font-family="Avenir-Book" font-size="27.5" fill="#FEFFFF" transform="matrix(1.00, 0.00, -0.00, -1.00, 472.3, 633.0)">f</text><text xml:space="preserve" font-family="Avenir-Book" font-size="27.5" fill="#FEFFFF" transform="matrix(1.00, 0.00, -0.00, -1.00, 480.4, 633.0)"> </text><text xml:space="preserve" font-family="Avenir-Book" font-size="27.5" fill="#FEFFFF" transform="matrix(1.00, 0.00, -0.00, -1.00, 488.1, 633.0)">i</text><text xml:space="preserve" font-family="Avenir-Book" font-size="27.5" fill="#FEFFFF" transform="matrix(1.00, 0.00, -0.00, -1.00, 494.7, 633.0)">n</text><text xml:space="preserve" font-family="Avenir-Book" font-size="27.5" fill="#FEFFFF" transform="matrix(1.00, 0.00, -0.00, -1.00, 510.0, 633.0)">t</text><text xml:space="preserve" font-family="Avenir-Book" font-size="27.5" fill="#FEFFFF" transform="matrix(1.00, 0.00, -0.00, -1.00, 519.1, 633.0)">e</text><text xml:space="preserve" font-family="Avenir-Book" font-size="27.5" fill="#FEFFFF" transform="matrix(1.00, 0.00, -0.00, -1.00, 534.4, 633.0)">r</text><text xml:space="preserve" font-family="Avenir-Book" font-size="27.5" fill="#FEFFFF" transform="matrix(1.00, 0.00, -0.00, -1.00, 543.5, 633.0)">a</text><text xml:space="preserve" font-family="Avenir-Book" font-size="27.5" fill="#FEFFFF" transform="matrix(1.00, 0.00, -0.00, -1.00, 557.8, 633.0)">c</text><text xml:space="preserve" font-family="Avenir-Book" font-size="27.5" fill="#FEFFFF" transform="matrix(1.00, 0.00, -0.00, -1.00, 571.0, 633.0)">t</text><text xml:space="preserve" font-family="Avenir-Book" font-size="27.5" fill="#FEFFFF" transform="matrix(1.00, 0.00, -0.00, -1.00, 580.2, 633.0)">i</text><text xml:space="preserve" font-family="Avenir-Book" font-size="27.5" fill="#FEFFFF" transform="matrix(1.00, 0.00, -0.00, -1.00, 586.8, 633.0)">v</text><text xml:space="preserve" font-family="Avenir-Book" font-size="27.5" fill="#FEFFFF" transform="matrix(1.00, 0.00, -0.00, -1.00, 600.0, 633.0)">e</text><text xml:space="preserve" font-family="Avenir-Book" font-size="27.5" fill="#FEFFFF" transform="matrix(1.00, 0.00, -0.00, -1.00, 615.3, 633.0)"> </text><text xml:space="preserve" font-family="Avenir-Book" font-size="27.5" fill="#FEFFFF" transform="matrix(1.00, 0.00, -0.00, -1.00, 623.0, 633.0)">a</text><text xml:space="preserve" font-family="Avenir-Book" font-size="27.5" fill="#FEFFFF" transform="matrix(1.00, 0.00, -0.00, -1.00, 637.2, 633.0)">u</text><text xml:space="preserve" font-family="Avenir-Book" font-size="27.5" fill="#FEFFFF" transform="matrix(1.00, 0.00, -0.00, -1.00, 652.5, 633.0)">g</text><text xml:space="preserve" font-family="Avenir-Book" font-size="27.5" fill="#FEFFFF" transform="matrix(1.00, 0.00, -0.00, -1.00, 669.3, 633.0)">m</text><text xml:space="preserve" font-family="Avenir-Book" font-size="27.5" fill="#FEFFFF" transform="matrix(1.00, 0.00, -0.00, -1.00, 692.7, 633.0)">e</text><text xml:space="preserve" font-family="Avenir-Book" font-size="27.5" fill="#FEFFFF" transform="matrix(1.00, 0.00, -0.00, -1.00, 708.0, 633.0)">n</text><text xml:space="preserve" font-family="Avenir-Book" font-size="27.5" fill="#FEFFFF" transform="matrix(1.00, 0.00, -0.00, -1.00, 723.3, 633.0)">t</text><text xml:space="preserve" font-family="Avenir-Book" font-size="27.5" fill="#FEFFFF" transform="matrix(1.00, 0.00, -0.00, -1.00, 732.5, 633.0)">e</text><text xml:space="preserve" font-family="Avenir-Book" font-size="27.5" fill="#FEFFFF" transform="matrix(1.00, 0.00, -0.00, -1.00, 747.7, 633.0)">d</text><text xml:space="preserve" font-family="Avenir-Book" font-size="27.5" fill="#FEFFFF" transform="matrix(1.00, 0.00, -0.00, -1.00, 764.6, 633.0)"> </text><text xml:space="preserve" font-family="Avenir-Book" font-size="27.5" fill="#FEFFFF" transform="matrix(1.00, 0.00, -0.00, -1.00, 772.2, 633.0)">m</text><text xml:space="preserve" font-family="Avenir-Book" font-size="27.5" fill="#FEFFFF" transform="matrix(1.00, 0.00, -0.00, -1.00, 795.6, 633.0)">u</text><text xml:space="preserve" font-family="Avenir-Book" font-size="27.5" fill="#FEFFFF" transform="matrix(1.00, 0.00, -0.00, -1.00, 810.9, 633.0)">s</text><text xml:space="preserve" font-family="Avenir-Book" font-size="27.5" fill="#FEFFFF" transform="matrix(1.00, 0.00, -0.00, -1.00, 822.6, 633.0)">i</text><text xml:space="preserve" font-family="Avenir-Book" font-size="27.5" fill="#FEFFFF" transform="matrix(1.00, 0.00, -0.00, -1.00, 829.2, 633.0)">c</text><text xml:space="preserve" font-family="Avenir-Book" font-size="27.5" fill="#FEFFFF" transform="matrix(1.00, 0.00, -0.00, -1.00, 842.5, 633.0)"> </text><text xml:space="preserve" font-family="Avenir-Book" font-size="27.5" fill="#FEFFFF" transform="matrix(1.00, 0.00, -0.00, -1.00, 850.1, 633.0)">s</text><text xml:space="preserve" font-family="Avenir-Book" font-size="27.5" fill="#FEFFFF" transform="matrix(1.00, 0.00, -0.00, -1.00, 861.8, 633.0)">c</text><text xml:space="preserve" font-family="Avenir-Book" font-size="27.5" fill="#FEFFFF" transform="matrix(1.00, 0.00, -0.00, -1.00, 875.1, 633.0)">o</text><text xml:space="preserve" font-family="Avenir-Book" font-size="27.5" fill="#FEFFFF" transform="matrix(1.00, 0.00, -0.00, -1.00, 891.4, 633.0)">r</text><text xml:space="preserve" font-family="Avenir-Book" font-size="27.5" fill="#FEFFFF" transform="matrix(1.00, 0.00, -0.00, -1.00, 900.0, 633.0)">e</text><text xml:space="preserve" font-family="Avenir-Book" font-size="27.5" fill="#FEFFFF" transform="matrix(1.00, 0.00, -0.00, -1.00, 915.3, 633.0)">s</text><image xlink:href="../../B04F1C97-ECAB-4D96-BED1-068678BAA01E/assets/BEF333F0D2746660C5E29CAA3BCC24B1.png" width="236.00" height="101.00" transform="matrix(1.00, 0.00, -0.00, -1.00, -285.0, 1087.0)"></image><text xml:space="preserve" font-family="Avenir-Heavy" font-weight="bold" font-size="34.0" fill="#DCDDE0" transform="matrix(1.00, 0.00, -0.00, -1.00, 77.0, 574.0)">O</text><text xml:space="preserve" font-family="Avenir-Heavy" font-weight="bold" font-size="34.0" fill="#DCDDE0" transform="matrix(1.00, 0.00, -0.00, -1.00, 105.3, 574.0)">S</text><text xml:space="preserve" font-family="Avenir-Heavy" font-weight="bold" font-size="34.0" fill="#DCDDE0" transform="matrix(1.00, 0.00, -0.00, -1.00, 124.8, 574.0)">C</text><text xml:space="preserve" font-family="Avenir-Heavy" font-weight="bold" font-size="34.0" fill="#DCDDE0" transform="matrix(1.00, 0.00, -0.00, -1.00, 148.1, 574.0)"> </text><text xml:space="preserve" font-family="Avenir-Heavy" font-weight="bold" font-size="34.0" fill="#DCDDE0" transform="matrix(1.00, 0.00, -0.00, -1.00, 158.2, 574.0)">a</text><text xml:space="preserve" font-family="Avenir-Heavy" font-weight="bold" font-size="34.0" fill="#DCDDE0" transform="matrix(1.00, 0.00, -0.00, -1.00, 176.5, 574.0)">d</text><text xml:space="preserve" font-family="Avenir-Heavy" font-weight="bold" font-size="34.0" fill="#DCDDE0" transform="matrix(1.00, 0.00, -0.00, -1.00, 197.9, 574.0)">d</text><text xml:space="preserve" font-family="Avenir-Heavy" font-weight="bold" font-size="34.0" fill="#DCDDE0" transform="matrix(1.00, 0.00, -0.00, -1.00, 219.3, 574.0)">r</text><text xml:space="preserve" font-family="Avenir-Heavy" font-weight="bold" font-size="34.0" fill="#DCDDE0" transform="matrix(1.00, 0.00, -0.00, -1.00, 231.9, 574.0)">e</text><text xml:space="preserve" font-family="Avenir-Heavy" font-weight="bold" font-size="34.0" fill="#DCDDE0" transform="matrix(1.00, 0.00, -0.00, -1.00, 251.4, 574.0)">s</text><text xml:space="preserve" font-family="Avenir-Heavy" font-weight="bold" font-size="34.0" fill="#DCDDE0" transform="matrix(1.00, 0.00, -0.00, -1.00, 266.5, 574.0)">s</text><text xml:space="preserve" font-family="Avenir-Heavy" font-weight="bold" font-size="34.0" fill="#DCDDE0" transform="matrix(1.00, 0.00, -0.00, -1.00, 281.6, 574.0)"> </text><text xml:space="preserve" font-family="Avenir-Heavy" font-weight="bold" font-size="34.0" fill="#DCDDE0" transform="matrix(1.00, 0.00, -0.00, -1.00, 291.7, 574.0)">s</text><text xml:space="preserve" font-family="Avenir-Heavy" font-weight="bold" font-size="34.0" fill="#DCDDE0" transform="matrix(1.00, 0.00, -0.00, -1.00, 306.8, 574.0)">p</text><text xml:space="preserve" font-family="Avenir-Heavy" font-weight="bold" font-size="34.0" fill="#DCDDE0" transform="matrix(1.00, 0.00, -0.00, -1.00, 328.2, 574.0)">a</text><text xml:space="preserve" font-family="Avenir-Heavy" font-weight="bold" font-size="34.0" fill="#DCDDE0" transform="matrix(1.00, 0.00, -0.00, -1.00, 346.4, 574.0)">c</text><text xml:space="preserve" font-family="Avenir-Heavy" font-weight="bold" font-size="34.0" fill="#DCDDE0" transform="matrix(1.00, 0.00, -0.00, -1.00, 362.8, 574.0)">e</text><g><clipPath id="clip-53"><path d="M 50.9 428.5 L 971.9 428.5 L 971.9 490.5 L 50.9 490.5 Z M 50.9 428.5 "></path></clipPath><g clip-path="url(#clip-53)"><path d="M 51.9 489.5 L 970.9 489.5 L 970.9 429.5 L 51.9 429.5 Z M 51.9 489.5 " fill="#7995B9"></path></g></g><g><clipPath id="clip-54"><path d="M 786.1 435.8 L 960.1 435.8 L 960.1 488.2 L 786.1 488.2 Z M 786.1 435.8 "></path></clipPath><g clip-path="url(#clip-54)"><text xml:space="preserve" font-family="Palatino-Roman" font-size="28.0" fill="#FEFFFE" transform="matrix(1.00, 0.00, -0.00, -1.00, 800.0, 451.0)">A</text><text xml:space="preserve" font-family="Palatino-Roman" font-size="28.0" fill="#FEFFFE" transform="matrix(1.00, 0.00, -0.00, -1.00, 821.8, 451.0)">p</text><text xml:space="preserve" font-family="Palatino-Roman" font-size="28.0" fill="#FEFFFE" transform="matrix(1.00, 0.00, -0.00, -1.00, 838.6, 451.0)">p</text><text xml:space="preserve" font-family="Palatino-Roman" font-size="28.0" fill="#FEFFFE" transform="matrix(1.00, 0.00, -0.00, -1.00, 855.4, 451.0)">l</text><text xml:space="preserve" font-family="Palatino-Roman" font-size="28.0" fill="#FEFFFE" transform="matrix(1.00, 0.00, -0.00, -1.00, 863.6, 451.0)">i</text><text xml:space="preserve" font-family="Palatino-Roman" font-size="28.0" fill="#FEFFFE" transform="matrix(1.00, 0.00, -0.00, -1.00, 871.7, 451.0)">c</text><text xml:space="preserve" font-family="Palatino-Roman" font-size="28.0" fill="#FEFFFE" transform="matrix(1.00, 0.00, -0.00, -1.00, 884.2, 451.0)">a</text><text xml:space="preserve" font-family="Palatino-Roman" font-size="28.0" fill="#FEFFFE" transform="matrix(1.00, 0.00, -0.00, -1.00, 898.2, 451.0)">t</text><text xml:space="preserve" font-family="Palatino-Roman" font-size="28.0" fill="#FEFFFE" transform="matrix(1.00, 0.00, -0.00, -1.00, 907.3, 451.0)">i</text><text xml:space="preserve" font-family="Palatino-Roman" font-size="28.0" fill="#FEFFFE" transform="matrix(1.00, 0.00, -0.00, -1.00, 915.4, 451.0)">o</text><text xml:space="preserve" font-family="Palatino-Roman" font-size="28.0" fill="#FEFFFE" transform="matrix(1.00, 0.00, -0.00, -1.00, 930.7, 451.0)">n</text></g></g><g><clipPath id="clip-55"><path d="M 50.9 343.8 L 971.9 343.8 L 971.9 405.8 L 50.9 405.8 Z M 50.9 343.8 "></path></clipPath><g clip-path="url(#clip-55)"><path d="M 51.9 404.8 L 970.9 404.8 L 970.9 344.8 L 51.9 344.8 Z M 51.9 404.8 " fill="#7995B9" fill-opacity="0.90"></path></g></g><g><clipPath id="clip-56"><path d="M 786.1 349.6 L 884.7 349.6 L 884.7 402.0 L 786.1 402.0 Z M 786.1 349.6 "></path></clipPath><g clip-path="url(#clip-56)"><text xml:space="preserve" font-family="Palatino-Roman" font-size="28.0" fill="#FEFFFE" transform="matrix(1.00, 0.00, -0.00, -1.00, 794.0, 365.0)">S</text><text xml:space="preserve" font-family="Palatino-Roman" font-size="28.0" fill="#FEFFFE" transform="matrix(1.00, 0.00, -0.00, -1.00, 808.7, 365.0)">c</text><text xml:space="preserve" font-family="Palatino-Roman" font-size="28.0" fill="#FEFFFE" transform="matrix(1.00, 0.00, -0.00, -1.00, 821.1, 365.0)">e</text><text xml:space="preserve" font-family="Palatino-Roman" font-size="28.0" fill="#FEFFFE" transform="matrix(1.00, 0.00, -0.00, -1.00, 834.5, 365.0)">n</text><text xml:space="preserve" font-family="Palatino-Roman" font-size="28.0" fill="#FEFFFE" transform="matrix(1.00, 0.00, -0.00, -1.00, 850.8, 365.0)">e</text><text xml:space="preserve" font-family="Palatino-Roman" font-size="28.0" fill="#FEFFFE" transform="matrix(1.00, 0.00, -0.00, -1.00, 864.2, 365.0)">s</text></g></g><g><clipPath id="clip-57"><path d="M 273.0 500.0 L 728.0 500.0 L 728.0 582.0 L 273.0 582.0 Z M 273.0 500.0 "></path></clipPath><g clip-path="url(#clip-57)"><image xlink:href="../../D51D7656-423F-4084-A5B7-0BE4A0E5ADDE/assets/A3D205114B302A36EE1BC375BCE3C73D.png" width="118.00" height="54.00" transform="matrix(1.00, 0.00, -0.00, -1.00, 298.5, 564.7)"></image><image xlink:href="../../D51D7656-423F-4084-A5B7-0BE4A0E5ADDE/assets/A3D205114B302A36EE1BC375BCE3C73D.png" width="118.00" height="54.00" transform="matrix(1.00, 0.00, -0.00, -1.00, 436.6, 564.7)"></image><image xlink:href="../../D51D7656-423F-4084-A5B7-0BE4A0E5ADDE/assets/A3D205114B302A36EE1BC375BCE3C73D.png" width="118.00" height="54.00" transform="matrix(1.00, 0.00, -0.00, -1.00, 574.8, 564.7)"></image><path d="M 309.5 525.6 L 405.6 525.6 L 405.6 557.7 L 309.5 557.7 Z M 309.5 525.6 " fill="#FEFFFF"></path><path d="M 104.0 473.0 L 200.0 473.0 L 200.0 505.0 L 104.0 505.0 Z M 104.0 473.0 " fill="none" stroke="#000000" stroke-width="1.00" stroke-miterlimit="0.00" stroke-linecap="round" stroke-linejoin="round" transform="matrix(1.00, 0.00, 0.00, -1.00, 205.4, 1032.0)"></path><text xml:space="preserve" font-family="Helvetica" font-size="12.0" fill="#000000" transform="matrix(1.00, 0.00, -0.00, -1.00, 320.8, 538.5)">O</text><text xml:space="preserve" font-family="Helvetica" font-size="12.0" fill="#000000" transform="matrix(1.00, 0.00, -0.00, -1.00, 330.2, 538.5)">S</text><text xml:space="preserve" font-family="Helvetica" font-size="12.0" fill="#000000" transform="matrix(1.00, 0.00, -0.00, -1.00, 338.2, 538.5)">C</text><text xml:space="preserve" font-family="Helvetica" font-size="12.0" fill="#000000" transform="matrix(1.00, 0.00, -0.00, -1.00, 346.9, 538.5)"> </text><text xml:space="preserve" font-family="Helvetica" font-size="12.0" fill="#000000" transform="matrix(1.00, 0.00, -0.00, -1.00, 350.2, 538.5)">a</text><text xml:space="preserve" font-family="Helvetica" font-size="12.0" fill="#000000" transform="matrix(1.00, 0.00, -0.00, -1.00, 356.9, 538.5)">d</text><text xml:space="preserve" font-family="Helvetica" font-size="12.0" fill="#000000" transform="matrix(1.00, 0.00, -0.00, -1.00, 363.6, 538.5)">d</text><text xml:space="preserve" font-family="Helvetica" font-size="12.0" fill="#000000" transform="matrix(1.00, 0.00, -0.00, -1.00, 370.2, 538.5)">r</text><text xml:space="preserve" font-family="Helvetica" font-size="12.0" fill="#000000" transform="matrix(1.00, 0.00, -0.00, -1.00, 374.2, 538.5)">e</text><text xml:space="preserve" font-family="Helvetica" font-size="12.0" fill="#000000" transform="matrix(1.00, 0.00, -0.00, -1.00, 380.9, 538.5)">s</text><text xml:space="preserve" font-family="Helvetica" font-size="12.0" fill="#000000" transform="matrix(1.00, 0.00, -0.00, -1.00, 386.9, 538.5)">s</text><path d="M 447.7 525.6 L 543.7 525.6 L 543.7 557.7 L 447.7 557.7 Z M 447.7 525.6 " fill="#FEFFFF"></path><path d="M 242.0 473.0 L 338.0 473.0 L 338.0 505.0 L 242.0 505.0 Z M 242.0 473.0 " fill="none" stroke="#B3B3B3" stroke-width="1.00" stroke-miterlimit="0.00" stroke-linecap="round" stroke-linejoin="round" transform="matrix(1.00, 0.00, 0.00, -1.00, 205.4, 1032.0)"></path><text xml:space="preserve" font-family="Helvetica" font-size="12.0" fill="#B3B3B3" transform="matrix(1.00, 0.00, -0.00, -1.00, 454.3, 538.5)">m</text><text xml:space="preserve" font-family="Helvetica" font-size="12.0" fill="#B3B3B3" transform="matrix(1.00, 0.00, -0.00, -1.00, 464.3, 538.5)">e</text><text xml:space="preserve" font-family="Helvetica" font-size="12.0" fill="#B3B3B3" transform="matrix(1.00, 0.00, -0.00, -1.00, 471.0, 538.5)">s</text><text xml:space="preserve" font-family="Helvetica" font-size="12.0" fill="#B3B3B3" transform="matrix(1.00, 0.00, -0.00, -1.00, 477.0, 538.5)">s</text><text xml:space="preserve" font-family="Helvetica" font-size="12.0" fill="#B3B3B3" transform="matrix(1.00, 0.00, -0.00, -1.00, 483.0, 538.5)">a</text><text xml:space="preserve" font-family="Helvetica" font-size="12.0" fill="#B3B3B3" transform="matrix(1.00, 0.00, -0.00, -1.00, 489.7, 538.5)">g</text><text xml:space="preserve" font-family="Helvetica" font-size="12.0" fill="#B3B3B3" transform="matrix(1.00, 0.00, -0.00, -1.00, 496.3, 538.5)">e</text><text xml:space="preserve" font-family="Helvetica" font-size="12.0" fill="#B3B3B3" transform="matrix(1.00, 0.00, -0.00, -1.00, 503.0, 538.5)"> </text><text xml:space="preserve" font-family="Helvetica" font-size="12.0" fill="#B3B3B3" transform="matrix(1.00, 0.00, -0.00, -1.00, 506.4, 538.5)">s</text><text xml:space="preserve" font-family="Helvetica" font-size="12.0" fill="#B3B3B3" transform="matrix(1.00, 0.00, -0.00, -1.00, 512.4, 538.5)">t</text><text xml:space="preserve" font-family="Helvetica" font-size="12.0" fill="#B3B3B3" transform="matrix(1.00, 0.00, -0.00, -1.00, 515.7, 538.5)">r</text><text xml:space="preserve" font-family="Helvetica" font-size="12.0" fill="#B3B3B3" transform="matrix(1.00, 0.00, -0.00, -1.00, 519.7, 538.5)">i</text><text xml:space="preserve" font-family="Helvetica" font-size="12.0" fill="#B3B3B3" transform="matrix(1.00, 0.00, -0.00, -1.00, 522.4, 538.5)">n</text><text xml:space="preserve" font-family="Helvetica" font-size="12.0" fill="#B3B3B3" transform="matrix(1.00, 0.00, -0.00, -1.00, 529.0, 538.5)">g</text><path d="M 585.8 525.6 L 681.9 525.6 L 681.9 557.7 L 585.8 557.7 Z M 585.8 525.6 " fill="#FEFFFF"></path><path d="M 380.0 473.0 L 476.0 473.0 L 476.0 505.0 L 380.0 505.0 Z M 380.0 473.0 " fill="none" stroke="#B3B3B3" stroke-width="1.00" stroke-miterlimit="0.00" stroke-linecap="round" stroke-linejoin="round" transform="matrix(1.00, 0.00, 0.00, -1.00, 205.4, 1032.0)"></path><text xml:space="preserve" font-family="Helvetica" font-size="12.0" fill="#B3B3B3" transform="matrix(1.00, 0.00, -0.00, -1.00, 605.7, 538.5)">p</text><text xml:space="preserve" font-family="Helvetica" font-size="12.0" fill="#B3B3B3" transform="matrix(1.00, 0.00, -0.00, -1.00, 612.4, 538.5)">a</text><text xml:space="preserve" font-family="Helvetica" font-size="12.0" fill="#B3B3B3" transform="matrix(1.00, 0.00, -0.00, -1.00, 619.1, 538.5)">r</text><text xml:space="preserve" font-family="Helvetica" font-size="12.0" fill="#B3B3B3" transform="matrix(1.00, 0.00, -0.00, -1.00, 623.1, 538.5)">a</text><text xml:space="preserve" font-family="Helvetica" font-size="12.0" fill="#B3B3B3" transform="matrix(1.00, 0.00, -0.00, -1.00, 629.8, 538.5)">m</text><text xml:space="preserve" font-family="Helvetica" font-size="12.0" fill="#B3B3B3" transform="matrix(1.00, 0.00, -0.00, -1.00, 639.8, 538.5)">e</text><text xml:space="preserve" font-family="Helvetica" font-size="12.0" fill="#B3B3B3" transform="matrix(1.00, 0.00, -0.00, -1.00, 646.5, 538.5)">t</text><text xml:space="preserve" font-family="Helvetica" font-size="12.0" fill="#B3B3B3" transform="matrix(1.00, 0.00, -0.00, -1.00, 649.8, 538.5)">e</text><text xml:space="preserve" font-family="Helvetica" font-size="12.0" fill="#B3B3B3" transform="matrix(1.00, 0.00, -0.00, -1.00, 656.5, 538.5)">r</text><path d="M 200.0 489.0 L 207.0 489.0 L 235.0 489.0 L 242.0 489.0 " fill="none" stroke="#B3B3B3" stroke-width="1.00" stroke-miterlimit="0.00" transform="matrix(1.00, 0.00, 0.00, -1.00, 205.4, 1032.0)"></path><path d="M 338.0 489.0 L 345.0 489.0 L 373.0 489.0 L 380.0 489.0 " fill="none" stroke="#B3B3B3" stroke-width="1.00" stroke-miterlimit="0.00" transform="matrix(1.00, 0.00, 0.00, -1.00, 205.4, 1032.0)"></path><path d="M 476.0 489.0 L 483.0 489.0 L 518.0 489.0 L 518.0 488.0 " fill="none" stroke="#B3B3B3" stroke-width="1.00" stroke-miterlimit="0.00" transform="matrix(1.00, 0.00, 0.00, -1.00, 205.4, 1032.0)"></path><path d="M 73.0 490.0 L 73.0 489.0 L 97.0 489.0 L 104.0 489.0 " fill="none" stroke="#B3B3B3" stroke-width="1.00" stroke-miterlimit="0.00" transform="matrix(1.00, 0.00, 0.00, -1.00, 205.4, 1032.0)"></path><path d="M 338.0 489.0 C 347.0 491.0 358.0 488.8 365.0 495.0 C 372.0 501.2 361.5 521.0 380.0 526.0 C 398.5 531.0 457.3 530.3 476.0 525.0 C 494.7 519.7 487.0 500.0 492.0 494.0 C 494.6 490.9 497.0 490.1 499.4 489.9 " fill="none" stroke="#B3B3B3" stroke-width="1.00" stroke-miterlimit="0.00" stroke-linecap="round" stroke-linejoin="round" transform="matrix(1.00, 0.00, 0.00, -1.00, 205.4, 1032.0)"></path><path d="M 710.2 541.4 L 701.9 543.4 L 705.3 540.8 L 705.3 540.8 L 702.7 537.4 Z M 710.2 541.4 " fill="#B3B3B3"></path><path d="M 504.4 489.2 L 496.1 487.2 L 499.4 489.9 L 499.4 489.9 L 496.8 493.2 Z M 504.4 489.2 " fill="none" stroke="#B3B3B3" stroke-width="1.00" stroke-miterlimit="0.00" transform="matrix(1.00, 0.00, 0.00, -1.00, 205.4, 1032.0)"></path><path d="M 476.0 489.0 C 480.3 483.7 489.0 478.8 489.0 473.0 C 489.0 467.2 494.2 457.2 476.0 454.0 C 457.8 450.8 398.3 450.8 380.0 454.0 C 361.7 457.2 366.0 467.2 366.0 473.0 C 366.0 477.1 370.6 480.7 374.9 484.3 " fill="none" stroke="#B3B3B3" stroke-width="1.00" stroke-miterlimit="0.00" stroke-linecap="round" stroke-linejoin="round" transform="matrix(1.00, 0.00, 0.00, -1.00, 205.4, 1032.0)"></path><path d="M 584.4 542.9 L 580.5 550.6 L 580.7 546.3 L 580.7 546.3 L 576.5 546.2 Z M 584.4 542.9 " fill="#B3B3B3"></path><path d="M 378.6 487.7 L 374.8 480.1 L 374.9 484.3 L 374.9 484.3 L 370.7 484.5 Z M 378.6 487.7 " fill="none" stroke="#B3B3B3" stroke-width="1.00" stroke-miterlimit="0.00" transform="matrix(1.00, 0.00, 0.00, -1.00, 205.4, 1032.0)"></path></g></g><g><clipPath id="clip-58"><path d="M 52.1 174.3 L 973.1 174.3 L 973.1 236.3 L 52.1 236.3 Z M 52.1 174.3 "></path></clipPath><g clip-path="url(#clip-58)"><path d="M 53.1 235.3 L 972.1 235.3 L 972.1 175.3 L 53.1 175.3 Z M 53.1 235.3 " fill="#7995B9" fill-opacity="0.70"></path></g></g><g><clipPath id="clip-59"><path d="M 786.1 180.1 L 961.5 180.1 L 961.5 232.5 L 786.1 232.5 Z M 786.1 180.1 "></path></clipPath><g clip-path="url(#clip-59)"><text xml:space="preserve" font-family="Palatino-Roman" font-size="28.0" fill="#FEFFFE" transform="matrix(1.00, 0.00, -0.00, -1.00, 794.0, 196.0)">C</text><text xml:space="preserve" font-family="Palatino-Roman" font-size="28.0" fill="#FEFFFE" transform="matrix(1.00, 0.00, -0.00, -1.00, 813.9, 196.0)">o</text><text xml:space="preserve" font-family="Palatino-Roman" font-size="28.0" fill="#FEFFFE" transform="matrix(1.00, 0.00, -0.00, -1.00, 829.1, 196.0)">m</text><text xml:space="preserve" font-family="Palatino-Roman" font-size="28.0" fill="#FEFFFE" transform="matrix(1.00, 0.00, -0.00, -1.00, 853.8, 196.0)">p</text><text xml:space="preserve" font-family="Palatino-Roman" font-size="28.0" fill="#FEFFFE" transform="matrix(1.00, 0.00, -0.00, -1.00, 870.7, 196.0)">o</text><text xml:space="preserve" font-family="Palatino-Roman" font-size="28.0" fill="#FEFFFE" transform="matrix(1.00, 0.00, -0.00, -1.00, 886.0, 196.0)">n</text><text xml:space="preserve" font-family="Palatino-Roman" font-size="28.0" fill="#FEFFFE" transform="matrix(1.00, 0.00, -0.00, -1.00, 902.3, 196.0)">e</text><text xml:space="preserve" font-family="Palatino-Roman" font-size="28.0" fill="#FEFFFE" transform="matrix(1.00, 0.00, -0.00, -1.00, 915.7, 196.0)">n</text><text xml:space="preserve" font-family="Palatino-Roman" font-size="28.0" fill="#FEFFFE" transform="matrix(1.00, 0.00, -0.00, -1.00, 932.0, 196.0)">t</text><text xml:space="preserve" font-family="Palatino-Roman" font-size="28.0" fill="#FEFFFE" transform="matrix(1.00, 0.00, -0.00, -1.00, 941.1, 196.0)">s</text></g></g><g><clipPath id="clip-60"><path d="M 51.5 258.3 L 972.5 258.3 L 972.5 320.3 L 51.5 320.3 Z M 51.5 258.3 "></path></clipPath><g clip-path="url(#clip-60)"><path d="M 52.5 319.3 L 971.5 319.3 L 971.5 259.3 L 52.5 259.3 Z M 52.5 319.3 " fill="#7995B9" fill-opacity="0.80"></path></g></g><g><clipPath id="clip-61"><path d="M 786.1 264.1 L 961.5 264.1 L 961.5 316.5 L 786.1 316.5 Z M 786.1 264.1 "></path></clipPath><g clip-path="url(#clip-61)"><text xml:space="preserve" font-family="Palatino-Roman" font-size="28.0" fill="#FEFFFE" transform="matrix(1.00, 0.00, -0.00, -1.00, 794.0, 280.0)">C</text><text xml:space="preserve" font-family="Palatino-Roman" font-size="28.0" fill="#FEFFFE" transform="matrix(1.00, 0.00, -0.00, -1.00, 813.9, 280.0)">o</text><text xml:space="preserve" font-family="Palatino-Roman" font-size="28.0" fill="#FEFFFE" transform="matrix(1.00, 0.00, -0.00, -1.00, 829.1, 280.0)">m</text><text xml:space="preserve" font-family="Palatino-Roman" font-size="28.0" fill="#FEFFFE" transform="matrix(1.00, 0.00, -0.00, -1.00, 853.8, 280.0)">p</text><text xml:space="preserve" font-family="Palatino-Roman" font-size="28.0" fill="#FEFFFE" transform="matrix(1.00, 0.00, -0.00, -1.00, 870.7, 280.0)">o</text><text xml:space="preserve" font-family="Palatino-Roman" font-size="28.0" fill="#FEFFFE" transform="matrix(1.00, 0.00, -0.00, -1.00, 886.0, 280.0)">n</text><text xml:space="preserve" font-family="Palatino-Roman" font-size="28.0" fill="#FEFFFE" transform="matrix(1.00, 0.00, -0.00, -1.00, 902.3, 280.0)">e</text><text xml:space="preserve" font-family="Palatino-Roman" font-size="28.0" fill="#FEFFFE" transform="matrix(1.00, 0.00, -0.00, -1.00, 915.7, 280.0)">n</text><text xml:space="preserve" font-family="Palatino-Roman" font-size="28.0" fill="#FEFFFE" transform="matrix(1.00, 0.00, -0.00, -1.00, 932.0, 280.0)">t</text><text xml:space="preserve" font-family="Palatino-Roman" font-size="28.0" fill="#FEFFFE" transform="matrix(1.00, 0.00, -0.00, -1.00, 941.1, 280.0)">s</text></g></g><g><clipPath id="clip-62"><path d="M 52.8 90.0 L 972.5 90.0 L 972.5 152.0 L 52.8 152.0 Z M 52.8 90.0 "></path></clipPath><g clip-path="url(#clip-62)"><path d="M 53.8 151.0 L 971.5 151.0 L 971.5 91.0 L 53.8 91.0 Z M 53.8 151.0 " fill="#7995B9" fill-opacity="0.60"></path></g></g><g><clipPath id="clip-63"><path d="M 786.1 95.8 L 961.5 95.8 L 961.5 148.2 L 786.1 148.2 Z M 786.1 95.8 "></path></clipPath><g clip-path="url(#clip-63)"><text xml:space="preserve" font-family="Palatino-Roman" font-size="28.0" fill="#FEFFFE" transform="matrix(1.00, 0.00, -0.00, -1.00, 794.0, 111.0)">C</text><text xml:space="preserve" font-family="Palatino-Roman" font-size="28.0" fill="#FEFFFE" transform="matrix(1.00, 0.00, -0.00, -1.00, 813.9, 111.0)">o</text><text xml:space="preserve" font-family="Palatino-Roman" font-size="28.0" fill="#FEFFFE" transform="matrix(1.00, 0.00, -0.00, -1.00, 829.1, 111.0)">m</text><text xml:space="preserve" font-family="Palatino-Roman" font-size="28.0" fill="#FEFFFE" transform="matrix(1.00, 0.00, -0.00, -1.00, 853.8, 111.0)">p</text><text xml:space="preserve" font-family="Palatino-Roman" font-size="28.0" fill="#FEFFFE" transform="matrix(1.00, 0.00, -0.00, -1.00, 870.7, 111.0)">o</text><text xml:space="preserve" font-family="Palatino-Roman" font-size="28.0" fill="#FEFFFE" transform="matrix(1.00, 0.00, -0.00, -1.00, 886.0, 111.0)">n</text><text xml:space="preserve" font-family="Palatino-Roman" font-size="28.0" fill="#FEFFFE" transform="matrix(1.00, 0.00, -0.00, -1.00, 902.3, 111.0)">e</text><text xml:space="preserve" font-family="Palatino-Roman" font-size="28.0" fill="#FEFFFE" transform="matrix(1.00, 0.00, -0.00, -1.00, 915.7, 111.0)">n</text><text xml:space="preserve" font-family="Palatino-Roman" font-size="28.0" fill="#FEFFFE" transform="matrix(1.00, 0.00, -0.00, -1.00, 932.0, 111.0)">t</text><text xml:space="preserve" font-family="Palatino-Roman" font-size="28.0" fill="#FEFFFE" transform="matrix(1.00, 0.00, -0.00, -1.00, 941.1, 111.0)">s</text></g></g><image xlink:href="3E78CDC40B100CA8810909835E5DBF5B.png" width="60.00" height="55.00" transform="matrix(0.00, -1.00, -1.00, 0.00, 512.9, 436.4)" opacity="0.86"></image><g><clipPath id="clip-64"><path d="M 478.2 408.4 L 462.9 408.4 L 485.4 383.4 L 507.9 408.4 L 492.6 408.4 L 492.6 433.4 L 478.2 433.4 Z M 478.2 408.4 "></path></clipPath><g clip-path="url(#clip-64)"><path d="M 478.2 408.4 L 462.9 408.4 L 485.4 383.4 L 507.9 408.4 L 492.6 408.4 L 492.6 433.4 L 478.2 433.4 Z M 478.2 408.4 " fill="url(#gradSh1.2)"></path></g></g><image xlink:href="../../D51D7656-423F-4084-A5B7-0BE4A0E5ADDE/assets/3E78CDC40B100CA8810909835E5DBF5B.png" width="60.00" height="55.00" transform="matrix(0.00, -1.00, -1.00, 0.00, 512.9, 353.3)" opacity="0.86"></image><g><clipPath id="clip-65"><path d="M 478.2 325.3 L 462.9 325.3 L 485.4 300.3 L 507.9 325.3 L 492.6 325.3 L 492.6 350.3 L 478.2 350.3 Z M 478.2 325.3 "></path></clipPath><g clip-path="url(#clip-65)"><path d="M 478.2 325.3 L 462.9 325.3 L 485.4 300.3 L 507.9 325.3 L 492.6 325.3 L 492.6 350.3 L 478.2 350.3 Z M 478.2 325.3 " fill="url(#gradSh1.3)"></path></g></g><image xlink:href="../../D51D7656-423F-4084-A5B7-0BE4A0E5ADDE/assets/3E78CDC40B100CA8810909835E5DBF5B.png" width="60.00" height="55.00" transform="matrix(0.00, -1.00, -1.00, 0.00, 512.9, 270.8)" opacity="0.86"></image><g><clipPath id="clip-66"><path d="M 478.2 242.8 L 462.9 242.8 L 485.4 217.8 L 507.9 242.8 L 492.6 242.8 L 492.6 267.8 L 478.2 267.8 Z M 478.2 242.8 "></path></clipPath><g clip-path="url(#clip-66)"><path d="M 478.2 242.8 L 462.9 242.8 L 485.4 217.8 L 507.9 242.8 L 492.6 242.8 L 492.6 267.8 L 478.2 267.8 Z M 478.2 242.8 " fill="url(#gradSh1.4)"></path></g></g><image xlink:href="../../D51D7656-423F-4084-A5B7-0BE4A0E5ADDE/assets/3E78CDC40B100CA8810909835E5DBF5B.png" width="60.00" height="55.00" transform="matrix(0.00, -1.00, -1.00, 0.00, 512.9, 187.4)" opacity="0.86"></image><g><clipPath id="clip-67"><path d="M 478.2 159.4 L 462.9 159.4 L 485.4 134.4 L 507.9 159.4 L 492.6 159.4 L 492.6 184.4 L 478.2 184.4 Z M 478.2 159.4 "></path></clipPath><g clip-path="url(#clip-67)"><path d="M 478.2 159.4 L 462.9 159.4 L 485.4 134.4 L 507.9 159.4 L 492.6 159.4 L 492.6 184.4 L 478.2 184.4 Z M 478.2 159.4 " fill="url(#gradSh1.5)"></path></g></g><image xlink:href="../../D51D7656-423F-4084-A5B7-0BE4A0E5ADDE/assets/3E78CDC40B100CA8810909835E5DBF5B.png" width="60.00" height="55.00" transform="matrix(0.00, -1.00, -1.00, 0.00, 512.9, 104.3)" opacity="0.86"></image><g><clipPath id="clip-68"><path d="M 478.2 76.3 L 462.9 76.3 L 485.4 51.3 L 507.9 76.3 L 492.6 76.3 L 492.6 101.3 L 478.2 101.3 Z M 478.2 76.3 "></path></clipPath><g clip-path="url(#clip-68)"><path d="M 478.2 76.3 L 462.9 76.3 L 485.4 51.3 L 507.9 76.3 L 492.6 76.3 L 492.6 101.3 L 478.2 101.3 Z M 478.2 76.3 " fill="url(#gradSh1.6)"></path></g></g></g></svg>