<?xml version="1.0" encoding="UTF-8" standalone="no"?><svg xmlns="http://www.w3.org/2000/svg" xmlns:xlink="http://www.w3.org/1999/xlink" clip-rule="evenodd" stroke-miterlimit="4.00" viewBox="0 0 153 63"><desc>SVG generated by Keynote</desc><defs><linearGradient id="gradSh1.66" x1="0.0" y1="0.0" x2="100.0" y2="0.0" gradientUnits="userSpaceOnUse" gradientTransform="matrix(0.00, -0.62, -1.52, 0.00, 76.6, 62.4)"><stop offset="0.00000" stop-color="#885CB2"></stop><stop offset="0.00147" stop-color="#885BB2"></stop><stop offset="0.09971" stop-color="#7F55A7"></stop><stop offset="0.10630" stop-color="#7F54A7"></stop><stop offset="0.47801" stop-color="#603C7F"></stop><stop offset="0.48094" stop-color="#603B7F"></stop><stop offset="0.87903" stop-color="#3F2155"></stop><stop offset="0.88490" stop-color="#3F2055"></stop><stop offset="1.00000" stop-color="#361948"></stop></linearGradient></defs><g transform="matrix(1.00, 0.00, -0.00, -1.00, 0.0, 63.0)"><g><clipPath id="clip-319"><path d="M 1.6 13.2 L 1.6 49.6 C 1.6 56.1 6.9 61.4 13.4 61.4 L 139.9 61.4 C 146.4 61.4 151.6 56.1 151.6 49.6 L 151.6 13.2 C 151.6 6.7 146.4 1.4 139.9 1.4 L 13.4 1.4 C 6.9 1.4 1.6 6.7 1.6 13.2 Z M 1.6 13.2 "></path></clipPath><g clip-path="url(#clip-319)"><path d="M 1.6 13.2 L 1.6 49.6 C 1.6 56.1 6.9 61.4 13.4 61.4 L 139.9 61.4 C 146.4 61.4 151.6 56.1 151.6 49.6 L 151.6 13.2 C 151.6 6.7 146.4 1.4 139.9 1.4 L 13.4 1.4 C 6.9 1.4 1.6 6.7 1.6 13.2 Z M 1.6 13.2 " fill="url(#gradSh1.66)"></path></g></g><g><clipPath id="clip-320"><path d="M 1.1 1.4 L 152.1 1.4 L 152.1 61.4 L 1.1 61.4 Z M 1.1 1.4 "></path></clipPath><g clip-path="url(#clip-320)"><text xml:space="preserve" font-family="Helvetica" font-size="18.0" fill="#FEFFFE" transform="matrix(1.00, 0.00, -0.00, -1.00, 10.0, 25.0)">N</text><text xml:space="preserve" font-family="Helvetica" font-size="18.0" fill="#FEFFFE" transform="matrix(1.00, 0.00, -0.00, -1.00, 23.0, 25.0)">e</text><text xml:space="preserve" font-family="Helvetica" font-size="18.0" fill="#FEFFFE" transform="matrix(1.00, 0.00, -0.00, -1.00, 33.0, 25.0)">w</text><text xml:space="preserve" font-family="Helvetica" font-size="18.0" fill="#FEFFFE" transform="matrix(1.00, 0.00, -0.00, -1.00, 46.0, 25.0)"> </text><text xml:space="preserve" font-family="Helvetica" font-size="18.0" fill="#FEFFFE" transform="matrix(1.00, 0.00, -0.00, -1.00, 51.0, 25.0)">i</text><text xml:space="preserve" font-family="Helvetica" font-size="18.0" fill="#FEFFFE" transform="matrix(1.00, 0.00, -0.00, -1.00, 55.0, 25.0)">n</text><text xml:space="preserve" font-family="Helvetica" font-size="18.0" fill="#FEFFFE" transform="matrix(1.00, 0.00, -0.00, -1.00, 65.0, 25.0)">s</text><text xml:space="preserve" font-family="Helvetica" font-size="18.0" fill="#FEFFFE" transform="matrix(1.00, 0.00, -0.00, -1.00, 74.0, 25.0)">t</text><text xml:space="preserve" font-family="Helvetica" font-size="18.0" fill="#FEFFFE" transform="matrix(1.00, 0.00, -0.00, -1.00, 79.0, 25.0)">r</text><text xml:space="preserve" font-family="Helvetica" font-size="18.0" fill="#FEFFFE" transform="matrix(1.00, 0.00, -0.00, -1.00, 85.0, 25.0)">u</text><text xml:space="preserve" font-family="Helvetica" font-size="18.0" fill="#FEFFFE" transform="matrix(1.00, 0.00, -0.00, -1.00, 95.0, 25.0)">m</text><text xml:space="preserve" font-family="Helvetica" font-size="18.0" fill="#FEFFFE" transform="matrix(1.00, 0.00, -0.00, -1.00, 110.0, 25.0)">e</text><text xml:space="preserve" font-family="Helvetica" font-size="18.0" fill="#FEFFFE" transform="matrix(1.00, 0.00, -0.00, -1.00, 120.0, 25.0)">n</text><text xml:space="preserve" font-family="Helvetica" font-size="18.0" fill="#FEFFFE" transform="matrix(1.00, 0.00, -0.00, -1.00, 130.1, 25.0)">t</text><text xml:space="preserve" font-family="Helvetica" font-size="18.0" fill="#FEFFFE" transform="matrix(1.00, 0.00, -0.00, -1.00, 135.1, 25.0)">s</text></g></g></g></svg>