<?xml version="1.0" encoding="UTF-8" standalone="no"?><svg xmlns="http://www.w3.org/2000/svg" xmlns:xlink="http://www.w3.org/1999/xlink" clip-rule="evenodd" stroke-miterlimit="4.00" viewBox="0 0 152 63"><desc>SVG generated by Keynote</desc><defs><linearGradient id="gradSh1.69" x1="0.0" y1="0.0" x2="100.0" y2="0.0" gradientUnits="userSpaceOnUse" gradientTransform="matrix(0.00, -0.62, -1.52, 0.00, 76.0, 62.5)"><stop offset="0.00000" stop-color="#885CB2"></stop><stop offset="0.00147" stop-color="#885BB2"></stop><stop offset="0.09971" stop-color="#7F55A7"></stop><stop offset="0.10630" stop-color="#7F54A7"></stop><stop offset="0.47801" stop-color="#603C7F"></stop><stop offset="0.48094" stop-color="#603B7F"></stop><stop offset="0.87903" stop-color="#3F2155"></stop><stop offset="0.88490" stop-color="#3F2055"></stop><stop offset="1.00000" stop-color="#361948"></stop></linearGradient></defs><g transform="matrix(1.00, 0.00, -0.00, -1.00, 0.0, 63.0)"><g><clipPath id="clip-325"><path d="M 1.0 13.3 L 1.0 49.8 C 1.0 56.3 6.3 61.5 12.8 61.5 L 139.2 61.5 C 145.7 61.5 151.0 56.3 151.0 49.8 L 151.0 13.3 C 151.0 6.8 145.7 1.5 139.2 1.5 L 12.8 1.5 C 6.3 1.5 1.0 6.8 1.0 13.3 Z M 1.0 13.3 "></path></clipPath><g clip-path="url(#clip-325)"><path d="M 1.0 13.3 L 1.0 49.8 C 1.0 56.3 6.3 61.5 12.8 61.5 L 139.2 61.5 C 145.7 61.5 151.0 56.3 151.0 49.8 L 151.0 13.3 C 151.0 6.8 145.7 1.5 139.2 1.5 L 12.8 1.5 C 6.3 1.5 1.0 6.8 1.0 13.3 Z M 1.0 13.3 " fill="url(#gradSh1.69)"></path></g></g><g><clipPath id="clip-326"><path d="M 0.5 1.5 L 151.5 1.5 L 151.5 61.5 L 0.5 61.5 Z M 0.5 1.5 "></path></clipPath><g clip-path="url(#clip-326)"><text xml:space="preserve" font-family="Helvetica" font-size="18.0" fill="#FEFFFE" transform="matrix(1.00, 0.00, -0.00, -1.00, 50.0, 25.0)">S</text><text xml:space="preserve" font-family="Helvetica" font-size="18.0" fill="#FEFFFE" transform="matrix(1.00, 0.00, -0.00, -1.00, 62.0, 25.0)">p</text><text xml:space="preserve" font-family="Helvetica" font-size="18.0" fill="#FEFFFE" transform="matrix(1.00, 0.00, -0.00, -1.00, 72.0, 25.0)">a</text><text xml:space="preserve" font-family="Helvetica" font-size="18.0" fill="#FEFFFE" transform="matrix(1.00, 0.00, -0.00, -1.00, 82.0, 25.0)">c</text><text xml:space="preserve" font-family="Helvetica" font-size="18.0" fill="#FEFFFE" transform="matrix(1.00, 0.00, -0.00, -1.00, 91.0, 25.0)">e</text></g></g></g></svg>