<?xml version="1.0" encoding="UTF-8" standalone="no"?><svg xmlns="http://www.w3.org/2000/svg" xmlns:xlink="http://www.w3.org/1999/xlink" clip-rule="evenodd" stroke-miterlimit="4.00" viewBox="0 0 153 63"><desc>SVG generated by Keynote</desc><defs><linearGradient id="gradSh1.65" x1="0.0" y1="0.0" x2="100.0" y2="0.0" gradientUnits="userSpaceOnUse" gradientTransform="matrix(0.16, -0.87, -1.58, -0.30, 67.8, 74.9)"><stop offset="0.00000" stop-color="#51A7F9"></stop><stop offset="0.00513" stop-color="#51A6F9"></stop><stop offset="0.22214" stop-color="#3F85D8"></stop><stop offset="0.22434" stop-color="#3F85D7"></stop><stop offset="0.25806" stop-color="#3D7FD2"></stop><stop offset="0.25953" stop-color="#3C7FD2"></stop><stop offset="0.67375" stop-color="#1B3F93"></stop><stop offset="0.68035" stop-color="#1A3E92"></stop><stop offset="0.81525" stop-color="#0F2A7E"></stop><stop offset="0.81598" stop-color="#0F297E"></stop><stop offset="0.91422" stop-color="#071A6F"></stop><stop offset="0.91789" stop-color="#071A6E"></stop><stop offset="0.96334" stop-color="#031368"></stop><stop offset="0.96481" stop-color="#031367"></stop><stop offset="0.98460" stop-color="#020F64"></stop><stop offset="0.98827" stop-color="#010F64"></stop><stop offset="0.99120" stop-color="#010E63"></stop><stop offset="1.00000" stop-color="#010D62"></stop></linearGradient></defs><g transform="matrix(1.00, 0.00, -0.00, -1.00, 0.0, 63.0)"><g><clipPath id="clip-317"><path d="M 1.1 12.9 L 1.1 49.4 C 1.1 55.9 6.3 61.1 12.8 61.1 L 139.3 61.1 C 145.8 61.1 151.1 55.9 151.1 49.4 L 151.1 12.9 C 151.1 6.4 145.8 1.1 139.3 1.1 L 12.8 1.1 C 6.3 1.1 1.1 6.4 1.1 12.9 Z M 1.1 12.9 "></path></clipPath><g clip-path="url(#clip-317)"><path d="M 1.1 12.9 L 1.1 49.4 C 1.1 55.9 6.3 61.1 12.8 61.1 L 139.3 61.1 C 145.8 61.1 151.1 55.9 151.1 49.4 L 151.1 12.9 C 151.1 6.4 145.8 1.1 139.3 1.1 L 12.8 1.1 C 6.3 1.1 1.1 6.4 1.1 12.9 Z M 1.1 12.9 " fill="url(#gradSh1.65)"></path></g></g><g><clipPath id="clip-318"><path d="M 1.1 1.1 L 151.1 1.1 L 151.1 61.1 L 1.1 61.1 Z M 1.1 1.1 "></path></clipPath><g clip-path="url(#clip-318)"><text xml:space="preserve" font-family="Helvetica" font-size="15.0" fill="#FEFFFE" transform="matrix(1.00, 0.00, -0.00, -1.00, 31.0, 34.0)">P</text><text xml:space="preserve" font-family="Helvetica" font-size="15.0" fill="#FEFFFE" transform="matrix(1.00, 0.00, -0.00, -1.00, 41.0, 34.0)">r</text><text xml:space="preserve" font-family="Helvetica" font-size="15.0" fill="#FEFFFE" transform="matrix(1.00, 0.00, -0.00, -1.00, 46.0, 34.0)">o</text><text xml:space="preserve" font-family="Helvetica" font-size="15.0" fill="#FEFFFE" transform="matrix(1.00, 0.00, -0.00, -1.00, 54.3, 34.0)">g</text><text xml:space="preserve" font-family="Helvetica" font-size="15.0" fill="#FEFFFE" transform="matrix(1.00, 0.00, -0.00, -1.00, 62.7, 34.0)">r</text><text xml:space="preserve" font-family="Helvetica" font-size="15.0" fill="#FEFFFE" transform="matrix(1.00, 0.00, -0.00, -1.00, 67.7, 34.0)">a</text><text xml:space="preserve" font-family="Helvetica" font-size="15.0" fill="#FEFFFE" transform="matrix(1.00, 0.00, -0.00, -1.00, 76.0, 34.0)">m</text><text xml:space="preserve" font-family="Helvetica" font-size="15.0" fill="#FEFFFE" transform="matrix(1.00, 0.00, -0.00, -1.00, 88.5, 34.0)">m</text><text xml:space="preserve" font-family="Helvetica" font-size="15.0" fill="#FEFFFE" transform="matrix(1.00, 0.00, -0.00, -1.00, 101.0, 34.0)">i</text><text xml:space="preserve" font-family="Helvetica" font-size="15.0" fill="#FEFFFE" transform="matrix(1.00, 0.00, -0.00, -1.00, 104.4, 34.0)">n</text><text xml:space="preserve" font-family="Helvetica" font-size="15.0" fill="#FEFFFE" transform="matrix(1.00, 0.00, -0.00, -1.00, 112.7, 34.0)">g</text><text xml:space="preserve" font-family="Helvetica" font-size="15.0" fill="#FEFFFE" transform="matrix(1.00, 0.00, -0.00, -1.00, 9.0, 16.0)">V</text><text xml:space="preserve" font-family="Helvetica" font-size="15.0" fill="#FEFFFE" transform="matrix(1.00, 0.00, -0.00, -1.00, 18.7, 16.0)">i</text><text xml:space="preserve" font-family="Helvetica" font-size="15.0" fill="#FEFFFE" transform="matrix(1.00, 0.00, -0.00, -1.00, 22.1, 16.0)">s</text><text xml:space="preserve" font-family="Helvetica" font-size="15.0" fill="#FEFFFE" transform="matrix(1.00, 0.00, -0.00, -1.00, 29.6, 16.0)">u</text><text xml:space="preserve" font-family="Helvetica" font-size="15.0" fill="#FEFFFE" transform="matrix(1.00, 0.00, -0.00, -1.00, 37.9, 16.0)">a</text><text xml:space="preserve" font-family="Helvetica" font-size="15.0" fill="#FEFFFE" transform="matrix(1.00, 0.00, -0.00, -1.00, 46.3, 16.0)">l</text><text xml:space="preserve" font-family="Helvetica" font-size="15.0" fill="#FEFFFE" transform="matrix(1.00, 0.00, -0.00, -1.00, 49.6, 16.0)"> </text><text xml:space="preserve" font-family="Helvetica" font-size="15.0" fill="#FEFFFE" transform="matrix(1.00, 0.00, -0.00, -1.00, 53.8, 16.0)">P</text><text xml:space="preserve" font-family="Helvetica" font-size="15.0" fill="#FEFFFE" transform="matrix(1.00, 0.00, -0.00, -1.00, 63.8, 16.0)">r</text><text xml:space="preserve" font-family="Helvetica" font-size="15.0" fill="#FEFFFE" transform="matrix(1.00, 0.00, -0.00, -1.00, 68.8, 16.0)">o</text><text xml:space="preserve" font-family="Helvetica" font-size="15.0" fill="#FEFFFE" transform="matrix(1.00, 0.00, -0.00, -1.00, 77.1, 16.0)">g</text><text xml:space="preserve" font-family="Helvetica" font-size="15.0" fill="#FEFFFE" transform="matrix(1.00, 0.00, -0.00, -1.00, 85.5, 16.0)">r</text><text xml:space="preserve" font-family="Helvetica" font-size="15.0" fill="#FEFFFE" transform="matrix(1.00, 0.00, -0.00, -1.00, 90.5, 16.0)">a</text><text xml:space="preserve" font-family="Helvetica" font-size="15.0" fill="#FEFFFE" transform="matrix(1.00, 0.00, -0.00, -1.00, 98.8, 16.0)">m</text><text xml:space="preserve" font-family="Helvetica" font-size="15.0" fill="#FEFFFE" transform="matrix(1.00, 0.00, -0.00, -1.00, 111.3, 16.0)">m</text><text xml:space="preserve" font-family="Helvetica" font-size="15.0" fill="#FEFFFE" transform="matrix(1.00, 0.00, -0.00, -1.00, 123.8, 16.0)">i</text><text xml:space="preserve" font-family="Helvetica" font-size="15.0" fill="#FEFFFE" transform="matrix(1.00, 0.00, -0.00, -1.00, 127.1, 16.0)">n</text><text xml:space="preserve" font-family="Helvetica" font-size="15.0" fill="#FEFFFE" transform="matrix(1.00, 0.00, -0.00, -1.00, 135.5, 16.0)">g</text></g></g></g></svg>