<?xml version="1.0" encoding="UTF-8" standalone="no"?><svg xmlns="http://www.w3.org/2000/svg" xmlns:xlink="http://www.w3.org/1999/xlink" clip-rule="evenodd" stroke-miterlimit="4.00" viewBox="0 0 273 178"><desc>SVG generated by Keynote</desc><defs></defs><g transform="matrix(1.00, 0.00, -0.00, -1.00, 0.0, 178.0)"><text xml:space="preserve" font-family="Helvetica-Light" font-size="36.0" fill="#FF2600" transform="matrix(1.00, 0.00, -0.00, -1.00, 0.9, 149.7)">•</text><text xml:space="preserve" font-family="Helvetica-Light" font-size="30.0" fill="#FEFFFF" transform="matrix(1.00, 0.00, -0.00, -1.00, 41.0, 152.0)">C</text><text xml:space="preserve" font-family="Helvetica-Light" font-size="30.0" fill="#FEFFFF" transform="matrix(1.00, 0.00, -0.00, -1.00, 62.7, 152.0)">/</text><text xml:space="preserve" font-family="Helvetica-Light" font-size="30.0" fill="#FEFFFF" transform="matrix(1.00, 0.00, -0.00, -1.00, 71.0, 152.0)">C</text><text xml:space="preserve" font-family="Helvetica-Light" font-size="30.0" fill="#FEFFFF" transform="matrix(1.00, 0.00, -0.00, -1.00, 92.7, 152.0)">+</text><text xml:space="preserve" font-family="Helvetica-Light" font-size="30.0" fill="#FEFFFF" transform="matrix(1.00, 0.00, -0.00, -1.00, 112.5, 152.0)">+</text><text xml:space="preserve" font-family="Helvetica-Light" font-size="30.0" fill="#FEFFFF" transform="matrix(1.00, 0.00, -0.00, -1.00, 132.3, 152.0)"> </text><text xml:space="preserve" font-family="Helvetica-Light" font-size="30.0" fill="#FEFFFF" transform="matrix(1.00, 0.00, -0.00, -1.00, 140.6, 152.0)">l</text><text xml:space="preserve" font-family="Helvetica-Light" font-size="30.0" fill="#FEFFFF" transform="matrix(1.00, 0.00, -0.00, -1.00, 147.3, 152.0)">i</text><text xml:space="preserve" font-family="Helvetica-Light" font-size="30.0" fill="#FEFFFF" transform="matrix(1.00, 0.00, -0.00, -1.00, 153.9, 152.0)">b</text><text xml:space="preserve" font-family="Helvetica-Light" font-size="30.0" fill="#FEFFFF" transform="matrix(1.00, 0.00, -0.00, -1.00, 172.2, 152.0)">r</text><text xml:space="preserve" font-family="Helvetica-Light" font-size="30.0" fill="#FEFFFF" transform="matrix(1.00, 0.00, -0.00, -1.00, 182.2, 152.0)">a</text><text xml:space="preserve" font-family="Helvetica-Light" font-size="30.0" fill="#FEFFFF" transform="matrix(1.00, 0.00, -0.00, -1.00, 198.9, 152.0)">r</text><text xml:space="preserve" font-family="Helvetica-Light" font-size="30.0" fill="#FEFFFF" transform="matrix(1.00, 0.00, -0.00, -1.00, 209.5, 152.0)">y</text><text xml:space="preserve" font-family="Helvetica-Light" font-size="30.0" fill="#FEFFFF" transform="matrix(1.00, 0.00, -0.00, -1.00, 224.5, 152.0)"> </text><text xml:space="preserve" font-family="Helvetica-Light" font-size="36.0" fill="#FF2600" transform="matrix(1.00, 0.00, -0.00, -1.00, 0.9, 102.7)">•</text><text xml:space="preserve" font-family="Helvetica-Light" font-size="30.0" fill="#FEFFFF" transform="matrix(1.00, 0.00, -0.00, -1.00, 41.0, 105.0)">J</text><text xml:space="preserve" font-family="Helvetica-Light" font-size="30.0" fill="#FEFFFF" transform="matrix(1.00, 0.00, -0.00, -1.00, 56.0, 105.0)">a</text><text xml:space="preserve" font-family="Helvetica-Light" font-size="30.0" fill="#FEFFFF" transform="matrix(1.00, 0.00, -0.00, -1.00, 72.7, 105.0)">v</text><text xml:space="preserve" font-family="Helvetica-Light" font-size="30.0" fill="#FEFFFF" transform="matrix(1.00, 0.00, -0.00, -1.00, 87.7, 105.0)">a</text><text xml:space="preserve" font-family="Helvetica-Light" font-size="30.0" fill="#FEFFFF" transform="matrix(1.00, 0.00, -0.00, -1.00, 104.4, 105.0)"> </text><text xml:space="preserve" font-family="Helvetica-Light" font-size="30.0" fill="#FEFFFF" transform="matrix(1.00, 0.00, -0.00, -1.00, 112.7, 105.0)">J</text><text xml:space="preserve" font-family="Helvetica-Light" font-size="30.0" fill="#FEFFFF" transform="matrix(1.00, 0.00, -0.00, -1.00, 127.7, 105.0)">N</text><text xml:space="preserve" font-family="Helvetica-Light" font-size="30.0" fill="#FEFFFF" transform="matrix(1.00, 0.00, -0.00, -1.00, 149.4, 105.0)">I</text><text xml:space="preserve" font-family="Helvetica-Light" font-size="30.0" fill="#FEFFFF" transform="matrix(1.00, 0.00, -0.00, -1.00, 157.7, 105.0)"> </text><text xml:space="preserve" font-family="Helvetica-Light" font-size="36.0" fill="#FF2600" transform="matrix(1.00, 0.00, -0.00, -1.00, 0.9, 55.7)">•</text><text xml:space="preserve" font-family="Helvetica-Light" font-size="30.0" fill="#FEFFFF" transform="matrix(1.00, 0.00, -0.00, -1.00, 41.0, 58.0)">J</text><text xml:space="preserve" font-family="Helvetica-Light" font-size="30.0" fill="#FEFFFF" transform="matrix(1.00, 0.00, -0.00, -1.00, 56.0, 58.0)">a</text><text xml:space="preserve" font-family="Helvetica-Light" font-size="30.0" fill="#FEFFFF" transform="matrix(1.00, 0.00, -0.00, -1.00, 72.7, 58.0)">v</text><text xml:space="preserve" font-family="Helvetica-Light" font-size="30.0" fill="#FEFFFF" transform="matrix(1.00, 0.00, -0.00, -1.00, 87.7, 58.0)">a</text><text xml:space="preserve" font-family="Helvetica-Light" font-size="30.0" fill="#FEFFFF" transform="matrix(1.00, 0.00, -0.00, -1.00, 104.4, 58.0)">s</text><text xml:space="preserve" font-family="Helvetica-Light" font-size="30.0" fill="#FEFFFF" transform="matrix(1.00, 0.00, -0.00, -1.00, 119.4, 58.0)">c</text><text xml:space="preserve" font-family="Helvetica-Light" font-size="30.0" fill="#FEFFFF" transform="matrix(1.00, 0.00, -0.00, -1.00, 136.0, 58.0)">r</text><text xml:space="preserve" font-family="Helvetica-Light" font-size="30.0" fill="#FEFFFF" transform="matrix(1.00, 0.00, -0.00, -1.00, 146.0, 58.0)">i</text><text xml:space="preserve" font-family="Helvetica-Light" font-size="30.0" fill="#FEFFFF" transform="matrix(1.00, 0.00, -0.00, -1.00, 152.7, 58.0)">p</text><text xml:space="preserve" font-family="Helvetica-Light" font-size="30.0" fill="#FEFFFF" transform="matrix(1.00, 0.00, -0.00, -1.00, 171.0, 58.0)">t</text><text xml:space="preserve" font-family="Helvetica-Light" font-size="30.0" fill="#FEFFFF" transform="matrix(1.00, 0.00, -0.00, -1.00, 179.4, 58.0)"> </text><text xml:space="preserve" font-family="Helvetica-Light" font-size="30.0" fill="#FEFFFF" transform="matrix(1.00, 0.00, -0.00, -1.00, 187.7, 58.0)">l</text><text xml:space="preserve" font-family="Helvetica-Light" font-size="30.0" fill="#FEFFFF" transform="matrix(1.00, 0.00, -0.00, -1.00, 194.4, 58.0)">i</text><text xml:space="preserve" font-family="Helvetica-Light" font-size="30.0" fill="#FEFFFF" transform="matrix(1.00, 0.00, -0.00, -1.00, 201.0, 58.0)">b</text><text xml:space="preserve" font-family="Helvetica-Light" font-size="30.0" fill="#FEFFFF" transform="matrix(1.00, 0.00, -0.00, -1.00, 219.3, 58.0)">r</text><text xml:space="preserve" font-family="Helvetica-Light" font-size="30.0" fill="#FEFFFF" transform="matrix(1.00, 0.00, -0.00, -1.00, 229.3, 58.0)">a</text><text xml:space="preserve" font-family="Helvetica-Light" font-size="30.0" fill="#FEFFFF" transform="matrix(1.00, 0.00, -0.00, -1.00, 246.0, 58.0)">r</text><text xml:space="preserve" font-family="Helvetica-Light" font-size="30.0" fill="#FEFFFF" transform="matrix(1.00, 0.00, -0.00, -1.00, 256.5, 58.0)">y</text><text xml:space="preserve" font-family="Helvetica-Light" font-size="30.0" fill="#FEFFFF" transform="matrix(1.00, 0.00, -0.00, -1.00, 271.5, 58.0)"> </text><text xml:space="preserve" font-family="Helvetica-Light" font-size="36.0" fill="#FF2600" transform="matrix(1.00, 0.00, -0.00, -1.00, 0.9, 8.7)">•</text><text xml:space="preserve" font-family="Helvetica-Light" font-size="30.0" fill="#FEFFFF" transform="matrix(1.00, 0.00, -0.00, -1.00, 41.0, 11.0)">R</text><text xml:space="preserve" font-family="Helvetica-Light" font-size="30.0" fill="#FEFFFF" transform="matrix(1.00, 0.00, -0.00, -1.00, 61.0, 11.0)">e</text><text xml:space="preserve" font-family="Helvetica-Light" font-size="30.0" fill="#FEFFFF" transform="matrix(1.00, 0.00, -0.00, -1.00, 77.7, 11.0)">s</text><text xml:space="preserve" font-family="Helvetica-Light" font-size="30.0" fill="#FEFFFF" transform="matrix(1.00, 0.00, -0.00, -1.00, 92.7, 11.0)">t</text><text xml:space="preserve" font-family="Helvetica-Light" font-size="30.0" fill="#FEFFFF" transform="matrix(1.00, 0.00, -0.00, -1.00, 101.0, 11.0)">f</text><text xml:space="preserve" font-family="Helvetica-Light" font-size="30.0" fill="#FEFFFF" transform="matrix(1.00, 0.00, -0.00, -1.00, 109.4, 11.0)">u</text><text xml:space="preserve" font-family="Helvetica-Light" font-size="30.0" fill="#FEFFFF" transform="matrix(1.00, 0.00, -0.00, -1.00, 126.1, 11.0)">l</text><text xml:space="preserve" font-family="Helvetica-Light" font-size="30.0" fill="#FEFFFF" transform="matrix(1.00, 0.00, -0.00, -1.00, 132.7, 11.0)"> </text><text xml:space="preserve" font-family="Helvetica-Light" font-size="30.0" fill="#FEFFFF" transform="matrix(1.00, 0.00, -0.00, -1.00, 141.1, 11.0)">H</text><text xml:space="preserve" font-family="Helvetica-Light" font-size="30.0" fill="#FEFFFF" transform="matrix(1.00, 0.00, -0.00, -1.00, 162.7, 11.0)">T</text><text xml:space="preserve" font-family="Helvetica-Light" font-size="30.0" fill="#FEFFFF" transform="matrix(1.00, 0.00, -0.00, -1.00, 179.4, 11.0)">T</text><text xml:space="preserve" font-family="Helvetica-Light" font-size="30.0" fill="#FEFFFF" transform="matrix(1.00, 0.00, -0.00, -1.00, 196.1, 11.0)">P</text><text xml:space="preserve" font-family="Helvetica-Light" font-size="30.0" fill="#FEFFFF" transform="matrix(1.00, 0.00, -0.00, -1.00, 214.4, 11.0)"> </text><text xml:space="preserve" font-family="Helvetica-Light" font-size="30.0" fill="#FEFFFF" transform="matrix(1.00, 0.00, -0.00, -1.00, 222.7, 11.0)">A</text><text xml:space="preserve" font-family="Helvetica-Light" font-size="30.0" fill="#FEFFFF" transform="matrix(1.00, 0.00, -0.00, -1.00, 242.8, 11.0)">P</text><text xml:space="preserve" font-family="Helvetica-Light" font-size="30.0" fill="#FEFFFF" transform="matrix(1.00, 0.00, -0.00, -1.00, 261.1, 11.0)">I</text></g></svg>