<?xml version="1.0" encoding="UTF-8" standalone="no"?><svg xmlns="http://www.w3.org/2000/svg" xmlns:xlink="http://www.w3.org/1999/xlink" clip-rule="evenodd" stroke-miterlimit="4.00" viewBox="0 0 847 33"><desc>SVG generated by Keynote</desc><defs></defs><g transform="matrix(1.00, 0.00, -0.00, -1.00, 0.0, 33.0)"><text xml:space="preserve" font-family="Avenir-Book" font-size="28.0" fill="#FEFFFF" transform="matrix(1.00, 0.00, -0.00, -1.00, 0.0, 10.0)">S</text><text xml:space="preserve" font-family="Avenir-Book" font-size="28.0" fill="#FEFFFF" transform="matrix(1.00, 0.00, -0.00, -1.00, 15.6, 10.0)">o</text><text xml:space="preserve" font-family="Avenir-Book" font-size="28.0" fill="#FEFFFF" transform="matrix(1.00, 0.00, -0.00, -1.00, 32.2, 10.0)">f</text><text xml:space="preserve" font-family="Avenir-Book" font-size="28.0" fill="#FEFFFF" transform="matrix(1.00, 0.00, -0.00, -1.00, 40.5, 10.0)">t</text><text xml:space="preserve" font-family="Avenir-Book" font-size="28.0" fill="#FEFFFF" transform="matrix(1.00, 0.00, -0.00, -1.00, 49.8, 10.0)">w</text><text xml:space="preserve" font-family="Avenir-Book" font-size="28.0" fill="#FEFFFF" transform="matrix(1.00, 0.00, -0.00, -1.00, 70.0, 10.0)">a</text><text xml:space="preserve" font-family="Avenir-Book" font-size="28.0" fill="#FEFFFF" transform="matrix(1.00, 0.00, -0.00, -1.00, 84.5, 10.0)">r</text><text xml:space="preserve" font-family="Avenir-Book" font-size="28.0" fill="#FEFFFF" transform="matrix(1.00, 0.00, -0.00, -1.00, 93.3, 10.0)">e</text><text xml:space="preserve" font-family="Avenir-Book" font-size="28.0" fill="#FEFFFF" transform="matrix(1.00, 0.00, -0.00, -1.00, 108.9, 10.0)"> </text><text xml:space="preserve" font-family="Avenir-Book" font-size="28.0" fill="#FEFFFF" transform="matrix(1.00, 0.00, -0.00, -1.00, 116.6, 10.0)">c</text><text xml:space="preserve" font-family="Avenir-Book" font-size="28.0" fill="#FEFFFF" transform="matrix(1.00, 0.00, -0.00, -1.00, 130.1, 10.0)">o</text><text xml:space="preserve" font-family="Avenir-Book" font-size="28.0" fill="#FEFFFF" transform="matrix(1.00, 0.00, -0.00, -1.00, 146.7, 10.0)">m</text><text xml:space="preserve" font-family="Avenir-Book" font-size="28.0" fill="#FEFFFF" transform="matrix(1.00, 0.00, -0.00, -1.00, 170.6, 10.0)">p</text><text xml:space="preserve" font-family="Avenir-Book" font-size="28.0" fill="#FEFFFF" transform="matrix(1.00, 0.00, -0.00, -1.00, 187.7, 10.0)">o</text><text xml:space="preserve" font-family="Avenir-Book" font-size="28.0" fill="#FEFFFF" transform="matrix(1.00, 0.00, -0.00, -1.00, 204.3, 10.0)">n</text><text xml:space="preserve" font-family="Avenir-Book" font-size="28.0" fill="#FEFFFF" transform="matrix(1.00, 0.00, -0.00, -1.00, 219.9, 10.0)">e</text><text xml:space="preserve" font-family="Avenir-Book" font-size="28.0" fill="#FEFFFF" transform="matrix(1.00, 0.00, -0.00, -1.00, 235.5, 10.0)">n</text><text xml:space="preserve" font-family="Avenir-Book" font-size="28.0" fill="#FEFFFF" transform="matrix(1.00, 0.00, -0.00, -1.00, 251.0, 10.0)">t</text><text xml:space="preserve" font-family="Avenir-Book" font-size="28.0" fill="#FEFFFF" transform="matrix(1.00, 0.00, -0.00, -1.00, 260.3, 10.0)">s</text><text xml:space="preserve" font-family="Avenir-Book" font-size="28.0" fill="#FEFFFF" transform="matrix(1.00, 0.00, -0.00, -1.00, 272.2, 10.0)"> </text><text xml:space="preserve" font-family="Avenir-Book" font-size="28.0" fill="#FEFFFF" transform="matrix(1.00, 0.00, -0.00, -1.00, 280.0, 10.0)">f</text><text xml:space="preserve" font-family="Avenir-Book" font-size="28.0" fill="#FEFFFF" transform="matrix(1.00, 0.00, -0.00, -1.00, 288.3, 10.0)">o</text><text xml:space="preserve" font-family="Avenir-Book" font-size="28.0" fill="#FEFFFF" transform="matrix(1.00, 0.00, -0.00, -1.00, 304.9, 10.0)">r</text><text xml:space="preserve" font-family="Avenir-Book" font-size="28.0" fill="#FEFFFF" transform="matrix(1.00, 0.00, -0.00, -1.00, 314.2, 10.0)"> </text><text xml:space="preserve" font-family="Avenir-Book" font-size="28.0" fill="#FEFFFF" transform="matrix(1.00, 0.00, -0.00, -1.00, 322.0, 10.0)">a</text><text xml:space="preserve" font-family="Avenir-Book" font-size="28.0" fill="#FEFFFF" transform="matrix(1.00, 0.00, -0.00, -1.00, 336.5, 10.0)">u</text><text xml:space="preserve" font-family="Avenir-Book" font-size="28.0" fill="#FEFFFF" transform="matrix(1.00, 0.00, -0.00, -1.00, 352.1, 10.0)">t</text><text xml:space="preserve" font-family="Avenir-Book" font-size="28.0" fill="#FEFFFF" transform="matrix(1.00, 0.00, -0.00, -1.00, 361.4, 10.0)">o</text><text xml:space="preserve" font-family="Avenir-Book" font-size="28.0" fill="#FEFFFF" transform="matrix(1.00, 0.00, -0.00, -1.00, 378.0, 10.0)">m</text><text xml:space="preserve" font-family="Avenir-Book" font-size="28.0" fill="#FEFFFF" transform="matrix(1.00, 0.00, -0.00, -1.00, 401.9, 10.0)">a</text><text xml:space="preserve" font-family="Avenir-Book" font-size="28.0" fill="#FEFFFF" transform="matrix(1.00, 0.00, -0.00, -1.00, 416.4, 10.0)">t</text><text xml:space="preserve" font-family="Avenir-Book" font-size="28.0" fill="#FEFFFF" transform="matrix(1.00, 0.00, -0.00, -1.00, 425.7, 10.0)">i</text><text xml:space="preserve" font-family="Avenir-Book" font-size="28.0" fill="#FEFFFF" transform="matrix(1.00, 0.00, -0.00, -1.00, 432.4, 10.0)">c</text><text xml:space="preserve" font-family="Avenir-Book" font-size="28.0" fill="#FEFFFF" transform="matrix(1.00, 0.00, -0.00, -1.00, 445.9, 10.0)"> </text><text xml:space="preserve" font-family="Avenir-Book" font-size="28.0" fill="#FEFFFF" transform="matrix(1.00, 0.00, -0.00, -1.00, 453.7, 10.0)">s</text><text xml:space="preserve" font-family="Avenir-Book" font-size="28.0" fill="#FEFFFF" transform="matrix(1.00, 0.00, -0.00, -1.00, 465.6, 10.0)">y</text><text xml:space="preserve" font-family="Avenir-Book" font-size="28.0" fill="#FEFFFF" transform="matrix(1.00, 0.00, -0.00, -1.00, 479.1, 10.0)">m</text><text xml:space="preserve" font-family="Avenir-Book" font-size="28.0" fill="#FEFFFF" transform="matrix(1.00, 0.00, -0.00, -1.00, 503.0, 10.0)">b</text><text xml:space="preserve" font-family="Avenir-Book" font-size="28.0" fill="#FEFFFF" transform="matrix(1.00, 0.00, -0.00, -1.00, 520.1, 10.0)">o</text><text xml:space="preserve" font-family="Avenir-Book" font-size="28.0" fill="#FEFFFF" transform="matrix(1.00, 0.00, -0.00, -1.00, 536.7, 10.0)">l</text><text xml:space="preserve" font-family="Avenir-Book" font-size="28.0" fill="#FEFFFF" transform="matrix(1.00, 0.00, -0.00, -1.00, 543.4, 10.0)">i</text><text xml:space="preserve" font-family="Avenir-Book" font-size="28.0" fill="#FEFFFF" transform="matrix(1.00, 0.00, -0.00, -1.00, 550.1, 10.0)">c</text><text xml:space="preserve" font-family="Avenir-Book" font-size="28.0" fill="#FEFFFF" transform="matrix(1.00, 0.00, -0.00, -1.00, 563.6, 10.0)"> </text><text xml:space="preserve" font-family="Avenir-Book" font-size="28.0" fill="#FEFFFF" transform="matrix(1.00, 0.00, -0.00, -1.00, 571.4, 10.0)">m</text><text xml:space="preserve" font-family="Avenir-Book" font-size="28.0" fill="#FEFFFF" transform="matrix(1.00, 0.00, -0.00, -1.00, 595.3, 10.0)">u</text><text xml:space="preserve" font-family="Avenir-Book" font-size="28.0" fill="#FEFFFF" transform="matrix(1.00, 0.00, -0.00, -1.00, 610.8, 10.0)">s</text><text xml:space="preserve" font-family="Avenir-Book" font-size="28.0" fill="#FEFFFF" transform="matrix(1.00, 0.00, -0.00, -1.00, 622.7, 10.0)">i</text><text xml:space="preserve" font-family="Avenir-Book" font-size="28.0" fill="#FEFFFF" transform="matrix(1.00, 0.00, -0.00, -1.00, 629.5, 10.0)">c</text><text xml:space="preserve" font-family="Avenir-Book" font-size="28.0" fill="#FEFFFF" transform="matrix(1.00, 0.00, -0.00, -1.00, 643.0, 10.0)"> </text><text xml:space="preserve" font-family="Avenir-Book" font-size="28.0" fill="#FEFFFF" transform="matrix(1.00, 0.00, -0.00, -1.00, 650.7, 10.0)">s</text><text xml:space="preserve" font-family="Avenir-Book" font-size="28.0" fill="#FEFFFF" transform="matrix(1.00, 0.00, -0.00, -1.00, 662.7, 10.0)">c</text><text xml:space="preserve" font-family="Avenir-Book" font-size="28.0" fill="#FEFFFF" transform="matrix(1.00, 0.00, -0.00, -1.00, 676.2, 10.0)">o</text><text xml:space="preserve" font-family="Avenir-Book" font-size="28.0" fill="#FEFFFF" transform="matrix(1.00, 0.00, -0.00, -1.00, 692.8, 10.0)">r</text><text xml:space="preserve" font-family="Avenir-Book" font-size="28.0" fill="#FEFFFF" transform="matrix(1.00, 0.00, -0.00, -1.00, 701.6, 10.0)">e</text><text xml:space="preserve" font-family="Avenir-Book" font-size="28.0" fill="#FEFFFF" transform="matrix(1.00, 0.00, -0.00, -1.00, 717.1, 10.0)"> </text><text xml:space="preserve" font-family="Avenir-Book" font-size="28.0" fill="#FEFFFF" transform="matrix(1.00, 0.00, -0.00, -1.00, 724.9, 10.0)">r</text><text xml:space="preserve" font-family="Avenir-Book" font-size="28.0" fill="#FEFFFF" transform="matrix(1.00, 0.00, -0.00, -1.00, 733.7, 10.0)">e</text><text xml:space="preserve" font-family="Avenir-Book" font-size="28.0" fill="#FEFFFF" transform="matrix(1.00, 0.00, -0.00, -1.00, 749.3, 10.0)">n</text><text xml:space="preserve" font-family="Avenir-Book" font-size="28.0" fill="#FEFFFF" transform="matrix(1.00, 0.00, -0.00, -1.00, 764.8, 10.0)">d</text><text xml:space="preserve" font-family="Avenir-Book" font-size="28.0" fill="#FEFFFF" transform="matrix(1.00, 0.00, -0.00, -1.00, 782.0, 10.0)">e</text><text xml:space="preserve" font-family="Avenir-Book" font-size="28.0" fill="#FEFFFF" transform="matrix(1.00, 0.00, -0.00, -1.00, 797.5, 10.0)">r</text><text xml:space="preserve" font-family="Avenir-Book" font-size="28.0" fill="#FEFFFF" transform="matrix(1.00, 0.00, -0.00, -1.00, 806.8, 10.0)">i</text><text xml:space="preserve" font-family="Avenir-Book" font-size="28.0" fill="#FEFFFF" transform="matrix(1.00, 0.00, -0.00, -1.00, 813.5, 10.0)">n</text><text xml:space="preserve" font-family="Avenir-Book" font-size="28.0" fill="#FEFFFF" transform="matrix(1.00, 0.00, -0.00, -1.00, 829.1, 10.0)">g</text></g></svg>