<?xml version="1.0" encoding="UTF-8" standalone="no"?><svg xmlns="http://www.w3.org/2000/svg" xmlns:xlink="http://www.w3.org/1999/xlink" clip-rule="evenodd" stroke-miterlimit="4.00" viewBox="0 0 1024 768"><desc>SVG generated by Keynote</desc><defs></defs><g transform="matrix(1.00, 0.00, -0.00, -1.00, 0.0, 768.0)"><path d="M 0.0 768.0 L 1024.0 768.0 L 1024.0 0.0 L 0.0 0.0 Z M 0.0 768.0 " fill="#000000"></path><image xlink:href="387E0DD8C5FD198FF2869E201B17CB83.png" width="727.00" height="144.00" transform="matrix(1.00, 0.00, -0.00, -1.00, 267.9, 147.3)" opacity="0.50"></image><path d="M 270.9 146.3 L 991.5 146.3 L 991.5 8.1 L 270.9 8.1 Z M 270.9 146.3 " fill="#000000"></path><text xml:space="preserve" font-family="Avenir-Medium" font-size="28.5" fill="#FEFFFF" transform="matrix(1.00, 0.00, -0.00, -1.00, 455.0, 329.0)">D</text><text xml:space="preserve" font-family="Avenir-Medium" font-size="28.5" fill="#FEFFFF" transform="matrix(1.00, 0.00, -0.00, -1.00, 476.1, 329.0)">.</text><text xml:space="preserve" font-family="Avenir-Medium" font-size="28.5" fill="#FEFFFF" transform="matrix(1.00, 0.00, -0.00, -1.00, 484.0, 329.0)"> </text><text xml:space="preserve" font-family="Avenir-Medium" font-size="28.5" fill="#FEFFFF" transform="matrix(1.00, 0.00, -0.00, -1.00, 491.9, 329.0)">F</text><text xml:space="preserve" font-family="Avenir-Medium" font-size="28.5" fill="#FEFFFF" transform="matrix(1.00, 0.00, -0.00, -1.00, 508.3, 329.0)">o</text><text xml:space="preserve" font-family="Avenir-Medium" font-size="28.5" fill="#FEFFFF" transform="matrix(1.00, 0.00, -0.00, -1.00, 525.2, 329.0)">b</text><text xml:space="preserve" font-family="Avenir-Medium" font-size="28.5" fill="#FEFFFF" transform="matrix(1.00, 0.00, -0.00, -1.00, 542.6, 329.0)">e</text><text xml:space="preserve" font-family="Avenir-Medium" font-size="28.5" fill="#FEFFFF" transform="matrix(1.00, 0.00, -0.00, -1.00, 558.4, 329.0)">r</text><text xml:space="preserve" font-family="Avenir-Black" font-weight="bold" font-size="44.0" fill="#FEFFFF" transform="matrix(1.00, 0.00, -0.00, -1.00, 430.0, 506.0)">I</text><text xml:space="preserve" font-family="Avenir-Black" font-weight="bold" font-size="44.0" fill="#FEFFFF" transform="matrix(1.00, 0.00, -0.00, -1.00, 443.0, 506.0)">N</text><text xml:space="preserve" font-family="Avenir-Black" font-weight="bold" font-size="44.0" fill="#FEFFFF" transform="matrix(1.00, 0.00, -0.00, -1.00, 478.9, 506.0)">S</text><text xml:space="preserve" font-family="Avenir-Black" font-weight="bold" font-size="44.0" fill="#FEFFFF" transform="matrix(1.00, 0.00, -0.00, -1.00, 504.1, 506.0)">c</text><text xml:space="preserve" font-family="Avenir-Black" font-weight="bold" font-size="44.0" fill="#FEFFFF" transform="matrix(1.00, 0.00, -0.00, -1.00, 525.3, 506.0)">o</text><text xml:space="preserve" font-family="Avenir-Black" font-weight="bold" font-size="44.0" fill="#FEFFFF" transform="matrix(1.00, 0.00, -0.00, -1.00, 552.2, 506.0)">r</text><text xml:space="preserve" font-family="Avenir-Black" font-weight="bold" font-size="44.0" fill="#FEFFFF" transform="matrix(1.00, 0.00, -0.00, -1.00, 569.3, 506.0)">e</text><text xml:space="preserve" font-family="Avenir-Black" font-weight="bold" font-size="44.0" fill="#FEFFFF" transform="matrix(1.00, 0.00, -0.00, -1.00, 594.6, 506.0)"> </text><text xml:space="preserve" font-family="Avenir-Medium" font-size="38.0" fill="#EAEAEA" transform="matrix(1.00, 0.00, -0.00, -1.00, 130.0, 452.0)">A</text><text xml:space="preserve" font-family="Avenir-Medium" font-size="38.0" fill="#EAEAEA" transform="matrix(1.00, 0.00, -0.00, -1.00, 156.8, 452.0)">n</text><text xml:space="preserve" font-family="Avenir-Medium" font-size="38.0" fill="#EAEAEA" transform="matrix(1.00, 0.00, -0.00, -1.00, 177.9, 452.0)"> </text><text xml:space="preserve" font-family="Avenir-Medium" font-size="38.0" fill="#EAEAEA" transform="matrix(1.00, 0.00, -0.00, -1.00, 188.4, 452.0)">e</text><text xml:space="preserve" font-family="Avenir-Medium" font-size="38.0" fill="#EAEAEA" transform="matrix(1.00, 0.00, -0.00, -1.00, 209.6, 452.0)">n</text><text xml:space="preserve" font-family="Avenir-Medium" font-size="38.0" fill="#EAEAEA" transform="matrix(1.00, 0.00, -0.00, -1.00, 230.7, 452.0)">v</text><text xml:space="preserve" font-family="Avenir-Medium" font-size="38.0" fill="#EAEAEA" transform="matrix(1.00, 0.00, -0.00, -1.00, 249.7, 452.0)">i</text><text xml:space="preserve" font-family="Avenir-Medium" font-size="38.0" fill="#EAEAEA" transform="matrix(1.00, 0.00, -0.00, -1.00, 258.8, 452.0)">r</text><text xml:space="preserve" font-family="Avenir-Medium" font-size="38.0" fill="#EAEAEA" transform="matrix(1.00, 0.00, -0.00, -1.00, 272.2, 452.0)">o</text><text xml:space="preserve" font-family="Avenir-Medium" font-size="38.0" fill="#EAEAEA" transform="matrix(1.00, 0.00, -0.00, -1.00, 294.8, 452.0)">n</text><text xml:space="preserve" font-family="Avenir-Medium" font-size="38.0" fill="#EAEAEA" transform="matrix(1.00, 0.00, -0.00, -1.00, 315.9, 452.0)">m</text><text xml:space="preserve" font-family="Avenir-Medium" font-size="38.0" fill="#EAEAEA" transform="matrix(1.00, 0.00, -0.00, -1.00, 348.3, 452.0)">e</text><text xml:space="preserve" font-family="Avenir-Medium" font-size="38.0" fill="#EAEAEA" transform="matrix(1.00, 0.00, -0.00, -1.00, 369.4, 452.0)">n</text><text xml:space="preserve" font-family="Avenir-Medium" font-size="38.0" fill="#EAEAEA" transform="matrix(1.00, 0.00, -0.00, -1.00, 390.5, 452.0)">t</text><text xml:space="preserve" font-family="Avenir-Medium" font-size="38.0" fill="#EAEAEA" transform="matrix(1.00, 0.00, -0.00, -1.00, 404.6, 452.0)"> </text><text xml:space="preserve" font-family="Avenir-Medium" font-size="38.0" fill="#EAEAEA" transform="matrix(1.00, 0.00, -0.00, -1.00, 415.2, 452.0)">f</text><text xml:space="preserve" font-family="Avenir-Medium" font-size="38.0" fill="#EAEAEA" transform="matrix(1.00, 0.00, -0.00, -1.00, 427.8, 452.0)">o</text><text xml:space="preserve" font-family="Avenir-Medium" font-size="38.0" fill="#EAEAEA" transform="matrix(1.00, 0.00, -0.00, -1.00, 450.4, 452.0)">r</text><text xml:space="preserve" font-family="Avenir-Medium" font-size="38.0" fill="#EAEAEA" transform="matrix(1.00, 0.00, -0.00, -1.00, 464.4, 452.0)"> </text><text xml:space="preserve" font-family="Avenir-Medium" font-size="38.0" fill="#EAEAEA" transform="matrix(1.00, 0.00, -0.00, -1.00, 475.0, 452.0)">t</text><text xml:space="preserve" font-family="Avenir-Medium" font-size="38.0" fill="#EAEAEA" transform="matrix(1.00, 0.00, -0.00, -1.00, 489.1, 452.0)">h</text><text xml:space="preserve" font-family="Avenir-Medium" font-size="38.0" fill="#EAEAEA" transform="matrix(1.00, 0.00, -0.00, -1.00, 510.2, 452.0)">e</text><text xml:space="preserve" font-family="Avenir-Medium" font-size="38.0" fill="#EAEAEA" transform="matrix(1.00, 0.00, -0.00, -1.00, 531.3, 452.0)"> </text><text xml:space="preserve" font-family="Avenir-Medium" font-size="38.0" fill="#EAEAEA" transform="matrix(1.00, 0.00, -0.00, -1.00, 541.9, 452.0)">d</text><text xml:space="preserve" font-family="Avenir-Medium" font-size="38.0" fill="#EAEAEA" transform="matrix(1.00, 0.00, -0.00, -1.00, 565.1, 452.0)">e</text><text xml:space="preserve" font-family="Avenir-Medium" font-size="38.0" fill="#EAEAEA" transform="matrix(1.00, 0.00, -0.00, -1.00, 586.2, 452.0)">s</text><text xml:space="preserve" font-family="Avenir-Medium" font-size="38.0" fill="#EAEAEA" transform="matrix(1.00, 0.00, -0.00, -1.00, 603.1, 452.0)">i</text><text xml:space="preserve" font-family="Avenir-Medium" font-size="38.0" fill="#EAEAEA" transform="matrix(1.00, 0.00, -0.00, -1.00, 612.2, 452.0)">g</text><text xml:space="preserve" font-family="Avenir-Medium" font-size="38.0" fill="#EAEAEA" transform="matrix(1.00, 0.00, -0.00, -1.00, 635.4, 452.0)">n</text><text xml:space="preserve" font-family="Avenir-Medium" font-size="38.0" fill="#EAEAEA" transform="matrix(1.00, 0.00, -0.00, -1.00, 656.6, 452.0)"> </text><text xml:space="preserve" font-family="Avenir-Medium" font-size="38.0" fill="#EAEAEA" transform="matrix(1.00, 0.00, -0.00, -1.00, 667.1, 452.0)">o</text><text xml:space="preserve" font-family="Avenir-Medium" font-size="38.0" fill="#EAEAEA" transform="matrix(1.00, 0.00, -0.00, -1.00, 689.7, 452.0)">f</text><text xml:space="preserve" font-family="Avenir-Medium" font-size="38.0" fill="#EAEAEA" transform="matrix(1.00, 0.00, -0.00, -1.00, 702.4, 452.0)"> </text><text xml:space="preserve" font-family="Avenir-Medium" font-size="38.0" fill="#EAEAEA" transform="matrix(1.00, 0.00, -0.00, -1.00, 712.9, 452.0)">i</text><text xml:space="preserve" font-family="Avenir-Medium" font-size="38.0" fill="#EAEAEA" transform="matrix(1.00, 0.00, -0.00, -1.00, 722.0, 452.0)">n</text><text xml:space="preserve" font-family="Avenir-Medium" font-size="38.0" fill="#EAEAEA" transform="matrix(1.00, 0.00, -0.00, -1.00, 743.2, 452.0)">t</text><text xml:space="preserve" font-family="Avenir-Medium" font-size="38.0" fill="#EAEAEA" transform="matrix(1.00, 0.00, -0.00, -1.00, 757.2, 452.0)">e</text><text xml:space="preserve" font-family="Avenir-Medium" font-size="38.0" fill="#EAEAEA" transform="matrix(1.00, 0.00, -0.00, -1.00, 778.4, 452.0)">r</text><text xml:space="preserve" font-family="Avenir-Medium" font-size="38.0" fill="#EAEAEA" transform="matrix(1.00, 0.00, -0.00, -1.00, 792.4, 452.0)">a</text><text xml:space="preserve" font-family="Avenir-Medium" font-size="38.0" fill="#EAEAEA" transform="matrix(1.00, 0.00, -0.00, -1.00, 812.1, 452.0)">c</text><text xml:space="preserve" font-family="Avenir-Medium" font-size="38.0" fill="#EAEAEA" transform="matrix(1.00, 0.00, -0.00, -1.00, 830.5, 452.0)">t</text><text xml:space="preserve" font-family="Avenir-Medium" font-size="38.0" fill="#EAEAEA" transform="matrix(1.00, 0.00, -0.00, -1.00, 844.5, 452.0)">i</text><text xml:space="preserve" font-family="Avenir-Medium" font-size="38.0" fill="#EAEAEA" transform="matrix(1.00, 0.00, -0.00, -1.00, 853.6, 452.0)">v</text><text xml:space="preserve" font-family="Avenir-Medium" font-size="38.0" fill="#EAEAEA" transform="matrix(1.00, 0.00, -0.00, -1.00, 872.6, 452.0)">e</text><text xml:space="preserve" font-family="Avenir-Medium" font-size="38.0" fill="#EAEAEA" transform="matrix(1.00, 0.00, -0.00, -1.00, 893.8, 452.0)"> </text><text xml:space="preserve" font-family="Avenir-Medium" font-size="38.0" fill="#EAEAEA" transform="matrix(1.00, 0.00, -0.00, -1.00, 904.3, 452.0)"> </text><text xml:space="preserve" font-family="Avenir-Medium" font-size="38.0" fill="#EAEAEA" transform="matrix(1.00, 0.00, -0.00, -1.00, 294.0, 400.0)">a</text><text xml:space="preserve" font-family="Avenir-Medium" font-size="38.0" fill="#EAEAEA" transform="matrix(1.00, 0.00, -0.00, -1.00, 313.7, 400.0)">u</text><text xml:space="preserve" font-family="Avenir-Medium" font-size="38.0" fill="#EAEAEA" transform="matrix(1.00, 0.00, -0.00, -1.00, 334.9, 400.0)">g</text><text xml:space="preserve" font-family="Avenir-Medium" font-size="38.0" fill="#EAEAEA" transform="matrix(1.00, 0.00, -0.00, -1.00, 358.1, 400.0)">m</text><text xml:space="preserve" font-family="Avenir-Medium" font-size="38.0" fill="#EAEAEA" transform="matrix(1.00, 0.00, -0.00, -1.00, 390.4, 400.0)">e</text><text xml:space="preserve" font-family="Avenir-Medium" font-size="38.0" fill="#EAEAEA" transform="matrix(1.00, 0.00, -0.00, -1.00, 411.6, 400.0)">n</text><text xml:space="preserve" font-family="Avenir-Medium" font-size="38.0" fill="#EAEAEA" transform="matrix(1.00, 0.00, -0.00, -1.00, 432.7, 400.0)">t</text><text xml:space="preserve" font-family="Avenir-Medium" font-size="38.0" fill="#EAEAEA" transform="matrix(1.00, 0.00, -0.00, -1.00, 446.8, 400.0)">e</text><text xml:space="preserve" font-family="Avenir-Medium" font-size="38.0" fill="#EAEAEA" transform="matrix(1.00, 0.00, -0.00, -1.00, 467.9, 400.0)">d</text><text xml:space="preserve" font-family="Avenir-Medium" font-size="38.0" fill="#EAEAEA" transform="matrix(1.00, 0.00, -0.00, -1.00, 491.1, 400.0)"> </text><text xml:space="preserve" font-family="Avenir-Medium" font-size="38.0" fill="#EAEAEA" transform="matrix(1.00, 0.00, -0.00, -1.00, 501.7, 400.0)">m</text><text xml:space="preserve" font-family="Avenir-Medium" font-size="38.0" fill="#EAEAEA" transform="matrix(1.00, 0.00, -0.00, -1.00, 534.0, 400.0)">u</text><text xml:space="preserve" font-family="Avenir-Medium" font-size="38.0" fill="#EAEAEA" transform="matrix(1.00, 0.00, -0.00, -1.00, 555.2, 400.0)">s</text><text xml:space="preserve" font-family="Avenir-Medium" font-size="38.0" fill="#EAEAEA" transform="matrix(1.00, 0.00, -0.00, -1.00, 572.0, 400.0)">i</text><text xml:space="preserve" font-family="Avenir-Medium" font-size="38.0" fill="#EAEAEA" transform="matrix(1.00, 0.00, -0.00, -1.00, 581.2, 400.0)">c</text><text xml:space="preserve" font-family="Avenir-Medium" font-size="38.0" fill="#EAEAEA" transform="matrix(1.00, 0.00, -0.00, -1.00, 599.5, 400.0)"> </text><text xml:space="preserve" font-family="Avenir-Medium" font-size="38.0" fill="#EAEAEA" transform="matrix(1.00, 0.00, -0.00, -1.00, 610.0, 400.0)">s</text><text xml:space="preserve" font-family="Avenir-Medium" font-size="38.0" fill="#EAEAEA" transform="matrix(1.00, 0.00, -0.00, -1.00, 626.9, 400.0)">c</text><text xml:space="preserve" font-family="Avenir-Medium" font-size="38.0" fill="#EAEAEA" transform="matrix(1.00, 0.00, -0.00, -1.00, 645.2, 400.0)">o</text><text xml:space="preserve" font-family="Avenir-Medium" font-size="38.0" fill="#EAEAEA" transform="matrix(1.00, 0.00, -0.00, -1.00, 667.8, 400.0)">r</text><text xml:space="preserve" font-family="Avenir-Medium" font-size="38.0" fill="#EAEAEA" transform="matrix(1.00, 0.00, -0.00, -1.00, 681.2, 400.0)">e</text><text xml:space="preserve" font-family="Avenir-Medium" font-size="38.0" fill="#EAEAEA" transform="matrix(1.00, 0.00, -0.00, -1.00, 702.3, 400.0)">s</text><text xml:space="preserve" font-family="Avenir-Medium" font-size="38.0" fill="#EAEAEA" transform="matrix(1.00, 0.00, -0.00, -1.00, 719.2, 400.0)">.</text><text xml:space="preserve" font-family="Avenir-Black" font-weight="bold" font-size="20.5" fill="#FEFFFF" transform="matrix(1.00, 0.00, -0.00, -1.00, 474.0, 301.0)">G</text><text xml:space="preserve" font-family="Avenir-Black" font-weight="bold" font-size="20.5" fill="#FEFFFF" transform="matrix(1.00, 0.00, -0.00, -1.00, 489.9, 301.0)">R</text><text xml:space="preserve" font-family="Avenir-Black" font-weight="bold" font-size="20.5" fill="#FEFFFF" transform="matrix(1.00, 0.00, -0.00, -1.00, 503.2, 301.0)">A</text><text xml:space="preserve" font-family="Avenir-Black" font-weight="bold" font-size="20.5" fill="#FEFFFF" transform="matrix(1.00, 0.00, -0.00, -1.00, 518.4, 301.0)">M</text><text xml:space="preserve" font-family="Avenir-Black" font-weight="bold" font-size="20.5" fill="#FEFFFF" transform="matrix(1.00, 0.00, -0.00, -1.00, 537.7, 301.0)">E</text><text xml:space="preserve" font-family="Avenir-Black" font-weight="bold" font-size="20.5" fill="#FEFFFF" transform="matrix(1.00, 0.00, -0.00, -1.00, 550.6, 301.0)"> </text><text xml:space="preserve" font-family="Avenir-Medium" font-size="20.5" fill="#FEFFFF" transform="matrix(1.00, 0.00, -0.00, -1.00, 343.0, 274.0)">C</text><text xml:space="preserve" font-family="Avenir-Medium" font-size="20.5" fill="#FEFFFF" transform="matrix(1.00, 0.00, -0.00, -1.00, 357.4, 274.0)">e</text><text xml:space="preserve" font-family="Avenir-Medium" font-size="20.5" fill="#FEFFFF" transform="matrix(1.00, 0.00, -0.00, -1.00, 368.8, 274.0)">n</text><text xml:space="preserve" font-family="Avenir-Medium" font-size="20.5" fill="#FEFFFF" transform="matrix(1.00, 0.00, -0.00, -1.00, 380.2, 274.0)">t</text><text xml:space="preserve" font-family="Avenir-Medium" font-size="20.5" fill="#FEFFFF" transform="matrix(1.00, 0.00, -0.00, -1.00, 387.8, 274.0)">r</text><text xml:space="preserve" font-family="Avenir-Medium" font-size="20.5" fill="#FEFFFF" transform="matrix(1.00, 0.00, -0.00, -1.00, 395.0, 274.0)">e</text><text xml:space="preserve" font-family="Avenir-Medium" font-size="20.5" fill="#FEFFFF" transform="matrix(1.00, 0.00, -0.00, -1.00, 406.4, 274.0)"> </text><text xml:space="preserve" font-family="Avenir-Medium" font-size="20.5" fill="#FEFFFF" transform="matrix(1.00, 0.00, -0.00, -1.00, 412.1, 274.0)">n</text><text xml:space="preserve" font-family="Avenir-Medium" font-size="20.5" fill="#FEFFFF" transform="matrix(1.00, 0.00, -0.00, -1.00, 423.4, 274.0)">a</text><text xml:space="preserve" font-family="Avenir-Medium" font-size="20.5" fill="#FEFFFF" transform="matrix(1.00, 0.00, -0.00, -1.00, 434.1, 274.0)">t</text><text xml:space="preserve" font-family="Avenir-Medium" font-size="20.5" fill="#FEFFFF" transform="matrix(1.00, 0.00, -0.00, -1.00, 441.7, 274.0)">i</text><text xml:space="preserve" font-family="Avenir-Medium" font-size="20.5" fill="#FEFFFF" transform="matrix(1.00, 0.00, -0.00, -1.00, 446.6, 274.0)">o</text><text xml:space="preserve" font-family="Avenir-Medium" font-size="20.5" fill="#FEFFFF" transform="matrix(1.00, 0.00, -0.00, -1.00, 458.7, 274.0)">n</text><text xml:space="preserve" font-family="Avenir-Medium" font-size="20.5" fill="#FEFFFF" transform="matrix(1.00, 0.00, -0.00, -1.00, 470.1, 274.0)">a</text><text xml:space="preserve" font-family="Avenir-Medium" font-size="20.5" fill="#FEFFFF" transform="matrix(1.00, 0.00, -0.00, -1.00, 480.7, 274.0)">l</text><text xml:space="preserve" font-family="Avenir-Medium" font-size="20.5" fill="#FEFFFF" transform="matrix(1.00, 0.00, -0.00, -1.00, 485.7, 274.0)"> </text><text xml:space="preserve" font-family="Avenir-Medium" font-size="20.5" fill="#FEFFFF" transform="matrix(1.00, 0.00, -0.00, -1.00, 491.4, 274.0)">d</text><text xml:space="preserve" font-family="Avenir-Medium" font-size="20.5" fill="#FEFFFF" transform="matrix(1.00, 0.00, -0.00, -1.00, 503.9, 274.0)">e</text><text xml:space="preserve" font-family="Avenir-Medium" font-size="20.5" fill="#FEFFFF" transform="matrix(1.00, 0.00, -0.00, -1.00, 515.3, 274.0)"> </text><text xml:space="preserve" font-family="Avenir-Medium" font-size="20.5" fill="#FEFFFF" transform="matrix(1.00, 0.00, -0.00, -1.00, 521.0, 274.0)">c</text><text xml:space="preserve" font-family="Avenir-Medium" font-size="20.5" fill="#FEFFFF" transform="matrix(1.00, 0.00, -0.00, -1.00, 530.8, 274.0)">r</text><text xml:space="preserve" font-family="Avenir-Medium" font-size="20.5" fill="#FEFFFF" transform="matrix(1.00, 0.00, -0.00, -1.00, 538.0, 274.0)">é</text><text xml:space="preserve" font-family="Avenir-Medium" font-size="20.5" fill="#FEFFFF" transform="matrix(1.00, 0.00, -0.00, -1.00, 549.4, 274.0)">a</text><text xml:space="preserve" font-family="Avenir-Medium" font-size="20.5" fill="#FEFFFF" transform="matrix(1.00, 0.00, -0.00, -1.00, 560.0, 274.0)">t</text><text xml:space="preserve" font-family="Avenir-Medium" font-size="20.5" fill="#FEFFFF" transform="matrix(1.00, 0.00, -0.00, -1.00, 567.6, 274.0)">i</text><text xml:space="preserve" font-family="Avenir-Medium" font-size="20.5" fill="#FEFFFF" transform="matrix(1.00, 0.00, -0.00, -1.00, 572.5, 274.0)">o</text><text xml:space="preserve" font-family="Avenir-Medium" font-size="20.5" fill="#FEFFFF" transform="matrix(1.00, 0.00, -0.00, -1.00, 584.7, 274.0)">n</text><text xml:space="preserve" font-family="Avenir-Medium" font-size="20.5" fill="#FEFFFF" transform="matrix(1.00, 0.00, -0.00, -1.00, 596.1, 274.0)"> </text><text xml:space="preserve" font-family="Avenir-Medium" font-size="20.5" fill="#FEFFFF" transform="matrix(1.00, 0.00, -0.00, -1.00, 601.8, 274.0)">m</text><text xml:space="preserve" font-family="Avenir-Medium" font-size="20.5" fill="#FEFFFF" transform="matrix(1.00, 0.00, -0.00, -1.00, 619.2, 274.0)">u</text><text xml:space="preserve" font-family="Avenir-Medium" font-size="20.5" fill="#FEFFFF" transform="matrix(1.00, 0.00, -0.00, -1.00, 630.6, 274.0)">s</text><text xml:space="preserve" font-family="Avenir-Medium" font-size="20.5" fill="#FEFFFF" transform="matrix(1.00, 0.00, -0.00, -1.00, 639.7, 274.0)">i</text><text xml:space="preserve" font-family="Avenir-Medium" font-size="20.5" fill="#FEFFFF" transform="matrix(1.00, 0.00, -0.00, -1.00, 644.6, 274.0)">c</text><text xml:space="preserve" font-family="Avenir-Medium" font-size="20.5" fill="#FEFFFF" transform="matrix(1.00, 0.00, -0.00, -1.00, 654.5, 274.0)">a</text><text xml:space="preserve" font-family="Avenir-Medium" font-size="20.5" fill="#FEFFFF" transform="matrix(1.00, 0.00, -0.00, -1.00, 665.1, 274.0)">l</text><text xml:space="preserve" font-family="Avenir-Medium" font-size="20.5" fill="#FEFFFF" transform="matrix(1.00, 0.00, -0.00, -1.00, 670.0, 274.0)">e</text><g><clipPath id="clip-0"><path d="M 444.0 111.8 L 580.0 111.8 L 580.0 247.8 L 444.0 247.8 Z M 444.0 111.8 "></path></clipPath><g clip-path="url(#clip-0)"><image xlink:href="148BD9EAF26B2158AAD53290A6DD2526.png" width="134.00" height="134.00" transform="matrix(1.00, 0.00, -0.00, -1.00, 445.0, 246.8)" opacity="0.50"></image><path d="M 557.3 227.0 C 582.2 202.0 582.2 161.5 557.3 136.5 C 532.3 111.5 491.7 111.5 466.7 136.5 C 441.8 161.5 441.8 202.0 466.7 227.0 C 491.7 252.0 532.3 252.0 557.3 227.0 Z M 557.3 227.0 " fill="#FEFFFE"></path></g></g><g><clipPath id="clip-1"><path d="M 438.9 255.7 L 589.1 255.7 L 589.1 109.9 L 438.9 109.9 Z M 438.9 255.7 "></path></clipPath><g clip-path="url(#clip-1)"><g><clipPath id="clip-2"><path d="M 450.0 120.0 L 574.0 120.0 L 574.0 244.0 L 450.0 244.0 Z M 450.0 120.0 "></path></clipPath><g clip-path="url(#clip-2)"><path d="M 518.5 170.9 C 518.4 170.9 518.3 170.9 518.3 170.8 C 517.8 170.7 517.5 170.2 517.5 169.8 L 517.5 164.4 C 517.5 164.0 517.8 163.9 518.1 164.0 C 518.6 164.1 518.9 164.6 518.9 165.0 L 518.9 170.4 C 518.9 170.7 518.7 170.9 518.5 170.9 " fill="#1A1918"></path><path d="M 508.8 162.1 L 509.9 162.5 L 509.3 166.3 Z M 508.8 162.1 " fill="#1A1918"></path><path d="M 552.4 177.9 L 553.5 178.3 L 552.9 182.1 Z M 552.4 177.9 " fill="#1A1918"></path><path d="M 546.6 181.0 C 546.5 181.0 546.5 181.0 546.4 180.9 L 545.6 180.6 L 545.6 177.5 L 546.1 177.6 C 546.6 177.8 546.8 178.1 546.8 178.6 L 546.8 180.5 C 546.8 180.7 546.8 181.0 546.6 181.0 " fill="#1A1918"></path><path d="M 497.5 160.7 L 497.5 162.6 C 497.5 162.9 497.5 163.1 497.3 163.1 C 497.2 163.1 497.2 163.1 497.1 163.1 L 496.3 162.8 L 496.3 159.6 L 496.8 159.8 C 497.3 160.0 497.5 160.3 497.5 160.7 " fill="#1A1918"></path><path d="M 500.2 147.6 L 501.3 148.0 L 500.8 151.8 Z M 500.2 147.6 " fill="#1A1918"></path><path d="M 489.5 187.0 L 489.5 194.6 C 489.5 195.6 489.2 195.9 488.5 195.7 L 487.3 195.2 L 487.3 184.7 L 488.6 185.2 C 489.3 185.4 489.5 185.9 489.5 187.0 " fill="#1A1918"></path><path d="M 473.2 193.2 C 470.6 192.3 468.8 189.7 468.8 187.0 L 468.8 165.6 C 468.8 162.9 470.7 161.7 473.2 162.6 C 475.8 163.5 477.6 166.0 477.6 168.7 L 477.6 178.9 L 474.7 177.8 L 474.7 177.1 L 476.8 177.8 L 476.8 168.5 C 476.8 166.1 475.4 164.2 473.2 163.4 C 471.0 162.6 469.6 163.7 469.6 165.9 L 469.6 187.3 C 469.6 189.4 471.0 191.6 473.2 192.5 C 475.4 193.3 476.8 192.3 476.8 189.9 L 476.8 186.8 L 477.6 187.1 L 477.6 190.2 C 477.6 193.0 475.8 194.2 473.2 193.2 " fill="#1A1918"></path><path d="M 566.6 181.0 L 565.0 186.6 L 565.0 180.5 L 564.4 180.3 L 564.4 188.1 L 565.0 188.3 L 566.7 182.7 L 566.7 188.9 L 567.3 189.1 L 567.3 181.3 Z M 563.1 180.9 C 563.1 180.2 562.5 179.5 561.9 179.2 C 561.7 179.2 561.6 179.2 561.5 179.2 L 561.5 179.2 C 560.9 179.2 560.6 179.6 560.6 180.1 L 560.6 185.5 C 560.6 186.2 561.1 186.9 561.8 187.2 C 561.9 187.2 562.0 187.2 562.2 187.2 C 562.7 187.2 563.1 186.8 563.1 186.3 Z M 559.2 178.4 L 558.6 178.2 L 558.6 185.9 L 559.2 186.1 Z M 557.6 185.0 L 556.6 184.6 L 556.6 177.4 L 556.0 177.2 L 556.0 184.4 L 555.1 184.0 L 555.1 184.6 L 557.6 185.5 Z M 553.7 176.4 L 553.5 177.8 L 552.3 177.3 L 552.1 175.8 L 551.6 175.6 L 552.6 183.7 L 553.3 184.0 L 554.3 176.6 Z M 550.8 182.5 L 549.3 182.0 L 549.3 179.1 L 550.4 179.5 L 550.4 178.9 L 549.3 178.5 L 549.3 175.4 L 550.8 175.9 L 550.8 175.3 L 548.7 174.6 L 548.7 182.3 L 550.8 183.1 Z M 547.0 173.9 L 546.9 174.1 C 546.9 174.4 546.9 174.7 546.9 175.0 L 546.9 176.8 C 546.9 177.1 546.7 177.2 546.5 177.2 C 546.4 177.2 546.3 177.2 546.2 177.1 L 545.6 176.9 L 545.6 173.4 L 545.0 173.2 L 545.0 181.0 L 546.3 181.5 C 546.9 181.7 547.4 181.3 547.4 180.6 L 547.4 178.7 C 547.4 178.3 547.3 177.9 547.0 177.7 C 547.3 177.5 547.4 177.3 547.4 176.8 L 547.4 175.1 C 547.4 174.8 547.5 174.5 547.5 174.3 L 547.5 174.1 Z M 543.8 178.2 L 543.2 178.0 L 543.2 179.2 C 543.2 179.7 543.0 179.7 542.9 179.7 C 542.8 179.7 542.7 179.7 542.6 179.6 C 542.2 179.5 541.9 179.0 541.9 178.6 L 541.9 173.3 C 541.9 173.1 541.9 173.0 542.0 172.9 C 542.1 172.7 542.3 172.7 542.5 172.8 C 543.0 173.0 543.2 173.4 543.2 173.9 L 543.2 174.9 L 543.8 175.1 L 543.8 173.9 C 543.8 173.2 543.3 172.5 542.6 172.3 C 542.5 172.2 542.4 172.2 542.2 172.2 C 541.7 172.2 541.3 172.6 541.3 173.2 L 541.3 178.5 C 541.3 179.3 541.8 179.9 542.5 180.2 C 543.3 180.5 543.8 180.1 543.8 179.3 Z M 537.1 186.3 C 536.3 187.3 535.9 188.6 535.9 190.2 L 535.9 211.3 C 535.9 215.4 538.7 219.5 542.6 220.9 C 543.5 221.2 544.3 221.3 545.0 221.3 C 547.7 221.3 549.3 219.4 549.3 216.1 L 549.3 203.8 L 541.7 201.1 L 541.7 192.0 C 541.7 191.0 541.9 190.9 542.2 190.9 C 542.3 190.9 542.5 190.9 542.7 191.0 C 543.5 191.3 543.8 191.8 543.8 192.9 L 543.8 199.3 L 549.3 201.2 L 549.3 194.8 C 549.3 190.5 546.7 186.9 542.8 185.4 C 541.9 185.1 541.1 185.0 540.3 185.0 C 539.0 185.0 537.9 185.4 537.1 186.3 M 538.8 178.1 L 537.3 177.6 L 537.3 174.7 L 538.4 175.1 L 538.4 174.5 L 537.3 174.1 L 537.3 171.0 L 538.8 171.5 L 538.8 170.9 L 536.7 170.2 L 536.7 178.0 L 538.8 178.7 Z M 535.4 171.0 C 535.4 170.2 534.9 169.6 534.2 169.3 L 532.9 168.8 L 532.9 176.6 L 534.1 177.0 C 534.8 177.3 535.4 176.9 535.4 176.1 Z M 530.4 168.0 L 528.5 167.2 L 528.5 175.0 L 529.1 175.2 L 529.1 168.0 L 530.4 168.6 Z M 528.0 209.7 C 527.9 209.7 527.8 209.7 527.7 209.6 C 527.1 209.4 526.5 208.8 526.0 207.8 L 526.0 179.8 L 520.3 177.8 L 520.3 206.2 C 520.3 206.8 520.0 206.8 519.9 206.8 C 519.8 206.8 519.7 206.8 519.6 206.7 C 519.1 206.5 518.5 205.9 518.0 204.8 L 518.0 176.9 L 512.2 174.8 L 512.2 209.3 L 517.7 211.3 L 517.7 210.3 C 518.7 211.6 520.0 212.7 521.2 213.1 C 522.9 213.7 524.3 213.4 525.1 212.3 C 526.2 214.1 527.7 215.5 529.2 216.0 C 529.8 216.2 530.4 216.3 530.9 216.3 C 532.9 216.3 534.0 214.7 534.0 212.0 L 534.0 182.8 L 528.3 180.7 L 528.3 209.1 C 528.3 209.7 528.1 209.7 528.0 209.7 M 526.8 166.6 L 526.7 168.0 L 525.4 167.6 L 525.3 166.1 L 524.7 165.9 L 525.7 174.0 L 526.4 174.2 L 527.4 166.8 Z M 523.6 165.5 L 523.0 165.2 L 521.4 170.8 L 521.4 164.7 L 520.8 164.5 L 520.8 172.3 L 521.4 172.5 L 523.1 166.9 L 523.1 173.1 L 523.6 173.3 Z M 519.5 165.1 C 519.5 164.4 518.9 163.7 518.3 163.4 C 518.1 163.4 518.0 163.4 517.8 163.4 C 517.3 163.4 517.0 163.8 517.0 164.3 L 517.0 169.7 C 517.0 170.4 517.5 171.1 518.1 171.4 C 518.3 171.4 518.4 171.4 518.6 171.4 C 519.1 171.4 519.5 171.0 519.5 170.5 Z M 515.6 162.6 L 515.0 162.4 L 515.0 170.1 L 515.6 170.3 Z M 514.0 169.2 L 513.0 168.8 L 513.0 161.6 L 512.4 161.4 L 512.4 168.6 L 511.4 168.2 L 511.4 168.8 L 514.0 169.7 Z M 506.0 172.6 L 505.9 172.8 C 505.8 172.9 505.7 173.2 505.6 173.4 C 504.9 172.2 503.7 171.2 502.4 170.8 C 501.6 170.5 500.9 170.3 500.2 170.3 C 498.8 170.3 496.4 171.1 496.4 176.0 L 496.4 179.4 C 496.4 184.5 498.7 188.8 504.3 194.1 L 504.3 200.1 C 504.3 201.0 504.1 201.1 503.9 201.1 C 503.7 201.1 503.6 201.1 503.4 201.0 C 502.6 200.7 502.3 200.2 502.3 199.2 L 502.3 194.1 L 496.8 192.1 L 496.8 197.2 C 496.8 201.4 499.4 205.2 503.3 206.6 C 504.1 206.9 504.9 207.0 505.7 207.0 C 508.4 207.0 510.1 205.0 510.1 201.7 L 510.1 178.9 C 510.1 176.9 510.3 175.8 510.8 174.6 L 510.8 174.3 Z M 510.1 160.6 L 509.9 161.9 L 508.7 161.5 L 508.5 160.0 L 508.0 159.8 L 509.0 167.9 L 509.6 168.2 L 510.6 160.8 Z M 508.3 155.7 L 506.9 155.2 L 506.9 152.3 L 507.9 152.7 L 507.9 152.1 L 506.9 151.7 L 506.9 148.6 L 508.3 149.1 L 508.3 148.5 L 506.3 147.8 L 506.3 155.5 L 508.3 156.3 Z M 504.6 164.7 L 504.6 158.6 L 504.1 158.4 L 504.1 166.2 L 504.7 166.4 L 506.4 160.8 L 506.4 167.0 L 506.9 167.2 L 506.9 159.4 L 506.3 159.1 Z M 505.2 147.4 L 503.2 146.7 L 503.2 154.4 L 503.8 154.6 L 503.8 147.4 L 505.2 148.0 Z M 501.1 161.6 L 501.1 161.0 L 500.0 160.6 L 500.0 157.5 L 501.5 158.0 L 501.5 157.4 L 499.4 156.7 L 499.4 164.5 L 501.5 165.2 L 501.5 164.6 L 500.0 164.1 L 500.0 161.2 Z M 501.5 146.0 L 501.4 147.4 L 500.2 147.0 L 500.0 145.5 L 499.4 145.3 L 500.4 153.4 L 501.1 153.6 L 502.1 146.2 Z M 498.5 150.3 L 498.0 150.1 L 498.0 151.3 C 498.0 151.9 497.7 151.9 497.6 151.9 C 497.6 151.9 497.5 151.9 497.4 151.8 C 496.9 151.7 496.6 151.2 496.6 150.7 L 496.6 145.4 C 496.6 145.3 496.7 145.1 496.7 145.0 C 496.8 144.9 497.0 144.9 497.2 145.0 C 497.7 145.1 498.0 145.5 498.0 146.0 L 498.0 147.1 L 498.5 147.3 L 498.5 146.1 C 498.5 145.3 498.1 144.7 497.4 144.4 C 497.2 144.4 497.1 144.3 496.9 144.3 C 496.4 144.3 496.1 144.7 496.1 145.4 L 496.1 150.6 C 496.1 151.4 496.5 152.1 497.2 152.3 C 498.0 152.6 498.5 152.2 498.5 151.4 Z M 495.7 163.1 L 497.0 163.6 C 497.6 163.8 498.1 163.4 498.1 162.7 L 498.1 160.8 C 498.1 160.4 498.0 160.1 497.7 159.8 C 498.0 159.7 498.1 159.4 498.1 159.0 L 498.1 157.2 C 498.1 156.9 498.2 156.6 498.2 156.4 L 498.2 156.3 L 497.7 156.1 L 497.6 156.3 C 497.6 156.5 497.6 156.8 497.6 157.1 L 497.6 158.9 C 497.6 159.3 497.4 159.3 497.2 159.3 C 497.1 159.3 497.0 159.3 496.9 159.2 L 496.3 159.0 L 496.3 155.5 L 495.7 155.3 Z M 494.7 143.6 L 494.2 143.4 L 494.2 151.1 L 494.7 151.3 Z M 493.7 154.6 L 493.1 154.4 L 493.1 161.6 L 492.1 161.2 L 492.1 161.8 L 494.6 162.7 L 494.6 162.1 L 493.7 161.8 Z M 493.0 148.8 L 492.4 148.6 L 492.4 149.3 C 492.4 149.5 492.4 149.9 492.1 149.9 C 492.0 149.9 491.9 149.9 491.9 149.9 C 491.3 149.7 491.0 149.2 491.0 148.6 C 491.0 147.8 491.4 147.3 491.9 146.7 L 492.0 146.6 C 492.5 145.9 493.0 145.2 493.0 144.2 C 493.0 143.3 492.5 142.6 491.7 142.3 C 491.6 142.3 491.4 142.2 491.3 142.2 C 490.7 142.2 490.4 142.7 490.4 143.3 L 490.4 143.9 L 490.9 144.1 L 490.9 143.4 C 490.9 143.2 491.0 143.0 491.0 142.9 C 491.2 142.8 491.3 142.8 491.6 142.9 C 492.1 143.1 492.4 143.5 492.4 144.1 C 492.4 144.9 492.0 145.5 491.5 146.2 L 491.4 146.3 C 491.0 146.9 490.5 147.5 490.5 148.5 C 490.5 149.4 491.0 150.1 491.7 150.4 C 491.9 150.4 492.0 150.5 492.1 150.5 C 492.5 150.5 493.0 150.2 493.0 149.4 Z M 489.3 142.7 C 489.3 142.1 488.8 141.3 488.1 141.1 C 488.0 141.0 487.8 141.0 487.7 141.0 C 487.2 141.0 486.8 141.4 486.8 142.0 L 486.8 148.5 L 487.4 148.7 L 487.4 142.0 C 487.4 141.8 487.5 141.6 487.8 141.6 C 487.8 141.6 487.9 141.6 488.0 141.6 C 488.4 141.8 488.7 142.2 488.7 142.7 L 488.7 149.2 L 489.3 149.4 Z M 485.5 140.2 L 484.9 140.0 L 484.9 146.0 L 483.8 139.6 L 483.2 139.4 L 482.1 145.1 L 482.1 139.0 L 481.5 138.8 L 481.5 146.6 L 482.3 146.9 L 483.5 140.9 L 484.7 147.7 L 485.5 148.0 Z M 481.4 156.7 C 481.4 157.5 481.9 158.2 482.6 158.5 C 483.3 158.7 483.9 158.3 483.9 157.5 L 483.9 156.4 L 483.3 156.2 L 483.3 157.4 C 483.3 158.0 483.1 158.0 483.0 158.0 C 482.9 158.0 482.8 158.0 482.7 157.9 C 482.3 157.8 482.0 157.3 482.0 156.8 L 482.0 151.5 C 482.0 151.4 482.0 151.2 482.1 151.1 C 482.2 151.0 482.4 151.0 482.6 151.1 C 483.1 151.2 483.3 151.6 483.3 152.1 L 483.3 153.2 L 483.9 153.4 L 483.9 152.2 C 483.9 151.4 483.4 150.8 482.7 150.5 C 482.6 150.5 482.4 150.4 482.3 150.4 C 481.8 150.4 481.4 150.9 481.4 151.5 Z M 479.9 185.6 L 474.6 183.7 L 474.6 189.3 C 474.6 190.2 474.1 190.2 473.9 190.2 C 473.8 190.2 473.6 190.2 473.4 190.1 C 472.5 189.8 472.1 189.2 472.1 188.2 L 472.1 166.6 C 472.1 165.6 472.5 165.6 472.7 165.6 C 472.8 165.6 473.0 165.7 473.2 165.8 C 474.1 166.1 474.6 166.8 474.6 167.7 L 474.6 174.7 L 473.1 174.2 L 473.1 179.6 L 479.9 182.1 L 479.9 169.6 C 479.9 165.4 477.2 161.6 473.3 160.2 C 472.5 159.9 471.6 159.7 470.8 159.7 L 470.8 159.7 C 469.5 159.7 468.3 160.2 467.5 161.1 C 466.7 162.0 466.2 163.3 466.2 164.9 L 466.2 186.0 C 466.2 190.0 469.2 194.2 473.2 195.6 C 474.0 196.0 474.9 196.1 475.6 196.1 C 478.3 196.1 479.9 194.2 479.9 190.9 Z M 486.7 156.4 L 486.7 155.8 L 485.6 155.4 L 485.6 152.3 L 487.1 152.8 L 487.1 152.2 L 485.1 151.5 L 485.1 159.3 L 487.1 160.0 L 487.1 159.4 L 485.6 158.9 L 485.6 156.0 Z M 491.1 161.4 L 491.1 153.6 L 490.4 153.4 L 488.8 158.9 L 488.8 152.8 L 488.2 152.6 L 488.2 160.4 L 488.8 160.7 L 490.5 155.1 L 490.5 161.2 Z M 481.7 198.2 L 489.0 200.9 C 489.8 201.2 490.5 201.3 491.2 201.3 C 492.6 201.3 494.9 200.7 494.9 196.7 L 494.9 189.0 C 494.9 187.2 494.3 185.8 493.3 184.6 C 494.4 184.1 495.0 183.0 495.0 181.3 L 495.0 174.4 C 495.0 172.1 495.4 170.2 495.7 169.0 L 495.7 168.8 L 490.3 166.9 L 490.2 167.1 C 489.7 168.2 489.4 169.5 489.4 172.2 L 489.4 179.6 C 489.4 180.5 489.2 180.5 489.0 180.5 C 488.9 180.5 488.8 180.5 488.6 180.4 L 487.5 180.0 L 487.5 165.9 L 481.7 163.8 Z M 550.0 185.2 L 550.7 185.5 L 550.1 183.7 L 549.5 183.5 Z M 512.0 244.0 C 477.8 244.0 450.0 216.2 450.0 182.0 C 450.0 147.8 477.8 120.0 512.0 120.0 C 546.2 120.0 574.0 147.8 574.0 182.0 C 574.0 216.2 546.2 244.0 512.0 244.0 " fill="#1A1918"></path><path d="M 485.0 196.4 L 488.9 197.8 C 490.8 198.5 491.7 197.4 491.7 195.5 L 491.7 187.8 C 491.7 185.5 490.5 184.0 488.1 183.1 L 485.0 182.0 Z M 491.8 180.3 L 491.8 173.1 C 491.8 172.0 491.9 170.8 492.1 169.8 L 492.9 170.1 C 492.7 171.1 492.6 172.3 492.6 173.4 L 492.6 180.6 C 492.6 182.0 492.1 183.6 489.9 183.4 C 491.8 184.7 492.4 186.1 492.4 188.1 L 492.4 195.8 C 492.4 198.0 491.4 199.5 488.9 198.5 L 484.2 196.9 L 484.2 167.0 L 485.0 167.3 L 485.0 181.3 L 488.1 182.4 C 490.3 183.2 491.8 182.5 491.8 180.3 " fill="#1A1918"></path><path d="M 506.8 179.0 C 506.4 177.6 504.6 174.7 502.7 174.0 C 500.5 173.2 499.8 174.7 499.8 177.0 L 499.8 181.1 C 499.8 184.3 500.6 187.3 506.8 193.0 Z M 507.6 201.1 C 507.6 203.8 506.0 205.1 503.4 204.2 C 500.7 203.2 499.2 200.8 499.2 198.1 L 499.2 195.2 L 500.0 195.5 L 500.0 198.4 C 500.0 200.7 501.1 202.6 503.4 203.4 C 505.4 204.1 506.8 203.0 506.8 200.8 L 506.8 193.9 C 500.8 188.4 499.0 185.0 499.0 180.8 L 499.0 176.8 C 499.0 173.7 500.2 172.4 502.7 173.3 C 504.5 173.9 506.0 175.7 506.9 177.7 C 506.9 176.9 507.0 176.1 507.2 175.3 L 507.9 175.6 C 507.7 176.7 507.6 177.9 507.6 179.1 Z M 507.6 201.1 " fill="#1A1918"></path><path d="M 539.2 212.6 C 539.2 214.8 540.7 216.9 542.7 217.7 C 544.9 218.5 546.1 217.4 546.1 215.1 L 546.1 205.5 L 539.2 203.0 Z M 546.9 193.9 L 546.9 198.0 L 546.1 197.7 L 546.1 193.6 C 546.1 191.3 544.8 189.4 542.7 188.6 C 540.4 187.8 539.2 189.0 539.2 191.2 L 539.2 202.2 L 546.9 205.0 L 546.9 215.4 C 546.9 218.1 545.3 219.4 542.7 218.5 C 540.0 217.5 538.4 215.0 538.4 212.3 L 538.4 190.9 C 538.4 188.2 540.2 186.9 542.7 187.8 C 545.3 188.7 546.9 191.2 546.9 193.9 " fill="#1A1918"></path><path d="M 542.7 215.6 C 541.7 215.2 541.5 214.3 541.5 213.4 L 541.5 205.8 L 544.0 206.7 L 544.0 214.3 C 544.0 215.3 543.8 215.9 542.7 215.6 " fill="#1A1918"></path><path d="M 502.0 177.8 C 502.0 176.6 502.3 176.2 503.2 176.5 C 504.1 176.8 504.5 178.3 504.6 180.1 L 504.6 188.4 C 502.8 186.5 502.0 184.5 502.0 182.4 Z M 502.0 177.8 " fill="#1A1918"></path><path d="M 530.8 210.3 L 530.8 183.9 L 531.6 184.2 L 531.6 210.6 C 531.6 213.0 530.5 214.0 528.6 213.3 C 526.7 212.7 525.0 210.8 523.6 208.0 C 523.5 209.9 522.5 211.1 520.5 210.4 C 518.7 209.7 517.0 207.9 515.5 205.1 L 515.5 208.2 L 514.7 207.9 L 514.7 178.0 L 515.5 178.3 L 515.5 203.9 C 517.0 206.9 518.7 209.0 520.4 209.6 C 521.9 210.1 522.7 209.2 522.7 207.3 L 522.7 181.0 L 523.6 181.2 L 523.6 206.8 C 525.1 209.8 526.8 211.9 528.5 212.5 C 530.0 213.1 530.8 212.1 530.8 210.3 " fill="#1A1918"></path><path d="M 534.5 176.5 C 534.4 176.5 534.3 176.5 534.2 176.5 L 533.4 176.2 L 533.4 169.6 L 534.1 169.8 C 534.6 170.0 534.8 170.4 534.8 170.9 L 534.8 176.0 C 534.8 176.5 534.6 176.5 534.5 176.5 " fill="#1A1918"></path><path d="M 525.5 168.2 L 526.6 168.6 L 526.1 172.4 Z M 525.5 168.2 " fill="#1A1918"></path><path d="M 562.1 186.7 C 562.0 186.7 562.0 186.7 561.9 186.6 C 561.5 186.5 561.1 186.0 561.1 185.6 L 561.1 180.2 C 561.1 179.8 561.4 179.7 561.8 179.8 C 562.2 179.9 562.5 180.4 562.5 180.8 L 562.5 186.2 C 562.5 186.5 562.4 186.7 562.1 186.7 " fill="#1A1918"></path></g></g></g></g></g></svg>