<?xml version="1.0" encoding="UTF-8" standalone="no"?><svg xmlns="http://www.w3.org/2000/svg" xmlns:xlink="http://www.w3.org/1999/xlink" clip-rule="evenodd" stroke-miterlimit="4.00" viewBox="0 0 1024 768"><desc>SVG generated by Keynote</desc><defs></defs><g transform="matrix(1.00, 0.00, -0.00, -1.00, 0.0, 768.0)"><path d="M 0.0 768.0 L 1024.0 768.0 L 1024.0 0.0 L 0.0 0.0 Z M 0.0 768.0 " fill="#000000"></path><text xml:space="preserve" font-family="AvenirNext-DemiBold" font-weight="bold" font-size="53.0" fill="#FEFFFF" transform="matrix(1.00, 0.00, -0.00, -1.00, 74.0, 677.0)">I</text><text xml:space="preserve" font-family="AvenirNext-DemiBold" font-weight="bold" font-size="53.0" fill="#FEFFFF" transform="matrix(1.00, 0.00, -0.00, -1.00, 88.9, 677.0)">N</text><text xml:space="preserve" font-family="AvenirNext-DemiBold" font-weight="bold" font-size="53.0" fill="#FEFFFF" transform="matrix(1.00, 0.00, -0.00, -1.00, 130.3, 677.0)">S</text><text xml:space="preserve" font-family="AvenirNext-DemiBold" font-weight="bold" font-size="53.0" fill="#FEFFFF" transform="matrix(1.00, 0.00, -0.00, -1.00, 160.7, 677.0)">c</text><text xml:space="preserve" font-family="AvenirNext-DemiBold" font-weight="bold" font-size="53.0" fill="#FEFFFF" transform="matrix(1.00, 0.00, -0.00, -1.00, 186.6, 677.0)">o</text><text xml:space="preserve" font-family="AvenirNext-DemiBold" font-weight="bold" font-size="53.0" fill="#FEFFFF" transform="matrix(1.00, 0.00, -0.00, -1.00, 218.9, 677.0)">r</text><text xml:space="preserve" font-family="AvenirNext-DemiBold" font-weight="bold" font-size="53.0" fill="#FEFFFF" transform="matrix(1.00, 0.00, -0.00, -1.00, 237.2, 677.0)">e</text><text xml:space="preserve" font-family="Avenir-Book" font-size="27.5" fill="#FEFFFF" transform="matrix(1.00, 0.00, -0.00, -1.00, 74.0, 633.0)">A</text><text xml:space="preserve" font-family="Avenir-Book" font-size="27.5" fill="#FEFFFF" transform="matrix(1.00, 0.00, -0.00, -1.00, 92.9, 633.0)">n</text><text xml:space="preserve" font-family="Avenir-Book" font-size="27.5" fill="#FEFFFF" transform="matrix(1.00, 0.00, -0.00, -1.00, 108.2, 633.0)"> </text><text xml:space="preserve" font-family="Avenir-Book" font-size="27.5" fill="#FEFFFF" transform="matrix(1.00, 0.00, -0.00, -1.00, 115.8, 633.0)">e</text><text xml:space="preserve" font-family="Avenir-Book" font-size="27.5" fill="#FEFFFF" transform="matrix(1.00, 0.00, -0.00, -1.00, 131.1, 633.0)">n</text><text xml:space="preserve" font-family="Avenir-Book" font-size="27.5" fill="#FEFFFF" transform="matrix(1.00, 0.00, -0.00, -1.00, 146.4, 633.0)">v</text><text xml:space="preserve" font-family="Avenir-Book" font-size="27.5" fill="#FEFFFF" transform="matrix(1.00, 0.00, -0.00, -1.00, 159.6, 633.0)">i</text><text xml:space="preserve" font-family="Avenir-Book" font-size="27.5" fill="#FEFFFF" transform="matrix(1.00, 0.00, -0.00, -1.00, 166.2, 633.0)">r</text><text xml:space="preserve" font-family="Avenir-Book" font-size="27.5" fill="#FEFFFF" transform="matrix(1.00, 0.00, -0.00, -1.00, 174.9, 633.0)">o</text><text xml:space="preserve" font-family="Avenir-Book" font-size="27.5" fill="#FEFFFF" transform="matrix(1.00, 0.00, -0.00, -1.00, 191.2, 633.0)">n</text><text xml:space="preserve" font-family="Avenir-Book" font-size="27.5" fill="#FEFFFF" transform="matrix(1.00, 0.00, -0.00, -1.00, 206.5, 633.0)">m</text><text xml:space="preserve" font-family="Avenir-Book" font-size="27.5" fill="#FEFFFF" transform="matrix(1.00, 0.00, -0.00, -1.00, 229.9, 633.0)">e</text><text xml:space="preserve" font-family="Avenir-Book" font-size="27.5" fill="#FEFFFF" transform="matrix(1.00, 0.00, -0.00, -1.00, 245.2, 633.0)">n</text><text xml:space="preserve" font-family="Avenir-Book" font-size="27.5" fill="#FEFFFF" transform="matrix(1.00, 0.00, -0.00, -1.00, 260.5, 633.0)">t</text><text xml:space="preserve" font-family="Avenir-Book" font-size="27.5" fill="#FEFFFF" transform="matrix(1.00, 0.00, -0.00, -1.00, 269.6, 633.0)"> </text><text xml:space="preserve" font-family="Avenir-Book" font-size="27.5" fill="#FEFFFF" transform="matrix(1.00, 0.00, -0.00, -1.00, 277.3, 633.0)">f</text><text xml:space="preserve" font-family="Avenir-Book" font-size="27.5" fill="#FEFFFF" transform="matrix(1.00, 0.00, -0.00, -1.00, 285.4, 633.0)">o</text><text xml:space="preserve" font-family="Avenir-Book" font-size="27.5" fill="#FEFFFF" transform="matrix(1.00, 0.00, -0.00, -1.00, 301.7, 633.0)">r</text><text xml:space="preserve" font-family="Avenir-Book" font-size="27.5" fill="#FEFFFF" transform="matrix(1.00, 0.00, -0.00, -1.00, 310.8, 633.0)"> </text><text xml:space="preserve" font-family="Avenir-Book" font-size="27.5" fill="#FEFFFF" transform="matrix(1.00, 0.00, -0.00, -1.00, 318.5, 633.0)">t</text><text xml:space="preserve" font-family="Avenir-Book" font-size="27.5" fill="#FEFFFF" transform="matrix(1.00, 0.00, -0.00, -1.00, 327.6, 633.0)">h</text><text xml:space="preserve" font-family="Avenir-Book" font-size="27.5" fill="#FEFFFF" transform="matrix(1.00, 0.00, -0.00, -1.00, 342.9, 633.0)">e</text><text xml:space="preserve" font-family="Avenir-Book" font-size="27.5" fill="#FEFFFF" transform="matrix(1.00, 0.00, -0.00, -1.00, 358.2, 633.0)"> </text><text xml:space="preserve" font-family="Avenir-Book" font-size="27.5" fill="#FEFFFF" transform="matrix(1.00, 0.00, -0.00, -1.00, 365.8, 633.0)">d</text><text xml:space="preserve" font-family="Avenir-Book" font-size="27.5" fill="#FEFFFF" transform="matrix(1.00, 0.00, -0.00, -1.00, 382.6, 633.0)">e</text><text xml:space="preserve" font-family="Avenir-Book" font-size="27.5" fill="#FEFFFF" transform="matrix(1.00, 0.00, -0.00, -1.00, 397.9, 633.0)">s</text><text xml:space="preserve" font-family="Avenir-Book" font-size="27.5" fill="#FEFFFF" transform="matrix(1.00, 0.00, -0.00, -1.00, 409.6, 633.0)">i</text><text xml:space="preserve" font-family="Avenir-Book" font-size="27.5" fill="#FEFFFF" transform="matrix(1.00, 0.00, -0.00, -1.00, 416.2, 633.0)">g</text><text xml:space="preserve" font-family="Avenir-Book" font-size="27.5" fill="#FEFFFF" transform="matrix(1.00, 0.00, -0.00, -1.00, 433.0, 633.0)">n</text><text xml:space="preserve" font-family="Avenir-Book" font-size="27.5" fill="#FEFFFF" transform="matrix(1.00, 0.00, -0.00, -1.00, 448.3, 633.0)"> </text><text xml:space="preserve" font-family="Avenir-Book" font-size="27.5" fill="#FEFFFF" transform="matrix(1.00, 0.00, -0.00, -1.00, 456.0, 633.0)">o</text><text xml:space="preserve" font-family="Avenir-Book" font-size="27.5" fill="#FEFFFF" transform="matrix(1.00, 0.00, -0.00, -1.00, 472.3, 633.0)">f</text><text xml:space="preserve" font-family="Avenir-Book" font-size="27.5" fill="#FEFFFF" transform="matrix(1.00, 0.00, -0.00, -1.00, 480.4, 633.0)"> </text><text xml:space="preserve" font-family="Avenir-Book" font-size="27.5" fill="#FEFFFF" transform="matrix(1.00, 0.00, -0.00, -1.00, 488.1, 633.0)">i</text><text xml:space="preserve" font-family="Avenir-Book" font-size="27.5" fill="#FEFFFF" transform="matrix(1.00, 0.00, -0.00, -1.00, 494.7, 633.0)">n</text><text xml:space="preserve" font-family="Avenir-Book" font-size="27.5" fill="#FEFFFF" transform="matrix(1.00, 0.00, -0.00, -1.00, 510.0, 633.0)">t</text><text xml:space="preserve" font-family="Avenir-Book" font-size="27.5" fill="#FEFFFF" transform="matrix(1.00, 0.00, -0.00, -1.00, 519.1, 633.0)">e</text><text xml:space="preserve" font-family="Avenir-Book" font-size="27.5" fill="#FEFFFF" transform="matrix(1.00, 0.00, -0.00, -1.00, 534.4, 633.0)">r</text><text xml:space="preserve" font-family="Avenir-Book" font-size="27.5" fill="#FEFFFF" transform="matrix(1.00, 0.00, -0.00, -1.00, 543.5, 633.0)">a</text><text xml:space="preserve" font-family="Avenir-Book" font-size="27.5" fill="#FEFFFF" transform="matrix(1.00, 0.00, -0.00, -1.00, 557.8, 633.0)">c</text><text xml:space="preserve" font-family="Avenir-Book" font-size="27.5" fill="#FEFFFF" transform="matrix(1.00, 0.00, -0.00, -1.00, 571.0, 633.0)">t</text><text xml:space="preserve" font-family="Avenir-Book" font-size="27.5" fill="#FEFFFF" transform="matrix(1.00, 0.00, -0.00, -1.00, 580.2, 633.0)">i</text><text xml:space="preserve" font-family="Avenir-Book" font-size="27.5" fill="#FEFFFF" transform="matrix(1.00, 0.00, -0.00, -1.00, 586.8, 633.0)">v</text><text xml:space="preserve" font-family="Avenir-Book" font-size="27.5" fill="#FEFFFF" transform="matrix(1.00, 0.00, -0.00, -1.00, 600.0, 633.0)">e</text><text xml:space="preserve" font-family="Avenir-Book" font-size="27.5" fill="#FEFFFF" transform="matrix(1.00, 0.00, -0.00, -1.00, 615.3, 633.0)"> </text><text xml:space="preserve" font-family="Avenir-Book" font-size="27.5" fill="#FEFFFF" transform="matrix(1.00, 0.00, -0.00, -1.00, 623.0, 633.0)">a</text><text xml:space="preserve" font-family="Avenir-Book" font-size="27.5" fill="#FEFFFF" transform="matrix(1.00, 0.00, -0.00, -1.00, 637.2, 633.0)">u</text><text xml:space="preserve" font-family="Avenir-Book" font-size="27.5" fill="#FEFFFF" transform="matrix(1.00, 0.00, -0.00, -1.00, 652.5, 633.0)">g</text><text xml:space="preserve" font-family="Avenir-Book" font-size="27.5" fill="#FEFFFF" transform="matrix(1.00, 0.00, -0.00, -1.00, 669.3, 633.0)">m</text><text xml:space="preserve" font-family="Avenir-Book" font-size="27.5" fill="#FEFFFF" transform="matrix(1.00, 0.00, -0.00, -1.00, 692.7, 633.0)">e</text><text xml:space="preserve" font-family="Avenir-Book" font-size="27.5" fill="#FEFFFF" transform="matrix(1.00, 0.00, -0.00, -1.00, 708.0, 633.0)">n</text><text xml:space="preserve" font-family="Avenir-Book" font-size="27.5" fill="#FEFFFF" transform="matrix(1.00, 0.00, -0.00, -1.00, 723.3, 633.0)">t</text><text xml:space="preserve" font-family="Avenir-Book" font-size="27.5" fill="#FEFFFF" transform="matrix(1.00, 0.00, -0.00, -1.00, 732.5, 633.0)">e</text><text xml:space="preserve" font-family="Avenir-Book" font-size="27.5" fill="#FEFFFF" transform="matrix(1.00, 0.00, -0.00, -1.00, 747.7, 633.0)">d</text><text xml:space="preserve" font-family="Avenir-Book" font-size="27.5" fill="#FEFFFF" transform="matrix(1.00, 0.00, -0.00, -1.00, 764.6, 633.0)"> </text><text xml:space="preserve" font-family="Avenir-Book" font-size="27.5" fill="#FEFFFF" transform="matrix(1.00, 0.00, -0.00, -1.00, 772.2, 633.0)">m</text><text xml:space="preserve" font-family="Avenir-Book" font-size="27.5" fill="#FEFFFF" transform="matrix(1.00, 0.00, -0.00, -1.00, 795.6, 633.0)">u</text><text xml:space="preserve" font-family="Avenir-Book" font-size="27.5" fill="#FEFFFF" transform="matrix(1.00, 0.00, -0.00, -1.00, 810.9, 633.0)">s</text><text xml:space="preserve" font-family="Avenir-Book" font-size="27.5" fill="#FEFFFF" transform="matrix(1.00, 0.00, -0.00, -1.00, 822.6, 633.0)">i</text><text xml:space="preserve" font-family="Avenir-Book" font-size="27.5" fill="#FEFFFF" transform="matrix(1.00, 0.00, -0.00, -1.00, 829.2, 633.0)">c</text><text xml:space="preserve" font-family="Avenir-Book" font-size="27.5" fill="#FEFFFF" transform="matrix(1.00, 0.00, -0.00, -1.00, 842.5, 633.0)"> </text><text xml:space="preserve" font-family="Avenir-Book" font-size="27.5" fill="#FEFFFF" transform="matrix(1.00, 0.00, -0.00, -1.00, 850.1, 633.0)">s</text><text xml:space="preserve" font-family="Avenir-Book" font-size="27.5" fill="#FEFFFF" transform="matrix(1.00, 0.00, -0.00, -1.00, 861.8, 633.0)">c</text><text xml:space="preserve" font-family="Avenir-Book" font-size="27.5" fill="#FEFFFF" transform="matrix(1.00, 0.00, -0.00, -1.00, 875.1, 633.0)">o</text><text xml:space="preserve" font-family="Avenir-Book" font-size="27.5" fill="#FEFFFF" transform="matrix(1.00, 0.00, -0.00, -1.00, 891.4, 633.0)">r</text><text xml:space="preserve" font-family="Avenir-Book" font-size="27.5" fill="#FEFFFF" transform="matrix(1.00, 0.00, -0.00, -1.00, 900.0, 633.0)">e</text><text xml:space="preserve" font-family="Avenir-Book" font-size="27.5" fill="#FEFFFF" transform="matrix(1.00, 0.00, -0.00, -1.00, 915.3, 633.0)">s</text><image xlink:href="../../B04F1C97-ECAB-4D96-BED1-068678BAA01E/assets/BEF333F0D2746660C5E29CAA3BCC24B1.png" width="236.00" height="101.00" transform="matrix(1.00, 0.00, -0.00, -1.00, -285.0, 1087.0)"></image><text xml:space="preserve" font-family="Avenir-Heavy" font-weight="bold" font-size="34.0" fill="#DCDDE0" transform="matrix(1.00, 0.00, -0.00, -1.00, 77.0, 566.0)">I</text><text xml:space="preserve" font-family="Avenir-Heavy" font-weight="bold" font-size="34.0" fill="#DCDDE0" transform="matrix(1.00, 0.00, -0.00, -1.00, 86.5, 566.0)">n</text><text xml:space="preserve" font-family="Avenir-Heavy" font-weight="bold" font-size="34.0" fill="#DCDDE0" transform="matrix(1.00, 0.00, -0.00, -1.00, 106.0, 566.0)">t</text><text xml:space="preserve" font-family="Avenir-Heavy" font-weight="bold" font-size="34.0" fill="#DCDDE0" transform="matrix(1.00, 0.00, -0.00, -1.00, 119.2, 566.0)">e</text><text xml:space="preserve" font-family="Avenir-Heavy" font-weight="bold" font-size="34.0" fill="#DCDDE0" transform="matrix(1.00, 0.00, -0.00, -1.00, 138.7, 566.0)">r</text><text xml:space="preserve" font-family="Avenir-Heavy" font-weight="bold" font-size="34.0" fill="#DCDDE0" transform="matrix(1.00, 0.00, -0.00, -1.00, 151.9, 566.0)">a</text><text xml:space="preserve" font-family="Avenir-Heavy" font-weight="bold" font-size="34.0" fill="#DCDDE0" transform="matrix(1.00, 0.00, -0.00, -1.00, 170.2, 566.0)">c</text><text xml:space="preserve" font-family="Avenir-Heavy" font-weight="bold" font-size="34.0" fill="#DCDDE0" transform="matrix(1.00, 0.00, -0.00, -1.00, 186.6, 566.0)">t</text><text xml:space="preserve" font-family="Avenir-Heavy" font-weight="bold" font-size="34.0" fill="#DCDDE0" transform="matrix(1.00, 0.00, -0.00, -1.00, 199.8, 566.0)">i</text><text xml:space="preserve" font-family="Avenir-Heavy" font-weight="bold" font-size="34.0" fill="#DCDDE0" transform="matrix(1.00, 0.00, -0.00, -1.00, 208.7, 566.0)">o</text><text xml:space="preserve" font-family="Avenir-Heavy" font-weight="bold" font-size="34.0" fill="#DCDDE0" transform="matrix(1.00, 0.00, -0.00, -1.00, 229.4, 566.0)">n</text><g><clipPath id="clip-652"><path d="M 185.0 447.0 L 875.7 447.0 L 875.7 550.1 L 185.0 550.1 Z M 185.0 447.0 "></path></clipPath><g clip-path="url(#clip-652)"><image xlink:href="../../E00DE75B-55CE-46D0-A584-ADAC1C344A26/assets/78F632E1D2E6999108E7A5445581208C.png" width="118.00" height="54.00" transform="matrix(1.55, 0.00, -0.00, -1.56, 230.8, 530.5)"></image><image xlink:href="../../E00DE75B-55CE-46D0-A584-ADAC1C344A26/assets/78F632E1D2E6999108E7A5445581208C.png" width="118.00" height="54.00" transform="matrix(1.55, 0.00, -0.00, -1.56, 632.8, 530.5)"></image><image xlink:href="../../E00DE75B-55CE-46D0-A584-ADAC1C344A26/assets/D6897EACCE3F13E4BBC79E3486F78987.png" width="78.00" height="54.00" transform="matrix(1.55, 0.00, -0.00, -1.56, 513.3, 530.5)"></image><path d="M 247.9 519.6 L 396.9 519.6 L 396.9 469.6 L 247.9 469.6 Z M 247.9 519.6 " fill="#FEFFFF"></path><path d="M 98.0 667.0 L 194.0 667.0 L 194.0 699.0 L 98.0 699.0 Z M 98.0 667.0 " fill="none" stroke="#000000" stroke-width="1.00" stroke-miterlimit="0.00" stroke-linecap="round" stroke-linejoin="round" transform="matrix(1.55, 0.00, 0.00, -1.56, 95.8, 1561.2)"></path><text xml:space="preserve" font-family="Helvetica" font-size="12.0" fill="#000000" transform="matrix(1.55, 0.00, -0.00, -1.56, 265.1, 489.2)">O</text><text xml:space="preserve" font-family="Helvetica" font-size="12.0" fill="#000000" transform="matrix(1.55, 0.00, -0.00, -1.56, 279.5, 489.2)">S</text><text xml:space="preserve" font-family="Helvetica" font-size="12.0" fill="#000000" transform="matrix(1.55, 0.00, -0.00, -1.56, 292.0, 489.2)">C</text><text xml:space="preserve" font-family="Helvetica" font-size="12.0" fill="#000000" transform="matrix(1.55, 0.00, -0.00, -1.56, 305.4, 489.2)"> </text><text xml:space="preserve" font-family="Helvetica" font-size="12.0" fill="#000000" transform="matrix(1.55, 0.00, -0.00, -1.56, 310.6, 489.2)">a</text><text xml:space="preserve" font-family="Helvetica" font-size="12.0" fill="#000000" transform="matrix(1.55, 0.00, -0.00, -1.56, 321.0, 489.2)">d</text><text xml:space="preserve" font-family="Helvetica" font-size="12.0" fill="#000000" transform="matrix(1.55, 0.00, -0.00, -1.56, 331.3, 489.2)">d</text><text xml:space="preserve" font-family="Helvetica" font-size="12.0" fill="#000000" transform="matrix(1.55, 0.00, -0.00, -1.56, 341.7, 489.2)">r</text><text xml:space="preserve" font-family="Helvetica" font-size="12.0" fill="#000000" transform="matrix(1.55, 0.00, -0.00, -1.56, 347.9, 489.2)">e</text><text xml:space="preserve" font-family="Helvetica" font-size="12.0" fill="#000000" transform="matrix(1.55, 0.00, -0.00, -1.56, 358.2, 489.2)">s</text><text xml:space="preserve" font-family="Helvetica" font-size="12.0" fill="#000000" transform="matrix(1.55, 0.00, -0.00, -1.56, 367.6, 489.2)">s</text><path d="M 425.0 514.9 L 499.5 514.9 L 499.5 475.9 L 425.0 475.9 Z M 425.0 514.9 " fill="#FEFFFF"></path><text xml:space="preserve" font-family="Courier" font-size="12.0" fill="#1032FF" transform="matrix(1.55, 0.00, -0.00, -1.56, 434.3, 489.2)">w</text><text xml:space="preserve" font-family="Courier" font-size="12.0" fill="#1032FF" transform="matrix(1.55, 0.00, -0.00, -1.56, 445.4, 489.2)">a</text><text xml:space="preserve" font-family="Courier" font-size="12.0" fill="#1032FF" transform="matrix(1.55, 0.00, -0.00, -1.56, 456.6, 489.2)">t</text><text xml:space="preserve" font-family="Courier" font-size="12.0" fill="#1032FF" transform="matrix(1.55, 0.00, -0.00, -1.56, 467.8, 489.2)">c</text><text xml:space="preserve" font-family="Courier" font-size="12.0" fill="#1032FF" transform="matrix(1.55, 0.00, -0.00, -1.56, 479.0, 489.2)">h</text><path d="M 649.9 519.6 L 798.9 519.6 L 798.9 469.6 L 649.9 469.6 Z M 649.9 519.6 " fill="#FEFFFF"></path><path d="M 357.0 667.0 L 453.0 667.0 L 453.0 699.0 L 357.0 699.0 Z M 357.0 667.0 " fill="none" stroke="#000000" stroke-width="1.00" stroke-miterlimit="0.00" stroke-linecap="round" stroke-linejoin="round" transform="matrix(1.55, 0.00, 0.00, -1.56, 95.8, 1561.2)"></path><text xml:space="preserve" font-family="Helvetica" font-size="12.0" fill="#000000" transform="matrix(1.55, 0.00, -0.00, -1.56, 685.2, 489.2)">m</text><text xml:space="preserve" font-family="Helvetica" font-size="12.0" fill="#000000" transform="matrix(1.55, 0.00, -0.00, -1.56, 700.7, 489.2)">e</text><text xml:space="preserve" font-family="Helvetica" font-size="12.0" fill="#000000" transform="matrix(1.55, 0.00, -0.00, -1.56, 711.1, 489.2)">s</text><text xml:space="preserve" font-family="Helvetica" font-size="12.0" fill="#000000" transform="matrix(1.55, 0.00, -0.00, -1.56, 720.4, 489.2)">s</text><text xml:space="preserve" font-family="Helvetica" font-size="12.0" fill="#000000" transform="matrix(1.55, 0.00, -0.00, -1.56, 729.7, 489.2)">a</text><text xml:space="preserve" font-family="Helvetica" font-size="12.0" fill="#000000" transform="matrix(1.55, 0.00, -0.00, -1.56, 740.0, 489.2)">g</text><text xml:space="preserve" font-family="Helvetica" font-size="12.0" fill="#000000" transform="matrix(1.55, 0.00, -0.00, -1.56, 750.4, 489.2)">e</text><path d="M 336.0 683.0 L 344.0 683.0 L 349.0 683.0 L 357.0 683.0 " fill="none" stroke="#EDDB78" stroke-width="2.00" stroke-miterlimit="0.00" transform="matrix(1.55, 0.00, 0.00, -1.56, 95.8, 1561.2)"></path><path d="M 453.0 683.0 L 461.0 683.0 L 495.0 683.0 L 495.0 682.0 " fill="none" stroke="#EDDB78" stroke-width="2.00" stroke-miterlimit="0.00" transform="matrix(1.55, 0.00, 0.00, -1.56, 95.8, 1561.2)"></path><path d="M 67.0 684.0 L 67.0 683.0 L 90.0 683.0 L 98.0 683.0 " fill="none" stroke="#EDDB78" stroke-width="2.00" stroke-miterlimit="0.00" transform="matrix(1.55, 0.00, 0.00, -1.56, 95.8, 1561.2)"></path><path d="M 530.3 519.6 L 617.3 519.6 L 617.3 469.6 L 530.3 469.6 Z M 530.3 519.6 " fill="#FEFFFF"></path><path d="M 280.0 667.0 L 336.0 667.0 L 336.0 699.0 L 280.0 699.0 Z M 280.0 667.0 " fill="none" stroke="#000000" stroke-width="1.00" stroke-miterlimit="0.00" stroke-linecap="round" stroke-linejoin="round" transform="matrix(1.55, 0.00, 0.00, -1.56, 95.8, 1561.2)"></path><text xml:space="preserve" font-family="Helvetica" font-size="12.0" fill="#000000" transform="matrix(1.55, 0.00, -0.00, -1.56, 549.6, 489.2)">e</text><text xml:space="preserve" font-family="Helvetica" font-size="12.0" fill="#000000" transform="matrix(1.55, 0.00, -0.00, -1.56, 560.0, 489.2)">v</text><text xml:space="preserve" font-family="Helvetica" font-size="12.0" fill="#000000" transform="matrix(1.55, 0.00, -0.00, -1.56, 569.3, 489.2)">e</text><text xml:space="preserve" font-family="Helvetica" font-size="12.0" fill="#000000" transform="matrix(1.55, 0.00, -0.00, -1.56, 579.7, 489.2)">n</text><text xml:space="preserve" font-family="Helvetica" font-size="12.0" fill="#000000" transform="matrix(1.55, 0.00, -0.00, -1.56, 590.0, 489.2)">t</text><path d="M 194.0 683.0 L 213.0 683.0 " fill="none" stroke="#EDDB78" stroke-width="2.00" stroke-miterlimit="0.00" stroke-linecap="round" stroke-linejoin="round" transform="matrix(1.55, 0.00, 0.00, -1.56, 95.8, 1561.2)"></path><path d="M 261.0 683.0 L 280.0 683.0 " fill="none" stroke="#EDDB78" stroke-width="2.00" stroke-miterlimit="0.00" stroke-linecap="round" stroke-linejoin="round" transform="matrix(1.55, 0.00, 0.00, -1.56, 95.8, 1561.2)"></path><path d="M 453.0 683.0 L 461.0 683.0 L 461.0 656.0 L 399.0 656.0 L 349.0 656.0 L 349.0 683.0 L 357.0 683.0 " fill="none" stroke="#EDDB78" stroke-width="2.00" stroke-miterlimit="0.00" transform="matrix(1.55, 0.00, 0.00, -1.56, 95.8, 1561.2)"></path></g></g><image xlink:href="../../40A46CF8-078C-445B-8F95-F3F871FDD889/assets/E313AF2D7EFABCB310C584EC9049FBAD.png" width="78.00" height="50.00" transform="matrix(0.99, 0.00, -0.00, -1.00, 424.7, 456.2)" opacity="0.50"></image><path d="M 427.7 455.2 L 499.3 455.2 L 499.3 411.2 L 427.7 411.2 Z M 427.7 455.2 " fill="#FEFFFE"></path><g><clipPath id="clip-653"><path d="M 426.7 411.2 L 500.3 411.2 L 500.3 455.2 L 426.7 455.2 Z M 426.7 411.2 "></path></clipPath><g clip-path="url(#clip-653)"><text xml:space="preserve" font-family="Courier-Bold" font-weight="bold" font-size="20.0" fill="#1232FE" transform="matrix(1.00, 0.00, -0.00, -1.00, 440.0, 426.0)">p</text><text xml:space="preserve" font-family="Courier-Bold" font-weight="bold" font-size="20.0" fill="#1232FE" transform="matrix(1.00, 0.00, -0.00, -1.00, 452.0, 426.0)">u</text><text xml:space="preserve" font-family="Courier-Bold" font-weight="bold" font-size="20.0" fill="#1232FE" transform="matrix(1.00, 0.00, -0.00, -1.00, 464.0, 426.0)">s</text><text xml:space="preserve" font-family="Courier-Bold" font-weight="bold" font-size="20.0" fill="#1232FE" transform="matrix(1.00, 0.00, -0.00, -1.00, 476.0, 426.0)">h</text></g></g><image xlink:href="../../40A46CF8-078C-445B-8F95-F3F871FDD889/assets/E313AF2D7EFABCB310C584EC9049FBAD.png" width="78.00" height="50.00" transform="matrix(0.99, 0.00, -0.00, -1.00, 424.7, 395.9)" opacity="0.50"></image><path d="M 427.7 394.9 L 499.3 394.9 L 499.3 350.9 L 427.7 350.9 Z M 427.7 394.9 " fill="#FEFFFE"></path><g><clipPath id="clip-654"><path d="M 426.7 350.9 L 500.3 350.9 L 500.3 394.9 L 426.7 394.9 Z M 426.7 350.9 "></path></clipPath><g clip-path="url(#clip-654)"><text xml:space="preserve" font-family="Courier-Bold" font-weight="bold" font-size="20.0" fill="#1232FE" transform="matrix(1.00, 0.00, -0.00, -1.00, 446.0, 366.0)">p</text><text xml:space="preserve" font-family="Courier-Bold" font-weight="bold" font-size="20.0" fill="#1232FE" transform="matrix(1.00, 0.00, -0.00, -1.00, 458.0, 366.0)">o</text><text xml:space="preserve" font-family="Courier-Bold" font-weight="bold" font-size="20.0" fill="#1232FE" transform="matrix(1.00, 0.00, -0.00, -1.00, 470.0, 366.0)">p</text></g></g><image xlink:href="../../905551FE-997C-44F3-A1C7-4128C656A06E/assets/A72B866872FF6B1A943B80D67B0C2646.png" width="1004.00" height="150.00" transform="matrix(1.00, 0.00, -0.00, -1.00, -0.6, 161.5)" opacity="0.75"></image><path d="M 119.4 262.8 L 882.8 262.8 L 882.8 90.5 L 119.4 90.5 Z M 119.4 262.8 " fill="#DCDDE0"></path><text xml:space="preserve" font-family="Courier" font-size="24.0" fill="#000000" transform="matrix(1.00, 0.00, -0.00, -1.00, 134.0, 212.0)">/</text><text xml:space="preserve" font-family="Courier" font-size="24.0" fill="#000000" transform="matrix(1.00, 0.00, -0.00, -1.00, 148.4, 212.0)">I</text><text xml:space="preserve" font-family="Courier" font-size="24.0" fill="#000000" transform="matrix(1.00, 0.00, -0.00, -1.00, 162.8, 212.0)">T</text><text xml:space="preserve" font-family="Courier" font-size="24.0" fill="#000000" transform="matrix(1.00, 0.00, -0.00, -1.00, 177.2, 212.0)">L</text><text xml:space="preserve" font-family="Courier" font-size="24.0" fill="#000000" transform="matrix(1.00, 0.00, -0.00, -1.00, 191.6, 212.0)">/</text><text xml:space="preserve" font-family="Courier" font-size="24.0" fill="#000000" transform="matrix(1.00, 0.00, -0.00, -1.00, 206.0, 212.0)">s</text><text xml:space="preserve" font-family="Courier" font-size="24.0" fill="#000000" transform="matrix(1.00, 0.00, -0.00, -1.00, 220.4, 212.0)">c</text><text xml:space="preserve" font-family="Courier" font-size="24.0" fill="#000000" transform="matrix(1.00, 0.00, -0.00, -1.00, 234.8, 212.0)">e</text><text xml:space="preserve" font-family="Courier" font-size="24.0" fill="#000000" transform="matrix(1.00, 0.00, -0.00, -1.00, 249.2, 212.0)">n</text><text xml:space="preserve" font-family="Courier" font-size="24.0" fill="#000000" transform="matrix(1.00, 0.00, -0.00, -1.00, 263.6, 212.0)">e</text><text xml:space="preserve" font-family="Courier" font-size="24.0" fill="#000000" transform="matrix(1.00, 0.00, -0.00, -1.00, 278.0, 212.0)">/</text><text xml:space="preserve" font-family="Courier" font-size="24.0" fill="#000000" transform="matrix(1.00, 0.00, -0.00, -1.00, 292.5, 212.0)">m</text><text xml:space="preserve" font-family="Courier" font-size="24.0" fill="#000000" transform="matrix(1.00, 0.00, -0.00, -1.00, 306.9, 212.0)">y</text><text xml:space="preserve" font-family="Courier" font-size="24.0" fill="#000000" transform="matrix(1.00, 0.00, -0.00, -1.00, 321.3, 212.0)">O</text><text xml:space="preserve" font-family="Courier" font-size="24.0" fill="#000000" transform="matrix(1.00, 0.00, -0.00, -1.00, 335.7, 212.0)">b</text><text xml:space="preserve" font-family="Courier" font-size="24.0" fill="#000000" transform="matrix(1.00, 0.00, -0.00, -1.00, 350.1, 212.0)">j</text><text xml:space="preserve" font-family="Courier" font-size="24.0" fill="#000000" transform="matrix(1.00, 0.00, -0.00, -1.00, 364.5, 212.0)">e</text><text xml:space="preserve" font-family="Courier" font-size="24.0" fill="#000000" transform="matrix(1.00, 0.00, -0.00, -1.00, 378.9, 212.0)">c</text><text xml:space="preserve" font-family="Courier" font-size="24.0" fill="#000000" transform="matrix(1.00, 0.00, -0.00, -1.00, 393.3, 212.0)">t</text><text xml:space="preserve" font-family="Courier" font-size="24.0" fill="#505050" transform="matrix(1.00, 0.00, -0.00, -1.00, 407.6, 212.0)"> </text><text xml:space="preserve" font-family="Courier" font-size="24.0" fill="#0432FF" transform="matrix(1.00, 0.00, -0.00, -1.00, 422.0, 212.0)">w</text><text xml:space="preserve" font-family="Courier" font-size="24.0" fill="#0432FF" transform="matrix(1.00, 0.00, -0.00, -1.00, 436.5, 212.0)">a</text><text xml:space="preserve" font-family="Courier" font-size="24.0" fill="#0432FF" transform="matrix(1.00, 0.00, -0.00, -1.00, 450.9, 212.0)">t</text><text xml:space="preserve" font-family="Courier" font-size="24.0" fill="#0432FF" transform="matrix(1.00, 0.00, -0.00, -1.00, 465.3, 212.0)">c</text><text xml:space="preserve" font-family="Courier" font-size="24.0" fill="#0432FF" transform="matrix(1.00, 0.00, -0.00, -1.00, 479.7, 212.0)">h</text><text xml:space="preserve" font-family="Courier" font-size="24.0" fill="#505050" transform="matrix(1.00, 0.00, -0.00, -1.00, 494.1, 212.0)"> </text><text xml:space="preserve" font-family="Courier" font-size="24.0" fill="#000000" transform="matrix(1.00, 0.00, -0.00, -1.00, 508.5, 212.0)">e</text><text xml:space="preserve" font-family="Courier" font-size="24.0" fill="#000000" transform="matrix(1.00, 0.00, -0.00, -1.00, 522.9, 212.0)">v</text><text xml:space="preserve" font-family="Courier" font-size="24.0" fill="#000000" transform="matrix(1.00, 0.00, -0.00, -1.00, 537.3, 212.0)">e</text><text xml:space="preserve" font-family="Courier" font-size="24.0" fill="#000000" transform="matrix(1.00, 0.00, -0.00, -1.00, 551.7, 212.0)">n</text><text xml:space="preserve" font-family="Courier" font-size="24.0" fill="#000000" transform="matrix(1.00, 0.00, -0.00, -1.00, 566.1, 212.0)">t</text><text xml:space="preserve" font-family="Courier" font-size="24.0" fill="#000000" transform="matrix(1.00, 0.00, -0.00, -1.00, 580.5, 212.0)"> </text><text xml:space="preserve" font-family="Courier" font-size="24.0" fill="#000000" transform="matrix(1.00, 0.00, -0.00, -1.00, 594.9, 212.0)">(</text><text xml:space="preserve" font-family="Courier" font-size="24.0" fill="#FF2600" transform="matrix(1.00, 0.00, -0.00, -1.00, 609.3, 212.0)">p</text><text xml:space="preserve" font-family="Courier" font-size="24.0" fill="#FF2600" transform="matrix(1.00, 0.00, -0.00, -1.00, 623.7, 212.0)">u</text><text xml:space="preserve" font-family="Courier" font-size="24.0" fill="#FF2600" transform="matrix(1.00, 0.00, -0.00, -1.00, 638.1, 212.0)">s</text><text xml:space="preserve" font-family="Courier" font-size="24.0" fill="#FF2600" transform="matrix(1.00, 0.00, -0.00, -1.00, 652.5, 212.0)">h</text><text xml:space="preserve" font-family="Courier" font-size="24.0" fill="#000000" transform="matrix(1.00, 0.00, -0.00, -1.00, 666.9, 212.0)">,</text><text xml:space="preserve" font-family="Courier" font-size="24.0" fill="#000000" transform="matrix(1.00, 0.00, -0.00, -1.00, 681.3, 212.0)"> </text><text xml:space="preserve" font-family="Courier" font-size="24.0" fill="#000000" transform="matrix(1.00, 0.00, -0.00, -1.00, 695.7, 212.0)">t</text><text xml:space="preserve" font-family="Courier" font-size="24.0" fill="#000000" transform="matrix(1.00, 0.00, -0.00, -1.00, 710.1, 212.0)">a</text><text xml:space="preserve" font-family="Courier" font-size="24.0" fill="#000000" transform="matrix(1.00, 0.00, -0.00, -1.00, 724.5, 212.0)">s</text><text xml:space="preserve" font-family="Courier" font-size="24.0" fill="#000000" transform="matrix(1.00, 0.00, -0.00, -1.00, 738.9, 212.0)">k</text><text xml:space="preserve" font-family="Courier" font-size="24.0" fill="#000000" transform="matrix(1.00, 0.00, -0.00, -1.00, 753.3, 212.0)">1</text><text xml:space="preserve" font-family="Courier" font-size="24.0" fill="#000000" transform="matrix(1.00, 0.00, -0.00, -1.00, 767.7, 212.0)">,</text><text xml:space="preserve" font-family="Courier" font-size="24.0" fill="#000000" transform="matrix(1.00, 0.00, -0.00, -1.00, 278.0, 183.0)">“</text><text xml:space="preserve" font-family="Courier" font-size="24.0" fill="#0432FF" transform="matrix(1.00, 0.00, -0.00, -1.00, 422.0, 183.0)">w</text><text xml:space="preserve" font-family="Courier" font-size="24.0" fill="#0432FF" transform="matrix(1.00, 0.00, -0.00, -1.00, 436.4, 183.0)">a</text><text xml:space="preserve" font-family="Courier" font-size="24.0" fill="#0432FF" transform="matrix(1.00, 0.00, -0.00, -1.00, 450.8, 183.0)">t</text><text xml:space="preserve" font-family="Courier" font-size="24.0" fill="#0432FF" transform="matrix(1.00, 0.00, -0.00, -1.00, 465.2, 183.0)">c</text><text xml:space="preserve" font-family="Courier" font-size="24.0" fill="#0432FF" transform="matrix(1.00, 0.00, -0.00, -1.00, 479.6, 183.0)">h</text><text xml:space="preserve" font-family="Courier" font-size="24.0" fill="#505050" transform="matrix(1.00, 0.00, -0.00, -1.00, 494.0, 183.0)"> </text><text xml:space="preserve" font-family="Courier" font-size="24.0" fill="#000000" transform="matrix(1.00, 0.00, -0.00, -1.00, 508.4, 183.0)">e</text><text xml:space="preserve" font-family="Courier" font-size="24.0" fill="#000000" transform="matrix(1.00, 0.00, -0.00, -1.00, 522.8, 183.0)">v</text><text xml:space="preserve" font-family="Courier" font-size="24.0" fill="#000000" transform="matrix(1.00, 0.00, -0.00, -1.00, 537.2, 183.0)">e</text><text xml:space="preserve" font-family="Courier" font-size="24.0" fill="#000000" transform="matrix(1.00, 0.00, -0.00, -1.00, 551.6, 183.0)">n</text><text xml:space="preserve" font-family="Courier" font-size="24.0" fill="#000000" transform="matrix(1.00, 0.00, -0.00, -1.00, 566.0, 183.0)">t</text><text xml:space="preserve" font-family="Courier" font-size="24.0" fill="#000000" transform="matrix(1.00, 0.00, -0.00, -1.00, 580.4, 183.0)"> </text><text xml:space="preserve" font-family="Courier" font-size="24.0" fill="#000000" transform="matrix(1.00, 0.00, -0.00, -1.00, 594.8, 183.0)">(</text><text xml:space="preserve" font-family="Courier" font-size="24.0" fill="#000000" transform="matrix(1.00, 0.00, -0.00, -1.00, 609.2, 183.0)">t</text><text xml:space="preserve" font-family="Courier" font-size="24.0" fill="#000000" transform="matrix(1.00, 0.00, -0.00, -1.00, 623.7, 183.0)">a</text><text xml:space="preserve" font-family="Courier" font-size="24.0" fill="#000000" transform="matrix(1.00, 0.00, -0.00, -1.00, 638.1, 183.0)">s</text><text xml:space="preserve" font-family="Courier" font-size="24.0" fill="#000000" transform="matrix(1.00, 0.00, -0.00, -1.00, 652.5, 183.0)">k</text><text xml:space="preserve" font-family="Courier" font-size="24.0" fill="#000000" transform="matrix(1.00, 0.00, -0.00, -1.00, 666.9, 183.0)">2</text><text xml:space="preserve" font-family="Courier" font-size="24.0" fill="#000000" transform="matrix(1.00, 0.00, -0.00, -1.00, 681.3, 183.0)">,</text><text xml:space="preserve" font-family="Courier" font-size="24.0" fill="#000000" transform="matrix(1.00, 0.00, -0.00, -1.00, 278.0, 154.0)">“</text><text xml:space="preserve" font-family="Courier" font-size="24.0" fill="#0432FF" transform="matrix(1.00, 0.00, -0.00, -1.00, 422.0, 154.0)">w</text><text xml:space="preserve" font-family="Courier" font-size="24.0" fill="#0432FF" transform="matrix(1.00, 0.00, -0.00, -1.00, 436.4, 154.0)">a</text><text xml:space="preserve" font-family="Courier" font-size="24.0" fill="#0432FF" transform="matrix(1.00, 0.00, -0.00, -1.00, 450.8, 154.0)">t</text><text xml:space="preserve" font-family="Courier" font-size="24.0" fill="#0432FF" transform="matrix(1.00, 0.00, -0.00, -1.00, 465.2, 154.0)">c</text><text xml:space="preserve" font-family="Courier" font-size="24.0" fill="#0432FF" transform="matrix(1.00, 0.00, -0.00, -1.00, 479.6, 154.0)">h</text><text xml:space="preserve" font-family="Courier" font-size="24.0" fill="#505050" transform="matrix(1.00, 0.00, -0.00, -1.00, 494.0, 154.0)"> </text><text xml:space="preserve" font-family="Courier" font-size="24.0" fill="#000000" transform="matrix(1.00, 0.00, -0.00, -1.00, 508.4, 154.0)">e</text><text xml:space="preserve" font-family="Courier" font-size="24.0" fill="#000000" transform="matrix(1.00, 0.00, -0.00, -1.00, 522.8, 154.0)">v</text><text xml:space="preserve" font-family="Courier" font-size="24.0" fill="#000000" transform="matrix(1.00, 0.00, -0.00, -1.00, 537.2, 154.0)">e</text><text xml:space="preserve" font-family="Courier" font-size="24.0" fill="#000000" transform="matrix(1.00, 0.00, -0.00, -1.00, 551.6, 154.0)">n</text><text xml:space="preserve" font-family="Courier" font-size="24.0" fill="#000000" transform="matrix(1.00, 0.00, -0.00, -1.00, 566.0, 154.0)">t</text><text xml:space="preserve" font-family="Courier" font-size="24.0" fill="#000000" transform="matrix(1.00, 0.00, -0.00, -1.00, 580.4, 154.0)"> </text><text xml:space="preserve" font-family="Courier" font-size="24.0" fill="#000000" transform="matrix(1.00, 0.00, -0.00, -1.00, 594.8, 154.0)">(</text><text xml:space="preserve" font-family="Courier" font-size="24.0" fill="#000000" transform="matrix(1.00, 0.00, -0.00, -1.00, 609.2, 154.0)">t</text><text xml:space="preserve" font-family="Courier" font-size="24.0" fill="#000000" transform="matrix(1.00, 0.00, -0.00, -1.00, 623.7, 154.0)">a</text><text xml:space="preserve" font-family="Courier" font-size="24.0" fill="#000000" transform="matrix(1.00, 0.00, -0.00, -1.00, 638.1, 154.0)">s</text><text xml:space="preserve" font-family="Courier" font-size="24.0" fill="#000000" transform="matrix(1.00, 0.00, -0.00, -1.00, 652.5, 154.0)">k</text><text xml:space="preserve" font-family="Courier" font-size="24.0" fill="#000000" transform="matrix(1.00, 0.00, -0.00, -1.00, 666.9, 154.0)">3</text><text xml:space="preserve" font-family="Courier" font-size="24.0" fill="#000000" transform="matrix(1.00, 0.00, -0.00, -1.00, 681.3, 154.0)">,</text><text xml:space="preserve" font-family="Courier" font-size="24.0" fill="#000000" transform="matrix(1.00, 0.00, -0.00, -1.00, 278.0, 125.0)">“</text><text xml:space="preserve" font-family="Courier" font-size="24.0" fill="#0432FF" transform="matrix(1.00, 0.00, -0.00, -1.00, 422.0, 125.0)">w</text><text xml:space="preserve" font-family="Courier" font-size="24.0" fill="#0432FF" transform="matrix(1.00, 0.00, -0.00, -1.00, 436.4, 125.0)">a</text><text xml:space="preserve" font-family="Courier" font-size="24.0" fill="#0432FF" transform="matrix(1.00, 0.00, -0.00, -1.00, 450.8, 125.0)">t</text><text xml:space="preserve" font-family="Courier" font-size="24.0" fill="#0432FF" transform="matrix(1.00, 0.00, -0.00, -1.00, 465.2, 125.0)">c</text><text xml:space="preserve" font-family="Courier" font-size="24.0" fill="#0432FF" transform="matrix(1.00, 0.00, -0.00, -1.00, 479.6, 125.0)">h</text><text xml:space="preserve" font-family="Courier" font-size="24.0" fill="#505050" transform="matrix(1.00, 0.00, -0.00, -1.00, 494.0, 125.0)"> </text><text xml:space="preserve" font-family="Courier" font-size="24.0" fill="#000000" transform="matrix(1.00, 0.00, -0.00, -1.00, 508.4, 125.0)">e</text><text xml:space="preserve" font-family="Courier" font-size="24.0" fill="#000000" transform="matrix(1.00, 0.00, -0.00, -1.00, 522.8, 125.0)">v</text><text xml:space="preserve" font-family="Courier" font-size="24.0" fill="#000000" transform="matrix(1.00, 0.00, -0.00, -1.00, 537.2, 125.0)">e</text><text xml:space="preserve" font-family="Courier" font-size="24.0" fill="#000000" transform="matrix(1.00, 0.00, -0.00, -1.00, 551.6, 125.0)">n</text><text xml:space="preserve" font-family="Courier" font-size="24.0" fill="#000000" transform="matrix(1.00, 0.00, -0.00, -1.00, 566.0, 125.0)">t</text><text xml:space="preserve" font-family="Courier" font-size="24.0" fill="#000000" transform="matrix(1.00, 0.00, -0.00, -1.00, 580.4, 125.0)"> </text><text xml:space="preserve" font-family="Courier" font-size="24.0" fill="#000000" transform="matrix(1.00, 0.00, -0.00, -1.00, 594.8, 125.0)">(</text><text xml:space="preserve" font-family="Courier" font-size="24.0" fill="#000000" transform="matrix(1.00, 0.00, -0.00, -1.00, 609.2, 125.0)">t</text><text xml:space="preserve" font-family="Courier" font-size="24.0" fill="#000000" transform="matrix(1.00, 0.00, -0.00, -1.00, 623.7, 125.0)">a</text><text xml:space="preserve" font-family="Courier" font-size="24.0" fill="#000000" transform="matrix(1.00, 0.00, -0.00, -1.00, 638.1, 125.0)">s</text><text xml:space="preserve" font-family="Courier" font-size="24.0" fill="#000000" transform="matrix(1.00, 0.00, -0.00, -1.00, 652.5, 125.0)">k</text><text xml:space="preserve" font-family="Courier" font-size="24.0" fill="#000000" transform="matrix(1.00, 0.00, -0.00, -1.00, 666.9, 125.0)">4</text><text xml:space="preserve" font-family="Courier" font-size="24.0" fill="#000000" transform="matrix(1.00, 0.00, -0.00, -1.00, 681.3, 125.0)">,</text><text xml:space="preserve" font-family="Courier" font-size="24.0" fill="#000000" transform="matrix(1.00, 0.00, -0.00, -1.00, 695.7, 125.0)"> </text><text xml:space="preserve" font-family="Courier" font-size="24.0" fill="#FF2600" transform="matrix(1.00, 0.00, -0.00, -1.00, 710.0, 125.0)">p</text><text xml:space="preserve" font-family="Courier" font-size="24.0" fill="#FF2600" transform="matrix(1.00, 0.00, -0.00, -1.00, 724.5, 125.0)">o</text><text xml:space="preserve" font-family="Courier" font-size="24.0" fill="#FF2600" transform="matrix(1.00, 0.00, -0.00, -1.00, 738.9, 125.0)">p</text><text xml:space="preserve" font-family="Courier" font-size="24.0" fill="#000000" transform="matrix(1.00, 0.00, -0.00, -1.00, 753.3, 125.0)">)</text><text xml:space="preserve" font-family="Courier" font-size="24.0" fill="#000000" transform="matrix(1.00, 0.00, -0.00, -1.00, 767.7, 125.0)">)</text><text xml:space="preserve" font-family="Courier" font-size="24.0" fill="#000000" transform="matrix(1.00, 0.00, -0.00, -1.00, 782.1, 125.0)">)</text><text xml:space="preserve" font-family="Courier" font-size="24.0" fill="#000000" transform="matrix(1.00, 0.00, -0.00, -1.00, 796.5, 125.0)">)</text><text xml:space="preserve" font-family="Avenir-Book" font-size="36.0" fill="#FEFFFE" transform="matrix(1.00, 0.00, -0.00, -1.00, 123.0, 283.0)">A</text><text xml:space="preserve" font-family="Avenir-Book" font-size="36.0" fill="#FEFFFE" transform="matrix(1.00, 0.00, -0.00, -1.00, 147.7, 283.0)">n</text><text xml:space="preserve" font-family="Avenir-Book" font-size="36.0" fill="#FEFFFE" transform="matrix(1.00, 0.00, -0.00, -1.00, 167.7, 283.0)"> </text><text xml:space="preserve" font-family="Avenir-Book" font-size="36.0" fill="#FEFFFE" transform="matrix(1.00, 0.00, -0.00, -1.00, 177.7, 283.0)">i</text><text xml:space="preserve" font-family="Avenir-Book" font-size="36.0" fill="#FEFFFE" transform="matrix(1.00, 0.00, -0.00, -1.00, 186.4, 283.0)">n</text><text xml:space="preserve" font-family="Avenir-Book" font-size="36.0" fill="#FEFFFE" transform="matrix(1.00, 0.00, -0.00, -1.00, 206.4, 283.0)">f</text><text xml:space="preserve" font-family="Avenir-Book" font-size="36.0" fill="#FEFFFE" transform="matrix(1.00, 0.00, -0.00, -1.00, 217.0, 283.0)">i</text><text xml:space="preserve" font-family="Avenir-Book" font-size="36.0" fill="#FEFFFE" transform="matrix(1.00, 0.00, -0.00, -1.00, 225.7, 283.0)">n</text><text xml:space="preserve" font-family="Avenir-Book" font-size="36.0" fill="#FEFFFE" transform="matrix(1.00, 0.00, -0.00, -1.00, 245.7, 283.0)">i</text><text xml:space="preserve" font-family="Avenir-Book" font-size="36.0" fill="#FEFFFE" transform="matrix(1.00, 0.00, -0.00, -1.00, 254.3, 283.0)">t</text><text xml:space="preserve" font-family="Avenir-Book" font-size="36.0" fill="#FEFFFE" transform="matrix(1.00, 0.00, -0.00, -1.00, 266.3, 283.0)">e</text><text xml:space="preserve" font-family="Avenir-Book" font-size="36.0" fill="#FEFFFE" transform="matrix(1.00, 0.00, -0.00, -1.00, 286.3, 283.0)"> </text><text xml:space="preserve" font-family="Avenir-Book" font-size="36.0" fill="#FEFFFE" transform="matrix(1.00, 0.00, -0.00, -1.00, 296.3, 283.0)">l</text><text xml:space="preserve" font-family="Avenir-Book" font-size="36.0" fill="#FEFFFE" transform="matrix(1.00, 0.00, -0.00, -1.00, 304.9, 283.0)">o</text><text xml:space="preserve" font-family="Avenir-Book" font-size="36.0" fill="#FEFFFE" transform="matrix(1.00, 0.00, -0.00, -1.00, 326.3, 283.0)">o</text><text xml:space="preserve" font-family="Avenir-Book" font-size="36.0" fill="#FEFFFE" transform="matrix(1.00, 0.00, -0.00, -1.00, 347.6, 283.0)">p</text></g></svg>