<?xml version="1.0" encoding="UTF-8" standalone="no"?><svg xmlns="http://www.w3.org/2000/svg" xmlns:xlink="http://www.w3.org/1999/xlink" clip-rule="evenodd" stroke-miterlimit="4.00" viewBox="0 0 1024 768"><desc>SVG generated by Keynote</desc><defs></defs><g transform="matrix(1.00, 0.00, -0.00, -1.00, 0.0, 768.0)"><path d="M 0.0 768.0 L 1024.0 768.0 L 1024.0 0.0 L 0.0 0.0 Z M 0.0 768.0 " fill="#000000"></path><text xml:space="preserve" font-family="AvenirNext-DemiBold" font-weight="bold" font-size="53.0" fill="#FEFFFF" transform="matrix(1.00, 0.00, -0.00, -1.00, 74.0, 677.0)">I</text><text xml:space="preserve" font-family="AvenirNext-DemiBold" font-weight="bold" font-size="53.0" fill="#FEFFFF" transform="matrix(1.00, 0.00, -0.00, -1.00, 88.9, 677.0)">N</text><text xml:space="preserve" font-family="AvenirNext-DemiBold" font-weight="bold" font-size="53.0" fill="#FEFFFF" transform="matrix(1.00, 0.00, -0.00, -1.00, 130.3, 677.0)">S</text><text xml:space="preserve" font-family="AvenirNext-DemiBold" font-weight="bold" font-size="53.0" fill="#FEFFFF" transform="matrix(1.00, 0.00, -0.00, -1.00, 160.7, 677.0)">c</text><text xml:space="preserve" font-family="AvenirNext-DemiBold" font-weight="bold" font-size="53.0" fill="#FEFFFF" transform="matrix(1.00, 0.00, -0.00, -1.00, 186.6, 677.0)">o</text><text xml:space="preserve" font-family="AvenirNext-DemiBold" font-weight="bold" font-size="53.0" fill="#FEFFFF" transform="matrix(1.00, 0.00, -0.00, -1.00, 218.9, 677.0)">r</text><text xml:space="preserve" font-family="AvenirNext-DemiBold" font-weight="bold" font-size="53.0" fill="#FEFFFF" transform="matrix(1.00, 0.00, -0.00, -1.00, 237.2, 677.0)">e</text><text xml:space="preserve" font-family="Avenir-Book" font-size="27.5" fill="#FEFFFF" transform="matrix(1.00, 0.00, -0.00, -1.00, 74.0, 633.0)">A</text><text xml:space="preserve" font-family="Avenir-Book" font-size="27.5" fill="#FEFFFF" transform="matrix(1.00, 0.00, -0.00, -1.00, 92.9, 633.0)">n</text><text xml:space="preserve" font-family="Avenir-Book" font-size="27.5" fill="#FEFFFF" transform="matrix(1.00, 0.00, -0.00, -1.00, 108.2, 633.0)"> </text><text xml:space="preserve" font-family="Avenir-Book" font-size="27.5" fill="#FEFFFF" transform="matrix(1.00, 0.00, -0.00, -1.00, 115.8, 633.0)">e</text><text xml:space="preserve" font-family="Avenir-Book" font-size="27.5" fill="#FEFFFF" transform="matrix(1.00, 0.00, -0.00, -1.00, 131.1, 633.0)">n</text><text xml:space="preserve" font-family="Avenir-Book" font-size="27.5" fill="#FEFFFF" transform="matrix(1.00, 0.00, -0.00, -1.00, 146.4, 633.0)">v</text><text xml:space="preserve" font-family="Avenir-Book" font-size="27.5" fill="#FEFFFF" transform="matrix(1.00, 0.00, -0.00, -1.00, 159.6, 633.0)">i</text><text xml:space="preserve" font-family="Avenir-Book" font-size="27.5" fill="#FEFFFF" transform="matrix(1.00, 0.00, -0.00, -1.00, 166.2, 633.0)">r</text><text xml:space="preserve" font-family="Avenir-Book" font-size="27.5" fill="#FEFFFF" transform="matrix(1.00, 0.00, -0.00, -1.00, 174.9, 633.0)">o</text><text xml:space="preserve" font-family="Avenir-Book" font-size="27.5" fill="#FEFFFF" transform="matrix(1.00, 0.00, -0.00, -1.00, 191.2, 633.0)">n</text><text xml:space="preserve" font-family="Avenir-Book" font-size="27.5" fill="#FEFFFF" transform="matrix(1.00, 0.00, -0.00, -1.00, 206.5, 633.0)">m</text><text xml:space="preserve" font-family="Avenir-Book" font-size="27.5" fill="#FEFFFF" transform="matrix(1.00, 0.00, -0.00, -1.00, 229.9, 633.0)">e</text><text xml:space="preserve" font-family="Avenir-Book" font-size="27.5" fill="#FEFFFF" transform="matrix(1.00, 0.00, -0.00, -1.00, 245.2, 633.0)">n</text><text xml:space="preserve" font-family="Avenir-Book" font-size="27.5" fill="#FEFFFF" transform="matrix(1.00, 0.00, -0.00, -1.00, 260.5, 633.0)">t</text><text xml:space="preserve" font-family="Avenir-Book" font-size="27.5" fill="#FEFFFF" transform="matrix(1.00, 0.00, -0.00, -1.00, 269.6, 633.0)"> </text><text xml:space="preserve" font-family="Avenir-Book" font-size="27.5" fill="#FEFFFF" transform="matrix(1.00, 0.00, -0.00, -1.00, 277.3, 633.0)">f</text><text xml:space="preserve" font-family="Avenir-Book" font-size="27.5" fill="#FEFFFF" transform="matrix(1.00, 0.00, -0.00, -1.00, 285.4, 633.0)">o</text><text xml:space="preserve" font-family="Avenir-Book" font-size="27.5" fill="#FEFFFF" transform="matrix(1.00, 0.00, -0.00, -1.00, 301.7, 633.0)">r</text><text xml:space="preserve" font-family="Avenir-Book" font-size="27.5" fill="#FEFFFF" transform="matrix(1.00, 0.00, -0.00, -1.00, 310.8, 633.0)"> </text><text xml:space="preserve" font-family="Avenir-Book" font-size="27.5" fill="#FEFFFF" transform="matrix(1.00, 0.00, -0.00, -1.00, 318.5, 633.0)">t</text><text xml:space="preserve" font-family="Avenir-Book" font-size="27.5" fill="#FEFFFF" transform="matrix(1.00, 0.00, -0.00, -1.00, 327.6, 633.0)">h</text><text xml:space="preserve" font-family="Avenir-Book" font-size="27.5" fill="#FEFFFF" transform="matrix(1.00, 0.00, -0.00, -1.00, 342.9, 633.0)">e</text><text xml:space="preserve" font-family="Avenir-Book" font-size="27.5" fill="#FEFFFF" transform="matrix(1.00, 0.00, -0.00, -1.00, 358.2, 633.0)"> </text><text xml:space="preserve" font-family="Avenir-Book" font-size="27.5" fill="#FEFFFF" transform="matrix(1.00, 0.00, -0.00, -1.00, 365.8, 633.0)">d</text><text xml:space="preserve" font-family="Avenir-Book" font-size="27.5" fill="#FEFFFF" transform="matrix(1.00, 0.00, -0.00, -1.00, 382.6, 633.0)">e</text><text xml:space="preserve" font-family="Avenir-Book" font-size="27.5" fill="#FEFFFF" transform="matrix(1.00, 0.00, -0.00, -1.00, 397.9, 633.0)">s</text><text xml:space="preserve" font-family="Avenir-Book" font-size="27.5" fill="#FEFFFF" transform="matrix(1.00, 0.00, -0.00, -1.00, 409.6, 633.0)">i</text><text xml:space="preserve" font-family="Avenir-Book" font-size="27.5" fill="#FEFFFF" transform="matrix(1.00, 0.00, -0.00, -1.00, 416.2, 633.0)">g</text><text xml:space="preserve" font-family="Avenir-Book" font-size="27.5" fill="#FEFFFF" transform="matrix(1.00, 0.00, -0.00, -1.00, 433.0, 633.0)">n</text><text xml:space="preserve" font-family="Avenir-Book" font-size="27.5" fill="#FEFFFF" transform="matrix(1.00, 0.00, -0.00, -1.00, 448.3, 633.0)"> </text><text xml:space="preserve" font-family="Avenir-Book" font-size="27.5" fill="#FEFFFF" transform="matrix(1.00, 0.00, -0.00, -1.00, 456.0, 633.0)">o</text><text xml:space="preserve" font-family="Avenir-Book" font-size="27.5" fill="#FEFFFF" transform="matrix(1.00, 0.00, -0.00, -1.00, 472.3, 633.0)">f</text><text xml:space="preserve" font-family="Avenir-Book" font-size="27.5" fill="#FEFFFF" transform="matrix(1.00, 0.00, -0.00, -1.00, 480.4, 633.0)"> </text><text xml:space="preserve" font-family="Avenir-Book" font-size="27.5" fill="#FEFFFF" transform="matrix(1.00, 0.00, -0.00, -1.00, 488.1, 633.0)">i</text><text xml:space="preserve" font-family="Avenir-Book" font-size="27.5" fill="#FEFFFF" transform="matrix(1.00, 0.00, -0.00, -1.00, 494.7, 633.0)">n</text><text xml:space="preserve" font-family="Avenir-Book" font-size="27.5" fill="#FEFFFF" transform="matrix(1.00, 0.00, -0.00, -1.00, 510.0, 633.0)">t</text><text xml:space="preserve" font-family="Avenir-Book" font-size="27.5" fill="#FEFFFF" transform="matrix(1.00, 0.00, -0.00, -1.00, 519.1, 633.0)">e</text><text xml:space="preserve" font-family="Avenir-Book" font-size="27.5" fill="#FEFFFF" transform="matrix(1.00, 0.00, -0.00, -1.00, 534.4, 633.0)">r</text><text xml:space="preserve" font-family="Avenir-Book" font-size="27.5" fill="#FEFFFF" transform="matrix(1.00, 0.00, -0.00, -1.00, 543.5, 633.0)">a</text><text xml:space="preserve" font-family="Avenir-Book" font-size="27.5" fill="#FEFFFF" transform="matrix(1.00, 0.00, -0.00, -1.00, 557.8, 633.0)">c</text><text xml:space="preserve" font-family="Avenir-Book" font-size="27.5" fill="#FEFFFF" transform="matrix(1.00, 0.00, -0.00, -1.00, 571.0, 633.0)">t</text><text xml:space="preserve" font-family="Avenir-Book" font-size="27.5" fill="#FEFFFF" transform="matrix(1.00, 0.00, -0.00, -1.00, 580.2, 633.0)">i</text><text xml:space="preserve" font-family="Avenir-Book" font-size="27.5" fill="#FEFFFF" transform="matrix(1.00, 0.00, -0.00, -1.00, 586.8, 633.0)">v</text><text xml:space="preserve" font-family="Avenir-Book" font-size="27.5" fill="#FEFFFF" transform="matrix(1.00, 0.00, -0.00, -1.00, 600.0, 633.0)">e</text><text xml:space="preserve" font-family="Avenir-Book" font-size="27.5" fill="#FEFFFF" transform="matrix(1.00, 0.00, -0.00, -1.00, 615.3, 633.0)"> </text><text xml:space="preserve" font-family="Avenir-Book" font-size="27.5" fill="#FEFFFF" transform="matrix(1.00, 0.00, -0.00, -1.00, 623.0, 633.0)">a</text><text xml:space="preserve" font-family="Avenir-Book" font-size="27.5" fill="#FEFFFF" transform="matrix(1.00, 0.00, -0.00, -1.00, 637.2, 633.0)">u</text><text xml:space="preserve" font-family="Avenir-Book" font-size="27.5" fill="#FEFFFF" transform="matrix(1.00, 0.00, -0.00, -1.00, 652.5, 633.0)">g</text><text xml:space="preserve" font-family="Avenir-Book" font-size="27.5" fill="#FEFFFF" transform="matrix(1.00, 0.00, -0.00, -1.00, 669.3, 633.0)">m</text><text xml:space="preserve" font-family="Avenir-Book" font-size="27.5" fill="#FEFFFF" transform="matrix(1.00, 0.00, -0.00, -1.00, 692.7, 633.0)">e</text><text xml:space="preserve" font-family="Avenir-Book" font-size="27.5" fill="#FEFFFF" transform="matrix(1.00, 0.00, -0.00, -1.00, 708.0, 633.0)">n</text><text xml:space="preserve" font-family="Avenir-Book" font-size="27.5" fill="#FEFFFF" transform="matrix(1.00, 0.00, -0.00, -1.00, 723.3, 633.0)">t</text><text xml:space="preserve" font-family="Avenir-Book" font-size="27.5" fill="#FEFFFF" transform="matrix(1.00, 0.00, -0.00, -1.00, 732.5, 633.0)">e</text><text xml:space="preserve" font-family="Avenir-Book" font-size="27.5" fill="#FEFFFF" transform="matrix(1.00, 0.00, -0.00, -1.00, 747.7, 633.0)">d</text><text xml:space="preserve" font-family="Avenir-Book" font-size="27.5" fill="#FEFFFF" transform="matrix(1.00, 0.00, -0.00, -1.00, 764.6, 633.0)"> </text><text xml:space="preserve" font-family="Avenir-Book" font-size="27.5" fill="#FEFFFF" transform="matrix(1.00, 0.00, -0.00, -1.00, 772.2, 633.0)">m</text><text xml:space="preserve" font-family="Avenir-Book" font-size="27.5" fill="#FEFFFF" transform="matrix(1.00, 0.00, -0.00, -1.00, 795.6, 633.0)">u</text><text xml:space="preserve" font-family="Avenir-Book" font-size="27.5" fill="#FEFFFF" transform="matrix(1.00, 0.00, -0.00, -1.00, 810.9, 633.0)">s</text><text xml:space="preserve" font-family="Avenir-Book" font-size="27.5" fill="#FEFFFF" transform="matrix(1.00, 0.00, -0.00, -1.00, 822.6, 633.0)">i</text><text xml:space="preserve" font-family="Avenir-Book" font-size="27.5" fill="#FEFFFF" transform="matrix(1.00, 0.00, -0.00, -1.00, 829.2, 633.0)">c</text><text xml:space="preserve" font-family="Avenir-Book" font-size="27.5" fill="#FEFFFF" transform="matrix(1.00, 0.00, -0.00, -1.00, 842.5, 633.0)"> </text><text xml:space="preserve" font-family="Avenir-Book" font-size="27.5" fill="#FEFFFF" transform="matrix(1.00, 0.00, -0.00, -1.00, 850.1, 633.0)">s</text><text xml:space="preserve" font-family="Avenir-Book" font-size="27.5" fill="#FEFFFF" transform="matrix(1.00, 0.00, -0.00, -1.00, 861.8, 633.0)">c</text><text xml:space="preserve" font-family="Avenir-Book" font-size="27.5" fill="#FEFFFF" transform="matrix(1.00, 0.00, -0.00, -1.00, 875.1, 633.0)">o</text><text xml:space="preserve" font-family="Avenir-Book" font-size="27.5" fill="#FEFFFF" transform="matrix(1.00, 0.00, -0.00, -1.00, 891.4, 633.0)">r</text><text xml:space="preserve" font-family="Avenir-Book" font-size="27.5" fill="#FEFFFF" transform="matrix(1.00, 0.00, -0.00, -1.00, 900.0, 633.0)">e</text><text xml:space="preserve" font-family="Avenir-Book" font-size="27.5" fill="#FEFFFF" transform="matrix(1.00, 0.00, -0.00, -1.00, 915.3, 633.0)">s</text><image xlink:href="../../B04F1C97-ECAB-4D96-BED1-068678BAA01E/assets/BEF333F0D2746660C5E29CAA3BCC24B1.png" width="236.00" height="101.00" transform="matrix(1.00, 0.00, -0.00, -1.00, -285.0, 1087.0)"></image><text xml:space="preserve" font-family="Avenir-Heavy" font-weight="bold" font-size="34.0" fill="#DCDDE0" transform="matrix(1.00, 0.00, -0.00, -1.00, 77.0, 577.0)">A</text><text xml:space="preserve" font-family="Avenir-Heavy" font-weight="bold" font-size="34.0" fill="#DCDDE0" transform="matrix(1.00, 0.00, -0.00, -1.00, 101.5, 577.0)">n</text><text xml:space="preserve" font-family="Avenir-Heavy" font-weight="bold" font-size="34.0" fill="#DCDDE0" transform="matrix(1.00, 0.00, -0.00, -1.00, 121.1, 577.0)"> </text><text xml:space="preserve" font-family="Avenir-Heavy" font-weight="bold" font-size="34.0" fill="#DCDDE0" transform="matrix(1.00, 0.00, -0.00, -1.00, 131.1, 577.0)">s</text><text xml:space="preserve" font-family="Avenir-Heavy" font-weight="bold" font-size="34.0" fill="#DCDDE0" transform="matrix(1.00, 0.00, -0.00, -1.00, 146.2, 577.0)">c</text><text xml:space="preserve" font-family="Avenir-Heavy" font-weight="bold" font-size="34.0" fill="#DCDDE0" transform="matrix(1.00, 0.00, -0.00, -1.00, 162.6, 577.0)">r</text><text xml:space="preserve" font-family="Avenir-Heavy" font-weight="bold" font-size="34.0" fill="#DCDDE0" transform="matrix(1.00, 0.00, -0.00, -1.00, 175.8, 577.0)">i</text><text xml:space="preserve" font-family="Avenir-Heavy" font-weight="bold" font-size="34.0" fill="#DCDDE0" transform="matrix(1.00, 0.00, -0.00, -1.00, 184.7, 577.0)">p</text><text xml:space="preserve" font-family="Avenir-Heavy" font-weight="bold" font-size="34.0" fill="#DCDDE0" transform="matrix(1.00, 0.00, -0.00, -1.00, 206.1, 577.0)">t</text><text xml:space="preserve" font-family="Avenir-Heavy" font-weight="bold" font-size="34.0" fill="#DCDDE0" transform="matrix(1.00, 0.00, -0.00, -1.00, 219.3, 577.0)"> </text><text xml:space="preserve" font-family="Avenir-Heavy" font-weight="bold" font-size="34.0" fill="#DCDDE0" transform="matrix(1.00, 0.00, -0.00, -1.00, 229.4, 577.0)">s</text><text xml:space="preserve" font-family="Avenir-Heavy" font-weight="bold" font-size="34.0" fill="#DCDDE0" transform="matrix(1.00, 0.00, -0.00, -1.00, 244.5, 577.0)">a</text><text xml:space="preserve" font-family="Avenir-Heavy" font-weight="bold" font-size="34.0" fill="#DCDDE0" transform="matrix(1.00, 0.00, -0.00, -1.00, 262.7, 577.0)">m</text><text xml:space="preserve" font-family="Avenir-Heavy" font-weight="bold" font-size="34.0" fill="#DCDDE0" transform="matrix(1.00, 0.00, -0.00, -1.00, 292.3, 577.0)">p</text><text xml:space="preserve" font-family="Avenir-Heavy" font-weight="bold" font-size="34.0" fill="#DCDDE0" transform="matrix(1.00, 0.00, -0.00, -1.00, 313.7, 577.0)">l</text><text xml:space="preserve" font-family="Avenir-Heavy" font-weight="bold" font-size="34.0" fill="#DCDDE0" transform="matrix(1.00, 0.00, -0.00, -1.00, 322.6, 577.0)">e</text><text xml:space="preserve" font-family="Avenir-Heavy" font-weight="bold" font-size="34.0" fill="#DCDDE0" transform="matrix(1.00, 0.00, -0.00, -1.00, 342.1, 577.0)"> </text><text xml:space="preserve" font-family="Avenir-Book" font-size="30.0" fill="#DCDDE0" transform="matrix(1.00, 0.00, -0.00, -1.00, 352.2, 577.0)">(</text><text xml:space="preserve" font-family="Avenir-Book" font-size="30.0" fill="#DCDDE0" transform="matrix(1.00, 0.00, -0.00, -1.00, 360.0, 577.0)">s</text><text xml:space="preserve" font-family="Avenir-Book" font-size="30.0" fill="#DCDDE0" transform="matrix(1.00, 0.00, -0.00, -1.00, 372.7, 577.0)">a</text><text xml:space="preserve" font-family="Avenir-Book" font-size="30.0" fill="#DCDDE0" transform="matrix(1.00, 0.00, -0.00, -1.00, 388.3, 577.0)">m</text><text xml:space="preserve" font-family="Avenir-Book" font-size="30.0" fill="#DCDDE0" transform="matrix(1.00, 0.00, -0.00, -1.00, 413.9, 577.0)">p</text><text xml:space="preserve" font-family="Avenir-Book" font-size="30.0" fill="#DCDDE0" transform="matrix(1.00, 0.00, -0.00, -1.00, 432.2, 577.0)">l</text><text xml:space="preserve" font-family="Avenir-Book" font-size="30.0" fill="#DCDDE0" transform="matrix(1.00, 0.00, -0.00, -1.00, 439.4, 577.0)">e</text><text xml:space="preserve" font-family="Avenir-Book" font-size="30.0" fill="#DCDDE0" transform="matrix(1.00, 0.00, -0.00, -1.00, 456.1, 577.0)">5</text><text xml:space="preserve" font-family="Avenir-Book" font-size="30.0" fill="#DCDDE0" transform="matrix(1.00, 0.00, -0.00, -1.00, 472.8, 577.0)">.</text><text xml:space="preserve" font-family="Avenir-Book" font-size="30.0" fill="#DCDDE0" transform="matrix(1.00, 0.00, -0.00, -1.00, 481.1, 577.0)">i</text><text xml:space="preserve" font-family="Avenir-Book" font-size="30.0" fill="#DCDDE0" transform="matrix(1.00, 0.00, -0.00, -1.00, 488.3, 577.0)">n</text><text xml:space="preserve" font-family="Avenir-Book" font-size="30.0" fill="#DCDDE0" transform="matrix(1.00, 0.00, -0.00, -1.00, 505.0, 577.0)">s</text><text xml:space="preserve" font-family="Avenir-Book" font-size="30.0" fill="#DCDDE0" transform="matrix(1.00, 0.00, -0.00, -1.00, 517.8, 577.0)">c</text><text xml:space="preserve" font-family="Avenir-Book" font-size="30.0" fill="#DCDDE0" transform="matrix(1.00, 0.00, -0.00, -1.00, 532.2, 577.0)">o</text><text xml:space="preserve" font-family="Avenir-Book" font-size="30.0" fill="#DCDDE0" transform="matrix(1.00, 0.00, -0.00, -1.00, 550.0, 577.0)">r</text><text xml:space="preserve" font-family="Avenir-Book" font-size="30.0" fill="#DCDDE0" transform="matrix(1.00, 0.00, -0.00, -1.00, 559.4, 577.0)">e</text><text xml:space="preserve" font-family="Avenir-Book" font-size="30.0" fill="#DCDDE0" transform="matrix(1.00, 0.00, -0.00, -1.00, 576.1, 577.0)">)</text><image xlink:href="3DD0056CFADD05E499C482668A83A4AA.png" width="568.00" height="456.00" transform="matrix(1.00, 0.00, -0.00, -1.00, 228.0, 541.0)"></image></g></svg>