<?xml version="1.0" encoding="UTF-8" standalone="no"?><svg xmlns="http://www.w3.org/2000/svg" xmlns:xlink="http://www.w3.org/1999/xlink" clip-rule="evenodd" stroke-miterlimit="4.00" viewBox="0 0 443 67"><desc>SVG generated by Keynote</desc><defs></defs><g transform="matrix(1.00, 0.00, -0.00, -1.00, 0.0, 67.0)"><text xml:space="preserve" font-family="Courier" font-size="14.0" fill="#000000" transform="matrix(1.00, 0.00, -0.00, -1.00, 1.0, 56.0)">f</text><text xml:space="preserve" font-family="Courier" font-size="14.0" fill="#000000" transform="matrix(1.00, 0.00, -0.00, -1.00, 9.4, 56.0)">u</text><text xml:space="preserve" font-family="Courier" font-size="14.0" fill="#000000" transform="matrix(1.00, 0.00, -0.00, -1.00, 17.8, 56.0)">n</text><text xml:space="preserve" font-family="Courier" font-size="14.0" fill="#000000" transform="matrix(1.00, 0.00, -0.00, -1.00, 26.2, 56.0)">c</text><text xml:space="preserve" font-family="Courier" font-size="14.0" fill="#000000" transform="matrix(1.00, 0.00, -0.00, -1.00, 34.6, 56.0)">t</text><text xml:space="preserve" font-family="Courier" font-size="14.0" fill="#000000" transform="matrix(1.00, 0.00, -0.00, -1.00, 43.0, 56.0)">i</text><text xml:space="preserve" font-family="Courier" font-size="14.0" fill="#000000" transform="matrix(1.00, 0.00, -0.00, -1.00, 51.4, 56.0)">o</text><text xml:space="preserve" font-family="Courier" font-size="14.0" fill="#000000" transform="matrix(1.00, 0.00, -0.00, -1.00, 59.8, 56.0)">n</text><text xml:space="preserve" font-family="Courier" font-size="14.0" fill="#000000" transform="matrix(1.00, 0.00, -0.00, -1.00, 68.2, 56.0)"> </text><text xml:space="preserve" font-family="Courier" font-size="14.0" fill="#000000" transform="matrix(1.00, 0.00, -0.00, -1.00, 76.6, 56.0)">r</text><text xml:space="preserve" font-family="Courier" font-size="14.0" fill="#000000" transform="matrix(1.00, 0.00, -0.00, -1.00, 85.0, 56.0)">a</text><text xml:space="preserve" font-family="Courier" font-size="14.0" fill="#000000" transform="matrix(1.00, 0.00, -0.00, -1.00, 93.4, 56.0)">n</text><text xml:space="preserve" font-family="Courier" font-size="14.0" fill="#000000" transform="matrix(1.00, 0.00, -0.00, -1.00, 101.8, 56.0)">d</text><text xml:space="preserve" font-family="Courier" font-size="14.0" fill="#000000" transform="matrix(1.00, 0.00, -0.00, -1.00, 110.2, 56.0)">o</text><text xml:space="preserve" font-family="Courier" font-size="14.0" fill="#000000" transform="matrix(1.00, 0.00, -0.00, -1.00, 118.6, 56.0)">m</text><text xml:space="preserve" font-family="Courier" font-size="14.0" fill="#000000" transform="matrix(1.00, 0.00, -0.00, -1.00, 127.0, 56.0)">n</text><text xml:space="preserve" font-family="Courier" font-size="14.0" fill="#000000" transform="matrix(1.00, 0.00, -0.00, -1.00, 135.4, 56.0)">o</text><text xml:space="preserve" font-family="Courier" font-size="14.0" fill="#000000" transform="matrix(1.00, 0.00, -0.00, -1.00, 143.8, 56.0)">t</text><text xml:space="preserve" font-family="Courier" font-size="14.0" fill="#000000" transform="matrix(1.00, 0.00, -0.00, -1.00, 152.2, 56.0)">e</text><text xml:space="preserve" font-family="Courier" font-size="14.0" fill="#000000" transform="matrix(1.00, 0.00, -0.00, -1.00, 160.7, 56.0)">(</text><text xml:space="preserve" font-family="Courier" font-size="14.0" fill="#000000" transform="matrix(1.00, 0.00, -0.00, -1.00, 169.1, 56.0)">)</text><text xml:space="preserve" font-family="Courier" font-size="14.0" fill="#000000" transform="matrix(1.00, 0.00, -0.00, -1.00, 177.5, 56.0)"> </text><text xml:space="preserve" font-family="Courier" font-size="14.0" fill="#000000" transform="matrix(1.00, 0.00, -0.00, -1.00, 185.9, 56.0)">{</text><text xml:space="preserve" font-family="Courier" font-size="14.0" fill="#000000" transform="matrix(1.00, 0.00, -0.00, -1.00, 37.0, 39.0)">v</text><text xml:space="preserve" font-family="Courier" font-size="14.0" fill="#000000" transform="matrix(1.00, 0.00, -0.00, -1.00, 45.4, 39.0)">a</text><text xml:space="preserve" font-family="Courier" font-size="14.0" fill="#000000" transform="matrix(1.00, 0.00, -0.00, -1.00, 53.8, 39.0)">r</text><text xml:space="preserve" font-family="Courier" font-size="14.0" fill="#000000" transform="matrix(1.00, 0.00, -0.00, -1.00, 62.2, 39.0)"> </text><text xml:space="preserve" font-family="Courier" font-size="14.0" fill="#000000" transform="matrix(1.00, 0.00, -0.00, -1.00, 70.6, 39.0)">n</text><text xml:space="preserve" font-family="Courier" font-size="14.0" fill="#000000" transform="matrix(1.00, 0.00, -0.00, -1.00, 79.0, 39.0)">o</text><text xml:space="preserve" font-family="Courier" font-size="14.0" fill="#000000" transform="matrix(1.00, 0.00, -0.00, -1.00, 87.4, 39.0)">t</text><text xml:space="preserve" font-family="Courier" font-size="14.0" fill="#000000" transform="matrix(1.00, 0.00, -0.00, -1.00, 95.8, 39.0)">e</text><text xml:space="preserve" font-family="Courier" font-size="14.0" fill="#000000" transform="matrix(1.00, 0.00, -0.00, -1.00, 104.2, 39.0)">s</text><text xml:space="preserve" font-family="Courier" font-size="14.0" fill="#000000" transform="matrix(1.00, 0.00, -0.00, -1.00, 112.6, 39.0)"> </text><text xml:space="preserve" font-family="Courier" font-size="14.0" fill="#000000" transform="matrix(1.00, 0.00, -0.00, -1.00, 121.0, 39.0)">=</text><text xml:space="preserve" font-family="Courier" font-size="14.0" fill="#000000" transform="matrix(1.00, 0.00, -0.00, -1.00, 129.4, 39.0)"> </text><text xml:space="preserve" font-family="Courier" font-size="14.0" fill="#000000" transform="matrix(1.00, 0.00, -0.00, -1.00, 137.8, 39.0)">[</text><text xml:space="preserve" font-family="Courier" font-size="14.0" fill="#000000" transform="matrix(1.00, 0.00, -0.00, -1.00, 146.2, 39.0)">"</text><text xml:space="preserve" font-family="Courier" font-size="14.0" fill="#000000" transform="matrix(1.00, 0.00, -0.00, -1.00, 154.6, 39.0)">c</text><text xml:space="preserve" font-family="Courier" font-size="14.0" fill="#000000" transform="matrix(1.00, 0.00, -0.00, -1.00, 163.0, 39.0)">"</text><text xml:space="preserve" font-family="Courier" font-size="14.0" fill="#000000" transform="matrix(1.00, 0.00, -0.00, -1.00, 171.4, 39.0)">,</text><text xml:space="preserve" font-family="Courier" font-size="14.0" fill="#000000" transform="matrix(1.00, 0.00, -0.00, -1.00, 179.8, 39.0)"> </text><text xml:space="preserve" font-family="Courier" font-size="14.0" fill="#000000" transform="matrix(1.00, 0.00, -0.00, -1.00, 188.2, 39.0)">"</text><text xml:space="preserve" font-family="Courier" font-size="14.0" fill="#000000" transform="matrix(1.00, 0.00, -0.00, -1.00, 196.7, 39.0)">f</text><text xml:space="preserve" font-family="Courier" font-size="14.0" fill="#000000" transform="matrix(1.00, 0.00, -0.00, -1.00, 205.1, 39.0)">"</text><text xml:space="preserve" font-family="Courier" font-size="14.0" fill="#000000" transform="matrix(1.00, 0.00, -0.00, -1.00, 213.5, 39.0)">,</text><text xml:space="preserve" font-family="Courier" font-size="14.0" fill="#000000" transform="matrix(1.00, 0.00, -0.00, -1.00, 221.9, 39.0)"> </text><text xml:space="preserve" font-family="Courier" font-size="14.0" fill="#000000" transform="matrix(1.00, 0.00, -0.00, -1.00, 230.3, 39.0)">"</text><text xml:space="preserve" font-family="Courier" font-size="14.0" fill="#000000" transform="matrix(1.00, 0.00, -0.00, -1.00, 238.7, 39.0)">g</text><text xml:space="preserve" font-family="Courier" font-size="14.0" fill="#000000" transform="matrix(1.00, 0.00, -0.00, -1.00, 247.1, 39.0)">"</text><text xml:space="preserve" font-family="Courier" font-size="14.0" fill="#000000" transform="matrix(1.00, 0.00, -0.00, -1.00, 255.5, 39.0)">,</text><text xml:space="preserve" font-family="Courier" font-size="14.0" fill="#000000" transform="matrix(1.00, 0.00, -0.00, -1.00, 263.9, 39.0)"> </text><text xml:space="preserve" font-family="Courier" font-size="14.0" fill="#000000" transform="matrix(1.00, 0.00, -0.00, -1.00, 272.3, 39.0)">"</text><text xml:space="preserve" font-family="Courier" font-size="14.0" fill="#000000" transform="matrix(1.00, 0.00, -0.00, -1.00, 280.7, 39.0)">a</text><text xml:space="preserve" font-family="Courier" font-size="14.0" fill="#000000" transform="matrix(1.00, 0.00, -0.00, -1.00, 289.1, 39.0)">"</text><text xml:space="preserve" font-family="Courier" font-size="14.0" fill="#000000" transform="matrix(1.00, 0.00, -0.00, -1.00, 297.5, 39.0)">]</text><text xml:space="preserve" font-family="Courier" font-size="14.0" fill="#000000" transform="matrix(1.00, 0.00, -0.00, -1.00, 305.9, 39.0)">;</text><text xml:space="preserve" font-family="Courier" font-size="14.0" fill="#000000" transform="matrix(1.00, 0.00, -0.00, -1.00, 37.0, 22.0)">r</text><text xml:space="preserve" font-family="Courier" font-size="14.0" fill="#000000" transform="matrix(1.00, 0.00, -0.00, -1.00, 45.4, 22.0)">e</text><text xml:space="preserve" font-family="Courier" font-size="14.0" fill="#000000" transform="matrix(1.00, 0.00, -0.00, -1.00, 53.8, 22.0)">t</text><text xml:space="preserve" font-family="Courier" font-size="14.0" fill="#000000" transform="matrix(1.00, 0.00, -0.00, -1.00, 62.2, 22.0)">u</text><text xml:space="preserve" font-family="Courier" font-size="14.0" fill="#000000" transform="matrix(1.00, 0.00, -0.00, -1.00, 70.6, 22.0)">r</text><text xml:space="preserve" font-family="Courier" font-size="14.0" fill="#000000" transform="matrix(1.00, 0.00, -0.00, -1.00, 79.0, 22.0)">n</text><text xml:space="preserve" font-family="Courier" font-size="14.0" fill="#000000" transform="matrix(1.00, 0.00, -0.00, -1.00, 87.4, 22.0)"> </text><text xml:space="preserve" font-family="Courier" font-size="14.0" fill="#000000" transform="matrix(1.00, 0.00, -0.00, -1.00, 95.8, 22.0)">n</text><text xml:space="preserve" font-family="Courier" font-size="14.0" fill="#000000" transform="matrix(1.00, 0.00, -0.00, -1.00, 104.2, 22.0)">o</text><text xml:space="preserve" font-family="Courier" font-size="14.0" fill="#000000" transform="matrix(1.00, 0.00, -0.00, -1.00, 112.6, 22.0)">t</text><text xml:space="preserve" font-family="Courier" font-size="14.0" fill="#000000" transform="matrix(1.00, 0.00, -0.00, -1.00, 121.0, 22.0)">e</text><text xml:space="preserve" font-family="Courier" font-size="14.0" fill="#000000" transform="matrix(1.00, 0.00, -0.00, -1.00, 129.4, 22.0)">s</text><text xml:space="preserve" font-family="Courier" font-size="14.0" fill="#000000" transform="matrix(1.00, 0.00, -0.00, -1.00, 137.8, 22.0)">[</text><text xml:space="preserve" font-family="Courier" font-size="14.0" fill="#000000" transform="matrix(1.00, 0.00, -0.00, -1.00, 146.2, 22.0)"> </text><text xml:space="preserve" font-family="Courier" font-size="14.0" fill="#000000" transform="matrix(1.00, 0.00, -0.00, -1.00, 154.6, 22.0)">M</text><text xml:space="preserve" font-family="Courier" font-size="14.0" fill="#000000" transform="matrix(1.00, 0.00, -0.00, -1.00, 163.0, 22.0)">a</text><text xml:space="preserve" font-family="Courier" font-size="14.0" fill="#000000" transform="matrix(1.00, 0.00, -0.00, -1.00, 171.4, 22.0)">t</text><text xml:space="preserve" font-family="Courier" font-size="14.0" fill="#000000" transform="matrix(1.00, 0.00, -0.00, -1.00, 179.8, 22.0)">h</text><text xml:space="preserve" font-family="Courier" font-size="14.0" fill="#000000" transform="matrix(1.00, 0.00, -0.00, -1.00, 188.2, 22.0)">.</text><text xml:space="preserve" font-family="Courier" font-size="14.0" fill="#000000" transform="matrix(1.00, 0.00, -0.00, -1.00, 196.7, 22.0)">f</text><text xml:space="preserve" font-family="Courier" font-size="14.0" fill="#000000" transform="matrix(1.00, 0.00, -0.00, -1.00, 205.1, 22.0)">l</text><text xml:space="preserve" font-family="Courier" font-size="14.0" fill="#000000" transform="matrix(1.00, 0.00, -0.00, -1.00, 213.5, 22.0)">o</text><text xml:space="preserve" font-family="Courier" font-size="14.0" fill="#000000" transform="matrix(1.00, 0.00, -0.00, -1.00, 221.9, 22.0)">o</text><text xml:space="preserve" font-family="Courier" font-size="14.0" fill="#000000" transform="matrix(1.00, 0.00, -0.00, -1.00, 230.3, 22.0)">r</text><text xml:space="preserve" font-family="Courier" font-size="14.0" fill="#000000" transform="matrix(1.00, 0.00, -0.00, -1.00, 238.7, 22.0)">(</text><text xml:space="preserve" font-family="Courier" font-size="14.0" fill="#000000" transform="matrix(1.00, 0.00, -0.00, -1.00, 247.1, 22.0)"> </text><text xml:space="preserve" font-family="Courier" font-size="14.0" fill="#000000" transform="matrix(1.00, 0.00, -0.00, -1.00, 255.5, 22.0)">M</text><text xml:space="preserve" font-family="Courier" font-size="14.0" fill="#000000" transform="matrix(1.00, 0.00, -0.00, -1.00, 263.9, 22.0)">a</text><text xml:space="preserve" font-family="Courier" font-size="14.0" fill="#000000" transform="matrix(1.00, 0.00, -0.00, -1.00, 272.3, 22.0)">t</text><text xml:space="preserve" font-family="Courier" font-size="14.0" fill="#000000" transform="matrix(1.00, 0.00, -0.00, -1.00, 280.7, 22.0)">h</text><text xml:space="preserve" font-family="Courier" font-size="14.0" fill="#000000" transform="matrix(1.00, 0.00, -0.00, -1.00, 289.1, 22.0)">.</text><text xml:space="preserve" font-family="Courier" font-size="14.0" fill="#000000" transform="matrix(1.00, 0.00, -0.00, -1.00, 297.5, 22.0)">r</text><text xml:space="preserve" font-family="Courier" font-size="14.0" fill="#000000" transform="matrix(1.00, 0.00, -0.00, -1.00, 305.9, 22.0)">a</text><text xml:space="preserve" font-family="Courier" font-size="14.0" fill="#000000" transform="matrix(1.00, 0.00, -0.00, -1.00, 314.3, 22.0)">n</text><text xml:space="preserve" font-family="Courier" font-size="14.0" fill="#000000" transform="matrix(1.00, 0.00, -0.00, -1.00, 322.7, 22.0)">d</text><text xml:space="preserve" font-family="Courier" font-size="14.0" fill="#000000" transform="matrix(1.00, 0.00, -0.00, -1.00, 331.1, 22.0)">o</text><text xml:space="preserve" font-family="Courier" font-size="14.0" fill="#000000" transform="matrix(1.00, 0.00, -0.00, -1.00, 339.5, 22.0)">m</text><text xml:space="preserve" font-family="Courier" font-size="14.0" fill="#000000" transform="matrix(1.00, 0.00, -0.00, -1.00, 347.9, 22.0)">(</text><text xml:space="preserve" font-family="Courier" font-size="14.0" fill="#000000" transform="matrix(1.00, 0.00, -0.00, -1.00, 356.3, 22.0)">)</text><text xml:space="preserve" font-family="Courier" font-size="14.0" fill="#000000" transform="matrix(1.00, 0.00, -0.00, -1.00, 364.7, 22.0)"> </text><text xml:space="preserve" font-family="Courier" font-size="14.0" fill="#000000" transform="matrix(1.00, 0.00, -0.00, -1.00, 373.1, 22.0)">*</text><text xml:space="preserve" font-family="Courier" font-size="14.0" fill="#000000" transform="matrix(1.00, 0.00, -0.00, -1.00, 381.5, 22.0)"> </text><text xml:space="preserve" font-family="Courier" font-size="14.0" fill="#000000" transform="matrix(1.00, 0.00, -0.00, -1.00, 389.9, 22.0)">4</text><text xml:space="preserve" font-family="Courier" font-size="14.0" fill="#000000" transform="matrix(1.00, 0.00, -0.00, -1.00, 398.3, 22.0)"> </text><text xml:space="preserve" font-family="Courier" font-size="14.0" fill="#000000" transform="matrix(1.00, 0.00, -0.00, -1.00, 406.7, 22.0)">)</text><text xml:space="preserve" font-family="Courier" font-size="14.0" fill="#000000" transform="matrix(1.00, 0.00, -0.00, -1.00, 415.1, 22.0)"> </text><text xml:space="preserve" font-family="Courier" font-size="14.0" fill="#000000" transform="matrix(1.00, 0.00, -0.00, -1.00, 423.5, 22.0)">]</text><text xml:space="preserve" font-family="Courier" font-size="14.0" fill="#000000" transform="matrix(1.00, 0.00, -0.00, -1.00, 431.9, 22.0)">;</text><text xml:space="preserve" font-family="Courier" font-size="14.0" fill="#000000" transform="matrix(1.00, 0.00, -0.00, -1.00, 1.0, 5.0)">}</text></g></svg>