<?xml version="1.0" encoding="UTF-8" standalone="no"?><svg xmlns="http://www.w3.org/2000/svg" xmlns:xlink="http://www.w3.org/1999/xlink" clip-rule="evenodd" stroke-miterlimit="4.00" viewBox="0 0 923 63"><desc>SVG generated by Keynote</desc><defs></defs><g transform="matrix(1.00, 0.00, -0.00, -1.00, 0.0, 63.0)"><g><clipPath id="clip-96"><path d="M 0.9 0.8 L 921.9 0.8 L 921.9 62.8 L 0.9 62.8 Z M 0.9 0.8 "></path></clipPath><g clip-path="url(#clip-96)"><path d="M 1.9 61.8 L 920.9 61.8 L 920.9 1.8 L 1.9 1.8 Z M 1.9 61.8 " fill="#7995B9" fill-opacity="0.90"></path></g></g><g><clipPath id="clip-97"><path d="M 736.1 6.6 L 834.7 6.6 L 834.7 59.0 L 736.1 59.0 Z M 736.1 6.6 "></path></clipPath><g clip-path="url(#clip-97)"><text xml:space="preserve" font-family="Palatino-Roman" font-size="28.0" fill="#FEFFFE" transform="matrix(1.00, 0.00, -0.00, -1.00, 744.0, 22.0)">S</text><text xml:space="preserve" font-family="Palatino-Roman" font-size="28.0" fill="#FEFFFE" transform="matrix(1.00, 0.00, -0.00, -1.00, 758.7, 22.0)">c</text><text xml:space="preserve" font-family="Palatino-Roman" font-size="28.0" fill="#FEFFFE" transform="matrix(1.00, 0.00, -0.00, -1.00, 771.1, 22.0)">e</text><text xml:space="preserve" font-family="Palatino-Roman" font-size="28.0" fill="#FEFFFE" transform="matrix(1.00, 0.00, -0.00, -1.00, 784.5, 22.0)">n</text><text xml:space="preserve" font-family="Palatino-Roman" font-size="28.0" fill="#FEFFFE" transform="matrix(1.00, 0.00, -0.00, -1.00, 800.8, 22.0)">e</text><text xml:space="preserve" font-family="Palatino-Roman" font-size="28.0" fill="#FEFFFE" transform="matrix(1.00, 0.00, -0.00, -1.00, 814.2, 22.0)">s</text></g></g></g></svg>