<?xml version="1.0" encoding="UTF-8" standalone="no"?><svg xmlns="http://www.w3.org/2000/svg" xmlns:xlink="http://www.w3.org/1999/xlink" clip-rule="evenodd" stroke-miterlimit="4.00" viewBox="0 0 922 63"><desc>SVG generated by Keynote</desc><defs></defs><g transform="matrix(1.00, 0.00, -0.00, -1.00, 0.0, 63.0)"><g><clipPath id="clip-102"><path d="M 0.1 0.6 L 921.1 0.6 L 921.1 62.6 L 0.1 62.6 Z M 0.1 0.6 "></path></clipPath><g clip-path="url(#clip-102)"><path d="M 1.1 61.6 L 920.1 61.6 L 920.1 1.6 L 1.1 1.6 Z M 1.1 61.6 " fill="#7995B9" fill-opacity="0.70"></path></g></g><g><clipPath id="clip-103"><path d="M 734.1 6.4 L 909.5 6.4 L 909.5 58.8 L 734.1 58.8 Z M 734.1 6.4 "></path></clipPath><g clip-path="url(#clip-103)"><text xml:space="preserve" font-family="Palatino-Roman" font-size="28.0" fill="#FEFFFE" transform="matrix(1.00, 0.00, -0.00, -1.00, 742.0, 22.0)">C</text><text xml:space="preserve" font-family="Palatino-Roman" font-size="28.0" fill="#FEFFFE" transform="matrix(1.00, 0.00, -0.00, -1.00, 761.9, 22.0)">o</text><text xml:space="preserve" font-family="Palatino-Roman" font-size="28.0" fill="#FEFFFE" transform="matrix(1.00, 0.00, -0.00, -1.00, 777.1, 22.0)">m</text><text xml:space="preserve" font-family="Palatino-Roman" font-size="28.0" fill="#FEFFFE" transform="matrix(1.00, 0.00, -0.00, -1.00, 801.8, 22.0)">p</text><text xml:space="preserve" font-family="Palatino-Roman" font-size="28.0" fill="#FEFFFE" transform="matrix(1.00, 0.00, -0.00, -1.00, 818.7, 22.0)">o</text><text xml:space="preserve" font-family="Palatino-Roman" font-size="28.0" fill="#FEFFFE" transform="matrix(1.00, 0.00, -0.00, -1.00, 834.0, 22.0)">n</text><text xml:space="preserve" font-family="Palatino-Roman" font-size="28.0" fill="#FEFFFE" transform="matrix(1.00, 0.00, -0.00, -1.00, 850.3, 22.0)">e</text><text xml:space="preserve" font-family="Palatino-Roman" font-size="28.0" fill="#FEFFFE" transform="matrix(1.00, 0.00, -0.00, -1.00, 863.7, 22.0)">n</text><text xml:space="preserve" font-family="Palatino-Roman" font-size="28.0" fill="#FEFFFE" transform="matrix(1.00, 0.00, -0.00, -1.00, 880.0, 22.0)">t</text><text xml:space="preserve" font-family="Palatino-Roman" font-size="28.0" fill="#FEFFFE" transform="matrix(1.00, 0.00, -0.00, -1.00, 889.1, 22.0)">s</text></g></g></g></svg>