<?xml version="1.0" encoding="UTF-8" standalone="no"?><svg xmlns="http://www.w3.org/2000/svg" xmlns:xlink="http://www.w3.org/1999/xlink" clip-rule="evenodd" stroke-miterlimit="4.00" viewBox="0 0 185 40"><desc>SVG generated by Keynote</desc><defs></defs><g transform="matrix(1.00, 0.00, -0.00, -1.00, 0.0, 40.0)"><g><clipPath id="clip-489"><path d="M -0.4 -0.5 L 185.1 -0.5 L 185.1 40.5 L -0.4 40.5 Z M -0.4 -0.5 "></path></clipPath><g clip-path="url(#clip-489)"><text xml:space="preserve" font-family="Palatino-Roman" font-size="30.0" fill="#E42100" transform="matrix(1.00, 0.00, -0.00, -1.00, 5.6, 8.3)">•</text><text xml:space="preserve" font-family="Courier" font-size="24.0" fill="#FEFFFE" transform="matrix(1.00, 0.00, -0.00, -1.00, 42.0, 11.0)">m</text><text xml:space="preserve" font-family="Courier" font-size="24.0" fill="#FEFFFE" transform="matrix(1.00, 0.00, -0.00, -1.00, 56.4, 11.0)">a</text><text xml:space="preserve" font-family="Courier" font-size="24.0" fill="#FEFFFE" transform="matrix(1.00, 0.00, -0.00, -1.00, 70.8, 11.0)">p</text><text xml:space="preserve" font-family="Courier" font-size="24.0" fill="#FEFFFE" transform="matrix(1.00, 0.00, -0.00, -1.00, 85.2, 11.0)">(</text><text xml:space="preserve" font-family="Courier" font-size="24.0" fill="#FEFFFE" transform="matrix(1.00, 0.00, -0.00, -1.00, 99.6, 11.0)">f</text><text xml:space="preserve" font-family="Courier" font-size="24.0" fill="#FEFFFE" transform="matrix(1.00, 0.00, -0.00, -1.00, 114.0, 11.0)">)</text><text xml:space="preserve" font-family="Courier" font-size="24.0" fill="#FEFFFE" transform="matrix(1.00, 0.00, -0.00, -1.00, 128.4, 11.0)"> </text></g></g></g></svg>