<?xml version="1.0" encoding="UTF-8" standalone="no"?><svg xmlns="http://www.w3.org/2000/svg" xmlns:xlink="http://www.w3.org/1999/xlink" clip-rule="evenodd" stroke-miterlimit="4.00" viewBox="0 0 546 24"><desc>SVG generated by Keynote</desc><defs></defs><g transform="matrix(1.00, 0.00, -0.00, -1.00, 0.0, 24.0)"><text xml:space="preserve" font-family="Courier" font-size="23.0" fill="#324763" transform="matrix(1.00, 0.00, -0.00, -1.00, -3.0, 6.0)">(</text><text xml:space="preserve" font-family="Courier" font-size="23.0" fill="#324763" transform="matrix(1.00, 0.00, -0.00, -1.00, 10.8, 6.0)"> </text><text xml:space="preserve" font-family="Courier" font-size="23.0" fill="#324763" transform="matrix(1.00, 0.00, -0.00, -1.00, 24.6, 6.0)">[</text><text xml:space="preserve" font-family="Courier" font-size="23.0" fill="#324763" transform="matrix(1.00, 0.00, -0.00, -1.00, 38.4, 6.0)">2</text><text xml:space="preserve" font-family="Courier" font-size="23.0" fill="#324763" transform="matrix(1.00, 0.00, -0.00, -1.00, 52.2, 6.0)">,</text><text xml:space="preserve" font-family="Courier" font-size="23.0" fill="#324763" transform="matrix(1.00, 0.00, -0.00, -1.00, 66.0, 6.0)"> </text><text xml:space="preserve" font-family="Courier" font-size="23.0" fill="#324763" transform="matrix(1.00, 0.00, -0.00, -1.00, 79.8, 6.0)">7</text><text xml:space="preserve" font-family="Courier" font-size="23.0" fill="#324763" transform="matrix(1.00, 0.00, -0.00, -1.00, 93.6, 6.0)">7</text><text xml:space="preserve" font-family="Courier" font-size="23.0" fill="#324763" transform="matrix(1.00, 0.00, -0.00, -1.00, 107.4, 6.0)">2</text><text xml:space="preserve" font-family="Courier" font-size="23.0" fill="#324763" transform="matrix(1.00, 0.00, -0.00, -1.00, 121.3, 6.0)">[</text><text xml:space="preserve" font-family="Courier" font-size="23.0" fill="#324763" transform="matrix(1.00, 0.00, -0.00, -1.00, 135.1, 6.0)"> </text><text xml:space="preserve" font-family="Courier" font-size="23.0" fill="#324763" transform="matrix(1.00, 0.00, -0.00, -1.00, 148.9, 6.0)">[</text><text xml:space="preserve" font-family="Courier" font-size="23.0" fill="#324763" transform="matrix(1.00, 0.00, -0.00, -1.00, 162.7, 6.0)">2</text><text xml:space="preserve" font-family="Courier" font-size="23.0" fill="#324763" transform="matrix(1.00, 0.00, -0.00, -1.00, 176.5, 6.0)">2</text><text xml:space="preserve" font-family="Courier" font-size="23.0" fill="#324763" transform="matrix(1.00, 0.00, -0.00, -1.00, 190.3, 6.0)">3</text><text xml:space="preserve" font-family="Courier" font-size="23.0" fill="#324763" transform="matrix(1.00, 0.00, -0.00, -1.00, 204.1, 6.0)">,</text><text xml:space="preserve" font-family="Courier" font-size="23.0" fill="#324763" transform="matrix(1.00, 0.00, -0.00, -1.00, 217.9, 6.0)"> </text><text xml:space="preserve" font-family="Courier" font-size="23.0" fill="#324763" transform="matrix(1.00, 0.00, -0.00, -1.00, 231.7, 6.0)">3</text><text xml:space="preserve" font-family="Courier" font-size="23.0" fill="#324763" transform="matrix(1.00, 0.00, -0.00, -1.00, 245.5, 6.0)">8</text><text xml:space="preserve" font-family="Courier" font-size="23.0" fill="#324763" transform="matrix(1.00, 0.00, -0.00, -1.00, 259.3, 6.0)">0</text><text xml:space="preserve" font-family="Courier" font-size="23.0" fill="#324763" transform="matrix(1.00, 0.00, -0.00, -1.00, 273.1, 6.0)">[</text><text xml:space="preserve" font-family="Courier" font-size="23.0" fill="#324763" transform="matrix(1.00, 0.00, -0.00, -1.00, 286.9, 6.0)"> </text><text xml:space="preserve" font-family="Courier" font-size="23.0" fill="#324763" transform="matrix(1.00, 0.00, -0.00, -1.00, 300.7, 6.0)">)</text><text xml:space="preserve" font-family="Courier" font-size="23.0" fill="#324763" transform="matrix(1.00, 0.00, -0.00, -1.00, 314.5, 6.0)"> </text><text xml:space="preserve" font-family="Courier" font-size="23.0" fill="#324763" transform="matrix(1.00, 0.00, -0.00, -1.00, 328.3, 6.0)">(</text><text xml:space="preserve" font-family="Courier" font-size="23.0" fill="#324763" transform="matrix(1.00, 0.00, -0.00, -1.00, 342.1, 6.0)"> </text><text xml:space="preserve" font-family="Courier" font-size="23.0" fill="#324763" transform="matrix(1.00, 0.00, -0.00, -1.00, 355.9, 6.0)">[</text><text xml:space="preserve" font-family="Courier" font-size="23.0" fill="#324763" transform="matrix(1.00, 0.00, -0.00, -1.00, 369.7, 6.0)">4</text><text xml:space="preserve" font-family="Courier" font-size="23.0" fill="#324763" transform="matrix(1.00, 0.00, -0.00, -1.00, 383.5, 6.0)">/</text><text xml:space="preserve" font-family="Courier" font-size="23.0" fill="#324763" transform="matrix(1.00, 0.00, -0.00, -1.00, 397.3, 6.0)">4</text><text xml:space="preserve" font-family="Courier" font-size="23.0" fill="#324763" transform="matrix(1.00, 0.00, -0.00, -1.00, 411.1, 6.0)">,</text><text xml:space="preserve" font-family="Courier" font-size="23.0" fill="#324763" transform="matrix(1.00, 0.00, -0.00, -1.00, 425.0, 6.0)"> </text><text xml:space="preserve" font-family="Courier" font-size="23.0" fill="#324763" transform="matrix(1.00, 0.00, -0.00, -1.00, 438.8, 6.0)">8</text><text xml:space="preserve" font-family="Courier" font-size="23.0" fill="#324763" transform="matrix(1.00, 0.00, -0.00, -1.00, 452.6, 6.0)">/</text><text xml:space="preserve" font-family="Courier" font-size="23.0" fill="#324763" transform="matrix(1.00, 0.00, -0.00, -1.00, 466.4, 6.0)">4</text><text xml:space="preserve" font-family="Courier" font-size="23.0" fill="#324763" transform="matrix(1.00, 0.00, -0.00, -1.00, 480.2, 6.0)">[</text><text xml:space="preserve" font-family="Courier" font-size="23.0" fill="#324763" transform="matrix(1.00, 0.00, -0.00, -1.00, 494.0, 6.0)"> </text><text xml:space="preserve" font-family="Courier" font-size="23.0" fill="#324763" transform="matrix(1.00, 0.00, -0.00, -1.00, 507.8, 6.0)">)</text><text xml:space="preserve" font-family="Courier" font-size="23.0" fill="#324763" transform="matrix(1.00, 0.00, -0.00, -1.00, 521.6, 6.0)">’</text><text xml:space="preserve" font-family="Courier" font-size="23.0" fill="#324763" transform="matrix(1.00, 0.00, -0.00, -1.00, 535.3, 6.0)">;</text></g></svg>