<?xml version="1.0" encoding="UTF-8" standalone="no"?><svg xmlns="http://www.w3.org/2000/svg" xmlns:xlink="http://www.w3.org/1999/xlink" clip-rule="evenodd" stroke-miterlimit="4.00" viewBox="0 0 153 17"><desc>SVG generated by Keynote</desc><defs></defs><g transform="matrix(1.00, 0.00, -0.00, -1.00, 0.0, 17.0)"><text xml:space="preserve" font-family="Courier" font-size="15.0" fill="#000000" transform="matrix(1.00, 0.00, -0.00, -1.00, 0.0, 4.0)">/</text><text xml:space="preserve" font-family="Courier" font-size="15.0" fill="#000000" transform="matrix(1.00, 0.00, -0.00, -1.00, 9.0, 4.0)">I</text><text xml:space="preserve" font-family="Courier" font-size="15.0" fill="#000000" transform="matrix(1.00, 0.00, -0.00, -1.00, 18.0, 4.0)">T</text><text xml:space="preserve" font-family="Courier" font-size="15.0" fill="#000000" transform="matrix(1.00, 0.00, -0.00, -1.00, 27.0, 4.0)">L</text><text xml:space="preserve" font-family="Courier" font-size="15.0" fill="#000000" transform="matrix(1.00, 0.00, -0.00, -1.00, 36.0, 4.0)">/</text><text xml:space="preserve" font-family="Courier" font-size="15.0" fill="#000000" transform="matrix(1.00, 0.00, -0.00, -1.00, 45.0, 4.0)">s</text><text xml:space="preserve" font-family="Courier" font-size="15.0" fill="#000000" transform="matrix(1.00, 0.00, -0.00, -1.00, 54.0, 4.0)">c</text><text xml:space="preserve" font-family="Courier" font-size="15.0" fill="#000000" transform="matrix(1.00, 0.00, -0.00, -1.00, 63.0, 4.0)">e</text><text xml:space="preserve" font-family="Courier" font-size="15.0" fill="#000000" transform="matrix(1.00, 0.00, -0.00, -1.00, 72.0, 4.0)">n</text><text xml:space="preserve" font-family="Courier" font-size="15.0" fill="#000000" transform="matrix(1.00, 0.00, -0.00, -1.00, 81.0, 4.0)">e</text><text xml:space="preserve" font-family="Courier" font-size="15.0" fill="#000000" transform="matrix(1.00, 0.00, -0.00, -1.00, 90.0, 4.0)">/</text><text xml:space="preserve" font-family="Courier" font-size="15.0" fill="#000000" transform="matrix(1.00, 0.00, -0.00, -1.00, 99.0, 4.0)">*</text><text xml:space="preserve" font-family="Courier" font-size="15.0" fill="#000000" transform="matrix(1.00, 0.00, -0.00, -1.00, 108.0, 4.0)"> </text><text xml:space="preserve" font-family="Courier" font-size="15.0" fill="#000000" transform="matrix(1.00, 0.00, -0.00, -1.00, 117.0, 4.0)">d</text><text xml:space="preserve" font-family="Courier" font-size="15.0" fill="#000000" transform="matrix(1.00, 0.00, -0.00, -1.00, 126.0, 4.0)">e</text><text xml:space="preserve" font-family="Courier" font-size="15.0" fill="#000000" transform="matrix(1.00, 0.00, -0.00, -1.00, 135.0, 4.0)">l</text><text xml:space="preserve" font-family="Courier" font-size="15.0" fill="#000000" transform="matrix(1.00, 0.00, -0.00, -1.00, 144.0, 4.0)">;</text></g></svg>