<?xml version="1.0" encoding="UTF-8" standalone="no"?><svg xmlns="http://www.w3.org/2000/svg" xmlns:xlink="http://www.w3.org/1999/xlink" clip-rule="evenodd" stroke-miterlimit="4.00" viewBox="0 0 346 32"><desc>SVG generated by Keynote</desc><defs></defs><g transform="matrix(1.00, 0.00, -0.00, -1.00, 0.0, 32.0)"><text xml:space="preserve" font-family="Helvetica-Bold" font-weight="bold" font-size="30.0" fill="#0264C0" transform="matrix(1.00, 0.00, -0.00, -1.00, 1.0, 8.0)">t</text><text xml:space="preserve" font-family="Helvetica-Bold" font-weight="bold" font-size="30.0" fill="#0264C0" transform="matrix(1.00, 0.00, -0.00, -1.00, 11.0, 8.0)">o</text><text xml:space="preserve" font-family="Helvetica-Bold" font-weight="bold" font-size="30.0" fill="#0264C0" transform="matrix(1.00, 0.00, -0.00, -1.00, 29.3, 8.0)"> </text><text xml:space="preserve" font-family="Helvetica-Bold" font-weight="bold" font-size="30.0" fill="#0264C0" transform="matrix(1.00, 0.00, -0.00, -1.00, 37.6, 8.0)">b</text><text xml:space="preserve" font-family="Helvetica-Bold" font-weight="bold" font-size="30.0" fill="#0264C0" transform="matrix(1.00, 0.00, -0.00, -1.00, 56.0, 8.0)">u</text><text xml:space="preserve" font-family="Helvetica-Bold" font-weight="bold" font-size="30.0" fill="#0264C0" transform="matrix(1.00, 0.00, -0.00, -1.00, 74.3, 8.0)">i</text><text xml:space="preserve" font-family="Helvetica-Bold" font-weight="bold" font-size="30.0" fill="#0264C0" transform="matrix(1.00, 0.00, -0.00, -1.00, 82.6, 8.0)">l</text><text xml:space="preserve" font-family="Helvetica-Bold" font-weight="bold" font-size="30.0" fill="#0264C0" transform="matrix(1.00, 0.00, -0.00, -1.00, 90.9, 8.0)">d</text><text xml:space="preserve" font-family="Helvetica-Bold" font-weight="bold" font-size="30.0" fill="#0264C0" transform="matrix(1.00, 0.00, -0.00, -1.00, 109.3, 8.0)"> </text><text xml:space="preserve" font-family="Helvetica-Bold" font-weight="bold" font-size="30.0" fill="#0264C0" transform="matrix(1.00, 0.00, -0.00, -1.00, 117.6, 8.0)">a</text><text xml:space="preserve" font-family="Helvetica-Bold" font-weight="bold" font-size="30.0" fill="#0264C0" transform="matrix(1.00, 0.00, -0.00, -1.00, 134.3, 8.0)"> </text><text xml:space="preserve" font-family="Helvetica-Bold" font-weight="bold" font-size="30.0" fill="#0264C0" transform="matrix(1.00, 0.00, -0.00, -1.00, 142.6, 8.0)">g</text><text xml:space="preserve" font-family="Helvetica-Bold" font-weight="bold" font-size="30.0" fill="#0264C0" transform="matrix(1.00, 0.00, -0.00, -1.00, 160.9, 8.0)">r</text><text xml:space="preserve" font-family="Helvetica-Bold" font-weight="bold" font-size="30.0" fill="#0264C0" transform="matrix(1.00, 0.00, -0.00, -1.00, 172.6, 8.0)">a</text><text xml:space="preserve" font-family="Helvetica-Bold" font-weight="bold" font-size="30.0" fill="#0264C0" transform="matrix(1.00, 0.00, -0.00, -1.00, 189.3, 8.0)">p</text><text xml:space="preserve" font-family="Helvetica-Bold" font-weight="bold" font-size="30.0" fill="#0264C0" transform="matrix(1.00, 0.00, -0.00, -1.00, 207.6, 8.0)">h</text><text xml:space="preserve" font-family="Helvetica-Bold" font-weight="bold" font-size="30.0" fill="#0264C0" transform="matrix(1.00, 0.00, -0.00, -1.00, 225.9, 8.0)">i</text><text xml:space="preserve" font-family="Helvetica-Bold" font-weight="bold" font-size="30.0" fill="#0264C0" transform="matrix(1.00, 0.00, -0.00, -1.00, 234.3, 8.0)">c</text><text xml:space="preserve" font-family="Helvetica-Bold" font-weight="bold" font-size="30.0" fill="#0264C0" transform="matrix(1.00, 0.00, -0.00, -1.00, 251.0, 8.0)"> </text><text xml:space="preserve" font-family="Helvetica-Bold" font-weight="bold" font-size="30.0" fill="#0264C0" transform="matrix(1.00, 0.00, -0.00, -1.00, 259.3, 8.0)">s</text><text xml:space="preserve" font-family="Helvetica-Bold" font-weight="bold" font-size="30.0" fill="#0264C0" transform="matrix(1.00, 0.00, -0.00, -1.00, 276.0, 8.0)">i</text><text xml:space="preserve" font-family="Helvetica-Bold" font-weight="bold" font-size="30.0" fill="#0264C0" transform="matrix(1.00, 0.00, -0.00, -1.00, 284.3, 8.0)">g</text><text xml:space="preserve" font-family="Helvetica-Bold" font-weight="bold" font-size="30.0" fill="#0264C0" transform="matrix(1.00, 0.00, -0.00, -1.00, 302.6, 8.0)">n</text><text xml:space="preserve" font-family="Helvetica-Bold" font-weight="bold" font-size="30.0" fill="#0264C0" transform="matrix(1.00, 0.00, -0.00, -1.00, 320.9, 8.0)">a</text><text xml:space="preserve" font-family="Helvetica-Bold" font-weight="bold" font-size="30.0" fill="#0264C0" transform="matrix(1.00, 0.00, -0.00, -1.00, 337.6, 8.0)">l</text></g></svg>