<?xml version="1.0" encoding="UTF-8" standalone="no"?><svg xmlns="http://www.w3.org/2000/svg" xmlns:xlink="http://www.w3.org/1999/xlink" clip-rule="evenodd" stroke-miterlimit="4.00" viewBox="0 0 585 24"><desc>SVG generated by Keynote</desc><defs></defs><g transform="matrix(1.00, 0.00, -0.00, -1.00, 0.0, 24.0)"><text xml:space="preserve" font-family="Courier" font-size="22.0" fill="#FEFFFE" transform="matrix(1.00, 0.00, -0.00, -1.00, -2.0, 7.0)">[</text><text xml:space="preserve" font-family="Courier" font-size="22.0" fill="#FEFFFE" transform="matrix(1.00, 0.00, -0.00, -1.00, 11.2, 7.0)"> </text><text xml:space="preserve" font-family="Courier" font-size="22.0" fill="#FEFFFE" transform="matrix(1.00, 0.00, -0.00, -1.00, 44.0, 7.0)">\</text><text xml:space="preserve" font-family="Courier" font-size="22.0" fill="#FEFFFE" transform="matrix(1.00, 0.00, -0.00, -1.00, 57.2, 7.0)">m</text><text xml:space="preserve" font-family="Courier" font-size="22.0" fill="#FEFFFE" transform="matrix(1.00, 0.00, -0.00, -1.00, 70.4, 7.0)">e</text><text xml:space="preserve" font-family="Courier" font-size="22.0" fill="#FEFFFE" transform="matrix(1.00, 0.00, -0.00, -1.00, 83.6, 7.0)">t</text><text xml:space="preserve" font-family="Courier" font-size="22.0" fill="#FEFFFE" transform="matrix(1.00, 0.00, -0.00, -1.00, 96.8, 7.0)">e</text><text xml:space="preserve" font-family="Courier" font-size="22.0" fill="#FEFFFE" transform="matrix(1.00, 0.00, -0.00, -1.00, 110.0, 7.0)">r</text><text xml:space="preserve" font-family="Courier" font-size="22.0" fill="#FEFFFE" transform="matrix(1.00, 0.00, -0.00, -1.00, 123.2, 7.0)">&lt;</text><text xml:space="preserve" font-family="Courier" font-size="22.0" fill="#FEFFFE" transform="matrix(1.00, 0.00, -0.00, -1.00, 136.4, 7.0)">"</text><text xml:space="preserve" font-family="Courier" font-size="22.0" fill="#FEFFFE" transform="matrix(1.00, 0.00, -0.00, -1.00, 149.6, 7.0)">2</text><text xml:space="preserve" font-family="Courier" font-size="22.0" fill="#FEFFFE" transform="matrix(1.00, 0.00, -0.00, -1.00, 162.8, 7.0)">/</text><text xml:space="preserve" font-family="Courier" font-size="22.0" fill="#FEFFFE" transform="matrix(1.00, 0.00, -0.00, -1.00, 176.1, 7.0)">4</text><text xml:space="preserve" font-family="Courier" font-size="22.0" fill="#FEFFFE" transform="matrix(1.00, 0.00, -0.00, -1.00, 189.3, 7.0)">"</text><text xml:space="preserve" font-family="Courier" font-size="22.0" fill="#FEFFFE" transform="matrix(1.00, 0.00, -0.00, -1.00, 202.5, 7.0)">&gt;</text><text xml:space="preserve" font-family="Courier" font-size="22.0" fill="#FEFFFE" transform="matrix(1.00, 0.00, -0.00, -1.00, 215.7, 7.0)"> </text><text xml:space="preserve" font-family="Courier" font-size="22.0" fill="#FEFFFE" transform="matrix(1.00, 0.00, -0.00, -1.00, 228.9, 7.0)"> </text><text xml:space="preserve" font-family="Courier" font-size="22.0" fill="#FEFFFE" transform="matrix(1.00, 0.00, -0.00, -1.00, 242.1, 7.0)">\</text><text xml:space="preserve" font-family="Courier" font-size="22.0" fill="#FEFFFE" transform="matrix(1.00, 0.00, -0.00, -1.00, 255.3, 7.0)">b</text><text xml:space="preserve" font-family="Courier" font-size="22.0" fill="#FEFFFE" transform="matrix(1.00, 0.00, -0.00, -1.00, 268.5, 7.0)">a</text><text xml:space="preserve" font-family="Courier" font-size="22.0" fill="#FEFFFE" transform="matrix(1.00, 0.00, -0.00, -1.00, 281.7, 7.0)">r</text><text xml:space="preserve" font-family="Courier" font-size="22.0" fill="#FEFFFE" transform="matrix(1.00, 0.00, -0.00, -1.00, 294.9, 7.0)">F</text><text xml:space="preserve" font-family="Courier" font-size="22.0" fill="#FEFFFE" transform="matrix(1.00, 0.00, -0.00, -1.00, 308.1, 7.0)">o</text><text xml:space="preserve" font-family="Courier" font-size="22.0" fill="#FEFFFE" transform="matrix(1.00, 0.00, -0.00, -1.00, 321.3, 7.0)">r</text><text xml:space="preserve" font-family="Courier" font-size="22.0" fill="#FEFFFE" transform="matrix(1.00, 0.00, -0.00, -1.00, 334.5, 7.0)">m</text><text xml:space="preserve" font-family="Courier" font-size="22.0" fill="#FEFFFE" transform="matrix(1.00, 0.00, -0.00, -1.00, 347.7, 7.0)">a</text><text xml:space="preserve" font-family="Courier" font-size="22.0" fill="#FEFFFE" transform="matrix(1.00, 0.00, -0.00, -1.00, 360.9, 7.0)">t</text><text xml:space="preserve" font-family="Courier" font-size="22.0" fill="#FEFFFE" transform="matrix(1.00, 0.00, -0.00, -1.00, 374.1, 7.0)">&lt;</text><text xml:space="preserve" font-family="Courier" font-size="22.0" fill="#FEFFFE" transform="matrix(1.00, 0.00, -0.00, -1.00, 387.3, 7.0)">s</text><text xml:space="preserve" font-family="Courier" font-size="22.0" fill="#FEFFFE" transform="matrix(1.00, 0.00, -0.00, -1.00, 400.5, 7.0)">t</text><text xml:space="preserve" font-family="Courier" font-size="22.0" fill="#FEFFFE" transform="matrix(1.00, 0.00, -0.00, -1.00, 413.7, 7.0)">y</text><text xml:space="preserve" font-family="Courier" font-size="22.0" fill="#FEFFFE" transform="matrix(1.00, 0.00, -0.00, -1.00, 426.9, 7.0)">l</text><text xml:space="preserve" font-family="Courier" font-size="22.0" fill="#FEFFFE" transform="matrix(1.00, 0.00, -0.00, -1.00, 440.1, 7.0)">e</text><text xml:space="preserve" font-family="Courier" font-size="22.0" fill="#FEFFFE" transform="matrix(1.00, 0.00, -0.00, -1.00, 453.3, 7.0)">=</text><text xml:space="preserve" font-family="Courier" font-size="22.0" fill="#FEFFFE" transform="matrix(1.00, 0.00, -0.00, -1.00, 466.5, 7.0)">"</text><text xml:space="preserve" font-family="Courier" font-size="22.0" fill="#FEFFFE" transform="matrix(1.00, 0.00, -0.00, -1.00, 479.8, 7.0)">s</text><text xml:space="preserve" font-family="Courier" font-size="22.0" fill="#FEFFFE" transform="matrix(1.00, 0.00, -0.00, -1.00, 493.0, 7.0)">y</text><text xml:space="preserve" font-family="Courier" font-size="22.0" fill="#FEFFFE" transform="matrix(1.00, 0.00, -0.00, -1.00, 506.2, 7.0)">s</text><text xml:space="preserve" font-family="Courier" font-size="22.0" fill="#FEFFFE" transform="matrix(1.00, 0.00, -0.00, -1.00, 519.4, 7.0)">t</text><text xml:space="preserve" font-family="Courier" font-size="22.0" fill="#FEFFFE" transform="matrix(1.00, 0.00, -0.00, -1.00, 532.6, 7.0)">e</text><text xml:space="preserve" font-family="Courier" font-size="22.0" fill="#FEFFFE" transform="matrix(1.00, 0.00, -0.00, -1.00, 545.8, 7.0)">m</text><text xml:space="preserve" font-family="Courier" font-size="22.0" fill="#FEFFFE" transform="matrix(1.00, 0.00, -0.00, -1.00, 559.0, 7.0)">"</text><text xml:space="preserve" font-family="Courier" font-size="22.0" fill="#FEFFFE" transform="matrix(1.00, 0.00, -0.00, -1.00, 572.2, 7.0)">&gt;</text></g></svg>