<?xml version="1.0" encoding="UTF-8" standalone="no"?><svg xmlns="http://www.w3.org/2000/svg" xmlns:xlink="http://www.w3.org/1999/xlink" clip-rule="evenodd" stroke-miterlimit="4.00" viewBox="0 0 134 23"><desc>SVG generated by Keynote</desc><defs></defs><g transform="matrix(1.00, 0.00, -0.00, -1.00, 0.0, 23.0)"><text xml:space="preserve" font-family="Courier" font-size="22.0" fill="#FEFFFE" transform="matrix(1.00, 0.00, -0.00, -1.00, 1.0, 6.0)">a</text><text xml:space="preserve" font-family="Courier" font-size="22.0" fill="#FEFFFE" transform="matrix(1.00, 0.00, -0.00, -1.00, 14.2, 6.0)">/</text><text xml:space="preserve" font-family="Courier" font-size="22.0" fill="#FEFFFE" transform="matrix(1.00, 0.00, -0.00, -1.00, 27.4, 6.0)">1</text><text xml:space="preserve" font-family="Courier" font-size="22.0" fill="#FEFFFE" transform="matrix(1.00, 0.00, -0.00, -1.00, 40.6, 6.0)">6</text><text xml:space="preserve" font-family="Courier" font-size="22.0" fill="#FEFFFE" transform="matrix(1.00, 0.00, -0.00, -1.00, 53.8, 6.0)"> </text><text xml:space="preserve" font-family="Courier" font-size="22.0" fill="#FEFFFE" transform="matrix(1.00, 0.00, -0.00, -1.00, 67.0, 6.0)">e</text><text xml:space="preserve" font-family="Courier" font-size="22.0" fill="#FEFFFE" transform="matrix(1.00, 0.00, -0.00, -1.00, 80.2, 6.0)"> </text><text xml:space="preserve" font-family="Courier" font-size="22.0" fill="#FEFFFE" transform="matrix(1.00, 0.00, -0.00, -1.00, 93.4, 6.0)">g</text><text xml:space="preserve" font-family="Courier" font-size="22.0" fill="#FEFFFE" transform="matrix(1.00, 0.00, -0.00, -1.00, 106.6, 6.0)"> </text><text xml:space="preserve" font-family="Courier" font-size="22.0" fill="#FEFFFE" transform="matrix(1.00, 0.00, -0.00, -1.00, 119.8, 6.0)">h</text></g></svg>