<?xml version="1.0" encoding="UTF-8" standalone="no"?><svg xmlns="http://www.w3.org/2000/svg" xmlns:xlink="http://www.w3.org/1999/xlink" clip-rule="evenodd" stroke-miterlimit="4.00" viewBox="0 0 388 23"><desc>SVG generated by Keynote</desc><defs></defs><g transform="matrix(1.00, 0.00, -0.00, -1.00, 0.0, 23.0)"><text xml:space="preserve" font-family="Courier" font-size="22.0" fill="#FEFFFE" transform="matrix(1.00, 0.00, -0.00, -1.00, -2.0, 6.0)">[</text><text xml:space="preserve" font-family="Courier" font-size="22.0" fill="#FEFFFE" transform="matrix(1.00, 0.00, -0.00, -1.00, 44.0, 6.0)">\</text><text xml:space="preserve" font-family="Courier" font-size="22.0" fill="#FEFFFE" transform="matrix(1.00, 0.00, -0.00, -1.00, 57.2, 6.0)">s</text><text xml:space="preserve" font-family="Courier" font-size="22.0" fill="#FEFFFE" transform="matrix(1.00, 0.00, -0.00, -1.00, 70.4, 6.0)">t</text><text xml:space="preserve" font-family="Courier" font-size="22.0" fill="#FEFFFE" transform="matrix(1.00, 0.00, -0.00, -1.00, 83.6, 6.0)">a</text><text xml:space="preserve" font-family="Courier" font-size="22.0" fill="#FEFFFE" transform="matrix(1.00, 0.00, -0.00, -1.00, 96.8, 6.0)">f</text><text xml:space="preserve" font-family="Courier" font-size="22.0" fill="#FEFFFE" transform="matrix(1.00, 0.00, -0.00, -1.00, 110.0, 6.0)">f</text><text xml:space="preserve" font-family="Courier" font-size="22.0" fill="#FEFFFE" transform="matrix(1.00, 0.00, -0.00, -1.00, 123.2, 6.0)">&lt;</text><text xml:space="preserve" font-family="Courier" font-size="22.0" fill="#FEFFFE" transform="matrix(1.00, 0.00, -0.00, -1.00, 136.4, 6.0)">1</text><text xml:space="preserve" font-family="Courier" font-size="22.0" fill="#FEFFFE" transform="matrix(1.00, 0.00, -0.00, -1.00, 149.6, 6.0)">&gt;</text><text xml:space="preserve" font-family="Courier" font-size="22.0" fill="#FEFFFE" transform="matrix(1.00, 0.00, -0.00, -1.00, 162.8, 6.0)"> </text><text xml:space="preserve" font-family="Courier" font-size="22.0" fill="#FEFFFE" transform="matrix(1.00, 0.00, -0.00, -1.00, 176.0, 6.0)">\</text><text xml:space="preserve" font-family="Courier" font-size="22.0" fill="#FEFFFE" transform="matrix(1.00, 0.00, -0.00, -1.00, 189.2, 6.0)">s</text><text xml:space="preserve" font-family="Courier" font-size="22.0" fill="#FEFFFE" transform="matrix(1.00, 0.00, -0.00, -1.00, 202.4, 6.0)">t</text><text xml:space="preserve" font-family="Courier" font-size="22.0" fill="#FEFFFE" transform="matrix(1.00, 0.00, -0.00, -1.00, 215.6, 6.0)">e</text><text xml:space="preserve" font-family="Courier" font-size="22.0" fill="#FEFFFE" transform="matrix(1.00, 0.00, -0.00, -1.00, 228.8, 6.0)">m</text><text xml:space="preserve" font-family="Courier" font-size="22.0" fill="#FEFFFE" transform="matrix(1.00, 0.00, -0.00, -1.00, 242.0, 6.0)">s</text><text xml:space="preserve" font-family="Courier" font-size="22.0" fill="#FEFFFE" transform="matrix(1.00, 0.00, -0.00, -1.00, 255.2, 6.0)">D</text><text xml:space="preserve" font-family="Courier" font-size="22.0" fill="#FEFFFE" transform="matrix(1.00, 0.00, -0.00, -1.00, 268.4, 6.0)">o</text><text xml:space="preserve" font-family="Courier" font-size="22.0" fill="#FEFFFE" transform="matrix(1.00, 0.00, -0.00, -1.00, 281.6, 6.0)">w</text><text xml:space="preserve" font-family="Courier" font-size="22.0" fill="#FEFFFE" transform="matrix(1.00, 0.00, -0.00, -1.00, 294.8, 6.0)">n</text><text xml:space="preserve" font-family="Courier" font-size="22.0" fill="#FEFFFE" transform="matrix(1.00, 0.00, -0.00, -1.00, 308.0, 6.0)"> </text><text xml:space="preserve" font-family="Courier" font-size="22.0" fill="#FEFFFE" transform="matrix(1.00, 0.00, -0.00, -1.00, 321.2, 6.0)">g</text><text xml:space="preserve" font-family="Courier" font-size="22.0" fill="#FEFFFE" transform="matrix(1.00, 0.00, -0.00, -1.00, 334.4, 6.0)">/</text><text xml:space="preserve" font-family="Courier" font-size="22.0" fill="#FEFFFE" transform="matrix(1.00, 0.00, -0.00, -1.00, 347.6, 6.0)">8</text><text xml:space="preserve" font-family="Courier" font-size="22.0" fill="#FEFFFE" transform="matrix(1.00, 0.00, -0.00, -1.00, 360.8, 6.0)"> </text><text xml:space="preserve" font-family="Courier" font-size="22.0" fill="#FEFFFE" transform="matrix(1.00, 0.00, -0.00, -1.00, 374.0, 6.0)">e</text></g></svg>