<?xml version="1.0" encoding="UTF-8" standalone="no"?><svg xmlns="http://www.w3.org/2000/svg" xmlns:xlink="http://www.w3.org/1999/xlink" clip-rule="evenodd" stroke-miterlimit="4.00" viewBox="0 0 1024 768"><desc>SVG generated by Keynote</desc><defs></defs><g transform="matrix(1.00, 0.00, -0.00, -1.00, 0.0, 768.0)"><path d="M 0.0 768.0 L 1024.0 768.0 L 1024.0 0.0 L 0.0 0.0 Z M 0.0 768.0 " fill="#000000"></path><text xml:space="preserve" font-family="Avenir-Book" font-size="20.0" fill="#D5D5D5" transform="matrix(1.00, 0.00, -0.00, -1.00, 366.0, 28.0)">G</text><text xml:space="preserve" font-family="Avenir-Book" font-size="20.0" fill="#D5D5D5" transform="matrix(1.00, 0.00, -0.00, -1.00, 381.6, 28.0)">u</text><text xml:space="preserve" font-family="Avenir-Book" font-size="20.0" fill="#D5D5D5" transform="matrix(1.00, 0.00, -0.00, -1.00, 392.7, 28.0)">i</text><text xml:space="preserve" font-family="Avenir-Book" font-size="20.0" fill="#D5D5D5" transform="matrix(1.00, 0.00, -0.00, -1.00, 397.5, 28.0)">d</text><text xml:space="preserve" font-family="Avenir-Book" font-size="20.0" fill="#D5D5D5" transform="matrix(1.00, 0.00, -0.00, -1.00, 409.7, 28.0)">o</text><text xml:space="preserve" font-family="Avenir-Book" font-size="20.0" fill="#D5D5D5" transform="matrix(1.00, 0.00, -0.00, -1.00, 421.6, 28.0)"> </text><text xml:space="preserve" font-family="Avenir-Book" font-size="20.0" fill="#D5D5D5" transform="matrix(1.00, 0.00, -0.00, -1.00, 427.1, 28.0)">M</text><text xml:space="preserve" font-family="Avenir-Book" font-size="20.0" fill="#D5D5D5" transform="matrix(1.00, 0.00, -0.00, -1.00, 444.9, 28.0)">u</text><text xml:space="preserve" font-family="Avenir-Book" font-size="20.0" fill="#D5D5D5" transform="matrix(1.00, 0.00, -0.00, -1.00, 456.0, 28.0)">s</text><text xml:space="preserve" font-family="Avenir-Book" font-size="20.0" fill="#D5D5D5" transform="matrix(1.00, 0.00, -0.00, -1.00, 464.6, 28.0)">i</text><text xml:space="preserve" font-family="Avenir-Book" font-size="20.0" fill="#D5D5D5" transform="matrix(1.00, 0.00, -0.00, -1.00, 469.4, 28.0)">c</text><text xml:space="preserve" font-family="Avenir-Book" font-size="20.0" fill="#D5D5D5" transform="matrix(1.00, 0.00, -0.00, -1.00, 479.0, 28.0)"> </text><text xml:space="preserve" font-family="Avenir-Book" font-size="20.0" fill="#D5D5D5" transform="matrix(1.00, 0.00, -0.00, -1.00, 484.6, 28.0)">N</text><text xml:space="preserve" font-family="Avenir-Book" font-size="20.0" fill="#D5D5D5" transform="matrix(1.00, 0.00, -0.00, -1.00, 500.1, 28.0)">o</text><text xml:space="preserve" font-family="Avenir-Book" font-size="20.0" fill="#D5D5D5" transform="matrix(1.00, 0.00, -0.00, -1.00, 512.0, 28.0)">t</text><text xml:space="preserve" font-family="Avenir-Book" font-size="20.0" fill="#D5D5D5" transform="matrix(1.00, 0.00, -0.00, -1.00, 518.6, 28.0)">a</text><text xml:space="preserve" font-family="Avenir-Book" font-size="20.0" fill="#D5D5D5" transform="matrix(1.00, 0.00, -0.00, -1.00, 529.0, 28.0)">t</text><text xml:space="preserve" font-family="Avenir-Book" font-size="20.0" fill="#D5D5D5" transform="matrix(1.00, 0.00, -0.00, -1.00, 535.6, 28.0)">i</text><text xml:space="preserve" font-family="Avenir-Book" font-size="20.0" fill="#D5D5D5" transform="matrix(1.00, 0.00, -0.00, -1.00, 540.4, 28.0)">o</text><text xml:space="preserve" font-family="Avenir-Book" font-size="20.0" fill="#D5D5D5" transform="matrix(1.00, 0.00, -0.00, -1.00, 552.3, 28.0)">n</text><text xml:space="preserve" font-family="Avenir-Book" font-size="20.0" fill="#D5D5D5" transform="matrix(1.00, 0.00, -0.00, -1.00, 563.4, 28.0)"> </text><text xml:space="preserve" font-family="Avenir-Book" font-size="20.0" fill="#D5D5D5" transform="matrix(1.00, 0.00, -0.00, -1.00, 569.0, 28.0)">L</text><text xml:space="preserve" font-family="Avenir-Book" font-size="20.0" fill="#D5D5D5" transform="matrix(1.00, 0.00, -0.00, -1.00, 579.0, 28.0)">a</text><text xml:space="preserve" font-family="Avenir-Book" font-size="20.0" fill="#D5D5D5" transform="matrix(1.00, 0.00, -0.00, -1.00, 589.4, 28.0)">n</text><text xml:space="preserve" font-family="Avenir-Book" font-size="20.0" fill="#D5D5D5" transform="matrix(1.00, 0.00, -0.00, -1.00, 600.5, 28.0)">g</text><text xml:space="preserve" font-family="Avenir-Book" font-size="20.0" fill="#D5D5D5" transform="matrix(1.00, 0.00, -0.00, -1.00, 612.7, 28.0)">u</text><text xml:space="preserve" font-family="Avenir-Book" font-size="20.0" fill="#D5D5D5" transform="matrix(1.00, 0.00, -0.00, -1.00, 623.8, 28.0)">a</text><text xml:space="preserve" font-family="Avenir-Book" font-size="20.0" fill="#D5D5D5" transform="matrix(1.00, 0.00, -0.00, -1.00, 634.2, 28.0)">g</text><text xml:space="preserve" font-family="Avenir-Book" font-size="20.0" fill="#D5D5D5" transform="matrix(1.00, 0.00, -0.00, -1.00, 646.4, 28.0)">e</text><image xlink:href="../../700F755F-7DAE-4B88-9234-CA9CC96B4059/assets/3F62AD3267501240D0D0510AA970E03F.png" width="138.00" height="50.00" transform="matrix(1.00, 0.00, -0.00, -1.00, 741.6, 460.1)" opacity="0.50"></image><path d="M 744.6 459.1 L 876.1 459.1 L 876.1 415.1 L 744.6 415.1 Z M 744.6 459.1 " fill="#0264C0"></path><text xml:space="preserve" font-family="AvenirNext-DemiBold" font-weight="bold" font-size="50.0" fill="#FEFFFF" transform="matrix(1.00, 0.00, -0.00, -1.00, 73.0, 676.0)">A</text><text xml:space="preserve" font-family="AvenirNext-DemiBold" font-weight="bold" font-size="50.0" fill="#FEFFFF" transform="matrix(1.00, 0.00, -0.00, -1.00, 108.3, 676.0)">u</text><text xml:space="preserve" font-family="AvenirNext-DemiBold" font-weight="bold" font-size="50.0" fill="#FEFFFF" transform="matrix(1.00, 0.00, -0.00, -1.00, 137.4, 676.0)">t</text><text xml:space="preserve" font-family="AvenirNext-DemiBold" font-weight="bold" font-size="50.0" fill="#FEFFFF" transform="matrix(1.00, 0.00, -0.00, -1.00, 154.4, 676.0)">o</text><text xml:space="preserve" font-family="AvenirNext-DemiBold" font-weight="bold" font-size="50.0" fill="#FEFFFF" transform="matrix(1.00, 0.00, -0.00, -1.00, 184.9, 676.0)">m</text><text xml:space="preserve" font-family="AvenirNext-DemiBold" font-weight="bold" font-size="50.0" fill="#FEFFFF" transform="matrix(1.00, 0.00, -0.00, -1.00, 229.4, 676.0)">a</text><text xml:space="preserve" font-family="AvenirNext-DemiBold" font-weight="bold" font-size="50.0" fill="#FEFFFF" transform="matrix(1.00, 0.00, -0.00, -1.00, 256.4, 676.0)">t</text><text xml:space="preserve" font-family="AvenirNext-DemiBold" font-weight="bold" font-size="50.0" fill="#FEFFFF" transform="matrix(1.00, 0.00, -0.00, -1.00, 273.4, 676.0)">i</text><text xml:space="preserve" font-family="AvenirNext-DemiBold" font-weight="bold" font-size="50.0" fill="#FEFFFF" transform="matrix(1.00, 0.00, -0.00, -1.00, 286.8, 676.0)">c</text><text xml:space="preserve" font-family="AvenirNext-DemiBold" font-weight="bold" font-size="50.0" fill="#FEFFFF" transform="matrix(1.00, 0.00, -0.00, -1.00, 311.2, 676.0)"> </text><text xml:space="preserve" font-family="AvenirNext-DemiBold" font-weight="bold" font-size="50.0" fill="#FEFFFF" transform="matrix(1.00, 0.00, -0.00, -1.00, 323.7, 676.0)">a</text><text xml:space="preserve" font-family="AvenirNext-DemiBold" font-weight="bold" font-size="50.0" fill="#FEFFFF" transform="matrix(1.00, 0.00, -0.00, -1.00, 351.2, 676.0)">n</text><text xml:space="preserve" font-family="AvenirNext-DemiBold" font-weight="bold" font-size="50.0" fill="#FEFFFF" transform="matrix(1.00, 0.00, -0.00, -1.00, 380.3, 676.0)">d</text><text xml:space="preserve" font-family="AvenirNext-DemiBold" font-weight="bold" font-size="50.0" fill="#FEFFFF" transform="matrix(1.00, 0.00, -0.00, -1.00, 412.0, 676.0)"> </text><text xml:space="preserve" font-family="AvenirNext-DemiBold" font-weight="bold" font-size="50.0" fill="#FEFFFF" transform="matrix(1.00, 0.00, -0.00, -1.00, 424.5, 676.0)">m</text><text xml:space="preserve" font-family="AvenirNext-DemiBold" font-weight="bold" font-size="50.0" fill="#FEFFFF" transform="matrix(1.00, 0.00, -0.00, -1.00, 469.0, 676.0)">a</text><text xml:space="preserve" font-family="AvenirNext-DemiBold" font-weight="bold" font-size="50.0" fill="#FEFFFF" transform="matrix(1.00, 0.00, -0.00, -1.00, 496.5, 676.0)">n</text><text xml:space="preserve" font-family="AvenirNext-DemiBold" font-weight="bold" font-size="50.0" fill="#FEFFFF" transform="matrix(1.00, 0.00, -0.00, -1.00, 525.6, 676.0)">u</text><text xml:space="preserve" font-family="AvenirNext-DemiBold" font-weight="bold" font-size="50.0" fill="#FEFFFF" transform="matrix(1.00, 0.00, -0.00, -1.00, 554.7, 676.0)">a</text><text xml:space="preserve" font-family="AvenirNext-DemiBold" font-weight="bold" font-size="50.0" fill="#FEFFFF" transform="matrix(1.00, 0.00, -0.00, -1.00, 582.2, 676.0)">l</text><text xml:space="preserve" font-family="AvenirNext-DemiBold" font-weight="bold" font-size="50.0" fill="#FEFFFF" transform="matrix(1.00, 0.00, -0.00, -1.00, 595.6, 676.0)"> </text><text xml:space="preserve" font-family="AvenirNext-DemiBold" font-weight="bold" font-size="50.0" fill="#FEFFFF" transform="matrix(1.00, 0.00, -0.00, -1.00, 608.1, 676.0)">l</text><text xml:space="preserve" font-family="AvenirNext-DemiBold" font-weight="bold" font-size="50.0" fill="#FEFFFF" transform="matrix(1.00, 0.00, -0.00, -1.00, 621.5, 676.0)">a</text><text xml:space="preserve" font-family="AvenirNext-DemiBold" font-weight="bold" font-size="50.0" fill="#FEFFFF" transform="matrix(1.00, 0.00, -0.00, -1.00, 649.0, 676.0)">y</text><text xml:space="preserve" font-family="AvenirNext-DemiBold" font-weight="bold" font-size="50.0" fill="#FEFFFF" transform="matrix(1.00, 0.00, -0.00, -1.00, 674.7, 676.0)">o</text><text xml:space="preserve" font-family="AvenirNext-DemiBold" font-weight="bold" font-size="50.0" fill="#FEFFFF" transform="matrix(1.00, 0.00, -0.00, -1.00, 705.2, 676.0)">u</text><text xml:space="preserve" font-family="AvenirNext-DemiBold" font-weight="bold" font-size="50.0" fill="#FEFFFF" transform="matrix(1.00, 0.00, -0.00, -1.00, 734.3, 676.0)">t</text><text xml:space="preserve" font-family="Avenir-Book" font-size="18.0" fill="#D5D5D5" transform="matrix(1.00, 0.00, -0.00, -1.00, 30.0, 28.0)">3</text><text xml:space="preserve" font-family="Avenir-Book" font-size="18.0" fill="#D5D5D5" transform="matrix(1.00, 0.00, -0.00, -1.00, 40.0, 28.0)">3</text><image xlink:href="../../B04F1C97-ECAB-4D96-BED1-068678BAA01E/assets/BEF333F0D2746660C5E29CAA3BCC24B1.png" width="236.00" height="101.00" transform="matrix(1.00, 0.00, -0.00, -1.00, -285.0, 1087.0)"></image><text xml:space="preserve" font-family="Avenir-Book" font-size="38.0" fill="#FEFFFF" transform="matrix(1.00, 0.00, -0.00, -1.00, 71.0, 422.0)">E</text><text xml:space="preserve" font-family="Avenir-Book" font-size="38.0" fill="#FEFFFF" transform="matrix(1.00, 0.00, -0.00, -1.00, 93.5, 422.0)">x</text><text xml:space="preserve" font-family="Avenir-Book" font-size="38.0" fill="#FEFFFF" transform="matrix(1.00, 0.00, -0.00, -1.00, 111.8, 422.0)">a</text><text xml:space="preserve" font-family="Avenir-Book" font-size="38.0" fill="#FEFFFF" transform="matrix(1.00, 0.00, -0.00, -1.00, 131.6, 422.0)">m</text><text xml:space="preserve" font-family="Avenir-Book" font-size="38.0" fill="#FEFFFF" transform="matrix(1.00, 0.00, -0.00, -1.00, 163.9, 422.0)">p</text><text xml:space="preserve" font-family="Avenir-Book" font-size="38.0" fill="#FEFFFF" transform="matrix(1.00, 0.00, -0.00, -1.00, 187.2, 422.0)">l</text><text xml:space="preserve" font-family="Avenir-Book" font-size="38.0" fill="#FEFFFF" transform="matrix(1.00, 0.00, -0.00, -1.00, 196.3, 422.0)">e</text><text xml:space="preserve" font-family="Courier" font-size="30.0" fill="#F5D327" transform="matrix(1.00, 0.00, -0.00, -1.00, 244.0, 427.0)">[</text><text xml:space="preserve" font-family="Courier" font-size="30.0" fill="#F5D327" transform="matrix(1.00, 0.00, -0.00, -1.00, 262.0, 427.0)"> </text><text xml:space="preserve" font-family="Courier" font-size="30.0" fill="#F5D327" transform="matrix(1.00, 0.00, -0.00, -1.00, 280.0, 427.0)">\</text><text xml:space="preserve" font-family="Courier" font-size="30.0" fill="#F5D327" transform="matrix(1.00, 0.00, -0.00, -1.00, 298.0, 427.0)">m</text><text xml:space="preserve" font-family="Courier" font-size="30.0" fill="#F5D327" transform="matrix(1.00, 0.00, -0.00, -1.00, 316.0, 427.0)">e</text><text xml:space="preserve" font-family="Courier" font-size="30.0" fill="#F5D327" transform="matrix(1.00, 0.00, -0.00, -1.00, 334.0, 427.0)">t</text><text xml:space="preserve" font-family="Courier" font-size="30.0" fill="#F5D327" transform="matrix(1.00, 0.00, -0.00, -1.00, 352.0, 427.0)">e</text><text xml:space="preserve" font-family="Courier" font-size="30.0" fill="#F5D327" transform="matrix(1.00, 0.00, -0.00, -1.00, 370.0, 427.0)">r</text><text xml:space="preserve" font-family="Courier" font-size="30.0" fill="#F5D327" transform="matrix(1.00, 0.00, -0.00, -1.00, 388.0, 427.0)">&lt;</text><text xml:space="preserve" font-family="Courier" font-size="30.0" fill="#F5D327" transform="matrix(1.00, 0.00, -0.00, -1.00, 406.1, 427.0)">"</text><text xml:space="preserve" font-family="Courier" font-size="30.0" fill="#F5D327" transform="matrix(1.00, 0.00, -0.00, -1.00, 424.1, 427.0)">2</text><text xml:space="preserve" font-family="Courier" font-size="30.0" fill="#F5D327" transform="matrix(1.00, 0.00, -0.00, -1.00, 442.1, 427.0)">/</text><text xml:space="preserve" font-family="Courier" font-size="30.0" fill="#F5D327" transform="matrix(1.00, 0.00, -0.00, -1.00, 460.1, 427.0)">4</text><text xml:space="preserve" font-family="Courier" font-size="30.0" fill="#F5D327" transform="matrix(1.00, 0.00, -0.00, -1.00, 478.1, 427.0)">"</text><text xml:space="preserve" font-family="Courier" font-size="30.0" fill="#F5D327" transform="matrix(1.00, 0.00, -0.00, -1.00, 496.1, 427.0)">&gt;</text><text xml:space="preserve" font-family="Courier" font-size="30.0" fill="#F5D327" transform="matrix(1.00, 0.00, -0.00, -1.00, 514.1, 427.0)"> </text><text xml:space="preserve" font-family="Courier" font-size="30.0" fill="#F5D327" transform="matrix(1.00, 0.00, -0.00, -1.00, 532.1, 427.0)">\</text><text xml:space="preserve" font-family="Courier" font-size="30.0" fill="#F5D327" transform="matrix(1.00, 0.00, -0.00, -1.00, 550.1, 427.0)">i</text><text xml:space="preserve" font-family="Courier" font-size="30.0" fill="#F5D327" transform="matrix(1.00, 0.00, -0.00, -1.00, 568.1, 427.0)">n</text><text xml:space="preserve" font-family="Courier" font-size="30.0" fill="#F5D327" transform="matrix(1.00, 0.00, -0.00, -1.00, 586.1, 427.0)">t</text><text xml:space="preserve" font-family="Courier" font-size="30.0" fill="#F5D327" transform="matrix(1.00, 0.00, -0.00, -1.00, 604.1, 427.0)">e</text><text xml:space="preserve" font-family="Courier" font-size="30.0" fill="#F5D327" transform="matrix(1.00, 0.00, -0.00, -1.00, 622.1, 427.0)">n</text><text xml:space="preserve" font-family="Courier" font-size="30.0" fill="#F5D327" transform="matrix(1.00, 0.00, -0.00, -1.00, 640.1, 427.0)">s</text><text xml:space="preserve" font-family="Courier" font-size="30.0" fill="#F5D327" transform="matrix(1.00, 0.00, -0.00, -1.00, 658.1, 427.0)">&lt;</text><text xml:space="preserve" font-family="Courier" font-size="30.0" fill="#F5D327" transform="matrix(1.00, 0.00, -0.00, -1.00, 676.1, 427.0)">"</text><text xml:space="preserve" font-family="Courier" font-size="30.0" fill="#F5D327" transform="matrix(1.00, 0.00, -0.00, -1.00, 694.1, 427.0)">p</text><text xml:space="preserve" font-family="Courier" font-size="30.0" fill="#F5D327" transform="matrix(1.00, 0.00, -0.00, -1.00, 712.2, 427.0)">"</text><text xml:space="preserve" font-family="Courier" font-size="30.0" fill="#F5D327" transform="matrix(1.00, 0.00, -0.00, -1.00, 730.2, 427.0)">,</text><text xml:space="preserve" font-family="Courier" font-size="30.0" fill="#F5D327" transform="matrix(1.00, 0.00, -0.00, -1.00, 748.2, 427.0)">d</text><text xml:space="preserve" font-family="Courier" font-size="30.0" fill="#F5D327" transform="matrix(1.00, 0.00, -0.00, -1.00, 766.2, 427.0)">y</text><text xml:space="preserve" font-family="Courier" font-size="30.0" fill="#F5D327" transform="matrix(1.00, 0.00, -0.00, -1.00, 784.2, 427.0)">=</text><text xml:space="preserve" font-family="Courier" font-size="30.0" fill="#F5D327" transform="matrix(1.00, 0.00, -0.00, -1.00, 802.2, 427.0)">-</text><text xml:space="preserve" font-family="Courier" font-size="30.0" fill="#F5D327" transform="matrix(1.00, 0.00, -0.00, -1.00, 820.2, 427.0)">2</text><text xml:space="preserve" font-family="Courier" font-size="30.0" fill="#F5D327" transform="matrix(1.00, 0.00, -0.00, -1.00, 838.2, 427.0)">h</text><text xml:space="preserve" font-family="Courier" font-size="30.0" fill="#F5D327" transform="matrix(1.00, 0.00, -0.00, -1.00, 856.2, 427.0)">s</text><text xml:space="preserve" font-family="Courier" font-size="30.0" fill="#F5D327" transform="matrix(1.00, 0.00, -0.00, -1.00, 874.2, 427.0)">&gt;</text><text xml:space="preserve" font-family="Courier" font-size="30.0" fill="#F5D327" transform="matrix(1.00, 0.00, -0.00, -1.00, 892.2, 427.0)"> </text><text xml:space="preserve" font-family="Courier" font-size="30.0" fill="#F5D327" transform="matrix(1.00, 0.00, -0.00, -1.00, 910.2, 427.0)">c</text><text xml:space="preserve" font-family="Courier" font-size="30.0" fill="#F5D327" transform="matrix(1.00, 0.00, -0.00, -1.00, 928.2, 427.0)"> </text><text xml:space="preserve" font-family="Courier" font-size="30.0" fill="#F5D327" transform="matrix(1.00, 0.00, -0.00, -1.00, 946.2, 427.0)">e</text><text xml:space="preserve" font-family="Courier" font-size="30.0" fill="#F5D327" transform="matrix(1.00, 0.00, -0.00, -1.00, 964.2, 427.0)"> </text><text xml:space="preserve" font-family="Courier" font-size="30.0" fill="#F5D327" transform="matrix(1.00, 0.00, -0.00, -1.00, 982.2, 427.0)">]</text><text xml:space="preserve" font-family="Avenir-Book" font-size="38.0" fill="#FEFFFF" transform="matrix(1.00, 0.00, -0.00, -1.00, 67.0, 574.0)">M</text><text xml:space="preserve" font-family="Avenir-Book" font-size="38.0" fill="#FEFFFF" transform="matrix(1.00, 0.00, -0.00, -1.00, 100.8, 574.0)">a</text><text xml:space="preserve" font-family="Avenir-Book" font-size="38.0" fill="#FEFFFF" transform="matrix(1.00, 0.00, -0.00, -1.00, 120.5, 574.0)">n</text><text xml:space="preserve" font-family="Avenir-Book" font-size="38.0" fill="#FEFFFF" transform="matrix(1.00, 0.00, -0.00, -1.00, 141.7, 574.0)">u</text><text xml:space="preserve" font-family="Avenir-Book" font-size="38.0" fill="#FEFFFF" transform="matrix(1.00, 0.00, -0.00, -1.00, 162.8, 574.0)">a</text><text xml:space="preserve" font-family="Avenir-Book" font-size="38.0" fill="#FEFFFF" transform="matrix(1.00, 0.00, -0.00, -1.00, 182.5, 574.0)">l</text><text xml:space="preserve" font-family="Avenir-Book" font-size="38.0" fill="#FEFFFF" transform="matrix(1.00, 0.00, -0.00, -1.00, 191.6, 574.0)"> </text><text xml:space="preserve" font-family="Avenir-Book" font-size="38.0" fill="#FEFFFF" transform="matrix(1.00, 0.00, -0.00, -1.00, 202.2, 574.0)">l</text><text xml:space="preserve" font-family="Avenir-Book" font-size="38.0" fill="#FEFFFF" transform="matrix(1.00, 0.00, -0.00, -1.00, 211.3, 574.0)">a</text><text xml:space="preserve" font-family="Avenir-Book" font-size="38.0" fill="#FEFFFF" transform="matrix(1.00, 0.00, -0.00, -1.00, 231.0, 574.0)">y</text><text xml:space="preserve" font-family="Avenir-Book" font-size="38.0" fill="#FEFFFF" transform="matrix(1.00, 0.00, -0.00, -1.00, 249.4, 574.0)">o</text><text xml:space="preserve" font-family="Avenir-Book" font-size="38.0" fill="#FEFFFF" transform="matrix(1.00, 0.00, -0.00, -1.00, 271.9, 574.0)">u</text><text xml:space="preserve" font-family="Avenir-Book" font-size="38.0" fill="#FEFFFF" transform="matrix(1.00, 0.00, -0.00, -1.00, 293.0, 574.0)">t</text><text xml:space="preserve" font-family="Avenir-Book" font-size="38.0" fill="#FEFFFF" transform="matrix(1.00, 0.00, -0.00, -1.00, 305.6, 574.0)"> </text><text xml:space="preserve" font-family="Avenir-Book" font-size="38.0" fill="#FEFFFF" transform="matrix(1.00, 0.00, -0.00, -1.00, 316.2, 574.0)">i</text><text xml:space="preserve" font-family="Avenir-Book" font-size="38.0" fill="#FEFFFF" transform="matrix(1.00, 0.00, -0.00, -1.00, 325.3, 574.0)">s</text><text xml:space="preserve" font-family="Avenir-Book" font-size="38.0" fill="#FEFFFF" transform="matrix(1.00, 0.00, -0.00, -1.00, 341.5, 574.0)"> </text><text xml:space="preserve" font-family="Avenir-Book" font-size="38.0" fill="#FEFFFF" transform="matrix(1.00, 0.00, -0.00, -1.00, 352.1, 574.0)">a</text><text xml:space="preserve" font-family="Avenir-Book" font-size="38.0" fill="#FEFFFF" transform="matrix(1.00, 0.00, -0.00, -1.00, 371.8, 574.0)">l</text><text xml:space="preserve" font-family="Avenir-Book" font-size="38.0" fill="#FEFFFF" transform="matrix(1.00, 0.00, -0.00, -1.00, 380.9, 574.0)">w</text><text xml:space="preserve" font-family="Avenir-Book" font-size="38.0" fill="#FEFFFF" transform="matrix(1.00, 0.00, -0.00, -1.00, 408.4, 574.0)">a</text><text xml:space="preserve" font-family="Avenir-Book" font-size="38.0" fill="#FEFFFF" transform="matrix(1.00, 0.00, -0.00, -1.00, 428.1, 574.0)">y</text><text xml:space="preserve" font-family="Avenir-Book" font-size="38.0" fill="#FEFFFF" transform="matrix(1.00, 0.00, -0.00, -1.00, 446.4, 574.0)">s</text><text xml:space="preserve" font-family="Avenir-Book" font-size="38.0" fill="#FEFFFF" transform="matrix(1.00, 0.00, -0.00, -1.00, 462.6, 574.0)"> </text><text xml:space="preserve" font-family="Avenir-Book" font-size="38.0" fill="#FEFFFF" transform="matrix(1.00, 0.00, -0.00, -1.00, 473.1, 574.0)">p</text><text xml:space="preserve" font-family="Avenir-Book" font-size="38.0" fill="#FEFFFF" transform="matrix(1.00, 0.00, -0.00, -1.00, 496.4, 574.0)">o</text><text xml:space="preserve" font-family="Avenir-Book" font-size="38.0" fill="#FEFFFF" transform="matrix(1.00, 0.00, -0.00, -1.00, 518.9, 574.0)">s</text><text xml:space="preserve" font-family="Avenir-Book" font-size="38.0" fill="#FEFFFF" transform="matrix(1.00, 0.00, -0.00, -1.00, 535.1, 574.0)">s</text><text xml:space="preserve" font-family="Avenir-Book" font-size="38.0" fill="#FEFFFF" transform="matrix(1.00, 0.00, -0.00, -1.00, 551.3, 574.0)">i</text><text xml:space="preserve" font-family="Avenir-Book" font-size="38.0" fill="#FEFFFF" transform="matrix(1.00, 0.00, -0.00, -1.00, 560.4, 574.0)">b</text><text xml:space="preserve" font-family="Avenir-Book" font-size="38.0" fill="#FEFFFF" transform="matrix(1.00, 0.00, -0.00, -1.00, 583.6, 574.0)">l</text><text xml:space="preserve" font-family="Avenir-Book" font-size="38.0" fill="#FEFFFF" transform="matrix(1.00, 0.00, -0.00, -1.00, 592.7, 574.0)">e</text><text xml:space="preserve" font-family="Avenir-Book" font-size="38.0" fill="#FEFFFF" transform="matrix(1.00, 0.00, -0.00, -1.00, 613.9, 574.0)"> </text><text xml:space="preserve" font-family="Avenir-Book" font-size="38.0" fill="#FEFFFF" transform="matrix(1.00, 0.00, -0.00, -1.00, 624.4, 574.0)">a</text><text xml:space="preserve" font-family="Avenir-Book" font-size="38.0" fill="#FEFFFF" transform="matrix(1.00, 0.00, -0.00, -1.00, 644.1, 574.0)">n</text><text xml:space="preserve" font-family="Avenir-Book" font-size="38.0" fill="#FEFFFF" transform="matrix(1.00, 0.00, -0.00, -1.00, 665.3, 574.0)">d</text><text xml:space="preserve" font-family="Avenir-Book" font-size="38.0" fill="#FEFFFF" transform="matrix(1.00, 0.00, -0.00, -1.00, 688.5, 574.0)"> </text><text xml:space="preserve" font-family="Avenir-Book" font-size="38.0" fill="#FEFFFF" transform="matrix(1.00, 0.00, -0.00, -1.00, 699.1, 574.0)">s</text><text xml:space="preserve" font-family="Avenir-Book" font-size="38.0" fill="#FEFFFF" transform="matrix(1.00, 0.00, -0.00, -1.00, 715.2, 574.0)">o</text><text xml:space="preserve" font-family="Avenir-Book" font-size="38.0" fill="#FEFFFF" transform="matrix(1.00, 0.00, -0.00, -1.00, 737.8, 574.0)">m</text><text xml:space="preserve" font-family="Avenir-Book" font-size="38.0" fill="#FEFFFF" transform="matrix(1.00, 0.00, -0.00, -1.00, 770.2, 574.0)">e</text><text xml:space="preserve" font-family="Avenir-Book" font-size="38.0" fill="#FEFFFF" transform="matrix(1.00, 0.00, -0.00, -1.00, 791.3, 574.0)">t</text><text xml:space="preserve" font-family="Avenir-Book" font-size="38.0" fill="#FEFFFF" transform="matrix(1.00, 0.00, -0.00, -1.00, 803.9, 574.0)">i</text><text xml:space="preserve" font-family="Avenir-Book" font-size="38.0" fill="#FEFFFF" transform="matrix(1.00, 0.00, -0.00, -1.00, 813.0, 574.0)">m</text><text xml:space="preserve" font-family="Avenir-Book" font-size="38.0" fill="#FEFFFF" transform="matrix(1.00, 0.00, -0.00, -1.00, 845.4, 574.0)">e</text><text xml:space="preserve" font-family="Avenir-Book" font-size="38.0" fill="#FEFFFF" transform="matrix(1.00, 0.00, -0.00, -1.00, 866.5, 574.0)">s</text><text xml:space="preserve" font-family="Avenir-Book" font-size="38.0" fill="#FEFFFF" transform="matrix(1.00, 0.00, -0.00, -1.00, 882.7, 574.0)"> </text><text xml:space="preserve" font-family="Avenir-Book" font-size="38.0" fill="#FEFFFF" transform="matrix(1.00, 0.00, -0.00, -1.00, 67.0, 522.0)">n</text><text xml:space="preserve" font-family="Avenir-Book" font-size="38.0" fill="#FEFFFF" transform="matrix(1.00, 0.00, -0.00, -1.00, 88.1, 522.0)">e</text><text xml:space="preserve" font-family="Avenir-Book" font-size="38.0" fill="#FEFFFF" transform="matrix(1.00, 0.00, -0.00, -1.00, 109.3, 522.0)">c</text><text xml:space="preserve" font-family="Avenir-Book" font-size="38.0" fill="#FEFFFF" transform="matrix(1.00, 0.00, -0.00, -1.00, 127.6, 522.0)">e</text><text xml:space="preserve" font-family="Avenir-Book" font-size="38.0" fill="#FEFFFF" transform="matrix(1.00, 0.00, -0.00, -1.00, 148.7, 522.0)">s</text><text xml:space="preserve" font-family="Avenir-Book" font-size="38.0" fill="#FEFFFF" transform="matrix(1.00, 0.00, -0.00, -1.00, 164.9, 522.0)">s</text><text xml:space="preserve" font-family="Avenir-Book" font-size="38.0" fill="#FEFFFF" transform="matrix(1.00, 0.00, -0.00, -1.00, 181.1, 522.0)">a</text><text xml:space="preserve" font-family="Avenir-Book" font-size="38.0" fill="#FEFFFF" transform="matrix(1.00, 0.00, -0.00, -1.00, 200.8, 522.0)">r</text><text xml:space="preserve" font-family="Avenir-Book" font-size="38.0" fill="#FEFFFF" transform="matrix(1.00, 0.00, -0.00, -1.00, 213.4, 522.0)">y</text><text xml:space="preserve" font-family="Avenir-Book" font-size="38.0" fill="#FEFFFF" transform="matrix(1.00, 0.00, -0.00, -1.00, 228.2, 522.0)">.</text><text xml:space="preserve" font-family="Avenir-Book" font-size="38.0" fill="#FEFFFF" transform="matrix(1.00, 0.00, -0.00, -1.00, 238.8, 522.0)"> </text><image xlink:href="../../700F755F-7DAE-4B88-9234-CA9CC96B4059/assets/523EF56F1F668B6D32342F0D0F741BEA.png" width="353.00" height="172.00" transform="matrix(1.00, 0.00, -0.00, -1.00, 336.0, 370.0)"></image></g></svg>