<?xml version="1.0" encoding="UTF-8" standalone="no"?><svg xmlns="http://www.w3.org/2000/svg" xmlns:xlink="http://www.w3.org/1999/xlink" clip-rule="evenodd" stroke-miterlimit="4.00" viewBox="0 0 175 151"><desc>SVG generated by Keynote</desc><defs></defs><g transform="matrix(1.00, 0.00, -0.00, -1.00, 0.0, 151.0)"><image xlink:href="../../B43E4BD7-8382-4E90-B9A4-E6442EB946D5/assets/178CBCB041F17D3AA708D8A36FB7A142.png" width="172.00" height="148.00" transform="matrix(1.00, 0.00, -0.00, -0.99, 1.9, 148.5)"></image><path d="M 42.9 63.6 L 42.9 87.6 C 42.9 92.0 46.5 95.6 50.9 95.6 L 124.9 95.6 C 129.3 95.6 132.9 92.0 132.9 87.6 L 132.9 63.6 C 132.9 59.1 129.3 55.6 124.9 55.6 L 50.9 55.6 C 46.5 55.6 42.9 59.1 42.9 63.6 Z M 42.9 63.6 " fill="#FEFFFE"></path><path d="M 0.0 32.0 L 0.0 8.0 C 0.0 3.6 3.6 0.0 8.0 0.0 L 82.0 0.0 C 86.4 0.0 90.0 3.6 90.0 8.0 L 90.0 32.0 C 90.0 36.4 86.4 40.0 82.0 40.0 L 8.0 40.0 C 3.6 40.0 0.0 36.4 0.0 32.0 Z M 0.0 32.0 " fill="none" stroke="#A8A49C" stroke-width="2.00" transform="matrix(1.00, 0.00, 0.00, -1.00, 42.9, 95.6)"></path></g></svg>