<?xml version="1.0" encoding="UTF-8" standalone="no"?><svg xmlns="http://www.w3.org/2000/svg" xmlns:xlink="http://www.w3.org/1999/xlink" clip-rule="evenodd" stroke-miterlimit="4.00" viewBox="0 0 95 45"><desc>SVG generated by Keynote</desc><defs></defs><g transform="matrix(1.00, 0.00, -0.00, -1.00, 0.0, 45.0)"><path d="M 2.4 10.1 L 2.4 34.1 C 2.4 38.5 6.0 42.1 10.4 42.1 L 84.4 42.1 C 88.8 42.1 92.4 38.5 92.4 34.1 L 92.4 10.1 C 92.4 5.6 88.8 2.1 84.4 2.1 L 10.4 2.1 C 6.0 2.1 2.4 5.6 2.4 10.1 Z M 2.4 10.1 " fill="#FEFFFE"></path><path d="M 0.0 32.0 L 0.0 8.0 C 0.0 3.6 3.6 0.0 8.0 0.0 L 82.0 0.0 C 86.4 0.0 90.0 3.6 90.0 8.0 L 90.0 32.0 C 90.0 36.4 86.4 40.0 82.0 40.0 L 8.0 40.0 C 3.6 40.0 0.0 36.4 0.0 32.0 Z M 0.0 32.0 " fill="none" stroke="#A8A49C" stroke-width="2.00" transform="matrix(1.00, 0.00, 0.00, -1.00, 2.4, 42.1)"></path></g></svg>