<?xml version="1.0" encoding="UTF-8" standalone="no"?><svg xmlns="http://www.w3.org/2000/svg" xmlns:xlink="http://www.w3.org/1999/xlink" clip-rule="evenodd" stroke-miterlimit="4.00" viewBox="0 0 76 19"><desc>SVG generated by Keynote</desc><defs></defs><g transform="matrix(1.00, 0.00, -0.00, -1.00, 0.0, 19.0)"><text xml:space="preserve" font-family="Helvetica" font-size="16.0" fill="#324763" transform="matrix(1.00, 0.00, -0.00, -1.00, 2.0, 5.0)">/</text><text xml:space="preserve" font-family="Helvetica" font-size="16.0" fill="#324763" transform="matrix(1.00, 0.00, -0.00, -1.00, 6.4, 5.0)">j</text><text xml:space="preserve" font-family="Helvetica" font-size="16.0" fill="#324763" transform="matrix(1.00, 0.00, -0.00, -1.00, 10.0, 5.0)">a</text><text xml:space="preserve" font-family="Helvetica" font-size="16.0" fill="#324763" transform="matrix(1.00, 0.00, -0.00, -1.00, 18.9, 5.0)">v</text><text xml:space="preserve" font-family="Helvetica" font-size="16.0" fill="#324763" transform="matrix(1.00, 0.00, -0.00, -1.00, 26.9, 5.0)">a</text><text xml:space="preserve" font-family="Helvetica" font-size="16.0" fill="#324763" transform="matrix(1.00, 0.00, -0.00, -1.00, 35.8, 5.0)">s</text><text xml:space="preserve" font-family="Helvetica" font-size="16.0" fill="#324763" transform="matrix(1.00, 0.00, -0.00, -1.00, 43.8, 5.0)">c</text><text xml:space="preserve" font-family="Helvetica" font-size="16.0" fill="#324763" transform="matrix(1.00, 0.00, -0.00, -1.00, 51.8, 5.0)">r</text><text xml:space="preserve" font-family="Helvetica" font-size="16.0" fill="#324763" transform="matrix(1.00, 0.00, -0.00, -1.00, 57.1, 5.0)">i</text><text xml:space="preserve" font-family="Helvetica" font-size="16.0" fill="#324763" transform="matrix(1.00, 0.00, -0.00, -1.00, 60.7, 5.0)">p</text><text xml:space="preserve" font-family="Helvetica" font-size="16.0" fill="#324763" transform="matrix(1.00, 0.00, -0.00, -1.00, 69.6, 5.0)">t</text></g></svg>