<?xml version="1.0" encoding="UTF-8" standalone="no"?><svg xmlns="http://www.w3.org/2000/svg" xmlns:xlink="http://www.w3.org/1999/xlink" clip-rule="evenodd" stroke-miterlimit="4.00" viewBox="0 0 95 45"><desc>SVG generated by Keynote</desc><defs></defs><g transform="matrix(1.00, 0.00, -0.00, -1.00, 0.0, 45.0)"><path d="M 2.1 10.4 L 2.1 34.4 C 2.1 38.9 5.6 42.4 10.1 42.4 L 84.1 42.4 C 88.5 42.4 92.1 38.9 92.1 34.4 L 92.1 10.4 C 92.1 6.0 88.5 2.4 84.1 2.4 L 10.1 2.4 C 5.6 2.4 2.1 6.0 2.1 10.4 Z M 2.1 10.4 " fill="#FEFFFE"></path><path d="M 0.0 32.0 L 0.0 8.0 C 0.0 3.6 3.6 0.0 8.0 0.0 L 82.0 0.0 C 86.4 0.0 90.0 3.6 90.0 8.0 L 90.0 32.0 C 90.0 36.4 86.4 40.0 82.0 40.0 L 8.0 40.0 C 3.6 40.0 0.0 36.4 0.0 32.0 Z M 0.0 32.0 " fill="none" stroke="#A8A49C" stroke-width="2.00" transform="matrix(1.00, 0.00, 0.00, -1.00, 2.1, 42.4)"></path></g></svg>