<?xml version="1.0" encoding="UTF-8" standalone="no"?><svg xmlns="http://www.w3.org/2000/svg" xmlns:xlink="http://www.w3.org/1999/xlink" clip-rule="evenodd" stroke-miterlimit="4.00" viewBox="0 0 478 31"><desc>SVG generated by Keynote</desc><defs></defs><g transform="matrix(1.00, 0.00, -0.00, -1.00, 0.0, 31.0)"><text xml:space="preserve" font-family="Courier" font-size="30.0" fill="#F5D327" transform="matrix(1.00, 0.00, -0.00, -1.00, -5.0, 8.0)">[</text><text xml:space="preserve" font-family="Courier" font-size="30.0" fill="#F5D327" transform="matrix(1.00, 0.00, -0.00, -1.00, 13.0, 8.0)"> </text><text xml:space="preserve" font-family="Courier" font-size="30.0" fill="#F5D327" transform="matrix(1.00, 0.00, -0.00, -1.00, 31.0, 8.0)">\</text><text xml:space="preserve" font-family="Courier" font-size="30.0" fill="#F5D327" transform="matrix(1.00, 0.00, -0.00, -1.00, 49.0, 8.0)">m</text><text xml:space="preserve" font-family="Courier" font-size="30.0" fill="#F5D327" transform="matrix(1.00, 0.00, -0.00, -1.00, 67.0, 8.0)">e</text><text xml:space="preserve" font-family="Courier" font-size="30.0" fill="#F5D327" transform="matrix(1.00, 0.00, -0.00, -1.00, 85.0, 8.0)">t</text><text xml:space="preserve" font-family="Courier" font-size="30.0" fill="#F5D327" transform="matrix(1.00, 0.00, -0.00, -1.00, 103.0, 8.0)">e</text><text xml:space="preserve" font-family="Courier" font-size="30.0" fill="#F5D327" transform="matrix(1.00, 0.00, -0.00, -1.00, 121.0, 8.0)">r</text><text xml:space="preserve" font-family="Courier" font-size="30.0" fill="#F5D327" transform="matrix(1.00, 0.00, -0.00, -1.00, 139.0, 8.0)">&lt;</text><text xml:space="preserve" font-family="Courier" font-size="30.0" fill="#F5D327" transform="matrix(1.00, 0.00, -0.00, -1.00, 157.1, 8.0)">"</text><text xml:space="preserve" font-family="Courier" font-size="30.0" fill="#F5D327" transform="matrix(1.00, 0.00, -0.00, -1.00, 175.1, 8.0)">2</text><text xml:space="preserve" font-family="Courier" font-size="30.0" fill="#F5D327" transform="matrix(1.00, 0.00, -0.00, -1.00, 193.1, 8.0)">/</text><text xml:space="preserve" font-family="Courier" font-size="30.0" fill="#F5D327" transform="matrix(1.00, 0.00, -0.00, -1.00, 211.1, 8.0)">4</text><text xml:space="preserve" font-family="Courier" font-size="30.0" fill="#F5D327" transform="matrix(1.00, 0.00, -0.00, -1.00, 229.1, 8.0)">"</text><text xml:space="preserve" font-family="Courier" font-size="30.0" fill="#F5D327" transform="matrix(1.00, 0.00, -0.00, -1.00, 247.1, 8.0)">&gt;</text><text xml:space="preserve" font-family="Courier" font-size="30.0" fill="#F5D327" transform="matrix(1.00, 0.00, -0.00, -1.00, 265.1, 8.0)"> </text><text xml:space="preserve" font-family="Courier" font-size="30.0" fill="#F5D327" transform="matrix(1.00, 0.00, -0.00, -1.00, 283.1, 8.0)">\</text><text xml:space="preserve" font-family="Courier" font-size="30.0" fill="#F5D327" transform="matrix(1.00, 0.00, -0.00, -1.00, 301.1, 8.0)">i</text><text xml:space="preserve" font-family="Courier" font-size="30.0" fill="#F5D327" transform="matrix(1.00, 0.00, -0.00, -1.00, 319.1, 8.0)">n</text><text xml:space="preserve" font-family="Courier" font-size="30.0" fill="#F5D327" transform="matrix(1.00, 0.00, -0.00, -1.00, 337.1, 8.0)">t</text><text xml:space="preserve" font-family="Courier" font-size="30.0" fill="#F5D327" transform="matrix(1.00, 0.00, -0.00, -1.00, 355.1, 8.0)">e</text><text xml:space="preserve" font-family="Courier" font-size="30.0" fill="#F5D327" transform="matrix(1.00, 0.00, -0.00, -1.00, 373.1, 8.0)">n</text><text xml:space="preserve" font-family="Courier" font-size="30.0" fill="#F5D327" transform="matrix(1.00, 0.00, -0.00, -1.00, 391.1, 8.0)">s</text><text xml:space="preserve" font-family="Courier" font-size="30.0" fill="#F5D327" transform="matrix(1.00, 0.00, -0.00, -1.00, 409.1, 8.0)">&lt;</text><text xml:space="preserve" font-family="Courier" font-size="30.0" fill="#F5D327" transform="matrix(1.00, 0.00, -0.00, -1.00, 427.1, 8.0)">"</text><text xml:space="preserve" font-family="Courier" font-size="30.0" fill="#F5D327" transform="matrix(1.00, 0.00, -0.00, -1.00, 445.1, 8.0)">p</text><text xml:space="preserve" font-family="Courier" font-size="30.0" fill="#F5D327" transform="matrix(1.00, 0.00, -0.00, -1.00, 463.2, 8.0)">"</text></g></svg>