<?xml version="1.0" encoding="UTF-8" standalone="no"?><svg xmlns="http://www.w3.org/2000/svg" xmlns:xlink="http://www.w3.org/1999/xlink" clip-rule="evenodd" stroke-miterlimit="4.00" viewBox="0 0 752 156"><desc>SVG generated by Keynote</desc><defs></defs><g transform="matrix(1.00, 0.00, -0.00, -1.00, 0.0, 156.0)"><g><clipPath id="clip-761"><path d="M 246.4 -0.3 L 752.4 -0.3 L 752.4 156.7 L 246.4 156.7 Z M 246.4 -0.3 "></path></clipPath><g clip-path="url(#clip-761)"><text xml:space="preserve" font-family="Courier" font-size="24.0" fill="#FEFFFE" transform="matrix(1.00, 0.00, -0.00, -1.00, 252.0, 128.0)">/</text><text xml:space="preserve" font-family="Courier" font-size="24.0" fill="#FEFFFE" transform="matrix(1.00, 0.00, -0.00, -1.00, 266.4, 128.0)">I</text><text xml:space="preserve" font-family="Courier" font-size="24.0" fill="#FEFFFE" transform="matrix(1.00, 0.00, -0.00, -1.00, 280.8, 128.0)">T</text><text xml:space="preserve" font-family="Courier" font-size="24.0" fill="#FEFFFE" transform="matrix(1.00, 0.00, -0.00, -1.00, 295.2, 128.0)">L</text><text xml:space="preserve" font-family="Courier" font-size="24.0" fill="#FEFFFE" transform="matrix(1.00, 0.00, -0.00, -1.00, 309.6, 128.0)">/</text><text xml:space="preserve" font-family="Courier" font-size="24.0" fill="#FEFFFE" transform="matrix(1.00, 0.00, -0.00, -1.00, 324.0, 128.0)">s</text><text xml:space="preserve" font-family="Courier" font-size="24.0" fill="#FEFFFE" transform="matrix(1.00, 0.00, -0.00, -1.00, 338.4, 128.0)">c</text><text xml:space="preserve" font-family="Courier" font-size="24.0" fill="#FEFFFE" transform="matrix(1.00, 0.00, -0.00, -1.00, 352.8, 128.0)">e</text><text xml:space="preserve" font-family="Courier" font-size="24.0" fill="#FEFFFE" transform="matrix(1.00, 0.00, -0.00, -1.00, 367.2, 128.0)">n</text><text xml:space="preserve" font-family="Courier" font-size="24.0" fill="#FEFFFE" transform="matrix(1.00, 0.00, -0.00, -1.00, 381.6, 128.0)">e</text><text xml:space="preserve" font-family="Courier" font-size="24.0" fill="#FEFFFE" transform="matrix(1.00, 0.00, -0.00, -1.00, 396.0, 128.0)">/</text><text xml:space="preserve" font-family="Courier" font-size="24.0" fill="#FEFFFE" transform="matrix(1.00, 0.00, -0.00, -1.00, 410.5, 128.0)">s</text><text xml:space="preserve" font-family="Courier" font-size="24.0" fill="#FEFFFE" transform="matrix(1.00, 0.00, -0.00, -1.00, 424.9, 128.0)">c</text><text xml:space="preserve" font-family="Courier" font-size="24.0" fill="#FEFFFE" transform="matrix(1.00, 0.00, -0.00, -1.00, 439.3, 128.0)">o</text><text xml:space="preserve" font-family="Courier" font-size="24.0" fill="#FEFFFE" transform="matrix(1.00, 0.00, -0.00, -1.00, 453.7, 128.0)">r</text><text xml:space="preserve" font-family="Courier" font-size="24.0" fill="#FEFFFE" transform="matrix(1.00, 0.00, -0.00, -1.00, 468.1, 128.0)">e</text><text xml:space="preserve" font-family="Courier" font-size="24.0" fill="#FEFFFE" transform="matrix(1.00, 0.00, -0.00, -1.00, 482.5, 128.0)"> </text><text xml:space="preserve" font-family="Courier" font-size="24.0" fill="#FEFFFE" transform="matrix(1.00, 0.00, -0.00, -1.00, 252.0, 70.0)">1</text><text xml:space="preserve" font-family="Courier" font-size="24.0" fill="#FEFFFE" transform="matrix(1.00, 0.00, -0.00, -1.00, 266.4, 70.0)">9</text><text xml:space="preserve" font-family="Courier" font-size="24.0" fill="#FEFFFE" transform="matrix(1.00, 0.00, -0.00, -1.00, 280.8, 70.0)">2</text><text xml:space="preserve" font-family="Courier" font-size="24.0" fill="#FEFFFE" transform="matrix(1.00, 0.00, -0.00, -1.00, 295.2, 70.0)">.</text><text xml:space="preserve" font-family="Courier" font-size="24.0" fill="#FEFFFE" transform="matrix(1.00, 0.00, -0.00, -1.00, 309.6, 70.0)">1</text><text xml:space="preserve" font-family="Courier" font-size="24.0" fill="#FEFFFE" transform="matrix(1.00, 0.00, -0.00, -1.00, 324.0, 70.0)">6</text><text xml:space="preserve" font-family="Courier" font-size="24.0" fill="#FEFFFE" transform="matrix(1.00, 0.00, -0.00, -1.00, 338.4, 70.0)">8</text><text xml:space="preserve" font-family="Courier" font-size="24.0" fill="#FEFFFE" transform="matrix(1.00, 0.00, -0.00, -1.00, 352.8, 70.0)">.</text><text xml:space="preserve" font-family="Courier" font-size="24.0" fill="#FEFFFE" transform="matrix(1.00, 0.00, -0.00, -1.00, 367.2, 70.0)">1</text><text xml:space="preserve" font-family="Courier" font-size="24.0" fill="#FEFFFE" transform="matrix(1.00, 0.00, -0.00, -1.00, 381.6, 70.0)">.</text><text xml:space="preserve" font-family="Courier" font-size="24.0" fill="#FEFFFE" transform="matrix(1.00, 0.00, -0.00, -1.00, 396.0, 70.0)">5</text><text xml:space="preserve" font-family="Courier" font-size="24.0" fill="#FEFFFE" transform="matrix(1.00, 0.00, -0.00, -1.00, 410.5, 70.0)">:</text><text xml:space="preserve" font-family="Courier" font-size="24.0" fill="#FEFFFE" transform="matrix(1.00, 0.00, -0.00, -1.00, 424.9, 70.0)">7</text><text xml:space="preserve" font-family="Courier" font-size="24.0" fill="#FEFFFE" transform="matrix(1.00, 0.00, -0.00, -1.00, 439.3, 70.0)">0</text><text xml:space="preserve" font-family="Courier" font-size="24.0" fill="#FEFFFE" transform="matrix(1.00, 0.00, -0.00, -1.00, 453.7, 70.0)">0</text><text xml:space="preserve" font-family="Courier" font-size="24.0" fill="#FEFFFE" transform="matrix(1.00, 0.00, -0.00, -1.00, 468.1, 70.0)">0</text><text xml:space="preserve" font-family="Courier" font-size="24.0" fill="#FEFFFE" transform="matrix(1.00, 0.00, -0.00, -1.00, 482.5, 70.0)">/</text><text xml:space="preserve" font-family="Courier" font-size="24.0" fill="#FEFFFE" transform="matrix(1.00, 0.00, -0.00, -1.00, 496.9, 70.0)">I</text><text xml:space="preserve" font-family="Courier" font-size="24.0" fill="#FEFFFE" transform="matrix(1.00, 0.00, -0.00, -1.00, 511.3, 70.0)">T</text><text xml:space="preserve" font-family="Courier" font-size="24.0" fill="#FEFFFE" transform="matrix(1.00, 0.00, -0.00, -1.00, 525.7, 70.0)">L</text><text xml:space="preserve" font-family="Courier" font-size="24.0" fill="#FEFFFE" transform="matrix(1.00, 0.00, -0.00, -1.00, 540.1, 70.0)">/</text><text xml:space="preserve" font-family="Courier" font-size="24.0" fill="#FEFFFE" transform="matrix(1.00, 0.00, -0.00, -1.00, 554.5, 70.0)">s</text><text xml:space="preserve" font-family="Courier" font-size="24.0" fill="#FEFFFE" transform="matrix(1.00, 0.00, -0.00, -1.00, 568.9, 70.0)">c</text><text xml:space="preserve" font-family="Courier" font-size="24.0" fill="#FEFFFE" transform="matrix(1.00, 0.00, -0.00, -1.00, 583.3, 70.0)">e</text><text xml:space="preserve" font-family="Courier" font-size="24.0" fill="#FEFFFE" transform="matrix(1.00, 0.00, -0.00, -1.00, 597.7, 70.0)">n</text><text xml:space="preserve" font-family="Courier" font-size="24.0" fill="#FEFFFE" transform="matrix(1.00, 0.00, -0.00, -1.00, 612.1, 70.0)">e</text><text xml:space="preserve" font-family="Courier" font-size="24.0" fill="#FEFFFE" transform="matrix(1.00, 0.00, -0.00, -1.00, 626.5, 70.0)">/</text><text xml:space="preserve" font-family="Courier" font-size="24.0" fill="#FEFFFE" transform="matrix(1.00, 0.00, -0.00, -1.00, 640.9, 70.0)">s</text><text xml:space="preserve" font-family="Courier" font-size="24.0" fill="#FEFFFE" transform="matrix(1.00, 0.00, -0.00, -1.00, 655.3, 70.0)">c</text><text xml:space="preserve" font-family="Courier" font-size="24.0" fill="#FEFFFE" transform="matrix(1.00, 0.00, -0.00, -1.00, 669.7, 70.0)">o</text><text xml:space="preserve" font-family="Courier" font-size="24.0" fill="#FEFFFE" transform="matrix(1.00, 0.00, -0.00, -1.00, 684.1, 70.0)">r</text><text xml:space="preserve" font-family="Courier" font-size="24.0" fill="#FEFFFE" transform="matrix(1.00, 0.00, -0.00, -1.00, 698.5, 70.0)">e</text><text xml:space="preserve" font-family="Courier" font-size="24.0" fill="#FEFFFE" transform="matrix(1.00, 0.00, -0.00, -1.00, 713.0, 70.0)"> </text><text xml:space="preserve" font-family="Courier" font-size="24.0" fill="#FEFFFE" transform="matrix(1.00, 0.00, -0.00, -1.00, 252.0, 12.0)">l</text><text xml:space="preserve" font-family="Courier" font-size="24.0" fill="#FEFFFE" transform="matrix(1.00, 0.00, -0.00, -1.00, 266.4, 12.0)">o</text><text xml:space="preserve" font-family="Courier" font-size="24.0" fill="#FEFFFE" transform="matrix(1.00, 0.00, -0.00, -1.00, 280.8, 12.0)">c</text><text xml:space="preserve" font-family="Courier" font-size="24.0" fill="#FEFFFE" transform="matrix(1.00, 0.00, -0.00, -1.00, 295.2, 12.0)">a</text><text xml:space="preserve" font-family="Courier" font-size="24.0" fill="#FEFFFE" transform="matrix(1.00, 0.00, -0.00, -1.00, 309.6, 12.0)">l</text><text xml:space="preserve" font-family="Courier" font-size="24.0" fill="#FEFFFE" transform="matrix(1.00, 0.00, -0.00, -1.00, 324.0, 12.0)">h</text><text xml:space="preserve" font-family="Courier" font-size="24.0" fill="#FEFFFE" transform="matrix(1.00, 0.00, -0.00, -1.00, 338.4, 12.0)">o</text><text xml:space="preserve" font-family="Courier" font-size="24.0" fill="#FEFFFE" transform="matrix(1.00, 0.00, -0.00, -1.00, 352.8, 12.0)">s</text><text xml:space="preserve" font-family="Courier" font-size="24.0" fill="#FEFFFE" transform="matrix(1.00, 0.00, -0.00, -1.00, 367.2, 12.0)">t</text><text xml:space="preserve" font-family="Courier" font-size="24.0" fill="#FEFFFE" transform="matrix(1.00, 0.00, -0.00, -1.00, 381.6, 12.0)">:</text><text xml:space="preserve" font-family="Courier" font-size="24.0" fill="#FEFFFE" transform="matrix(1.00, 0.00, -0.00, -1.00, 396.0, 12.0)">7</text><text xml:space="preserve" font-family="Courier" font-size="24.0" fill="#FEFFFE" transform="matrix(1.00, 0.00, -0.00, -1.00, 410.5, 12.0)">0</text><text xml:space="preserve" font-family="Courier" font-size="24.0" fill="#FEFFFE" transform="matrix(1.00, 0.00, -0.00, -1.00, 424.9, 12.0)">0</text><text xml:space="preserve" font-family="Courier" font-size="24.0" fill="#FEFFFE" transform="matrix(1.00, 0.00, -0.00, -1.00, 439.3, 12.0)">1</text><text xml:space="preserve" font-family="Courier" font-size="24.0" fill="#FEFFFE" transform="matrix(1.00, 0.00, -0.00, -1.00, 453.7, 12.0)">/</text><text xml:space="preserve" font-family="Courier" font-size="24.0" fill="#FEFFFE" transform="matrix(1.00, 0.00, -0.00, -1.00, 468.1, 12.0)">w</text><text xml:space="preserve" font-family="Courier" font-size="24.0" fill="#FEFFFE" transform="matrix(1.00, 0.00, -0.00, -1.00, 482.5, 12.0)">o</text><text xml:space="preserve" font-family="Courier" font-size="24.0" fill="#FEFFFE" transform="matrix(1.00, 0.00, -0.00, -1.00, 496.9, 12.0)">r</text><text xml:space="preserve" font-family="Courier" font-size="24.0" fill="#FEFFFE" transform="matrix(1.00, 0.00, -0.00, -1.00, 511.3, 12.0)">l</text><text xml:space="preserve" font-family="Courier" font-size="24.0" fill="#FEFFFE" transform="matrix(1.00, 0.00, -0.00, -1.00, 525.7, 12.0)">d</text><text xml:space="preserve" font-family="Courier" font-size="24.0" fill="#FEFFFE" transform="matrix(1.00, 0.00, -0.00, -1.00, 540.1, 12.0)"> </text></g></g><g><clipPath id="clip-762"><path d="M -4.5 49.9 L 244.0 49.9 L 244.0 111.4 L -4.5 111.4 Z M -4.5 49.9 "></path></clipPath><g clip-path="url(#clip-762)"><text xml:space="preserve" font-family="Avenir-Book" font-size="30.0" fill="#6FBF40" transform="matrix(1.00, 0.00, -0.00, -1.00, 6.0, 71.0)">V</text><text xml:space="preserve" font-family="Avenir-Book" font-size="30.0" fill="#6FBF40" transform="matrix(1.00, 0.00, -0.00, -1.00, 22.7, 71.0)">a</text><text xml:space="preserve" font-family="Avenir-Book" font-size="30.0" fill="#6FBF40" transform="matrix(1.00, 0.00, -0.00, -1.00, 38.2, 71.0)">l</text><text xml:space="preserve" font-family="Avenir-Book" font-size="30.0" fill="#6FBF40" transform="matrix(1.00, 0.00, -0.00, -1.00, 45.5, 71.0)">i</text><text xml:space="preserve" font-family="Avenir-Book" font-size="30.0" fill="#6FBF40" transform="matrix(1.00, 0.00, -0.00, -1.00, 52.7, 71.0)">d</text><text xml:space="preserve" font-family="Avenir-Book" font-size="30.0" fill="#6FBF40" transform="matrix(1.00, 0.00, -0.00, -1.00, 71.0, 71.0)"> </text><text xml:space="preserve" font-family="Avenir-Book" font-size="30.0" fill="#6FBF40" transform="matrix(1.00, 0.00, -0.00, -1.00, 79.3, 71.0)">a</text><text xml:space="preserve" font-family="Avenir-Book" font-size="30.0" fill="#6FBF40" transform="matrix(1.00, 0.00, -0.00, -1.00, 94.9, 71.0)">d</text><text xml:space="preserve" font-family="Avenir-Book" font-size="30.0" fill="#6FBF40" transform="matrix(1.00, 0.00, -0.00, -1.00, 113.2, 71.0)">d</text><text xml:space="preserve" font-family="Avenir-Book" font-size="30.0" fill="#6FBF40" transform="matrix(1.00, 0.00, -0.00, -1.00, 131.6, 71.0)">r</text><text xml:space="preserve" font-family="Avenir-Book" font-size="30.0" fill="#6FBF40" transform="matrix(1.00, 0.00, -0.00, -1.00, 141.0, 71.0)">e</text><text xml:space="preserve" font-family="Avenir-Book" font-size="30.0" fill="#6FBF40" transform="matrix(1.00, 0.00, -0.00, -1.00, 157.7, 71.0)">s</text><text xml:space="preserve" font-family="Avenir-Book" font-size="30.0" fill="#6FBF40" transform="matrix(1.00, 0.00, -0.00, -1.00, 170.4, 71.0)">s</text><text xml:space="preserve" font-family="Avenir-Book" font-size="30.0" fill="#6FBF40" transform="matrix(1.00, 0.00, -0.00, -1.00, 183.2, 71.0)">e</text><text xml:space="preserve" font-family="Avenir-Book" font-size="30.0" fill="#6FBF40" transform="matrix(1.00, 0.00, -0.00, -1.00, 199.9, 71.0)">s</text><text xml:space="preserve" font-family="Avenir-Book" font-size="30.0" fill="#6FBF40" transform="matrix(1.00, 0.00, -0.00, -1.00, 212.7, 71.0)">:</text></g></g></g></svg>