<?xml version="1.0" encoding="UTF-8" standalone="no"?><svg xmlns="http://www.w3.org/2000/svg" xmlns:xlink="http://www.w3.org/1999/xlink" clip-rule="evenodd" stroke-miterlimit="4.00" viewBox="0 0 1024 768"><desc>SVG generated by Keynote</desc><defs></defs><g transform="matrix(1.00, 0.00, -0.00, -1.00, 0.0, 768.0)"><path d="M 0.0 768.0 L 1024.0 768.0 L 1024.0 0.0 L 0.0 0.0 Z M 0.0 768.0 " fill="#000000"></path><text xml:space="preserve" font-family="Avenir-Book" font-size="20.0" fill="#D5D5D5" transform="matrix(1.00, 0.00, -0.00, -1.00, 259.0, 28.0)">N</text><text xml:space="preserve" font-family="Avenir-Book" font-size="20.0" fill="#D5D5D5" transform="matrix(1.00, 0.00, -0.00, -1.00, 274.6, 28.0)">e</text><text xml:space="preserve" font-family="Avenir-Book" font-size="20.0" fill="#D5D5D5" transform="matrix(1.00, 0.00, -0.00, -1.00, 285.7, 28.0)">w</text><text xml:space="preserve" font-family="Avenir-Book" font-size="20.0" fill="#D5D5D5" transform="matrix(1.00, 0.00, -0.00, -1.00, 300.1, 28.0)"> </text><text xml:space="preserve" font-family="Avenir-Book" font-size="20.0" fill="#D5D5D5" transform="matrix(1.00, 0.00, -0.00, -1.00, 305.7, 28.0)">A</text><text xml:space="preserve" font-family="Avenir-Book" font-size="20.0" fill="#D5D5D5" transform="matrix(1.00, 0.00, -0.00, -1.00, 319.4, 28.0)">p</text><text xml:space="preserve" font-family="Avenir-Book" font-size="20.0" fill="#D5D5D5" transform="matrix(1.00, 0.00, -0.00, -1.00, 331.6, 28.0)">p</text><text xml:space="preserve" font-family="Avenir-Book" font-size="20.0" fill="#D5D5D5" transform="matrix(1.00, 0.00, -0.00, -1.00, 343.8, 28.0)">r</text><text xml:space="preserve" font-family="Avenir-Book" font-size="20.0" fill="#D5D5D5" transform="matrix(1.00, 0.00, -0.00, -1.00, 350.1, 28.0)">o</text><text xml:space="preserve" font-family="Avenir-Book" font-size="20.0" fill="#D5D5D5" transform="matrix(1.00, 0.00, -0.00, -1.00, 362.0, 28.0)">a</text><text xml:space="preserve" font-family="Avenir-Book" font-size="20.0" fill="#D5D5D5" transform="matrix(1.00, 0.00, -0.00, -1.00, 372.4, 28.0)">c</text><text xml:space="preserve" font-family="Avenir-Book" font-size="20.0" fill="#D5D5D5" transform="matrix(1.00, 0.00, -0.00, -1.00, 382.0, 28.0)">h</text><text xml:space="preserve" font-family="Avenir-Book" font-size="20.0" fill="#D5D5D5" transform="matrix(1.00, 0.00, -0.00, -1.00, 393.1, 28.0)">e</text><text xml:space="preserve" font-family="Avenir-Book" font-size="20.0" fill="#D5D5D5" transform="matrix(1.00, 0.00, -0.00, -1.00, 404.2, 28.0)">s</text><text xml:space="preserve" font-family="Avenir-Book" font-size="20.0" fill="#D5D5D5" transform="matrix(1.00, 0.00, -0.00, -1.00, 412.8, 28.0)"> </text><text xml:space="preserve" font-family="Avenir-Book" font-size="20.0" fill="#D5D5D5" transform="matrix(1.00, 0.00, -0.00, -1.00, 418.3, 28.0)">f</text><text xml:space="preserve" font-family="Avenir-Book" font-size="20.0" fill="#D5D5D5" transform="matrix(1.00, 0.00, -0.00, -1.00, 424.2, 28.0)">o</text><text xml:space="preserve" font-family="Avenir-Book" font-size="20.0" fill="#D5D5D5" transform="matrix(1.00, 0.00, -0.00, -1.00, 436.1, 28.0)">r</text><text xml:space="preserve" font-family="Avenir-Book" font-size="20.0" fill="#D5D5D5" transform="matrix(1.00, 0.00, -0.00, -1.00, 442.7, 28.0)"> </text><text xml:space="preserve" font-family="Avenir-Book" font-size="20.0" fill="#D5D5D5" transform="matrix(1.00, 0.00, -0.00, -1.00, 448.3, 28.0)">M</text><text xml:space="preserve" font-family="Avenir-Book" font-size="20.0" fill="#D5D5D5" transform="matrix(1.00, 0.00, -0.00, -1.00, 466.1, 28.0)">u</text><text xml:space="preserve" font-family="Avenir-Book" font-size="20.0" fill="#D5D5D5" transform="matrix(1.00, 0.00, -0.00, -1.00, 477.2, 28.0)">s</text><text xml:space="preserve" font-family="Avenir-Book" font-size="20.0" fill="#D5D5D5" transform="matrix(1.00, 0.00, -0.00, -1.00, 485.7, 28.0)">i</text><text xml:space="preserve" font-family="Avenir-Book" font-size="20.0" fill="#D5D5D5" transform="matrix(1.00, 0.00, -0.00, -1.00, 490.5, 28.0)">c</text><text xml:space="preserve" font-family="Avenir-Book" font-size="20.0" fill="#D5D5D5" transform="matrix(1.00, 0.00, -0.00, -1.00, 500.2, 28.0)"> </text><text xml:space="preserve" font-family="Avenir-Book" font-size="20.0" fill="#D5D5D5" transform="matrix(1.00, 0.00, -0.00, -1.00, 505.7, 28.0)">R</text><text xml:space="preserve" font-family="Avenir-Book" font-size="20.0" fill="#D5D5D5" transform="matrix(1.00, 0.00, -0.00, -1.00, 517.6, 28.0)">e</text><text xml:space="preserve" font-family="Avenir-Book" font-size="20.0" fill="#D5D5D5" transform="matrix(1.00, 0.00, -0.00, -1.00, 528.7, 28.0)">p</text><text xml:space="preserve" font-family="Avenir-Book" font-size="20.0" fill="#D5D5D5" transform="matrix(1.00, 0.00, -0.00, -1.00, 540.9, 28.0)">r</text><text xml:space="preserve" font-family="Avenir-Book" font-size="20.0" fill="#D5D5D5" transform="matrix(1.00, 0.00, -0.00, -1.00, 547.2, 28.0)">e</text><text xml:space="preserve" font-family="Avenir-Book" font-size="20.0" fill="#D5D5D5" transform="matrix(1.00, 0.00, -0.00, -1.00, 558.3, 28.0)">s</text><text xml:space="preserve" font-family="Avenir-Book" font-size="20.0" fill="#D5D5D5" transform="matrix(1.00, 0.00, -0.00, -1.00, 566.9, 28.0)">e</text><text xml:space="preserve" font-family="Avenir-Book" font-size="20.0" fill="#D5D5D5" transform="matrix(1.00, 0.00, -0.00, -1.00, 578.0, 28.0)">n</text><text xml:space="preserve" font-family="Avenir-Book" font-size="20.0" fill="#D5D5D5" transform="matrix(1.00, 0.00, -0.00, -1.00, 589.1, 28.0)">t</text><text xml:space="preserve" font-family="Avenir-Book" font-size="20.0" fill="#D5D5D5" transform="matrix(1.00, 0.00, -0.00, -1.00, 595.7, 28.0)">a</text><text xml:space="preserve" font-family="Avenir-Book" font-size="20.0" fill="#D5D5D5" transform="matrix(1.00, 0.00, -0.00, -1.00, 606.1, 28.0)">t</text><text xml:space="preserve" font-family="Avenir-Book" font-size="20.0" fill="#D5D5D5" transform="matrix(1.00, 0.00, -0.00, -1.00, 612.8, 28.0)">i</text><text xml:space="preserve" font-family="Avenir-Book" font-size="20.0" fill="#D5D5D5" transform="matrix(1.00, 0.00, -0.00, -1.00, 617.6, 28.0)">o</text><text xml:space="preserve" font-family="Avenir-Book" font-size="20.0" fill="#D5D5D5" transform="matrix(1.00, 0.00, -0.00, -1.00, 629.4, 28.0)">n</text><text xml:space="preserve" font-family="Avenir-Book" font-size="20.0" fill="#D5D5D5" transform="matrix(1.00, 0.00, -0.00, -1.00, 640.5, 28.0)"> </text><text xml:space="preserve" font-family="Avenir-Book" font-size="20.0" fill="#D5D5D5" transform="matrix(1.00, 0.00, -0.00, -1.00, 646.1, 28.0)">a</text><text xml:space="preserve" font-family="Avenir-Book" font-size="20.0" fill="#D5D5D5" transform="matrix(1.00, 0.00, -0.00, -1.00, 656.5, 28.0)">n</text><text xml:space="preserve" font-family="Avenir-Book" font-size="20.0" fill="#D5D5D5" transform="matrix(1.00, 0.00, -0.00, -1.00, 667.6, 28.0)">d</text><text xml:space="preserve" font-family="Avenir-Book" font-size="20.0" fill="#D5D5D5" transform="matrix(1.00, 0.00, -0.00, -1.00, 679.8, 28.0)"> </text><text xml:space="preserve" font-family="Avenir-Book" font-size="20.0" fill="#D5D5D5" transform="matrix(1.00, 0.00, -0.00, -1.00, 685.4, 28.0)">N</text><text xml:space="preserve" font-family="Avenir-Book" font-size="20.0" fill="#D5D5D5" transform="matrix(1.00, 0.00, -0.00, -1.00, 700.9, 28.0)">o</text><text xml:space="preserve" font-family="Avenir-Book" font-size="20.0" fill="#D5D5D5" transform="matrix(1.00, 0.00, -0.00, -1.00, 712.8, 28.0)">t</text><text xml:space="preserve" font-family="Avenir-Book" font-size="20.0" fill="#D5D5D5" transform="matrix(1.00, 0.00, -0.00, -1.00, 719.4, 28.0)">a</text><text xml:space="preserve" font-family="Avenir-Book" font-size="20.0" fill="#D5D5D5" transform="matrix(1.00, 0.00, -0.00, -1.00, 729.8, 28.0)">t</text><text xml:space="preserve" font-family="Avenir-Book" font-size="20.0" fill="#D5D5D5" transform="matrix(1.00, 0.00, -0.00, -1.00, 736.5, 28.0)">i</text><text xml:space="preserve" font-family="Avenir-Book" font-size="20.0" fill="#D5D5D5" transform="matrix(1.00, 0.00, -0.00, -1.00, 741.3, 28.0)">o</text><text xml:space="preserve" font-family="Avenir-Book" font-size="20.0" fill="#D5D5D5" transform="matrix(1.00, 0.00, -0.00, -1.00, 753.1, 28.0)">n</text><text xml:space="preserve" font-family="AvenirNext-Regular" font-size="53.0" fill="#FEFFFF" transform="matrix(1.00, 0.00, -0.00, -1.00, 74.0, 677.0)">S</text><text xml:space="preserve" font-family="AvenirNext-Regular" font-size="53.0" fill="#FEFFFF" transform="matrix(1.00, 0.00, -0.00, -1.00, 103.9, 677.0)">o</text><text xml:space="preserve" font-family="AvenirNext-Regular" font-size="53.0" fill="#FEFFFF" transform="matrix(1.00, 0.00, -0.00, -1.00, 136.3, 677.0)">m</text><text xml:space="preserve" font-family="AvenirNext-Regular" font-size="53.0" fill="#FEFFFF" transform="matrix(1.00, 0.00, -0.00, -1.00, 183.1, 677.0)">e</text><text xml:space="preserve" font-family="AvenirNext-Regular" font-size="53.0" fill="#FEFFFF" transform="matrix(1.00, 0.00, -0.00, -1.00, 213.4, 677.0)"> </text><text xml:space="preserve" font-family="AvenirNext-Regular" font-size="53.0" fill="#FEFFFF" transform="matrix(1.00, 0.00, -0.00, -1.00, 226.6, 677.0)">s</text><text xml:space="preserve" font-family="AvenirNext-Regular" font-size="53.0" fill="#FEFFFF" transform="matrix(1.00, 0.00, -0.00, -1.00, 250.2, 677.0)">c</text><text xml:space="preserve" font-family="AvenirNext-Regular" font-size="53.0" fill="#FEFFFF" transform="matrix(1.00, 0.00, -0.00, -1.00, 276.7, 677.0)">o</text><text xml:space="preserve" font-family="AvenirNext-Regular" font-size="53.0" fill="#FEFFFF" transform="matrix(1.00, 0.00, -0.00, -1.00, 309.1, 677.0)">r</text><text xml:space="preserve" font-family="AvenirNext-Regular" font-size="53.0" fill="#FEFFFF" transform="matrix(1.00, 0.00, -0.00, -1.00, 327.2, 677.0)">e</text><text xml:space="preserve" font-family="AvenirNext-Regular" font-size="53.0" fill="#FEFFFF" transform="matrix(1.00, 0.00, -0.00, -1.00, 357.5, 677.0)">s</text><text xml:space="preserve" font-family="AvenirNext-Regular" font-size="53.0" fill="#FEFFFF" transform="matrix(1.00, 0.00, -0.00, -1.00, 381.0, 677.0)">…</text><text xml:space="preserve" font-family="Avenir-Book" font-size="18.0" fill="#D5D5D5" transform="matrix(1.00, 0.00, -0.00, -1.00, 35.0, 28.0)">2</text><text xml:space="preserve" font-family="Avenir-Black" font-weight="bold" font-size="28.3" fill="#FEFFFF" transform="matrix(1.00, 0.00, -0.00, -1.00, 183.3, 379.1)">R</text><text xml:space="preserve" font-family="Avenir-Black" font-weight="bold" font-size="28.3" fill="#FEFFFF" transform="matrix(1.00, 0.00, -0.00, -1.00, 201.7, 379.1)">e</text><text xml:space="preserve" font-family="Avenir-Black" font-weight="bold" font-size="28.3" fill="#FEFFFF" transform="matrix(1.00, 0.00, -0.00, -1.00, 217.9, 379.1)">f</text><text xml:space="preserve" font-family="Avenir-Black" font-weight="bold" font-size="28.3" fill="#FEFFFF" transform="matrix(1.00, 0.00, -0.00, -1.00, 228.4, 379.1)">r</text><text xml:space="preserve" font-family="Avenir-Black" font-weight="bold" font-size="28.3" fill="#FEFFFF" transform="matrix(1.00, 0.00, -0.00, -1.00, 239.9, 379.1)">a</text><text xml:space="preserve" font-family="Avenir-Black" font-weight="bold" font-size="28.3" fill="#FEFFFF" transform="matrix(1.00, 0.00, -0.00, -1.00, 255.2, 379.1)">i</text><text xml:space="preserve" font-family="Avenir-Black" font-weight="bold" font-size="28.3" fill="#FEFFFF" transform="matrix(1.00, 0.00, -0.00, -1.00, 262.5, 379.1)">n</text><text xml:space="preserve" font-family="Avenir-Black" font-weight="bold" font-size="28.3" fill="#FEFFFF" transform="matrix(1.00, 0.00, -0.00, -1.00, 278.8, 379.1)"> </text><text xml:space="preserve" font-family="Avenir-Medium" font-size="28.3" fill="#FEFFFF" transform="matrix(1.00, 0.00, -0.00, -1.00, 83.0, 341.1)">K</text><text xml:space="preserve" font-family="Avenir-Medium" font-size="28.3" fill="#FEFFFF" transform="matrix(1.00, 0.00, -0.00, -1.00, 101.4, 341.1)">.</text><text xml:space="preserve" font-family="Avenir-Medium" font-size="28.3" fill="#FEFFFF" transform="matrix(1.00, 0.00, -0.00, -1.00, 109.3, 341.1)"> </text><text xml:space="preserve" font-family="Avenir-Medium" font-size="28.3" fill="#FEFFFF" transform="matrix(1.00, 0.00, -0.00, -1.00, 117.1, 341.1)">S</text><text xml:space="preserve" font-family="Avenir-Medium" font-size="28.3" fill="#FEFFFF" transform="matrix(1.00, 0.00, -0.00, -1.00, 132.9, 341.1)">t</text><text xml:space="preserve" font-family="Avenir-Medium" font-size="28.3" fill="#FEFFFF" transform="matrix(1.00, 0.00, -0.00, -1.00, 143.3, 341.1)">o</text><text xml:space="preserve" font-family="Avenir-Medium" font-size="28.3" fill="#FEFFFF" transform="matrix(1.00, 0.00, -0.00, -1.00, 160.2, 341.1)">c</text><text xml:space="preserve" font-family="Avenir-Medium" font-size="28.3" fill="#FEFFFF" transform="matrix(1.00, 0.00, -0.00, -1.00, 173.8, 341.1)">k</text><text xml:space="preserve" font-family="Avenir-Medium" font-size="28.3" fill="#FEFFFF" transform="matrix(1.00, 0.00, -0.00, -1.00, 188.5, 341.1)">h</text><text xml:space="preserve" font-family="Avenir-Medium" font-size="28.3" fill="#FEFFFF" transform="matrix(1.00, 0.00, -0.00, -1.00, 204.3, 341.1)">a</text><text xml:space="preserve" font-family="Avenir-Medium" font-size="28.3" fill="#FEFFFF" transform="matrix(1.00, 0.00, -0.00, -1.00, 219.0, 341.1)">u</text><text xml:space="preserve" font-family="Avenir-Medium" font-size="28.3" fill="#FEFFFF" transform="matrix(1.00, 0.00, -0.00, -1.00, 234.7, 341.1)">s</text><text xml:space="preserve" font-family="Avenir-Medium" font-size="28.3" fill="#FEFFFF" transform="matrix(1.00, 0.00, -0.00, -1.00, 247.3, 341.1)">e</text><text xml:space="preserve" font-family="Avenir-Medium" font-size="28.3" fill="#FEFFFF" transform="matrix(1.00, 0.00, -0.00, -1.00, 263.0, 341.1)">n</text><text xml:space="preserve" font-family="Avenir-Medium" font-size="28.3" fill="#FEFFFF" transform="matrix(1.00, 0.00, -0.00, -1.00, 278.8, 341.1)"> </text><text xml:space="preserve" font-family="Avenir-Medium" font-size="23.0" fill="#FEFFFF" transform="matrix(1.00, 0.00, -0.00, -1.00, 227.6, 308.2)">1</text><text xml:space="preserve" font-family="Avenir-Medium" font-size="23.0" fill="#FEFFFF" transform="matrix(1.00, 0.00, -0.00, -1.00, 240.4, 308.2)">9</text><text xml:space="preserve" font-family="Avenir-Medium" font-size="23.0" fill="#FEFFFF" transform="matrix(1.00, 0.00, -0.00, -1.00, 253.2, 308.2)">5</text><text xml:space="preserve" font-family="Avenir-Medium" font-size="23.0" fill="#FEFFFF" transform="matrix(1.00, 0.00, -0.00, -1.00, 266.0, 308.2)">9</text><g><clipPath id="clip-3"><path d="M 304.0 75.0 L 719.2 75.0 L 719.2 628.2 L 304.0 628.2 Z M 304.0 75.0 "></path></clipPath><g clip-path="url(#clip-3)"><image xlink:href="18AEFEE0825E11CE8B1FA487875CAD3E.png" width="376.00" height="595.00" transform="matrix(0.86, 0.00, -0.00, -0.86, 349.9, 605.3)"></image></g></g><g><clipPath id="clip-4"><path d="M 304.0 629.0 L 720.0 629.0 L 720.0 75.0 L 304.0 75.0 Z M 304.0 629.0 "></path></clipPath><g clip-path="url(#clip-4)"><g><clipPath id="clip-5"><path d="M 304.0 75.0 L 719.2 75.0 L 719.2 628.2 L 304.0 628.2 Z M 304.0 75.0 "></path></clipPath><g clip-path="url(#clip-5)"><image xlink:href="49FDECEF0610048003EEE66425C4BB89.png" width="800.00" height="1064.00" transform="matrix(0.52, 0.00, -0.00, -0.52, 304.0, 629.0)"></image></g></g></g></g><g><clipPath id="clip-6"><path d="M 304.0 75.0 L 719.2 75.0 L 719.2 628.2 L 304.0 628.2 Z M 304.0 75.0 "></path></clipPath><g clip-path="url(#clip-6)"><path d="M 357.6 565.8 L 425.8 601.3 L 666.4 138.2 L 598.2 102.7 Z M 357.6 565.8 " fill="#797979" fill-opacity="0.48"></path></g></g></g></svg>