<?xml version="1.0" encoding="UTF-8" standalone="no"?><svg xmlns="http://www.w3.org/2000/svg" xmlns:xlink="http://www.w3.org/1999/xlink" clip-rule="evenodd" stroke-miterlimit="4.00" viewBox="0 0 1024 768"><desc>SVG generated by Keynote</desc><defs></defs><g transform="matrix(1.00, 0.00, -0.00, -1.00, 0.0, 768.0)"><path d="M 0.0 768.0 L 1024.0 768.0 L 1024.0 0.0 L 0.0 0.0 Z M 0.0 768.0 " fill="#000000"></path><text xml:space="preserve" font-family="Avenir-Book" font-size="20.0" fill="#D5D5D5" transform="matrix(1.00, 0.00, -0.00, -1.00, 259.0, 28.0)">N</text><text xml:space="preserve" font-family="Avenir-Book" font-size="20.0" fill="#D5D5D5" transform="matrix(1.00, 0.00, -0.00, -1.00, 274.6, 28.0)">e</text><text xml:space="preserve" font-family="Avenir-Book" font-size="20.0" fill="#D5D5D5" transform="matrix(1.00, 0.00, -0.00, -1.00, 285.7, 28.0)">w</text><text xml:space="preserve" font-family="Avenir-Book" font-size="20.0" fill="#D5D5D5" transform="matrix(1.00, 0.00, -0.00, -1.00, 300.1, 28.0)"> </text><text xml:space="preserve" font-family="Avenir-Book" font-size="20.0" fill="#D5D5D5" transform="matrix(1.00, 0.00, -0.00, -1.00, 305.7, 28.0)">A</text><text xml:space="preserve" font-family="Avenir-Book" font-size="20.0" fill="#D5D5D5" transform="matrix(1.00, 0.00, -0.00, -1.00, 319.4, 28.0)">p</text><text xml:space="preserve" font-family="Avenir-Book" font-size="20.0" fill="#D5D5D5" transform="matrix(1.00, 0.00, -0.00, -1.00, 331.6, 28.0)">p</text><text xml:space="preserve" font-family="Avenir-Book" font-size="20.0" fill="#D5D5D5" transform="matrix(1.00, 0.00, -0.00, -1.00, 343.8, 28.0)">r</text><text xml:space="preserve" font-family="Avenir-Book" font-size="20.0" fill="#D5D5D5" transform="matrix(1.00, 0.00, -0.00, -1.00, 350.1, 28.0)">o</text><text xml:space="preserve" font-family="Avenir-Book" font-size="20.0" fill="#D5D5D5" transform="matrix(1.00, 0.00, -0.00, -1.00, 362.0, 28.0)">a</text><text xml:space="preserve" font-family="Avenir-Book" font-size="20.0" fill="#D5D5D5" transform="matrix(1.00, 0.00, -0.00, -1.00, 372.4, 28.0)">c</text><text xml:space="preserve" font-family="Avenir-Book" font-size="20.0" fill="#D5D5D5" transform="matrix(1.00, 0.00, -0.00, -1.00, 382.0, 28.0)">h</text><text xml:space="preserve" font-family="Avenir-Book" font-size="20.0" fill="#D5D5D5" transform="matrix(1.00, 0.00, -0.00, -1.00, 393.1, 28.0)">e</text><text xml:space="preserve" font-family="Avenir-Book" font-size="20.0" fill="#D5D5D5" transform="matrix(1.00, 0.00, -0.00, -1.00, 404.2, 28.0)">s</text><text xml:space="preserve" font-family="Avenir-Book" font-size="20.0" fill="#D5D5D5" transform="matrix(1.00, 0.00, -0.00, -1.00, 412.8, 28.0)"> </text><text xml:space="preserve" font-family="Avenir-Book" font-size="20.0" fill="#D5D5D5" transform="matrix(1.00, 0.00, -0.00, -1.00, 418.3, 28.0)">f</text><text xml:space="preserve" font-family="Avenir-Book" font-size="20.0" fill="#D5D5D5" transform="matrix(1.00, 0.00, -0.00, -1.00, 424.2, 28.0)">o</text><text xml:space="preserve" font-family="Avenir-Book" font-size="20.0" fill="#D5D5D5" transform="matrix(1.00, 0.00, -0.00, -1.00, 436.1, 28.0)">r</text><text xml:space="preserve" font-family="Avenir-Book" font-size="20.0" fill="#D5D5D5" transform="matrix(1.00, 0.00, -0.00, -1.00, 442.7, 28.0)"> </text><text xml:space="preserve" font-family="Avenir-Book" font-size="20.0" fill="#D5D5D5" transform="matrix(1.00, 0.00, -0.00, -1.00, 448.3, 28.0)">M</text><text xml:space="preserve" font-family="Avenir-Book" font-size="20.0" fill="#D5D5D5" transform="matrix(1.00, 0.00, -0.00, -1.00, 466.1, 28.0)">u</text><text xml:space="preserve" font-family="Avenir-Book" font-size="20.0" fill="#D5D5D5" transform="matrix(1.00, 0.00, -0.00, -1.00, 477.2, 28.0)">s</text><text xml:space="preserve" font-family="Avenir-Book" font-size="20.0" fill="#D5D5D5" transform="matrix(1.00, 0.00, -0.00, -1.00, 485.7, 28.0)">i</text><text xml:space="preserve" font-family="Avenir-Book" font-size="20.0" fill="#D5D5D5" transform="matrix(1.00, 0.00, -0.00, -1.00, 490.5, 28.0)">c</text><text xml:space="preserve" font-family="Avenir-Book" font-size="20.0" fill="#D5D5D5" transform="matrix(1.00, 0.00, -0.00, -1.00, 500.2, 28.0)"> </text><text xml:space="preserve" font-family="Avenir-Book" font-size="20.0" fill="#D5D5D5" transform="matrix(1.00, 0.00, -0.00, -1.00, 505.7, 28.0)">R</text><text xml:space="preserve" font-family="Avenir-Book" font-size="20.0" fill="#D5D5D5" transform="matrix(1.00, 0.00, -0.00, -1.00, 517.6, 28.0)">e</text><text xml:space="preserve" font-family="Avenir-Book" font-size="20.0" fill="#D5D5D5" transform="matrix(1.00, 0.00, -0.00, -1.00, 528.7, 28.0)">p</text><text xml:space="preserve" font-family="Avenir-Book" font-size="20.0" fill="#D5D5D5" transform="matrix(1.00, 0.00, -0.00, -1.00, 540.9, 28.0)">r</text><text xml:space="preserve" font-family="Avenir-Book" font-size="20.0" fill="#D5D5D5" transform="matrix(1.00, 0.00, -0.00, -1.00, 547.2, 28.0)">e</text><text xml:space="preserve" font-family="Avenir-Book" font-size="20.0" fill="#D5D5D5" transform="matrix(1.00, 0.00, -0.00, -1.00, 558.3, 28.0)">s</text><text xml:space="preserve" font-family="Avenir-Book" font-size="20.0" fill="#D5D5D5" transform="matrix(1.00, 0.00, -0.00, -1.00, 566.9, 28.0)">e</text><text xml:space="preserve" font-family="Avenir-Book" font-size="20.0" fill="#D5D5D5" transform="matrix(1.00, 0.00, -0.00, -1.00, 578.0, 28.0)">n</text><text xml:space="preserve" font-family="Avenir-Book" font-size="20.0" fill="#D5D5D5" transform="matrix(1.00, 0.00, -0.00, -1.00, 589.1, 28.0)">t</text><text xml:space="preserve" font-family="Avenir-Book" font-size="20.0" fill="#D5D5D5" transform="matrix(1.00, 0.00, -0.00, -1.00, 595.7, 28.0)">a</text><text xml:space="preserve" font-family="Avenir-Book" font-size="20.0" fill="#D5D5D5" transform="matrix(1.00, 0.00, -0.00, -1.00, 606.1, 28.0)">t</text><text xml:space="preserve" font-family="Avenir-Book" font-size="20.0" fill="#D5D5D5" transform="matrix(1.00, 0.00, -0.00, -1.00, 612.8, 28.0)">i</text><text xml:space="preserve" font-family="Avenir-Book" font-size="20.0" fill="#D5D5D5" transform="matrix(1.00, 0.00, -0.00, -1.00, 617.6, 28.0)">o</text><text xml:space="preserve" font-family="Avenir-Book" font-size="20.0" fill="#D5D5D5" transform="matrix(1.00, 0.00, -0.00, -1.00, 629.4, 28.0)">n</text><text xml:space="preserve" font-family="Avenir-Book" font-size="20.0" fill="#D5D5D5" transform="matrix(1.00, 0.00, -0.00, -1.00, 640.5, 28.0)"> </text><text xml:space="preserve" font-family="Avenir-Book" font-size="20.0" fill="#D5D5D5" transform="matrix(1.00, 0.00, -0.00, -1.00, 646.1, 28.0)">a</text><text xml:space="preserve" font-family="Avenir-Book" font-size="20.0" fill="#D5D5D5" transform="matrix(1.00, 0.00, -0.00, -1.00, 656.5, 28.0)">n</text><text xml:space="preserve" font-family="Avenir-Book" font-size="20.0" fill="#D5D5D5" transform="matrix(1.00, 0.00, -0.00, -1.00, 667.6, 28.0)">d</text><text xml:space="preserve" font-family="Avenir-Book" font-size="20.0" fill="#D5D5D5" transform="matrix(1.00, 0.00, -0.00, -1.00, 679.8, 28.0)"> </text><text xml:space="preserve" font-family="Avenir-Book" font-size="20.0" fill="#D5D5D5" transform="matrix(1.00, 0.00, -0.00, -1.00, 685.4, 28.0)">N</text><text xml:space="preserve" font-family="Avenir-Book" font-size="20.0" fill="#D5D5D5" transform="matrix(1.00, 0.00, -0.00, -1.00, 700.9, 28.0)">o</text><text xml:space="preserve" font-family="Avenir-Book" font-size="20.0" fill="#D5D5D5" transform="matrix(1.00, 0.00, -0.00, -1.00, 712.8, 28.0)">t</text><text xml:space="preserve" font-family="Avenir-Book" font-size="20.0" fill="#D5D5D5" transform="matrix(1.00, 0.00, -0.00, -1.00, 719.4, 28.0)">a</text><text xml:space="preserve" font-family="Avenir-Book" font-size="20.0" fill="#D5D5D5" transform="matrix(1.00, 0.00, -0.00, -1.00, 729.8, 28.0)">t</text><text xml:space="preserve" font-family="Avenir-Book" font-size="20.0" fill="#D5D5D5" transform="matrix(1.00, 0.00, -0.00, -1.00, 736.5, 28.0)">i</text><text xml:space="preserve" font-family="Avenir-Book" font-size="20.0" fill="#D5D5D5" transform="matrix(1.00, 0.00, -0.00, -1.00, 741.3, 28.0)">o</text><text xml:space="preserve" font-family="Avenir-Book" font-size="20.0" fill="#D5D5D5" transform="matrix(1.00, 0.00, -0.00, -1.00, 753.1, 28.0)">n</text><text xml:space="preserve" font-family="AvenirNext-Regular" font-size="53.0" fill="#FEFFFF" transform="matrix(1.00, 0.00, -0.00, -1.00, 74.0, 677.0)">N</text><text xml:space="preserve" font-family="AvenirNext-Regular" font-size="53.0" fill="#FEFFFF" transform="matrix(1.00, 0.00, -0.00, -1.00, 114.5, 677.0)">e</text><text xml:space="preserve" font-family="AvenirNext-Regular" font-size="53.0" fill="#FEFFFF" transform="matrix(1.00, 0.00, -0.00, -1.00, 144.8, 677.0)">w</text><text xml:space="preserve" font-family="AvenirNext-Regular" font-size="53.0" fill="#FEFFFF" transform="matrix(1.00, 0.00, -0.00, -1.00, 184.3, 677.0)"> </text><text xml:space="preserve" font-family="AvenirNext-Regular" font-size="53.0" fill="#FEFFFF" transform="matrix(1.00, 0.00, -0.00, -1.00, 197.6, 677.0)">n</text><text xml:space="preserve" font-family="AvenirNext-Regular" font-size="53.0" fill="#FEFFFF" transform="matrix(1.00, 0.00, -0.00, -1.00, 228.4, 677.0)">o</text><text xml:space="preserve" font-family="AvenirNext-Regular" font-size="53.0" fill="#FEFFFF" transform="matrix(1.00, 0.00, -0.00, -1.00, 260.8, 677.0)">t</text><text xml:space="preserve" font-family="AvenirNext-Regular" font-size="53.0" fill="#FEFFFF" transform="matrix(1.00, 0.00, -0.00, -1.00, 277.6, 677.0)">a</text><text xml:space="preserve" font-family="AvenirNext-Regular" font-size="53.0" fill="#FEFFFF" transform="matrix(1.00, 0.00, -0.00, -1.00, 305.3, 677.0)">t</text><text xml:space="preserve" font-family="AvenirNext-Regular" font-size="53.0" fill="#FEFFFF" transform="matrix(1.00, 0.00, -0.00, -1.00, 322.1, 677.0)">i</text><text xml:space="preserve" font-family="AvenirNext-Regular" font-size="53.0" fill="#FEFFFF" transform="matrix(1.00, 0.00, -0.00, -1.00, 335.4, 677.0)">o</text><text xml:space="preserve" font-family="AvenirNext-Regular" font-size="53.0" fill="#FEFFFF" transform="matrix(1.00, 0.00, -0.00, -1.00, 367.8, 677.0)">n</text><text xml:space="preserve" font-family="AvenirNext-Regular" font-size="53.0" fill="#FEFFFF" transform="matrix(1.00, 0.00, -0.00, -1.00, 398.6, 677.0)">s</text><text xml:space="preserve" font-family="AvenirNext-Regular" font-size="53.0" fill="#FEFFFF" transform="matrix(1.00, 0.00, -0.00, -1.00, 422.1, 677.0)">…</text><text xml:space="preserve" font-family="Avenir-Book" font-size="18.0" fill="#D5D5D5" transform="matrix(1.00, 0.00, -0.00, -1.00, 30.0, 28.0)">1</text><text xml:space="preserve" font-family="Avenir-Book" font-size="18.0" fill="#D5D5D5" transform="matrix(1.00, 0.00, -0.00, -1.00, 40.0, 28.0)">1</text><text xml:space="preserve" font-family="Avenir-Black" font-weight="bold" font-size="26.0" fill="#FEFFFF" transform="matrix(1.00, 0.00, -0.00, -1.00, 308.0, 130.0)">A</text><text xml:space="preserve" font-family="Avenir-Black" font-weight="bold" font-size="26.0" fill="#FEFFFF" transform="matrix(1.00, 0.00, -0.00, -1.00, 327.2, 130.0)">r</text><text xml:space="preserve" font-family="Avenir-Black" font-weight="bold" font-size="26.0" fill="#FEFFFF" transform="matrix(1.00, 0.00, -0.00, -1.00, 337.8, 130.0)">t</text><text xml:space="preserve" font-family="Avenir-Black" font-weight="bold" font-size="26.0" fill="#FEFFFF" transform="matrix(1.00, 0.00, -0.00, -1.00, 348.4, 130.0)">i</text><text xml:space="preserve" font-family="Avenir-Black" font-weight="bold" font-size="26.0" fill="#FEFFFF" transform="matrix(1.00, 0.00, -0.00, -1.00, 355.1, 130.0)">k</text><text xml:space="preserve" font-family="Avenir-Black" font-weight="bold" font-size="26.0" fill="#FEFFFF" transform="matrix(1.00, 0.00, -0.00, -1.00, 369.6, 130.0)">u</text><text xml:space="preserve" font-family="Avenir-Black" font-weight="bold" font-size="26.0" fill="#FEFFFF" transform="matrix(1.00, 0.00, -0.00, -1.00, 384.5, 130.0)">l</text><text xml:space="preserve" font-family="Avenir-Black" font-weight="bold" font-size="26.0" fill="#FEFFFF" transform="matrix(1.00, 0.00, -0.00, -1.00, 391.2, 130.0)">a</text><text xml:space="preserve" font-family="Avenir-Black" font-weight="bold" font-size="26.0" fill="#FEFFFF" transform="matrix(1.00, 0.00, -0.00, -1.00, 405.2, 130.0)">t</text><text xml:space="preserve" font-family="Avenir-Black" font-weight="bold" font-size="26.0" fill="#FEFFFF" transform="matrix(1.00, 0.00, -0.00, -1.00, 415.7, 130.0)">i</text><text xml:space="preserve" font-family="Avenir-Black" font-weight="bold" font-size="26.0" fill="#FEFFFF" transform="matrix(1.00, 0.00, -0.00, -1.00, 422.5, 130.0)">o</text><text xml:space="preserve" font-family="Avenir-Black" font-weight="bold" font-size="26.0" fill="#FEFFFF" transform="matrix(1.00, 0.00, -0.00, -1.00, 438.3, 130.0)">n</text><text xml:space="preserve" font-family="Avenir-Black" font-weight="bold" font-size="26.0" fill="#FEFFFF" transform="matrix(1.00, 0.00, -0.00, -1.00, 453.3, 130.0)"> </text><text xml:space="preserve" font-family="Avenir-Medium" font-size="26.0" fill="#FEFFFF" transform="matrix(1.00, 0.00, -0.00, -1.00, 460.9, 130.0)">-</text><text xml:space="preserve" font-family="Avenir-Medium" font-size="26.0" fill="#FEFFFF" transform="matrix(1.00, 0.00, -0.00, -1.00, 469.1, 130.0)"> </text><text xml:space="preserve" font-family="Avenir-Medium" font-size="26.0" fill="#FEFFFF" transform="matrix(1.00, 0.00, -0.00, -1.00, 476.4, 130.0)">G</text><text xml:space="preserve" font-family="Avenir-Medium" font-size="26.0" fill="#FEFFFF" transform="matrix(1.00, 0.00, -0.00, -1.00, 496.6, 130.0)">y</text><text xml:space="preserve" font-family="Avenir-Medium" font-size="26.0" fill="#FEFFFF" transform="matrix(1.00, 0.00, -0.00, -1.00, 509.6, 130.0)">ö</text><text xml:space="preserve" font-family="Avenir-Medium" font-size="26.0" fill="#FEFFFF" transform="matrix(1.00, 0.00, -0.00, -1.00, 525.0, 130.0)">r</text><text xml:space="preserve" font-family="Avenir-Medium" font-size="26.0" fill="#FEFFFF" transform="matrix(1.00, 0.00, -0.00, -1.00, 534.1, 130.0)">g</text><text xml:space="preserve" font-family="Avenir-Medium" font-size="26.0" fill="#FEFFFF" transform="matrix(1.00, 0.00, -0.00, -1.00, 550.0, 130.0)">y</text><text xml:space="preserve" font-family="Avenir-Medium" font-size="26.0" fill="#FEFFFF" transform="matrix(1.00, 0.00, -0.00, -1.00, 563.0, 130.0)"> </text><text xml:space="preserve" font-family="Avenir-Medium" font-size="26.0" fill="#FEFFFF" transform="matrix(1.00, 0.00, -0.00, -1.00, 570.2, 130.0)">L</text><text xml:space="preserve" font-family="Avenir-Medium" font-size="26.0" fill="#FEFFFF" transform="matrix(1.00, 0.00, -0.00, -1.00, 583.7, 130.0)">i</text><text xml:space="preserve" font-family="Avenir-Medium" font-size="26.0" fill="#FEFFFF" transform="matrix(1.00, 0.00, -0.00, -1.00, 589.9, 130.0)">g</text><text xml:space="preserve" font-family="Avenir-Medium" font-size="26.0" fill="#FEFFFF" transform="matrix(1.00, 0.00, -0.00, -1.00, 605.8, 130.0)">e</text><text xml:space="preserve" font-family="Avenir-Medium" font-size="26.0" fill="#FEFFFF" transform="matrix(1.00, 0.00, -0.00, -1.00, 620.2, 130.0)">t</text><text xml:space="preserve" font-family="Avenir-Medium" font-size="26.0" fill="#FEFFFF" transform="matrix(1.00, 0.00, -0.00, -1.00, 629.8, 130.0)">i</text><text xml:space="preserve" font-family="Avenir-Medium" font-size="26.0" fill="#FEFFFF" transform="matrix(1.00, 0.00, -0.00, -1.00, 636.1, 130.0)"> </text><text xml:space="preserve" font-family="Avenir-Medium" font-size="26.0" fill="#FEFFFF" transform="matrix(1.00, 0.00, -0.00, -1.00, 643.3, 130.0)">-</text><text xml:space="preserve" font-family="Avenir-Medium" font-size="26.0" fill="#FEFFFF" transform="matrix(1.00, 0.00, -0.00, -1.00, 651.5, 130.0)"> </text><text xml:space="preserve" font-family="Avenir-Medium" font-size="26.0" fill="#FEFFFF" transform="matrix(1.00, 0.00, -0.00, -1.00, 658.7, 130.0)">1</text><text xml:space="preserve" font-family="Avenir-Medium" font-size="26.0" fill="#FEFFFF" transform="matrix(1.00, 0.00, -0.00, -1.00, 673.1, 130.0)">9</text><text xml:space="preserve" font-family="Avenir-Medium" font-size="26.0" fill="#FEFFFF" transform="matrix(1.00, 0.00, -0.00, -1.00, 687.6, 130.0)">5</text><text xml:space="preserve" font-family="Avenir-Medium" font-size="26.0" fill="#FEFFFF" transform="matrix(1.00, 0.00, -0.00, -1.00, 702.0, 130.0)">8</text><text xml:space="preserve" font-family="Avenir-Medium" font-size="26.0" fill="#FEFFFF" transform="matrix(1.00, 0.00, -0.00, -1.00, 716.5, 130.0)"> </text><text xml:space="preserve" font-family="Avenir-Medium" font-size="19.1" fill="#FEFFFF" transform="matrix(1.00, 0.00, -0.00, -1.00, 350.0, 102.0)">L</text><text xml:space="preserve" font-family="Avenir-Medium" font-size="19.1" fill="#FEFFFF" transform="matrix(1.00, 0.00, -0.00, -1.00, 359.9, 102.0)">i</text><text xml:space="preserve" font-family="Avenir-Medium" font-size="19.1" fill="#FEFFFF" transform="matrix(1.00, 0.00, -0.00, -1.00, 364.5, 102.0)">s</text><text xml:space="preserve" font-family="Avenir-Medium" font-size="19.1" fill="#FEFFFF" transform="matrix(1.00, 0.00, -0.00, -1.00, 373.0, 102.0)">t</text><text xml:space="preserve" font-family="Avenir-Medium" font-size="19.1" fill="#FEFFFF" transform="matrix(1.00, 0.00, -0.00, -1.00, 380.1, 102.0)">e</text><text xml:space="preserve" font-family="Avenir-Medium" font-size="19.1" fill="#FEFFFF" transform="matrix(1.00, 0.00, -0.00, -1.00, 390.7, 102.0)">n</text><text xml:space="preserve" font-family="Avenir-Medium" font-size="19.1" fill="#FEFFFF" transform="matrix(1.00, 0.00, -0.00, -1.00, 401.3, 102.0)">i</text><text xml:space="preserve" font-family="Avenir-Medium" font-size="19.1" fill="#FEFFFF" transform="matrix(1.00, 0.00, -0.00, -1.00, 405.9, 102.0)">n</text><text xml:space="preserve" font-family="Avenir-Medium" font-size="19.1" fill="#FEFFFF" transform="matrix(1.00, 0.00, -0.00, -1.00, 416.5, 102.0)">g</text><text xml:space="preserve" font-family="Avenir-Medium" font-size="19.1" fill="#FEFFFF" transform="matrix(1.00, 0.00, -0.00, -1.00, 428.2, 102.0)"> </text><text xml:space="preserve" font-family="Avenir-Medium" font-size="19.1" fill="#FEFFFF" transform="matrix(1.00, 0.00, -0.00, -1.00, 433.5, 102.0)">s</text><text xml:space="preserve" font-family="Avenir-Medium" font-size="19.1" fill="#FEFFFF" transform="matrix(1.00, 0.00, -0.00, -1.00, 442.0, 102.0)">c</text><text xml:space="preserve" font-family="Avenir-Medium" font-size="19.1" fill="#FEFFFF" transform="matrix(1.00, 0.00, -0.00, -1.00, 451.2, 102.0)">o</text><text xml:space="preserve" font-family="Avenir-Medium" font-size="19.1" fill="#FEFFFF" transform="matrix(1.00, 0.00, -0.00, -1.00, 462.6, 102.0)">r</text><text xml:space="preserve" font-family="Avenir-Medium" font-size="19.1" fill="#FEFFFF" transform="matrix(1.00, 0.00, -0.00, -1.00, 469.3, 102.0)">e</text><text xml:space="preserve" font-family="Avenir-Medium" font-size="19.1" fill="#FEFFFF" transform="matrix(1.00, 0.00, -0.00, -1.00, 479.9, 102.0)"> </text><text xml:space="preserve" font-family="Avenir-Medium" font-size="19.1" fill="#FEFFFF" transform="matrix(1.00, 0.00, -0.00, -1.00, 485.2, 102.0)">f</text><text xml:space="preserve" font-family="Avenir-Medium" font-size="19.1" fill="#FEFFFF" transform="matrix(1.00, 0.00, -0.00, -1.00, 491.6, 102.0)">r</text><text xml:space="preserve" font-family="Avenir-Medium" font-size="19.1" fill="#FEFFFF" transform="matrix(1.00, 0.00, -0.00, -1.00, 498.3, 102.0)">o</text><text xml:space="preserve" font-family="Avenir-Medium" font-size="19.1" fill="#FEFFFF" transform="matrix(1.00, 0.00, -0.00, -1.00, 509.7, 102.0)">m</text><text xml:space="preserve" font-family="Avenir-Medium" font-size="19.1" fill="#FEFFFF" transform="matrix(1.00, 0.00, -0.00, -1.00, 525.9, 102.0)"> </text><text xml:space="preserve" font-family="Avenir-Medium" font-size="19.1" fill="#FEFFFF" transform="matrix(1.00, 0.00, -0.00, -1.00, 531.3, 102.0)">R</text><text xml:space="preserve" font-family="Avenir-Medium" font-size="19.1" fill="#FEFFFF" transform="matrix(1.00, 0.00, -0.00, -1.00, 542.9, 102.0)">a</text><text xml:space="preserve" font-family="Avenir-Medium" font-size="19.1" fill="#FEFFFF" transform="matrix(1.00, 0.00, -0.00, -1.00, 552.9, 102.0)">i</text><text xml:space="preserve" font-family="Avenir-Medium" font-size="19.1" fill="#FEFFFF" transform="matrix(1.00, 0.00, -0.00, -1.00, 557.4, 102.0)">n</text><text xml:space="preserve" font-family="Avenir-Medium" font-size="19.1" fill="#FEFFFF" transform="matrix(1.00, 0.00, -0.00, -1.00, 568.1, 102.0)">e</text><text xml:space="preserve" font-family="Avenir-Medium" font-size="19.1" fill="#FEFFFF" transform="matrix(1.00, 0.00, -0.00, -1.00, 578.7, 102.0)">r</text><text xml:space="preserve" font-family="Avenir-Medium" font-size="19.1" fill="#FEFFFF" transform="matrix(1.00, 0.00, -0.00, -1.00, 585.8, 102.0)"> </text><text xml:space="preserve" font-family="Avenir-Medium" font-size="19.1" fill="#FEFFFF" transform="matrix(1.00, 0.00, -0.00, -1.00, 591.1, 102.0)">W</text><text xml:space="preserve" font-family="Avenir-Medium" font-size="19.1" fill="#FEFFFF" transform="matrix(1.00, 0.00, -0.00, -1.00, 608.6, 102.0)">e</text><text xml:space="preserve" font-family="Avenir-Medium" font-size="19.1" fill="#FEFFFF" transform="matrix(1.00, 0.00, -0.00, -1.00, 619.2, 102.0)">h</text><text xml:space="preserve" font-family="Avenir-Medium" font-size="19.1" fill="#FEFFFF" transform="matrix(1.00, 0.00, -0.00, -1.00, 629.8, 102.0)">i</text><text xml:space="preserve" font-family="Avenir-Medium" font-size="19.1" fill="#FEFFFF" transform="matrix(1.00, 0.00, -0.00, -1.00, 634.4, 102.0)">n</text><text xml:space="preserve" font-family="Avenir-Medium" font-size="19.1" fill="#FEFFFF" transform="matrix(1.00, 0.00, -0.00, -1.00, 645.0, 102.0)">g</text><text xml:space="preserve" font-family="Avenir-Medium" font-size="19.1" fill="#FEFFFF" transform="matrix(1.00, 0.00, -0.00, -1.00, 656.7, 102.0)">e</text><text xml:space="preserve" font-family="Avenir-Medium" font-size="19.1" fill="#FEFFFF" transform="matrix(1.00, 0.00, -0.00, -1.00, 667.3, 102.0)">r</text><text xml:space="preserve" font-family="Avenir-Medium" font-size="19.1" fill="#FEFFFF" transform="matrix(1.00, 0.00, -0.00, -1.00, 674.4, 102.0)"> </text><text xml:space="preserve" font-family="Avenir-Medium" font-size="19.1" fill="#FEFFFF" transform="matrix(1.00, 0.00, -0.00, -1.00, 485.0, 76.0)">1</text><text xml:space="preserve" font-family="Avenir-Medium" font-size="19.1" fill="#FEFFFF" transform="matrix(1.00, 0.00, -0.00, -1.00, 495.6, 76.0)">9</text><text xml:space="preserve" font-family="Avenir-Medium" font-size="19.1" fill="#FEFFFF" transform="matrix(1.00, 0.00, -0.00, -1.00, 506.3, 76.0)">7</text><text xml:space="preserve" font-family="Avenir-Medium" font-size="19.1" fill="#FEFFFF" transform="matrix(1.00, 0.00, -0.00, -1.00, 516.9, 76.0)">0</text><text xml:space="preserve" font-family="Avenir-Medium" font-size="19.1" fill="#FEFFFF" transform="matrix(1.00, 0.00, -0.00, -1.00, 527.5, 76.0)">’</text><text xml:space="preserve" font-family="Avenir-Medium" font-size="19.1" fill="#FEFFFF" transform="matrix(1.00, 0.00, -0.00, -1.00, 531.4, 76.0)">s</text><text xml:space="preserve" font-family="Avenir-Medium" font-size="19.1" fill="#FEFFFF" transform="matrix(1.00, 0.00, -0.00, -1.00, 539.9, 76.0)"> </text><image xlink:href="9474AA24FAB5BCFE3EB57BFBE0BF0680.png" width="540.00" height="360.00" transform="matrix(1.29, 0.00, -0.00, -1.29, 164.0, 635.0)"></image></g></svg>