<?xml version="1.0" encoding="UTF-8" standalone="no"?><svg xmlns="http://www.w3.org/2000/svg" xmlns:xlink="http://www.w3.org/1999/xlink" clip-rule="evenodd" stroke-miterlimit="4.00" viewBox="0 0 57 228"><desc>SVG generated by Keynote</desc><defs></defs><g transform="matrix(1.00, 0.00, -0.00, -1.00, 0.0, 228.0)"><image xlink:href="165C58CF6C0B5B6279544F44E48EBC0B.png" width="44.00" height="216.00" transform="matrix(1.01, 0.00, -0.00, -1.00, 10.5, 218.3)" opacity="0.71"></image><path d="M 26.0 194.3 C 26.0 194.7 26.0 196.3 26.0 196.3 C 26.0 195.7 26.1 194.4 26.0 194.3 C 26.0 194.3 26.0 194.3 26.0 194.3 Z M 26.0 191.1 C 25.9 191.7 26.0 193.0 26.0 193.4 C 26.0 192.7 26.0 191.3 26.0 191.1 C 26.0 191.1 26.0 191.1 26.0 191.1 Z M 26.2 196.0 C 26.2 196.9 26.1 198.5 26.2 198.8 C 26.2 198.0 26.2 196.4 26.2 196.0 C 26.2 196.0 26.2 196.0 26.2 196.0 Z M 25.3 151.0 C 25.2 151.4 25.2 153.0 25.3 153.0 C 25.3 152.4 25.3 151.1 25.3 151.0 C 25.3 151.0 25.3 151.0 25.3 151.0 Z M 25.4 159.9 C 25.3 160.5 25.4 161.8 25.4 162.2 C 25.4 161.5 25.4 160.1 25.4 159.9 C 25.4 159.9 25.4 159.9 25.4 159.9 Z M 25.3 165.1 C 25.3 166.3 25.3 167.6 25.4 167.3 C 25.3 166.9 25.4 165.2 25.3 165.1 C 25.3 165.1 25.3 165.1 25.3 165.1 Z M 28.9 195.0 C 28.9 193.7 28.9 192.8 28.9 191.9 C 28.9 187.6 28.8 194.2 28.9 195.0 C 28.9 195.0 28.9 195.0 28.9 195.0 Z M 25.5 174.2 C 25.5 173.3 25.5 172.6 25.4 172.2 C 25.4 173.0 25.4 174.1 25.5 174.2 C 25.5 174.2 25.5 174.2 25.5 174.2 Z M 25.5 181.7 C 25.5 181.9 25.5 186.3 25.5 188.8 C 25.5 186.7 25.6 181.5 25.5 181.7 C 25.5 181.7 25.5 181.7 25.5 181.7 Z M 29.0 184.6 C 28.9 181.7 28.9 177.1 28.9 175.0 C 28.9 173.0 28.9 178.7 28.8 184.0 C 28.8 189.4 29.0 185.0 29.0 187.1 C 29.0 189.3 29.1 185.1 29.0 182.9 C 29.0 180.8 29.0 184.3 29.0 184.6 C 29.0 184.6 29.0 184.6 29.0 184.6 Z M 29.2 184.7 C 29.2 185.8 29.2 186.7 29.2 187.3 C 29.3 186.2 29.3 185.2 29.2 184.7 C 29.2 184.7 29.2 184.7 29.2 184.7 Z M 28.3 30.4 C 27.6 30.8 27.1 33.3 26.7 36.1 C 26.6 36.7 26.5 37.4 26.4 38.1 C 26.1 43.2 25.9 48.2 25.8 53.3 C 25.8 54.3 25.7 55.3 25.7 56.3 C 25.7 59.4 25.6 62.6 25.6 65.7 C 25.6 66.7 25.6 67.8 25.6 68.8 C 25.5 72.6 25.5 76.2 25.5 79.9 C 25.5 81.8 25.5 83.6 25.4 85.6 C 25.3 86.5 25.3 90.7 25.3 92.1 C 25.2 90.7 25.2 97.5 25.2 97.2 C 25.3 98.0 25.3 98.8 25.3 99.5 C 25.3 100.3 25.4 99.3 25.4 98.3 C 25.4 99.2 25.4 100.1 25.4 101.0 C 25.4 102.0 25.4 102.9 25.4 103.9 C 25.3 107.0 25.3 110.5 25.4 113.4 C 25.3 121.4 25.3 143.5 25.3 139.5 C 25.4 135.0 25.4 137.3 25.4 138.5 C 25.4 139.3 25.4 140.2 25.4 141.3 C 25.4 141.2 25.4 141.1 25.4 141.0 C 25.4 143.0 25.3 145.8 25.3 148.6 C 25.3 148.1 25.3 147.4 25.4 147.2 C 25.4 148.6 25.4 147.5 25.5 148.4 C 25.5 150.9 25.5 152.2 25.5 149.2 C 25.5 152.0 25.6 153.7 25.7 156.4 C 25.7 157.5 25.7 156.9 25.7 156.6 C 25.6 158.4 25.6 162.5 25.6 162.9 C 25.5 163.3 25.6 151.7 25.6 153.8 C 25.5 154.6 25.5 156.4 25.5 157.0 C 25.5 155.5 25.5 153.7 25.5 152.8 C 25.5 153.8 25.5 155.3 25.5 156.0 C 25.5 155.1 25.5 154.4 25.4 154.1 C 25.4 155.5 25.4 156.6 25.4 158.3 C 25.4 159.1 25.5 157.7 25.4 159.3 C 25.5 159.6 25.5 158.2 25.5 158.3 C 25.5 159.6 25.5 162.2 25.5 162.9 C 25.5 163.5 25.5 161.3 25.5 161.2 C 25.5 166.3 25.5 172.0 25.5 173.8 C 25.5 175.5 25.5 173.9 25.6 173.1 C 25.6 175.2 25.6 176.8 25.6 179.2 C 25.6 180.8 25.6 180.2 25.6 179.6 C 25.6 180.0 25.6 180.4 25.6 180.6 C 25.6 180.8 25.6 181.2 25.6 181.5 C 25.7 180.6 25.7 178.8 25.7 178.0 C 25.7 179.4 25.7 182.9 25.7 184.1 C 25.7 182.1 25.7 180.0 25.8 177.8 C 25.8 182.1 25.6 186.6 25.7 190.1 C 25.7 189.5 25.8 189.2 25.8 188.7 C 25.8 190.0 25.7 192.0 25.8 193.2 C 25.8 193.8 25.8 195.1 25.8 196.4 C 25.9 194.2 25.9 192.6 25.9 191.0 C 25.9 191.1 25.9 191.2 25.9 191.5 C 26.0 187.9 25.8 185.9 25.8 183.3 C 25.8 183.1 25.8 182.9 25.8 182.7 C 25.9 181.9 25.9 184.8 25.9 185.1 C 25.9 181.3 25.9 177.2 26.0 175.4 C 26.0 179.9 25.9 183.8 26.0 187.2 C 26.1 186.3 26.0 182.9 26.1 181.3 C 26.1 188.6 26.1 189.4 26.1 190.0 C 26.1 189.4 26.1 188.8 26.2 188.3 C 26.2 188.4 26.2 188.5 26.2 188.7 C 26.2 191.9 26.2 195.7 26.2 195.5 C 26.2 195.4 26.2 192.4 26.2 189.3 C 26.3 189.6 26.3 190.0 26.3 190.3 C 26.3 193.9 26.4 198.0 26.4 201.7 C 26.4 201.1 26.4 201.4 26.4 202.1 C 26.5 201.0 26.5 199.4 26.5 198.2 C 26.6 198.6 26.5 199.3 26.6 199.6 C 26.6 199.0 26.6 198.0 26.6 197.7 C 26.6 199.4 26.7 201.3 26.7 203.1 C 26.7 203.5 26.7 202.3 26.7 202.4 C 26.7 204.1 26.7 206.5 26.7 207.8 C 26.8 206.3 26.8 203.5 26.8 202.6 C 26.8 203.2 26.8 203.8 26.9 204.4 C 26.9 205.5 26.9 206.1 26.9 204.8 C 26.9 204.1 26.9 204.1 26.9 204.3 C 27.0 205.1 26.9 207.9 27.0 207.8 C 27.0 207.1 27.1 204.3 27.1 203.6 C 27.2 204.1 27.1 205.5 27.2 205.7 C 27.2 202.6 27.2 202.7 27.2 201.9 C 27.2 202.2 27.2 203.1 27.1 203.1 C 27.1 201.2 27.2 199.3 27.2 197.3 C 27.2 197.3 27.2 197.3 27.2 197.3 C 27.2 197.3 27.2 197.3 27.2 197.3 C 27.2 197.3 27.2 197.3 27.2 197.3 C 27.2 197.5 27.3 197.4 27.3 197.2 C 27.3 198.1 27.3 198.9 27.3 200.5 C 27.4 200.1 27.4 198.7 27.4 197.3 C 27.4 197.4 27.4 197.4 27.4 197.4 C 27.4 199.5 27.4 202.8 27.4 205.0 C 27.5 204.0 27.5 200.3 27.5 197.8 C 27.5 197.9 27.5 197.9 27.5 198.0 C 27.5 194.9 27.6 191.2 27.6 187.6 C 27.7 189.3 27.6 191.3 27.6 193.5 C 27.6 194.5 27.7 195.5 27.7 196.5 C 27.7 199.3 27.6 207.6 27.6 208.5 C 27.7 209.6 27.7 201.1 27.8 201.1 C 27.8 201.0 27.8 205.0 27.8 203.1 C 27.8 202.2 27.8 200.0 27.8 198.5 C 27.8 198.5 27.9 198.4 28.0 198.4 C 27.9 199.7 28.0 201.3 27.9 201.3 C 27.9 202.0 27.8 203.4 27.9 203.6 C 27.9 203.4 27.9 203.0 27.9 203.0 C 27.9 203.3 27.9 203.8 27.9 203.9 C 27.9 202.3 28.0 200.0 28.0 198.3 C 28.0 198.1 28.0 198.0 28.1 197.8 C 28.1 197.9 28.1 199.2 28.1 200.4 C 28.1 201.6 28.1 199.1 28.1 197.0 C 28.2 196.7 28.2 196.4 28.2 196.0 C 28.2 196.7 28.2 197.6 28.2 198.5 C 28.2 199.7 28.3 199.6 28.3 200.8 C 28.4 198.7 28.4 196.2 28.4 194.2 C 28.4 193.4 28.5 192.7 28.5 191.9 C 28.5 193.6 28.6 195.2 28.6 196.1 C 28.6 196.8 28.6 197.6 28.6 197.9 C 28.6 197.2 28.6 199.0 28.7 198.7 C 28.7 197.7 28.7 195.8 28.6 195.0 C 28.6 193.5 28.6 191.8 28.6 190.3 C 28.6 190.1 28.7 189.9 28.7 189.7 C 28.7 191.0 28.7 192.2 28.7 193.6 C 28.8 193.0 28.8 189.2 28.8 186.5 C 28.9 181.0 28.6 175.5 28.5 169.9 C 28.5 169.7 28.6 169.4 28.6 169.0 C 28.6 168.6 28.6 168.3 28.7 167.8 C 28.7 169.2 28.7 170.3 28.7 171.3 C 28.8 167.4 28.7 176.9 28.8 177.5 C 28.9 171.2 28.9 159.4 29.0 152.1 C 29.0 153.8 29.0 154.4 29.0 152.5 C 29.0 152.0 29.1 151.5 29.1 151.0 C 29.1 158.4 28.9 166.1 29.0 172.0 C 29.0 168.5 29.0 163.2 29.1 161.7 C 29.1 162.7 29.1 164.2 29.1 164.4 C 29.2 162.6 29.1 156.6 29.2 154.8 C 29.2 163.5 29.1 175.2 29.2 181.6 C 29.2 172.0 29.3 159.0 29.3 150.7 C 29.3 152.1 29.2 152.2 29.2 151.4 C 29.2 148.8 29.2 146.3 29.2 143.6 C 29.2 143.1 29.2 143.3 29.2 144.6 C 29.3 145.6 29.2 146.2 29.3 146.6 C 29.3 145.9 29.3 137.7 29.3 144.2 C 29.3 150.6 29.3 161.8 29.4 155.3 C 29.4 148.7 29.5 146.2 29.5 149.7 C 29.5 153.3 29.5 164.6 29.5 160.8 C 29.6 157.1 29.7 149.1 29.7 144.6 C 29.7 140.1 29.4 147.6 29.5 141.0 C 29.5 134.3 29.5 139.9 29.5 138.6 C 29.5 136.6 29.6 132.9 29.6 129.4 C 29.6 126.9 29.6 123.8 29.7 122.2 C 29.7 122.3 29.6 129.8 29.7 126.8 C 29.7 119.5 29.8 111.4 29.7 114.7 C 29.7 110.2 29.7 106.9 29.7 104.1 C 29.8 99.7 29.9 94.6 29.9 94.1 C 29.9 93.4 29.8 81.5 30.1 77.0 C 30.1 76.7 30.0 68.6 30.0 67.9 C 30.1 60.3 30.1 61.3 30.2 53.8 C 30.2 47.5 30.1 45.6 30.1 44.5 C 30.1 37.9 30.2 37.9 29.9 34.7 C 29.8 33.7 29.8 32.2 29.6 31.6 C 29.3 30.6 28.9 30.1 28.3 30.4 C 28.3 30.4 28.3 30.4 28.3 30.4 Z M 27.1 196.4 C 27.0 197.6 27.0 199.7 27.0 201.0 C 26.9 199.6 27.0 197.8 27.0 196.0 C 27.0 196.2 27.0 196.3 27.1 196.4 C 27.1 196.4 27.1 196.4 27.1 196.4 Z M 28.2 187.4 C 28.2 188.2 28.1 189.1 28.1 190.0 C 28.1 190.8 28.1 191.7 28.1 193.0 C 28.2 192.9 28.2 190.8 28.2 189.1 C 28.2 189.1 28.2 189.1 28.3 189.1 C 28.3 189.9 28.3 190.9 28.3 192.0 C 28.3 192.3 28.3 192.7 28.3 193.1 C 28.2 193.1 28.2 192.6 28.2 192.3 C 28.2 192.6 28.1 193.6 28.1 194.9 C 28.1 195.0 28.1 195.2 28.1 195.3 C 28.0 195.5 28.0 194.5 28.0 195.6 C 28.0 194.9 28.0 192.9 28.0 191.7 C 28.1 193.0 28.1 187.9 28.1 186.6 C 28.1 186.9 28.1 187.1 28.2 187.4 Z M 25.8 177.5 C 25.8 176.8 25.8 176.1 25.8 175.4 C 25.8 176.4 25.8 177.2 25.8 177.9 C 25.8 177.8 25.8 177.6 25.8 177.5 Z M 25.6 119.6 C 25.7 123.8 25.5 132.7 25.6 133.2 C 25.6 134.1 25.6 135.0 25.5 136.0 C 25.6 130.1 25.6 123.8 25.6 119.6 C 25.6 119.6 25.6 119.6 25.6 119.6 Z M 29.3 134.5 C 29.3 134.8 29.3 134.7 29.3 133.8 C 29.3 129.3 29.2 126.6 29.2 129.5 C 29.2 131.9 29.1 137.3 29.1 135.7 C 29.1 133.6 29.1 131.5 29.1 129.4 C 29.2 127.8 29.2 126.2 29.3 124.6 C 29.3 128.1 29.3 131.4 29.3 134.5 C 29.3 134.5 29.3 134.5 29.3 134.5 Z M 29.4 122.6 C 29.4 123.8 29.4 125.3 29.4 126.9 C 29.4 125.5 29.4 124.2 29.4 122.9 C 29.4 122.8 29.4 122.7 29.4 122.6 Z M 29.5 121.0 C 29.5 123.5 29.5 126.1 29.5 123.5 C 29.5 122.9 29.5 122.4 29.5 121.8 C 29.5 121.5 29.5 121.2 29.5 121.0 Z M 29.6 119.4 C 29.5 119.4 29.5 119.9 29.5 120.7 C 29.5 119.0 29.5 115.5 29.6 115.7 C 29.6 116.8 29.6 118.1 29.6 119.4 C 29.6 119.4 29.6 119.4 29.6 119.4 Z M 25.5 116.8 C 25.5 117.9 25.4 118.9 25.4 117.1 C 25.4 116.4 25.4 115.8 25.4 115.1 C 25.4 115.6 25.5 116.2 25.5 116.8 Z M 29.1 175.8 C 29.1 175.3 29.1 173.5 29.1 172.4 C 28.9 172.3 29.0 176.5 29.1 175.8 C 29.1 175.8 29.1 175.8 29.1 175.8 Z M 29.1 182.7 C 29.1 182.2 29.1 180.4 29.1 179.3 C 28.9 179.2 29.0 183.4 29.1 182.7 C 29.1 182.7 29.1 182.7 29.1 182.7 Z M 30.1 77.0 C 30.1 77.0 30.1 77.0 30.1 77.0 C 30.1 77.0 30.1 77.0 30.1 77.0 C 30.1 77.0 30.1 77.0 30.1 77.0 Z M 30.1 77.0 " fill="#FEFB00"></path><path d="M 27.8 37.0 C 27.8 37.1 30.9 38.0 31.0 38.0 C 31.3 38.0 32.0 38.1 32.3 38.2 C 31.8 38.1 31.3 38.1 31.1 38.1 C 31.1 38.1 30.3 38.0 31.1 38.4 C 31.0 38.4 30.9 38.4 30.9 38.5 L 30.9 38.5 C 30.9 38.5 30.1 38.2 30.1 38.3 C 29.9 38.7 32.6 38.9 32.8 39.1 C 32.5 39.1 32.3 39.0 32.1 39.1 C 32.8 39.1 35.7 40.0 36.3 40.1 L 37.1 40.3 L 37.5 40.4 L 37.7 40.4 L 37.8 40.4 L 37.8 40.4 L 37.8 40.4 L 37.8 40.4 C 37.8 40.4 38.0 40.5 37.7 40.4 C 37.9 40.4 38.3 40.7 39.5 40.2 C 42.0 37.9 39.8 36.7 40.4 37.0 L 40.4 37.0 L 39.4 35.6 C 38.8 34.7 38.1 33.8 37.5 32.9 C 35.3 29.6 32.0 24.6 30.0 21.0 C 29.9 20.9 29.8 20.7 29.7 20.4 L 29.5 20.0 L 29.3 19.8 C 29.4 19.9 29.2 19.6 28.8 19.3 C 28.5 19.0 27.5 19.0 27.1 19.4 C 26.4 20.0 26.8 19.8 26.7 19.8 L 26.7 19.8 L 26.7 19.9 L 26.7 19.9 L 26.7 19.9 L 26.6 20.0 C 26.2 20.7 25.9 21.4 25.5 22.0 C 24.7 23.4 24.0 24.7 23.9 24.7 C 23.8 25.0 20.8 30.4 20.6 30.6 C 20.5 30.7 20.5 30.2 20.5 30.2 L 20.0 30.9 C 20.0 30.8 20.1 30.7 20.1 30.5 C 19.2 31.7 18.0 34.7 17.4 35.6 C 17.6 35.5 17.5 35.8 17.5 35.8 C 17.5 35.8 17.2 36.3 16.8 37.0 L 16.6 37.2 L 16.5 37.4 L 16.5 37.4 C 16.4 37.7 16.6 37.0 16.3 38.0 C 16.0 39.0 17.9 39.6 17.8 39.2 C 17.7 39.3 17.7 39.3 17.7 39.3 L 17.7 39.3 L 17.7 39.3 L 17.8 39.2 L 18.5 39.1 C 19.0 39.0 19.6 38.9 20.1 38.7 C 22.4 38.3 24.7 37.7 25.2 37.6 C 26.0 37.4 27.9 36.4 27.0 36.4 " fill="#FEFB00"></path></g></svg>