<?xml version="1.0" encoding="UTF-8" standalone="no"?><svg xmlns="http://www.w3.org/2000/svg" xmlns:xlink="http://www.w3.org/1999/xlink" clip-rule="evenodd" stroke-miterlimit="4.00" viewBox="0 0 446 153"><desc>SVG generated by Keynote</desc><defs></defs><g transform="matrix(1.00, 0.00, -0.00, -1.00, 0.0, 153.0)"><g><clipPath id="clip-636"><path d="M 2.0 2.0 L 444.0 2.0 L 444.0 152.0 L 2.0 152.0 Z M 2.0 2.0 "></path></clipPath><g clip-path="url(#clip-636)"><image xlink:href="../../D51D7656-423F-4084-A5B7-0BE4A0E5ADDE/assets/A3D205114B302A36EE1BC375BCE3C73D.png" width="118.00" height="54.00" transform="matrix(1.53, 0.00, -0.00, -1.54, 34.9, 151.2)"></image><image xlink:href="../../D51D7656-423F-4084-A5B7-0BE4A0E5ADDE/assets/A3D205114B302A36EE1BC375BCE3C73D.png" width="118.00" height="54.00" transform="matrix(1.53, 0.00, -0.00, -1.54, 34.9, 84.3)"></image><image xlink:href="6159C5EA146F5EF61049266D09AE1E7A.png" width="82.00" height="54.00" transform="matrix(1.53, 0.00, -0.00, -1.54, 293.6, 115.3)"></image><image xlink:href="66093E241A30EA9EA32A459204343BF2.png" width="51.00" height="51.00" transform="matrix(1.53, 0.00, -0.00, -1.54, 224.2, 112.5)"></image><path d="M 51.7 91.2 L 198.7 91.2 L 198.7 140.5 L 51.7 140.5 Z M 51.7 91.2 " fill="#FEFFFF"></path><path d="M 165.0 391.5 L 261.0 391.5 L 261.0 423.5 L 165.0 423.5 Z M 165.0 391.5 " fill="none" stroke="#000000" stroke-width="1.00" stroke-miterlimit="0.00" stroke-linecap="round" stroke-linejoin="round" transform="matrix(1.53, 0.00, 0.00, -1.54, -200.8, 742.8)"></path><text xml:space="preserve" font-family="Helvetica" font-size="12.0" fill="#000000" transform="matrix(1.53, 0.00, -0.00, -1.54, 80.7, 110.5)">I</text><text xml:space="preserve" font-family="Helvetica" font-size="12.0" fill="#000000" transform="matrix(1.53, 0.00, -0.00, -1.54, 85.8, 110.5)">P</text><text xml:space="preserve" font-family="Helvetica" font-size="12.0" fill="#000000" transform="matrix(1.53, 0.00, -0.00, -1.54, 97.7, 110.5)"> </text><text xml:space="preserve" font-family="Helvetica" font-size="12.0" fill="#000000" transform="matrix(1.53, 0.00, -0.00, -1.54, 102.8, 110.5)">a</text><text xml:space="preserve" font-family="Helvetica" font-size="12.0" fill="#000000" transform="matrix(1.53, 0.00, -0.00, -1.54, 113.0, 110.5)">d</text><text xml:space="preserve" font-family="Helvetica" font-size="12.0" fill="#000000" transform="matrix(1.53, 0.00, -0.00, -1.54, 123.3, 110.5)">d</text><text xml:space="preserve" font-family="Helvetica" font-size="12.0" fill="#000000" transform="matrix(1.53, 0.00, -0.00, -1.54, 133.5, 110.5)">r</text><text xml:space="preserve" font-family="Helvetica" font-size="12.0" fill="#000000" transform="matrix(1.53, 0.00, -0.00, -1.54, 139.6, 110.5)">e</text><text xml:space="preserve" font-family="Helvetica" font-size="12.0" fill="#000000" transform="matrix(1.53, 0.00, -0.00, -1.54, 149.8, 110.5)">s</text><text xml:space="preserve" font-family="Helvetica" font-size="12.0" fill="#000000" transform="matrix(1.53, 0.00, -0.00, -1.54, 159.0, 110.5)">s</text><path d="M 51.7 24.3 L 198.7 24.3 L 198.7 73.5 L 51.7 73.5 Z M 51.7 24.3 " fill="#FEFFFF"></path><path d="M 165.0 435.0 L 261.0 435.0 L 261.0 467.0 L 165.0 467.0 Z M 165.0 435.0 " fill="none" stroke="#000000" stroke-width="1.00" stroke-miterlimit="0.00" stroke-linecap="round" stroke-linejoin="round" transform="matrix(1.53, 0.00, 0.00, -1.54, -200.8, 742.8)"></path><text xml:space="preserve" font-family="Helvetica" font-size="12.0" fill="#000000" transform="matrix(1.53, 0.00, -0.00, -1.54, 81.6, 43.5)">h</text><text xml:space="preserve" font-family="Helvetica" font-size="12.0" fill="#000000" transform="matrix(1.53, 0.00, -0.00, -1.54, 91.8, 43.5)">o</text><text xml:space="preserve" font-family="Helvetica" font-size="12.0" fill="#000000" transform="matrix(1.53, 0.00, -0.00, -1.54, 102.0, 43.5)">s</text><text xml:space="preserve" font-family="Helvetica" font-size="12.0" fill="#000000" transform="matrix(1.53, 0.00, -0.00, -1.54, 111.2, 43.5)">t</text><text xml:space="preserve" font-family="Helvetica" font-size="12.0" fill="#000000" transform="matrix(1.53, 0.00, -0.00, -1.54, 116.3, 43.5)"> </text><text xml:space="preserve" font-family="Helvetica" font-size="12.0" fill="#000000" transform="matrix(1.53, 0.00, -0.00, -1.54, 121.4, 43.5)">n</text><text xml:space="preserve" font-family="Helvetica" font-size="12.0" fill="#000000" transform="matrix(1.53, 0.00, -0.00, -1.54, 131.6, 43.5)">a</text><text xml:space="preserve" font-family="Helvetica" font-size="12.0" fill="#000000" transform="matrix(1.53, 0.00, -0.00, -1.54, 141.8, 43.5)">m</text><text xml:space="preserve" font-family="Helvetica" font-size="12.0" fill="#000000" transform="matrix(1.53, 0.00, -0.00, -1.54, 157.1, 43.5)">e</text><path d="M 310.4 55.3 L 402.2 55.3 L 402.2 104.6 L 310.4 104.6 Z M 310.4 55.3 " fill="#FEFFFF"></path><path d="M 334.0 414.8 L 394.0 414.8 L 394.0 446.8 L 334.0 446.8 Z M 334.0 414.8 " fill="none" stroke="#000000" stroke-width="1.00" stroke-miterlimit="0.00" stroke-linecap="round" stroke-linejoin="round" transform="matrix(1.53, 0.00, 0.00, -1.54, -200.8, 742.8)"></path><text xml:space="preserve" font-family="Helvetica" font-size="12.0" fill="#000000" transform="matrix(1.53, 0.00, -0.00, -1.54, 339.7, 74.6)">p</text><text xml:space="preserve" font-family="Helvetica" font-size="12.0" fill="#000000" transform="matrix(1.53, 0.00, -0.00, -1.54, 349.9, 74.6)">o</text><text xml:space="preserve" font-family="Helvetica" font-size="12.0" fill="#000000" transform="matrix(1.53, 0.00, -0.00, -1.54, 360.2, 74.6)">r</text><text xml:space="preserve" font-family="Helvetica" font-size="12.0" fill="#000000" transform="matrix(1.53, 0.00, -0.00, -1.54, 366.3, 74.6)">t</text><path d="M 278.1 95.4 C 286.6 86.9 286.6 73.1 278.1 64.5 C 269.6 56.0 255.9 56.0 247.4 64.5 C 239.0 73.1 239.0 86.9 247.4 95.4 C 255.9 103.9 269.6 103.9 278.1 95.4 " fill="#FEFFFF"></path><path d="M 312.9 420.8 C 318.4 426.3 318.4 435.3 312.9 440.8 C 307.4 446.4 298.4 446.4 292.9 440.8 C 287.3 435.3 287.3 426.3 292.9 420.8 C 298.4 415.3 307.4 415.3 312.9 420.8 " fill="none" stroke="#000000" stroke-width="1.00" stroke-miterlimit="0.00" stroke-linecap="round" stroke-linejoin="round" transform="matrix(1.53, 0.00, 0.00, -1.54, -200.8, 742.8)"></path><text xml:space="preserve" font-family="Helvetica-Bold" font-weight="bold" font-size="14.0" fill="#000000" transform="matrix(1.53, 0.00, -0.00, -1.54, 258.4, 72.3)">:</text><path d="M 135.0 425.5 C 137.0 423.8 138.8 423.2 141.0 420.5 C 143.2 417.8 144.0 411.7 148.0 409.5 C 152.0 407.3 159.3 408.2 165.0 407.5 " fill="none" stroke="#000000" stroke-width="1.00" stroke-miterlimit="0.00" stroke-linecap="round" stroke-linejoin="round" transform="matrix(1.53, 0.00, 0.00, -1.54, -200.8, 742.8)"></path><path d="M 135.0 425.5 C 137.0 427.3 139.0 427.7 141.0 431.0 C 143.0 434.3 143.0 442.2 147.0 445.5 C 151.0 448.8 159.0 449.2 165.0 451.0 " fill="none" stroke="#000000" stroke-width="1.00" stroke-miterlimit="0.00" stroke-linecap="round" stroke-linejoin="round" transform="matrix(1.53, 0.00, 0.00, -1.54, -200.8, 742.8)"></path><path d="M 261.0 451.0 C 265.7 449.3 272.0 448.7 275.2 446.0 C 278.4 443.3 277.8 437.5 280.0 435.0 C 282.2 432.5 285.8 432.2 288.7 430.8 " fill="none" stroke="#000000" stroke-width="1.00" stroke-miterlimit="0.00" stroke-linecap="round" stroke-linejoin="round" transform="matrix(1.53, 0.00, 0.00, -1.54, -200.8, 742.8)"></path><path d="M 261.0 407.5 C 264.7 408.2 269.0 406.8 272.2 409.5 C 275.4 412.2 277.3 419.9 280.0 423.5 C 282.7 427.1 285.8 428.4 288.7 430.8 " fill="none" stroke="#000000" stroke-width="1.00" stroke-miterlimit="0.00" stroke-linecap="round" stroke-linejoin="round" transform="matrix(1.53, 0.00, 0.00, -1.54, -200.8, 742.8)"></path><path d="M 317.1 430.8 L 324.1 430.8 L 327.0 430.8 L 334.0 430.8 " fill="none" stroke="#000000" stroke-width="1.00" stroke-miterlimit="0.00" transform="matrix(1.53, 0.00, 0.00, -1.54, -200.8, 742.8)"></path><path d="M 394.0 430.8 L 401.0 430.8 L 417.0 430.8 " fill="none" stroke="#000000" stroke-width="1.00" stroke-miterlimit="0.00" transform="matrix(1.53, 0.00, 0.00, -1.54, -200.8, 742.8)"></path></g></g></g></svg>