<?xml version="1.0" encoding="UTF-8" standalone="no"?><svg xmlns="http://www.w3.org/2000/svg" xmlns:xlink="http://www.w3.org/1999/xlink" clip-rule="evenodd" stroke-miterlimit="4.00" viewBox="0 0 408 193"><desc>SVG generated by Keynote</desc><defs></defs><g transform="matrix(1.00, 0.00, -0.00, -1.00, 0.0, 193.0)"><g><clipPath id="clip-637"><path d="M 0.8 0.9 L 407.8 0.9 L 407.8 98.9 L 0.8 98.9 Z M 0.8 0.9 "></path></clipPath><g clip-path="url(#clip-637)"><path d="M 1.8 97.9 L 406.8 97.9 L 406.8 1.9 L 1.8 1.9 Z M 1.8 97.9 " fill="#7995B9"></path></g></g><g><clipPath id="clip-638"><path d="M 242.8 192.9 L 242.8 105.9 L 166.8 105.9 L 166.8 192.9 Z M 242.8 192.9 "></path></clipPath><g clip-path="url(#clip-638)"><path d="M 193.0 150.9 L 167.8 150.9 L 204.8 106.9 L 241.8 150.9 L 216.7 150.9 L 216.7 191.9 L 193.0 191.9 Z M 193.0 150.9 " fill="#7995B9"></path></g></g><g><clipPath id="clip-639"><path d="M 6.0 2.0 L 402.0 2.0 L 402.0 87.9 L 6.0 87.9 Z M 6.0 2.0 "></path></clipPath><g clip-path="url(#clip-639)"><image xlink:href="../../D51D7656-423F-4084-A5B7-0BE4A0E5ADDE/assets/A3D205114B302A36EE1BC375BCE3C73D.png" width="118.00" height="54.00" transform="matrix(1.59, 0.00, -0.00, -1.59, 6.6, 87.3)"></image><image xlink:href="../../D51D7656-423F-4084-A5B7-0BE4A0E5ADDE/assets/A3D205114B302A36EE1BC375BCE3C73D.png" width="118.00" height="54.00" transform="matrix(1.59, 0.00, -0.00, -1.59, 215.0, 87.3)"></image><path d="M 24.1 25.2 L 176.7 25.2 L 176.7 76.2 L 24.1 76.2 Z M 24.1 25.2 " fill="#FEFFFF"></path><path d="M 254.9 284.9 L 350.9 284.9 L 350.9 316.9 L 254.9 316.9 Z M 254.9 284.9 " fill="none" stroke="#000000" stroke-width="1.00" stroke-miterlimit="0.00" stroke-linecap="round" stroke-linejoin="round" transform="matrix(1.59, 0.00, 0.00, -1.59, -381.1, 529.9)"></path><text xml:space="preserve" font-family="Helvetica" font-size="12.0" fill="#000000" transform="matrix(1.59, 0.00, -0.00, -1.59, 65.9, 45.0)">a</text><text xml:space="preserve" font-family="Helvetica" font-size="12.0" fill="#000000" transform="matrix(1.59, 0.00, -0.00, -1.59, 76.5, 45.0)">d</text><text xml:space="preserve" font-family="Helvetica" font-size="12.0" fill="#000000" transform="matrix(1.59, 0.00, -0.00, -1.59, 87.1, 45.0)">d</text><text xml:space="preserve" font-family="Helvetica" font-size="12.0" fill="#000000" transform="matrix(1.59, 0.00, -0.00, -1.59, 97.7, 45.0)">r</text><text xml:space="preserve" font-family="Helvetica" font-size="12.0" fill="#000000" transform="matrix(1.59, 0.00, -0.00, -1.59, 104.0, 45.0)">e</text><text xml:space="preserve" font-family="Helvetica" font-size="12.0" fill="#000000" transform="matrix(1.59, 0.00, -0.00, -1.59, 114.7, 45.0)">s</text><text xml:space="preserve" font-family="Helvetica" font-size="12.0" fill="#000000" transform="matrix(1.59, 0.00, -0.00, -1.59, 124.2, 45.0)">s</text><path d="M 232.5 25.2 L 385.1 25.2 L 385.1 76.2 L 232.5 76.2 Z M 232.5 25.2 " fill="#FEFFFF"></path><path d="M 386.0 284.9 L 482.0 284.9 L 482.0 316.9 L 386.0 316.9 Z M 386.0 284.9 " fill="none" stroke="#000000" stroke-width="1.00" stroke-miterlimit="0.00" stroke-linecap="round" stroke-linejoin="round" transform="matrix(1.59, 0.00, 0.00, -1.59, -381.1, 529.9)"></path><text xml:space="preserve" font-family="Helvetica" font-size="12.0" fill="#000000" transform="matrix(1.59, 0.00, -0.00, -1.59, 260.0, 45.0)">p</text><text xml:space="preserve" font-family="Helvetica" font-size="12.0" fill="#000000" transform="matrix(1.59, 0.00, -0.00, -1.59, 270.6, 45.0)">a</text><text xml:space="preserve" font-family="Helvetica" font-size="12.0" fill="#000000" transform="matrix(1.59, 0.00, -0.00, -1.59, 281.2, 45.0)">r</text><text xml:space="preserve" font-family="Helvetica" font-size="12.0" fill="#000000" transform="matrix(1.59, 0.00, -0.00, -1.59, 287.6, 45.0)">a</text><text xml:space="preserve" font-family="Helvetica" font-size="12.0" fill="#000000" transform="matrix(1.59, 0.00, -0.00, -1.59, 298.2, 45.0)">m</text><text xml:space="preserve" font-family="Helvetica" font-size="12.0" fill="#000000" transform="matrix(1.59, 0.00, -0.00, -1.59, 314.1, 45.0)">e</text><text xml:space="preserve" font-family="Helvetica" font-size="12.0" fill="#000000" transform="matrix(1.59, 0.00, -0.00, -1.59, 324.7, 45.0)">t</text><text xml:space="preserve" font-family="Helvetica" font-size="12.0" fill="#000000" transform="matrix(1.59, 0.00, -0.00, -1.59, 330.0, 45.0)">e</text><text xml:space="preserve" font-family="Helvetica" font-size="12.0" fill="#000000" transform="matrix(1.59, 0.00, -0.00, -1.59, 340.6, 45.0)">r</text><text xml:space="preserve" font-family="Helvetica" font-size="12.0" fill="#000000" transform="matrix(1.59, 0.00, -0.00, -1.59, 346.9, 45.0)">s</text><path d="M 350.9 300.9 L 357.9 300.9 L 379.0 300.9 L 386.0 300.9 " fill="none" stroke="#000000" stroke-width="1.00" stroke-miterlimit="0.00" transform="matrix(1.59, 0.00, 0.00, -1.59, -381.1, 529.9)"></path></g></g></g></svg>