<?xml version="1.0" encoding="UTF-8" standalone="no"?><svg xmlns="http://www.w3.org/2000/svg" xmlns:xlink="http://www.w3.org/1999/xlink" clip-rule="evenodd" stroke-miterlimit="4.00" viewBox="0 0 104 241"><desc>SVG generated by Keynote</desc><defs></defs><g transform="matrix(1.00, 0.00, -0.00, -1.00, 0.0, 241.0)"><image xlink:href="C2E7315DFEE32AEDA63CF10E8A5B1EE8.png" width="93.00" height="229.00" transform="matrix(1.00, 0.00, -0.00, -1.00, 9.9, 231.3)" opacity="0.71"></image><path d="M 79.6 206.5 C 79.7 206.9 80.2 208.6 80.3 208.6 C 80.1 208.0 79.7 206.6 79.6 206.5 C 79.6 206.5 79.6 206.5 79.6 206.5 Z M 78.5 203.0 C 78.6 203.7 79.1 205.0 79.3 205.5 C 79.0 204.7 78.6 203.3 78.5 203.0 C 78.5 203.0 78.5 203.0 78.5 203.0 Z M 80.4 208.3 C 80.7 209.2 81.2 210.9 81.3 211.3 C 81.0 210.4 80.5 208.7 80.4 208.3 C 80.4 208.3 80.4 208.3 80.4 208.3 Z M 63.9 160.2 C 63.9 160.6 64.5 162.3 64.5 162.3 C 64.3 161.7 63.9 160.3 63.9 160.2 C 63.9 160.2 63.9 160.2 63.9 160.2 Z M 67.1 169.7 C 67.2 170.4 67.7 171.7 67.8 172.1 C 67.6 171.4 67.2 169.9 67.1 169.7 C 67.1 169.7 67.1 169.7 67.1 169.7 Z M 68.8 175.3 C 69.2 176.6 69.7 178.0 69.6 177.7 C 69.4 177.3 68.9 175.4 68.8 175.3 C 68.8 175.3 68.8 175.3 68.8 175.3 Z M 82.6 206.3 C 82.1 205.0 81.8 203.9 81.5 203.0 C 80.0 198.3 82.2 205.5 82.6 206.3 C 82.6 206.3 82.6 206.3 82.6 206.3 Z M 72.1 185.0 C 71.8 184.1 71.6 183.3 71.4 182.9 C 71.7 183.8 72.0 185.0 72.1 185.0 C 72.1 185.0 72.1 185.0 72.1 185.0 Z M 74.7 193.0 C 74.8 193.3 76.3 198.0 77.2 200.7 C 76.5 198.4 74.7 192.8 74.7 193.0 C 74.7 193.0 74.7 193.0 74.7 193.0 Z M 79.0 195.1 C 78.0 192.1 76.4 187.1 75.7 184.9 C 74.9 182.6 76.9 188.9 78.7 194.6 C 80.6 200.3 79.2 195.5 79.9 197.9 C 80.7 200.2 79.3 195.6 78.5 193.3 C 77.8 191.0 79.0 194.8 79.0 195.1 C 79.0 195.1 79.0 195.1 79.0 195.1 Z M 79.3 195.2 C 79.7 196.3 80.0 197.3 80.2 197.9 C 79.9 196.8 79.5 195.6 79.3 195.2 C 79.3 195.2 79.3 195.2 79.3 195.2 Z M 24.8 29.9 C 24.3 30.5 24.7 33.3 25.2 36.4 C 25.4 37.2 25.5 37.9 25.7 38.7 C 27.1 44.2 28.7 49.7 30.4 55.2 C 30.7 56.3 31.0 57.3 31.4 58.5 C 32.4 61.8 33.5 65.2 34.5 68.5 C 34.9 69.7 35.2 70.8 35.6 71.9 C 36.8 76.0 38.1 79.9 39.4 83.8 C 40.0 85.8 40.6 87.9 41.2 90.0 C 41.5 91.0 42.9 95.5 43.5 97.0 C 42.9 95.5 45.2 102.8 45.1 102.5 C 45.4 103.3 45.7 104.1 46.0 105.0 C 46.3 105.8 46.0 104.7 45.7 103.6 C 46.0 104.6 46.3 105.5 46.6 106.5 C 46.9 107.5 47.3 108.5 47.6 109.6 C 48.6 113.0 49.8 116.7 50.9 119.8 C 53.6 128.5 61.3 152.2 59.9 147.9 C 58.4 143.0 59.3 145.5 59.7 146.8 C 59.9 147.5 60.3 148.6 60.6 149.7 C 60.6 149.7 60.5 149.6 60.5 149.4 C 61.2 151.6 62.0 154.7 63.1 157.6 C 62.9 157.1 62.7 156.3 62.6 156.1 C 63.1 157.6 62.8 156.4 63.1 157.3 C 64.0 160.1 64.5 161.4 63.4 158.2 C 64.4 161.2 65.1 163.0 66.2 165.9 C 66.5 167.0 66.3 166.4 66.2 166.1 C 66.8 168.0 68.2 172.5 68.3 172.9 C 68.4 173.3 64.4 160.9 65.1 163.1 C 65.4 164.0 66.0 165.9 66.2 166.6 C 65.7 165.0 65.1 163.1 64.7 162.1 C 65.0 163.2 65.5 164.7 65.8 165.6 C 65.4 164.5 65.2 163.8 65.1 163.5 C 65.6 165.0 65.9 166.2 66.5 168.0 C 66.8 168.8 66.3 167.3 66.9 169.0 C 67.0 169.3 66.5 167.9 66.6 168.0 C 67.1 169.4 68.0 172.2 68.2 172.9 C 68.4 173.5 67.7 171.2 67.7 171.1 C 69.4 176.5 71.4 182.7 72.0 184.6 C 72.6 186.5 72.1 184.7 71.8 183.9 C 72.6 186.1 73.1 187.8 73.9 190.4 C 74.5 192.1 74.3 191.4 74.1 190.8 C 74.2 191.2 74.4 191.6 74.5 191.9 C 74.5 192.1 74.7 192.5 74.8 192.9 C 74.5 191.8 73.9 189.9 73.6 189.0 C 74.2 190.6 75.3 194.3 75.8 195.6 C 75.1 193.5 74.4 191.2 73.6 188.8 C 75.2 193.4 76.6 198.3 77.9 202.0 C 77.7 201.3 77.6 201.0 77.5 200.5 C 77.9 201.9 78.5 204.1 79.0 205.3 C 79.2 206.0 79.7 207.4 80.2 208.8 C 79.4 206.4 78.9 204.7 78.3 203.0 C 78.3 203.0 78.4 203.2 78.5 203.5 C 77.4 199.6 76.5 197.5 75.6 194.7 C 75.5 194.5 75.5 194.3 75.4 194.1 C 75.2 193.2 76.2 196.3 76.3 196.6 C 75.0 192.6 73.6 188.2 73.0 186.2 C 74.6 191.0 75.9 195.2 77.1 198.8 C 76.9 197.8 75.7 194.2 75.2 192.5 C 77.7 200.3 78.0 201.1 78.2 201.8 C 78.0 201.2 77.8 200.6 77.6 199.9 C 77.7 200.1 77.8 200.2 77.8 200.4 C 78.9 203.8 80.2 207.9 80.2 207.7 C 80.1 207.5 79.2 204.4 78.1 201.0 C 78.2 201.4 78.4 201.7 78.5 202.0 C 79.8 206.0 81.3 210.3 82.5 214.3 C 82.4 213.6 82.4 213.9 82.7 214.7 C 82.4 213.5 81.8 211.8 81.4 210.4 C 81.6 210.9 81.9 211.7 82.0 211.9 C 81.8 211.3 81.4 210.2 81.4 209.9 C 82.0 211.7 82.6 213.7 83.3 215.7 C 83.5 216.1 83.0 214.8 83.1 214.9 C 83.7 216.8 84.5 219.4 85.0 220.7 C 84.5 219.1 83.5 216.1 83.3 215.1 C 83.5 215.7 83.7 216.4 83.9 217.0 C 84.3 218.2 84.5 218.8 84.1 217.4 C 83.9 216.7 83.9 216.7 83.9 216.9 C 84.3 217.7 85.2 220.7 85.3 220.6 C 85.0 219.8 84.1 216.8 83.9 216.1 C 84.1 216.6 84.6 218.2 84.7 218.3 C 83.6 215.0 83.7 215.1 83.4 214.3 C 83.5 214.6 83.8 215.6 83.7 215.6 C 83.1 213.5 82.4 211.4 81.8 209.3 C 81.8 209.3 81.8 209.3 81.8 209.3 C 81.8 209.3 81.8 209.3 81.8 209.3 C 81.8 209.3 81.8 209.3 81.8 209.3 C 81.9 209.5 81.9 209.4 81.9 209.2 C 82.2 210.1 82.5 211.0 83.0 212.7 C 82.9 212.2 82.4 210.7 82.0 209.3 C 82.0 209.3 82.0 209.3 82.0 209.3 C 82.7 211.6 83.9 215.1 84.7 217.5 C 84.4 216.4 83.1 212.4 82.2 209.7 C 82.3 209.8 82.3 209.9 82.3 210.0 C 81.2 206.6 80.1 202.6 78.8 198.8 C 79.5 200.6 80.1 202.8 80.9 205.1 C 81.2 206.2 81.6 207.2 82.0 208.2 C 82.9 211.3 85.7 220.2 86.1 221.2 C 86.5 222.3 83.6 213.3 83.6 213.2 C 83.6 213.1 85.0 217.4 84.4 215.4 C 84.0 214.3 83.3 212.1 82.8 210.4 C 82.8 210.4 82.8 210.3 82.9 210.2 C 83.3 211.6 83.9 213.3 83.8 213.4 C 84.0 214.1 84.5 215.6 84.6 215.8 C 84.5 215.6 84.4 215.2 84.4 215.2 C 84.5 215.6 84.7 216.1 84.7 216.1 C 84.2 214.4 83.5 212.0 82.9 210.1 C 82.8 209.9 82.8 209.8 82.8 209.6 C 82.8 209.6 83.3 211.1 83.7 212.4 C 84.1 213.7 83.3 210.9 82.6 208.7 C 82.5 208.4 82.4 208.0 82.3 207.6 C 82.6 208.4 82.8 209.3 83.2 210.3 C 83.6 211.5 83.6 211.5 84.1 212.7 C 83.4 210.4 82.5 207.7 81.8 205.6 C 81.6 204.8 81.4 204.0 81.2 203.1 C 81.8 204.9 82.3 206.6 82.7 207.6 C 82.9 208.4 83.2 209.2 83.3 209.5 C 83.1 208.7 83.7 210.7 83.7 210.3 C 83.3 209.3 82.7 207.2 82.3 206.5 C 81.8 204.8 81.2 203.0 80.7 201.4 C 80.7 201.2 80.6 200.9 80.5 200.7 C 81.0 202.1 81.4 203.4 81.9 204.8 C 81.8 204.2 80.5 200.1 79.5 197.2 C 77.7 191.3 75.5 185.4 73.6 179.5 C 73.5 179.3 73.4 178.9 73.3 178.6 C 73.2 178.1 73.0 177.7 72.9 177.2 C 73.4 178.7 73.8 179.9 74.1 180.9 C 72.9 176.7 76.1 186.9 76.4 187.5 C 74.3 180.7 70.2 168.1 67.8 160.2 C 68.4 162.1 68.6 162.7 68.0 160.7 C 67.8 160.1 67.6 159.6 67.4 159.0 C 70.0 167.0 72.6 175.3 74.7 181.6 C 73.5 177.8 71.6 172.1 71.2 170.5 C 71.6 171.6 72.1 173.2 72.2 173.4 C 71.6 171.5 69.5 165.0 68.9 163.1 C 71.9 172.4 75.9 185.0 78.2 191.8 C 74.9 181.5 70.5 167.5 67.6 158.7 C 68.0 160.2 68.0 160.2 67.7 159.4 C 66.8 156.7 66.0 153.9 65.0 151.1 C 64.9 150.5 64.9 150.7 65.4 152.1 C 65.8 153.2 66.0 153.8 66.1 154.2 C 65.9 153.4 63.1 144.7 65.3 151.6 C 67.6 158.6 71.5 170.6 69.2 163.6 C 67.0 156.5 66.2 153.7 67.4 157.5 C 68.7 161.4 72.6 173.5 71.3 169.5 C 70.1 165.4 67.4 156.8 65.8 152.0 C 64.2 147.1 66.6 155.3 64.4 148.2 C 62.1 141.0 64.0 147.0 63.6 145.6 C 62.9 143.4 61.7 139.5 60.5 135.7 C 59.6 133.0 58.5 129.6 58.0 127.9 C 58.1 128.0 60.6 136.1 59.7 132.9 C 57.2 125.1 54.4 116.3 55.5 119.9 C 53.9 115.1 52.8 111.5 51.8 108.5 C 50.4 103.8 48.6 98.3 48.5 97.7 C 48.3 97.0 44.0 84.2 42.7 79.3 C 42.6 78.9 39.8 70.3 39.5 69.6 C 36.9 61.3 37.3 62.5 34.7 54.4 C 32.5 47.6 31.8 45.5 31.5 44.4 C 29.1 37.3 29.2 37.3 27.8 33.9 C 27.4 32.9 26.9 31.2 26.5 30.7 C 25.8 29.7 25.3 29.4 24.8 29.9 C 24.8 29.9 24.8 29.9 24.8 29.9 Z M 81.3 208.4 C 81.7 209.7 82.5 212.0 82.9 213.3 C 82.3 211.8 81.7 209.9 81.1 208.0 C 81.2 208.1 81.3 208.3 81.3 208.4 C 81.3 208.4 81.3 208.4 81.3 208.4 Z M 79.2 198.4 C 79.5 199.2 79.8 200.2 80.1 201.2 C 80.4 202.1 80.7 203.0 81.1 204.4 C 81.1 204.2 80.5 202.0 79.9 200.2 C 79.9 200.2 79.9 200.2 79.9 200.2 C 80.2 201.1 80.6 202.1 81.0 203.3 C 81.1 203.7 81.2 204.1 81.3 204.5 C 81.3 204.5 81.1 203.9 81.0 203.7 C 81.1 204.0 81.4 205.0 81.8 206.4 C 81.8 206.6 81.9 206.8 81.9 206.9 C 81.9 207.1 81.6 206.1 82.0 207.3 C 81.6 206.5 81.0 204.3 80.6 203.0 C 81.2 204.5 79.3 198.9 78.9 197.6 C 79.0 197.8 79.1 198.1 79.2 198.4 Z M 73.6 188.5 C 73.3 187.7 73.1 187.0 72.8 186.2 C 73.2 187.3 73.5 188.1 73.7 188.9 C 73.7 188.8 73.6 188.6 73.6 188.5 Z M 53.2 126.4 C 54.8 130.9 57.7 140.4 58.0 141.0 C 58.3 142.0 58.6 143.0 58.9 144.0 C 56.9 137.7 54.7 130.9 53.2 126.4 C 53.2 126.4 53.2 126.4 53.2 126.4 Z M 61.9 141.2 C 62.1 141.6 62.0 141.5 61.7 140.6 C 60.1 135.7 59.1 132.8 60.1 135.9 C 61.0 138.5 62.8 144.3 62.2 142.6 C 61.5 140.4 60.8 138.1 60.0 135.8 C 59.5 134.1 59.0 132.3 58.5 130.6 C 59.7 134.3 60.9 137.9 61.9 141.2 C 61.9 141.2 61.9 141.2 61.9 141.2 Z M 57.9 128.4 C 58.4 129.8 58.9 131.4 59.4 133.0 C 58.9 131.6 58.5 130.2 58.0 128.7 C 58.0 128.6 58.0 128.5 57.9 128.4 Z M 57.5 126.7 C 58.3 129.4 59.2 132.2 58.3 129.4 C 58.1 128.8 57.9 128.2 57.7 127.5 C 57.6 127.2 57.5 127.0 57.5 126.7 Z M 57.0 125.0 C 56.9 125.0 57.1 125.5 57.4 126.4 C 56.8 124.5 55.6 120.8 55.7 121.0 C 56.1 122.2 56.5 123.6 57.0 125.0 C 57.0 125.0 57.0 125.0 57.0 125.0 Z M 52.2 123.4 C 52.5 124.6 52.9 125.7 52.2 123.8 C 52.0 123.1 51.8 122.3 51.5 121.6 C 51.7 122.2 51.9 122.8 52.2 123.4 Z M 76.1 185.7 C 75.9 185.1 75.3 183.2 74.9 182.0 C 74.7 182.0 76.2 186.4 76.1 185.7 C 76.1 185.7 76.1 185.7 76.1 185.7 Z M 78.5 193.0 C 78.3 192.5 77.7 190.5 77.3 189.4 C 77.1 189.3 78.7 193.8 78.5 193.0 C 78.5 193.0 78.5 193.0 78.5 193.0 Z M 42.7 79.3 C 42.7 79.3 42.7 79.3 42.7 79.3 C 42.7 79.3 42.7 79.3 42.7 79.3 C 42.7 79.3 42.7 79.3 42.7 79.3 Z M 42.7 79.3 " fill="#FEFB00"></path><path d="M 26.3 36.2 C 26.4 36.3 29.6 36.2 29.7 36.2 C 30.0 36.0 30.7 35.9 31.0 35.9 C 30.5 36.0 30.1 36.1 29.9 36.2 C 29.9 36.2 29.1 36.4 29.9 36.5 C 29.8 36.5 29.7 36.6 29.8 36.6 L 29.8 36.6 C 29.8 36.6 29.0 36.6 28.9 36.8 C 28.9 37.1 31.6 36.5 31.8 36.7 C 31.5 36.7 31.2 36.7 31.1 36.8 C 31.8 36.6 34.8 36.6 35.4 36.5 L 36.2 36.5 L 36.6 36.4 L 36.8 36.4 L 36.9 36.4 L 37.0 36.4 L 37.0 36.4 L 37.0 36.4 C 36.9 36.4 37.1 36.4 36.8 36.4 C 37.1 36.3 37.5 36.5 38.5 35.7 C 40.2 32.6 37.6 32.2 38.3 32.3 L 38.3 32.3 L 37.0 31.3 C 36.1 30.6 35.2 30.0 34.4 29.3 C 31.2 26.9 26.5 23.1 23.5 20.3 C 23.4 20.2 23.3 20.0 23.0 19.8 L 22.7 19.5 L 22.5 19.4 C 22.6 19.5 22.3 19.2 21.9 19.1 C 21.4 18.9 20.5 19.2 20.3 19.6 C 19.8 20.5 20.1 20.1 20.0 20.2 L 20.0 20.2 L 20.0 20.2 L 20.0 20.2 L 20.0 20.3 L 20.0 20.4 C 19.8 21.1 19.7 21.9 19.5 22.7 C 19.2 24.2 19.0 25.6 18.9 25.7 C 18.8 26.0 17.7 32.1 17.6 32.3 C 17.5 32.4 17.4 32.0 17.3 32.0 L 17.1 32.8 C 17.1 32.7 17.0 32.6 17.1 32.4 C 16.6 33.8 16.3 37.0 16.1 38.0 C 16.2 37.9 16.2 38.2 16.2 38.2 C 16.2 38.2 16.1 38.7 15.9 39.5 L 15.8 39.9 L 15.7 40.0 L 15.7 40.1 C 15.7 40.3 15.7 39.6 15.7 40.7 C 15.8 41.8 17.8 41.7 17.5 41.4 C 17.4 41.5 17.5 41.4 17.5 41.4 L 17.5 41.4 L 17.5 41.4 L 17.5 41.4 L 18.2 41.0 C 18.6 40.8 19.1 40.5 19.6 40.2 C 21.6 39.1 23.7 37.8 24.1 37.6 C 24.8 37.2 26.3 35.6 25.4 35.9 " fill="#FEFB00"></path></g></svg>