<?xml version="1.0" encoding="UTF-8" standalone="no"?><svg xmlns="http://www.w3.org/2000/svg" xmlns:xlink="http://www.w3.org/1999/xlink" clip-rule="evenodd" stroke-miterlimit="4.00" viewBox="0 0 317 34"><desc>SVG generated by Keynote</desc><defs></defs><g transform="matrix(1.00, 0.00, -0.00, -1.00, 0.0, 34.0)"><text xml:space="preserve" font-family="Helvetica-Bold" font-weight="bold" font-size="32.0" fill="#0264C0" transform="matrix(1.00, 0.00, -0.00, -1.00, 1.0, 9.0)">a</text><text xml:space="preserve" font-family="Helvetica-Bold" font-weight="bold" font-size="32.0" fill="#0264C0" transform="matrix(1.00, 0.00, -0.00, -1.00, 18.8, 9.0)">n</text><text xml:space="preserve" font-family="Helvetica-Bold" font-weight="bold" font-size="32.0" fill="#0264C0" transform="matrix(1.00, 0.00, -0.00, -1.00, 38.4, 9.0)">d</text><text xml:space="preserve" font-family="Helvetica-Bold" font-weight="bold" font-size="32.0" fill="#0264C0" transform="matrix(1.00, 0.00, -0.00, -1.00, 57.9, 9.0)"> </text><text xml:space="preserve" font-family="Helvetica-Bold" font-weight="bold" font-size="32.0" fill="#0264C0" transform="matrix(1.00, 0.00, -0.00, -1.00, 66.8, 9.0)">d</text><text xml:space="preserve" font-family="Helvetica-Bold" font-weight="bold" font-size="32.0" fill="#0264C0" transform="matrix(1.00, 0.00, -0.00, -1.00, 86.4, 9.0)">o</text><text xml:space="preserve" font-family="Helvetica-Bold" font-weight="bold" font-size="32.0" fill="#0264C0" transform="matrix(1.00, 0.00, -0.00, -1.00, 105.9, 9.0)"> </text><text xml:space="preserve" font-family="Helvetica-Bold" font-weight="bold" font-size="32.0" fill="#0264C0" transform="matrix(1.00, 0.00, -0.00, -1.00, 114.8, 9.0)">s</text><text xml:space="preserve" font-family="Helvetica-Bold" font-weight="bold" font-size="32.0" fill="#0264C0" transform="matrix(1.00, 0.00, -0.00, -1.00, 132.6, 9.0)">o</text><text xml:space="preserve" font-family="Helvetica-Bold" font-weight="bold" font-size="32.0" fill="#0264C0" transform="matrix(1.00, 0.00, -0.00, -1.00, 152.2, 9.0)">m</text><text xml:space="preserve" font-family="Helvetica-Bold" font-weight="bold" font-size="32.0" fill="#0264C0" transform="matrix(1.00, 0.00, -0.00, -1.00, 180.6, 9.0)">e</text><text xml:space="preserve" font-family="Helvetica-Bold" font-weight="bold" font-size="32.0" fill="#0264C0" transform="matrix(1.00, 0.00, -0.00, -1.00, 198.4, 9.0)"> </text><text xml:space="preserve" font-family="Helvetica-Bold" font-weight="bold" font-size="32.0" fill="#0264C0" transform="matrix(1.00, 0.00, -0.00, -1.00, 207.3, 9.0)">s</text><text xml:space="preserve" font-family="Helvetica-Bold" font-weight="bold" font-size="32.0" fill="#0264C0" transform="matrix(1.00, 0.00, -0.00, -1.00, 225.1, 9.0)">c</text><text xml:space="preserve" font-family="Helvetica-Bold" font-weight="bold" font-size="32.0" fill="#0264C0" transform="matrix(1.00, 0.00, -0.00, -1.00, 242.9, 9.0)">a</text><text xml:space="preserve" font-family="Helvetica-Bold" font-weight="bold" font-size="32.0" fill="#0264C0" transform="matrix(1.00, 0.00, -0.00, -1.00, 260.7, 9.0)">l</text><text xml:space="preserve" font-family="Helvetica-Bold" font-weight="bold" font-size="32.0" fill="#0264C0" transform="matrix(1.00, 0.00, -0.00, -1.00, 269.6, 9.0)">i</text><text xml:space="preserve" font-family="Helvetica-Bold" font-weight="bold" font-size="32.0" fill="#0264C0" transform="matrix(1.00, 0.00, -0.00, -1.00, 278.5, 9.0)">n</text><text xml:space="preserve" font-family="Helvetica-Bold" font-weight="bold" font-size="32.0" fill="#0264C0" transform="matrix(1.00, 0.00, -0.00, -1.00, 298.1, 9.0)">g</text></g></svg>