<?xml version="1.0" encoding="UTF-8" standalone="no"?><svg xmlns="http://www.w3.org/2000/svg" xmlns:xlink="http://www.w3.org/1999/xlink" clip-rule="evenodd" stroke-miterlimit="4.00" viewBox="0 0 228 24"><desc>SVG generated by Keynote</desc><defs></defs><g transform="matrix(1.00, 0.00, -0.00, -1.00, 0.0, 24.0)"><text xml:space="preserve" font-family="Courier" font-size="24.0" fill="#000000" transform="matrix(1.00, 0.00, -0.00, -1.00, 0.1, 7.0)">t</text><text xml:space="preserve" font-family="Courier" font-size="24.0" fill="#000000" transform="matrix(1.00, 0.00, -0.00, -1.00, 14.5, 7.0)">e</text><text xml:space="preserve" font-family="Courier" font-size="24.0" fill="#000000" transform="matrix(1.00, 0.00, -0.00, -1.00, 28.9, 7.0)">r</text><text xml:space="preserve" font-family="Courier" font-size="24.0" fill="#000000" transform="matrix(1.00, 0.00, -0.00, -1.00, 43.3, 7.0)"> </text><text xml:space="preserve" font-family="Courier" font-size="24.0" fill="#000000" transform="matrix(1.00, 0.00, -0.00, -1.00, 57.7, 7.0)">8</text><text xml:space="preserve" font-family="Courier" font-size="24.0" fill="#000000" transform="matrix(1.00, 0.00, -0.00, -1.00, 72.1, 7.0)"> </text><text xml:space="preserve" font-family="Courier" font-size="24.0" fill="#000000" transform="matrix(1.00, 0.00, -0.00, -1.00, 86.5, 7.0)">4</text><text xml:space="preserve" font-family="Courier" font-size="24.0" fill="#000000" transform="matrix(1.00, 0.00, -0.00, -1.00, 100.9, 7.0)"> </text><text xml:space="preserve" font-family="Courier" font-size="24.0" fill="#000000" transform="matrix(1.00, 0.00, -0.00, -1.00, 115.3, 7.0)">9</text><text xml:space="preserve" font-family="Courier" font-size="24.0" fill="#000000" transform="matrix(1.00, 0.00, -0.00, -1.00, 129.7, 7.0)">9</text><text xml:space="preserve" font-family="Courier" font-size="24.0" fill="#000000" transform="matrix(1.00, 0.00, -0.00, -1.00, 144.1, 7.0)">9</text><text xml:space="preserve" font-family="Courier" font-size="24.0" fill="#000000" transform="matrix(1.00, 0.00, -0.00, -1.00, 158.5, 7.0)">9</text><text xml:space="preserve" font-family="Courier" font-size="24.0" fill="#000000" transform="matrix(1.00, 0.00, -0.00, -1.00, 172.9, 7.0)"> </text><text xml:space="preserve" font-family="Courier" font-size="24.0" fill="#000000" transform="matrix(1.00, 0.00, -0.00, -1.00, 187.3, 7.0)">4</text><text xml:space="preserve" font-family="Courier" font-size="24.0" fill="#000000" transform="matrix(1.00, 0.00, -0.00, -1.00, 201.7, 7.0)"> </text><text xml:space="preserve" font-family="Courier" font-size="24.0" fill="#000000" transform="matrix(1.00, 0.00, -0.00, -1.00, 216.1, 7.0)">(</text></g></svg>