<?xml version="1.0" encoding="UTF-8" standalone="no"?><svg xmlns="http://www.w3.org/2000/svg" xmlns:xlink="http://www.w3.org/1999/xlink" clip-rule="evenodd" stroke-miterlimit="4.00" viewBox="0 0 101 16"><desc>SVG generated by Keynote</desc><defs></defs><g transform="matrix(1.00, 0.00, -0.00, -1.00, 0.0, 16.0)"><text xml:space="preserve" font-family="Monaco" font-size="15.0" fill="#F5D327" transform="matrix(1.00, 0.00, -0.00, -1.00, 1.0, 2.0)">c</text><text xml:space="preserve" font-family="Monaco" font-size="15.0" fill="#F5D327" transform="matrix(1.00, 0.00, -0.00, -1.00, 10.0, 2.0)">l</text><text xml:space="preserve" font-family="Monaco" font-size="15.0" fill="#F5D327" transform="matrix(1.00, 0.00, -0.00, -1.00, 19.0, 2.0)">o</text><text xml:space="preserve" font-family="Monaco" font-size="15.0" fill="#F5D327" transform="matrix(1.00, 0.00, -0.00, -1.00, 28.0, 2.0)">s</text><text xml:space="preserve" font-family="Monaco" font-size="15.0" fill="#F5D327" transform="matrix(1.00, 0.00, -0.00, -1.00, 37.0, 2.0)">e</text><text xml:space="preserve" font-family="Monaco" font-size="15.0" fill="#F5D327" transform="matrix(1.00, 0.00, -0.00, -1.00, 46.0, 2.0)">P</text><text xml:space="preserve" font-family="Monaco" font-size="15.0" fill="#F5D327" transform="matrix(1.00, 0.00, -0.00, -1.00, 55.0, 2.0)">a</text><text xml:space="preserve" font-family="Monaco" font-size="15.0" fill="#F5D327" transform="matrix(1.00, 0.00, -0.00, -1.00, 64.0, 2.0)">r</text><text xml:space="preserve" font-family="Monaco" font-size="15.0" fill="#F5D327" transform="matrix(1.00, 0.00, -0.00, -1.00, 73.0, 2.0)">s</text><text xml:space="preserve" font-family="Monaco" font-size="15.0" fill="#F5D327" transform="matrix(1.00, 0.00, -0.00, -1.00, 82.0, 2.0)">e</text><text xml:space="preserve" font-family="Monaco" font-size="15.0" fill="#F5D327" transform="matrix(1.00, 0.00, -0.00, -1.00, 91.0, 2.0)">r</text></g></svg>