<?xml version="1.0" encoding="UTF-8" standalone="no"?><svg xmlns="http://www.w3.org/2000/svg" xmlns:xlink="http://www.w3.org/1999/xlink" clip-rule="evenodd" stroke-miterlimit="4.00" viewBox="0 0 165 19"><desc>SVG generated by Keynote</desc><defs></defs><g transform="matrix(1.00, 0.00, -0.00, -1.00, 0.0, 19.0)"><text xml:space="preserve" font-family="Monaco" font-size="15.0" fill="#FEFFFE" transform="matrix(1.00, 0.00, -0.00, -1.00, 2.0, 5.0)">o</text><text xml:space="preserve" font-family="Monaco" font-size="15.0" fill="#FEFFFE" transform="matrix(1.00, 0.00, -0.00, -1.00, 11.0, 5.0)">n</text><text xml:space="preserve" font-family="Monaco" font-size="15.0" fill="#FEFFFE" transform="matrix(1.00, 0.00, -0.00, -1.00, 20.0, 5.0)">r</text><text xml:space="preserve" font-family="Monaco" font-size="15.0" fill="#FEFFFE" transform="matrix(1.00, 0.00, -0.00, -1.00, 29.0, 5.0)">e</text><text xml:space="preserve" font-family="Monaco" font-size="15.0" fill="#FEFFFE" transform="matrix(1.00, 0.00, -0.00, -1.00, 38.0, 5.0)">a</text><text xml:space="preserve" font-family="Monaco" font-size="15.0" fill="#FEFFFE" transform="matrix(1.00, 0.00, -0.00, -1.00, 47.0, 5.0)">d</text><text xml:space="preserve" font-family="Monaco" font-size="15.0" fill="#FEFFFE" transform="matrix(1.00, 0.00, -0.00, -1.00, 56.0, 5.0)">y</text><text xml:space="preserve" font-family="Monaco" font-size="15.0" fill="#FEFFFE" transform="matrix(1.00, 0.00, -0.00, -1.00, 65.0, 5.0)">s</text><text xml:space="preserve" font-family="Monaco" font-size="15.0" fill="#FEFFFE" transform="matrix(1.00, 0.00, -0.00, -1.00, 74.0, 5.0)">t</text><text xml:space="preserve" font-family="Monaco" font-size="15.0" fill="#FEFFFE" transform="matrix(1.00, 0.00, -0.00, -1.00, 83.0, 5.0)">a</text><text xml:space="preserve" font-family="Monaco" font-size="15.0" fill="#FEFFFE" transform="matrix(1.00, 0.00, -0.00, -1.00, 92.0, 5.0)">t</text><text xml:space="preserve" font-family="Monaco" font-size="15.0" fill="#FEFFFE" transform="matrix(1.00, 0.00, -0.00, -1.00, 101.0, 5.0)">e</text><text xml:space="preserve" font-family="Monaco" font-size="15.0" fill="#FEFFFE" transform="matrix(1.00, 0.00, -0.00, -1.00, 110.0, 5.0)">c</text><text xml:space="preserve" font-family="Monaco" font-size="15.0" fill="#FEFFFE" transform="matrix(1.00, 0.00, -0.00, -1.00, 119.1, 5.0)">h</text><text xml:space="preserve" font-family="Monaco" font-size="15.0" fill="#FEFFFE" transform="matrix(1.00, 0.00, -0.00, -1.00, 128.1, 5.0)">a</text><text xml:space="preserve" font-family="Monaco" font-size="15.0" fill="#FEFFFE" transform="matrix(1.00, 0.00, -0.00, -1.00, 137.1, 5.0)">n</text><text xml:space="preserve" font-family="Monaco" font-size="15.0" fill="#FEFFFE" transform="matrix(1.00, 0.00, -0.00, -1.00, 146.1, 5.0)">g</text><text xml:space="preserve" font-family="Monaco" font-size="15.0" fill="#FEFFFE" transform="matrix(1.00, 0.00, -0.00, -1.00, 155.1, 5.0)">e</text></g></svg>