<?xml version="1.0" encoding="UTF-8" standalone="no"?><svg xmlns="http://www.w3.org/2000/svg" xmlns:xlink="http://www.w3.org/1999/xlink" clip-rule="evenodd" stroke-miterlimit="4.00" viewBox="0 0 83 20"><desc>SVG generated by Keynote</desc><defs></defs><g transform="matrix(1.00, 0.00, -0.00, -1.00, 0.0, 20.0)"><text xml:space="preserve" font-family="Monaco" font-size="15.0" fill="#F5D327" transform="matrix(1.00, 0.00, -0.00, -1.00, 1.0, 5.0)">s</text><text xml:space="preserve" font-family="Monaco" font-size="15.0" fill="#F5D327" transform="matrix(1.00, 0.00, -0.00, -1.00, 10.0, 5.0)">t</text><text xml:space="preserve" font-family="Monaco" font-size="15.0" fill="#F5D327" transform="matrix(1.00, 0.00, -0.00, -1.00, 19.0, 5.0)">r</text><text xml:space="preserve" font-family="Monaco" font-size="15.0" fill="#F5D327" transform="matrix(1.00, 0.00, -0.00, -1.00, 28.0, 5.0)">i</text><text xml:space="preserve" font-family="Monaco" font-size="15.0" fill="#F5D327" transform="matrix(1.00, 0.00, -0.00, -1.00, 37.0, 5.0)">n</text><text xml:space="preserve" font-family="Monaco" font-size="15.0" fill="#F5D327" transform="matrix(1.00, 0.00, -0.00, -1.00, 46.0, 5.0)">g</text><text xml:space="preserve" font-family="Monaco" font-size="15.0" fill="#F5D327" transform="matrix(1.00, 0.00, -0.00, -1.00, 55.0, 5.0)">2</text><text xml:space="preserve" font-family="Monaco" font-size="15.0" fill="#F5D327" transform="matrix(1.00, 0.00, -0.00, -1.00, 64.1, 5.0)">A</text><text xml:space="preserve" font-family="Monaco" font-size="15.0" fill="#F5D327" transform="matrix(1.00, 0.00, -0.00, -1.00, 73.1, 5.0)">R</text></g></svg>