<?xml version="1.0" encoding="UTF-8" standalone="no"?><svg xmlns="http://www.w3.org/2000/svg" xmlns:xlink="http://www.w3.org/1999/xlink" clip-rule="evenodd" stroke-miterlimit="4.00" viewBox="0 0 368 269"><desc>SVG generated by Keynote</desc><defs><linearGradient id="gradSh1.27" x1="0.0" y1="0.0" x2="100.0" y2="0.0" gradientUnits="userSpaceOnUse" gradientTransform="matrix(0.00, -1.09, -1.20, 0.00, 184.0, 189.1)"><stop offset="0.00000" stop-color="#EF951A"></stop><stop offset="0.00293" stop-color="#EF941A"></stop><stop offset="1.00000" stop-color="#DE6A10"></stop></linearGradient></defs><g transform="matrix(1.00, 0.00, -0.00, -1.00, 0.0, 269.0)"><image xlink:href="../../4AAE6EA7-3F1F-4CAC-8E5B-8863539C57B9/assets/839057E8351A24D80F5D243E5F061EE0.png" width="366.00" height="150.00" transform="matrix(1.00, 0.00, -0.00, -1.00, 1.1, 151.7)" opacity="0.75"></image><g><clipPath id="clip-246"><path d="M 125.1 92.5 L 125.1 176.3 C 125.1 182.8 130.4 188.1 136.9 188.1 L 231.1 188.1 C 237.6 188.1 242.9 182.8 242.9 176.3 L 242.9 92.5 C 242.9 86.0 237.6 80.7 231.1 80.7 L 136.9 80.7 C 130.4 80.7 125.1 86.0 125.1 92.5 Z M 125.1 92.5 "></path></clipPath><g clip-path="url(#clip-246)"><path d="M 125.1 92.5 L 125.1 176.3 C 125.1 182.8 130.4 188.1 136.9 188.1 L 231.1 188.1 C 237.6 188.1 242.9 182.8 242.9 176.3 L 242.9 92.5 C 242.9 86.0 237.6 80.7 231.1 80.7 L 136.9 80.7 C 130.4 80.7 125.1 86.0 125.1 92.5 Z M 125.1 92.5 " fill="url(#gradSh1.27)"></path></g></g><path d="M 127.1 106.4 C 126.9 106.1 127.2 105.1 127.0 104.8 M 127.1 106.4 C 128.6 105.5 128.7 103.7 129.0 101.4 C 129.0 98.8 127.6 101.4 127.0 101.1 C 126.4 97.8 127.5 97.8 129.1 98.3 C 128.0 97.0 129.9 93.2 127.9 94.0 C 127.9 99.4 127.4 90.3 126.3 94.7 C 126.0 95.2 125.5 93.9 125.5 93.4 C 124.6 94.9 123.7 92.4 123.1 94.8 C 121.9 95.1 122.4 94.6 121.4 96.2 C 121.3 96.8 121.7 96.5 122.0 96.5 C 123.5 96.7 121.2 98.3 122.1 99.6 C 120.2 100.7 122.4 101.9 123.2 100.9 C 123.0 102.0 121.0 103.3 122.4 104.5 C 121.5 105.1 122.1 108.2 123.3 106.4 C 124.1 105.0 124.6 106.5 125.1 106.7 C 125.5 106.3 124.9 104.4 125.2 104.1 C 125.5 104.7 126.2 107.1 126.2 104.5 C 126.8 105.3 127.2 104.1 127.1 106.4 C 127.1 106.4 127.1 106.4 127.1 106.4 Z M 128.2 97.4 C 128.7 97.4 128.2 98.2 128.2 97.4 C 128.2 97.4 128.2 97.4 128.2 97.4 Z M 121.4 103.5 C 121.9 103.5 121.4 104.4 121.4 103.5 C 121.4 103.5 121.4 103.5 121.4 103.5 Z M 122.0 96.9 C 122.5 96.9 122.0 97.8 122.0 96.9 C 122.0 96.9 122.0 96.9 122.0 96.9 Z M 127.9 99.7 C 127.5 101.1 127.2 98.5 127.7 98.3 C 127.6 98.6 128.3 99.4 127.9 99.7 C 127.9 99.7 127.9 99.7 127.9 99.7 Z M 125.0 99.9 C 125.1 100.0 125.2 100.6 124.7 100.5 C 124.6 100.2 124.8 99.8 125.0 99.9 C 125.0 99.9 125.0 99.9 125.0 99.9 Z M 127.0 92.9 C 127.2 93.0 127.3 93.6 126.8 93.5 C 126.6 93.1 126.9 92.8 127.0 92.9 C 127.0 92.9 127.0 92.9 127.0 92.9 Z M 126.6 101.3 C 126.5 101.7 126.0 101.8 125.9 101.4 C 126.2 101.2 126.3 100.2 126.6 101.3 C 126.6 101.3 126.6 101.3 126.6 101.3 Z M 128.2 103.6 C 128.0 104.8 127.2 102.3 127.5 102.4 C 127.8 102.0 128.6 102.9 128.2 103.6 C 128.2 103.6 128.2 103.6 128.2 103.6 Z M 125.9 102.0 C 125.6 103.0 125.5 101.6 125.9 102.0 C 125.9 102.0 125.9 102.0 125.9 102.0 Z M 123.3 93.8 C 123.0 94.8 122.9 93.4 123.3 93.8 C 123.3 93.8 123.3 93.8 123.3 93.8 Z M 121.7 99.0 C 121.5 100.0 121.3 98.6 121.7 99.0 C 121.7 99.0 121.7 99.0 121.7 99.0 Z M 126.9 97.1 C 126.9 95.4 128.2 96.9 126.9 97.1 C 126.9 97.1 126.9 97.1 126.9 97.1 Z M 128.4 106.3 C 128.4 104.6 129.7 106.1 128.4 106.3 C 128.4 106.3 128.4 106.3 128.4 106.3 Z M 128.1 90.7 C 128.1 91.9 131.0 88.2 128.5 89.0 C 126.8 88.9 128.6 85.9 129.4 87.5 C 130.1 86.8 130.1 86.9 129.9 86.0 C 130.9 86.7 132.7 86.0 133.1 85.1 C 133.0 84.0 131.7 85.7 132.3 84.1 C 134.7 82.4 131.4 83.2 132.1 81.4 C 132.3 81.3 132.6 81.9 132.7 81.5 C 132.4 80.2 129.8 80.4 130.5 79.1 C 130.0 79.5 126.5 80.2 128.2 80.3 C 129.3 81.0 124.6 81.7 126.2 82.8 C 124.8 83.0 125.2 84.6 123.7 84.9 C 123.1 85.5 124.1 86.0 124.3 86.0 C 125.2 86.4 122.0 86.1 123.1 87.9 C 122.6 87.8 121.9 91.3 123.2 89.0 C 122.9 89.6 122.1 93.6 124.0 91.7 C 125.0 89.1 125.6 94.1 125.9 91.5 C 126.3 89.5 126.1 89.2 126.8 90.7 C 126.6 91.1 126.6 93.1 127.5 91.5 C 127.3 91.1 127.7 90.4 128.1 90.7 C 128.1 90.7 128.1 90.7 128.1 90.7 Z M 125.5 90.6 C 125.6 89.4 126.1 90.6 125.5 90.6 C 125.5 90.6 125.5 90.6 125.5 90.6 Z M 123.5 84.5 C 124.2 83.1 124.1 84.8 123.5 84.5 C 123.5 84.5 123.5 84.5 123.5 84.5 Z M 129.5 88.2 C 129.2 87.6 130.9 88.4 129.5 88.2 C 129.5 88.2 129.5 88.2 129.5 88.2 Z M 123.7 87.4 C 123.7 87.4 123.8 87.8 123.9 88.0 C 123.8 88.0 123.7 87.6 123.7 87.4 C 123.7 87.4 123.7 87.4 123.7 87.4 Z M 130.3 87.0 C 130.5 85.5 131.6 87.7 130.3 87.0 C 130.3 87.0 130.3 87.0 130.3 87.0 Z M 131.3 83.8 C 130.5 82.2 132.9 83.3 131.3 83.8 C 131.3 83.8 131.3 83.8 131.3 83.8 Z M 126.8 82.4 C 126.8 82.9 126.4 82.5 126.8 82.4 C 126.8 82.4 126.8 82.4 126.8 82.4 Z M 122.4 90.8 C 122.8 91.2 122.2 91.1 122.4 90.8 C 122.4 90.8 122.4 90.8 122.4 90.8 Z M 128.9 80.8 C 129.2 81.5 128.1 81.0 128.9 80.8 C 128.9 80.8 128.9 80.8 128.9 80.8 Z M 129.0 87.6 C 129.6 89.5 126.3 87.9 129.0 87.6 C 129.0 87.6 129.0 87.6 129.0 87.6 Z M 128.2 89.8 C 128.2 90.7 127.3 89.3 127.7 89.0 C 127.8 89.1 128.1 89.6 128.2 89.8 C 128.2 89.8 128.2 89.8 128.2 89.8 Z M 129.6 86.4 C 129.6 87.6 128.8 86.8 129.6 86.4 C 129.6 86.4 129.6 86.4 129.6 86.4 Z M 129.1 88.7 C 128.8 89.0 129.1 88.3 129.1 88.7 C 129.1 88.7 129.1 88.7 129.1 88.7 Z M 131.9 86.4 C 131.5 86.5 132.0 86.0 131.9 86.4 C 131.9 86.4 131.9 86.4 131.9 86.4 Z M 128.6 91.0 C 128.4 91.3 128.5 90.6 128.6 91.0 C 128.6 91.0 128.6 91.0 128.6 91.0 Z M 131.0 85.9 C 130.6 85.3 128.7 84.8 131.3 84.5 C 131.9 84.6 131.7 85.9 131.0 85.9 C 131.0 85.9 131.0 85.9 131.0 85.9 Z M 127.1 111.9 C 129.1 104.1 125.5 106.0 124.9 105.6 C 123.9 104.6 123.3 105.6 122.6 107.1 C 120.4 108.8 124.9 109.6 122.7 110.8 C 119.7 112.9 125.3 113.2 122.1 114.1 C 121.3 113.8 122.0 116.8 122.2 116.5 C 120.7 118.1 123.4 120.2 123.7 120.3 C 123.2 121.3 120.4 121.4 122.5 124.6 C 123.3 127.0 120.5 128.1 122.4 127.4 C 120.2 129.2 123.0 128.6 122.3 130.4 C 121.1 131.7 124.2 130.5 121.9 132.7 C 123.7 133.7 120.6 131.7 122.0 137.7 C 122.1 134.8 123.4 140.5 122.2 139.4 C 120.9 137.3 122.7 142.2 121.9 145.0 C 122.6 145.7 124.2 149.0 122.4 148.4 C 120.3 151.3 123.7 151.3 122.0 152.5 C 121.2 153.5 122.8 153.8 122.7 154.5 C 121.4 155.5 122.2 156.4 121.9 159.9 C 121.2 167.6 125.2 161.1 125.6 164.0 C 126.3 164.5 130.5 160.2 127.3 161.9 C 128.2 161.4 124.9 155.1 128.4 158.2 C 127.0 155.8 129.9 158.7 128.2 153.9 C 125.7 160.5 127.2 146.4 128.4 152.7 C 129.1 151.7 129.0 149.0 128.4 150.9 C 126.1 151.7 129.4 146.4 126.6 149.0 C 127.4 145.0 124.9 146.0 126.7 144.9 C 129.6 143.9 125.9 145.1 126.8 143.0 C 126.8 138.2 130.2 141.9 127.9 139.0 C 129.4 134.3 126.6 138.0 126.3 136.4 C 124.2 135.9 127.9 131.6 128.1 135.2 C 127.0 133.3 129.1 134.8 127.8 132.7 C 125.9 134.3 129.8 129.9 128.3 130.6 C 127.8 128.6 126.7 129.6 126.6 129.0 C 126.6 126.2 128.5 127.0 127.1 126.5 C 126.3 125.8 128.8 124.5 128.2 124.1 C 128.1 127.0 126.2 121.7 127.2 121.3 C 127.3 123.2 129.7 120.4 128.2 119.3 C 124.0 120.7 129.3 116.7 127.8 115.4 C 125.5 116.7 127.5 109.0 128.6 111.9 C 128.4 111.7 127.1 112.0 127.1 111.9 M 127.8 123.2 C 127.6 125.6 127.4 120.6 127.8 123.2 M 128.4 123.1 C 127.7 124.2 129.0 120.8 128.7 123.3 C 128.7 123.3 128.5 123.0 128.4 123.1 M 128.5 133.1 C 127.9 132.8 128.9 131.8 128.5 133.1 M 127.1 135.1 C 126.5 136.7 127.0 132.9 127.1 135.1 M 127.6 157.2 C 124.1 155.0 129.5 154.9 127.6 157.2 M 128.3 142.6 C 127.8 139.9 129.7 143.5 128.3 142.6 M 127.4 141.7 C 126.8 140.5 128.2 141.5 127.4 141.7 M 127.6 153.0 C 127.5 153.2 127.5 153.2 127.6 153.0 C 127.6 153.0 127.6 153.0 127.6 153.0 Z M 127.5 159.5 C 127.5 159.6 127.5 159.6 127.5 159.5 C 127.5 159.5 127.5 159.5 127.5 159.5 Z M 127.2 146.6 C 128.0 144.6 127.5 149.9 127.2 146.6 C 127.2 146.6 127.2 146.6 127.2 146.6 Z M 122.3 156.4 C 122.2 156.3 122.2 156.3 122.3 156.4 C 122.3 156.4 122.3 156.4 122.3 156.4 Z M 126.3 121.3 C 126.2 121.2 126.2 121.2 126.3 121.3 C 126.3 121.3 126.3 121.3 126.3 121.3 Z M 127.6 113.9 C 127.1 114.0 127.9 112.5 127.6 113.9 C 127.6 113.9 127.6 113.9 127.6 113.9 Z M 123.7 107.8 C 123.6 107.7 123.6 107.7 123.7 107.8 C 123.7 107.8 123.7 107.8 123.7 107.8 Z M 124.5 118.8 C 124.4 118.7 124.4 118.7 124.5 118.8 C 124.5 118.8 124.5 118.8 124.5 118.8 Z M 127.0 119.9 C 128.9 118.7 126.5 122.7 127.0 119.9 C 127.0 119.9 127.0 119.9 127.0 119.9 Z M 122.5 144.1 C 123.3 144.2 122.2 145.8 122.5 144.1 C 122.5 144.1 122.5 144.1 122.5 144.1 Z M 126.3 135.3 C 126.8 135.7 126.1 136.4 126.3 135.3 C 126.3 135.3 126.3 135.3 126.3 135.3 Z M 128.9 131.2 C 129.3 131.6 128.7 132.3 128.9 131.2 C 128.9 131.2 128.9 131.2 128.9 131.2 Z M 128.1 114.0 C 128.2 114.1 128.2 114.1 128.1 114.0 C 128.1 114.0 128.1 114.0 128.1 114.0 Z M 126.7 116.6 C 128.4 114.8 125.7 119.5 126.7 116.6 C 126.7 116.6 126.7 116.6 126.7 116.6 Z M 126.1 113.5 C 125.5 114.5 126.5 111.1 126.1 113.5 M 123.4 115.3 C 124.2 117.6 120.3 113.3 123.4 115.3 C 123.4 115.3 123.4 115.3 123.4 115.3 Z M 122.7 126.8 C 122.7 126.9 122.7 126.9 122.7 126.8 C 122.7 126.8 122.7 126.8 122.7 126.8 Z M 127.9 125.6 C 127.8 127.6 127.5 124.3 127.9 125.6 C 127.9 125.6 127.9 125.6 127.9 125.6 Z M 128.3 108.3 C 128.2 110.3 127.9 107.0 128.3 108.3 C 128.3 108.3 128.3 108.3 128.3 108.3 Z M 124.5 133.5 C 124.7 136.7 123.5 131.5 124.5 133.5 C 124.5 133.5 124.5 133.5 124.5 133.5 Z M 126.5 145.5 C 126.5 145.6 126.5 145.6 126.5 145.5 C 126.5 145.5 126.5 145.5 126.5 145.5 Z M 127.2 147.7 C 127.2 147.8 127.2 147.8 127.2 147.7 C 127.2 147.7 127.2 147.7 127.2 147.7 Z M 125.4 157.0 C 125.4 157.2 125.4 157.2 125.4 157.0 C 125.4 157.0 125.4 157.0 125.4 157.0 Z M 128.1 149.7 C 128.1 149.8 128.1 149.8 128.1 149.7 C 128.1 149.7 128.1 149.7 128.1 149.7 Z M 127.6 156.2 C 127.6 156.3 127.6 156.3 127.6 156.2 C 127.6 156.2 127.6 156.2 127.6 156.2 Z M 129.2 155.3 C 129.1 155.4 129.1 155.4 129.2 155.3 C 129.2 155.3 129.2 155.3 129.2 155.3 Z M 121.4 141.0 C 121.4 141.1 121.4 141.1 121.4 141.0 C 121.4 141.0 121.4 141.0 121.4 141.0 Z M 128.7 117.5 C 128.5 117.7 128.5 117.7 128.7 117.5 C 128.7 117.5 128.7 117.5 128.7 117.5 Z M 126.9 155.7 C 126.9 155.7 126.9 155.7 126.9 155.7 C 126.9 155.7 126.9 155.7 126.9 155.7 Z M 125.5 139.9 C 124.0 140.0 127.5 138.6 125.6 140.3 C 125.5 140.3 125.8 139.8 125.5 139.9 M 123.0 142.1 C 123.0 142.0 123.0 142.0 123.0 142.1 C 123.0 142.1 123.0 142.1 123.0 142.1 Z M 122.1 134.9 C 122.1 134.8 122.1 134.8 122.1 134.9 C 122.1 134.9 122.1 134.9 122.1 134.9 Z M 128.4 148.6 C 129.2 148.3 127.7 150.4 128.3 148.3 M 122.8 157.1 C 123.6 156.8 122.1 158.8 122.7 156.8 M 127.7 106.0 C 127.1 105.7 128.1 104.7 127.7 106.0 M 121.3 133.3 C 120.7 133.1 121.7 132.0 121.3 133.3 M 123.2 136.7 C 124.1 136.4 122.6 138.4 123.2 136.4 M 122.8 152.2 C 122.8 152.3 122.8 152.3 122.8 152.2 C 122.8 152.2 122.8 152.2 122.8 152.2 Z M 127.7 128.6 C 127.7 128.7 127.7 128.7 127.7 128.6 C 127.7 128.6 127.7 128.6 127.7 128.6 Z M 125.9 137.3 C 127.1 136.2 125.2 138.9 125.9 137.3 M 125.7 126.1 C 127.2 124.4 125.3 128.8 125.7 126.1 M 122.4 160.8 C 124.2 158.8 121.5 162.2 122.4 160.8 M 126.8 151.2 C 128.5 149.3 125.8 152.6 126.8 151.2 M 127.0 130.4 C 127.9 130.3 126.5 132.3 127.0 130.4 M 127.9 110.5 C 128.0 108.7 128.6 112.9 127.9 110.5 M 122.8 147.5 C 122.7 147.6 122.7 147.6 122.8 147.5 C 122.8 147.5 122.8 147.5 122.8 147.5 Z M 121.3 116.5 C 121.2 116.6 121.2 116.6 121.3 116.5 C 121.3 116.5 121.3 116.5 121.3 116.5 Z M 128.1 163.2 C 128.0 163.3 128.0 163.3 128.1 163.2 C 128.1 163.2 128.1 163.2 128.1 163.2 Z M 126.0 150.0 C 125.9 150.1 125.9 150.1 126.0 150.0 C 126.0 150.0 126.0 150.0 126.0 150.0 Z M 128.3 159.5 C 128.2 159.6 128.2 159.6 128.3 159.5 C 128.3 159.5 128.3 159.5 128.3 159.5 Z M 124.6 144.0 C 124.6 144.1 124.6 144.1 124.6 144.0 C 124.6 144.0 124.6 144.0 124.6 144.0 Z M 129.0 142.8 C 129.0 142.8 129.0 142.8 129.0 142.8 C 129.0 142.8 129.0 142.8 129.0 142.8 Z M 127.1 136.2 C 127.1 136.2 127.1 136.2 127.1 136.2 C 127.1 136.2 127.1 136.2 127.1 136.2 Z M 128.7 145.8 C 128.9 149.7 127.2 143.8 128.7 145.8 C 128.7 145.8 128.7 145.8 128.7 145.8 Z M 124.3 139.0 C 124.2 139.0 124.2 139.0 124.3 139.0 C 124.3 139.0 124.3 139.0 124.3 139.0 Z M 127.4 138.4 C 128.6 140.9 125.3 139.8 127.4 138.4 M 128.4 127.5 C 129.1 128.2 127.4 127.9 128.4 127.5 M 122.7 123.1 C 122.6 123.1 122.6 123.1 122.7 123.1 C 122.7 123.1 122.7 123.1 122.7 123.1 Z M 123.1 124.3 C 123.0 124.4 123.0 124.4 123.1 124.3 C 123.1 124.3 123.1 124.3 123.1 124.3 Z M 128.7 124.8 C 128.7 124.9 128.7 124.9 128.7 124.8 C 128.7 124.8 128.7 124.8 128.7 124.8 Z M 121.4 124.4 C 121.4 124.6 121.4 124.6 121.4 124.4 C 121.4 124.4 121.4 124.4 121.4 124.4 Z M 128.9 141.3 C 128.9 141.3 128.9 141.3 128.9 141.3 C 128.9 141.3 128.9 141.3 128.9 141.3 Z M 129.0 161.5 C 128.9 161.5 128.9 161.5 129.0 161.5 C 129.0 161.5 129.0 161.5 129.0 161.5 Z M 123.3 111.1 C 123.2 111.2 123.2 111.2 123.3 111.1 C 123.3 111.1 123.3 111.1 123.3 111.1 Z M 127.2 143.4 C 127.1 143.5 127.1 143.5 127.2 143.4 C 127.2 143.4 127.2 143.4 127.2 143.4 Z M 122.9 120.3 C 122.8 120.3 122.8 120.3 122.9 120.3 C 122.9 120.3 122.9 120.3 122.9 120.3 Z M 127.5 142.1 C 127.5 142.1 127.5 142.1 127.5 142.1 C 127.5 142.1 127.5 142.1 127.5 142.1 Z M 122.4 146.8 C 122.4 146.9 122.4 146.9 122.4 146.8 C 122.4 146.8 122.4 146.8 122.4 146.8 Z M 121.4 151.2 C 121.4 151.2 121.4 151.2 121.4 151.2 C 121.4 151.2 121.4 151.2 121.4 151.2 Z M 125.5 146.5 C 125.5 146.6 125.5 146.6 125.5 146.5 C 125.5 146.5 125.5 146.5 125.5 146.5 Z M 124.8 118.8 C 126.3 110.9 125.5 125.1 124.8 118.8 M 125.1 147.9 C 125.5 142.3 126.8 152.3 125.1 147.9 C 125.6 148.5 125.2 147.9 125.1 147.9 M 128.8 165.2 C 127.2 162.9 125.6 162.9 124.0 163.9 C 123.1 165.0 126.4 165.0 123.6 165.1 C 123.1 162.5 119.5 166.2 123.1 166.1 C 123.6 169.6 120.8 166.7 122.2 168.7 C 122.6 172.4 121.5 170.5 121.7 173.3 C 123.7 175.0 120.8 175.0 122.6 175.7 C 120.6 174.3 123.4 179.2 122.6 179.5 C 121.6 178.0 122.2 181.2 123.5 183.2 C 124.8 185.3 125.9 186.4 124.4 182.7 C 126.7 185.2 125.1 185.4 125.7 186.4 C 127.6 186.7 129.8 190.8 132.2 190.4 C 131.9 190.0 131.0 189.5 130.9 189.1 C 130.7 188.1 132.9 190.0 132.7 189.9 C 134.1 189.9 139.7 189.9 133.5 190.6 C 133.0 191.4 138.0 190.5 137.9 191.4 C 142.0 191.4 138.9 189.5 140.7 190.9 C 143.7 191.0 145.8 191.0 145.8 190.7 C 147.5 191.0 147.9 192.1 149.5 191.0 C 153.1 193.1 152.0 187.0 153.4 191.1 C 154.4 190.1 155.4 192.8 155.2 190.2 C 154.0 191.4 161.3 192.2 158.2 190.4 C 159.0 189.8 163.6 193.0 162.9 190.4 C 164.6 188.5 164.3 186.6 160.7 184.8 C 161.1 186.3 156.9 183.3 159.6 185.8 C 162.7 186.7 153.9 186.7 155.8 185.8 C 156.3 182.8 151.6 187.7 149.7 185.5 C 151.2 186.7 144.1 187.3 146.2 185.1 C 144.9 184.9 144.6 186.0 143.1 184.7 C 147.4 184.9 141.5 187.0 141.7 185.6 C 142.5 184.8 136.3 184.1 136.8 185.4 C 138.5 188.5 135.7 184.7 134.5 185.7 C 131.6 185.6 135.9 183.5 133.1 184.8 C 132.8 184.2 130.1 182.3 132.1 183.0 C 132.5 183.7 128.1 183.9 129.9 181.9 C 131.6 182.9 131.0 181.9 130.3 181.0 C 129.5 180.0 128.6 178.6 128.4 179.3 C 128.7 182.3 127.8 181.2 127.2 179.4 C 126.6 177.5 126.8 175.5 127.8 177.8 C 128.9 174.9 128.3 179.2 127.7 174.9 C 126.9 175.5 126.0 172.2 127.7 173.0 C 130.2 172.3 124.4 171.8 127.8 169.2 C 129.3 168.8 126.7 164.1 128.4 165.9 C 128.5 166.0 128.8 165.3 128.8 165.2 M 128.5 166.7 C 128.0 166.2 129.2 165.8 128.5 166.7 M 128.0 166.1 C 128.0 166.1 128.0 166.1 128.0 166.1 C 128.0 166.1 128.0 166.1 128.0 166.1 Z M 127.6 174.3 C 127.7 174.2 127.7 174.2 127.6 174.3 C 127.6 174.3 127.6 174.3 127.6 174.3 Z M 122.4 182.2 C 122.4 182.1 122.4 182.1 122.4 182.2 C 122.4 182.2 122.4 182.2 122.4 182.2 Z M 127.9 179.1 C 127.8 179.0 127.8 179.0 127.9 179.1 C 127.9 179.1 127.9 179.1 127.9 179.1 Z M 127.2 171.4 C 127.2 171.3 127.2 171.3 127.2 171.4 C 127.2 171.4 127.2 171.4 127.2 171.4 Z M 128.6 178.5 C 127.8 179.0 129.0 177.0 128.8 178.5 C 128.8 178.6 128.7 178.3 128.6 178.5 M 131.5 182.4 C 131.4 182.5 131.4 182.5 131.5 182.4 M 144.0 191.9 C 144.1 192.0 144.1 192.0 144.0 191.9 M 145.3 184.4 C 145.5 184.5 145.5 184.5 145.3 184.4 M 135.7 185.4 C 137.5 185.5 136.1 185.9 135.7 185.4 M 151.1 185.0 C 148.3 184.4 154.0 184.4 151.1 185.0 M 153.7 184.4 C 154.0 184.5 154.0 184.5 153.7 184.4 M 141.4 184.8 C 141.3 184.8 141.3 184.8 141.4 184.8 C 141.4 184.8 141.4 184.8 141.4 184.8 Z M 135.1 184.9 C 133.1 183.9 137.4 184.5 135.1 184.9 M 128.5 175.3 C 129.0 176.8 127.3 175.2 128.5 175.3 M 128.0 172.0 C 127.9 172.0 127.9 172.0 128.0 172.0 C 128.0 172.0 128.0 172.0 128.0 172.0 Z M 146.7 184.9 C 146.6 184.9 146.6 184.9 146.7 184.9 C 146.7 184.9 146.7 184.9 146.7 184.9 Z M 149.8 184.7 C 149.7 184.8 149.7 184.8 149.8 184.7 C 149.8 184.7 149.8 184.7 149.8 184.7 Z M 155.1 191.7 C 155.0 191.7 155.0 191.7 155.1 191.7 C 155.1 191.7 155.1 191.7 155.1 191.7 Z M 125.1 174.4 C 125.6 172.3 127.4 176.6 125.7 176.2 C 124.9 176.4 125.2 174.7 125.1 174.4 M 132.8 186.4 C 132.4 188.8 132.3 182.7 132.8 186.4 M 154.1 186.0 C 156.2 188.8 151.4 184.0 154.1 186.0 M 158.4 185.5 C 159.7 186.0 150.4 185.8 156.9 185.0 C 157.5 184.6 158.0 185.2 158.4 185.5 M 130.8 183.3 C 130.3 184.7 129.2 181.2 130.8 183.3 M 141.5 189.6 C 142.6 188.7 145.3 188.0 144.1 189.4 C 144.1 191.3 140.3 190.3 141.5 189.6 M 127.2 167.4 C 129.3 169.1 125.4 167.3 127.2 167.4 M 127.0 175.7 C 127.1 175.7 127.1 175.7 127.0 175.7 C 127.0 175.7 127.0 175.7 127.0 175.7 Z M 127.6 178.5 C 127.5 178.6 127.5 178.6 127.6 178.5 M 129.0 168.7 C 128.9 168.9 128.9 168.9 129.0 168.7 M 141.5 187.4 C 141.6 187.6 141.6 187.6 141.5 187.4 M 135.1 185.8 C 137.4 188.4 133.7 186.0 135.1 185.8 M 126.8 185.5 C 126.8 187.0 125.2 183.9 126.8 185.5 M 140.0 185.2 C 142.3 187.2 136.9 187.1 140.0 185.2 M 133.9 185.3 C 134.1 185.4 134.1 185.4 133.9 185.3 C 133.9 185.3 133.9 185.3 133.9 185.3 Z M 142.4 189.8 C 142.3 189.8 142.3 189.8 142.4 189.8 C 142.4 189.8 142.4 189.8 142.4 189.8 Z M 143.3 189.7 C 143.2 189.7 143.2 189.7 143.3 189.7 C 143.3 189.7 143.3 189.7 143.3 189.7 Z M 142.8 185.0 C 142.7 185.0 142.7 185.0 142.8 185.0 C 142.8 185.0 142.8 185.0 142.8 185.0 Z M 122.5 171.8 C 122.4 174.1 122.2 170.0 122.5 171.8 C 122.5 171.8 122.5 171.8 122.5 171.8 Z M 129.3 180.2 C 129.1 183.3 127.1 179.2 129.3 180.2 C 129.3 180.2 129.3 180.2 129.3 180.2 Z M 129.3 184.5 C 129.3 184.6 129.3 184.6 129.3 184.5 C 129.3 184.5 129.3 184.5 129.3 184.5 Z M 138.6 184.0 C 138.6 184.1 138.6 184.1 138.6 184.0 C 138.6 184.0 138.6 184.0 138.6 184.0 Z M 122.3 172.9 C 122.2 172.9 122.2 172.9 122.3 172.9 C 122.3 172.9 122.3 172.9 122.3 172.9 Z M 149.2 186.1 C 149.2 186.2 149.2 186.2 149.2 186.1 C 149.2 186.1 149.2 186.1 149.2 186.1 Z M 136.1 190.1 C 137.1 189.4 136.3 190.7 136.1 190.1 C 136.1 190.1 136.1 190.1 136.1 190.1 Z M 139.6 190.1 C 139.7 190.1 139.7 190.1 139.6 190.1 C 139.6 190.1 139.6 190.1 139.6 190.1 Z M 154.6 184.3 C 154.7 184.2 154.7 184.2 154.6 184.3 C 154.6 184.3 154.6 184.3 154.6 184.3 Z M 148.2 192.0 C 148.3 192.0 148.3 192.0 148.2 192.0 C 148.2 192.0 148.2 192.0 148.2 192.0 Z M 151.1 189.7 C 151.0 189.7 151.0 189.7 151.1 189.7 C 151.1 189.7 151.1 189.7 151.1 189.7 Z M 142.2 185.5 C 145.6 185.1 141.4 186.4 142.2 185.5 C 142.2 185.5 142.2 185.5 142.2 185.5 Z M 159.4 189.0 C 159.5 189.2 159.5 189.2 159.4 189.0 C 159.4 189.0 159.4 189.0 159.4 189.0 Z M 161.1 186.3 C 161.2 186.5 161.2 186.5 161.1 186.3 C 161.1 186.3 161.1 186.3 161.1 186.3 Z M 162.0 184.9 C 162.1 185.0 162.1 185.0 162.0 184.9 C 162.0 184.9 162.0 184.9 162.0 184.9 Z M 124.8 179.1 C 124.8 179.0 124.8 179.0 124.8 179.1 C 124.8 179.1 124.8 179.1 124.8 179.1 Z M 128.9 177.2 C 128.9 177.2 128.9 177.2 128.9 177.2 C 128.9 177.2 128.9 177.2 128.9 177.2 Z M 130.0 180.1 C 130.0 180.0 130.0 180.0 130.0 180.1 C 130.0 180.1 130.0 180.1 130.0 180.1 Z M 122.0 178.6 C 122.0 178.5 122.0 178.5 122.0 178.6 C 122.0 178.6 122.0 178.6 122.0 178.6 Z M 137.2 187.7 C 137.1 187.6 137.1 187.6 137.2 187.7 C 137.2 187.7 137.2 187.7 137.2 187.7 Z M 138.8 189.5 C 138.7 189.4 138.7 189.4 138.8 189.5 C 138.8 189.5 138.8 189.5 138.8 189.5 Z M 134.1 191.6 C 134.1 191.5 134.1 191.5 134.1 191.6 C 134.1 191.6 134.1 191.6 134.1 191.6 Z M 140.0 191.0 C 140.0 191.0 140.0 191.0 140.0 191.0 C 140.0 191.0 140.0 191.0 140.0 191.0 Z M 122.6 166.6 C 122.6 166.5 122.6 166.5 122.6 166.6 C 122.6 166.6 122.6 166.6 122.6 166.6 Z M 126.0 166.2 C 125.9 166.1 125.9 166.1 126.0 166.2 C 126.0 166.2 126.0 166.2 126.0 166.2 Z M 137.7 185.3 C 138.5 184.6 139.3 186.2 137.7 185.3 M 132.5 184.6 C 132.4 184.6 132.4 184.6 132.5 184.6 C 132.5 184.6 132.5 184.6 132.5 184.6 Z M 148.7 185.4 C 149.5 186.7 145.6 184.7 148.7 185.4 C 148.7 185.4 148.7 185.4 148.7 185.4 Z M 145.2 191.0 C 145.3 191.0 145.3 191.0 145.2 191.0 C 145.2 191.0 145.2 191.0 145.2 191.0 Z M 146.9 190.5 C 147.1 190.6 147.1 190.6 146.9 190.5 C 146.9 190.5 146.9 190.5 146.9 190.5 Z M 156.4 186.8 C 156.6 187.0 156.6 187.0 156.4 186.8 M 132.6 183.3 C 132.8 184.1 132.8 184.0 132.6 183.3 M 150.9 185.5 C 150.8 185.5 150.8 185.5 150.9 185.5 C 150.9 185.5 150.9 185.5 150.9 185.5 Z M 158.5 186.1 C 158.4 186.1 158.4 186.1 158.5 186.1 C 158.5 186.1 158.5 186.1 158.5 186.1 Z M 129.5 181.7 C 128.3 182.7 128.2 181.9 129.5 181.7 M 127.3 170.7 C 127.2 170.7 127.2 170.7 127.3 170.7 C 127.3 170.7 127.3 170.7 127.3 170.7 Z M 168.8 184.9 C 165.3 183.1 165.3 185.7 165.3 185.7 C 165.7 182.3 162.1 187.1 162.8 187.7 C 162.7 188.2 165.5 194.1 167.9 190.5 C 168.6 190.1 169.0 191.1 169.5 191.2 C 173.8 191.1 166.5 189.4 171.8 189.4 C 172.7 189.9 171.7 192.7 174.8 190.7 C 174.9 191.0 178.4 192.0 177.1 190.7 C 178.8 192.1 179.9 190.5 181.4 190.2 C 182.9 190.9 180.3 192.2 185.4 190.7 C 187.5 193.0 188.3 188.9 190.3 191.5 C 191.6 191.6 193.5 187.3 190.6 189.7 C 191.0 189.5 189.1 187.5 193.1 188.2 C 192.6 188.7 190.3 193.0 196.7 191.0 C 197.7 191.1 200.1 190.0 200.7 190.4 C 197.4 190.9 205.1 192.3 204.4 191.0 C 209.4 191.9 206.5 190.0 210.1 191.4 C 213.1 191.5 209.2 189.5 212.9 190.6 C 215.7 190.4 213.8 191.5 213.5 191.4 C 215.9 191.6 216.8 190.8 217.7 190.9 C 218.2 191.1 219.3 192.0 219.9 190.9 C 222.4 189.0 220.1 187.0 221.3 185.1 C 219.4 184.1 220.4 186.5 219.1 185.1 C 218.2 186.3 219.0 185.0 213.9 185.2 C 214.0 185.5 215.2 186.4 214.0 186.5 C 212.0 186.4 213.4 183.0 210.1 185.4 C 214.0 186.1 204.7 186.4 208.3 187.1 C 203.8 187.5 207.0 186.9 203.7 186.1 C 203.9 188.3 203.5 183.7 202.3 185.5 C 202.0 184.6 196.8 185.0 200.5 186.3 C 195.2 186.9 198.5 185.6 196.6 184.5 C 194.2 184.3 196.5 188.1 194.9 185.4 C 191.7 184.1 194.8 186.7 192.5 184.6 C 193.5 186.5 190.1 184.6 191.0 186.6 C 185.5 186.8 191.7 184.4 187.8 185.9 C 189.0 185.9 188.6 183.2 186.2 185.0 C 187.2 188.2 183.1 182.0 184.8 186.4 C 177.2 187.6 183.6 184.6 179.4 184.6 C 178.3 184.6 180.5 186.0 179.6 186.0 C 174.2 185.4 178.7 184.3 175.8 186.4 C 170.5 187.0 174.3 184.6 171.7 184.4 C 171.5 185.5 169.3 187.2 168.8 184.9 M 173.6 186.0 C 174.7 185.3 174.3 186.7 173.6 186.0 M 162.9 184.9 C 164.0 184.3 163.5 185.6 162.9 184.9 M 178.0 185.3 C 179.5 184.6 178.5 186.5 178.0 185.3 M 206.7 186.4 C 204.7 186.4 207.6 185.8 206.7 186.4 M 167.1 184.8 C 168.7 184.0 167.6 186.0 167.1 184.8 M 165.2 186.5 C 165.3 186.5 165.3 186.5 165.2 186.5 M 209.6 184.6 C 209.7 184.7 209.7 184.7 209.6 184.6 M 201.9 184.6 C 203.5 184.6 200.9 185.0 201.9 184.6 M 201.6 191.8 C 203.2 191.8 200.6 192.2 201.6 191.8 M 213.8 184.5 C 215.4 184.0 214.2 185.3 213.8 184.5 M 218.0 186.1 C 219.5 185.5 219.0 186.8 218.0 186.1 M 172.6 188.5 C 172.6 188.5 172.6 188.5 172.6 188.5 C 172.6 188.5 172.6 188.5 172.6 188.5 Z M 186.7 190.2 C 185.1 189.5 188.8 191.1 186.7 190.2 M 184.1 185.5 C 185.3 187.0 181.9 185.5 184.1 185.5 C 184.1 185.5 184.1 185.5 184.1 185.5 Z M 181.7 186.2 C 181.6 186.3 181.6 186.3 181.7 186.2 C 181.7 186.2 181.7 186.2 181.7 186.2 Z M 189.6 186.3 C 189.6 186.3 189.6 186.3 189.6 186.3 C 189.6 186.3 189.6 186.3 189.6 186.3 Z M 188.0 186.4 C 187.4 186.7 187.1 186.1 188.0 186.4 C 188.0 186.4 188.0 186.4 188.0 186.4 Z M 199.6 191.0 C 198.9 191.4 198.7 190.7 199.6 191.0 C 199.6 191.0 199.6 191.0 199.6 191.0 Z M 185.5 186.9 C 185.3 188.4 184.3 186.0 185.5 186.9 C 185.5 186.9 185.5 186.9 185.5 186.9 Z M 194.0 190.4 C 194.8 190.0 195.5 191.8 194.0 190.4 M 211.2 184.9 C 211.9 184.5 212.7 186.3 211.2 184.9 M 194.3 184.5 C 195.0 184.1 195.8 185.9 194.3 184.5 M 174.5 185.3 C 174.7 185.5 174.7 185.5 174.5 185.3 M 183.9 191.6 C 184.9 191.1 184.4 192.3 183.9 191.6 M 168.0 191.2 C 169.1 190.6 168.5 191.8 168.0 191.2 M 208.8 191.6 C 208.7 191.2 210.5 191.8 208.8 191.6 M 196.3 186.8 C 197.8 187.0 199.3 187.8 196.2 187.7 C 196.0 187.3 196.9 187.1 196.3 186.8 C 196.3 186.8 196.3 186.8 196.3 186.8 Z M 201.6 190.1 C 201.8 190.3 201.8 190.3 201.6 190.1 M 198.9 185.5 C 199.1 185.6 199.1 185.6 198.9 185.5 M 207.5 185.6 C 207.7 185.8 207.7 185.8 207.5 185.6 M 208.6 185.2 C 208.6 185.2 208.6 185.2 208.6 185.2 C 208.6 185.2 208.6 185.2 208.6 185.2 Z M 218.1 184.6 C 218.1 184.7 218.1 184.7 218.1 184.6 C 218.1 184.6 218.1 184.6 218.1 184.6 Z M 204.8 185.8 C 204.8 185.8 204.8 185.8 204.8 185.8 C 204.8 185.8 204.8 185.8 204.8 185.8 Z M 212.6 191.3 C 212.6 191.4 212.6 191.4 212.6 191.3 C 212.6 191.3 212.6 191.3 212.6 191.3 Z M 211.6 190.5 C 211.6 190.5 211.6 190.5 211.6 190.5 C 211.6 190.5 211.6 190.5 211.6 190.5 Z M 169.6 184.9 C 170.9 183.9 170.3 187.5 169.6 184.9 M 215.8 190.5 C 217.1 191.5 213.6 190.7 215.8 190.5 C 215.8 190.5 215.8 190.5 215.8 190.5 Z M 203.8 187.0 C 203.9 187.2 203.9 187.2 203.8 187.0 M 209.2 185.3 C 209.3 185.5 209.3 185.5 209.2 185.3 M 184.1 184.2 C 184.2 184.4 184.2 184.4 184.1 184.2 M 215.8 185.6 C 219.8 186.0 214.0 187.7 215.8 185.6 M 182.2 185.6 C 182.1 185.5 182.1 185.5 182.2 185.6 M 191.3 188.3 C 194.0 188.2 190.3 189.1 191.3 188.3 M 198.1 186.5 C 198.1 186.6 198.1 186.6 198.1 186.5 C 198.1 186.5 198.1 186.5 198.1 186.5 Z M 194.1 186.5 C 192.2 186.7 193.6 186.1 194.1 186.5 C 194.1 186.5 194.1 186.5 194.1 186.5 Z M 171.5 186.3 C 174.0 186.5 168.9 186.7 171.5 186.3 C 171.5 186.3 171.5 186.3 171.5 186.3 Z M 214.0 189.0 C 213.9 189.1 213.9 189.1 214.0 189.0 C 214.0 189.0 214.0 189.0 214.0 189.0 Z M 204.3 184.8 C 203.1 185.1 203.7 184.3 204.3 184.8 C 204.3 184.8 204.3 184.8 204.3 184.8 Z M 219.5 184.6 C 218.3 185.0 219.0 184.2 219.5 184.6 C 219.5 184.6 219.5 184.6 219.5 184.6 Z M 168.4 186.0 C 177.8 188.4 156.0 185.4 168.4 186.0 C 168.4 186.0 168.4 186.0 168.4 186.0 Z M 195.7 185.5 C 195.7 185.6 195.7 185.6 195.7 185.5 C 195.7 185.5 195.7 185.5 195.7 185.5 Z M 178.5 184.5 C 178.5 184.6 178.5 184.6 178.5 184.5 C 178.5 184.5 178.5 184.5 178.5 184.5 Z M 175.6 185.8 C 175.5 185.9 175.5 185.9 175.6 185.8 C 175.6 185.8 175.6 185.8 175.6 185.8 Z M 176.4 191.5 C 176.4 191.6 176.4 191.6 176.4 191.5 C 176.4 191.5 176.4 191.5 176.4 191.5 Z M 177.4 188.9 C 177.3 189.1 177.3 189.1 177.4 188.9 C 177.4 188.9 177.4 188.9 177.4 188.9 Z M 171.4 189.9 C 171.3 190.0 171.3 190.0 171.4 189.9 C 171.4 189.9 171.4 189.9 171.4 189.9 Z M 171.5 190.6 C 171.5 190.7 171.5 190.7 171.5 190.6 C 171.5 190.6 171.5 190.6 171.5 190.6 Z M 209.2 186.9 C 209.1 187.0 209.1 187.0 209.2 186.9 C 209.2 186.9 209.2 186.9 209.2 186.9 Z M 206.0 189.3 C 208.1 188.4 205.3 190.5 206.0 189.3 C 206.0 189.3 206.0 189.3 206.0 189.3 Z M 186.7 188.1 C 188.7 187.8 185.4 188.9 186.7 188.1 C 186.7 188.1 186.7 188.1 186.7 188.1 Z M 188.8 191.2 C 188.9 191.2 188.9 191.2 188.8 191.2 C 188.8 191.2 188.8 191.2 188.8 191.2 Z M 175.6 184.4 C 175.5 184.6 175.5 184.6 175.6 184.4 C 175.6 184.4 175.6 184.4 175.6 184.4 Z M 171.9 185.4 C 171.8 186.6 170.8 184.8 171.9 185.4 M 190.4 184.7 C 190.4 184.9 190.4 184.9 190.4 184.7 C 190.4 184.7 190.4 184.7 190.4 184.7 Z M 202.1 186.6 C 202.1 186.7 202.1 186.7 202.1 186.6 C 202.1 186.6 202.1 186.6 202.1 186.6 Z M 213.7 185.8 C 213.6 186.0 213.6 186.0 213.7 185.8 C 213.7 185.8 213.7 185.8 213.7 185.8 Z M 197.7 184.9 C 197.6 185.0 197.6 185.0 197.7 184.9 C 197.7 184.9 197.7 184.9 197.7 184.9 Z M 192.2 186.0 C 192.1 186.1 192.1 186.1 192.2 186.0 C 192.2 186.0 192.2 186.0 192.2 186.0 Z M 216.3 187.5 C 216.2 187.6 216.2 187.6 216.3 187.5 C 216.3 187.5 216.3 187.5 216.3 187.5 Z M 199.0 184.7 C 198.9 184.7 198.9 184.7 199.0 184.7 C 199.0 184.7 199.0 184.7 199.0 184.7 Z M 202.3 188.5 C 202.2 188.6 202.2 188.6 202.3 188.5 C 202.3 188.5 202.3 188.5 202.3 188.5 Z M 172.5 183.7 C 172.4 183.8 172.4 183.8 172.5 183.7 C 172.5 183.7 172.5 183.7 172.5 183.7 Z M 216.4 185.9 C 216.3 186.0 216.3 186.0 216.4 185.9 C 216.4 185.9 216.4 185.9 216.4 185.9 Z M 217.1 184.9 C 217.0 184.9 217.0 184.9 217.1 184.9 C 217.1 184.9 217.1 184.9 217.1 184.9 Z M 208.9 190.6 C 204.8 189.9 212.5 190.3 209.6 189.0 C 215.4 188.7 209.7 190.6 208.9 190.6 C 208.9 190.6 208.9 190.6 208.9 190.6 Z M 222.6 184.4 C 220.3 186.0 220.3 187.6 221.3 189.3 C 222.4 190.1 222.4 186.9 222.4 189.6 C 219.8 190.1 223.6 193.7 223.5 190.2 C 226.9 189.7 224.1 192.4 226.1 191.0 C 229.8 190.7 227.9 191.8 230.7 191.5 C 232.3 189.6 233.0 192.4 233.5 190.4 C 232.2 192.7 236.8 188.8 237.3 189.6 C 236.1 190.8 239.0 189.6 240.7 187.9 C 242.4 186.2 243.2 185.0 240.0 187.2 C 241.9 184.5 242.5 185.9 243.3 185.1 C 243.2 183.2 246.8 180.1 245.8 177.8 C 245.5 178.2 245.3 179.2 244.8 179.4 C 244.0 179.8 245.3 177.2 245.3 177.5 C 245.1 176.8 244.7 175.3 244.6 174.6 C 244.5 174.0 244.7 173.4 245.7 176.4 C 246.7 176.7 245.3 172.6 246.2 172.7 C 246.2 168.6 244.3 171.7 245.7 169.9 C 245.7 167.0 245.7 164.9 245.5 164.9 C 245.7 163.1 246.8 162.7 245.7 161.1 C 247.9 157.6 241.7 158.6 245.8 157.3 C 244.8 156.2 247.5 155.3 245.0 155.4 C 246.2 156.6 247.0 149.3 245.1 152.5 C 244.5 151.6 247.7 147.0 245.1 147.7 C 243.3 146.0 241.4 146.3 239.6 149.9 C 241.1 149.5 238.1 153.7 240.6 151.0 C 241.4 147.9 241.5 156.7 240.6 154.8 C 237.6 154.4 242.4 159.1 240.3 160.9 C 241.5 159.4 242.1 166.5 239.8 164.4 C 239.7 165.8 240.7 166.1 239.4 167.5 C 239.6 163.3 241.8 169.2 240.4 168.9 C 239.5 168.2 238.9 174.5 240.1 173.9 C 243.3 171.7 239.5 175.6 240.7 176.6 C 241.3 179.6 238.3 175.7 240.2 178.2 C 239.7 178.7 238.4 181.7 238.6 179.6 C 239.2 179.0 240.4 183.3 238.1 182.0 C 238.7 180.1 237.8 180.9 237.1 181.8 C 236.3 182.8 235.1 183.9 235.8 184.0 C 238.6 183.0 237.8 184.2 236.1 185.1 C 234.5 186.1 232.6 186.4 234.5 184.9 C 231.5 184.5 235.4 184.5 232.1 185.5 C 232.6 186.3 229.5 187.2 230.3 185.5 C 229.7 183.0 229.2 188.9 226.6 185.4 C 226.2 184.0 221.4 186.5 223.3 184.9 C 223.4 184.7 222.7 184.4 222.6 184.4 M 224.1 184.7 C 223.5 185.3 223.2 184.0 224.1 184.7 M 223.5 185.3 C 223.4 185.2 223.4 185.2 223.5 185.3 C 223.5 185.3 223.5 185.3 223.5 185.3 Z M 231.6 185.6 C 231.5 185.6 231.5 185.6 231.6 185.6 C 231.6 185.6 231.6 185.6 231.6 185.6 Z M 239.9 189.3 C 239.8 189.2 239.8 189.2 239.9 189.3 C 239.9 189.3 239.9 189.3 239.9 189.3 Z M 235.8 184.6 C 235.7 184.6 235.7 184.6 235.8 184.6 C 235.8 184.6 235.8 184.6 235.8 184.6 Z M 228.7 186.1 C 228.7 186.0 228.7 186.0 228.7 186.1 C 228.7 186.1 228.7 186.1 228.7 186.1 Z M 235.0 183.9 C 235.7 184.6 233.5 183.9 235.0 183.8 C 235.0 183.8 234.8 183.9 235.0 183.9 M 238.2 180.3 C 238.3 180.3 238.3 180.3 238.2 180.3 M 246.7 166.6 C 246.8 166.5 246.8 166.5 246.7 166.6 M 239.2 165.3 C 239.3 165.1 239.3 165.1 239.2 165.3 M 240.2 175.2 C 240.1 173.0 240.7 174.7 240.2 175.2 M 239.7 159.6 C 239.1 162.3 239.2 156.6 239.7 159.6 M 239.2 156.9 C 239.3 156.7 239.3 156.7 239.2 156.9 M 239.5 169.3 C 239.6 169.3 239.6 169.3 239.5 169.3 C 239.5 169.3 239.5 169.3 239.5 169.3 Z M 239.8 176.1 C 239.3 179.0 238.9 173.2 239.8 176.1 M 232.2 184.7 C 233.3 184.1 232.4 185.9 232.2 184.7 M 229.4 185.3 C 229.4 185.3 229.4 185.3 229.4 185.3 C 229.4 185.3 229.4 185.3 229.4 185.3 Z M 239.7 164.0 C 239.7 164.1 239.7 164.1 239.7 164.0 C 239.7 164.0 239.7 164.0 239.7 164.0 Z M 239.5 160.8 C 239.5 160.9 239.5 160.9 239.5 160.8 C 239.5 160.8 239.5 160.8 239.5 160.8 Z M 246.4 155.6 C 246.5 155.7 246.5 155.7 246.4 155.6 C 246.4 155.6 246.4 155.6 246.4 155.6 Z M 231.8 188.1 C 229.6 187.8 233.5 185.6 233.5 187.3 C 233.8 188.0 232.1 188.0 231.8 188.1 M 241.8 178.1 C 244.2 178.0 238.3 179.5 241.8 178.1 M 240.7 156.5 C 243.5 154.4 238.7 159.2 240.7 156.5 M 240.2 152.2 C 240.8 150.9 240.5 160.2 239.8 153.7 C 239.3 153.1 239.9 152.6 240.2 152.2 M 239.3 180.8 C 240.6 181.0 237.5 182.8 239.3 180.8 M 244.3 169.1 C 243.5 168.1 242.7 165.3 244.2 166.5 C 246.0 166.6 245.0 170.3 244.3 169.1 M 224.7 186.1 C 226.5 184.0 224.7 187.8 224.7 186.1 M 232.8 186.1 C 232.8 186.0 232.8 186.0 232.8 186.1 C 232.8 186.1 232.8 186.1 232.8 186.1 Z M 235.2 185.0 C 235.4 185.1 235.4 185.1 235.2 185.0 M 226.1 184.2 C 226.2 184.4 226.2 184.4 226.1 184.2 M 242.2 169.2 C 242.3 169.0 242.3 169.0 242.2 169.2 M 240.8 175.8 C 242.8 172.7 241.2 177.5 240.8 175.8 M 242.2 184.3 C 243.6 184.0 241.0 186.2 242.2 184.3 M 240.0 170.6 C 241.9 168.3 241.8 173.7 240.0 170.6 M 240.5 177.2 C 240.5 177.1 240.5 177.1 240.5 177.2 C 240.5 177.2 240.5 177.2 240.5 177.2 Z M 244.5 168.3 C 244.6 168.3 244.6 168.3 244.5 168.3 C 244.5 168.3 244.5 168.3 244.5 168.3 Z M 244.4 167.3 C 244.5 167.4 244.5 167.4 244.4 167.3 C 244.4 167.3 244.4 167.3 244.4 167.3 Z M 239.7 167.8 C 239.8 167.9 239.8 167.9 239.7 167.8 C 239.7 167.8 239.7 167.8 239.7 167.8 Z M 229.2 190.7 C 231.4 190.8 227.4 191.0 229.2 190.7 C 229.2 190.7 229.2 190.7 229.2 190.7 Z M 236.5 183.0 C 239.6 182.5 236.0 185.3 236.5 183.0 C 236.5 183.0 236.5 183.0 236.5 183.0 Z M 240.7 182.0 C 240.8 182.0 240.8 182.0 240.7 182.0 C 240.7 182.0 240.7 182.0 240.7 182.0 Z M 238.8 172.0 C 238.9 172.0 238.9 172.0 238.8 172.0 C 238.8 172.0 238.8 172.0 238.8 172.0 Z M 230.3 191.0 C 230.3 191.1 230.3 191.1 230.3 191.0 C 230.3 191.0 230.3 191.0 230.3 191.0 Z M 240.8 161.4 C 240.9 161.4 240.9 161.4 240.8 161.4 C 240.8 161.4 240.8 161.4 240.8 161.4 Z M 244.8 174.4 C 244.1 173.6 245.5 174.2 244.8 174.4 C 244.8 174.4 244.8 174.4 244.8 174.4 Z M 244.9 171.0 C 244.9 170.9 244.9 170.9 244.9 171.0 C 244.9 171.0 244.9 171.0 244.9 171.0 Z M 239.0 156.1 C 239.0 156.0 239.0 156.0 239.0 156.1 C 239.0 156.1 239.0 156.1 239.0 156.1 Z M 246.7 162.4 C 246.7 162.3 246.7 162.3 246.7 162.4 C 246.7 162.4 246.7 162.4 246.7 162.4 Z M 244.4 159.6 C 244.4 159.6 244.4 159.6 244.4 159.6 C 244.4 159.6 244.4 159.6 244.4 159.6 Z M 240.2 168.4 C 239.9 165.0 241.1 169.2 240.2 168.4 C 240.2 168.4 240.2 168.4 240.2 168.4 Z M 243.8 151.2 C 243.9 151.1 243.9 151.1 243.8 151.2 C 243.8 151.2 243.8 151.2 243.8 151.2 Z M 241.1 149.5 C 241.2 149.4 241.2 149.4 241.1 149.5 C 241.1 149.5 241.1 149.5 241.1 149.5 Z M 239.7 148.6 C 239.8 148.5 239.8 148.5 239.7 148.6 C 239.7 148.6 239.7 148.6 239.7 148.6 Z M 236.4 187.6 C 236.3 187.5 236.3 187.5 236.4 187.6 C 236.4 187.6 236.4 187.6 236.4 187.6 Z M 233.7 184.0 C 233.7 184.0 233.7 184.0 233.7 184.0 C 233.7 184.0 233.7 184.0 233.7 184.0 Z M 236.2 182.3 C 236.2 182.3 236.2 182.3 236.2 182.3 C 236.2 182.3 236.2 182.3 236.2 182.3 Z M 236.6 190.4 C 236.5 190.4 236.5 190.4 236.6 190.4 C 236.6 190.4 236.6 190.4 236.6 190.4 Z M 242.5 173.4 C 242.4 173.5 242.4 173.5 242.5 173.4 C 242.5 173.4 242.5 173.4 242.5 173.4 Z M 244.3 171.8 C 244.2 171.9 244.2 171.9 244.3 171.8 C 244.3 171.8 244.3 171.8 244.3 171.8 Z M 246.6 175.8 C 246.6 175.8 246.6 175.8 246.6 175.8 C 246.6 175.8 246.6 175.8 246.6 175.8 Z M 245.8 170.6 C 245.7 170.6 245.7 170.6 245.8 170.6 C 245.8 170.6 245.8 170.6 245.8 170.6 Z M 223.9 190.6 C 223.9 190.7 223.9 190.7 223.9 190.6 C 223.9 190.6 223.9 190.6 223.9 190.6 Z M 223.6 187.3 C 223.5 187.4 223.5 187.4 223.6 187.3 C 223.6 187.3 223.6 187.3 223.6 187.3 Z M 240.0 172.9 C 239.3 172.2 241.0 171.4 240.0 172.9 M 240.1 178.9 C 240.2 178.9 240.2 178.9 240.1 178.9 C 240.1 178.9 240.1 178.9 240.1 178.9 Z M 240.2 161.9 C 241.5 161.1 239.5 165.0 240.2 161.9 C 240.2 161.9 240.2 161.9 240.2 161.9 Z M 245.8 165.4 C 245.8 165.3 245.8 165.3 245.8 165.4 C 245.8 165.4 245.8 165.4 245.8 165.4 Z M 245.2 163.7 C 245.3 163.6 245.3 163.6 245.2 163.7 C 245.2 163.7 245.2 163.7 245.2 163.7 Z M 241.6 154.2 C 241.7 154.1 241.7 154.1 241.6 154.2 M 238.8 179.1 C 239.6 178.6 239.4 178.7 238.8 179.1 M 240.2 159.7 C 240.3 159.8 240.3 159.8 240.2 159.7 C 240.2 159.7 240.2 159.7 240.2 159.7 Z M 240.8 152.2 C 240.9 152.2 240.9 152.2 240.8 152.2 C 240.8 152.2 240.8 152.2 240.8 152.2 Z M 237.9 182.4 C 239.2 183.4 238.4 183.6 237.9 182.4 M 228.1 185.9 C 228.1 186.1 228.1 186.1 228.1 185.9 C 228.1 185.9 228.1 185.9 228.1 185.9 Z M 239.7 141.8 C 237.9 145.3 240.4 145.3 240.5 145.3 C 237.1 145.0 241.8 148.5 242.5 147.8 C 243.0 147.9 248.9 145.2 245.3 142.7 C 244.8 142.0 245.9 141.6 246.0 141.1 C 245.8 136.8 244.1 144.1 244.1 138.8 C 244.6 137.9 247.4 139.0 245.5 135.9 C 245.8 135.7 246.8 132.2 245.5 133.5 C 246.8 131.8 245.2 130.8 244.9 129.2 C 245.7 127.8 247.0 130.4 245.4 125.3 C 247.8 123.1 243.7 122.3 246.3 120.3 C 246.3 119.1 242.1 117.1 244.5 120.1 C 244.2 119.7 242.2 121.5 242.9 117.5 C 243.5 118.1 247.8 120.3 245.7 114.0 C 245.8 112.9 244.7 110.5 245.2 109.9 C 245.7 113.2 247.1 105.5 245.8 106.3 C 246.7 101.2 244.7 104.1 246.2 100.5 C 246.2 97.5 244.2 101.5 245.4 97.7 C 245.2 94.9 246.2 96.8 246.1 97.1 C 246.4 94.7 245.6 93.8 245.6 93.0 C 245.9 92.4 246.7 90.8 245.5 90.3 C 243.1 87.4 241.6 90.5 239.5 90.2 C 239.0 91.8 241.2 90.6 239.8 91.7 C 241.1 92.3 239.7 91.6 240.0 96.8 C 240.3 96.6 241.1 95.4 241.3 96.6 C 241.1 98.6 237.8 97.2 240.1 100.5 C 240.8 96.6 241.2 106.0 241.9 102.3 C 242.3 106.8 241.6 103.6 240.8 106.9 C 243.1 106.7 238.5 107.2 240.2 108.4 C 239.3 108.7 239.7 113.8 241.1 110.1 C 241.7 115.4 240.4 112.1 239.2 114.0 C 239.1 116.5 242.8 114.2 240.1 115.7 C 238.9 118.9 241.5 115.8 239.3 118.2 C 241.2 117.1 239.3 120.5 241.4 119.6 C 241.5 125.1 239.2 119.0 240.6 122.8 C 240.7 121.6 237.9 122.1 239.7 124.4 C 243.0 123.4 236.8 127.5 241.2 125.8 C 242.4 133.4 239.4 127.1 239.3 131.3 C 239.4 132.3 240.8 130.1 240.8 131.0 C 240.2 136.5 239.1 132.0 241.2 134.8 C 241.7 140.1 239.4 136.3 239.2 139.0 C 240.2 139.2 242.0 141.3 239.7 141.8 M 240.7 137.0 C 240.0 135.9 241.4 136.3 240.7 137.0 M 239.7 147.7 C 239.0 146.6 240.4 147.1 239.7 147.7 M 240.1 132.6 C 239.4 131.2 241.2 132.2 240.1 132.6 M 241.1 103.9 C 241.1 105.9 240.6 103.0 241.1 103.9 M 239.6 143.5 C 238.7 141.9 240.7 143.1 239.6 143.5 M 241.3 145.4 C 241.3 145.3 241.3 145.3 241.3 145.4 M 239.4 101.1 C 239.4 101.0 239.4 101.0 239.4 101.1 M 239.4 108.8 C 239.4 107.1 239.8 109.7 239.4 108.8 M 246.5 109.1 C 246.6 107.4 247.0 110.0 246.5 109.1 M 239.3 96.9 C 238.7 95.2 240.1 96.4 239.3 96.9 M 240.9 92.6 C 240.2 91.1 241.6 91.6 240.9 92.6 M 243.2 138.0 C 243.3 138.0 243.3 138.0 243.2 138.0 C 243.2 138.0 243.2 138.0 243.2 138.0 Z M 245.0 123.9 C 244.3 125.6 245.9 121.8 245.0 123.9 M 240.3 126.5 C 241.8 125.4 240.2 128.7 240.3 126.5 C 240.3 126.5 240.3 126.5 240.3 126.5 Z M 241.0 129.0 C 241.0 129.0 241.0 129.0 241.0 129.0 C 241.0 129.0 241.0 129.0 241.0 129.0 Z M 241.1 121.0 C 241.1 121.1 241.1 121.1 241.1 121.0 C 241.1 121.0 241.1 121.0 241.1 121.0 Z M 241.2 122.6 C 241.5 123.3 240.9 123.6 241.2 122.6 C 241.2 122.6 241.2 122.6 241.2 122.6 Z M 245.8 111.1 C 246.1 111.7 245.5 111.9 245.8 111.1 C 245.8 111.1 245.8 111.1 245.8 111.1 Z M 241.7 125.1 C 243.1 125.4 240.7 126.3 241.7 125.1 C 241.7 125.1 241.7 125.1 241.7 125.1 Z M 245.1 116.6 C 244.8 115.9 246.5 115.1 245.1 116.6 M 239.6 99.5 C 239.3 98.8 241.0 98.0 239.6 99.5 M 239.2 116.3 C 238.8 115.6 240.6 114.8 239.2 116.3 M 240.1 136.1 C 240.3 136.0 240.3 136.0 240.1 136.1 M 246.4 126.8 C 245.9 125.7 247.0 126.2 246.4 126.8 M 245.9 142.6 C 245.4 141.5 246.6 142.1 245.9 142.6 M 246.4 101.8 C 246.0 101.9 246.6 100.1 246.4 101.8 M 241.6 114.3 C 241.7 112.8 242.5 111.3 242.4 114.4 C 242.1 114.6 241.9 113.7 241.6 114.3 C 241.6 114.3 241.6 114.3 241.6 114.3 Z M 244.9 109.0 C 245.0 108.8 245.0 108.8 244.9 109.0 M 240.2 111.7 C 240.4 111.5 240.4 111.5 240.2 111.7 M 240.4 103.1 C 240.6 102.9 240.6 102.9 240.4 103.1 M 239.9 102.0 C 240.0 102.0 240.0 102.0 239.9 102.0 C 239.9 102.0 239.9 102.0 239.9 102.0 Z M 239.3 92.5 C 239.4 92.6 239.4 92.6 239.3 92.5 C 239.3 92.5 239.3 92.5 239.3 92.5 Z M 240.5 105.8 C 240.6 105.9 240.6 105.9 240.5 105.8 C 240.5 105.8 240.5 105.8 240.5 105.8 Z M 246.1 98.0 C 246.2 98.0 246.2 98.0 246.1 98.0 C 246.1 98.0 246.1 98.0 246.1 98.0 Z M 245.2 99.0 C 245.3 99.0 245.3 99.0 245.2 99.0 C 245.2 99.0 245.2 99.0 245.2 99.0 Z M 239.7 141.0 C 238.7 139.7 242.2 140.3 239.7 141.0 M 245.2 94.8 C 246.2 93.6 245.4 97.0 245.2 94.8 C 245.2 94.8 245.2 94.8 245.2 94.8 Z M 241.8 106.9 C 242.0 106.7 242.0 106.7 241.8 106.9 M 240.1 101.5 C 240.3 101.3 240.3 101.3 240.1 101.5 M 239.0 126.6 C 239.2 126.4 239.2 126.4 239.0 126.6 M 240.4 94.8 C 240.7 90.8 242.4 96.6 240.4 94.8 M 240.4 128.4 C 240.2 128.5 240.2 128.5 240.4 128.4 M 243.1 119.4 C 243.0 116.7 243.9 120.3 243.1 119.4 M 241.2 112.5 C 241.3 112.6 241.3 112.6 241.2 112.5 C 241.2 112.5 241.2 112.5 241.2 112.5 Z M 241.2 116.5 C 241.4 118.5 240.8 117.0 241.2 116.5 C 241.2 116.5 241.2 116.5 241.2 116.5 Z M 241.0 139.1 C 241.2 136.6 241.5 141.7 241.0 139.1 C 241.0 139.1 241.0 139.1 241.0 139.1 Z M 243.7 96.7 C 243.8 96.7 243.8 96.7 243.7 96.7 C 243.7 96.7 243.7 96.7 243.7 96.7 Z M 239.5 106.3 C 239.9 107.5 239.1 106.9 239.5 106.3 C 239.5 106.3 239.5 106.3 239.5 106.3 Z M 239.3 91.5 C 239.8 92.3 238.9 91.9 239.3 91.5 C 239.3 91.5 239.3 91.5 239.3 91.5 Z M 240.8 142.2 C 243.2 132.9 240.1 154.7 240.8 142.2 C 240.8 142.2 240.8 142.2 240.8 142.2 Z M 240.3 114.9 C 240.3 114.9 240.3 114.9 240.3 114.9 C 240.3 114.9 240.3 114.9 240.3 114.9 Z M 239.2 132.1 C 239.3 132.2 239.3 132.2 239.2 132.1 C 239.2 132.1 239.2 132.1 239.2 132.1 Z M 240.6 135.0 C 240.7 135.1 240.7 135.1 240.6 135.0 C 240.6 135.0 240.6 135.0 240.6 135.0 Z M 246.3 134.2 C 246.3 134.3 246.3 134.3 246.3 134.2 C 246.3 134.2 246.3 134.2 246.3 134.2 Z M 243.7 133.2 C 243.8 133.3 243.8 133.3 243.7 133.2 C 243.7 133.2 243.7 133.2 243.7 133.2 Z M 244.6 139.2 C 244.7 139.3 244.7 139.3 244.6 139.2 C 244.6 139.2 244.6 139.2 244.6 139.2 Z M 245.4 139.1 C 245.5 139.1 245.5 139.1 245.4 139.1 C 245.4 139.1 245.4 139.1 245.4 139.1 Z M 241.7 101.5 C 241.8 101.5 241.8 101.5 241.7 101.5 C 241.7 101.5 241.7 101.5 241.7 101.5 Z M 244.1 104.7 C 243.2 102.5 245.3 105.3 244.1 104.7 C 244.1 104.7 244.1 104.7 244.1 104.7 Z M 242.9 123.9 C 242.6 121.9 243.6 125.2 242.9 123.9 C 242.9 123.9 242.9 123.9 242.9 123.9 Z M 246.0 121.8 C 246.0 121.7 246.0 121.7 246.0 121.8 C 246.0 121.8 246.0 121.8 246.0 121.8 Z M 239.2 135.0 C 239.4 135.1 239.4 135.1 239.2 135.0 C 239.2 135.0 239.2 135.0 239.2 135.0 Z M 240.2 138.7 C 241.4 138.8 239.6 139.8 240.2 138.7 M 239.5 120.2 C 239.6 120.2 239.6 120.2 239.5 120.2 C 239.5 120.2 239.5 120.2 239.5 120.2 Z M 241.4 108.5 C 241.5 108.6 241.5 108.6 241.4 108.5 C 241.4 108.5 241.4 108.5 241.4 108.5 Z M 240.6 96.9 C 240.8 97.0 240.8 97.0 240.6 96.9 C 240.6 96.9 240.6 96.9 240.6 96.9 Z M 239.6 112.9 C 239.8 113.0 239.8 113.0 239.6 112.9 C 239.6 112.9 239.6 112.9 239.6 112.9 Z M 240.7 118.5 C 240.9 118.5 240.9 118.5 240.7 118.5 C 240.7 118.5 240.7 118.5 240.7 118.5 Z M 242.3 94.4 C 242.4 94.5 242.4 94.5 242.3 94.4 C 242.3 94.4 242.3 94.4 242.3 94.4 Z M 239.5 111.7 C 239.5 111.7 239.5 111.7 239.5 111.7 C 239.5 111.7 239.5 111.7 239.5 111.7 Z M 243.3 108.3 C 243.4 108.4 243.4 108.4 243.3 108.3 C 243.3 108.3 243.3 108.3 243.3 108.3 Z M 238.5 138.2 C 238.5 138.2 238.5 138.2 238.5 138.2 C 238.5 138.2 238.5 138.2 238.5 138.2 Z M 240.7 94.3 C 240.7 94.3 240.7 94.3 240.7 94.3 C 240.7 94.3 240.7 94.3 240.7 94.3 Z M 239.6 93.5 C 239.7 93.6 239.7 93.6 239.6 93.5 C 239.6 93.5 239.6 93.5 239.6 93.5 Z M 245.3 101.8 C 244.6 105.9 245.1 98.1 243.8 101.1 C 243.4 95.2 245.4 100.9 245.3 101.8 C 245.3 101.8 245.3 101.8 245.3 101.8 Z M 238.6 89.5 C 240.7 90.3 242.2 90.5 243.6 89.0 C 244.0 87.6 240.9 88.7 243.5 87.7 C 245.0 90.2 246.6 84.7 243.5 86.4 C 241.3 83.0 245.2 84.4 242.6 83.3 C 241.0 81.7 240.7 81.3 240.5 80.9 C 240.3 80.5 240.2 80.1 238.6 79.3 C 235.8 79.9 237.0 77.4 235.6 78.9 C 237.8 77.5 231.9 78.8 231.8 77.8 C 233.5 77.3 230.5 77.2 228.6 77.4 C 226.7 77.7 225.3 78.1 228.6 78.4 C 225.9 79.3 226.4 77.7 225.5 77.4 C 224.3 78.6 221.0 76.5 219.3 77.7 C 219.6 77.9 220.5 78.0 220.7 78.4 C 221.2 79.1 218.8 78.2 219.1 78.3 C 217.9 78.7 213.5 79.9 218.2 77.8 C 218.5 76.9 214.4 78.3 214.5 77.4 C 210.4 77.4 213.5 79.3 211.7 77.9 C 208.8 77.8 206.7 77.8 206.7 78.1 C 204.9 77.9 204.6 76.8 203.0 77.8 C 199.4 75.7 200.4 81.9 199.1 77.7 C 198.0 78.7 197.1 76.0 197.2 78.6 C 198.5 77.4 191.1 76.6 194.3 78.5 C 193.4 79.1 188.8 75.8 189.5 78.4 C 187.8 80.3 188.1 82.2 191.7 84.0 C 191.3 82.5 195.5 85.5 192.8 83.0 C 189.7 82.1 198.5 82.1 196.6 83.0 C 196.2 86.0 200.9 81.1 202.7 83.3 C 201.2 82.1 208.3 81.5 206.3 83.7 C 207.6 83.9 207.9 82.8 209.3 84.2 C 205.1 84.0 211.0 81.8 210.7 83.2 C 210.0 84.0 216.3 84.7 215.7 83.4 C 213.5 80.3 217.3 84.1 218.4 82.9 C 221.9 82.2 217.9 85.5 220.5 83.2 C 221.2 83.6 225.8 83.6 222.9 84.3 C 221.8 84.0 225.7 80.8 226.2 83.5 C 221.2 85.0 231.9 84.3 230.2 83.5 C 226.4 82.8 228.4 82.4 230.6 82.3 C 232.9 82.3 234.6 82.9 232.1 83.4 C 234.6 85.1 231.3 83.3 234.5 83.9 C 234.4 83.0 237.2 83.5 235.9 84.6 C 235.4 85.8 236.0 85.2 236.8 84.9 C 237.5 84.5 238.6 84.7 238.0 86.5 C 237.0 87.7 240.9 89.3 238.8 88.8 C 238.6 88.8 238.6 89.4 238.6 89.5 M 238.4 88.4 C 239.1 88.5 238.1 89.3 238.4 88.4 M 239.1 88.5 C 239.1 88.6 239.1 88.6 239.1 88.5 C 239.1 88.5 239.1 88.5 239.1 88.5 Z M 235.0 84.0 C 235.0 84.1 235.0 84.1 235.0 84.0 C 235.0 84.0 235.0 84.0 235.0 84.0 Z M 229.7 76.8 C 229.7 76.9 229.7 76.9 229.7 76.8 C 229.7 76.8 229.7 76.8 229.7 76.8 Z M 230.7 83.0 C 230.8 83.0 230.8 83.0 230.7 83.0 C 230.7 83.0 230.7 83.0 230.7 83.0 Z M 237.2 84.9 C 237.2 84.9 237.2 84.9 237.2 84.9 C 237.2 84.9 237.2 84.9 237.2 84.9 Z M 231.2 83.9 C 230.9 83.0 232.6 84.6 231.1 84.1 C 231.1 84.0 231.3 84.0 231.2 83.9 M 224.1 84.3 C 224.1 84.2 224.1 84.2 224.1 84.3 M 208.4 76.9 C 208.4 76.8 208.4 76.8 208.4 76.9 M 207.1 84.4 C 206.9 84.3 206.9 84.3 207.1 84.4 M 217.0 83.4 C 214.8 83.5 216.5 82.9 217.0 83.4 M 201.4 83.8 C 204.1 84.5 198.5 84.4 201.4 83.8 M 198.7 84.4 C 198.5 84.3 198.5 84.3 198.7 84.4 M 211.1 84.0 C 211.1 84.0 211.1 84.0 211.1 84.0 C 211.1 84.0 211.1 84.0 211.1 84.0 Z M 217.9 83.7 C 220.8 84.3 215.0 84.6 217.9 83.7 M 234.0 84.6 C 232.8 84.6 234.4 83.5 234.0 84.6 M 236.3 85.2 C 236.4 85.2 236.4 85.2 236.3 85.2 C 236.3 85.2 236.3 85.2 236.3 85.2 Z M 205.8 83.9 C 205.9 83.9 205.9 83.9 205.8 83.9 C 205.8 83.9 205.8 83.9 205.8 83.9 Z M 202.6 84.1 C 202.7 84.1 202.7 84.1 202.6 84.1 C 202.6 84.1 202.6 84.1 202.6 84.1 Z M 197.4 77.1 C 197.5 77.1 197.5 77.1 197.4 77.1 C 197.4 77.1 197.4 77.1 197.4 77.1 Z M 236.0 81.7 C 237.7 83.0 233.3 83.2 234.2 81.7 C 234.2 80.9 235.7 81.7 236.0 81.7 M 220.0 81.6 C 219.5 79.3 222.1 84.9 220.0 81.6 M 198.3 82.9 C 196.2 80.0 201.0 84.8 198.3 82.9 M 194.0 83.3 C 192.8 82.8 202.0 83.0 195.5 83.8 C 194.9 84.2 194.5 83.6 194.0 83.3 M 224.0 83.2 C 223.4 81.9 227.4 83.7 224.0 83.2 M 210.9 79.2 C 209.9 80.1 207.2 80.8 208.4 79.4 C 208.4 77.6 212.2 78.5 210.9 79.2 M 239.3 87.3 C 236.8 87.2 240.9 86.4 239.3 87.3 M 234.2 83.1 C 234.2 83.2 234.2 83.2 234.2 83.1 C 234.2 83.1 234.2 83.1 234.2 83.1 Z M 231.5 82.9 C 231.3 82.8 231.3 82.8 231.5 82.9 M 237.3 87.6 C 237.3 87.4 237.3 87.4 237.3 87.6 M 211.0 81.4 C 210.8 81.3 210.8 81.3 211.0 81.4 M 217.6 82.8 C 214.5 80.7 219.4 82.4 217.6 82.8 M 225.4 78.8 C 224.5 77.8 227.4 78.7 225.4 78.8 M 212.4 83.6 C 210.1 81.6 215.5 81.7 212.4 83.6 M 219.2 83.0 C 219.1 83.0 219.1 83.0 219.2 83.0 C 219.2 83.0 219.2 83.0 219.2 83.0 Z M 210.1 79.0 C 210.1 79.0 210.1 79.0 210.1 79.0 C 210.1 79.0 210.1 79.0 210.1 79.0 Z M 209.1 79.1 C 209.2 79.1 209.2 79.1 209.1 79.1 C 209.1 79.1 209.1 79.1 209.1 79.1 Z M 209.6 83.8 C 209.7 83.8 209.7 83.8 209.6 83.8 C 209.6 83.8 209.6 83.8 209.6 83.8 Z M 239.7 81.0 C 237.6 79.2 241.6 82.0 239.7 81.0 C 239.7 81.0 239.7 81.0 239.7 81.0 Z M 228.6 83.9 C 224.9 82.4 231.2 82.4 228.6 83.9 C 228.6 83.9 228.6 83.9 228.6 83.9 Z M 224.4 81.4 C 224.4 81.2 224.4 81.2 224.4 81.4 C 224.4 81.4 224.4 81.4 224.4 81.4 Z M 213.8 84.8 C 213.8 84.7 213.8 84.7 213.8 84.8 C 213.8 84.8 213.8 84.8 213.8 84.8 Z M 238.7 80.0 C 238.8 79.9 238.8 79.9 238.7 80.0 C 238.7 80.0 238.7 80.0 238.7 80.0 Z M 203.2 82.8 C 203.2 82.6 203.2 82.6 203.2 82.8 C 203.2 82.8 203.2 82.8 203.2 82.8 Z M 216.2 78.7 C 215.4 79.5 216.0 78.1 216.2 78.7 C 216.2 78.7 216.2 78.7 216.2 78.7 Z M 212.8 78.7 C 212.7 78.7 212.7 78.7 212.8 78.7 C 212.8 78.7 212.8 78.7 212.8 78.7 Z M 197.9 84.6 C 197.8 84.6 197.8 84.6 197.9 84.6 C 197.9 84.6 197.9 84.6 197.9 84.6 Z M 204.2 76.8 C 204.1 76.9 204.1 76.9 204.2 76.8 C 204.2 76.8 204.2 76.8 204.2 76.8 Z M 201.4 79.2 C 201.4 79.1 201.4 79.1 201.4 79.2 C 201.4 79.2 201.4 79.2 201.4 79.2 Z M 210.2 83.3 C 206.9 83.7 211.0 82.5 210.2 83.3 C 210.2 83.3 210.2 83.3 210.2 83.3 Z M 193.0 79.8 C 192.9 79.7 192.9 79.7 193.0 79.8 C 193.0 79.8 193.0 79.8 193.0 79.8 Z M 191.3 82.5 C 191.2 82.4 191.2 82.4 191.3 82.5 C 191.3 82.5 191.3 82.5 191.3 82.5 Z M 190.4 83.9 C 190.3 83.8 190.3 83.8 190.4 83.9 C 190.4 83.9 190.4 83.9 190.4 83.9 Z M 231.6 80.0 C 231.7 80.1 231.7 80.1 231.6 80.0 C 231.6 80.0 231.6 80.0 231.6 80.0 Z M 232.4 84.5 C 232.4 84.5 232.4 84.5 232.4 84.5 C 232.4 84.5 232.4 84.5 232.4 84.5 Z M 228.4 84.6 C 228.4 84.6 228.4 84.6 228.4 84.6 C 228.4 84.6 228.4 84.6 228.4 84.6 Z M 232.9 77.5 C 232.9 77.5 232.9 77.5 232.9 77.5 C 232.9 77.5 232.9 77.5 232.9 77.5 Z M 215.3 81.1 C 215.3 81.2 215.3 81.2 215.3 81.1 C 215.3 81.1 215.3 81.1 215.3 81.1 Z M 213.7 79.3 C 213.7 79.4 213.7 79.4 213.7 79.3 C 213.7 79.3 213.7 79.3 213.7 79.3 Z M 217.6 77.0 C 217.6 77.0 217.6 77.0 217.6 77.0 C 217.6 77.0 217.6 77.0 217.6 77.0 Z M 212.4 77.8 C 212.4 77.8 212.4 77.8 212.4 77.8 C 212.4 77.8 212.4 77.8 212.4 77.8 Z M 243.7 85.7 C 243.7 85.7 243.7 85.7 243.7 85.7 C 243.7 85.7 243.7 85.7 243.7 85.7 Z M 240.9 87.6 C 241.0 87.6 241.0 87.6 240.9 87.6 C 240.9 87.6 240.9 87.6 240.9 87.6 Z M 214.7 83.5 C 214.0 84.2 213.2 82.6 214.7 83.5 M 221.3 83.1 C 221.3 83.0 221.3 83.0 221.3 83.1 C 221.3 83.1 221.3 83.1 221.3 83.1 Z M 203.8 83.4 C 202.9 82.1 206.8 84.1 203.8 83.4 C 203.8 83.4 203.8 83.4 203.8 83.4 Z M 207.2 77.8 C 207.2 77.8 207.2 77.8 207.2 77.8 C 207.2 77.8 207.2 77.8 207.2 77.8 Z M 205.5 78.4 C 205.4 78.2 205.4 78.2 205.5 78.4 C 205.5 78.4 205.5 78.4 205.5 78.4 Z M 196.1 82.0 C 195.9 81.9 195.9 81.9 196.1 82.0 M 222.1 84.3 C 221.1 83.7 221.3 83.8 222.1 84.3 M 201.6 83.3 C 201.6 83.3 201.6 83.3 201.6 83.3 C 201.6 83.3 201.6 83.3 201.6 83.3 Z M 194.0 82.7 C 194.1 82.7 194.1 82.7 194.0 82.7 C 194.0 82.7 194.0 82.7 194.0 82.7 Z M 226.7 83.4 C 226.6 81.8 227.5 82.2 226.7 83.4 M 237.5 85.3 C 237.6 85.3 237.6 85.3 237.5 85.3 C 237.5 85.3 237.5 85.3 237.5 85.3 Z M 183.1 82.7 C 191.0 84.7 189.1 81.1 189.5 80.5 C 190.5 79.5 189.5 78.9 187.9 78.2 C 186.3 75.9 185.4 80.5 184.3 78.3 C 182.2 75.2 181.9 80.9 181.0 77.7 C 181.3 76.9 178.3 77.6 178.5 77.8 C 177.0 76.2 174.8 79.0 174.8 79.2 C 173.8 78.8 173.7 76.0 170.5 78.1 C 168.1 78.9 167.0 76.0 167.7 78.0 C 165.9 75.8 166.4 78.6 164.7 77.9 C 163.4 76.7 164.6 79.7 162.4 77.4 C 161.4 79.2 163.4 76.2 157.4 77.5 C 160.3 77.7 154.5 79.0 155.7 77.8 C 157.8 76.4 152.9 78.2 150.1 77.5 C 149.4 78.1 146.1 79.8 146.6 78.0 C 143.8 75.9 143.8 79.3 142.5 77.5 C 141.6 76.8 141.2 78.4 140.6 78.2 C 139.6 76.9 139.2 77.3 134.6 77.6 C 129.6 78.0 129.9 79.7 130.7 80.4 C 131.4 81.1 132.6 81.7 131.5 82.6 C 131.4 83.3 136.2 86.0 133.8 83.4 C 134.6 84.1 139.3 80.4 136.9 84.0 C 138.7 82.6 136.4 85.4 141.2 83.7 C 134.6 81.3 148.7 82.7 142.4 84.0 C 143.4 84.7 146.0 84.5 144.2 83.9 C 143.4 81.7 148.7 85.0 146.1 82.2 C 150.1 83.0 149.1 80.5 150.2 82.2 C 151.2 85.2 150.0 81.5 152.1 82.3 C 156.9 82.4 153.1 85.8 156.0 83.5 C 160.7 85.0 157.1 82.2 158.7 81.8 C 159.2 79.8 163.5 83.4 159.9 83.7 C 161.8 82.6 160.3 84.7 162.4 83.4 C 160.8 81.5 165.2 85.4 164.5 83.9 C 166.4 83.4 165.5 82.3 166.1 82.2 C 168.9 82.2 168.0 84.1 168.6 82.7 C 169.3 81.9 170.6 84.4 171.0 83.7 C 168.0 83.6 173.4 81.7 173.7 82.8 C 171.9 82.9 174.7 85.2 175.8 83.8 C 174.3 79.6 178.4 84.8 179.7 83.4 C 178.4 81.1 186.1 83.1 183.2 84.1 C 183.4 84.0 183.1 82.6 183.1 82.7 M 171.8 83.4 C 169.4 83.2 174.5 83.0 171.8 83.4 M 171.9 84.0 C 170.9 83.2 174.2 84.6 171.8 84.3 C 171.8 84.3 172.1 84.1 171.9 84.0 M 161.9 84.1 C 162.2 83.5 163.3 84.5 161.9 84.1 M 160.0 82.7 C 158.4 82.1 162.2 82.6 160.0 82.7 M 137.9 83.1 C 140.1 79.7 140.2 85.0 137.9 83.1 M 152.5 83.8 C 155.2 83.4 151.6 85.3 152.5 83.8 M 153.3 83.0 C 154.6 82.4 153.6 83.7 153.3 83.0 M 142.1 83.1 C 141.9 83.1 141.9 83.1 142.1 83.1 C 142.1 83.1 142.1 83.1 142.1 83.1 Z M 135.8 83.1 C 135.7 83.2 135.7 83.2 135.8 83.1 C 135.8 83.1 135.8 83.1 135.8 83.1 Z M 148.5 82.8 C 150.5 83.6 145.1 83.1 148.5 82.8 C 148.5 82.8 148.5 82.8 148.5 82.8 Z M 138.7 77.8 C 138.8 77.8 138.8 77.8 138.7 77.8 C 138.7 77.8 138.7 77.8 138.7 77.8 Z M 173.8 81.9 C 173.8 81.8 173.8 81.8 173.8 81.9 C 173.8 81.9 173.8 81.9 173.8 81.9 Z M 181.2 83.1 C 181.1 82.7 182.6 83.5 181.2 83.1 C 181.2 83.1 181.2 83.1 181.2 83.1 Z M 187.3 79.2 C 187.3 79.2 187.3 79.2 187.3 79.2 C 187.3 79.2 187.3 79.2 187.3 79.2 Z M 176.3 80.0 C 176.3 80.0 176.3 80.0 176.3 80.0 C 176.3 80.0 176.3 80.0 176.3 80.0 Z M 175.2 82.6 C 176.4 84.5 172.4 82.1 175.2 82.6 C 175.2 82.6 175.2 82.6 175.2 82.6 Z M 151.0 78.0 C 150.9 78.9 149.2 77.7 151.0 78.0 C 151.0 78.0 151.0 78.0 151.0 78.0 Z M 159.7 81.9 C 159.4 82.3 158.6 81.7 159.7 81.9 C 159.7 81.9 159.7 81.9 159.7 81.9 Z M 163.8 84.5 C 163.5 84.9 162.7 84.3 163.8 84.5 C 163.8 84.5 163.8 84.5 163.8 84.5 Z M 181.1 83.7 C 180.9 83.8 180.9 83.8 181.1 83.7 C 181.1 83.7 181.1 83.7 181.1 83.7 Z M 178.4 82.2 C 180.3 84.0 175.6 81.3 178.4 82.2 C 178.4 82.2 178.4 82.2 178.4 82.2 Z M 181.6 81.7 C 180.6 81.0 184.0 82.0 181.6 81.7 M 179.8 79.0 C 177.5 79.8 181.8 75.8 179.8 79.0 C 179.8 79.0 179.8 79.0 179.8 79.0 Z M 168.3 78.3 C 168.1 78.2 168.1 78.2 168.3 78.3 C 168.3 78.3 168.3 78.3 168.3 78.3 Z M 169.5 83.5 C 167.5 83.4 170.8 83.1 169.5 83.5 C 169.5 83.5 169.5 83.5 169.5 83.5 Z M 186.8 83.9 C 184.8 83.8 188.1 83.4 186.8 83.9 C 186.8 83.9 186.8 83.9 186.8 83.9 Z M 161.6 80.0 C 158.3 80.3 163.6 79.1 161.6 80.0 C 161.6 80.0 161.6 80.0 161.6 80.0 Z M 149.6 82.1 C 149.5 82.0 149.5 82.0 149.6 82.1 C 149.6 82.1 149.6 82.1 149.6 82.1 Z M 147.4 82.8 C 147.3 82.8 147.3 82.8 147.4 82.8 C 147.4 82.8 147.4 82.8 147.4 82.8 Z M 138.1 81.0 C 137.9 80.9 137.9 80.9 138.1 81.0 C 138.1 81.0 138.1 81.0 138.1 81.0 Z M 145.3 83.7 C 145.3 83.6 145.3 83.6 145.3 83.7 C 145.3 83.7 145.3 83.7 145.3 83.7 Z M 138.9 83.2 C 138.8 83.1 138.8 83.1 138.9 83.2 C 138.9 83.2 138.9 83.2 138.9 83.2 Z M 139.8 84.7 C 139.7 84.7 139.7 84.7 139.8 84.7 C 139.8 84.7 139.8 84.7 139.8 84.7 Z M 154.1 77.0 C 154.0 76.9 154.0 76.9 154.1 77.0 C 154.1 77.0 154.1 77.0 154.1 77.0 Z M 177.6 84.2 C 177.4 84.1 177.4 84.1 177.6 84.2 C 177.6 84.2 177.6 84.2 177.6 84.2 Z M 139.4 82.5 C 139.3 82.5 139.3 82.5 139.4 82.5 C 139.4 82.5 139.4 82.5 139.4 82.5 Z M 155.1 81.1 C 155.1 79.6 156.5 83.1 154.7 81.2 C 154.8 81.1 155.2 81.3 155.1 81.1 M 153.0 78.6 C 153.1 78.6 153.1 78.6 153.0 78.6 C 153.0 78.6 153.0 78.6 153.0 78.6 Z M 160.1 77.7 C 160.2 77.6 160.2 77.6 160.1 77.7 C 160.1 77.7 160.1 77.7 160.1 77.7 Z M 146.5 84.0 C 146.7 84.8 144.7 83.3 146.7 83.9 M 138.0 78.4 C 138.3 79.2 136.2 77.7 138.3 78.3 M 189.1 83.3 C 189.3 82.6 190.4 83.7 189.1 83.3 M 161.7 76.9 C 162.0 76.2 163.1 77.3 161.7 76.9 M 158.4 78.8 C 158.7 79.7 156.7 78.2 158.7 78.8 M 142.9 78.4 C 142.8 78.4 142.8 78.4 142.9 78.4 C 142.9 78.4 142.9 78.4 142.9 78.4 Z M 166.4 83.3 C 166.4 83.3 166.4 83.3 166.4 83.3 C 166.4 83.3 166.4 83.3 166.4 83.3 Z M 157.7 81.5 C 158.9 82.7 156.2 80.8 157.7 81.5 M 169.0 81.3 C 170.7 82.7 166.2 80.8 169.0 81.3 M 133.7 78.4 C 136.4 79.5 131.7 77.9 133.7 78.4 M 143.9 82.3 C 145.8 84.1 142.4 81.4 143.9 82.3 M 164.7 82.6 C 164.8 83.5 162.7 82.0 164.7 82.6 M 184.6 83.4 C 186.4 83.6 182.1 84.1 184.6 83.4 M 147.6 78.4 C 147.5 78.3 147.5 78.3 147.6 78.4 C 147.6 78.4 147.6 78.4 147.6 78.4 Z M 178.6 76.8 C 178.5 76.8 178.5 76.8 178.6 76.8 C 178.6 76.8 178.6 76.8 178.6 76.8 Z M 133.2 84.5 C 133.1 84.5 133.1 84.5 133.2 84.5 C 133.2 84.5 133.2 84.5 133.2 84.5 Z M 145.0 81.5 C 145.0 81.4 145.0 81.4 145.0 81.5 C 145.0 81.5 145.0 81.5 145.0 81.5 Z M 135.9 84.0 C 135.8 83.9 135.8 83.9 135.9 84.0 C 135.9 84.0 135.9 84.0 135.9 84.0 Z M 151.1 80.2 C 151.0 80.1 151.0 80.1 151.1 80.2 C 151.1 80.2 151.1 80.2 151.1 80.2 Z M 152.3 84.6 C 152.2 84.6 152.2 84.6 152.3 84.6 C 152.3 84.6 152.3 84.6 152.3 84.6 Z M 158.9 82.7 C 158.8 82.7 158.8 82.7 158.9 82.7 C 158.9 82.7 158.9 82.7 158.9 82.7 Z M 149.3 84.2 C 145.3 84.5 151.3 82.8 149.3 84.2 C 149.3 84.2 149.3 84.2 149.3 84.2 Z M 156.1 79.9 C 156.0 79.8 156.0 79.8 156.1 79.9 C 156.1 79.9 156.1 79.9 156.1 79.9 Z M 156.6 83.0 C 154.1 84.2 155.3 80.8 156.6 83.0 M 167.6 84.0 C 166.8 84.7 167.2 83.0 167.6 84.0 M 172.0 78.2 C 172.0 78.1 172.0 78.1 172.0 78.2 C 172.0 78.2 172.0 78.2 172.0 78.2 Z M 170.8 78.7 C 170.7 78.6 170.7 78.6 170.8 78.7 C 170.8 78.7 170.8 78.7 170.8 78.7 Z M 170.3 84.3 C 170.2 84.2 170.2 84.2 170.3 84.3 C 170.3 84.3 170.3 84.3 170.3 84.3 Z M 170.6 77.0 C 170.5 77.0 170.5 77.0 170.6 77.0 C 170.6 77.0 170.6 77.0 170.6 77.0 Z M 153.8 84.5 C 153.7 84.5 153.7 84.5 153.8 84.5 C 153.8 84.5 153.8 84.5 153.8 84.5 Z M 134.7 84.9 C 134.6 84.8 134.6 84.8 134.7 84.9 C 134.7 84.9 134.7 84.9 134.7 84.9 Z M 184.0 78.8 C 183.9 78.8 183.9 78.8 184.0 78.8 C 184.0 78.8 184.0 78.8 184.0 78.8 Z M 151.7 82.7 C 151.6 82.7 151.6 82.7 151.7 82.7 C 151.7 82.7 151.7 82.7 151.7 82.7 Z M 174.8 78.5 C 174.8 78.4 174.8 78.4 174.8 78.5 C 174.8 78.5 174.8 78.5 174.8 78.5 Z M 153.0 83.1 C 152.9 83.1 152.9 83.1 153.0 83.1 C 153.0 83.1 153.0 83.1 153.0 83.1 Z M 148.2 78.0 C 148.2 78.0 148.2 78.0 148.2 78.0 C 148.2 78.0 148.2 78.0 148.2 78.0 Z M 143.9 77.0 C 143.9 77.0 143.9 77.0 143.9 77.0 C 143.9 77.0 143.9 77.0 143.9 77.0 Z M 148.6 81.1 C 148.5 81.0 148.5 81.0 148.6 81.1 C 148.6 81.1 148.6 81.1 148.6 81.1 Z M 176.2 80.4 C 184.2 81.9 169.9 81.1 176.2 80.4 M 147.2 80.7 C 152.7 81.0 142.8 82.4 147.2 80.7 C 146.6 81.1 147.1 80.8 147.2 80.7 " fill="#52575F"></path><g><clipPath id="clip-247"><path d="M 125.1 80.7 L 242.9 80.7 L 242.9 188.1 L 125.1 188.1 Z M 125.1 80.7 "></path></clipPath><g clip-path="url(#clip-247)"><text xml:space="preserve" font-family="Helvetica-Bold" font-weight="bold" font-size="24.0" fill="#FEFFFE" transform="matrix(1.00, 0.00, -0.00, -1.00, 135.0, 125.0)">N</text><text xml:space="preserve" font-family="Helvetica-Bold" font-weight="bold" font-size="24.0" fill="#FEFFFE" transform="matrix(1.00, 0.00, -0.00, -1.00, 152.3, 125.0)">o</text><text xml:space="preserve" font-family="Helvetica-Bold" font-weight="bold" font-size="24.0" fill="#FEFFFE" transform="matrix(1.00, 0.00, -0.00, -1.00, 167.0, 125.0)">t</text><text xml:space="preserve" font-family="Helvetica-Bold" font-weight="bold" font-size="24.0" fill="#FEFFFE" transform="matrix(1.00, 0.00, -0.00, -1.00, 175.0, 125.0)">a</text><text xml:space="preserve" font-family="Helvetica-Bold" font-weight="bold" font-size="24.0" fill="#FEFFFE" transform="matrix(1.00, 0.00, -0.00, -1.00, 188.3, 125.0)">t</text><text xml:space="preserve" font-family="Helvetica-Bold" font-weight="bold" font-size="24.0" fill="#FEFFFE" transform="matrix(1.00, 0.00, -0.00, -1.00, 196.3, 125.0)">i</text><text xml:space="preserve" font-family="Helvetica-Bold" font-weight="bold" font-size="24.0" fill="#FEFFFE" transform="matrix(1.00, 0.00, -0.00, -1.00, 203.0, 125.0)">o</text><text xml:space="preserve" font-family="Helvetica-Bold" font-weight="bold" font-size="24.0" fill="#FEFFFE" transform="matrix(1.00, 0.00, -0.00, -1.00, 217.6, 125.0)">n</text></g></g></g></svg>