<?xml version="1.0" encoding="UTF-8" standalone="no"?><svg xmlns="http://www.w3.org/2000/svg" xmlns:xlink="http://www.w3.org/1999/xlink" clip-rule="evenodd" stroke-miterlimit="4.00" viewBox="0 0 153 63"><desc>SVG generated by Keynote</desc><defs><linearGradient id="gradSh1.41" x1="0.0" y1="0.0" x2="100.0" y2="0.0" gradientUnits="userSpaceOnUse" gradientTransform="matrix(0.16, -0.87, -1.58, -0.30, 68.3, 75.7)"><stop offset="0.00000" stop-color="#51A7F9"></stop><stop offset="0.00513" stop-color="#51A6F9"></stop><stop offset="0.22214" stop-color="#3F85D8"></stop><stop offset="0.22434" stop-color="#3F85D7"></stop><stop offset="0.25806" stop-color="#3D7FD2"></stop><stop offset="0.25953" stop-color="#3C7FD2"></stop><stop offset="0.67375" stop-color="#1B3F93"></stop><stop offset="0.68035" stop-color="#1A3E92"></stop><stop offset="0.81525" stop-color="#0F2A7E"></stop><stop offset="0.81598" stop-color="#0F297E"></stop><stop offset="0.91422" stop-color="#071A6F"></stop><stop offset="0.91789" stop-color="#071A6E"></stop><stop offset="0.96334" stop-color="#031368"></stop><stop offset="0.96481" stop-color="#031367"></stop><stop offset="0.98460" stop-color="#020F64"></stop><stop offset="0.98827" stop-color="#010F64"></stop><stop offset="0.99120" stop-color="#010E63"></stop><stop offset="1.00000" stop-color="#010D62"></stop></linearGradient></defs><g transform="matrix(1.00, 0.00, -0.00, -1.00, 0.0, 63.0)"><g><clipPath id="clip-274"><path d="M 1.5 13.7 L 1.5 50.2 C 1.5 56.7 6.8 61.9 13.3 61.9 L 139.7 61.9 C 146.2 61.9 151.5 56.7 151.5 50.2 L 151.5 13.7 C 151.5 7.2 146.2 1.9 139.7 1.9 L 13.3 1.9 C 6.8 1.9 1.5 7.2 1.5 13.7 Z M 1.5 13.7 "></path></clipPath><g clip-path="url(#clip-274)"><path d="M 1.5 13.7 L 1.5 50.2 C 1.5 56.7 6.8 61.9 13.3 61.9 L 139.7 61.9 C 146.2 61.9 151.5 56.7 151.5 50.2 L 151.5 13.7 C 151.5 7.2 146.2 1.9 139.7 1.9 L 13.3 1.9 C 6.8 1.9 1.5 7.2 1.5 13.7 Z M 1.5 13.7 " fill="url(#gradSh1.41)"></path></g></g><g><clipPath id="clip-275"><path d="M 1.0 1.9 L 152.0 1.9 L 152.0 61.9 L 1.0 61.9 Z M 1.0 1.9 "></path></clipPath><g clip-path="url(#clip-275)"><text xml:space="preserve" font-family="Helvetica" font-size="18.0" fill="#FEFFFE" transform="matrix(1.00, 0.00, -0.00, -1.00, 36.0, 25.0)">E</text><text xml:space="preserve" font-family="Helvetica" font-size="18.0" fill="#FEFFFE" transform="matrix(1.00, 0.00, -0.00, -1.00, 48.0, 25.0)">n</text><text xml:space="preserve" font-family="Helvetica" font-size="18.0" fill="#FEFFFE" transform="matrix(1.00, 0.00, -0.00, -1.00, 58.0, 25.0)">g</text><text xml:space="preserve" font-family="Helvetica" font-size="18.0" fill="#FEFFFE" transform="matrix(1.00, 0.00, -0.00, -1.00, 68.0, 25.0)">r</text><text xml:space="preserve" font-family="Helvetica" font-size="18.0" fill="#FEFFFE" transform="matrix(1.00, 0.00, -0.00, -1.00, 74.0, 25.0)">a</text><text xml:space="preserve" font-family="Helvetica" font-size="18.0" fill="#FEFFFE" transform="matrix(1.00, 0.00, -0.00, -1.00, 84.0, 25.0)">v</text><text xml:space="preserve" font-family="Helvetica" font-size="18.0" fill="#FEFFFE" transform="matrix(1.00, 0.00, -0.00, -1.00, 93.0, 25.0)">i</text><text xml:space="preserve" font-family="Helvetica" font-size="18.0" fill="#FEFFFE" transform="matrix(1.00, 0.00, -0.00, -1.00, 97.0, 25.0)">n</text><text xml:space="preserve" font-family="Helvetica" font-size="18.0" fill="#FEFFFE" transform="matrix(1.00, 0.00, -0.00, -1.00, 107.1, 25.0)">g</text></g></g></g></svg>