<?xml version="1.0" encoding="UTF-8" standalone="no"?><svg xmlns="http://www.w3.org/2000/svg" xmlns:xlink="http://www.w3.org/1999/xlink" clip-rule="evenodd" stroke-miterlimit="4.00" viewBox="0 0 393 233"><desc>SVG generated by Keynote</desc><defs><linearGradient id="gradSh1.47" x1="0.0" y1="0.0" x2="100.0" y2="0.0" gradientUnits="userSpaceOnUse" gradientTransform="matrix(0.00, -0.62, -1.52, 0.00, 196.6, 147.4)"><stop offset="0.00000" stop-color="#885CB2"></stop><stop offset="0.00147" stop-color="#885BB2"></stop><stop offset="0.09971" stop-color="#7F55A7"></stop><stop offset="0.10630" stop-color="#7F54A7"></stop><stop offset="0.47801" stop-color="#603C7F"></stop><stop offset="0.48094" stop-color="#603B7F"></stop><stop offset="0.87903" stop-color="#3F2155"></stop><stop offset="0.88490" stop-color="#3F2055"></stop><stop offset="1.00000" stop-color="#361948"></stop></linearGradient></defs><g transform="matrix(1.00, 0.00, -0.00, -1.00, 0.0, 233.0)"><image xlink:href="../../4AAE6EA7-3F1F-4CAC-8E5B-8863539C57B9/assets/0ABDBFE58846D4E14DFCA112EE026A95.png" width="390.00" height="150.00" transform="matrix(1.00, 0.00, -0.00, -1.00, 1.6, 151.4)" opacity="0.76"></image><g><clipPath id="clip-286"><path d="M 121.6 98.2 L 121.6 134.6 C 121.6 141.1 126.9 146.4 133.4 146.4 L 259.9 146.4 C 266.4 146.4 271.6 141.1 271.6 134.6 L 271.6 98.2 C 271.6 91.7 266.4 86.4 259.9 86.4 L 133.4 86.4 C 126.9 86.4 121.6 91.7 121.6 98.2 Z M 121.6 98.2 "></path></clipPath><g clip-path="url(#clip-286)"><path d="M 121.6 98.2 L 121.6 134.6 C 121.6 141.1 126.9 146.4 133.4 146.4 L 259.9 146.4 C 266.4 146.4 271.6 141.1 271.6 134.6 L 271.6 98.2 C 271.6 91.7 266.4 86.4 259.9 86.4 L 133.4 86.4 C 126.9 86.4 121.6 91.7 121.6 98.2 Z M 121.6 98.2 " fill="url(#gradSh1.47)"></path></g></g></g></svg>