<?xml version="1.0" encoding="UTF-8" standalone="no"?><svg xmlns="http://www.w3.org/2000/svg" xmlns:xlink="http://www.w3.org/1999/xlink" clip-rule="evenodd" stroke-miterlimit="4.00" viewBox="0 0 381 56"><desc>SVG generated by Keynote</desc><defs></defs><g transform="matrix(1.00, 0.00, -0.00, -1.00, 0.0, 56.0)"><text xml:space="preserve" font-family="AvenirNext-Regular" font-size="53.0" fill="#FEFFFF" transform="matrix(1.00, 0.00, -0.00, -1.00, -3.0, 14.0)">N</text><text xml:space="preserve" font-family="AvenirNext-Regular" font-size="53.0" fill="#FEFFFF" transform="matrix(1.00, 0.00, -0.00, -1.00, 37.5, 14.0)">e</text><text xml:space="preserve" font-family="AvenirNext-Regular" font-size="53.0" fill="#FEFFFF" transform="matrix(1.00, 0.00, -0.00, -1.00, 67.8, 14.0)">w</text><text xml:space="preserve" font-family="AvenirNext-Regular" font-size="53.0" fill="#FEFFFF" transform="matrix(1.00, 0.00, -0.00, -1.00, 107.3, 14.0)"> </text><text xml:space="preserve" font-family="AvenirNext-Regular" font-size="53.0" fill="#FEFFFF" transform="matrix(1.00, 0.00, -0.00, -1.00, 120.6, 14.0)">c</text><text xml:space="preserve" font-family="AvenirNext-Regular" font-size="53.0" fill="#FEFFFF" transform="matrix(1.00, 0.00, -0.00, -1.00, 147.1, 14.0)">h</text><text xml:space="preserve" font-family="AvenirNext-Regular" font-size="53.0" fill="#FEFFFF" transform="matrix(1.00, 0.00, -0.00, -1.00, 178.0, 14.0)">a</text><text xml:space="preserve" font-family="AvenirNext-Regular" font-size="53.0" fill="#FEFFFF" transform="matrix(1.00, 0.00, -0.00, -1.00, 206.3, 14.0)">l</text><text xml:space="preserve" font-family="AvenirNext-Regular" font-size="53.0" fill="#FEFFFF" transform="matrix(1.00, 0.00, -0.00, -1.00, 219.7, 14.0)">l</text><text xml:space="preserve" font-family="AvenirNext-Regular" font-size="53.0" fill="#FEFFFF" transform="matrix(1.00, 0.00, -0.00, -1.00, 233.0, 14.0)">e</text><text xml:space="preserve" font-family="AvenirNext-Regular" font-size="53.0" fill="#FEFFFF" transform="matrix(1.00, 0.00, -0.00, -1.00, 263.3, 14.0)">n</text><text xml:space="preserve" font-family="AvenirNext-Regular" font-size="53.0" fill="#FEFFFF" transform="matrix(1.00, 0.00, -0.00, -1.00, 294.1, 14.0)">g</text><text xml:space="preserve" font-family="AvenirNext-Regular" font-size="53.0" fill="#FEFFFF" transform="matrix(1.00, 0.00, -0.00, -1.00, 327.6, 14.0)">e</text><text xml:space="preserve" font-family="AvenirNext-Regular" font-size="53.0" fill="#FEFFFF" transform="matrix(1.00, 0.00, -0.00, -1.00, 357.9, 14.0)">s</text></g></svg>