<?xml version="1.0" encoding="UTF-8" standalone="no"?><svg xmlns="http://www.w3.org/2000/svg" xmlns:xlink="http://www.w3.org/1999/xlink" clip-rule="evenodd" stroke-miterlimit="4.00" viewBox="0 0 393 233"><desc>SVG generated by Keynote</desc><defs><linearGradient id="gradSh1.28" x1="0.0" y1="0.0" x2="100.0" y2="0.0" gradientUnits="userSpaceOnUse" gradientTransform="matrix(0.16, -0.87, -1.58, -0.30, 188.3, 159.9)"><stop offset="0.00000" stop-color="#51A7F9"></stop><stop offset="0.00513" stop-color="#51A6F9"></stop><stop offset="0.22214" stop-color="#3F85D8"></stop><stop offset="0.22434" stop-color="#3F85D7"></stop><stop offset="0.25806" stop-color="#3D7FD2"></stop><stop offset="0.25953" stop-color="#3C7FD2"></stop><stop offset="0.67375" stop-color="#1B3F93"></stop><stop offset="0.68035" stop-color="#1A3E92"></stop><stop offset="0.81525" stop-color="#0F2A7E"></stop><stop offset="0.81598" stop-color="#0F297E"></stop><stop offset="0.91422" stop-color="#071A6F"></stop><stop offset="0.91789" stop-color="#071A6E"></stop><stop offset="0.96334" stop-color="#031368"></stop><stop offset="0.96481" stop-color="#031367"></stop><stop offset="0.98460" stop-color="#020F64"></stop><stop offset="0.98827" stop-color="#010F64"></stop><stop offset="0.99120" stop-color="#010E63"></stop><stop offset="1.00000" stop-color="#010D62"></stop></linearGradient></defs><g transform="matrix(1.00, 0.00, -0.00, -1.00, 0.0, 233.0)"><image xlink:href="../../4AAE6EA7-3F1F-4CAC-8E5B-8863539C57B9/assets/0ABDBFE58846D4E14DFCA112EE026A95.png" width="390.00" height="150.00" transform="matrix(1.00, 0.00, -0.00, -1.00, 1.5, 151.1)" opacity="0.76"></image><g><clipPath id="clip-248"><path d="M 121.5 97.9 L 121.5 134.4 C 121.5 140.9 126.8 146.1 133.3 146.1 L 259.7 146.1 C 266.2 146.1 271.5 140.9 271.5 134.4 L 271.5 97.9 C 271.5 91.4 266.2 86.1 259.7 86.1 L 133.3 86.1 C 126.8 86.1 121.5 91.4 121.5 97.9 Z M 121.5 97.9 "></path></clipPath><g clip-path="url(#clip-248)"><path d="M 121.5 97.9 L 121.5 134.4 C 121.5 140.9 126.8 146.1 133.3 146.1 L 259.7 146.1 C 266.2 146.1 271.5 140.9 271.5 134.4 L 271.5 97.9 C 271.5 91.4 266.2 86.1 259.7 86.1 L 133.3 86.1 C 126.8 86.1 121.5 91.4 121.5 97.9 Z M 121.5 97.9 " fill="url(#gradSh1.28)"></path></g></g><g><clipPath id="clip-249"><path d="M 121.5 86.1 L 271.5 86.1 L 271.5 146.1 L 121.5 146.1 Z M 121.5 86.1 "></path></clipPath><g clip-path="url(#clip-249)"><text xml:space="preserve" font-family="Helvetica" font-size="18.0" fill="#FEFFFE" transform="matrix(1.00, 0.00, -0.00, -1.00, 148.0, 120.0)">A</text><text xml:space="preserve" font-family="Helvetica" font-size="18.0" fill="#FEFFFE" transform="matrix(1.00, 0.00, -0.00, -1.00, 160.0, 120.0)">n</text><text xml:space="preserve" font-family="Helvetica" font-size="18.0" fill="#FEFFFE" transform="matrix(1.00, 0.00, -0.00, -1.00, 170.0, 120.0)">n</text><text xml:space="preserve" font-family="Helvetica" font-size="18.0" fill="#FEFFFE" transform="matrix(1.00, 0.00, -0.00, -1.00, 180.0, 120.0)">o</text><text xml:space="preserve" font-family="Helvetica" font-size="18.0" fill="#FEFFFE" transform="matrix(1.00, 0.00, -0.00, -1.00, 190.0, 120.0)">t</text><text xml:space="preserve" font-family="Helvetica" font-size="18.0" fill="#FEFFFE" transform="matrix(1.00, 0.00, -0.00, -1.00, 195.0, 120.0)">a</text><text xml:space="preserve" font-family="Helvetica" font-size="18.0" fill="#FEFFFE" transform="matrix(1.00, 0.00, -0.00, -1.00, 205.1, 120.0)">t</text><text xml:space="preserve" font-family="Helvetica" font-size="18.0" fill="#FEFFFE" transform="matrix(1.00, 0.00, -0.00, -1.00, 210.1, 120.0)">i</text><text xml:space="preserve" font-family="Helvetica" font-size="18.0" fill="#FEFFFE" transform="matrix(1.00, 0.00, -0.00, -1.00, 214.1, 120.0)">o</text><text xml:space="preserve" font-family="Helvetica" font-size="18.0" fill="#FEFFFE" transform="matrix(1.00, 0.00, -0.00, -1.00, 224.1, 120.0)">n</text><text xml:space="preserve" font-family="Helvetica" font-size="18.0" fill="#FEFFFE" transform="matrix(1.00, 0.00, -0.00, -1.00, 234.1, 120.0)"> </text><text xml:space="preserve" font-family="Helvetica" font-size="18.0" fill="#FEFFFE" transform="matrix(1.00, 0.00, -0.00, -1.00, 239.1, 120.0)">/</text><text xml:space="preserve" font-family="Helvetica" font-size="18.0" fill="#FEFFFE" transform="matrix(1.00, 0.00, -0.00, -1.00, 244.1, 120.0)"> </text><text xml:space="preserve" font-family="Helvetica" font-size="18.0" fill="#FEFFFE" transform="matrix(1.00, 0.00, -0.00, -1.00, 163.0, 98.0)">A</text><text xml:space="preserve" font-family="Helvetica" font-size="18.0" fill="#FEFFFE" transform="matrix(1.00, 0.00, -0.00, -1.00, 175.0, 98.0)">n</text><text xml:space="preserve" font-family="Helvetica" font-size="18.0" fill="#FEFFFE" transform="matrix(1.00, 0.00, -0.00, -1.00, 185.0, 98.0)">a</text><text xml:space="preserve" font-family="Helvetica" font-size="18.0" fill="#FEFFFE" transform="matrix(1.00, 0.00, -0.00, -1.00, 195.0, 98.0)">l</text><text xml:space="preserve" font-family="Helvetica" font-size="18.0" fill="#FEFFFE" transform="matrix(1.00, 0.00, -0.00, -1.00, 199.0, 98.0)">y</text><text xml:space="preserve" font-family="Helvetica" font-size="18.0" fill="#FEFFFE" transform="matrix(1.00, 0.00, -0.00, -1.00, 208.0, 98.0)">s</text><text xml:space="preserve" font-family="Helvetica" font-size="18.0" fill="#FEFFFE" transform="matrix(1.00, 0.00, -0.00, -1.00, 217.0, 98.0)">i</text><text xml:space="preserve" font-family="Helvetica" font-size="18.0" fill="#FEFFFE" transform="matrix(1.00, 0.00, -0.00, -1.00, 221.0, 98.0)">s</text></g></g></g></svg>