<?xml version="1.0" encoding="UTF-8" standalone="no"?><svg xmlns="http://www.w3.org/2000/svg" xmlns:xlink="http://www.w3.org/1999/xlink" clip-rule="evenodd" stroke-miterlimit="4.00" viewBox="0 0 393 233"><desc>SVG generated by Keynote</desc><defs><linearGradient id="gradSh1.29" x1="0.0" y1="0.0" x2="100.0" y2="0.0" gradientUnits="userSpaceOnUse" gradientTransform="matrix(0.16, -0.87, -1.58, -0.30, 188.1, 160.6)"><stop offset="0.00000" stop-color="#51A7F9"></stop><stop offset="0.00513" stop-color="#51A6F9"></stop><stop offset="0.22214" stop-color="#3F85D8"></stop><stop offset="0.22434" stop-color="#3F85D7"></stop><stop offset="0.25806" stop-color="#3D7FD2"></stop><stop offset="0.25953" stop-color="#3C7FD2"></stop><stop offset="0.67375" stop-color="#1B3F93"></stop><stop offset="0.68035" stop-color="#1A3E92"></stop><stop offset="0.81525" stop-color="#0F2A7E"></stop><stop offset="0.81598" stop-color="#0F297E"></stop><stop offset="0.91422" stop-color="#071A6F"></stop><stop offset="0.91789" stop-color="#071A6E"></stop><stop offset="0.96334" stop-color="#031368"></stop><stop offset="0.96481" stop-color="#031367"></stop><stop offset="0.98460" stop-color="#020F64"></stop><stop offset="0.98827" stop-color="#010F64"></stop><stop offset="0.99120" stop-color="#010E63"></stop><stop offset="1.00000" stop-color="#010D62"></stop></linearGradient></defs><g transform="matrix(1.00, 0.00, -0.00, -1.00, 0.0, 233.0)"><image xlink:href="../../4AAE6EA7-3F1F-4CAC-8E5B-8863539C57B9/assets/0ABDBFE58846D4E14DFCA112EE026A95.png" width="390.00" height="150.00" transform="matrix(1.00, 0.00, -0.00, -1.00, 1.4, 151.9)" opacity="0.76"></image><g><clipPath id="clip-250"><path d="M 121.4 98.6 L 121.4 135.1 C 121.4 141.6 126.6 146.9 133.1 146.9 L 259.6 146.9 C 266.1 146.9 271.4 141.6 271.4 135.1 L 271.4 98.6 C 271.4 92.1 266.1 86.9 259.6 86.9 L 133.1 86.9 C 126.6 86.9 121.4 92.1 121.4 98.6 Z M 121.4 98.6 "></path></clipPath><g clip-path="url(#clip-250)"><path d="M 121.4 98.6 L 121.4 135.1 C 121.4 141.6 126.6 146.9 133.1 146.9 L 259.6 146.9 C 266.1 146.9 271.4 141.6 271.4 135.1 L 271.4 98.6 C 271.4 92.1 266.1 86.9 259.6 86.9 L 133.1 86.9 C 126.6 86.9 121.4 92.1 121.4 98.6 Z M 121.4 98.6 " fill="url(#gradSh1.29)"></path></g></g><g><clipPath id="clip-251"><path d="M 120.9 86.9 L 271.9 86.9 L 271.9 146.9 L 120.9 146.9 Z M 120.9 86.9 "></path></clipPath><g clip-path="url(#clip-251)"><text xml:space="preserve" font-family="Helvetica" font-size="18.0" fill="#FEFFFE" transform="matrix(1.00, 0.00, -0.00, -1.00, 135.0, 110.0)">R</text><text xml:space="preserve" font-family="Helvetica" font-size="18.0" fill="#FEFFFE" transform="matrix(1.00, 0.00, -0.00, -1.00, 148.0, 110.0)">e</text><text xml:space="preserve" font-family="Helvetica" font-size="18.0" fill="#FEFFFE" transform="matrix(1.00, 0.00, -0.00, -1.00, 158.0, 110.0)">p</text><text xml:space="preserve" font-family="Helvetica" font-size="18.0" fill="#FEFFFE" transform="matrix(1.00, 0.00, -0.00, -1.00, 168.0, 110.0)">r</text><text xml:space="preserve" font-family="Helvetica" font-size="18.0" fill="#FEFFFE" transform="matrix(1.00, 0.00, -0.00, -1.00, 174.0, 110.0)">e</text><text xml:space="preserve" font-family="Helvetica" font-size="18.0" fill="#FEFFFE" transform="matrix(1.00, 0.00, -0.00, -1.00, 184.0, 110.0)">s</text><text xml:space="preserve" font-family="Helvetica" font-size="18.0" fill="#FEFFFE" transform="matrix(1.00, 0.00, -0.00, -1.00, 193.0, 110.0)">e</text><text xml:space="preserve" font-family="Helvetica" font-size="18.0" fill="#FEFFFE" transform="matrix(1.00, 0.00, -0.00, -1.00, 203.1, 110.0)">n</text><text xml:space="preserve" font-family="Helvetica" font-size="18.0" fill="#FEFFFE" transform="matrix(1.00, 0.00, -0.00, -1.00, 213.1, 110.0)">t</text><text xml:space="preserve" font-family="Helvetica" font-size="18.0" fill="#FEFFFE" transform="matrix(1.00, 0.00, -0.00, -1.00, 218.1, 110.0)">a</text><text xml:space="preserve" font-family="Helvetica" font-size="18.0" fill="#FEFFFE" transform="matrix(1.00, 0.00, -0.00, -1.00, 228.1, 110.0)">t</text><text xml:space="preserve" font-family="Helvetica" font-size="18.0" fill="#FEFFFE" transform="matrix(1.00, 0.00, -0.00, -1.00, 233.1, 110.0)">i</text><text xml:space="preserve" font-family="Helvetica" font-size="18.0" fill="#FEFFFE" transform="matrix(1.00, 0.00, -0.00, -1.00, 237.1, 110.0)">o</text><text xml:space="preserve" font-family="Helvetica" font-size="18.0" fill="#FEFFFE" transform="matrix(1.00, 0.00, -0.00, -1.00, 247.1, 110.0)">n</text></g></g></g></svg>