<?xml version="1.0" encoding="UTF-8" standalone="no"?><svg xmlns="http://www.w3.org/2000/svg" xmlns:xlink="http://www.w3.org/1999/xlink" clip-rule="evenodd" stroke-miterlimit="4.00" viewBox="0 0 393 233"><desc>SVG generated by Keynote</desc><defs><linearGradient id="gradSh1.36" x1="0.0" y1="0.0" x2="100.0" y2="0.0" gradientUnits="userSpaceOnUse" gradientTransform="matrix(0.00, -0.62, -1.52, 0.00, 196.1, 147.5)"><stop offset="0.00000" stop-color="#FB4912"></stop><stop offset="0.00147" stop-color="#FA4912"></stop><stop offset="0.13636" stop-color="#E03F10"></stop><stop offset="0.13783" stop-color="#DF3F10"></stop><stop offset="0.16202" stop-color="#DB3E0F"></stop><stop offset="0.16276" stop-color="#DA3E0F"></stop><stop offset="0.58724" stop-color="#861F08"></stop><stop offset="0.59164" stop-color="#851F08"></stop><stop offset="0.59897" stop-color="#841F07"></stop><stop offset="0.60117" stop-color="#831E07"></stop><stop offset="0.81745" stop-color="#590F03"></stop><stop offset="0.81818" stop-color="#580F03"></stop><stop offset="0.92522" stop-color="#430702"></stop><stop offset="0.92669" stop-color="#430701"></stop><stop offset="0.92889" stop-color="#420701"></stop><stop offset="0.98094" stop-color="#380400"></stop><stop offset="0.98167" stop-color="#380300"></stop><stop offset="0.98460" stop-color="#370300"></stop><stop offset="1.00000" stop-color="#340200"></stop></linearGradient></defs><g transform="matrix(1.00, 0.00, -0.00, -1.00, 0.0, 233.0)"><image xlink:href="../../4AAE6EA7-3F1F-4CAC-8E5B-8863539C57B9/assets/0ABDBFE58846D4E14DFCA112EE026A95.png" width="390.00" height="150.00" transform="matrix(1.00, 0.00, -0.00, -1.00, 1.1, 151.5)" opacity="0.76"></image><g><clipPath id="clip-264"><path d="M 121.1 98.2 L 121.1 134.7 C 121.1 141.2 126.3 146.5 132.8 146.5 L 259.3 146.5 C 265.8 146.5 271.1 141.2 271.1 134.7 L 271.1 98.2 C 271.1 91.7 265.8 86.5 259.3 86.5 L 132.8 86.5 C 126.3 86.5 121.1 91.7 121.1 98.2 Z M 121.1 98.2 "></path></clipPath><g clip-path="url(#clip-264)"><path d="M 121.1 98.2 L 121.1 134.7 C 121.1 141.2 126.3 146.5 132.8 146.5 L 259.3 146.5 C 265.8 146.5 271.1 141.2 271.1 134.7 L 271.1 98.2 C 271.1 91.7 265.8 86.5 259.3 86.5 L 132.8 86.5 C 126.3 86.5 121.1 91.7 121.1 98.2 Z M 121.1 98.2 " fill="url(#gradSh1.36)"></path></g></g><g><clipPath id="clip-265"><path d="M 120.6 86.5 L 271.6 86.5 L 271.6 146.5 L 120.6 146.5 Z M 120.6 86.5 "></path></clipPath><g clip-path="url(#clip-265)"><text xml:space="preserve" font-family="Helvetica" font-size="18.0" fill="#FEFFFE" transform="matrix(1.00, 0.00, -0.00, -1.00, 168.0, 110.0)">T</text><text xml:space="preserve" font-family="Helvetica" font-size="18.0" fill="#FEFFFE" transform="matrix(1.00, 0.00, -0.00, -1.00, 177.0, 110.0)">e</text><text xml:space="preserve" font-family="Helvetica" font-size="18.0" fill="#FEFFFE" transform="matrix(1.00, 0.00, -0.00, -1.00, 187.0, 110.0)">x</text><text xml:space="preserve" font-family="Helvetica" font-size="18.0" fill="#FEFFFE" transform="matrix(1.00, 0.00, -0.00, -1.00, 196.0, 110.0)">t</text><text xml:space="preserve" font-family="Helvetica" font-size="18.0" fill="#FEFFFE" transform="matrix(1.00, 0.00, -0.00, -1.00, 201.0, 110.0)">u</text><text xml:space="preserve" font-family="Helvetica" font-size="18.0" fill="#FEFFFE" transform="matrix(1.00, 0.00, -0.00, -1.00, 211.0, 110.0)">a</text><text xml:space="preserve" font-family="Helvetica" font-size="18.0" fill="#FEFFFE" transform="matrix(1.00, 0.00, -0.00, -1.00, 221.0, 110.0)">l</text></g></g></g></svg>