<?xml version="1.0" encoding="UTF-8" standalone="no"?><svg xmlns="http://www.w3.org/2000/svg" xmlns:xlink="http://www.w3.org/1999/xlink" clip-rule="evenodd" stroke-miterlimit="4.00" viewBox="0 0 93 18"><desc>SVG generated by Keynote</desc><defs></defs><g transform="matrix(1.00, 0.00, -0.00, -1.00, 0.0, 18.0)"><text xml:space="preserve" font-family="Helvetica-Light" font-size="18.0" fill="#FEFC78" transform="matrix(1.00, 0.00, -0.00, -1.00, 1.0, 2.0)">M</text><text xml:space="preserve" font-family="Helvetica-Light" font-size="18.0" fill="#FEFC78" transform="matrix(1.00, 0.00, -0.00, -1.00, 16.0, 2.0)">u</text><text xml:space="preserve" font-family="Helvetica-Light" font-size="18.0" fill="#FEFC78" transform="matrix(1.00, 0.00, -0.00, -1.00, 26.0, 2.0)">s</text><text xml:space="preserve" font-family="Helvetica-Light" font-size="18.0" fill="#FEFC78" transform="matrix(1.00, 0.00, -0.00, -1.00, 35.0, 2.0)">e</text><text xml:space="preserve" font-family="Helvetica-Light" font-size="18.0" fill="#FEFC78" transform="matrix(1.00, 0.00, -0.00, -1.00, 45.0, 2.0)">S</text><text xml:space="preserve" font-family="Helvetica-Light" font-size="18.0" fill="#FEFC78" transform="matrix(1.00, 0.00, -0.00, -1.00, 56.0, 2.0)">c</text><text xml:space="preserve" font-family="Helvetica-Light" font-size="18.0" fill="#FEFC78" transform="matrix(1.00, 0.00, -0.00, -1.00, 66.0, 2.0)">o</text><text xml:space="preserve" font-family="Helvetica-Light" font-size="18.0" fill="#FEFC78" transform="matrix(1.00, 0.00, -0.00, -1.00, 76.0, 2.0)">r</text><text xml:space="preserve" font-family="Helvetica-Light" font-size="18.0" fill="#FEFC78" transform="matrix(1.00, 0.00, -0.00, -1.00, 81.7, 2.0)">e</text></g></svg>