<?xml version="1.0" encoding="UTF-8" standalone="no"?><svg xmlns="http://www.w3.org/2000/svg" xmlns:xlink="http://www.w3.org/1999/xlink" clip-rule="evenodd" stroke-miterlimit="4.00" viewBox="0 0 154 63"><desc>SVG generated by Keynote</desc><defs><linearGradient id="gradSh1.54" x1="0.0" y1="0.0" x2="100.0" y2="0.0" gradientUnits="userSpaceOnUse" gradientTransform="matrix(0.00, -0.62, -1.52, 0.00, 76.9, 62.7)"><stop offset="0.00000" stop-color="#FB4912"></stop><stop offset="0.00147" stop-color="#FA4912"></stop><stop offset="0.13636" stop-color="#E03F10"></stop><stop offset="0.13783" stop-color="#DF3F10"></stop><stop offset="0.16202" stop-color="#DB3E0F"></stop><stop offset="0.16276" stop-color="#DA3E0F"></stop><stop offset="0.58724" stop-color="#861F08"></stop><stop offset="0.59164" stop-color="#851F08"></stop><stop offset="0.59897" stop-color="#841F07"></stop><stop offset="0.60117" stop-color="#831E07"></stop><stop offset="0.81745" stop-color="#590F03"></stop><stop offset="0.81818" stop-color="#580F03"></stop><stop offset="0.92522" stop-color="#430702"></stop><stop offset="0.92669" stop-color="#430701"></stop><stop offset="0.92889" stop-color="#420701"></stop><stop offset="0.98094" stop-color="#380400"></stop><stop offset="0.98167" stop-color="#380300"></stop><stop offset="0.98460" stop-color="#370300"></stop><stop offset="1.00000" stop-color="#340200"></stop></linearGradient></defs><g transform="matrix(1.00, 0.00, -0.00, -1.00, 0.0, 63.0)"><g><clipPath id="clip-295"><path d="M 1.9 13.5 L 1.9 49.9 C 1.9 56.4 7.2 61.7 13.7 61.7 L 140.1 61.7 C 146.6 61.7 151.9 56.4 151.9 49.9 L 151.9 13.5 C 151.9 7.0 146.6 1.7 140.1 1.7 L 13.7 1.7 C 7.2 1.7 1.9 7.0 1.9 13.5 Z M 1.9 13.5 "></path></clipPath><g clip-path="url(#clip-295)"><path d="M 1.9 13.5 L 1.9 49.9 C 1.9 56.4 7.2 61.7 13.7 61.7 L 140.1 61.7 C 146.6 61.7 151.9 56.4 151.9 49.9 L 151.9 13.5 C 151.9 7.0 146.6 1.7 140.1 1.7 L 13.7 1.7 C 7.2 1.7 1.9 7.0 1.9 13.5 Z M 1.9 13.5 " fill="url(#gradSh1.54)"></path></g></g><g><clipPath id="clip-296"><path d="M 1.4 1.7 L 152.4 1.7 L 152.4 61.7 L 1.4 61.7 Z M 1.4 1.7 "></path></clipPath><g clip-path="url(#clip-296)"><text xml:space="preserve" font-family="Helvetica" font-size="18.0" fill="#FEFFFE" transform="matrix(1.00, 0.00, -0.00, -1.00, 44.0, 25.0)">A</text><text xml:space="preserve" font-family="Helvetica" font-size="18.0" fill="#FEFFFE" transform="matrix(1.00, 0.00, -0.00, -1.00, 56.0, 25.0)">u</text><text xml:space="preserve" font-family="Helvetica" font-size="18.0" fill="#FEFFFE" transform="matrix(1.00, 0.00, -0.00, -1.00, 66.0, 25.0)">d</text><text xml:space="preserve" font-family="Helvetica" font-size="18.0" fill="#FEFFFE" transform="matrix(1.00, 0.00, -0.00, -1.00, 76.0, 25.0)">i</text><text xml:space="preserve" font-family="Helvetica" font-size="18.0" fill="#FEFFFE" transform="matrix(1.00, 0.00, -0.00, -1.00, 80.0, 25.0)">t</text><text xml:space="preserve" font-family="Helvetica" font-size="18.0" fill="#FEFFFE" transform="matrix(1.00, 0.00, -0.00, -1.00, 85.0, 25.0)">o</text><text xml:space="preserve" font-family="Helvetica" font-size="18.0" fill="#FEFFFE" transform="matrix(1.00, 0.00, -0.00, -1.00, 95.0, 25.0)">r</text><text xml:space="preserve" font-family="Helvetica" font-size="18.0" fill="#FEFFFE" transform="matrix(1.00, 0.00, -0.00, -1.00, 101.0, 25.0)">y</text></g></g></g></svg>