<?xml version="1.0" encoding="UTF-8" standalone="no"?><svg xmlns="http://www.w3.org/2000/svg" xmlns:xlink="http://www.w3.org/1999/xlink" clip-rule="evenodd" stroke-miterlimit="4.00" viewBox="0 0 393 233"><desc>SVG generated by Keynote</desc><defs><linearGradient id="gradSh1.49" x1="0.0" y1="0.0" x2="100.0" y2="0.0" gradientUnits="userSpaceOnUse" gradientTransform="matrix(0.00, -0.62, -1.52, 0.00, 196.2, 147.1)"><stop offset="0.00000" stop-color="#885CB2"></stop><stop offset="0.00147" stop-color="#885BB2"></stop><stop offset="0.09971" stop-color="#7F55A7"></stop><stop offset="0.10630" stop-color="#7F54A7"></stop><stop offset="0.47801" stop-color="#603C7F"></stop><stop offset="0.48094" stop-color="#603B7F"></stop><stop offset="0.87903" stop-color="#3F2155"></stop><stop offset="0.88490" stop-color="#3F2055"></stop><stop offset="1.00000" stop-color="#361948"></stop></linearGradient></defs><g transform="matrix(1.00, 0.00, -0.00, -1.00, 0.0, 233.0)"><image xlink:href="../../4AAE6EA7-3F1F-4CAC-8E5B-8863539C57B9/assets/0ABDBFE58846D4E14DFCA112EE026A95.png" width="390.00" height="150.00" transform="matrix(1.00, 0.00, -0.00, -1.00, 1.2, 151.1)" opacity="0.76"></image><g><clipPath id="clip-288"><path d="M 121.2 97.9 L 121.2 134.4 C 121.2 140.9 126.5 146.1 133.0 146.1 L 259.4 146.1 C 265.9 146.1 271.2 140.9 271.2 134.4 L 271.2 97.9 C 271.2 91.4 265.9 86.1 259.4 86.1 L 133.0 86.1 C 126.5 86.1 121.2 91.4 121.2 97.9 Z M 121.2 97.9 "></path></clipPath><g clip-path="url(#clip-288)"><path d="M 121.2 97.9 L 121.2 134.4 C 121.2 140.9 126.5 146.1 133.0 146.1 L 259.4 146.1 C 265.9 146.1 271.2 140.9 271.2 134.4 L 271.2 97.9 C 271.2 91.4 265.9 86.1 259.4 86.1 L 133.0 86.1 C 126.5 86.1 121.2 91.4 121.2 97.9 Z M 121.2 97.9 " fill="url(#gradSh1.49)"></path></g></g></g></svg>