<?xml version="1.0" encoding="UTF-8" standalone="no"?><svg xmlns="http://www.w3.org/2000/svg" xmlns:xlink="http://www.w3.org/1999/xlink" clip-rule="evenodd" stroke-miterlimit="4.00" viewBox="0 0 238 118"><desc>SVG generated by Keynote</desc><defs></defs><g transform="matrix(1.00, 0.00, -0.00, -1.00, 0.0, 118.0)"><g><clipPath id="clip-1870"><path d="M 141.3 0.5 L 172.3 0.5 L 172.3 117.5 L 141.3 117.5 Z M 141.3 0.5 "></path></clipPath><g clip-path="url(#clip-1870)"><path d="M 142.3 116.5 L 171.3 116.5 L 171.3 1.5 L 142.3 1.5 Z M 142.3 116.5 " fill="#F5D327" fill-opacity="0.41"></path></g></g><g><clipPath id="clip-1871"><path d="M 0.1 104.0 L 64.8 108.5 L 66.6 82.6 L 1.9 78.1 Z M 0.1 104.0 "></path></clipPath><g clip-path="url(#clip-1871)"><path d="M 1.2 103.1 L 63.9 107.5 L 65.6 83.5 L 2.9 79.1 Z M 1.2 103.1 " fill="#F5D327" fill-opacity="0.41"></path></g></g><g><clipPath id="clip-1872"><path d="M 74.6 99.0 L 139.1 92.3 L 136.4 66.4 L 71.9 73.2 Z M 74.6 99.0 "></path></clipPath><g clip-path="url(#clip-1872)"><path d="M 75.5 97.9 L 138.0 91.4 L 135.5 67.5 L 73.0 74.1 Z M 75.5 97.9 " fill="#F5D327" fill-opacity="0.41"></path></g></g><g><clipPath id="clip-1873"><path d="M 170.0 84.2 L 234.5 91.0 L 237.2 65.1 L 172.8 58.3 Z M 170.0 84.2 "></path></clipPath><g clip-path="url(#clip-1873)"><path d="M 171.1 83.3 L 233.6 89.9 L 236.1 66.0 L 173.6 59.4 Z M 171.1 83.3 " fill="#F5D327" fill-opacity="0.41"></path></g></g></g></svg>