<?xml version="1.0" encoding="UTF-8" standalone="no"?><svg xmlns="http://www.w3.org/2000/svg" xmlns:xlink="http://www.w3.org/1999/xlink" clip-rule="evenodd" stroke-miterlimit="4.00" viewBox="0 0 561 266"><desc>SVG generated by Keynote</desc><defs></defs><g transform="matrix(1.00, 0.00, -0.00, -1.00, 0.0, 266.0)"><g><clipPath id="clip-661"><path d="M 0.2 0.1 L 560.5 0.1 L 560.5 265.6 L 0.2 265.6 Z M 0.2 0.1 "></path></clipPath><g clip-path="url(#clip-661)"><image xlink:href="../../905551FE-997C-44F3-A1C7-4128C656A06E/assets/6BE943A89C8CA4AA45348DF68BECB8B5.png" width="559.00" height="150.00" transform="matrix(1.00, 0.00, -0.00, -1.00, 1.2, 151.1)" opacity="0.75"></image><path d="M 122.2 97.2 L 122.2 247.5 C 122.2 256.4 129.5 263.6 138.4 263.6 L 422.4 263.6 C 431.3 263.6 438.5 256.4 438.5 247.5 L 438.5 97.2 C 438.5 88.3 431.3 81.1 422.4 81.1 L 138.4 81.1 C 129.5 81.1 122.2 88.3 122.2 97.2 Z M 122.2 97.2 " fill="#FEFFFE"></path><path d="M 0.0 166.4 L 0.0 16.1 C 0.0 7.2 7.2 0.0 16.1 0.0 L 300.2 0.0 C 309.1 0.0 316.3 7.2 316.3 16.1 L 316.3 166.4 C 316.3 175.4 309.1 182.6 300.2 182.6 L 16.1 182.6 C 7.2 182.6 0.0 175.4 0.0 166.4 Z M 0.0 166.4 " fill="none" stroke="#7995B9" stroke-width="2.00" transform="matrix(1.00, 0.00, 0.00, -1.00, 122.2, 263.6)"></path></g></g><g><clipPath id="clip-662"><path d="M 125.5 213.6 L 346.8 213.6 L 346.8 266.0 L 125.5 266.0 Z M 125.5 213.6 "></path></clipPath><g clip-path="url(#clip-662)"><text xml:space="preserve" font-family="Palatino-Roman" font-size="28.0" fill="#324763" transform="matrix(1.00, 0.00, -0.00, -1.00, 133.0, 229.0)">V</text><text xml:space="preserve" font-family="Palatino-Roman" font-size="28.0" fill="#324763" transform="matrix(1.00, 0.00, -0.00, -1.00, 150.7, 229.0)">a</text><text xml:space="preserve" font-family="Palatino-Roman" font-size="28.0" fill="#324763" transform="matrix(1.00, 0.00, -0.00, -1.00, 164.7, 229.0)">r</text><text xml:space="preserve" font-family="Palatino-Roman" font-size="28.0" fill="#324763" transform="matrix(1.00, 0.00, -0.00, -1.00, 175.7, 229.0)">i</text><text xml:space="preserve" font-family="Palatino-Roman" font-size="28.0" fill="#324763" transform="matrix(1.00, 0.00, -0.00, -1.00, 183.9, 229.0)">a</text><text xml:space="preserve" font-family="Palatino-Roman" font-size="28.0" fill="#324763" transform="matrix(1.00, 0.00, -0.00, -1.00, 197.9, 229.0)">b</text><text xml:space="preserve" font-family="Palatino-Roman" font-size="28.0" fill="#324763" transform="matrix(1.00, 0.00, -0.00, -1.00, 213.4, 229.0)">l</text><text xml:space="preserve" font-family="Palatino-Roman" font-size="28.0" fill="#324763" transform="matrix(1.00, 0.00, -0.00, -1.00, 221.5, 229.0)">e</text><text xml:space="preserve" font-family="Palatino-Roman" font-size="28.0" fill="#324763" transform="matrix(1.00, 0.00, -0.00, -1.00, 234.9, 229.0)"> </text><text xml:space="preserve" font-family="Palatino-Roman" font-size="28.0" fill="#324763" transform="matrix(1.00, 0.00, -0.00, -1.00, 241.9, 229.0)">a</text><text xml:space="preserve" font-family="Palatino-Roman" font-size="28.0" fill="#324763" transform="matrix(1.00, 0.00, -0.00, -1.00, 255.9, 229.0)">d</text><text xml:space="preserve" font-family="Palatino-Roman" font-size="28.0" fill="#324763" transform="matrix(1.00, 0.00, -0.00, -1.00, 273.0, 229.0)">d</text><text xml:space="preserve" font-family="Palatino-Roman" font-size="28.0" fill="#324763" transform="matrix(1.00, 0.00, -0.00, -1.00, 290.1, 229.0)">r</text><text xml:space="preserve" font-family="Palatino-Roman" font-size="28.0" fill="#324763" transform="matrix(1.00, 0.00, -0.00, -1.00, 300.7, 229.0)">e</text><text xml:space="preserve" font-family="Palatino-Roman" font-size="28.0" fill="#324763" transform="matrix(1.00, 0.00, -0.00, -1.00, 314.1, 229.0)">s</text><text xml:space="preserve" font-family="Palatino-Roman" font-size="28.0" fill="#324763" transform="matrix(1.00, 0.00, -0.00, -1.00, 326.0, 229.0)">s</text></g></g><g><clipPath id="clip-663"><path d="M 143.7 114.8 L 435.6 114.8 L 435.6 213.8 L 143.7 213.8 Z M 143.7 114.8 "></path></clipPath><g clip-path="url(#clip-663)"><text xml:space="preserve" font-family="Palatino-Roman" font-size="30.0" fill="#E42100" transform="matrix(1.00, 0.00, -0.00, -1.00, 149.7, 181.6)">•</text><text xml:space="preserve" font-family="Courier" font-size="24.0" fill="#000000" transform="matrix(1.00, 0.00, -0.00, -1.00, 186.0, 185.0)">$</text><text xml:space="preserve" font-family="Courier" font-size="24.0" fill="#000000" transform="matrix(1.00, 0.00, -0.00, -1.00, 200.4, 185.0)">n</text><text xml:space="preserve" font-family="Courier" font-size="24.0" fill="#000000" transform="matrix(1.00, 0.00, -0.00, -1.00, 214.8, 185.0)">a</text><text xml:space="preserve" font-family="Courier" font-size="24.0" fill="#000000" transform="matrix(1.00, 0.00, -0.00, -1.00, 229.2, 185.0)">m</text><text xml:space="preserve" font-family="Courier" font-size="24.0" fill="#000000" transform="matrix(1.00, 0.00, -0.00, -1.00, 243.6, 185.0)">e</text><text xml:space="preserve" font-family="Palatino-Roman" font-size="30.0" fill="#E42100" transform="matrix(1.00, 0.00, -0.00, -1.00, 149.7, 152.6)">•</text><text xml:space="preserve" font-family="Courier" font-size="24.0" fill="#000000" transform="matrix(1.00, 0.00, -0.00, -1.00, 186.0, 156.0)">$</text><text xml:space="preserve" font-family="Courier" font-size="24.0" fill="#000000" transform="matrix(1.00, 0.00, -0.00, -1.00, 200.4, 156.0)">s</text><text xml:space="preserve" font-family="Courier" font-size="24.0" fill="#000000" transform="matrix(1.00, 0.00, -0.00, -1.00, 214.8, 156.0)">c</text><text xml:space="preserve" font-family="Courier" font-size="24.0" fill="#000000" transform="matrix(1.00, 0.00, -0.00, -1.00, 229.2, 156.0)">e</text><text xml:space="preserve" font-family="Courier" font-size="24.0" fill="#000000" transform="matrix(1.00, 0.00, -0.00, -1.00, 243.6, 156.0)">n</text><text xml:space="preserve" font-family="Courier" font-size="24.0" fill="#000000" transform="matrix(1.00, 0.00, -0.00, -1.00, 258.0, 156.0)">e</text><text xml:space="preserve" font-family="Palatino-Roman" font-size="30.0" fill="#E42100" transform="matrix(1.00, 0.00, -0.00, -1.00, 149.7, 123.6)">•</text><text xml:space="preserve" font-family="Courier" font-size="24.0" fill="#000000" transform="matrix(1.00, 0.00, -0.00, -1.00, 186.0, 127.0)">$</text><text xml:space="preserve" font-family="Courier" font-size="24.0" fill="#000000" transform="matrix(1.00, 0.00, -0.00, -1.00, 200.4, 127.0)">a</text><text xml:space="preserve" font-family="Courier" font-size="24.0" fill="#000000" transform="matrix(1.00, 0.00, -0.00, -1.00, 214.8, 127.0)">d</text><text xml:space="preserve" font-family="Courier" font-size="24.0" fill="#000000" transform="matrix(1.00, 0.00, -0.00, -1.00, 229.2, 127.0)">d</text><text xml:space="preserve" font-family="Courier" font-size="24.0" fill="#000000" transform="matrix(1.00, 0.00, -0.00, -1.00, 243.6, 127.0)">r</text><text xml:space="preserve" font-family="Courier" font-size="24.0" fill="#000000" transform="matrix(1.00, 0.00, -0.00, -1.00, 258.0, 127.0)">e</text><text xml:space="preserve" font-family="Courier" font-size="24.0" fill="#000000" transform="matrix(1.00, 0.00, -0.00, -1.00, 272.4, 127.0)">s</text><text xml:space="preserve" font-family="Courier" font-size="24.0" fill="#000000" transform="matrix(1.00, 0.00, -0.00, -1.00, 286.8, 127.0)">s</text></g></g></g></svg>