<?xml version="1.0" encoding="UTF-8" standalone="no"?><svg xmlns="http://www.w3.org/2000/svg" xmlns:xlink="http://www.w3.org/1999/xlink" clip-rule="evenodd" stroke-miterlimit="4.00" viewBox="0 0 561 266"><desc>SVG generated by Keynote</desc><defs></defs><g transform="matrix(1.00, 0.00, -0.00, -1.00, 0.0, 266.0)"><g><clipPath id="clip-658"><path d="M 0.4 0.3 L 560.7 0.3 L 560.7 265.9 L 0.4 265.9 Z M 0.4 0.3 "></path></clipPath><g clip-path="url(#clip-658)"><image xlink:href="../../905551FE-997C-44F3-A1C7-4128C656A06E/assets/6BE943A89C8CA4AA45348DF68BECB8B5.png" width="559.00" height="150.00" transform="matrix(1.00, 0.00, -0.00, -1.00, 1.4, 151.3)" opacity="0.75"></image><path d="M 122.4 97.5 L 122.4 247.8 C 122.4 256.7 129.6 263.9 138.6 263.9 L 422.6 263.9 C 431.5 263.9 438.7 256.7 438.7 247.8 L 438.7 97.5 C 438.7 88.6 431.5 81.3 422.6 81.3 L 138.6 81.3 C 129.6 81.3 122.4 88.6 122.4 97.5 Z M 122.4 97.5 " fill="#FEFFFE"></path><path d="M 0.0 166.4 L 0.0 16.1 C 0.0 7.2 7.2 0.0 16.1 0.0 L 300.2 0.0 C 309.1 0.0 316.3 7.2 316.3 16.1 L 316.3 166.4 C 316.3 175.4 309.1 182.6 300.2 182.6 L 16.1 182.6 C 7.2 182.6 0.0 175.4 0.0 166.4 Z M 0.0 166.4 " fill="none" stroke="#7995B9" stroke-width="2.00" transform="matrix(1.00, 0.00, 0.00, -1.00, 122.4, 263.9)"></path></g></g><g><clipPath id="clip-659"><path d="M 125.7 213.9 L 390.5 213.9 L 390.5 266.3 L 125.7 266.3 Z M 125.7 213.9 "></path></clipPath><g clip-path="url(#clip-659)"><text xml:space="preserve" font-family="Palatino-Roman" font-size="28.0" fill="#324763" transform="matrix(1.00, 0.00, -0.00, -1.00, 133.0, 229.0)">V</text><text xml:space="preserve" font-family="Palatino-Roman" font-size="28.0" fill="#324763" transform="matrix(1.00, 0.00, -0.00, -1.00, 150.7, 229.0)">a</text><text xml:space="preserve" font-family="Palatino-Roman" font-size="28.0" fill="#324763" transform="matrix(1.00, 0.00, -0.00, -1.00, 164.7, 229.0)">r</text><text xml:space="preserve" font-family="Palatino-Roman" font-size="28.0" fill="#324763" transform="matrix(1.00, 0.00, -0.00, -1.00, 175.7, 229.0)">i</text><text xml:space="preserve" font-family="Palatino-Roman" font-size="28.0" fill="#324763" transform="matrix(1.00, 0.00, -0.00, -1.00, 183.9, 229.0)">a</text><text xml:space="preserve" font-family="Palatino-Roman" font-size="28.0" fill="#324763" transform="matrix(1.00, 0.00, -0.00, -1.00, 197.9, 229.0)">b</text><text xml:space="preserve" font-family="Palatino-Roman" font-size="28.0" fill="#324763" transform="matrix(1.00, 0.00, -0.00, -1.00, 213.4, 229.0)">l</text><text xml:space="preserve" font-family="Palatino-Roman" font-size="28.0" fill="#324763" transform="matrix(1.00, 0.00, -0.00, -1.00, 221.5, 229.0)">e</text><text xml:space="preserve" font-family="Palatino-Roman" font-size="28.0" fill="#324763" transform="matrix(1.00, 0.00, -0.00, -1.00, 234.9, 229.0)"> </text><text xml:space="preserve" font-family="Palatino-Roman" font-size="28.0" fill="#324763" transform="matrix(1.00, 0.00, -0.00, -1.00, 241.9, 229.0)">p</text><text xml:space="preserve" font-family="Palatino-Roman" font-size="28.0" fill="#324763" transform="matrix(1.00, 0.00, -0.00, -1.00, 258.8, 229.0)">a</text><text xml:space="preserve" font-family="Palatino-Roman" font-size="28.0" fill="#324763" transform="matrix(1.00, 0.00, -0.00, -1.00, 272.8, 229.0)">r</text><text xml:space="preserve" font-family="Palatino-Roman" font-size="28.0" fill="#324763" transform="matrix(1.00, 0.00, -0.00, -1.00, 283.8, 229.0)">a</text><text xml:space="preserve" font-family="Palatino-Roman" font-size="28.0" fill="#324763" transform="matrix(1.00, 0.00, -0.00, -1.00, 297.8, 229.0)">m</text><text xml:space="preserve" font-family="Palatino-Roman" font-size="28.0" fill="#324763" transform="matrix(1.00, 0.00, -0.00, -1.00, 322.5, 229.0)">e</text><text xml:space="preserve" font-family="Palatino-Roman" font-size="28.0" fill="#324763" transform="matrix(1.00, 0.00, -0.00, -1.00, 335.9, 229.0)">t</text><text xml:space="preserve" font-family="Palatino-Roman" font-size="28.0" fill="#324763" transform="matrix(1.00, 0.00, -0.00, -1.00, 345.1, 229.0)">e</text><text xml:space="preserve" font-family="Palatino-Roman" font-size="28.0" fill="#324763" transform="matrix(1.00, 0.00, -0.00, -1.00, 358.5, 229.0)">r</text><text xml:space="preserve" font-family="Palatino-Roman" font-size="28.0" fill="#324763" transform="matrix(1.00, 0.00, -0.00, -1.00, 369.6, 229.0)">s</text></g></g><g><clipPath id="clip-660"><path d="M 140.4 100.6 L 590.6 100.6 L 590.6 228.6 L 140.4 228.6 Z M 140.4 100.6 "></path></clipPath><g clip-path="url(#clip-660)"><text xml:space="preserve" font-family="Palatino-Roman" font-size="30.0" fill="#E42100" transform="matrix(1.00, 0.00, -0.00, -1.00, 146.4, 196.4)">•</text><text xml:space="preserve" font-family="Courier" font-size="24.0" fill="#000000" transform="matrix(1.00, 0.00, -0.00, -1.00, 182.0, 200.0)">$</text><text xml:space="preserve" font-family="Courier" font-size="24.0" fill="#000000" transform="matrix(1.00, 0.00, -0.00, -1.00, 196.4, 200.0)">x</text><text xml:space="preserve" font-family="Courier" font-size="24.0" fill="#000000" transform="matrix(1.00, 0.00, -0.00, -1.00, 210.8, 200.0)">,</text><text xml:space="preserve" font-family="Courier" font-size="24.0" fill="#000000" transform="matrix(1.00, 0.00, -0.00, -1.00, 225.2, 200.0)"> </text><text xml:space="preserve" font-family="Courier" font-size="24.0" fill="#000000" transform="matrix(1.00, 0.00, -0.00, -1.00, 239.6, 200.0)">$</text><text xml:space="preserve" font-family="Courier" font-size="24.0" fill="#000000" transform="matrix(1.00, 0.00, -0.00, -1.00, 254.0, 200.0)">y</text><text xml:space="preserve" font-family="Palatino-Roman" font-size="30.0" fill="#E42100" transform="matrix(1.00, 0.00, -0.00, -1.00, 146.4, 167.4)">•</text><text xml:space="preserve" font-family="Courier" font-size="24.0" fill="#000000" transform="matrix(1.00, 0.00, -0.00, -1.00, 182.0, 171.0)">$</text><text xml:space="preserve" font-family="Courier" font-size="24.0" fill="#000000" transform="matrix(1.00, 0.00, -0.00, -1.00, 196.4, 171.0)">s</text><text xml:space="preserve" font-family="Courier" font-size="24.0" fill="#000000" transform="matrix(1.00, 0.00, -0.00, -1.00, 210.8, 171.0)">x</text><text xml:space="preserve" font-family="Courier" font-size="24.0" fill="#000000" transform="matrix(1.00, 0.00, -0.00, -1.00, 225.2, 171.0)">,</text><text xml:space="preserve" font-family="Courier" font-size="24.0" fill="#000000" transform="matrix(1.00, 0.00, -0.00, -1.00, 239.6, 171.0)"> </text><text xml:space="preserve" font-family="Courier" font-size="24.0" fill="#000000" transform="matrix(1.00, 0.00, -0.00, -1.00, 254.0, 171.0)">$</text><text xml:space="preserve" font-family="Courier" font-size="24.0" fill="#000000" transform="matrix(1.00, 0.00, -0.00, -1.00, 268.4, 171.0)">s</text><text xml:space="preserve" font-family="Courier" font-size="24.0" fill="#000000" transform="matrix(1.00, 0.00, -0.00, -1.00, 282.8, 171.0)">y</text><text xml:space="preserve" font-family="Palatino-Roman" font-size="30.0" fill="#E42100" transform="matrix(1.00, 0.00, -0.00, -1.00, 146.4, 138.4)">•</text><text xml:space="preserve" font-family="Courier" font-size="24.0" fill="#000000" transform="matrix(1.00, 0.00, -0.00, -1.00, 182.0, 142.0)">$</text><text xml:space="preserve" font-family="Courier" font-size="24.0" fill="#000000" transform="matrix(1.00, 0.00, -0.00, -1.00, 196.4, 142.0)">a</text><text xml:space="preserve" font-family="Courier" font-size="24.0" fill="#000000" transform="matrix(1.00, 0.00, -0.00, -1.00, 210.8, 142.0)">b</text><text xml:space="preserve" font-family="Courier" font-size="24.0" fill="#000000" transform="matrix(1.00, 0.00, -0.00, -1.00, 225.2, 142.0)">s</text><text xml:space="preserve" font-family="Courier" font-size="24.0" fill="#000000" transform="matrix(1.00, 0.00, -0.00, -1.00, 239.6, 142.0)">x</text><text xml:space="preserve" font-family="Courier" font-size="24.0" fill="#000000" transform="matrix(1.00, 0.00, -0.00, -1.00, 254.0, 142.0)">,</text><text xml:space="preserve" font-family="Courier" font-size="24.0" fill="#000000" transform="matrix(1.00, 0.00, -0.00, -1.00, 268.4, 142.0)"> </text><text xml:space="preserve" font-family="Courier" font-size="24.0" fill="#000000" transform="matrix(1.00, 0.00, -0.00, -1.00, 282.8, 142.0)">$</text><text xml:space="preserve" font-family="Courier" font-size="24.0" fill="#000000" transform="matrix(1.00, 0.00, -0.00, -1.00, 297.2, 142.0)">a</text><text xml:space="preserve" font-family="Courier" font-size="24.0" fill="#000000" transform="matrix(1.00, 0.00, -0.00, -1.00, 311.6, 142.0)">b</text><text xml:space="preserve" font-family="Courier" font-size="24.0" fill="#000000" transform="matrix(1.00, 0.00, -0.00, -1.00, 326.0, 142.0)">s</text><text xml:space="preserve" font-family="Courier" font-size="24.0" fill="#000000" transform="matrix(1.00, 0.00, -0.00, -1.00, 340.5, 142.0)">y</text><text xml:space="preserve" font-family="Palatino-Roman" font-size="30.0" fill="#E42100" transform="matrix(1.00, 0.00, -0.00, -1.00, 146.4, 109.4)">•</text><text xml:space="preserve" font-family="Courier" font-size="24.0" fill="#000000" transform="matrix(1.00, 0.00, -0.00, -1.00, 182.0, 113.0)">$</text><text xml:space="preserve" font-family="Courier" font-size="24.0" fill="#000000" transform="matrix(1.00, 0.00, -0.00, -1.00, 196.4, 113.0)">d</text><text xml:space="preserve" font-family="Courier" font-size="24.0" fill="#000000" transform="matrix(1.00, 0.00, -0.00, -1.00, 210.8, 113.0)">a</text><text xml:space="preserve" font-family="Courier" font-size="24.0" fill="#000000" transform="matrix(1.00, 0.00, -0.00, -1.00, 225.2, 113.0)">t</text><text xml:space="preserve" font-family="Courier" font-size="24.0" fill="#000000" transform="matrix(1.00, 0.00, -0.00, -1.00, 239.6, 113.0)">e</text><text xml:space="preserve" font-family="Courier" font-size="24.0" fill="#000000" transform="matrix(1.00, 0.00, -0.00, -1.00, 254.0, 113.0)">,</text><text xml:space="preserve" font-family="Courier" font-size="24.0" fill="#000000" transform="matrix(1.00, 0.00, -0.00, -1.00, 268.4, 113.0)"> </text><text xml:space="preserve" font-family="Courier" font-size="24.0" fill="#000000" transform="matrix(1.00, 0.00, -0.00, -1.00, 282.8, 113.0)">$</text><text xml:space="preserve" font-family="Courier" font-size="24.0" fill="#000000" transform="matrix(1.00, 0.00, -0.00, -1.00, 297.2, 113.0)">r</text><text xml:space="preserve" font-family="Courier" font-size="24.0" fill="#000000" transform="matrix(1.00, 0.00, -0.00, -1.00, 311.6, 113.0)">d</text><text xml:space="preserve" font-family="Courier" font-size="24.0" fill="#000000" transform="matrix(1.00, 0.00, -0.00, -1.00, 326.0, 113.0)">a</text><text xml:space="preserve" font-family="Courier" font-size="24.0" fill="#000000" transform="matrix(1.00, 0.00, -0.00, -1.00, 340.5, 113.0)">t</text><text xml:space="preserve" font-family="Courier" font-size="24.0" fill="#000000" transform="matrix(1.00, 0.00, -0.00, -1.00, 354.9, 113.0)">e</text></g></g></g></svg>