<?xml version="1.0" encoding="UTF-8" standalone="no"?><svg xmlns="http://www.w3.org/2000/svg" xmlns:xlink="http://www.w3.org/1999/xlink" clip-rule="evenodd" stroke-miterlimit="4.00" viewBox="0 0 87 17"><desc>SVG generated by Keynote</desc><defs></defs><g transform="matrix(1.00, 0.00, -0.00, -1.00, 0.0, 17.0)"><text xml:space="preserve" font-family="Monaco" font-size="16.0" fill="#F5D327" transform="matrix(1.00, 0.00, -0.00, -1.00, 0.8, 2.0)">i</text><text xml:space="preserve" font-family="Monaco" font-size="16.0" fill="#F5D327" transform="matrix(1.00, 0.00, -0.00, -1.00, 10.4, 2.0)">n</text><text xml:space="preserve" font-family="Monaco" font-size="16.0" fill="#F5D327" transform="matrix(1.00, 0.00, -0.00, -1.00, 20.0, 2.0)">n</text><text xml:space="preserve" font-family="Monaco" font-size="16.0" fill="#F5D327" transform="matrix(1.00, 0.00, -0.00, -1.00, 29.6, 2.0)">e</text><text xml:space="preserve" font-family="Monaco" font-size="16.0" fill="#F5D327" transform="matrix(1.00, 0.00, -0.00, -1.00, 39.2, 2.0)">r</text><text xml:space="preserve" font-family="Monaco" font-size="16.0" fill="#F5D327" transform="matrix(1.00, 0.00, -0.00, -1.00, 48.8, 2.0)">H</text><text xml:space="preserve" font-family="Monaco" font-size="16.0" fill="#F5D327" transform="matrix(1.00, 0.00, -0.00, -1.00, 58.4, 2.0)">T</text><text xml:space="preserve" font-family="Monaco" font-size="16.0" fill="#F5D327" transform="matrix(1.00, 0.00, -0.00, -1.00, 68.1, 2.0)">M</text><text xml:space="preserve" font-family="Monaco" font-size="16.0" fill="#F5D327" transform="matrix(1.00, 0.00, -0.00, -1.00, 77.7, 2.0)">L</text></g></svg>