<?xml version="1.0" encoding="UTF-8" standalone="no"?><svg xmlns="http://www.w3.org/2000/svg" xmlns:xlink="http://www.w3.org/1999/xlink" clip-rule="evenodd" stroke-miterlimit="4.00" viewBox="0 0 127 21"><desc>SVG generated by Keynote</desc><defs></defs><g transform="matrix(1.00, 0.00, -0.00, -1.00, 0.0, 21.0)"><text xml:space="preserve" font-family="Monaco" font-size="16.0" fill="#FEFFFE" transform="matrix(1.00, 0.00, -0.00, -1.00, 1.0, 6.0)">p</text><text xml:space="preserve" font-family="Monaco" font-size="16.0" fill="#FEFFFE" transform="matrix(1.00, 0.00, -0.00, -1.00, 10.7, 6.0)">r</text><text xml:space="preserve" font-family="Monaco" font-size="16.0" fill="#FEFFFE" transform="matrix(1.00, 0.00, -0.00, -1.00, 20.3, 6.0)">o</text><text xml:space="preserve" font-family="Monaco" font-size="16.0" fill="#FEFFFE" transform="matrix(1.00, 0.00, -0.00, -1.00, 29.9, 6.0)">c</text><text xml:space="preserve" font-family="Monaco" font-size="16.0" fill="#FEFFFE" transform="matrix(1.00, 0.00, -0.00, -1.00, 39.5, 6.0)">e</text><text xml:space="preserve" font-family="Monaco" font-size="16.0" fill="#FEFFFE" transform="matrix(1.00, 0.00, -0.00, -1.00, 49.1, 6.0)">s</text><text xml:space="preserve" font-family="Monaco" font-size="16.0" fill="#FEFFFE" transform="matrix(1.00, 0.00, -0.00, -1.00, 58.7, 6.0)">s</text><text xml:space="preserve" font-family="Monaco" font-size="16.0" fill="#FEFFFE" transform="matrix(1.00, 0.00, -0.00, -1.00, 68.3, 6.0)">G</text><text xml:space="preserve" font-family="Monaco" font-size="16.0" fill="#FEFFFE" transform="matrix(1.00, 0.00, -0.00, -1.00, 77.9, 6.0)">M</text><text xml:space="preserve" font-family="Monaco" font-size="16.0" fill="#FEFFFE" transform="matrix(1.00, 0.00, -0.00, -1.00, 87.5, 6.0)">N</text><text xml:space="preserve" font-family="Monaco" font-size="16.0" fill="#FEFFFE" transform="matrix(1.00, 0.00, -0.00, -1.00, 97.1, 6.0)">D</text><text xml:space="preserve" font-family="Monaco" font-size="16.0" fill="#FEFFFE" transform="matrix(1.00, 0.00, -0.00, -1.00, 106.7, 6.0)">i</text><text xml:space="preserve" font-family="Monaco" font-size="16.0" fill="#FEFFFE" transform="matrix(1.00, 0.00, -0.00, -1.00, 116.3, 6.0)">v</text></g></svg>