<?xml version="1.0" encoding="UTF-8" standalone="no"?><svg xmlns="http://www.w3.org/2000/svg" xmlns:xlink="http://www.w3.org/1999/xlink" clip-rule="evenodd" stroke-miterlimit="4.00" viewBox="0 0 403 33"><desc>SVG generated by Keynote</desc><defs></defs><g transform="matrix(1.00, 0.00, -0.00, -1.00, 0.0, 33.0)"><text xml:space="preserve" font-family="Courier" font-size="32.0" fill="#F5D327" transform="matrix(1.00, 0.00, -0.00, -1.00, -1.0, 9.0)">\</text><text xml:space="preserve" font-family="Courier" font-size="32.0" fill="#DCDDE0" transform="matrix(1.00, 0.00, -0.00, -1.00, 18.2, 9.0)">t</text><text xml:space="preserve" font-family="Courier" font-size="32.0" fill="#DCDDE0" transform="matrix(1.00, 0.00, -0.00, -1.00, 37.4, 9.0)">a</text><text xml:space="preserve" font-family="Courier" font-size="32.0" fill="#DCDDE0" transform="matrix(1.00, 0.00, -0.00, -1.00, 56.6, 9.0)">g</text><text xml:space="preserve" font-family="Courier" font-size="32.0" fill="#DCDDE0" transform="matrix(1.00, 0.00, -0.00, -1.00, 75.8, 9.0)">N</text><text xml:space="preserve" font-family="Courier" font-size="32.0" fill="#DCDDE0" transform="matrix(1.00, 0.00, -0.00, -1.00, 95.0, 9.0)">a</text><text xml:space="preserve" font-family="Courier" font-size="32.0" fill="#DCDDE0" transform="matrix(1.00, 0.00, -0.00, -1.00, 114.2, 9.0)">m</text><text xml:space="preserve" font-family="Courier" font-size="32.0" fill="#DCDDE0" transform="matrix(1.00, 0.00, -0.00, -1.00, 133.4, 9.0)">e</text><text xml:space="preserve" font-family="Courier" font-size="32.0" fill="#F5D327" transform="matrix(1.00, 0.00, -0.00, -1.00, 152.6, 9.0)">&lt;</text><text xml:space="preserve" font-family="Courier" font-size="32.0" fill="#DCDDE0" transform="matrix(1.00, 0.00, -0.00, -1.00, 171.8, 9.0)">p</text><text xml:space="preserve" font-family="Courier" font-size="32.0" fill="#DCDDE0" transform="matrix(1.00, 0.00, -0.00, -1.00, 191.0, 9.0)">a</text><text xml:space="preserve" font-family="Courier" font-size="32.0" fill="#DCDDE0" transform="matrix(1.00, 0.00, -0.00, -1.00, 210.2, 9.0)">r</text><text xml:space="preserve" font-family="Courier" font-size="32.0" fill="#DCDDE0" transform="matrix(1.00, 0.00, -0.00, -1.00, 229.4, 9.0)">a</text><text xml:space="preserve" font-family="Courier" font-size="32.0" fill="#DCDDE0" transform="matrix(1.00, 0.00, -0.00, -1.00, 248.7, 9.0)">m</text><text xml:space="preserve" font-family="Courier" font-size="32.0" fill="#DCDDE0" transform="matrix(1.00, 0.00, -0.00, -1.00, 267.9, 9.0)">s</text><text xml:space="preserve" font-family="Courier" font-size="32.0" fill="#DCDDE0" transform="matrix(1.00, 0.00, -0.00, -1.00, 287.1, 9.0)">-</text><text xml:space="preserve" font-family="Courier" font-size="32.0" fill="#DCDDE0" transform="matrix(1.00, 0.00, -0.00, -1.00, 306.3, 9.0)">l</text><text xml:space="preserve" font-family="Courier" font-size="32.0" fill="#DCDDE0" transform="matrix(1.00, 0.00, -0.00, -1.00, 325.5, 9.0)">i</text><text xml:space="preserve" font-family="Courier" font-size="32.0" fill="#DCDDE0" transform="matrix(1.00, 0.00, -0.00, -1.00, 344.7, 9.0)">s</text><text xml:space="preserve" font-family="Courier" font-size="32.0" fill="#DCDDE0" transform="matrix(1.00, 0.00, -0.00, -1.00, 363.9, 9.0)">t</text><text xml:space="preserve" font-family="Courier" font-size="32.0" fill="#F5D327" transform="matrix(1.00, 0.00, -0.00, -1.00, 383.1, 9.0)">&gt;</text></g></svg>