<?xml version="1.0" encoding="UTF-8" standalone="no"?><svg xmlns="http://www.w3.org/2000/svg" xmlns:xlink="http://www.w3.org/1999/xlink" clip-rule="evenodd" stroke-miterlimit="4.00" viewBox="0 0 161 19"><desc>SVG generated by Keynote</desc><defs></defs><g transform="matrix(1.00, 0.00, -0.00, -1.00, 0.0, 19.0)"><text xml:space="preserve" font-family="Courier" font-size="22.0" fill="#51A7F9" transform="matrix(1.00, 0.00, -0.00, -1.00, 1.7, 1.4)">G</text><text xml:space="preserve" font-family="Courier" font-size="22.0" fill="#51A7F9" transform="matrix(1.00, 0.00, -0.00, -1.00, 14.9, 1.4)">u</text><text xml:space="preserve" font-family="Courier" font-size="22.0" fill="#51A7F9" transform="matrix(1.00, 0.00, -0.00, -1.00, 28.1, 1.4)">i</text><text xml:space="preserve" font-family="Courier" font-size="22.0" fill="#51A7F9" transform="matrix(1.00, 0.00, -0.00, -1.00, 41.3, 1.4)">d</text><text xml:space="preserve" font-family="Courier" font-size="22.0" fill="#51A7F9" transform="matrix(1.00, 0.00, -0.00, -1.00, 54.5, 1.4)">o</text><text xml:space="preserve" font-family="Courier" font-size="22.0" fill="#51A7F9" transform="matrix(1.00, 0.00, -0.00, -1.00, 67.7, 1.4)">E</text><text xml:space="preserve" font-family="Courier" font-size="22.0" fill="#51A7F9" transform="matrix(1.00, 0.00, -0.00, -1.00, 80.9, 1.4)">r</text><text xml:space="preserve" font-family="Courier" font-size="22.0" fill="#51A7F9" transform="matrix(1.00, 0.00, -0.00, -1.00, 94.1, 1.4)">r</text><text xml:space="preserve" font-family="Courier" font-size="22.0" fill="#51A7F9" transform="matrix(1.00, 0.00, -0.00, -1.00, 107.3, 1.4)">C</text><text xml:space="preserve" font-family="Courier" font-size="22.0" fill="#51A7F9" transform="matrix(1.00, 0.00, -0.00, -1.00, 120.5, 1.4)">o</text><text xml:space="preserve" font-family="Courier" font-size="22.0" fill="#51A7F9" transform="matrix(1.00, 0.00, -0.00, -1.00, 133.7, 1.4)">d</text><text xml:space="preserve" font-family="Courier" font-size="22.0" fill="#51A7F9" transform="matrix(1.00, 0.00, -0.00, -1.00, 146.9, 1.4)">e</text></g></svg>