<?xml version="1.0" encoding="UTF-8" standalone="no"?><svg xmlns="http://www.w3.org/2000/svg" xmlns:xlink="http://www.w3.org/1999/xlink" clip-rule="evenodd" stroke-miterlimit="4.00" viewBox="0 0 161 19"><desc>SVG generated by Keynote</desc><defs></defs><g transform="matrix(1.00, 0.00, -0.00, -1.00, 0.0, 19.0)"><text xml:space="preserve" font-family="Courier" font-size="22.0" fill="#51A7F9" transform="matrix(1.00, 0.00, -0.00, -1.00, 1.5, 2.0)">G</text><text xml:space="preserve" font-family="Courier" font-size="22.0" fill="#51A7F9" transform="matrix(1.00, 0.00, -0.00, -1.00, 14.7, 2.0)">u</text><text xml:space="preserve" font-family="Courier" font-size="22.0" fill="#51A7F9" transform="matrix(1.00, 0.00, -0.00, -1.00, 27.9, 2.0)">i</text><text xml:space="preserve" font-family="Courier" font-size="22.0" fill="#51A7F9" transform="matrix(1.00, 0.00, -0.00, -1.00, 41.1, 2.0)">d</text><text xml:space="preserve" font-family="Courier" font-size="22.0" fill="#51A7F9" transform="matrix(1.00, 0.00, -0.00, -1.00, 54.3, 2.0)">o</text><text xml:space="preserve" font-family="Courier" font-size="22.0" fill="#51A7F9" transform="matrix(1.00, 0.00, -0.00, -1.00, 67.5, 2.0)">E</text><text xml:space="preserve" font-family="Courier" font-size="22.0" fill="#51A7F9" transform="matrix(1.00, 0.00, -0.00, -1.00, 80.7, 2.0)">r</text><text xml:space="preserve" font-family="Courier" font-size="22.0" fill="#51A7F9" transform="matrix(1.00, 0.00, -0.00, -1.00, 93.9, 2.0)">r</text><text xml:space="preserve" font-family="Courier" font-size="22.0" fill="#51A7F9" transform="matrix(1.00, 0.00, -0.00, -1.00, 107.1, 2.0)">C</text><text xml:space="preserve" font-family="Courier" font-size="22.0" fill="#51A7F9" transform="matrix(1.00, 0.00, -0.00, -1.00, 120.3, 2.0)">o</text><text xml:space="preserve" font-family="Courier" font-size="22.0" fill="#51A7F9" transform="matrix(1.00, 0.00, -0.00, -1.00, 133.5, 2.0)">d</text><text xml:space="preserve" font-family="Courier" font-size="22.0" fill="#51A7F9" transform="matrix(1.00, 0.00, -0.00, -1.00, 146.8, 2.0)">e</text></g></svg>