<?xml version="1.0" encoding="UTF-8" standalone="no"?><svg xmlns="http://www.w3.org/2000/svg" xmlns:xlink="http://www.w3.org/1999/xlink" clip-rule="evenodd" stroke-miterlimit="4.00" viewBox="0 0 161 19"><desc>SVG generated by Keynote</desc><defs></defs><g transform="matrix(1.00, 0.00, -0.00, -1.00, 0.0, 19.0)"><text xml:space="preserve" font-family="Courier" font-size="22.0" fill="#51A7F9" transform="matrix(1.00, 0.00, -0.00, -1.00, 1.1, 2.1)">G</text><text xml:space="preserve" font-family="Courier" font-size="22.0" fill="#51A7F9" transform="matrix(1.00, 0.00, -0.00, -1.00, 14.3, 2.1)">G</text><text xml:space="preserve" font-family="Courier" font-size="22.0" fill="#51A7F9" transform="matrix(1.00, 0.00, -0.00, -1.00, 27.5, 2.1)">u</text><text xml:space="preserve" font-family="Courier" font-size="22.0" fill="#51A7F9" transform="matrix(1.00, 0.00, -0.00, -1.00, 40.7, 2.1)">i</text><text xml:space="preserve" font-family="Courier" font-size="22.0" fill="#51A7F9" transform="matrix(1.00, 0.00, -0.00, -1.00, 53.9, 2.1)">d</text><text xml:space="preserve" font-family="Courier" font-size="22.0" fill="#51A7F9" transform="matrix(1.00, 0.00, -0.00, -1.00, 67.1, 2.1)">o</text><text xml:space="preserve" font-family="Courier" font-size="22.0" fill="#51A7F9" transform="matrix(1.00, 0.00, -0.00, -1.00, 80.3, 2.1)">P</text><text xml:space="preserve" font-family="Courier" font-size="22.0" fill="#51A7F9" transform="matrix(1.00, 0.00, -0.00, -1.00, 93.5, 2.1)">a</text><text xml:space="preserve" font-family="Courier" font-size="22.0" fill="#51A7F9" transform="matrix(1.00, 0.00, -0.00, -1.00, 106.7, 2.1)">r</text><text xml:space="preserve" font-family="Courier" font-size="22.0" fill="#51A7F9" transform="matrix(1.00, 0.00, -0.00, -1.00, 120.0, 2.1)">s</text><text xml:space="preserve" font-family="Courier" font-size="22.0" fill="#51A7F9" transform="matrix(1.00, 0.00, -0.00, -1.00, 133.2, 2.1)">e</text><text xml:space="preserve" font-family="Courier" font-size="22.0" fill="#51A7F9" transform="matrix(1.00, 0.00, -0.00, -1.00, 146.4, 2.1)">r</text></g></svg>