<?xml version="1.0" encoding="UTF-8" standalone="no"?><svg xmlns="http://www.w3.org/2000/svg" xmlns:xlink="http://www.w3.org/1999/xlink" clip-rule="evenodd" stroke-miterlimit="4.00" viewBox="0 0 122 18"><desc>SVG generated by Keynote</desc><defs></defs><g transform="matrix(1.00, 0.00, -0.00, -1.00, 0.0, 18.0)"><text xml:space="preserve" font-family="Courier" font-size="22.0" fill="#DCBD22" transform="matrix(1.00, 0.00, -0.00, -1.00, 2.4, 2.0)">A</text><text xml:space="preserve" font-family="Courier" font-size="22.0" fill="#DCBD22" transform="matrix(1.00, 0.00, -0.00, -1.00, 15.6, 2.0)">R</text><text xml:space="preserve" font-family="Courier" font-size="22.0" fill="#DCBD22" transform="matrix(1.00, 0.00, -0.00, -1.00, 28.8, 2.0)">H</text><text xml:space="preserve" font-family="Courier" font-size="22.0" fill="#DCBD22" transform="matrix(1.00, 0.00, -0.00, -1.00, 42.0, 2.0)">a</text><text xml:space="preserve" font-family="Courier" font-size="22.0" fill="#DCBD22" transform="matrix(1.00, 0.00, -0.00, -1.00, 55.2, 2.0)">n</text><text xml:space="preserve" font-family="Courier" font-size="22.0" fill="#DCBD22" transform="matrix(1.00, 0.00, -0.00, -1.00, 68.4, 2.0)">d</text><text xml:space="preserve" font-family="Courier" font-size="22.0" fill="#DCBD22" transform="matrix(1.00, 0.00, -0.00, -1.00, 81.6, 2.0)">l</text><text xml:space="preserve" font-family="Courier" font-size="22.0" fill="#DCBD22" transform="matrix(1.00, 0.00, -0.00, -1.00, 94.8, 2.0)">e</text><text xml:space="preserve" font-family="Courier" font-size="22.0" fill="#DCBD22" transform="matrix(1.00, 0.00, -0.00, -1.00, 108.0, 2.0)">r</text></g></svg>