<?xml version="1.0" encoding="UTF-8" standalone="no"?><svg xmlns="http://www.w3.org/2000/svg" xmlns:xlink="http://www.w3.org/1999/xlink" clip-rule="evenodd" stroke-miterlimit="4.00" viewBox="0 0 1024 768"><desc>SVG generated by Keynote</desc><defs></defs><g transform="matrix(1.00, 0.00, -0.00, -1.00, 0.0, 768.0)"><path d="M 0.0 768.0 L 1024.0 768.0 L 1024.0 0.0 L 0.0 0.0 Z M 0.0 768.0 " fill="#000000"></path><text xml:space="preserve" font-family="Avenir-Book" font-size="20.0" fill="#D5D5D5" transform="matrix(1.00, 0.00, -0.00, -1.00, 259.0, 28.0)">N</text><text xml:space="preserve" font-family="Avenir-Book" font-size="20.0" fill="#D5D5D5" transform="matrix(1.00, 0.00, -0.00, -1.00, 274.6, 28.0)">e</text><text xml:space="preserve" font-family="Avenir-Book" font-size="20.0" fill="#D5D5D5" transform="matrix(1.00, 0.00, -0.00, -1.00, 285.7, 28.0)">w</text><text xml:space="preserve" font-family="Avenir-Book" font-size="20.0" fill="#D5D5D5" transform="matrix(1.00, 0.00, -0.00, -1.00, 300.1, 28.0)"> </text><text xml:space="preserve" font-family="Avenir-Book" font-size="20.0" fill="#D5D5D5" transform="matrix(1.00, 0.00, -0.00, -1.00, 305.7, 28.0)">A</text><text xml:space="preserve" font-family="Avenir-Book" font-size="20.0" fill="#D5D5D5" transform="matrix(1.00, 0.00, -0.00, -1.00, 319.4, 28.0)">p</text><text xml:space="preserve" font-family="Avenir-Book" font-size="20.0" fill="#D5D5D5" transform="matrix(1.00, 0.00, -0.00, -1.00, 331.6, 28.0)">p</text><text xml:space="preserve" font-family="Avenir-Book" font-size="20.0" fill="#D5D5D5" transform="matrix(1.00, 0.00, -0.00, -1.00, 343.8, 28.0)">r</text><text xml:space="preserve" font-family="Avenir-Book" font-size="20.0" fill="#D5D5D5" transform="matrix(1.00, 0.00, -0.00, -1.00, 350.1, 28.0)">o</text><text xml:space="preserve" font-family="Avenir-Book" font-size="20.0" fill="#D5D5D5" transform="matrix(1.00, 0.00, -0.00, -1.00, 362.0, 28.0)">a</text><text xml:space="preserve" font-family="Avenir-Book" font-size="20.0" fill="#D5D5D5" transform="matrix(1.00, 0.00, -0.00, -1.00, 372.4, 28.0)">c</text><text xml:space="preserve" font-family="Avenir-Book" font-size="20.0" fill="#D5D5D5" transform="matrix(1.00, 0.00, -0.00, -1.00, 382.0, 28.0)">h</text><text xml:space="preserve" font-family="Avenir-Book" font-size="20.0" fill="#D5D5D5" transform="matrix(1.00, 0.00, -0.00, -1.00, 393.1, 28.0)">e</text><text xml:space="preserve" font-family="Avenir-Book" font-size="20.0" fill="#D5D5D5" transform="matrix(1.00, 0.00, -0.00, -1.00, 404.2, 28.0)">s</text><text xml:space="preserve" font-family="Avenir-Book" font-size="20.0" fill="#D5D5D5" transform="matrix(1.00, 0.00, -0.00, -1.00, 412.8, 28.0)"> </text><text xml:space="preserve" font-family="Avenir-Book" font-size="20.0" fill="#D5D5D5" transform="matrix(1.00, 0.00, -0.00, -1.00, 418.3, 28.0)">f</text><text xml:space="preserve" font-family="Avenir-Book" font-size="20.0" fill="#D5D5D5" transform="matrix(1.00, 0.00, -0.00, -1.00, 424.2, 28.0)">o</text><text xml:space="preserve" font-family="Avenir-Book" font-size="20.0" fill="#D5D5D5" transform="matrix(1.00, 0.00, -0.00, -1.00, 436.1, 28.0)">r</text><text xml:space="preserve" font-family="Avenir-Book" font-size="20.0" fill="#D5D5D5" transform="matrix(1.00, 0.00, -0.00, -1.00, 442.7, 28.0)"> </text><text xml:space="preserve" font-family="Avenir-Book" font-size="20.0" fill="#D5D5D5" transform="matrix(1.00, 0.00, -0.00, -1.00, 448.3, 28.0)">M</text><text xml:space="preserve" font-family="Avenir-Book" font-size="20.0" fill="#D5D5D5" transform="matrix(1.00, 0.00, -0.00, -1.00, 466.1, 28.0)">u</text><text xml:space="preserve" font-family="Avenir-Book" font-size="20.0" fill="#D5D5D5" transform="matrix(1.00, 0.00, -0.00, -1.00, 477.2, 28.0)">s</text><text xml:space="preserve" font-family="Avenir-Book" font-size="20.0" fill="#D5D5D5" transform="matrix(1.00, 0.00, -0.00, -1.00, 485.7, 28.0)">i</text><text xml:space="preserve" font-family="Avenir-Book" font-size="20.0" fill="#D5D5D5" transform="matrix(1.00, 0.00, -0.00, -1.00, 490.5, 28.0)">c</text><text xml:space="preserve" font-family="Avenir-Book" font-size="20.0" fill="#D5D5D5" transform="matrix(1.00, 0.00, -0.00, -1.00, 500.2, 28.0)"> </text><text xml:space="preserve" font-family="Avenir-Book" font-size="20.0" fill="#D5D5D5" transform="matrix(1.00, 0.00, -0.00, -1.00, 505.7, 28.0)">R</text><text xml:space="preserve" font-family="Avenir-Book" font-size="20.0" fill="#D5D5D5" transform="matrix(1.00, 0.00, -0.00, -1.00, 517.6, 28.0)">e</text><text xml:space="preserve" font-family="Avenir-Book" font-size="20.0" fill="#D5D5D5" transform="matrix(1.00, 0.00, -0.00, -1.00, 528.7, 28.0)">p</text><text xml:space="preserve" font-family="Avenir-Book" font-size="20.0" fill="#D5D5D5" transform="matrix(1.00, 0.00, -0.00, -1.00, 540.9, 28.0)">r</text><text xml:space="preserve" font-family="Avenir-Book" font-size="20.0" fill="#D5D5D5" transform="matrix(1.00, 0.00, -0.00, -1.00, 547.2, 28.0)">e</text><text xml:space="preserve" font-family="Avenir-Book" font-size="20.0" fill="#D5D5D5" transform="matrix(1.00, 0.00, -0.00, -1.00, 558.3, 28.0)">s</text><text xml:space="preserve" font-family="Avenir-Book" font-size="20.0" fill="#D5D5D5" transform="matrix(1.00, 0.00, -0.00, -1.00, 566.9, 28.0)">e</text><text xml:space="preserve" font-family="Avenir-Book" font-size="20.0" fill="#D5D5D5" transform="matrix(1.00, 0.00, -0.00, -1.00, 578.0, 28.0)">n</text><text xml:space="preserve" font-family="Avenir-Book" font-size="20.0" fill="#D5D5D5" transform="matrix(1.00, 0.00, -0.00, -1.00, 589.1, 28.0)">t</text><text xml:space="preserve" font-family="Avenir-Book" font-size="20.0" fill="#D5D5D5" transform="matrix(1.00, 0.00, -0.00, -1.00, 595.7, 28.0)">a</text><text xml:space="preserve" font-family="Avenir-Book" font-size="20.0" fill="#D5D5D5" transform="matrix(1.00, 0.00, -0.00, -1.00, 606.1, 28.0)">t</text><text xml:space="preserve" font-family="Avenir-Book" font-size="20.0" fill="#D5D5D5" transform="matrix(1.00, 0.00, -0.00, -1.00, 612.8, 28.0)">i</text><text xml:space="preserve" font-family="Avenir-Book" font-size="20.0" fill="#D5D5D5" transform="matrix(1.00, 0.00, -0.00, -1.00, 617.6, 28.0)">o</text><text xml:space="preserve" font-family="Avenir-Book" font-size="20.0" fill="#D5D5D5" transform="matrix(1.00, 0.00, -0.00, -1.00, 629.4, 28.0)">n</text><text xml:space="preserve" font-family="Avenir-Book" font-size="20.0" fill="#D5D5D5" transform="matrix(1.00, 0.00, -0.00, -1.00, 640.5, 28.0)"> </text><text xml:space="preserve" font-family="Avenir-Book" font-size="20.0" fill="#D5D5D5" transform="matrix(1.00, 0.00, -0.00, -1.00, 646.1, 28.0)">a</text><text xml:space="preserve" font-family="Avenir-Book" font-size="20.0" fill="#D5D5D5" transform="matrix(1.00, 0.00, -0.00, -1.00, 656.5, 28.0)">n</text><text xml:space="preserve" font-family="Avenir-Book" font-size="20.0" fill="#D5D5D5" transform="matrix(1.00, 0.00, -0.00, -1.00, 667.6, 28.0)">d</text><text xml:space="preserve" font-family="Avenir-Book" font-size="20.0" fill="#D5D5D5" transform="matrix(1.00, 0.00, -0.00, -1.00, 679.8, 28.0)"> </text><text xml:space="preserve" font-family="Avenir-Book" font-size="20.0" fill="#D5D5D5" transform="matrix(1.00, 0.00, -0.00, -1.00, 685.4, 28.0)">N</text><text xml:space="preserve" font-family="Avenir-Book" font-size="20.0" fill="#D5D5D5" transform="matrix(1.00, 0.00, -0.00, -1.00, 700.9, 28.0)">o</text><text xml:space="preserve" font-family="Avenir-Book" font-size="20.0" fill="#D5D5D5" transform="matrix(1.00, 0.00, -0.00, -1.00, 712.8, 28.0)">t</text><text xml:space="preserve" font-family="Avenir-Book" font-size="20.0" fill="#D5D5D5" transform="matrix(1.00, 0.00, -0.00, -1.00, 719.4, 28.0)">a</text><text xml:space="preserve" font-family="Avenir-Book" font-size="20.0" fill="#D5D5D5" transform="matrix(1.00, 0.00, -0.00, -1.00, 729.8, 28.0)">t</text><text xml:space="preserve" font-family="Avenir-Book" font-size="20.0" fill="#D5D5D5" transform="matrix(1.00, 0.00, -0.00, -1.00, 736.5, 28.0)">i</text><text xml:space="preserve" font-family="Avenir-Book" font-size="20.0" fill="#D5D5D5" transform="matrix(1.00, 0.00, -0.00, -1.00, 741.3, 28.0)">o</text><text xml:space="preserve" font-family="Avenir-Book" font-size="20.0" fill="#D5D5D5" transform="matrix(1.00, 0.00, -0.00, -1.00, 753.1, 28.0)">n</text><text xml:space="preserve" font-family="AvenirNext-Regular" font-size="53.0" fill="#FEFFFF" transform="matrix(1.00, 0.00, -0.00, -1.00, 74.0, 677.0)">N</text><text xml:space="preserve" font-family="AvenirNext-Regular" font-size="53.0" fill="#FEFFFF" transform="matrix(1.00, 0.00, -0.00, -1.00, 114.5, 677.0)">e</text><text xml:space="preserve" font-family="AvenirNext-Regular" font-size="53.0" fill="#FEFFFF" transform="matrix(1.00, 0.00, -0.00, -1.00, 144.8, 677.0)">w</text><text xml:space="preserve" font-family="AvenirNext-Regular" font-size="53.0" fill="#FEFFFF" transform="matrix(1.00, 0.00, -0.00, -1.00, 184.3, 677.0)"> </text><text xml:space="preserve" font-family="AvenirNext-Regular" font-size="53.0" fill="#FEFFFF" transform="matrix(1.00, 0.00, -0.00, -1.00, 197.6, 677.0)">n</text><text xml:space="preserve" font-family="AvenirNext-Regular" font-size="53.0" fill="#FEFFFF" transform="matrix(1.00, 0.00, -0.00, -1.00, 228.4, 677.0)">o</text><text xml:space="preserve" font-family="AvenirNext-Regular" font-size="53.0" fill="#FEFFFF" transform="matrix(1.00, 0.00, -0.00, -1.00, 260.8, 677.0)">t</text><text xml:space="preserve" font-family="AvenirNext-Regular" font-size="53.0" fill="#FEFFFF" transform="matrix(1.00, 0.00, -0.00, -1.00, 277.6, 677.0)">a</text><text xml:space="preserve" font-family="AvenirNext-Regular" font-size="53.0" fill="#FEFFFF" transform="matrix(1.00, 0.00, -0.00, -1.00, 305.3, 677.0)">t</text><text xml:space="preserve" font-family="AvenirNext-Regular" font-size="53.0" fill="#FEFFFF" transform="matrix(1.00, 0.00, -0.00, -1.00, 322.1, 677.0)">i</text><text xml:space="preserve" font-family="AvenirNext-Regular" font-size="53.0" fill="#FEFFFF" transform="matrix(1.00, 0.00, -0.00, -1.00, 335.4, 677.0)">o</text><text xml:space="preserve" font-family="AvenirNext-Regular" font-size="53.0" fill="#FEFFFF" transform="matrix(1.00, 0.00, -0.00, -1.00, 367.8, 677.0)">n</text><text xml:space="preserve" font-family="AvenirNext-Regular" font-size="53.0" fill="#FEFFFF" transform="matrix(1.00, 0.00, -0.00, -1.00, 398.6, 677.0)">s</text><text xml:space="preserve" font-family="AvenirNext-Regular" font-size="53.0" fill="#FEFFFF" transform="matrix(1.00, 0.00, -0.00, -1.00, 422.1, 677.0)">…</text><text xml:space="preserve" font-family="Avenir-Book" font-size="18.0" fill="#D5D5D5" transform="matrix(1.00, 0.00, -0.00, -1.00, 30.0, 28.0)">1</text><text xml:space="preserve" font-family="Avenir-Book" font-size="18.0" fill="#D5D5D5" transform="matrix(1.00, 0.00, -0.00, -1.00, 40.0, 28.0)">2</text><text xml:space="preserve" font-family="Helvetica-Bold" font-weight="bold" font-size="30.2" fill="#FEFFFF" transform="matrix(1.00, 0.00, -0.00, -1.00, 257.0, 108.0)">S</text><text xml:space="preserve" font-family="Helvetica-Bold" font-weight="bold" font-size="30.2" fill="#FEFFFF" transform="matrix(1.00, 0.00, -0.00, -1.00, 277.2, 108.0)">t</text><text xml:space="preserve" font-family="Helvetica-Bold" font-weight="bold" font-size="30.2" fill="#FEFFFF" transform="matrix(1.00, 0.00, -0.00, -1.00, 287.2, 108.0)">u</text><text xml:space="preserve" font-family="Helvetica-Bold" font-weight="bold" font-size="30.2" fill="#FEFFFF" transform="matrix(1.00, 0.00, -0.00, -1.00, 305.7, 108.0)">d</text><text xml:space="preserve" font-family="Helvetica-Bold" font-weight="bold" font-size="30.2" fill="#FEFFFF" transform="matrix(1.00, 0.00, -0.00, -1.00, 324.2, 108.0)">y</text><text xml:space="preserve" font-family="Helvetica-Bold" font-weight="bold" font-size="30.2" fill="#FEFFFF" transform="matrix(1.00, 0.00, -0.00, -1.00, 341.0, 108.0)"> </text><text xml:space="preserve" font-family="Helvetica-Bold" font-weight="bold" font-size="30.2" fill="#FEFFFF" transform="matrix(1.00, 0.00, -0.00, -1.00, 349.4, 108.0)">N</text><text xml:space="preserve" font-family="Helvetica-Bold" font-weight="bold" font-size="30.2" fill="#FEFFFF" transform="matrix(1.00, 0.00, -0.00, -1.00, 371.2, 108.0)">°</text><text xml:space="preserve" font-family="Helvetica-Bold" font-weight="bold" font-size="30.2" fill="#FEFFFF" transform="matrix(1.00, 0.00, -0.00, -1.00, 383.3, 108.0)">3</text><text xml:space="preserve" font-family="Helvetica-Bold" font-weight="bold" font-size="30.2" fill="#FEFFFF" transform="matrix(1.00, 0.00, -0.00, -1.00, 400.1, 108.0)">0</text><text xml:space="preserve" font-family="Helvetica-Light" font-size="30.2" fill="#FEFFFF" transform="matrix(1.00, 0.00, -0.00, -1.00, 417.0, 108.0)"> </text><text xml:space="preserve" font-family="Helvetica-Light" font-size="30.2" fill="#FEFFFF" transform="matrix(1.00, 0.00, -0.00, -1.00, 425.4, 108.0)">-</text><text xml:space="preserve" font-family="Helvetica-Light" font-size="30.2" fill="#FEFFFF" transform="matrix(1.00, 0.00, -0.00, -1.00, 435.4, 108.0)"> </text><text xml:space="preserve" font-family="Helvetica-Light" font-size="30.2" fill="#FEFFFF" transform="matrix(1.00, 0.00, -0.00, -1.00, 443.9, 108.0)">R</text><text xml:space="preserve" font-family="Helvetica-Light" font-size="30.2" fill="#FEFFFF" transform="matrix(1.00, 0.00, -0.00, -1.00, 464.0, 108.0)">y</text><text xml:space="preserve" font-family="Helvetica-Light" font-size="30.2" fill="#FEFFFF" transform="matrix(1.00, 0.00, -0.00, -1.00, 479.1, 108.0)">a</text><text xml:space="preserve" font-family="Helvetica-Light" font-size="30.2" fill="#FEFFFF" transform="matrix(1.00, 0.00, -0.00, -1.00, 496.0, 108.0)">n</text><text xml:space="preserve" font-family="Helvetica-Light" font-size="30.2" fill="#FEFFFF" transform="matrix(1.00, 0.00, -0.00, -1.00, 512.8, 108.0)"> </text><text xml:space="preserve" font-family="Helvetica-Light" font-size="30.2" fill="#FEFFFF" transform="matrix(1.00, 0.00, -0.00, -1.00, 521.2, 108.0)">R</text><text xml:space="preserve" font-family="Helvetica-Light" font-size="30.2" fill="#FEFFFF" transform="matrix(1.00, 0.00, -0.00, -1.00, 541.3, 108.0)">o</text><text xml:space="preserve" font-family="Helvetica-Light" font-size="30.2" fill="#FEFFFF" transform="matrix(1.00, 0.00, -0.00, -1.00, 558.2, 108.0)">s</text><text xml:space="preserve" font-family="Helvetica-Light" font-size="30.2" fill="#FEFFFF" transform="matrix(1.00, 0.00, -0.00, -1.00, 573.3, 108.0)">s</text><text xml:space="preserve" font-family="Helvetica-Light" font-size="30.2" fill="#FEFFFF" transform="matrix(1.00, 0.00, -0.00, -1.00, 588.4, 108.0)"> </text><text xml:space="preserve" font-family="Helvetica-Light" font-size="30.2" fill="#FEFFFF" transform="matrix(1.00, 0.00, -0.00, -1.00, 596.8, 108.0)">S</text><text xml:space="preserve" font-family="Helvetica-Light" font-size="30.2" fill="#FEFFFF" transform="matrix(1.00, 0.00, -0.00, -1.00, 615.3, 108.0)">m</text><text xml:space="preserve" font-family="Helvetica-Light" font-size="30.2" fill="#FEFFFF" transform="matrix(1.00, 0.00, -0.00, -1.00, 640.5, 108.0)">i</text><text xml:space="preserve" font-family="Helvetica-Light" font-size="30.2" fill="#FEFFFF" transform="matrix(1.00, 0.00, -0.00, -1.00, 647.2, 108.0)">t</text><text xml:space="preserve" font-family="Helvetica-Light" font-size="30.2" fill="#FEFFFF" transform="matrix(1.00, 0.00, -0.00, -1.00, 655.6, 108.0)">h</text><text xml:space="preserve" font-family="Helvetica-Light" font-size="30.2" fill="#FEFFFF" transform="matrix(1.00, 0.00, -0.00, -1.00, 672.4, 108.0)"> </text><text xml:space="preserve" font-family="Helvetica-Light" font-size="30.2" fill="#FEFFFF" transform="matrix(1.00, 0.00, -0.00, -1.00, 680.8, 108.0)">-</text><text xml:space="preserve" font-family="Helvetica-Light" font-size="30.2" fill="#FEFFFF" transform="matrix(1.00, 0.00, -0.00, -1.00, 690.9, 108.0)"> </text><text xml:space="preserve" font-family="Helvetica-Light" font-size="30.2" fill="#FEFFFF" transform="matrix(1.00, 0.00, -0.00, -1.00, 699.3, 108.0)">2</text><text xml:space="preserve" font-family="Helvetica-Light" font-size="30.2" fill="#FEFFFF" transform="matrix(1.00, 0.00, -0.00, -1.00, 716.1, 108.0)">0</text><text xml:space="preserve" font-family="Helvetica-Light" font-size="30.2" fill="#FEFFFF" transform="matrix(1.00, 0.00, -0.00, -1.00, 732.9, 108.0)">1</text><text xml:space="preserve" font-family="Helvetica-Light" font-size="30.2" fill="#FEFFFF" transform="matrix(1.00, 0.00, -0.00, -1.00, 749.7, 108.0)">3</text><text xml:space="preserve" font-family="Helvetica-Light" font-size="21.0" fill="#FEFFFF" transform="matrix(1.00, 0.00, -0.00, -1.00, 424.0, 79.0)">F</text><text xml:space="preserve" font-family="Helvetica-Light" font-size="21.0" fill="#FEFFFF" transform="matrix(1.00, 0.00, -0.00, -1.00, 435.7, 79.0)">o</text><text xml:space="preserve" font-family="Helvetica-Light" font-size="21.0" fill="#FEFFFF" transform="matrix(1.00, 0.00, -0.00, -1.00, 447.4, 79.0)">r</text><text xml:space="preserve" font-family="Helvetica-Light" font-size="21.0" fill="#FEFFFF" transform="matrix(1.00, 0.00, -0.00, -1.00, 454.3, 79.0)"> </text><text xml:space="preserve" font-family="Helvetica-Light" font-size="21.0" fill="#FEFFFF" transform="matrix(1.00, 0.00, -0.00, -1.00, 460.2, 79.0)">0</text><text xml:space="preserve" font-family="Helvetica-Light" font-size="21.0" fill="#FEFFFF" transform="matrix(1.00, 0.00, -0.00, -1.00, 471.9, 79.0)"> </text><text xml:space="preserve" font-family="Helvetica-Light" font-size="21.0" fill="#FEFFFF" transform="matrix(1.00, 0.00, -0.00, -1.00, 477.7, 79.0)">t</text><text xml:space="preserve" font-family="Helvetica-Light" font-size="21.0" fill="#FEFFFF" transform="matrix(1.00, 0.00, -0.00, -1.00, 483.5, 79.0)">o</text><text xml:space="preserve" font-family="Helvetica-Light" font-size="21.0" fill="#FEFFFF" transform="matrix(1.00, 0.00, -0.00, -1.00, 495.2, 79.0)"> </text><text xml:space="preserve" font-family="Helvetica-Light" font-size="21.0" fill="#FEFFFF" transform="matrix(1.00, 0.00, -0.00, -1.00, 501.0, 79.0)">1</text><text xml:space="preserve" font-family="Helvetica-Light" font-size="21.0" fill="#FEFFFF" transform="matrix(1.00, 0.00, -0.00, -1.00, 512.7, 79.0)">5</text><text xml:space="preserve" font-family="Helvetica-Light" font-size="21.0" fill="#FEFFFF" transform="matrix(1.00, 0.00, -0.00, -1.00, 524.4, 79.0)"> </text><text xml:space="preserve" font-family="Helvetica-Light" font-size="21.0" fill="#FEFFFF" transform="matrix(1.00, 0.00, -0.00, -1.00, 530.2, 79.0)">p</text><text xml:space="preserve" font-family="Helvetica-Light" font-size="21.0" fill="#FEFFFF" transform="matrix(1.00, 0.00, -0.00, -1.00, 543.1, 79.0)">l</text><text xml:space="preserve" font-family="Helvetica-Light" font-size="21.0" fill="#FEFFFF" transform="matrix(1.00, 0.00, -0.00, -1.00, 547.7, 79.0)">a</text><text xml:space="preserve" font-family="Helvetica-Light" font-size="21.0" fill="#FEFFFF" transform="matrix(1.00, 0.00, -0.00, -1.00, 559.4, 79.0)">y</text><text xml:space="preserve" font-family="Helvetica-Light" font-size="21.0" fill="#FEFFFF" transform="matrix(1.00, 0.00, -0.00, -1.00, 569.9, 79.0)">e</text><text xml:space="preserve" font-family="Helvetica-Light" font-size="21.0" fill="#FEFFFF" transform="matrix(1.00, 0.00, -0.00, -1.00, 581.6, 79.0)">r</text><text xml:space="preserve" font-family="Helvetica-Light" font-size="21.0" fill="#FEFFFF" transform="matrix(1.00, 0.00, -0.00, -1.00, 588.6, 79.0)">s</text><image xlink:href="0578BEB1D27D336744D40CDFE97E4687.png" width="1280.00" height="720.00" transform="matrix(0.66, 0.00, -0.00, -0.66, 88.0, 636.0)"></image></g></svg>