<?xml version="1.0" encoding="UTF-8" standalone="no"?><svg xmlns="http://www.w3.org/2000/svg" xmlns:xlink="http://www.w3.org/1999/xlink" clip-rule="evenodd" stroke-miterlimit="4.00" viewBox="0 0 803 73"><desc>SVG generated by Keynote</desc><defs></defs><g transform="matrix(1.00, 0.00, -0.00, -1.00, 0.0, 73.0)"><g><clipPath id="clip-526"><path d="M 0.8 13.3 L 204.1 13.3 L 204.1 72.3 L 0.8 72.3 Z M 0.8 13.3 "></path></clipPath><g clip-path="url(#clip-526)"><image xlink:href="../../9822AE64-BA13-4016-AA01-655984CDD4AE/assets/E1EA0ED6DE64A5F9E5396D8585014339.png" width="201.00" height="57.00" transform="matrix(1.00, 0.00, -0.00, -1.00, 1.8, 71.2)" opacity="0.50"></image><path d="M 2.7 70.8 L 193.0 70.8 L 193.0 24.8 L 2.7 24.8 Z M 2.7 70.8 " fill="#FEFFFE"></path><path d="M 0.0 0.0 L 190.3 0.0 L 190.3 45.9 L 0.0 45.9 Z M 0.0 0.0 " fill="none" stroke="#000000" stroke-width="1.00" transform="matrix(1.00, 0.00, 0.00, -1.00, 2.7, 70.8)"></path></g></g><g><clipPath id="clip-527"><path d="M 22.3 30.8 L 173.4 30.8 L 173.4 64.8 L 22.3 64.8 Z M 22.3 30.8 "></path></clipPath><g clip-path="url(#clip-527)"><text xml:space="preserve" font-family="Helvetica" font-size="20.0" fill="#324763" transform="matrix(1.00, 0.00, -0.00, -1.00, 28.0, 40.0)">/</text><text xml:space="preserve" font-family="Helvetica" font-size="20.0" fill="#324763" transform="matrix(1.00, 0.00, -0.00, -1.00, 33.6, 40.0)">I</text><text xml:space="preserve" font-family="Helvetica" font-size="20.0" fill="#324763" transform="matrix(1.00, 0.00, -0.00, -1.00, 39.1, 40.0)">T</text><text xml:space="preserve" font-family="Helvetica" font-size="20.0" fill="#324763" transform="matrix(1.00, 0.00, -0.00, -1.00, 51.3, 40.0)">L</text><text xml:space="preserve" font-family="Helvetica" font-size="20.0" fill="#324763" transform="matrix(1.00, 0.00, -0.00, -1.00, 62.4, 40.0)">/</text><text xml:space="preserve" font-family="Helvetica" font-size="20.0" fill="#324763" transform="matrix(1.00, 0.00, -0.00, -1.00, 68.0, 40.0)">s</text><text xml:space="preserve" font-family="Helvetica" font-size="20.0" fill="#324763" transform="matrix(1.00, 0.00, -0.00, -1.00, 78.0, 40.0)">c</text><text xml:space="preserve" font-family="Helvetica" font-size="20.0" fill="#324763" transform="matrix(1.00, 0.00, -0.00, -1.00, 88.0, 40.0)">e</text><text xml:space="preserve" font-family="Helvetica" font-size="20.0" fill="#324763" transform="matrix(1.00, 0.00, -0.00, -1.00, 99.1, 40.0)">n</text><text xml:space="preserve" font-family="Helvetica" font-size="20.0" fill="#324763" transform="matrix(1.00, 0.00, -0.00, -1.00, 110.3, 40.0)">e</text><text xml:space="preserve" font-family="Helvetica" font-size="20.0" fill="#324763" transform="matrix(1.00, 0.00, -0.00, -1.00, 121.4, 40.0)">/</text><text xml:space="preserve" font-family="Helvetica" font-size="20.0" fill="#324763" transform="matrix(1.00, 0.00, -0.00, -1.00, 126.9, 40.0)">s</text><text xml:space="preserve" font-family="Helvetica" font-size="20.0" fill="#324763" transform="matrix(1.00, 0.00, -0.00, -1.00, 136.9, 40.0)">y</text><text xml:space="preserve" font-family="Helvetica" font-size="20.0" fill="#324763" transform="matrix(1.00, 0.00, -0.00, -1.00, 146.9, 40.0)">n</text><text xml:space="preserve" font-family="Helvetica" font-size="20.0" fill="#324763" transform="matrix(1.00, 0.00, -0.00, -1.00, 158.1, 40.0)">c</text></g></g><g><clipPath id="clip-528"><path d="M 253.0 13.3 L 395.3 13.3 L 395.3 72.3 L 253.0 72.3 Z M 253.0 13.3 "></path></clipPath><g clip-path="url(#clip-528)"><image xlink:href="../../9822AE64-BA13-4016-AA01-655984CDD4AE/assets/632E8335BFDA103FFBF6C3D8843F2ED1.png" width="140.00" height="57.00" transform="matrix(1.00, 0.00, -0.00, -1.00, 254.0, 71.2)" opacity="0.50"></image><path d="M 254.9 70.8 L 384.2 70.8 L 384.2 24.8 L 254.9 24.8 Z M 254.9 70.8 " fill="#FEFFFE"></path><path d="M 0.0 0.0 L 129.2 0.0 L 129.2 45.9 L 0.0 45.9 Z M 0.0 0.0 " fill="none" stroke="#000000" stroke-width="1.00" transform="matrix(1.00, 0.00, 0.00, -1.00, 254.9, 70.8)"></path></g></g><g><clipPath id="clip-529"><path d="M 290.7 30.8 L 348.4 30.8 L 348.4 64.8 L 290.7 64.8 Z M 290.7 30.8 "></path></clipPath><g clip-path="url(#clip-529)"><text xml:space="preserve" font-family="Helvetica" font-size="20.0" fill="#324763" transform="matrix(1.00, 0.00, -0.00, -1.00, 296.0, 40.0)">s</text><text xml:space="preserve" font-family="Helvetica" font-size="20.0" fill="#324763" transform="matrix(1.00, 0.00, -0.00, -1.00, 306.0, 40.0)">l</text><text xml:space="preserve" font-family="Helvetica" font-size="20.0" fill="#324763" transform="matrix(1.00, 0.00, -0.00, -1.00, 310.4, 40.0)">a</text><text xml:space="preserve" font-family="Helvetica" font-size="20.0" fill="#324763" transform="matrix(1.00, 0.00, -0.00, -1.00, 321.6, 40.0)">v</text><text xml:space="preserve" font-family="Helvetica" font-size="20.0" fill="#324763" transform="matrix(1.00, 0.00, -0.00, -1.00, 331.6, 40.0)">e</text></g></g><g><clipPath id="clip-530"><path d="M 438.2 13.3 L 580.4 13.3 L 580.4 72.3 L 438.2 72.3 Z M 438.2 13.3 "></path></clipPath><g clip-path="url(#clip-530)"><image xlink:href="../../9822AE64-BA13-4016-AA01-655984CDD4AE/assets/632E8335BFDA103FFBF6C3D8843F2ED1.png" width="140.00" height="57.00" transform="matrix(1.00, 0.00, -0.00, -1.00, 439.2, 71.2)" opacity="0.50"></image><path d="M 440.1 70.8 L 569.3 70.8 L 569.3 24.8 L 440.1 24.8 Z M 440.1 70.8 " fill="#FEFFFE"></path><path d="M 0.0 0.0 L 129.2 0.0 L 129.2 45.9 L 0.0 45.9 Z M 0.0 0.0 " fill="none" stroke="#000000" stroke-width="1.00" transform="matrix(1.00, 0.00, 0.00, -1.00, 440.1, 70.8)"></path></g></g><g><clipPath id="clip-531"><path d="M 468.7 30.8 L 540.8 30.8 L 540.8 64.8 L 468.7 64.8 Z M 468.7 30.8 "></path></clipPath><g clip-path="url(#clip-531)"><text xml:space="preserve" font-family="Helvetica" font-size="20.0" fill="#324763" transform="matrix(1.00, 0.00, -0.00, -1.00, 474.0, 40.0)">m</text><text xml:space="preserve" font-family="Helvetica" font-size="20.0" fill="#324763" transform="matrix(1.00, 0.00, -0.00, -1.00, 490.7, 40.0)">a</text><text xml:space="preserve" font-family="Helvetica" font-size="20.0" fill="#324763" transform="matrix(1.00, 0.00, -0.00, -1.00, 501.8, 40.0)">s</text><text xml:space="preserve" font-family="Helvetica" font-size="20.0" fill="#324763" transform="matrix(1.00, 0.00, -0.00, -1.00, 511.8, 40.0)">t</text><text xml:space="preserve" font-family="Helvetica" font-size="20.0" fill="#324763" transform="matrix(1.00, 0.00, -0.00, -1.00, 517.3, 40.0)">e</text><text xml:space="preserve" font-family="Helvetica" font-size="20.0" fill="#324763" transform="matrix(1.00, 0.00, -0.00, -1.00, 528.5, 40.0)">r</text></g></g><g><clipPath id="clip-532"><path d="M 642.3 13.3 L 784.6 13.3 L 784.6 72.3 L 642.3 72.3 Z M 642.3 13.3 "></path></clipPath><g clip-path="url(#clip-532)"><image xlink:href="../../9822AE64-BA13-4016-AA01-655984CDD4AE/assets/632E8335BFDA103FFBF6C3D8843F2ED1.png" width="140.00" height="57.00" transform="matrix(1.00, 0.00, -0.00, -1.00, 643.3, 71.2)" opacity="0.50"></image><path d="M 644.3 70.8 L 773.5 70.8 L 773.5 24.8 L 644.3 24.8 Z M 644.3 70.8 " fill="#FEFFFE"></path><path d="M 0.0 0.0 L 129.2 0.0 L 129.2 45.9 L 0.0 45.9 Z M 0.0 0.0 " fill="none" stroke="#000000" stroke-width="1.00" transform="matrix(1.00, 0.00, 0.00, -1.00, 644.3, 70.8)"></path></g></g><g><clipPath id="clip-533"><path d="M 678.4 30.8 L 739.4 30.8 L 739.4 64.8 L 678.4 64.8 Z M 678.4 30.8 "></path></clipPath><g clip-path="url(#clip-533)"><text xml:space="preserve" font-family="Helvetica" font-size="20.0" fill="#324763" transform="matrix(1.00, 0.00, -0.00, -1.00, 684.0, 40.0)">m</text><text xml:space="preserve" font-family="Helvetica" font-size="20.0" fill="#324763" transform="matrix(1.00, 0.00, -0.00, -1.00, 700.7, 40.0)">o</text><text xml:space="preserve" font-family="Helvetica" font-size="20.0" fill="#324763" transform="matrix(1.00, 0.00, -0.00, -1.00, 711.8, 40.0)">d</text><text xml:space="preserve" font-family="Helvetica" font-size="20.0" fill="#324763" transform="matrix(1.00, 0.00, -0.00, -1.00, 722.9, 40.0)">e</text></g></g><g><clipPath id="clip-534"><path d="M 192.5 42.0 L 255.4 42.0 L 255.4 53.6 L 192.5 53.6 Z M 192.5 42.0 "></path></clipPath><g clip-path="url(#clip-534)"><path d="M 0.0 0.0 C 17.9 0.0 35.8 0.0 53.7 0.0 L 54.7 0.0 " fill="none" stroke="#7995B9" stroke-width="2.00" transform="matrix(1.00, 0.00, 0.00, -1.00, 193.5, 47.8)"></path><path d="M 244.8 43.0 L 254.4 47.8 L 244.8 52.6 L 247.2 47.8 Z M 244.8 43.0 " fill="#7995B9"></path></g></g><g><clipPath id="clip-535"><path d="M 383.7 42.0 L 440.6 42.0 L 440.6 53.6 L 383.7 53.6 Z M 383.7 42.0 "></path></clipPath><g clip-path="url(#clip-535)"><path d="M 0.0 0.0 C 15.9 0.0 31.8 0.0 47.7 0.0 L 48.7 0.0 " fill="none" stroke="#7995B9" stroke-width="2.00" transform="matrix(1.00, 0.00, 0.00, -1.00, 384.7, 47.8)"></path><path d="M 430.0 43.0 L 439.6 47.8 L 430.0 52.6 L 432.4 47.8 Z M 430.0 43.0 " fill="#7995B9"></path></g></g><g><clipPath id="clip-536"><path d="M 569.9 42.0 L 644.8 42.0 L 644.8 53.6 L 569.9 53.6 Z M 569.9 42.0 "></path></clipPath><g clip-path="url(#clip-536)"><path d="M 0.0 0.0 C 21.9 0.0 43.8 0.0 65.7 0.0 L 66.7 0.0 " fill="none" stroke="#7995B9" stroke-width="2.00" transform="matrix(1.00, 0.00, 0.00, -1.00, 570.9, 47.8)"></path><path d="M 634.2 43.0 L 643.8 47.8 L 634.2 52.6 L 636.6 47.8 Z M 634.2 43.0 " fill="#7995B9"></path></g></g><g><clipPath id="clip-537"><path d="M 708.7 0.7 L 802.7 0.7 L 802.7 32.7 L 708.7 32.7 Z M 708.7 0.7 "></path></clipPath><g clip-path="url(#clip-537)"><path d="M 64.3 0.0 C 114.9 16.7 93.5 26.1 0.0 28.1 " fill="none" stroke="#7995B9" stroke-width="2.00" transform="matrix(1.00, 0.00, 0.00, -1.00, 709.7, 30.7)"></path></g></g><g><clipPath id="clip-538"><path d="M 619.1 1.1 L 714.2 1.1 L 714.2 31.8 L 619.1 31.8 Z M 619.1 1.1 "></path></clipPath><g clip-path="url(#clip-538)"><path d="M 92.0 26.6 C 5.2 25.3 -20.2 17.3 15.9 2.6 L 16.8 2.2 " fill="none" stroke="#7995B9" stroke-width="2.00" transform="matrix(1.00, 0.00, 0.00, -1.00, 621.1, 29.7)"></path><path d="M 636.5 21.8 L 643.8 29.7 L 633.1 30.8 L 637.0 27.1 Z M 636.5 21.8 " fill="#7995B9"></path></g></g></g></svg>