<?xml version="1.0" encoding="UTF-8" standalone="no"?><svg xmlns="http://www.w3.org/2000/svg" xmlns:xlink="http://www.w3.org/1999/xlink" clip-rule="evenodd" stroke-miterlimit="4.00" viewBox="0 0 548 243"><desc>SVG generated by Keynote</desc><defs></defs><g transform="matrix(1.00, 0.00, -0.00, -1.00, 0.0, 243.0)"><g><clipPath id="clip-523"><path d="M 0.7 0.8 L 547.0 0.8 L 547.0 242.8 L 0.7 242.8 Z M 0.7 0.8 "></path></clipPath><g clip-path="url(#clip-523)"><image xlink:href="C2A53822903DCA0F779F605BC647E5A8.png" width="545.00" height="150.00" transform="matrix(1.00, 0.00, -0.00, -1.00, 1.7, 151.8)" opacity="0.75"></image><path d="M 122.7 96.1 L 122.7 226.6 C 122.7 234.5 129.1 240.8 137.0 240.8 L 410.7 240.8 C 418.6 240.8 425.0 234.5 425.0 226.6 L 425.0 96.1 C 425.0 88.2 418.6 81.8 410.7 81.8 L 137.0 81.8 C 129.1 81.8 122.7 88.2 122.7 96.1 Z M 122.7 96.1 " fill="#FEFFFE"></path><path d="M 0.0 144.7 L 0.0 14.3 C 0.0 6.4 6.4 0.0 14.3 0.0 L 288.0 0.0 C 295.9 0.0 302.3 6.4 302.3 14.3 L 302.3 144.7 C 302.3 152.6 295.9 159.0 288.0 159.0 L 14.3 159.0 C 6.4 159.0 0.0 152.6 0.0 144.7 Z M 0.0 144.7 " fill="none" stroke="#7995B9" stroke-width="2.00" transform="matrix(1.00, 0.00, 0.00, -1.00, 122.7, 240.8)"></path></g></g><g><clipPath id="clip-524"><path d="M 126.0 190.8 L 375.3 190.8 L 375.3 243.2 L 126.0 243.2 Z M 126.0 190.8 "></path></clipPath><g clip-path="url(#clip-524)"><text xml:space="preserve" font-family="Palatino-Roman" font-size="28.0" fill="#324763" transform="matrix(1.00, 0.00, -0.00, -1.00, 134.0, 206.0)">G</text><text xml:space="preserve" font-family="Palatino-Roman" font-size="28.0" fill="#324763" transform="matrix(1.00, 0.00, -0.00, -1.00, 155.4, 206.0)">r</text><text xml:space="preserve" font-family="Palatino-Roman" font-size="28.0" fill="#324763" transform="matrix(1.00, 0.00, -0.00, -1.00, 166.4, 206.0)">a</text><text xml:space="preserve" font-family="Palatino-Roman" font-size="28.0" fill="#324763" transform="matrix(1.00, 0.00, -0.00, -1.00, 180.4, 206.0)">p</text><text xml:space="preserve" font-family="Palatino-Roman" font-size="28.0" fill="#324763" transform="matrix(1.00, 0.00, -0.00, -1.00, 197.3, 206.0)">h</text><text xml:space="preserve" font-family="Palatino-Roman" font-size="28.0" fill="#324763" transform="matrix(1.00, 0.00, -0.00, -1.00, 213.6, 206.0)">i</text><text xml:space="preserve" font-family="Palatino-Roman" font-size="28.0" fill="#324763" transform="matrix(1.00, 0.00, -0.00, -1.00, 221.7, 206.0)">c</text><text xml:space="preserve" font-family="Palatino-Roman" font-size="28.0" fill="#324763" transform="matrix(1.00, 0.00, -0.00, -1.00, 234.1, 206.0)"> </text><text xml:space="preserve" font-family="Palatino-Roman" font-size="28.0" fill="#324763" transform="matrix(1.00, 0.00, -0.00, -1.00, 241.1, 206.0)">a</text><text xml:space="preserve" font-family="Palatino-Roman" font-size="28.0" fill="#324763" transform="matrix(1.00, 0.00, -0.00, -1.00, 255.1, 206.0)">l</text><text xml:space="preserve" font-family="Palatino-Roman" font-size="28.0" fill="#324763" transform="matrix(1.00, 0.00, -0.00, -1.00, 263.3, 206.0)">i</text><text xml:space="preserve" font-family="Palatino-Roman" font-size="28.0" fill="#324763" transform="matrix(1.00, 0.00, -0.00, -1.00, 271.4, 206.0)">g</text><text xml:space="preserve" font-family="Palatino-Roman" font-size="28.0" fill="#324763" transform="matrix(1.00, 0.00, -0.00, -1.00, 287.0, 206.0)">n</text><text xml:space="preserve" font-family="Palatino-Roman" font-size="28.0" fill="#324763" transform="matrix(1.00, 0.00, -0.00, -1.00, 303.3, 206.0)">m</text><text xml:space="preserve" font-family="Palatino-Roman" font-size="28.0" fill="#324763" transform="matrix(1.00, 0.00, -0.00, -1.00, 328.0, 206.0)">e</text><text xml:space="preserve" font-family="Palatino-Roman" font-size="28.0" fill="#324763" transform="matrix(1.00, 0.00, -0.00, -1.00, 341.4, 206.0)">n</text><text xml:space="preserve" font-family="Palatino-Roman" font-size="28.0" fill="#324763" transform="matrix(1.00, 0.00, -0.00, -1.00, 357.7, 206.0)">t</text></g></g><g><clipPath id="clip-525"><path d="M 147.9 101.3 L 497.3 101.3 L 497.3 200.3 L 147.9 200.3 Z M 147.9 101.3 "></path></clipPath><g clip-path="url(#clip-525)"><text xml:space="preserve" font-family="Palatino-Roman" font-size="30.0" fill="#E42100" transform="matrix(1.00, 0.00, -0.00, -1.00, 153.9, 168.2)">•</text><text xml:space="preserve" font-family="Courier" font-size="24.0" fill="#0432FF" transform="matrix(1.00, 0.00, -0.00, -1.00, 190.0, 171.0)">s</text><text xml:space="preserve" font-family="Courier" font-size="24.0" fill="#0432FF" transform="matrix(1.00, 0.00, -0.00, -1.00, 204.4, 171.0)">y</text><text xml:space="preserve" font-family="Courier" font-size="24.0" fill="#0432FF" transform="matrix(1.00, 0.00, -0.00, -1.00, 218.8, 171.0)">n</text><text xml:space="preserve" font-family="Courier" font-size="24.0" fill="#0432FF" transform="matrix(1.00, 0.00, -0.00, -1.00, 233.2, 171.0)">c</text><text xml:space="preserve" font-family="Courier" font-size="24.0" fill="#0432FF" transform="matrix(1.00, 0.00, -0.00, -1.00, 247.6, 171.0)">O</text><text xml:space="preserve" font-family="Courier" font-size="24.0" fill="#0432FF" transform="matrix(1.00, 0.00, -0.00, -1.00, 262.0, 171.0)">v</text><text xml:space="preserve" font-family="Courier" font-size="24.0" fill="#0432FF" transform="matrix(1.00, 0.00, -0.00, -1.00, 276.4, 171.0)">e</text><text xml:space="preserve" font-family="Courier" font-size="24.0" fill="#0432FF" transform="matrix(1.00, 0.00, -0.00, -1.00, 290.8, 171.0)">r</text><text xml:space="preserve" font-family="Palatino-Roman" font-size="30.0" fill="#E42100" transform="matrix(1.00, 0.00, -0.00, -1.00, 153.9, 139.2)">•</text><text xml:space="preserve" font-family="Courier" font-size="24.0" fill="#000000" transform="matrix(1.00, 0.00, -0.00, -1.00, 190.0, 142.0)">s</text><text xml:space="preserve" font-family="Courier" font-size="24.0" fill="#000000" transform="matrix(1.00, 0.00, -0.00, -1.00, 204.4, 142.0)">y</text><text xml:space="preserve" font-family="Courier" font-size="24.0" fill="#000000" transform="matrix(1.00, 0.00, -0.00, -1.00, 218.8, 142.0)">n</text><text xml:space="preserve" font-family="Courier" font-size="24.0" fill="#000000" transform="matrix(1.00, 0.00, -0.00, -1.00, 233.2, 142.0)">c</text><text xml:space="preserve" font-family="Courier" font-size="24.0" fill="#000000" transform="matrix(1.00, 0.00, -0.00, -1.00, 247.6, 142.0)">T</text><text xml:space="preserve" font-family="Courier" font-size="24.0" fill="#000000" transform="matrix(1.00, 0.00, -0.00, -1.00, 262.0, 142.0)">o</text><text xml:space="preserve" font-family="Courier" font-size="24.0" fill="#000000" transform="matrix(1.00, 0.00, -0.00, -1.00, 276.4, 142.0)">p</text><text xml:space="preserve" font-family="Palatino-Roman" font-size="30.0" fill="#E42100" transform="matrix(1.00, 0.00, -0.00, -1.00, 153.9, 110.2)">•</text><text xml:space="preserve" font-family="Courier" font-size="24.0" fill="#000000" transform="matrix(1.00, 0.00, -0.00, -1.00, 190.0, 113.0)">s</text><text xml:space="preserve" font-family="Courier" font-size="24.0" fill="#000000" transform="matrix(1.00, 0.00, -0.00, -1.00, 204.4, 113.0)">y</text><text xml:space="preserve" font-family="Courier" font-size="24.0" fill="#000000" transform="matrix(1.00, 0.00, -0.00, -1.00, 218.8, 113.0)">n</text><text xml:space="preserve" font-family="Courier" font-size="24.0" fill="#000000" transform="matrix(1.00, 0.00, -0.00, -1.00, 233.2, 113.0)">c</text><text xml:space="preserve" font-family="Courier" font-size="24.0" fill="#000000" transform="matrix(1.00, 0.00, -0.00, -1.00, 247.6, 113.0)">B</text><text xml:space="preserve" font-family="Courier" font-size="24.0" fill="#000000" transform="matrix(1.00, 0.00, -0.00, -1.00, 262.0, 113.0)">o</text><text xml:space="preserve" font-family="Courier" font-size="24.0" fill="#000000" transform="matrix(1.00, 0.00, -0.00, -1.00, 276.4, 113.0)">t</text><text xml:space="preserve" font-family="Courier" font-size="24.0" fill="#000000" transform="matrix(1.00, 0.00, -0.00, -1.00, 290.8, 113.0)">t</text><text xml:space="preserve" font-family="Courier" font-size="24.0" fill="#000000" transform="matrix(1.00, 0.00, -0.00, -1.00, 305.2, 113.0)">o</text><text xml:space="preserve" font-family="Courier" font-size="24.0" fill="#000000" transform="matrix(1.00, 0.00, -0.00, -1.00, 319.6, 113.0)">m</text></g></g></g></svg>