<?xml version="1.0" encoding="UTF-8" standalone="no"?><svg xmlns="http://www.w3.org/2000/svg" xmlns:xlink="http://www.w3.org/1999/xlink" clip-rule="evenodd" stroke-miterlimit="4.00" viewBox="0 0 400 243"><desc>SVG generated by Keynote</desc><defs></defs><g transform="matrix(1.00, 0.00, -0.00, -1.00, 0.0, 243.0)"><g><clipPath id="clip-541"><path d="M 0.7 0.8 L 399.0 0.8 L 399.0 242.8 L 0.7 242.8 Z M 0.7 0.8 "></path></clipPath><g clip-path="url(#clip-541)"><image xlink:href="89AE800120D3727D7F9CC2D072984BFB.png" width="397.00" height="150.00" transform="matrix(1.00, 0.00, -0.00, -1.00, 1.7, 151.8)" opacity="0.75"></image><path d="M 122.7 96.1 L 122.7 226.6 C 122.7 234.5 129.1 240.8 137.0 240.8 L 262.8 240.8 C 270.6 240.8 277.0 234.5 277.0 226.6 L 277.0 96.1 C 277.0 88.2 270.6 81.8 262.8 81.8 L 137.0 81.8 C 129.1 81.8 122.7 88.2 122.7 96.1 Z M 122.7 96.1 " fill="#FEFFFE"></path><path d="M 0.0 144.7 L 0.0 14.3 C 0.0 6.4 6.4 0.0 14.3 0.0 L 140.0 0.0 C 147.9 0.0 154.3 6.4 154.3 14.3 L 154.3 144.7 C 154.3 152.6 147.9 159.0 140.0 159.0 L 14.3 159.0 C 6.4 159.0 0.0 152.6 0.0 144.7 Z M 0.0 144.7 " fill="none" stroke="#7995B9" stroke-width="2.00" transform="matrix(1.00, 0.00, 0.00, -1.00, 122.7, 240.8)"></path></g></g><g><clipPath id="clip-542"><path d="M 126.0 190.8 L 228.1 190.8 L 228.1 243.2 L 126.0 243.2 Z M 126.0 190.8 "></path></clipPath><g clip-path="url(#clip-542)"><text xml:space="preserve" font-family="Palatino-Roman" font-size="28.0" fill="#324763" transform="matrix(1.00, 0.00, -0.00, -1.00, 134.0, 206.0)">S</text><text xml:space="preserve" font-family="Palatino-Roman" font-size="28.0" fill="#324763" transform="matrix(1.00, 0.00, -0.00, -1.00, 148.7, 206.0)">t</text><text xml:space="preserve" font-family="Palatino-Roman" font-size="28.0" fill="#324763" transform="matrix(1.00, 0.00, -0.00, -1.00, 157.8, 206.0)">r</text><text xml:space="preserve" font-family="Palatino-Roman" font-size="28.0" fill="#324763" transform="matrix(1.00, 0.00, -0.00, -1.00, 168.4, 206.0)">e</text><text xml:space="preserve" font-family="Palatino-Roman" font-size="28.0" fill="#324763" transform="matrix(1.00, 0.00, -0.00, -1.00, 181.8, 206.0)">t</text><text xml:space="preserve" font-family="Palatino-Roman" font-size="28.0" fill="#324763" transform="matrix(1.00, 0.00, -0.00, -1.00, 191.0, 206.0)">c</text><text xml:space="preserve" font-family="Palatino-Roman" font-size="28.0" fill="#324763" transform="matrix(1.00, 0.00, -0.00, -1.00, 203.4, 206.0)">h</text></g></g><g><clipPath id="clip-543"><path d="M 147.9 101.3 L 281.3 101.3 L 281.3 200.3 L 147.9 200.3 Z M 147.9 101.3 "></path></clipPath><g clip-path="url(#clip-543)"><text xml:space="preserve" font-family="Palatino-Roman" font-size="30.0" fill="#E42100" transform="matrix(1.00, 0.00, -0.00, -1.00, 153.9, 168.2)">•</text><text xml:space="preserve" font-family="Courier" font-size="24.0" fill="#000000" transform="matrix(1.00, 0.00, -0.00, -1.00, 190.0, 171.0)">h</text><text xml:space="preserve" font-family="Palatino-Roman" font-size="30.0" fill="#E42100" transform="matrix(1.00, 0.00, -0.00, -1.00, 153.9, 139.2)">•</text><text xml:space="preserve" font-family="Courier" font-size="24.0" fill="#000000" transform="matrix(1.00, 0.00, -0.00, -1.00, 190.0, 142.0)">v</text><text xml:space="preserve" font-family="Palatino-Roman" font-size="30.0" fill="#E42100" transform="matrix(1.00, 0.00, -0.00, -1.00, 153.9, 110.2)">•</text><text xml:space="preserve" font-family="Courier" font-size="24.0" fill="#000000" transform="matrix(1.00, 0.00, -0.00, -1.00, 190.0, 113.0)">h</text><text xml:space="preserve" font-family="Courier" font-size="24.0" fill="#000000" transform="matrix(1.00, 0.00, -0.00, -1.00, 204.4, 113.0)">v</text></g></g></g></svg>