<?xml version="1.0" encoding="UTF-8" standalone="no"?><svg xmlns="http://www.w3.org/2000/svg" xmlns:xlink="http://www.w3.org/1999/xlink" clip-rule="evenodd" stroke-miterlimit="4.00" viewBox="0 0 341 38"><desc>SVG generated by Keynote</desc><defs></defs><g transform="matrix(1.00, 0.00, -0.00, -1.00, 0.0, 38.0)"><text xml:space="preserve" font-family="Courier" font-size="38.0" fill="#F5D327" transform="matrix(1.00, 0.00, -0.00, -1.00, -2.0, 10.0)">/</text><text xml:space="preserve" font-family="Courier" font-size="38.0" fill="#F5D327" transform="matrix(1.00, 0.00, -0.00, -1.00, 20.8, 10.0)"> </text><text xml:space="preserve" font-family="Courier" font-size="38.0" fill="#F5D327" transform="matrix(1.00, 0.00, -0.00, -1.00, 43.6, 10.0)">d</text><text xml:space="preserve" font-family="Courier" font-size="38.0" fill="#F5D327" transform="matrix(1.00, 0.00, -0.00, -1.00, 66.4, 10.0)">e</text><text xml:space="preserve" font-family="Courier" font-size="38.0" fill="#F5D327" transform="matrix(1.00, 0.00, -0.00, -1.00, 89.2, 10.0)">n</text><text xml:space="preserve" font-family="Courier" font-size="38.0" fill="#F5D327" transform="matrix(1.00, 0.00, -0.00, -1.00, 112.0, 10.0)">o</text><text xml:space="preserve" font-family="Courier" font-size="38.0" fill="#F5D327" transform="matrix(1.00, 0.00, -0.00, -1.00, 134.8, 10.0)">m</text><text xml:space="preserve" font-family="Courier" font-size="38.0" fill="#F5D327" transform="matrix(1.00, 0.00, -0.00, -1.00, 157.7, 10.0)"> </text><text xml:space="preserve" font-family="Courier" font-size="38.0" fill="#F5D327" transform="matrix(1.00, 0.00, -0.00, -1.00, 180.5, 10.0)">d</text><text xml:space="preserve" font-family="Courier" font-size="38.0" fill="#F5D327" transform="matrix(1.00, 0.00, -0.00, -1.00, 203.3, 10.0)">o</text><text xml:space="preserve" font-family="Courier" font-size="38.0" fill="#F5D327" transform="matrix(1.00, 0.00, -0.00, -1.00, 226.1, 10.0)">t</text><text xml:space="preserve" font-family="Courier" font-size="38.0" fill="#F5D327" transform="matrix(1.00, 0.00, -0.00, -1.00, 248.9, 10.0)">t</text><text xml:space="preserve" font-family="Courier" font-size="38.0" fill="#F5D327" transform="matrix(1.00, 0.00, -0.00, -1.00, 271.7, 10.0)">i</text><text xml:space="preserve" font-family="Courier" font-size="38.0" fill="#F5D327" transform="matrix(1.00, 0.00, -0.00, -1.00, 294.5, 10.0)">n</text><text xml:space="preserve" font-family="Courier" font-size="38.0" fill="#F5D327" transform="matrix(1.00, 0.00, -0.00, -1.00, 317.3, 10.0)">g</text></g></svg>