<?xml version="1.0" encoding="UTF-8" standalone="no"?><svg xmlns="http://www.w3.org/2000/svg" xmlns:xlink="http://www.w3.org/1999/xlink" clip-rule="evenodd" stroke-miterlimit="4.00" viewBox="0 0 542 42"><desc>SVG generated by Keynote</desc><defs></defs><g transform="matrix(1.00, 0.00, -0.00, -1.00, 0.0, 42.0)"><text xml:space="preserve" font-family="Courier" font-size="38.0" fill="#F5D327" transform="matrix(1.00, 0.00, -0.00, -1.00, 1.0, 11.0)">d</text><text xml:space="preserve" font-family="Courier" font-size="38.0" fill="#F5D327" transform="matrix(1.00, 0.00, -0.00, -1.00, 23.8, 11.0)">o</text><text xml:space="preserve" font-family="Courier" font-size="38.0" fill="#F5D327" transform="matrix(1.00, 0.00, -0.00, -1.00, 46.6, 11.0)">t</text><text xml:space="preserve" font-family="Courier" font-size="38.0" fill="#F5D327" transform="matrix(1.00, 0.00, -0.00, -1.00, 69.4, 11.0)">t</text><text xml:space="preserve" font-family="Courier" font-size="38.0" fill="#F5D327" transform="matrix(1.00, 0.00, -0.00, -1.00, 92.2, 11.0)">i</text><text xml:space="preserve" font-family="Courier" font-size="38.0" fill="#F5D327" transform="matrix(1.00, 0.00, -0.00, -1.00, 115.0, 11.0)">n</text><text xml:space="preserve" font-family="Courier" font-size="38.0" fill="#F5D327" transform="matrix(1.00, 0.00, -0.00, -1.00, 137.8, 11.0)">g</text><text xml:space="preserve" font-family="Courier" font-size="38.0" fill="#F5D327" transform="matrix(1.00, 0.00, -0.00, -1.00, 160.7, 11.0)"> </text><text xml:space="preserve" font-family="Courier" font-size="38.0" fill="#F5D327" transform="matrix(1.00, 0.00, -0.00, -1.00, 183.5, 11.0)">:</text><text xml:space="preserve" font-family="Courier" font-size="38.0" fill="#F5D327" transform="matrix(1.00, 0.00, -0.00, -1.00, 206.3, 11.0)"> </text><text xml:space="preserve" font-family="Courier" font-size="38.0" fill="#F5D327" transform="matrix(1.00, 0.00, -0.00, -1.00, 229.1, 11.0)">e</text><text xml:space="preserve" font-family="Courier" font-size="38.0" fill="#F5D327" transform="matrix(1.00, 0.00, -0.00, -1.00, 251.9, 11.0)">m</text><text xml:space="preserve" font-family="Courier" font-size="38.0" fill="#F5D327" transform="matrix(1.00, 0.00, -0.00, -1.00, 274.7, 11.0)">p</text><text xml:space="preserve" font-family="Courier" font-size="38.0" fill="#F5D327" transform="matrix(1.00, 0.00, -0.00, -1.00, 297.5, 11.0)">t</text><text xml:space="preserve" font-family="Courier" font-size="38.0" fill="#F5D327" transform="matrix(1.00, 0.00, -0.00, -1.00, 320.3, 11.0)">y</text><text xml:space="preserve" font-family="Courier" font-size="38.0" fill="#F5D327" transform="matrix(1.00, 0.00, -0.00, -1.00, 343.1, 11.0)"> </text><text xml:space="preserve" font-family="Courier" font-size="38.0" fill="#F5D327" transform="matrix(1.00, 0.00, -0.00, -1.00, 365.9, 11.0)">|</text><text xml:space="preserve" font-family="Courier" font-size="38.0" fill="#F5D327" transform="matrix(1.00, 0.00, -0.00, -1.00, 388.7, 11.0)"> </text><text xml:space="preserve" font-family="Courier" font-size="38.0" fill="#F5D327" transform="matrix(1.00, 0.00, -0.00, -1.00, 411.5, 11.0)">.</text><text xml:space="preserve" font-family="Courier" font-size="38.0" fill="#F5D327" transform="matrix(1.00, 0.00, -0.00, -1.00, 434.3, 11.0)"> </text><text xml:space="preserve" font-family="Courier" font-size="38.0" fill="#F5D327" transform="matrix(1.00, 0.00, -0.00, -1.00, 457.2, 11.0)">|</text><text xml:space="preserve" font-family="Courier" font-size="38.0" fill="#F5D327" transform="matrix(1.00, 0.00, -0.00, -1.00, 480.0, 11.0)"> </text><text xml:space="preserve" font-family="Courier" font-size="38.0" fill="#F5D327" transform="matrix(1.00, 0.00, -0.00, -1.00, 502.8, 11.0)">.</text><text xml:space="preserve" font-family="Courier" font-size="38.0" fill="#F5D327" transform="matrix(1.00, 0.00, -0.00, -1.00, 525.6, 11.0)">.</text></g></svg>