<?xml version="1.0" encoding="UTF-8" standalone="no"?><svg xmlns="http://www.w3.org/2000/svg" xmlns:xlink="http://www.w3.org/1999/xlink" clip-rule="evenodd" stroke-miterlimit="4.00" viewBox="0 0 751 45"><desc>SVG generated by Keynote</desc><defs></defs><g transform="matrix(1.00, 0.00, -0.00, -1.00, 0.0, 45.0)"><text xml:space="preserve" font-family="Avenir-Book" font-size="38.0" fill="#FEFFFF" transform="matrix(1.00, 0.00, -0.00, -1.00, 1.0, 13.0)">W</text><text xml:space="preserve" font-family="Avenir-Book" font-size="38.0" fill="#FEFFFF" transform="matrix(1.00, 0.00, -0.00, -1.00, 36.9, 13.0)">h</text><text xml:space="preserve" font-family="Avenir-Book" font-size="38.0" fill="#FEFFFF" transform="matrix(1.00, 0.00, -0.00, -1.00, 58.0, 13.0)">e</text><text xml:space="preserve" font-family="Avenir-Book" font-size="38.0" fill="#FEFFFF" transform="matrix(1.00, 0.00, -0.00, -1.00, 79.1, 13.0)">n</text><text xml:space="preserve" font-family="Avenir-Book" font-size="38.0" fill="#FEFFFF" transform="matrix(1.00, 0.00, -0.00, -1.00, 100.3, 13.0)"> </text><text xml:space="preserve" font-family="Avenir-Book" font-size="38.0" fill="#FEFFFF" transform="matrix(1.00, 0.00, -0.00, -1.00, 110.8, 13.0)">o</text><text xml:space="preserve" font-family="Avenir-Book" font-size="38.0" fill="#FEFFFF" transform="matrix(1.00, 0.00, -0.00, -1.00, 133.4, 13.0)">m</text><text xml:space="preserve" font-family="Avenir-Book" font-size="38.0" fill="#FEFFFF" transform="matrix(1.00, 0.00, -0.00, -1.00, 165.7, 13.0)">i</text><text xml:space="preserve" font-family="Avenir-Book" font-size="38.0" fill="#FEFFFF" transform="matrix(1.00, 0.00, -0.00, -1.00, 174.8, 13.0)">t</text><text xml:space="preserve" font-family="Avenir-Book" font-size="38.0" fill="#FEFFFF" transform="matrix(1.00, 0.00, -0.00, -1.00, 187.5, 13.0)">t</text><text xml:space="preserve" font-family="Avenir-Book" font-size="38.0" fill="#FEFFFF" transform="matrix(1.00, 0.00, -0.00, -1.00, 200.1, 13.0)">e</text><text xml:space="preserve" font-family="Avenir-Book" font-size="38.0" fill="#FEFFFF" transform="matrix(1.00, 0.00, -0.00, -1.00, 221.2, 13.0)">d</text><text xml:space="preserve" font-family="Avenir-Book" font-size="38.0" fill="#FEFFFF" transform="matrix(1.00, 0.00, -0.00, -1.00, 244.4, 13.0)">,</text><text xml:space="preserve" font-family="Avenir-Book" font-size="38.0" fill="#FEFFFF" transform="matrix(1.00, 0.00, -0.00, -1.00, 255.0, 13.0)"> </text><text xml:space="preserve" font-family="Avenir-Book" font-size="38.0" fill="#FEFFFF" transform="matrix(1.00, 0.00, -0.00, -1.00, 265.6, 13.0)">t</text><text xml:space="preserve" font-family="Avenir-Book" font-size="38.0" fill="#FEFFFF" transform="matrix(1.00, 0.00, -0.00, -1.00, 278.2, 13.0)">a</text><text xml:space="preserve" font-family="Avenir-Book" font-size="38.0" fill="#FEFFFF" transform="matrix(1.00, 0.00, -0.00, -1.00, 297.9, 13.0)">k</text><text xml:space="preserve" font-family="Avenir-Book" font-size="38.0" fill="#FEFFFF" transform="matrix(1.00, 0.00, -0.00, -1.00, 316.2, 13.0)">e</text><text xml:space="preserve" font-family="Avenir-Book" font-size="38.0" fill="#FEFFFF" transform="matrix(1.00, 0.00, -0.00, -1.00, 337.3, 13.0)">s</text><text xml:space="preserve" font-family="Avenir-Book" font-size="38.0" fill="#FEFFFF" transform="matrix(1.00, 0.00, -0.00, -1.00, 353.5, 13.0)"> </text><text xml:space="preserve" font-family="Avenir-Book" font-size="38.0" fill="#FEFFFF" transform="matrix(1.00, 0.00, -0.00, -1.00, 364.1, 13.0)">t</text><text xml:space="preserve" font-family="Avenir-Book" font-size="38.0" fill="#FEFFFF" transform="matrix(1.00, 0.00, -0.00, -1.00, 376.7, 13.0)">h</text><text xml:space="preserve" font-family="Avenir-Book" font-size="38.0" fill="#FEFFFF" transform="matrix(1.00, 0.00, -0.00, -1.00, 397.8, 13.0)">e</text><text xml:space="preserve" font-family="Avenir-Book" font-size="38.0" fill="#FEFFFF" transform="matrix(1.00, 0.00, -0.00, -1.00, 419.0, 13.0)"> </text><text xml:space="preserve" font-family="Avenir-Book" font-size="38.0" fill="#FEFFFF" transform="matrix(1.00, 0.00, -0.00, -1.00, 429.5, 13.0)">l</text><text xml:space="preserve" font-family="Avenir-Book" font-size="38.0" fill="#FEFFFF" transform="matrix(1.00, 0.00, -0.00, -1.00, 438.6, 13.0)">a</text><text xml:space="preserve" font-family="Avenir-Book" font-size="38.0" fill="#FEFFFF" transform="matrix(1.00, 0.00, -0.00, -1.00, 458.4, 13.0)">s</text><text xml:space="preserve" font-family="Avenir-Book" font-size="38.0" fill="#FEFFFF" transform="matrix(1.00, 0.00, -0.00, -1.00, 474.6, 13.0)">t</text><text xml:space="preserve" font-family="Avenir-Book" font-size="38.0" fill="#FEFFFF" transform="matrix(1.00, 0.00, -0.00, -1.00, 487.2, 13.0)"> </text><text xml:space="preserve" font-family="Avenir-Book" font-size="38.0" fill="#FEFFFF" transform="matrix(1.00, 0.00, -0.00, -1.00, 497.7, 13.0)">s</text><text xml:space="preserve" font-family="Avenir-Book" font-size="38.0" fill="#FEFFFF" transform="matrix(1.00, 0.00, -0.00, -1.00, 513.9, 13.0)">p</text><text xml:space="preserve" font-family="Avenir-Book" font-size="38.0" fill="#FEFFFF" transform="matrix(1.00, 0.00, -0.00, -1.00, 537.1, 13.0)">e</text><text xml:space="preserve" font-family="Avenir-Book" font-size="38.0" fill="#FEFFFF" transform="matrix(1.00, 0.00, -0.00, -1.00, 558.3, 13.0)">c</text><text xml:space="preserve" font-family="Avenir-Book" font-size="38.0" fill="#FEFFFF" transform="matrix(1.00, 0.00, -0.00, -1.00, 576.6, 13.0)">i</text><text xml:space="preserve" font-family="Avenir-Book" font-size="38.0" fill="#FEFFFF" transform="matrix(1.00, 0.00, -0.00, -1.00, 585.7, 13.0)">f</text><text xml:space="preserve" font-family="Avenir-Book" font-size="38.0" fill="#FEFFFF" transform="matrix(1.00, 0.00, -0.00, -1.00, 597.0, 13.0)">i</text><text xml:space="preserve" font-family="Avenir-Book" font-size="38.0" fill="#FEFFFF" transform="matrix(1.00, 0.00, -0.00, -1.00, 606.1, 13.0)">e</text><text xml:space="preserve" font-family="Avenir-Book" font-size="38.0" fill="#FEFFFF" transform="matrix(1.00, 0.00, -0.00, -1.00, 627.2, 13.0)">d</text><text xml:space="preserve" font-family="Avenir-Book" font-size="38.0" fill="#FEFFFF" transform="matrix(1.00, 0.00, -0.00, -1.00, 650.4, 13.0)"> </text><text xml:space="preserve" font-family="Avenir-Book" font-size="38.0" fill="#FEFFFF" transform="matrix(1.00, 0.00, -0.00, -1.00, 661.0, 13.0)">v</text><text xml:space="preserve" font-family="Avenir-Book" font-size="38.0" fill="#FEFFFF" transform="matrix(1.00, 0.00, -0.00, -1.00, 679.3, 13.0)">a</text><text xml:space="preserve" font-family="Avenir-Book" font-size="38.0" fill="#FEFFFF" transform="matrix(1.00, 0.00, -0.00, -1.00, 699.0, 13.0)">l</text><text xml:space="preserve" font-family="Avenir-Book" font-size="38.0" fill="#FEFFFF" transform="matrix(1.00, 0.00, -0.00, -1.00, 708.1, 13.0)">u</text><text xml:space="preserve" font-family="Avenir-Book" font-size="38.0" fill="#FEFFFF" transform="matrix(1.00, 0.00, -0.00, -1.00, 729.3, 13.0)">e</text></g></svg>