<?xml version="1.0" encoding="UTF-8" standalone="no"?><svg xmlns="http://www.w3.org/2000/svg" xmlns:xlink="http://www.w3.org/1999/xlink" clip-rule="evenodd" stroke-miterlimit="4.00" viewBox="0 0 394 233"><desc>SVG generated by Keynote</desc><defs><linearGradient id="gradSh1.164" x1="0.0" y1="0.0" x2="100.0" y2="0.0" gradientUnits="userSpaceOnUse" gradientTransform="matrix(0.00, -0.62, -1.52, 0.00, 196.8, 147.3)"><stop offset="0.00000" stop-color="#FB4912"></stop><stop offset="0.00147" stop-color="#FA4912"></stop><stop offset="0.13636" stop-color="#E03F10"></stop><stop offset="0.13783" stop-color="#DF3F10"></stop><stop offset="0.16202" stop-color="#DB3E0F"></stop><stop offset="0.16276" stop-color="#DA3E0F"></stop><stop offset="0.58724" stop-color="#861F08"></stop><stop offset="0.59164" stop-color="#851F08"></stop><stop offset="0.59897" stop-color="#841F07"></stop><stop offset="0.60117" stop-color="#831E07"></stop><stop offset="0.81745" stop-color="#590F03"></stop><stop offset="0.81818" stop-color="#580F03"></stop><stop offset="0.92522" stop-color="#430702"></stop><stop offset="0.92669" stop-color="#430701"></stop><stop offset="0.92889" stop-color="#420701"></stop><stop offset="0.98094" stop-color="#380400"></stop><stop offset="0.98167" stop-color="#380300"></stop><stop offset="0.98460" stop-color="#370300"></stop><stop offset="1.00000" stop-color="#340200"></stop></linearGradient></defs><g transform="matrix(1.00, 0.00, -0.00, -1.00, 0.0, 233.0)"><image xlink:href="../../4AAE6EA7-3F1F-4CAC-8E5B-8863539C57B9/assets/0ABDBFE58846D4E14DFCA112EE026A95.png" width="390.00" height="150.00" transform="matrix(1.00, 0.00, -0.00, -1.00, 1.8, 151.3)" opacity="0.76"></image><g><clipPath id="clip-539"><path d="M 121.8 98.1 L 121.8 134.5 C 121.8 141.0 127.1 146.3 133.6 146.3 L 260.0 146.3 C 266.5 146.3 271.8 141.0 271.8 134.5 L 271.8 98.1 C 271.8 91.6 266.5 86.3 260.0 86.3 L 133.6 86.3 C 127.1 86.3 121.8 91.6 121.8 98.1 Z M 121.8 98.1 "></path></clipPath><g clip-path="url(#clip-539)"><path d="M 121.8 98.1 L 121.8 134.5 C 121.8 141.0 127.1 146.3 133.6 146.3 L 260.0 146.3 C 266.5 146.3 271.8 141.0 271.8 134.5 L 271.8 98.1 C 271.8 91.6 266.5 86.3 260.0 86.3 L 133.6 86.3 C 127.1 86.3 121.8 91.6 121.8 98.1 Z M 121.8 98.1 " fill="url(#gradSh1.164)"></path></g></g></g></svg>