<?xml version="1.0" encoding="UTF-8" standalone="no"?><svg xmlns="http://www.w3.org/2000/svg" xmlns:xlink="http://www.w3.org/1999/xlink" clip-rule="evenodd" stroke-miterlimit="4.00" viewBox="0 0 129 118"><desc>SVG generated by Keynote</desc><defs><linearGradient id="gradSh1.181" x1="0.0" y1="0.0" x2="100.0" y2="0.0" gradientUnits="userSpaceOnUse" gradientTransform="matrix(0.00, -1.09, -1.20, 0.00, 64.6, 113.7)"><stop offset="0.00000" stop-color="#EF951A"></stop><stop offset="0.00293" stop-color="#EF941A"></stop><stop offset="1.00000" stop-color="#DE6A10"></stop></linearGradient></defs><g transform="matrix(1.00, 0.00, -0.00, -1.00, 0.0, 118.0)"><g><clipPath id="clip-556"><path d="M 5.7 17.1 L 5.7 100.9 C 5.7 107.4 11.0 112.7 17.5 112.7 L 111.7 112.7 C 118.2 112.7 123.4 107.4 123.4 100.9 L 123.4 17.1 C 123.4 10.6 118.2 5.3 111.7 5.3 L 17.5 5.3 C 11.0 5.3 5.7 10.6 5.7 17.1 Z M 5.7 17.1 "></path></clipPath><g clip-path="url(#clip-556)"><path d="M 5.7 17.1 L 5.7 100.9 C 5.7 107.4 11.0 112.7 17.5 112.7 L 111.7 112.7 C 118.2 112.7 123.4 107.4 123.4 100.9 L 123.4 17.1 C 123.4 10.6 118.2 5.3 111.7 5.3 L 17.5 5.3 C 11.0 5.3 5.7 10.6 5.7 17.1 Z M 5.7 17.1 " fill="url(#gradSh1.181)"></path></g></g><path d="M 7.7 31.0 C 7.5 30.6 7.8 29.6 7.6 29.4 M 7.7 31.0 C 9.2 30.0 9.3 28.3 9.6 25.9 C 9.6 23.4 8.2 26.0 7.6 25.7 C 7.0 22.4 8.1 22.4 9.7 22.9 C 8.6 21.6 10.5 17.8 8.5 18.6 C 8.5 23.9 8.0 14.8 6.9 19.3 C 6.6 19.8 6.1 18.5 6.1 18.0 C 5.2 19.5 4.3 16.9 3.7 19.3 C 2.4 19.6 3.0 19.2 2.0 20.7 C 1.9 21.4 2.3 21.1 2.6 21.1 C 4.1 21.3 1.8 22.9 2.7 24.1 C 0.8 25.3 3.0 26.5 3.8 25.4 C 3.6 26.6 1.6 27.9 3.0 29.1 C 2.0 29.7 2.7 32.7 3.9 30.9 C 4.6 29.6 5.2 31.1 5.7 31.3 C 6.1 30.8 5.5 29.0 5.8 28.7 C 6.1 29.2 6.8 31.6 6.8 29.1 C 7.4 29.9 7.8 28.7 7.7 31.0 C 7.7 31.0 7.7 31.0 7.7 31.0 Z M 8.8 21.9 C 9.3 21.9 8.8 22.8 8.8 21.9 C 8.8 21.9 8.8 21.9 8.8 21.9 Z M 2.0 28.1 C 2.5 28.1 2.0 29.0 2.0 28.1 C 2.0 28.1 2.0 28.1 2.0 28.1 Z M 2.6 21.5 C 3.1 21.5 2.5 22.4 2.6 21.5 C 2.6 21.5 2.6 21.5 2.6 21.5 Z M 8.5 24.3 C 8.0 25.7 7.8 23.1 8.2 22.9 C 8.2 23.2 8.9 23.9 8.5 24.3 C 8.5 24.3 8.5 24.3 8.5 24.3 Z M 5.5 24.5 C 5.7 24.6 5.8 25.2 5.3 25.1 C 5.2 24.7 5.4 24.4 5.5 24.5 C 5.5 24.5 5.5 24.5 5.5 24.5 Z M 7.6 17.4 C 7.8 17.5 7.9 18.1 7.4 18.1 C 7.2 17.7 7.4 17.3 7.6 17.4 C 7.6 17.4 7.6 17.4 7.6 17.4 Z M 7.1 25.9 C 7.1 26.3 6.6 26.4 6.5 26.0 C 6.8 25.8 6.8 24.8 7.1 25.9 C 7.1 25.9 7.1 25.9 7.1 25.9 Z M 8.8 28.1 C 8.6 29.3 7.8 26.9 8.0 26.9 C 8.4 26.6 9.2 27.5 8.8 28.1 C 8.8 28.1 8.8 28.1 8.8 28.1 Z M 6.4 26.6 C 6.2 27.6 6.1 26.2 6.4 26.6 C 6.4 26.6 6.4 26.6 6.4 26.6 Z M 3.9 18.4 C 3.6 19.4 3.5 18.0 3.9 18.4 C 3.9 18.4 3.9 18.4 3.9 18.4 Z M 2.3 23.6 C 2.1 24.6 1.9 23.2 2.3 23.6 C 2.3 23.6 2.3 23.6 2.3 23.6 Z M 7.5 21.7 C 7.5 19.9 8.8 21.4 7.5 21.7 C 7.5 21.7 7.5 21.7 7.5 21.7 Z M 9.0 30.9 C 9.0 29.2 10.2 30.7 9.0 30.9 C 9.0 30.9 9.0 30.9 9.0 30.9 Z M 8.7 15.3 C 8.7 16.5 11.6 12.7 9.1 13.6 C 7.4 13.5 9.2 10.5 10.0 12.0 C 10.7 11.4 10.7 11.5 10.5 10.6 C 11.5 11.3 13.3 10.5 13.7 9.6 C 13.6 8.5 12.3 10.3 12.9 8.7 C 15.3 7.0 12.0 7.8 12.7 6.0 C 12.8 5.9 13.1 6.5 13.3 6.0 C 13.0 4.8 10.4 5.0 11.1 3.7 C 10.5 4.1 7.1 4.8 8.8 4.9 C 9.9 5.6 5.1 6.3 6.8 7.4 C 5.4 7.5 5.8 9.1 4.3 9.5 C 3.7 10.1 4.6 10.6 4.9 10.6 C 5.8 10.9 2.5 10.7 3.7 12.4 C 3.2 12.4 2.4 15.9 3.8 13.5 C 3.5 14.2 2.7 18.2 4.6 16.3 C 5.5 13.7 6.2 18.7 6.5 16.1 C 6.9 14.1 6.7 13.8 7.4 15.3 C 7.2 15.7 7.2 17.7 8.1 16.1 C 7.9 15.7 8.2 15.0 8.7 15.3 C 8.7 15.3 8.7 15.3 8.7 15.3 Z M 6.1 15.2 C 6.2 14.0 6.7 15.2 6.1 15.2 C 6.1 15.2 6.1 15.2 6.1 15.2 Z M 4.1 9.1 C 4.8 7.7 4.7 9.3 4.1 9.1 C 4.1 9.1 4.1 9.1 4.1 9.1 Z M 10.1 12.8 C 9.8 12.1 11.5 13.0 10.1 12.8 C 10.1 12.8 10.1 12.8 10.1 12.8 Z M 4.3 12.0 C 4.3 11.9 4.4 12.3 4.4 12.6 C 4.4 12.5 4.3 12.1 4.3 12.0 C 4.3 12.0 4.3 12.0 4.3 12.0 Z M 10.9 11.6 C 11.0 10.1 12.2 12.3 10.9 11.6 C 10.9 11.6 10.9 11.6 10.9 11.6 Z M 11.9 8.4 C 11.0 6.8 13.4 7.9 11.9 8.4 C 11.9 8.4 11.9 8.4 11.9 8.4 Z M 7.4 7.0 C 7.4 7.5 6.9 7.1 7.4 7.0 C 7.4 7.0 7.4 7.0 7.4 7.0 Z M 3.0 15.3 C 3.4 15.8 2.8 15.7 3.0 15.3 C 3.0 15.3 3.0 15.3 3.0 15.3 Z M 9.5 5.4 C 9.7 6.0 8.7 5.5 9.5 5.4 C 9.5 5.4 9.5 5.4 9.5 5.4 Z M 9.6 12.2 C 10.1 14.1 6.9 12.4 9.6 12.2 C 9.6 12.2 9.6 12.2 9.6 12.2 Z M 8.8 14.4 C 8.8 15.3 7.9 13.9 8.3 13.6 C 8.4 13.7 8.7 14.2 8.8 14.4 C 8.8 14.4 8.8 14.4 8.8 14.4 Z M 10.2 11.0 C 10.2 12.2 9.4 11.4 10.2 11.0 C 10.2 11.0 10.2 11.0 10.2 11.0 Z M 9.7 13.3 C 9.4 13.5 9.7 12.9 9.7 13.3 C 9.7 13.3 9.7 13.3 9.7 13.3 Z M 12.4 10.9 C 12.0 11.0 12.6 10.6 12.4 10.9 C 12.4 10.9 12.4 10.9 12.4 10.9 Z M 9.2 15.6 C 9.0 15.9 9.1 15.2 9.2 15.6 C 9.2 15.6 9.2 15.6 9.2 15.6 Z M 11.6 10.4 C 11.2 9.8 9.3 9.4 11.9 9.0 C 12.5 9.2 12.3 10.5 11.6 10.4 C 11.6 10.4 11.6 10.4 11.6 10.4 Z M 7.7 36.5 C 9.7 28.7 6.1 30.6 5.5 30.2 C 4.5 29.1 3.9 30.2 3.2 31.7 C 0.9 33.4 5.5 34.2 3.3 35.4 C 0.3 37.5 5.9 37.8 2.7 38.7 C 1.9 38.3 2.6 41.4 2.8 41.1 C 1.3 42.6 4.0 44.8 4.2 44.8 C 3.8 45.9 1.0 46.0 3.1 49.1 C 3.9 51.5 1.0 52.6 3.0 52.0 C 0.8 53.8 3.6 53.2 2.9 55.0 C 1.7 56.2 4.8 55.0 2.4 57.3 C 4.3 58.2 1.2 56.2 2.5 62.3 C 2.7 59.4 4.0 65.1 2.8 63.9 C 1.4 61.9 3.3 66.8 2.5 69.5 C 3.1 70.3 4.8 73.6 3.0 73.0 C 0.9 75.8 4.3 75.9 2.5 77.1 C 1.8 78.1 3.4 78.4 3.2 79.1 C 1.9 80.1 2.8 81.0 2.4 84.5 C 1.8 92.2 5.8 85.6 6.2 88.6 C 6.8 89.1 11.1 84.8 7.9 86.5 C 8.8 85.9 5.5 79.6 9.0 82.8 C 7.6 80.4 10.4 83.3 8.8 78.4 C 6.3 85.1 7.8 70.9 9.0 77.3 C 9.7 76.2 9.6 73.6 9.0 75.5 C 6.7 76.2 10.0 71.0 7.2 73.6 C 8.0 69.5 5.5 70.6 7.3 69.5 C 10.2 68.5 6.5 69.7 7.4 67.6 C 7.4 62.8 10.8 66.5 8.5 63.6 C 10.0 58.9 7.2 62.6 6.9 60.9 C 4.8 60.5 8.4 56.1 8.7 59.7 C 7.6 57.8 9.7 59.4 8.4 57.3 C 6.5 58.8 10.4 54.5 8.9 55.1 C 8.4 53.2 7.3 54.2 7.2 53.6 C 7.2 50.7 9.1 51.6 7.7 51.0 C 6.9 50.4 9.4 49.0 8.8 48.6 C 8.7 51.6 6.8 46.2 7.8 45.9 C 7.9 47.7 10.3 45.0 8.8 43.8 C 4.6 45.3 9.8 41.3 8.4 40.0 C 6.1 41.2 8.1 33.5 9.2 36.4 C 9.0 36.3 7.7 36.5 7.7 36.5 M 8.4 47.8 C 8.2 50.2 8.0 45.2 8.4 47.8 M 9.0 47.7 C 8.3 48.8 9.6 45.4 9.3 47.8 C 9.3 47.9 9.1 47.5 9.0 47.7 M 9.1 57.7 C 8.5 57.4 9.5 56.4 9.1 57.7 M 7.7 59.6 C 7.1 61.2 7.6 57.5 7.7 59.6 M 8.1 81.8 C 4.7 79.5 10.1 79.4 8.1 81.8 M 8.8 67.1 C 8.4 64.4 10.3 68.1 8.8 67.1 M 8.0 66.3 C 7.4 65.1 8.8 66.0 8.0 66.3 M 8.1 77.6 C 8.1 77.8 8.1 77.8 8.1 77.6 C 8.1 77.6 8.1 77.6 8.1 77.6 Z M 8.0 84.1 C 8.1 84.1 8.1 84.1 8.0 84.1 C 8.0 84.1 8.0 84.1 8.0 84.1 Z M 7.8 71.2 C 8.6 69.1 8.1 74.5 7.8 71.2 C 7.8 71.2 7.8 71.2 7.8 71.2 Z M 2.8 81.0 C 2.8 80.9 2.8 80.9 2.8 81.0 C 2.8 81.0 2.8 81.0 2.8 81.0 Z M 6.9 45.9 C 6.8 45.8 6.8 45.8 6.9 45.9 C 6.9 45.9 6.9 45.9 6.9 45.9 Z M 8.1 38.4 C 7.7 38.5 8.5 37.1 8.1 38.4 C 8.1 38.4 8.1 38.4 8.1 38.4 Z M 4.2 32.4 C 4.2 32.3 4.2 32.3 4.2 32.4 C 4.2 32.4 4.2 32.4 4.2 32.4 Z M 5.1 43.4 C 5.0 43.3 5.0 43.3 5.1 43.4 C 5.1 43.4 5.1 43.4 5.1 43.4 Z M 7.6 44.5 C 9.5 43.2 7.1 47.3 7.6 44.5 C 7.6 44.5 7.6 44.5 7.6 44.5 Z M 3.0 68.7 C 3.9 68.7 2.8 70.4 3.0 68.7 C 3.0 68.7 3.0 68.7 3.0 68.7 Z M 6.9 59.9 C 7.4 60.2 6.7 61.0 6.9 59.9 C 6.9 59.9 6.9 59.9 6.9 59.9 Z M 9.5 55.8 C 9.9 56.1 9.3 56.9 9.5 55.8 C 9.5 55.8 9.5 55.8 9.5 55.8 Z M 8.7 38.6 C 8.8 38.7 8.8 38.7 8.7 38.6 C 8.7 38.6 8.7 38.6 8.7 38.6 Z M 7.2 41.2 C 9.0 39.4 6.3 44.1 7.2 41.2 C 7.2 41.2 7.2 41.2 7.2 41.2 Z M 6.7 38.1 C 6.1 39.0 7.0 35.7 6.7 38.1 M 4.0 39.9 C 4.8 42.1 0.9 37.8 4.0 39.9 C 4.0 39.9 4.0 39.9 4.0 39.9 Z M 3.3 51.4 C 3.2 51.5 3.2 51.5 3.3 51.4 C 3.3 51.4 3.3 51.4 3.3 51.4 Z M 8.5 50.2 C 8.4 52.2 8.1 48.9 8.5 50.2 C 8.5 50.2 8.5 50.2 8.5 50.2 Z M 8.9 32.8 C 8.8 34.8 8.5 31.5 8.9 32.8 C 8.9 32.8 8.9 32.8 8.9 32.8 Z M 5.0 58.1 C 5.3 61.3 4.1 56.1 5.0 58.1 C 5.0 58.1 5.0 58.1 5.0 58.1 Z M 7.1 70.0 C 7.0 70.1 7.0 70.1 7.1 70.0 C 7.1 70.0 7.1 70.0 7.1 70.0 Z M 7.8 72.3 C 7.8 72.3 7.8 72.3 7.8 72.3 C 7.8 72.3 7.8 72.3 7.8 72.3 Z M 6.0 81.6 C 5.9 81.7 5.9 81.7 6.0 81.6 C 6.0 81.6 6.0 81.6 6.0 81.6 Z M 8.7 74.3 C 8.6 74.4 8.6 74.4 8.7 74.3 C 8.7 74.3 8.7 74.3 8.7 74.3 Z M 8.2 80.7 C 8.1 80.9 8.1 80.9 8.2 80.7 C 8.2 80.7 8.2 80.7 8.2 80.7 Z M 9.7 79.8 C 9.7 80.0 9.7 80.0 9.7 79.8 C 9.7 79.8 9.7 79.8 9.7 79.8 Z M 2.0 65.5 C 2.0 65.7 2.0 65.7 2.0 65.5 C 2.0 65.5 2.0 65.5 2.0 65.5 Z M 9.3 42.1 C 9.1 42.2 9.1 42.2 9.3 42.1 C 9.3 42.1 9.3 42.1 9.3 42.1 Z M 7.5 80.2 C 7.5 80.3 7.5 80.3 7.5 80.2 C 7.5 80.2 7.5 80.2 7.5 80.2 Z M 6.1 64.5 C 4.6 64.6 8.1 63.2 6.2 64.9 C 6.1 64.8 6.4 64.4 6.1 64.5 M 3.6 66.6 C 3.6 66.5 3.6 66.5 3.6 66.6 C 3.6 66.6 3.6 66.6 3.6 66.6 Z M 2.7 59.5 C 2.6 59.4 2.6 59.4 2.7 59.5 C 2.7 59.5 2.7 59.5 2.7 59.5 Z M 9.0 73.2 C 9.8 72.9 8.3 74.9 8.9 72.9 M 3.4 81.6 C 4.2 81.4 2.7 83.4 3.3 81.4 M 8.3 30.6 C 7.7 30.3 8.7 29.2 8.3 30.6 M 1.9 57.9 C 1.3 57.6 2.3 56.6 1.9 57.9 M 3.8 61.2 C 4.7 60.9 3.2 63.0 3.8 61.0 M 3.4 76.7 C 3.4 76.9 3.4 76.9 3.4 76.7 C 3.4 76.7 3.4 76.7 3.4 76.7 Z M 8.3 53.2 C 8.3 53.3 8.3 53.3 8.3 53.2 C 8.3 53.2 8.3 53.2 8.3 53.2 Z M 6.5 61.9 C 7.7 60.7 5.8 63.5 6.5 61.9 M 6.3 50.7 C 7.7 49.0 5.8 53.4 6.3 50.7 M 3.0 85.3 C 4.7 83.4 2.1 86.8 3.0 85.3 M 7.3 75.8 C 9.1 73.8 6.4 77.2 7.3 75.8 M 7.6 55.0 C 8.5 54.8 7.0 56.9 7.6 55.0 M 8.5 35.1 C 8.6 33.3 9.2 37.5 8.5 35.1 M 3.4 72.0 C 3.3 72.1 3.3 72.1 3.4 72.0 C 3.4 72.0 3.4 72.0 3.4 72.0 Z M 1.9 41.1 C 1.8 41.2 1.8 41.2 1.9 41.1 C 1.9 41.1 1.9 41.1 1.9 41.1 Z M 8.7 87.8 C 8.6 87.9 8.6 87.9 8.7 87.8 C 8.7 87.8 8.7 87.8 8.7 87.8 Z M 6.5 74.6 C 6.4 74.7 6.4 74.7 6.5 74.6 C 6.5 74.6 6.5 74.6 6.5 74.6 Z M 8.9 84.1 C 8.8 84.2 8.8 84.2 8.9 84.1 C 8.9 84.1 8.9 84.1 8.9 84.1 Z M 5.2 68.6 C 5.2 68.6 5.2 68.6 5.2 68.6 C 5.2 68.6 5.2 68.6 5.2 68.6 Z M 9.6 67.4 C 9.6 67.4 9.6 67.4 9.6 67.4 C 9.6 67.4 9.6 67.4 9.6 67.4 Z M 7.7 60.8 C 7.7 60.8 7.7 60.8 7.7 60.8 C 7.7 60.8 7.7 60.8 7.7 60.8 Z M 9.3 70.4 C 9.5 74.3 7.8 68.4 9.3 70.4 C 9.3 70.4 9.3 70.4 9.3 70.4 Z M 4.9 63.6 C 4.8 63.6 4.8 63.6 4.9 63.6 C 4.9 63.6 4.9 63.6 4.9 63.6 Z M 8.0 63.0 C 9.2 65.5 5.8 64.3 8.0 63.0 M 9.0 52.0 C 9.7 52.8 8.0 52.4 9.0 52.0 M 3.2 47.7 C 3.2 47.7 3.2 47.7 3.2 47.7 C 3.2 47.7 3.2 47.7 3.2 47.7 Z M 3.7 48.8 C 3.6 49.0 3.6 49.0 3.7 48.8 C 3.7 48.8 3.7 48.8 3.7 48.8 Z M 9.3 49.4 C 9.3 49.4 9.3 49.4 9.3 49.4 C 9.3 49.4 9.3 49.4 9.3 49.4 Z M 2.0 49.0 C 2.0 49.1 2.0 49.1 2.0 49.0 C 2.0 49.0 2.0 49.0 2.0 49.0 Z M 9.5 65.9 C 9.5 65.9 9.5 65.9 9.5 65.9 C 9.5 65.9 9.5 65.9 9.5 65.9 Z M 9.5 86.0 C 9.5 86.1 9.5 86.1 9.5 86.0 C 9.5 86.0 9.5 86.0 9.5 86.0 Z M 3.8 35.7 C 3.8 35.8 3.8 35.8 3.8 35.7 C 3.8 35.7 3.8 35.7 3.8 35.7 Z M 7.8 68.0 C 7.7 68.0 7.7 68.0 7.8 68.0 C 7.8 68.0 7.8 68.0 7.8 68.0 Z M 3.5 44.8 C 3.4 44.9 3.4 44.9 3.5 44.8 C 3.5 44.8 3.5 44.8 3.5 44.8 Z M 8.1 66.7 C 8.1 66.7 8.1 66.7 8.1 66.7 C 8.1 66.7 8.1 66.7 8.1 66.7 Z M 3.0 71.4 C 3.0 71.5 3.0 71.5 3.0 71.4 C 3.0 71.4 3.0 71.4 3.0 71.4 Z M 2.0 75.7 C 2.0 75.8 2.0 75.8 2.0 75.7 C 2.0 75.7 2.0 75.7 2.0 75.7 Z M 6.1 71.1 C 6.0 71.2 6.0 71.2 6.1 71.1 C 6.1 71.1 6.1 71.1 6.1 71.1 Z M 5.4 43.4 C 6.9 35.5 6.1 49.7 5.4 43.4 M 5.7 72.4 C 6.1 66.9 7.4 76.9 5.7 72.4 C 6.2 73.0 5.8 72.5 5.7 72.4 M 9.4 89.8 C 7.8 87.5 6.2 87.5 4.6 88.5 C 3.7 89.6 7.0 89.6 4.2 89.6 C 3.7 87.0 0.1 90.8 3.6 90.7 C 4.1 94.1 1.4 91.3 2.8 93.3 C 3.1 97.0 2.1 95.1 2.3 97.9 C 4.2 99.5 1.4 99.5 3.2 100.3 C 1.2 98.9 4.0 103.7 3.2 104.0 C 2.2 102.6 2.8 105.7 4.1 107.8 C 5.4 109.8 6.5 111.0 4.9 107.3 C 7.2 109.8 5.7 110.0 6.3 111.0 C 8.2 111.3 10.4 115.4 12.8 115.0 C 12.5 114.6 11.5 114.1 11.5 113.6 C 11.3 112.7 13.5 114.6 13.2 114.5 C 14.6 114.4 20.3 114.5 14.1 115.2 C 13.6 116.0 18.6 115.1 18.5 116.0 C 22.6 116.0 19.5 114.1 21.3 115.5 C 24.2 115.5 26.3 115.6 26.3 115.3 C 28.1 115.5 28.5 116.6 30.1 115.6 C 33.6 117.7 32.6 111.5 34.0 115.6 C 35.0 114.7 36.0 117.3 35.8 114.8 C 34.6 116.0 41.9 116.8 38.7 114.9 C 39.6 114.3 44.2 117.6 43.5 115.0 C 45.2 113.1 44.9 111.2 41.3 109.4 C 41.7 110.9 37.5 107.9 40.2 110.4 C 43.3 111.2 34.5 111.3 36.4 110.4 C 36.8 107.4 32.1 112.3 30.3 110.1 C 31.8 111.3 24.7 111.9 26.8 109.7 C 25.4 109.5 25.1 110.5 23.7 109.2 C 28.0 109.4 22.1 111.6 22.3 110.2 C 23.0 109.4 16.9 108.7 17.4 109.9 C 19.1 113.1 16.3 109.3 15.1 110.2 C 12.2 110.2 16.5 108.1 13.7 109.3 C 13.4 108.8 10.7 106.9 12.7 107.6 C 13.1 108.3 8.7 108.5 10.5 106.5 C 12.2 107.5 11.6 106.5 10.9 105.6 C 10.1 104.6 9.2 103.2 9.0 103.9 C 9.3 106.9 8.4 105.8 7.8 103.9 C 7.2 102.1 7.3 100.1 8.4 102.4 C 9.4 99.5 8.9 103.7 8.3 99.5 C 7.4 100.0 6.6 96.7 8.3 97.5 C 10.8 96.9 4.9 96.4 8.4 93.8 C 9.9 93.4 7.3 88.6 8.9 90.5 C 9.1 90.6 9.4 89.9 9.4 89.8 M 9.1 91.3 C 8.5 90.7 9.8 90.4 9.1 91.3 M 8.6 90.7 C 8.6 90.6 8.6 90.6 8.6 90.7 C 8.6 90.7 8.6 90.7 8.6 90.7 Z M 8.2 98.9 C 8.2 98.8 8.2 98.8 8.2 98.9 C 8.2 98.9 8.2 98.9 8.2 98.9 Z M 3.0 106.7 C 3.0 106.6 3.0 106.6 3.0 106.7 C 3.0 106.7 3.0 106.7 3.0 106.7 Z M 8.4 103.7 C 8.4 103.6 8.4 103.6 8.4 103.7 C 8.4 103.7 8.4 103.7 8.4 103.7 Z M 7.8 95.9 C 7.8 95.9 7.8 95.9 7.8 95.9 C 7.8 95.9 7.8 95.9 7.8 95.9 Z M 9.2 103.0 C 8.4 103.6 9.5 101.6 9.4 103.1 C 9.3 103.1 9.3 102.9 9.2 103.0 M 12.1 107.0 C 12.0 107.1 12.0 107.1 12.1 107.0 M 24.6 116.5 C 24.7 116.6 24.7 116.6 24.6 116.5 M 25.9 109.0 C 26.1 109.1 26.1 109.1 25.9 109.0 M 16.3 109.9 C 18.0 110.1 16.7 110.5 16.3 109.9 M 31.6 109.5 C 28.9 108.9 34.6 109.0 31.6 109.5 M 34.3 109.0 C 34.5 109.1 34.5 109.1 34.3 109.0 M 22.0 109.3 C 21.9 109.4 21.9 109.4 22.0 109.3 C 22.0 109.3 22.0 109.3 22.0 109.3 Z M 15.7 109.4 C 13.7 108.5 18.0 109.0 15.7 109.4 M 9.1 99.8 C 9.5 101.4 7.9 99.8 9.1 99.8 M 8.6 96.6 C 8.5 96.6 8.5 96.6 8.6 96.6 C 8.6 96.6 8.6 96.6 8.6 96.6 Z M 27.3 109.5 C 27.2 109.5 27.2 109.5 27.3 109.5 C 27.3 109.5 27.3 109.5 27.3 109.5 Z M 30.4 109.3 C 30.3 109.3 30.3 109.3 30.4 109.3 C 30.4 109.3 30.4 109.3 30.4 109.3 Z M 35.7 116.3 C 35.6 116.3 35.6 116.3 35.7 116.3 C 35.7 116.3 35.7 116.3 35.7 116.3 Z M 5.7 99.0 C 6.1 96.9 7.9 101.1 6.2 100.7 C 5.5 101.0 5.8 99.2 5.7 99.0 M 13.4 111.0 C 13.0 113.3 12.9 107.3 13.4 111.0 M 34.7 110.5 C 36.8 113.3 32.0 108.5 34.7 110.5 M 39.0 110.0 C 40.3 110.6 31.0 110.4 37.5 109.6 C 38.1 109.2 38.6 109.7 39.0 110.0 M 11.4 107.9 C 10.9 109.2 9.8 105.8 11.4 107.9 M 22.1 114.1 C 23.2 113.3 25.9 112.6 24.7 114.0 C 24.7 115.8 20.9 114.8 22.1 114.1 M 7.8 91.9 C 9.9 93.7 6.0 91.9 7.8 91.9 M 7.6 100.2 C 7.7 100.3 7.7 100.3 7.6 100.2 C 7.6 100.2 7.6 100.2 7.6 100.2 Z M 8.2 103.0 C 8.0 103.2 8.0 103.2 8.2 103.0 M 9.6 93.3 C 9.5 93.4 9.5 93.4 9.6 93.3 M 22.1 112.0 C 22.2 112.1 22.2 112.1 22.1 112.0 M 15.7 110.4 C 17.9 112.9 14.2 110.6 15.7 110.4 M 7.4 110.1 C 7.4 111.5 5.8 108.4 7.4 110.1 M 20.6 109.8 C 22.9 111.7 17.5 111.7 20.6 109.8 M 14.5 109.9 C 14.7 109.9 14.7 109.9 14.5 109.9 C 14.5 109.9 14.5 109.9 14.5 109.9 Z M 23.0 114.4 C 22.9 114.4 22.9 114.4 23.0 114.4 C 23.0 114.4 23.0 114.4 23.0 114.4 Z M 23.9 114.3 C 23.8 114.3 23.8 114.3 23.9 114.3 C 23.9 114.3 23.9 114.3 23.9 114.3 Z M 23.4 109.6 C 23.3 109.6 23.3 109.6 23.4 109.6 C 23.4 109.6 23.4 109.6 23.4 109.6 Z M 3.1 96.4 C 3.0 98.6 2.8 94.6 3.1 96.4 C 3.1 96.4 3.1 96.4 3.1 96.4 Z M 9.9 104.8 C 9.7 107.9 7.7 103.8 9.9 104.8 C 9.9 104.8 9.9 104.8 9.9 104.8 Z M 9.9 109.1 C 9.9 109.1 9.9 109.1 9.9 109.1 C 9.9 109.1 9.9 109.1 9.9 109.1 Z M 19.2 108.6 C 19.2 108.7 19.2 108.7 19.2 108.6 C 19.2 108.6 19.2 108.6 19.2 108.6 Z M 2.9 97.5 C 2.8 97.5 2.8 97.5 2.9 97.5 C 2.9 97.5 2.9 97.5 2.9 97.5 Z M 29.8 110.6 C 29.8 110.7 29.8 110.7 29.8 110.6 C 29.8 110.6 29.8 110.6 29.8 110.6 Z M 16.7 114.6 C 17.7 113.9 16.9 115.3 16.7 114.6 C 16.7 114.6 16.7 114.6 16.7 114.6 Z M 20.2 114.7 C 20.3 114.7 20.3 114.7 20.2 114.7 C 20.2 114.7 20.2 114.7 20.2 114.7 Z M 35.2 108.8 C 35.2 108.8 35.2 108.8 35.2 108.8 C 35.2 108.8 35.2 108.8 35.2 108.8 Z M 28.8 116.5 C 28.9 116.5 28.9 116.5 28.8 116.5 C 28.8 116.5 28.8 116.5 28.8 116.5 Z M 31.7 114.2 C 31.6 114.3 31.6 114.3 31.7 114.2 C 31.7 114.2 31.7 114.2 31.7 114.2 Z M 22.8 110.0 C 26.2 109.7 22.0 110.9 22.8 110.0 C 22.8 110.0 22.8 110.0 22.8 110.0 Z M 40.0 113.6 C 40.1 113.7 40.1 113.7 40.0 113.6 C 40.0 113.6 40.0 113.6 40.0 113.6 Z M 41.7 110.9 C 41.8 111.0 41.8 111.0 41.7 110.9 C 41.7 110.9 41.7 110.9 41.7 110.9 Z M 42.6 109.5 C 42.7 109.6 42.7 109.6 42.6 109.5 C 42.6 109.5 42.6 109.5 42.6 109.5 Z M 5.3 103.6 C 5.4 103.5 5.4 103.5 5.3 103.6 C 5.3 103.6 5.3 103.6 5.3 103.6 Z M 9.5 101.8 C 9.5 101.7 9.5 101.7 9.5 101.8 C 9.5 101.8 9.5 101.8 9.5 101.8 Z M 10.6 104.6 C 10.6 104.6 10.6 104.6 10.6 104.6 C 10.6 104.6 10.6 104.6 10.6 104.6 Z M 2.6 103.2 C 2.6 103.1 2.6 103.1 2.6 103.2 C 2.6 103.2 2.6 103.2 2.6 103.2 Z M 17.8 112.3 C 17.7 112.2 17.7 112.2 17.8 112.3 C 17.8 112.3 17.8 112.3 17.8 112.3 Z M 19.4 114.1 C 19.3 114.0 19.3 114.0 19.4 114.1 C 19.4 114.1 19.4 114.1 19.4 114.1 Z M 14.7 116.2 C 14.7 116.1 14.7 116.1 14.7 116.2 C 14.7 116.2 14.7 116.2 14.7 116.2 Z M 20.6 115.6 C 20.6 115.6 20.6 115.6 20.6 115.6 C 20.6 115.6 20.6 115.6 20.6 115.6 Z M 3.2 91.1 C 3.1 91.1 3.1 91.1 3.2 91.1 C 3.2 91.1 3.2 91.1 3.2 91.1 Z M 6.6 90.8 C 6.4 90.7 6.4 90.7 6.6 90.8 C 6.6 90.8 6.6 90.8 6.6 90.8 Z M 18.3 109.9 C 19.1 109.1 19.8 110.8 18.3 109.9 M 13.1 109.2 C 13.0 109.2 13.0 109.2 13.1 109.2 C 13.1 109.2 13.1 109.2 13.1 109.2 Z M 29.3 110.0 C 30.1 111.3 26.2 109.3 29.3 110.0 C 29.3 110.0 29.3 110.0 29.3 110.0 Z M 25.8 115.6 C 25.9 115.6 25.9 115.6 25.8 115.6 C 25.8 115.6 25.8 115.6 25.8 115.6 Z M 27.5 115.0 C 27.6 115.2 27.6 115.2 27.5 115.0 C 27.5 115.0 27.5 115.0 27.5 115.0 Z M 37.0 111.4 C 37.1 111.5 37.1 111.5 37.0 111.4 M 13.1 107.8 C 13.4 108.7 13.3 108.5 13.1 107.8 M 31.5 110.0 C 31.4 110.1 31.4 110.1 31.5 110.0 C 31.5 110.0 31.5 110.0 31.5 110.0 Z M 39.1 110.7 C 39.0 110.7 39.0 110.7 39.1 110.7 C 39.1 110.7 39.1 110.7 39.1 110.7 Z M 10.1 106.2 C 8.9 107.3 8.8 106.5 10.1 106.2 M 7.9 95.3 C 7.8 95.3 7.8 95.3 7.9 95.3 C 7.9 95.3 7.9 95.3 7.9 95.3 Z M 49.4 109.5 C 45.9 107.7 45.9 110.2 45.9 110.3 C 46.3 106.9 42.7 111.6 43.4 112.3 C 43.3 112.8 46.0 118.7 48.5 115.1 C 49.2 114.7 49.6 115.7 50.1 115.8 C 54.4 115.6 47.1 113.9 52.4 113.9 C 53.3 114.4 52.2 117.2 55.3 115.3 C 55.5 115.6 59.0 116.6 57.7 115.3 C 59.4 116.6 60.5 115.1 62.0 114.7 C 63.5 115.5 60.8 116.8 65.9 115.2 C 68.1 117.6 68.9 113.5 70.9 116.1 C 72.2 116.1 74.1 111.9 71.1 114.3 C 71.6 114.0 69.7 112.0 73.7 112.7 C 73.1 113.3 70.9 117.6 77.3 115.5 C 78.3 115.6 80.7 114.5 81.3 115.0 C 78.0 115.5 85.7 116.9 84.9 115.6 C 90.0 116.5 87.1 114.5 90.7 116.0 C 93.7 116.0 89.7 114.1 93.5 115.2 C 96.3 115.0 94.4 116.0 94.1 116.0 C 96.5 116.2 97.4 115.4 98.2 115.4 C 98.8 115.7 99.9 116.5 100.5 115.5 C 103.0 113.5 100.7 111.6 101.8 109.6 C 99.9 108.7 101.0 111.1 99.7 109.6 C 98.8 110.9 99.6 109.5 94.4 109.8 C 94.6 110.1 95.8 111.0 94.6 111.1 C 92.6 110.9 94.0 107.6 90.7 110.0 C 94.6 110.7 85.2 111.0 88.9 111.7 C 84.4 112.1 87.6 111.4 84.3 110.7 C 84.5 112.9 84.1 108.3 82.8 110.1 C 82.5 109.1 77.4 109.5 81.1 110.9 C 75.8 111.5 79.1 110.2 77.2 109.1 C 74.8 108.9 77.0 112.7 75.5 109.9 C 72.3 108.7 75.4 111.3 73.1 109.1 C 74.1 111.0 70.7 109.1 71.6 111.2 C 66.1 111.4 72.3 109.0 68.4 110.4 C 69.6 110.5 69.1 107.7 66.8 109.5 C 67.8 112.8 63.7 106.6 65.4 111.0 C 57.8 112.2 64.1 109.2 60.0 109.2 C 58.9 109.2 61.1 110.6 60.2 110.6 C 54.8 110.0 59.2 108.9 56.4 111.0 C 51.1 111.5 54.9 109.2 52.2 109.0 C 52.0 110.0 49.9 111.8 49.4 109.5 M 54.2 110.5 C 55.3 109.9 54.9 111.2 54.2 110.5 M 43.5 109.5 C 44.6 108.8 44.1 110.2 43.5 109.5 M 58.6 109.9 C 60.1 109.2 59.0 111.0 58.6 109.9 M 87.3 111.0 C 85.3 111.0 88.2 110.4 87.3 111.0 M 47.7 109.4 C 49.3 108.6 48.2 110.6 47.7 109.4 M 45.8 111.1 C 45.9 111.1 45.9 111.1 45.8 111.1 M 90.1 109.2 C 90.2 109.2 90.2 109.2 90.1 109.2 M 82.4 109.2 C 84.1 109.2 81.5 109.6 82.4 109.2 M 82.2 116.3 C 83.8 116.4 81.2 116.8 82.2 116.3 M 94.3 109.1 C 96.0 108.6 94.8 109.9 94.3 109.1 M 98.6 110.7 C 100.1 110.0 99.6 111.4 98.6 110.7 M 53.2 113.0 C 53.2 113.1 53.2 113.1 53.2 113.0 C 53.2 113.0 53.2 113.0 53.2 113.0 Z M 67.3 114.8 C 65.6 114.1 69.4 115.7 67.3 114.8 M 64.7 110.1 C 65.9 111.6 62.5 110.0 64.7 110.1 C 64.7 110.1 64.7 110.1 64.7 110.1 Z M 62.3 110.8 C 62.2 110.9 62.2 110.9 62.3 110.8 C 62.3 110.8 62.3 110.8 62.3 110.8 Z M 70.2 110.9 C 70.1 110.9 70.1 110.9 70.2 110.9 C 70.2 110.9 70.2 110.9 70.2 110.9 Z M 68.6 111.0 C 67.9 111.3 67.7 110.7 68.6 111.0 C 68.6 111.0 68.6 111.0 68.6 111.0 Z M 80.2 115.6 C 79.5 115.9 79.3 115.3 80.2 115.6 C 80.2 115.6 80.2 115.6 80.2 115.6 Z M 66.1 111.5 C 65.9 113.0 64.9 110.5 66.1 111.5 C 66.1 111.5 66.1 111.5 66.1 111.5 Z M 74.6 115.0 C 75.3 114.6 76.1 116.3 74.6 115.0 M 91.8 109.5 C 92.5 109.1 93.2 110.8 91.8 109.5 M 74.9 109.0 C 75.6 108.7 76.4 110.4 74.9 109.0 M 55.1 109.9 C 55.3 110.1 55.3 110.1 55.1 109.9 M 64.4 116.2 C 65.5 115.7 65.0 116.9 64.4 116.2 M 48.6 115.7 C 49.7 115.2 49.1 116.4 48.6 115.7 M 89.4 116.2 C 89.3 115.8 91.1 116.4 89.4 116.2 M 76.9 111.4 C 78.4 111.6 79.9 112.3 76.8 112.2 C 76.6 111.9 77.5 111.7 76.9 111.4 C 76.9 111.4 76.9 111.4 76.9 111.4 Z M 82.2 114.7 C 82.4 114.8 82.4 114.8 82.2 114.7 M 79.5 110.0 C 79.7 110.2 79.7 110.2 79.5 110.0 M 88.1 110.2 C 88.3 110.4 88.3 110.4 88.1 110.2 M 89.2 109.8 C 89.2 109.8 89.2 109.8 89.2 109.8 C 89.2 109.8 89.2 109.8 89.2 109.8 Z M 98.7 109.2 C 98.7 109.2 98.7 109.2 98.7 109.2 C 98.7 109.2 98.7 109.2 98.7 109.2 Z M 85.4 110.4 C 85.4 110.4 85.4 110.4 85.4 110.4 C 85.4 110.4 85.4 110.4 85.4 110.4 Z M 93.2 115.9 C 93.2 116.0 93.2 116.0 93.2 115.9 C 93.2 115.9 93.2 115.9 93.2 115.9 Z M 92.2 115.0 C 92.2 115.1 92.2 115.1 92.2 115.0 C 92.2 115.0 92.2 115.0 92.2 115.0 Z M 50.2 109.5 C 51.5 108.5 50.9 112.0 50.2 109.5 M 96.4 115.0 C 97.7 116.0 94.2 115.2 96.4 115.0 C 96.4 115.0 96.4 115.0 96.4 115.0 Z M 84.4 111.6 C 84.5 111.8 84.5 111.8 84.4 111.6 M 89.8 109.9 C 89.9 110.1 89.9 110.1 89.8 109.9 M 64.7 108.8 C 64.8 109.0 64.8 109.0 64.7 108.8 M 96.4 110.2 C 100.4 110.5 94.6 112.2 96.4 110.2 M 62.8 110.2 C 62.7 110.1 62.7 110.1 62.8 110.2 M 71.9 112.9 C 74.6 112.8 70.9 113.7 71.9 112.9 M 78.7 111.1 C 78.7 111.1 78.7 111.1 78.7 111.1 C 78.7 111.1 78.7 111.1 78.7 111.1 Z M 74.7 111.1 C 72.8 111.3 74.2 110.7 74.7 111.1 C 74.7 111.1 74.7 111.1 74.7 111.1 Z M 52.1 110.8 C 54.6 111.0 49.5 111.3 52.1 110.8 C 52.1 110.8 52.1 110.8 52.1 110.8 Z M 94.6 113.6 C 94.5 113.7 94.5 113.7 94.6 113.6 C 94.6 113.6 94.6 113.6 94.6 113.6 Z M 84.9 109.3 C 83.7 109.7 84.3 108.9 84.9 109.3 C 84.9 109.3 84.9 109.3 84.9 109.3 Z M 100.1 109.2 C 98.9 109.5 99.5 108.7 100.1 109.2 C 100.1 109.2 100.1 109.2 100.1 109.2 Z M 49.0 110.6 C 58.4 113.0 36.6 110.0 49.0 110.6 C 49.0 110.6 49.0 110.6 49.0 110.6 Z M 76.3 110.1 C 76.3 110.2 76.3 110.2 76.3 110.1 C 76.3 110.1 76.3 110.1 76.3 110.1 Z M 59.1 109.1 C 59.0 109.1 59.0 109.1 59.1 109.1 C 59.1 109.1 59.1 109.1 59.1 109.1 Z M 56.2 110.4 C 56.1 110.5 56.1 110.5 56.2 110.4 C 56.2 110.4 56.2 110.4 56.2 110.4 Z M 57.0 116.1 C 57.0 116.2 57.0 116.2 57.0 116.1 C 57.0 116.1 57.0 116.1 57.0 116.1 Z M 58.0 113.5 C 57.9 113.7 57.9 113.7 58.0 113.5 C 58.0 113.5 58.0 113.5 58.0 113.5 Z M 52.0 114.5 C 51.9 114.6 51.9 114.6 52.0 114.5 C 52.0 114.5 52.0 114.5 52.0 114.5 Z M 52.1 115.2 C 52.1 115.3 52.1 115.3 52.1 115.2 C 52.1 115.2 52.1 115.2 52.1 115.2 Z M 89.8 111.5 C 89.7 111.6 89.7 111.6 89.8 111.5 C 89.8 111.5 89.8 111.5 89.8 111.5 Z M 86.5 113.9 C 88.7 113.0 85.9 115.1 86.5 113.9 C 86.5 113.9 86.5 113.9 86.5 113.9 Z M 67.3 112.7 C 69.3 112.4 66.0 113.4 67.3 112.7 C 67.3 112.7 67.3 112.7 67.3 112.7 Z M 69.4 115.8 C 69.5 115.8 69.5 115.8 69.4 115.8 C 69.4 115.8 69.4 115.8 69.4 115.8 Z M 56.2 109.0 C 56.1 109.2 56.1 109.2 56.2 109.0 C 56.2 109.0 56.2 109.0 56.2 109.0 Z M 52.5 110.0 C 52.4 111.2 51.4 109.4 52.5 110.0 M 71.0 109.3 C 71.0 109.4 71.0 109.4 71.0 109.3 C 71.0 109.3 71.0 109.3 71.0 109.3 Z M 82.7 111.2 C 82.7 111.3 82.7 111.3 82.7 111.2 C 82.7 111.2 82.7 111.2 82.7 111.2 Z M 94.3 110.4 C 94.2 110.6 94.2 110.6 94.3 110.4 C 94.3 110.4 94.3 110.4 94.3 110.4 Z M 78.3 109.5 C 78.2 109.6 78.2 109.6 78.3 109.5 C 78.3 109.5 78.3 109.5 78.3 109.5 Z M 72.7 110.6 C 72.7 110.7 72.7 110.7 72.7 110.6 C 72.7 110.6 72.7 110.6 72.7 110.6 Z M 96.8 112.1 C 96.8 112.2 96.8 112.2 96.8 112.1 C 96.8 112.1 96.8 112.1 96.8 112.1 Z M 79.6 109.3 C 79.5 109.3 79.5 109.3 79.6 109.3 C 79.6 109.3 79.6 109.3 79.6 109.3 Z M 82.9 113.1 C 82.8 113.2 82.8 113.2 82.9 113.1 C 82.9 113.1 82.9 113.1 82.9 113.1 Z M 53.0 108.3 C 53.0 108.3 53.0 108.3 53.0 108.3 C 53.0 108.3 53.0 108.3 53.0 108.3 Z M 97.0 110.5 C 96.9 110.6 96.9 110.6 97.0 110.5 C 97.0 110.5 97.0 110.5 97.0 110.5 Z M 97.7 109.4 C 97.6 109.5 97.6 109.5 97.7 109.4 C 97.7 109.4 97.7 109.4 97.7 109.4 Z M 89.5 115.1 C 85.4 114.5 93.1 114.9 90.1 113.6 C 96.0 113.2 90.3 115.2 89.5 115.1 C 89.5 115.1 89.5 115.1 89.5 115.1 Z M 103.2 109.0 C 100.9 110.6 100.9 112.2 101.9 113.8 C 103.0 114.7 103.0 111.4 103.0 114.2 C 100.4 114.7 104.1 118.3 104.1 114.8 C 107.5 114.3 104.6 117.0 106.7 115.6 C 110.3 115.3 108.5 116.3 111.3 116.1 C 112.9 114.2 113.6 116.9 114.1 115.0 C 112.8 117.3 117.4 113.4 117.9 114.2 C 116.7 115.4 119.6 114.2 121.3 112.5 C 123.0 110.8 123.8 109.5 120.6 111.8 C 122.5 109.0 123.0 110.5 123.9 109.7 C 123.8 107.8 127.4 104.7 126.4 102.4 C 126.1 102.8 125.9 103.8 125.4 104.0 C 124.6 104.4 125.9 101.7 125.8 102.0 C 125.7 101.3 125.3 99.9 125.2 99.2 C 125.1 98.6 125.3 97.9 126.3 101.0 C 127.3 101.3 125.9 97.2 126.8 97.3 C 126.8 93.2 124.9 96.3 126.3 94.5 C 126.3 91.5 126.3 89.4 126.1 89.4 C 126.3 87.7 127.4 87.3 126.3 85.7 C 128.4 82.1 122.3 83.2 126.4 81.8 C 125.4 80.8 128.1 79.8 125.6 80.0 C 126.7 81.2 127.6 73.9 125.7 77.0 C 125.1 76.2 128.3 71.6 125.7 72.3 C 123.8 70.6 122.0 70.9 120.2 74.5 C 121.6 74.1 118.6 78.3 121.2 75.6 C 122.0 72.5 122.1 81.3 121.2 79.4 C 118.1 78.9 123.0 83.6 120.9 85.5 C 122.1 84.0 122.7 91.1 120.4 89.0 C 120.2 90.3 121.3 90.6 120.0 92.1 C 120.2 87.8 122.4 93.7 121.0 93.5 C 120.1 92.7 119.4 99.1 120.7 98.4 C 123.8 96.2 120.1 100.2 121.3 101.1 C 121.9 104.1 118.9 100.3 120.7 102.8 C 120.2 103.2 119.0 106.3 119.2 104.2 C 119.8 103.6 121.0 107.9 118.7 106.5 C 119.2 104.6 118.4 105.4 117.6 106.4 C 116.9 107.4 115.7 108.5 116.4 108.5 C 119.2 107.6 118.3 108.7 116.7 109.7 C 115.1 110.7 113.2 111.0 115.1 109.4 C 112.1 109.1 116.0 109.1 112.6 110.1 C 113.2 110.9 110.1 111.8 110.9 110.1 C 110.2 107.6 109.8 113.5 107.2 110.0 C 106.8 108.5 102.0 111.1 103.9 109.5 C 104.0 109.3 103.3 109.0 103.2 109.0 M 104.7 109.3 C 104.1 109.8 103.8 108.6 104.7 109.3 M 104.1 109.8 C 104.0 109.8 104.0 109.8 104.1 109.8 C 104.1 109.8 104.1 109.8 104.1 109.8 Z M 112.1 110.2 C 112.1 110.1 112.1 110.1 112.1 110.2 C 112.1 110.2 112.1 110.2 112.1 110.2 Z M 120.5 113.8 C 120.4 113.8 120.4 113.8 120.5 113.8 C 120.5 113.8 120.5 113.8 120.5 113.8 Z M 116.3 109.1 C 116.3 109.2 116.3 109.2 116.3 109.1 C 116.3 109.1 116.3 109.1 116.3 109.1 Z M 109.3 110.6 C 109.3 110.6 109.3 110.6 109.3 110.6 C 109.3 110.6 109.3 110.6 109.3 110.6 Z M 115.6 108.5 C 116.3 109.2 114.1 108.5 115.6 108.3 C 115.6 108.4 115.4 108.5 115.6 108.5 M 118.8 104.9 C 118.9 104.9 118.9 104.9 118.8 104.9 M 127.3 91.2 C 127.4 91.1 127.4 91.1 127.3 91.2 M 119.8 89.9 C 119.9 89.7 119.9 89.7 119.8 89.9 M 120.8 99.8 C 120.7 97.6 121.3 99.2 120.8 99.8 M 120.3 84.1 C 119.7 86.9 119.8 81.2 120.3 84.1 M 119.7 81.5 C 119.8 81.2 119.8 81.2 119.7 81.5 M 120.1 93.8 C 120.2 93.9 120.2 93.9 120.1 93.8 C 120.1 93.8 120.1 93.8 120.1 93.8 Z M 120.4 100.7 C 119.9 103.5 119.5 97.8 120.4 100.7 M 112.8 109.2 C 113.9 108.6 113.0 110.4 112.8 109.2 M 110.0 109.8 C 110.0 109.9 110.0 109.9 110.0 109.8 C 110.0 109.8 110.0 109.8 110.0 109.8 Z M 120.2 88.5 C 120.3 88.6 120.3 88.6 120.2 88.5 C 120.2 88.5 120.2 88.5 120.2 88.5 Z M 120.1 85.4 C 120.1 85.5 120.1 85.5 120.1 85.4 C 120.1 85.4 120.1 85.4 120.1 85.4 Z M 127.0 80.1 C 127.1 80.2 127.1 80.2 127.0 80.1 C 127.0 80.1 127.0 80.1 127.0 80.1 Z M 112.4 112.7 C 110.2 112.4 114.1 110.2 114.1 111.9 C 114.4 112.6 112.7 112.5 112.4 112.7 M 122.4 102.7 C 124.8 102.5 118.9 104.1 122.4 102.7 M 121.3 81.1 C 124.1 79.0 119.3 83.8 121.3 81.1 M 120.8 76.8 C 121.4 75.5 121.1 84.8 120.4 78.3 C 119.9 77.7 120.5 77.2 120.8 76.8 M 119.8 105.4 C 121.2 105.6 118.1 107.4 119.8 105.4 M 124.9 93.7 C 124.1 92.6 123.3 89.9 124.8 91.1 C 126.6 91.1 125.6 94.9 124.9 93.7 M 105.3 110.6 C 107.1 108.5 105.3 112.4 105.3 110.6 M 113.4 110.7 C 113.4 110.6 113.4 110.6 113.4 110.7 C 113.4 110.7 113.4 110.7 113.4 110.7 Z M 115.8 109.5 C 116.0 109.6 116.0 109.6 115.8 109.5 M 106.7 108.8 C 106.8 108.9 106.8 108.9 106.7 108.8 M 122.7 93.7 C 122.9 93.6 122.9 93.6 122.7 93.7 M 121.3 100.4 C 123.4 97.2 121.8 102.1 121.3 100.4 M 122.8 108.8 C 124.2 108.5 121.5 110.7 122.8 108.8 M 120.6 95.2 C 122.5 92.9 122.4 98.3 120.6 95.2 M 121.1 101.8 C 121.1 101.7 121.1 101.7 121.1 101.8 C 121.1 101.8 121.1 101.8 121.1 101.8 Z M 125.1 92.8 C 125.2 92.9 125.2 92.9 125.1 92.8 C 125.1 92.8 125.1 92.8 125.1 92.8 Z M 125.0 91.9 C 125.1 92.0 125.1 92.0 125.0 91.9 C 125.0 91.9 125.0 91.9 125.0 91.9 Z M 120.3 92.4 C 120.4 92.5 120.4 92.5 120.3 92.4 C 120.3 92.4 120.3 92.4 120.3 92.4 Z M 109.8 115.3 C 112.0 115.4 108.0 115.6 109.8 115.3 C 109.8 115.3 109.8 115.3 109.8 115.3 Z M 117.1 107.5 C 120.1 107.0 116.6 109.8 117.1 107.5 C 117.1 107.5 117.1 107.5 117.1 107.5 Z M 121.3 106.5 C 121.4 106.6 121.4 106.6 121.3 106.5 C 121.3 106.5 121.3 106.5 121.3 106.5 Z M 119.3 96.6 C 119.5 96.6 119.5 96.6 119.3 96.6 C 119.3 96.6 119.3 96.6 119.3 96.6 Z M 110.9 115.5 C 110.9 115.6 110.9 115.6 110.9 115.5 C 110.9 115.5 110.9 115.5 110.9 115.5 Z M 121.4 86.0 C 121.5 86.0 121.5 86.0 121.4 86.0 C 121.4 86.0 121.4 86.0 121.4 86.0 Z M 125.4 98.9 C 124.7 98.1 126.1 98.8 125.4 98.9 C 125.4 98.9 125.4 98.9 125.4 98.9 Z M 125.5 95.6 C 125.4 95.5 125.4 95.5 125.5 95.6 C 125.5 95.6 125.5 95.6 125.5 95.6 Z M 119.6 80.6 C 119.6 80.5 119.6 80.5 119.6 80.6 C 119.6 80.6 119.6 80.6 119.6 80.6 Z M 127.3 87.0 C 127.3 86.9 127.3 86.9 127.3 87.0 C 127.3 87.0 127.3 87.0 127.3 87.0 Z M 125.0 84.1 C 125.0 84.2 125.0 84.2 125.0 84.1 C 125.0 84.1 125.0 84.1 125.0 84.1 Z M 120.8 93.0 C 120.4 89.6 121.7 93.8 120.8 93.0 C 120.8 93.0 120.8 93.0 120.8 93.0 Z M 124.4 75.8 C 124.5 75.7 124.5 75.7 124.4 75.8 C 124.4 75.8 124.4 75.8 124.4 75.8 Z M 121.7 74.1 C 121.8 74.0 121.8 74.0 121.7 74.1 C 121.7 74.1 121.7 74.1 121.7 74.1 Z M 120.2 73.2 C 120.4 73.1 120.4 73.1 120.2 73.2 C 120.2 73.2 120.2 73.2 120.2 73.2 Z M 117.0 112.2 C 116.9 112.1 116.9 112.1 117.0 112.2 C 117.0 112.2 117.0 112.2 117.0 112.2 Z M 114.3 108.6 C 114.3 108.5 114.3 108.5 114.3 108.6 C 114.3 108.6 114.3 108.6 114.3 108.6 Z M 116.8 106.9 C 116.8 106.9 116.8 106.9 116.8 106.9 C 116.8 106.9 116.8 106.9 116.8 106.9 Z M 117.2 115.0 C 117.1 115.0 117.1 115.0 117.2 115.0 C 117.2 115.0 117.2 115.0 117.2 115.0 Z M 123.1 98.0 C 123.0 98.1 123.0 98.1 123.1 98.0 C 123.1 98.0 123.1 98.0 123.1 98.0 Z M 124.8 96.4 C 124.8 96.5 124.8 96.5 124.8 96.4 C 124.8 96.4 124.8 96.4 124.8 96.4 Z M 127.2 100.4 C 127.2 100.4 127.2 100.4 127.2 100.4 C 127.2 100.4 127.2 100.4 127.2 100.4 Z M 126.4 95.2 C 126.3 95.2 126.3 95.2 126.4 95.2 C 126.4 95.2 126.4 95.2 126.4 95.2 Z M 104.5 115.2 C 104.5 115.2 104.5 115.2 104.5 115.2 C 104.5 115.2 104.5 115.2 104.5 115.2 Z M 104.2 111.8 C 104.1 112.0 104.1 112.0 104.2 111.8 C 104.2 111.8 104.2 111.8 104.2 111.8 Z M 120.6 97.5 C 119.9 96.7 121.6 95.9 120.6 97.5 M 120.7 103.4 C 120.8 103.5 120.8 103.5 120.7 103.4 C 120.7 103.4 120.7 103.4 120.7 103.4 Z M 120.8 86.5 C 122.1 85.7 120.1 89.6 120.8 86.5 C 120.8 86.5 120.8 86.5 120.8 86.5 Z M 126.4 90.0 C 126.4 89.9 126.4 89.9 126.4 90.0 C 126.4 90.0 126.4 90.0 126.4 90.0 Z M 125.8 88.3 C 125.9 88.1 125.9 88.1 125.8 88.3 C 125.8 88.3 125.8 88.3 125.8 88.3 Z M 122.2 78.8 C 122.3 78.6 122.3 78.6 122.2 78.8 M 119.4 103.7 C 120.2 103.2 120.0 103.3 119.4 103.7 M 120.8 84.3 C 120.8 84.4 120.8 84.4 120.8 84.3 C 120.8 84.3 120.8 84.3 120.8 84.3 Z M 121.4 76.7 C 121.5 76.8 121.5 76.8 121.4 76.7 C 121.4 76.7 121.4 76.7 121.4 76.7 Z M 118.5 107.0 C 119.8 107.9 119.0 108.2 118.5 107.0 M 108.7 110.5 C 108.7 110.6 108.7 110.6 108.7 110.5 C 108.7 110.5 108.7 110.5 108.7 110.5 Z M 120.3 66.4 C 118.5 69.9 121.0 69.9 121.1 69.9 C 117.7 69.5 122.4 73.1 123.1 72.4 C 123.5 72.5 129.5 69.7 125.9 67.3 C 125.4 66.6 126.5 66.2 126.6 65.7 C 126.4 61.4 124.7 68.7 124.7 63.4 C 125.2 62.5 128.0 63.5 126.1 60.4 C 126.3 60.3 127.4 56.8 126.1 58.1 C 127.4 56.4 125.8 55.3 125.5 53.8 C 126.3 52.3 127.6 54.9 126.0 49.8 C 128.3 47.7 124.3 46.9 126.8 44.9 C 126.9 43.6 122.7 41.7 125.1 44.6 C 124.8 44.2 122.8 46.1 123.5 42.1 C 124.1 42.6 128.4 44.9 126.3 38.5 C 126.4 37.5 125.3 35.1 125.8 34.5 C 126.3 37.8 127.7 30.1 126.4 30.8 C 127.3 25.8 125.3 28.7 126.8 25.1 C 126.8 22.1 124.8 26.0 126.0 22.3 C 125.7 19.5 126.8 21.4 126.7 21.7 C 127.0 19.3 126.2 18.4 126.2 17.5 C 126.4 17.0 127.3 15.4 126.1 14.8 C 123.7 11.9 122.2 15.0 120.1 14.7 C 119.5 16.3 121.8 15.2 120.4 16.3 C 121.7 16.9 120.3 16.2 120.6 21.3 C 120.9 21.2 121.7 20.0 121.9 21.2 C 121.7 23.2 118.4 21.8 120.7 25.1 C 121.4 21.2 121.8 30.5 122.5 26.9 C 122.9 31.4 122.2 28.2 121.4 31.5 C 123.7 31.3 119.0 31.7 120.8 32.9 C 119.9 33.2 120.3 38.4 121.7 34.7 C 122.3 40.0 121.0 36.7 119.8 38.6 C 119.7 41.0 123.4 38.7 120.7 40.3 C 119.5 43.5 122.1 40.4 119.9 42.7 C 121.8 41.7 119.9 45.1 122.0 44.2 C 122.1 49.7 119.8 43.5 121.2 47.4 C 121.3 46.2 118.5 46.6 120.3 49.0 C 123.6 48.0 117.4 52.1 121.8 50.4 C 123.0 58.0 119.9 51.6 119.9 55.8 C 119.9 56.9 121.4 54.7 121.4 55.6 C 120.8 61.0 119.6 56.5 121.8 59.4 C 122.3 64.7 119.9 60.9 119.8 63.5 C 120.8 63.7 122.5 65.9 120.3 66.4 M 121.3 61.6 C 120.6 60.5 122.0 60.9 121.3 61.6 M 120.3 72.3 C 119.6 71.2 121.0 71.7 120.3 72.3 M 120.7 57.2 C 120.0 55.7 121.8 56.7 120.7 57.2 M 121.7 28.5 C 121.7 30.5 121.2 27.6 121.7 28.5 M 120.2 68.1 C 119.3 66.5 121.3 67.6 120.2 68.1 M 121.8 70.0 C 121.9 69.9 121.9 69.9 121.8 70.0 M 120.0 25.6 C 120.0 25.5 120.0 25.5 120.0 25.6 M 119.9 33.3 C 120.0 31.7 120.4 34.2 119.9 33.3 M 127.1 33.6 C 127.2 32.0 127.6 34.6 127.1 33.6 M 119.9 21.4 C 119.3 19.8 120.7 21.0 119.9 21.4 M 121.4 17.2 C 120.8 15.7 122.2 16.2 121.4 17.2 M 123.8 62.6 C 123.9 62.6 123.9 62.6 123.8 62.6 C 123.8 62.6 123.8 62.6 123.8 62.6 Z M 125.6 48.5 C 124.9 50.1 126.5 46.4 125.6 48.5 M 120.9 51.1 C 122.4 49.9 120.8 53.3 120.9 51.1 C 120.9 51.1 120.9 51.1 120.9 51.1 Z M 121.6 53.5 C 121.6 53.6 121.6 53.6 121.6 53.5 C 121.6 53.5 121.6 53.5 121.6 53.5 Z M 121.6 45.6 C 121.7 45.6 121.7 45.6 121.6 45.6 C 121.6 45.6 121.6 45.6 121.6 45.6 Z M 121.8 47.2 C 122.1 47.8 121.5 48.1 121.8 47.2 C 121.8 47.2 121.8 47.2 121.8 47.2 Z M 126.4 35.6 C 126.7 36.3 126.1 36.5 126.4 35.6 C 126.4 35.6 126.4 35.6 126.4 35.6 Z M 122.3 49.7 C 123.7 49.9 121.3 50.9 122.3 49.7 C 122.3 49.7 122.3 49.7 122.3 49.7 Z M 125.7 41.2 C 125.4 40.4 127.1 39.7 125.7 41.2 M 120.2 24.0 C 119.8 23.3 121.6 22.5 120.2 24.0 M 119.8 40.9 C 119.4 40.2 121.2 39.4 119.8 40.9 M 120.7 60.7 C 120.8 60.5 120.8 60.5 120.7 60.7 M 127.0 51.3 C 126.4 50.3 127.6 50.8 127.0 51.3 M 126.5 67.2 C 126.0 66.1 127.2 66.7 126.5 67.2 M 127.0 26.4 C 126.6 26.5 127.1 24.7 127.0 26.4 M 122.1 38.9 C 122.3 37.4 123.1 35.9 123.0 39.0 C 122.7 39.2 122.5 38.3 122.1 38.9 C 122.1 38.9 122.1 38.9 122.1 38.9 Z M 125.5 33.6 C 125.6 33.4 125.6 33.4 125.5 33.6 M 120.8 36.3 C 120.9 36.1 120.9 36.1 120.8 36.3 M 120.9 27.7 C 121.2 27.5 121.2 27.5 120.9 27.7 M 120.5 26.6 C 120.6 26.6 120.6 26.6 120.5 26.6 C 120.5 26.6 120.5 26.6 120.5 26.6 Z M 119.9 17.1 C 120.0 17.1 120.0 17.1 119.9 17.1 C 119.9 17.1 119.9 17.1 119.9 17.1 Z M 121.1 30.4 C 121.2 30.4 121.2 30.4 121.1 30.4 C 121.1 30.4 121.1 30.4 121.1 30.4 Z M 126.7 22.6 C 126.7 22.6 126.7 22.6 126.7 22.6 C 126.7 22.6 126.7 22.6 126.7 22.6 Z M 125.8 23.6 C 125.9 23.6 125.9 23.6 125.8 23.6 C 125.8 23.6 125.8 23.6 125.8 23.6 Z M 120.3 65.6 C 119.2 64.3 122.8 64.9 120.3 65.6 M 125.8 19.4 C 126.8 18.1 126.0 21.6 125.8 19.4 C 125.8 19.4 125.8 19.4 125.8 19.4 Z M 122.3 31.4 C 122.5 31.3 122.5 31.3 122.3 31.4 M 120.7 26.0 C 120.9 25.9 120.9 25.9 120.7 26.0 M 119.6 51.1 C 119.8 51.0 119.8 51.0 119.6 51.1 M 120.9 19.4 C 121.3 15.4 123.0 21.2 120.9 19.4 M 121.0 53.0 C 120.8 53.1 120.8 53.1 121.0 53.0 M 123.7 43.9 C 123.6 41.2 124.5 44.9 123.7 43.9 M 121.8 37.1 C 121.9 37.1 121.9 37.1 121.8 37.1 C 121.8 37.1 121.8 37.1 121.8 37.1 Z M 121.8 41.1 C 122.0 43.0 121.4 41.6 121.8 41.1 C 121.8 41.1 121.8 41.1 121.8 41.1 Z M 121.6 63.7 C 121.8 61.2 122.1 66.3 121.6 63.7 C 121.6 63.7 121.6 63.7 121.6 63.7 Z M 124.3 21.2 C 124.4 21.3 124.4 21.3 124.3 21.2 C 124.3 21.2 124.3 21.2 124.3 21.2 Z M 120.1 30.9 C 120.5 32.1 119.7 31.5 120.1 30.9 C 120.1 30.9 120.1 30.9 120.1 30.9 Z M 119.9 16.1 C 120.3 16.9 119.5 16.5 119.9 16.1 C 119.9 16.1 119.9 16.1 119.9 16.1 Z M 121.4 66.8 C 123.8 57.4 120.7 79.2 121.4 66.8 C 121.4 66.8 121.4 66.8 121.4 66.8 Z M 120.8 39.5 C 120.9 39.5 120.9 39.5 120.8 39.5 C 120.8 39.5 120.8 39.5 120.8 39.5 Z M 119.8 56.7 C 119.9 56.7 119.9 56.7 119.8 56.7 C 119.8 56.7 119.8 56.7 119.8 56.7 Z M 121.2 59.6 C 121.2 59.7 121.2 59.7 121.2 59.6 C 121.2 59.6 121.2 59.6 121.2 59.6 Z M 126.9 58.8 C 126.9 58.8 126.9 58.8 126.9 58.8 C 126.9 58.8 126.9 58.8 126.9 58.8 Z M 124.2 57.8 C 124.4 57.9 124.4 57.9 124.2 57.8 C 124.2 57.8 124.2 57.8 124.2 57.8 Z M 125.2 63.8 C 125.3 63.9 125.3 63.9 125.2 63.8 C 125.2 63.8 125.2 63.8 125.2 63.8 Z M 126.0 63.7 C 126.0 63.7 126.0 63.7 126.0 63.7 C 126.0 63.7 126.0 63.7 126.0 63.7 Z M 122.3 26.0 C 122.4 26.1 122.4 26.1 122.3 26.0 C 122.3 26.0 122.3 26.0 122.3 26.0 Z M 124.6 29.2 C 123.8 27.1 125.9 29.9 124.6 29.2 C 124.6 29.2 124.6 29.2 124.6 29.2 Z M 123.5 48.5 C 123.2 46.5 124.2 49.8 123.5 48.5 C 123.5 48.5 123.5 48.5 123.5 48.5 Z M 126.6 46.4 C 126.6 46.3 126.6 46.3 126.6 46.4 C 126.6 46.4 126.6 46.4 126.6 46.4 Z M 119.8 59.6 C 119.9 59.7 119.9 59.7 119.8 59.6 C 119.8 59.6 119.8 59.6 119.8 59.6 Z M 120.8 63.3 C 122.0 63.4 120.2 64.4 120.8 63.3 M 120.1 44.8 C 120.2 44.8 120.2 44.8 120.1 44.8 C 120.1 44.8 120.1 44.8 120.1 44.8 Z M 122.0 33.1 C 122.0 33.1 122.0 33.1 122.0 33.1 C 122.0 33.1 122.0 33.1 122.0 33.1 Z M 121.2 21.5 C 121.3 21.6 121.3 21.6 121.2 21.5 C 121.2 21.5 121.2 21.5 121.2 21.5 Z M 120.2 37.5 C 120.4 37.6 120.4 37.6 120.2 37.5 C 120.2 37.5 120.2 37.5 120.2 37.5 Z M 121.3 43.0 C 121.5 43.1 121.5 43.1 121.3 43.0 C 121.3 43.0 121.3 43.0 121.3 43.0 Z M 122.9 18.9 C 122.9 19.0 122.9 19.0 122.9 18.9 C 122.9 18.9 122.9 18.9 122.9 18.9 Z M 120.1 36.2 C 120.1 36.3 120.1 36.3 120.1 36.2 C 120.1 36.2 120.1 36.2 120.1 36.2 Z M 123.9 32.9 C 124.0 33.0 124.0 33.0 123.9 32.9 C 123.9 32.9 123.9 32.9 123.9 32.9 Z M 119.1 62.7 C 119.1 62.8 119.1 62.8 119.1 62.7 C 119.1 62.7 119.1 62.7 119.1 62.7 Z M 121.3 18.8 C 121.3 18.9 121.3 18.9 121.3 18.8 C 121.3 18.8 121.3 18.8 121.3 18.8 Z M 120.2 18.1 C 120.3 18.2 120.3 18.2 120.2 18.1 C 120.2 18.1 120.2 18.1 120.2 18.1 Z M 125.9 26.3 C 125.2 30.4 125.6 22.7 124.3 25.6 C 124.0 19.8 126.0 25.5 125.9 26.3 C 125.9 26.3 125.9 26.3 125.9 26.3 Z M 119.2 14.0 C 121.3 14.9 122.8 15.1 124.1 13.6 C 124.6 12.2 121.5 13.3 124.1 12.3 C 125.6 14.8 127.2 9.3 124.1 10.9 C 121.9 7.6 125.8 8.9 123.1 7.9 C 121.6 6.2 121.2 5.9 121.0 5.5 C 120.8 5.1 120.8 4.6 119.2 3.8 C 116.4 4.5 117.5 2.0 116.1 3.5 C 118.4 2.1 112.5 3.3 112.4 2.4 C 114.1 1.9 111.1 1.8 109.2 2.0 C 107.3 2.2 105.8 2.7 109.2 3.0 C 106.5 3.9 107.0 2.2 106.0 2.0 C 104.9 3.2 101.5 1.1 99.9 2.2 C 100.2 2.5 101.0 2.6 101.3 3.0 C 101.8 3.7 99.4 2.8 99.6 2.8 C 98.5 3.3 94.1 4.5 98.8 2.4 C 99.0 1.4 95.0 2.8 95.1 2.0 C 91.0 1.9 94.1 3.9 92.3 2.4 C 89.4 2.4 87.3 2.4 87.3 2.6 C 85.5 2.4 85.1 1.3 83.5 2.4 C 80.0 0.3 81.0 6.4 79.7 2.3 C 78.6 3.3 77.7 0.6 77.8 3.2 C 79.0 2.0 71.7 1.2 74.9 3.0 C 74.0 3.6 69.4 0.4 70.1 3.0 C 68.4 4.9 68.7 6.8 72.3 8.6 C 71.9 7.1 76.1 10.1 73.4 7.6 C 70.3 6.7 79.1 6.7 77.2 7.6 C 76.8 10.6 81.5 5.7 83.3 7.9 C 81.8 6.7 88.9 6.1 86.8 8.3 C 88.2 8.5 88.5 7.4 89.9 8.7 C 85.7 8.5 91.6 6.4 91.3 7.7 C 90.6 8.6 96.9 9.3 96.3 8.0 C 94.1 4.9 97.9 8.7 99.0 7.4 C 102.5 6.8 98.5 10.1 101.1 7.8 C 101.8 8.2 106.4 8.2 103.5 8.8 C 102.4 8.5 106.2 5.4 106.7 8.1 C 101.8 9.6 112.5 8.9 110.8 8.1 C 106.9 7.4 109.0 6.9 111.2 6.9 C 113.5 6.8 115.1 7.5 112.7 7.9 C 115.2 9.7 111.9 7.8 115.1 8.5 C 115.0 7.6 117.8 8.1 116.4 9.2 C 116.0 10.4 116.6 9.8 117.4 9.4 C 118.1 9.1 119.2 9.2 118.6 11.1 C 117.6 12.3 121.5 13.9 119.4 13.4 C 119.2 13.4 119.1 14.0 119.2 14.0 M 119.0 13.0 C 119.7 13.0 118.7 13.9 119.0 13.0 M 119.7 13.1 C 119.7 13.2 119.7 13.2 119.7 13.1 C 119.7 13.1 119.7 13.1 119.7 13.1 Z M 115.6 8.6 C 115.6 8.7 115.6 8.7 115.6 8.6 C 115.6 8.6 115.6 8.6 115.6 8.6 Z M 110.3 1.4 C 110.3 1.5 110.3 1.5 110.3 1.4 C 110.3 1.4 110.3 1.4 110.3 1.4 Z M 111.3 7.6 C 111.4 7.6 111.4 7.6 111.3 7.6 C 111.3 7.6 111.3 7.6 111.3 7.6 Z M 117.8 9.5 C 117.8 9.5 117.8 9.5 117.8 9.5 C 117.8 9.5 117.8 9.5 117.8 9.5 Z M 111.8 8.5 C 111.5 7.6 113.2 9.2 111.7 8.7 C 111.6 8.6 111.9 8.6 111.8 8.5 M 104.7 8.9 C 104.6 8.8 104.6 8.8 104.7 8.9 M 89.0 1.5 C 88.9 1.3 88.9 1.3 89.0 1.5 M 87.7 9.0 C 87.5 8.8 87.5 8.8 87.7 9.0 M 97.6 7.9 C 95.4 8.0 97.1 7.5 97.6 7.9 M 82.0 8.4 C 84.7 9.0 79.0 8.9 82.0 8.4 M 79.3 9.0 C 79.1 8.9 79.1 8.9 79.3 9.0 M 91.7 8.6 C 91.7 8.5 91.7 8.5 91.7 8.6 C 91.7 8.6 91.7 8.6 91.7 8.6 Z M 98.5 8.3 C 101.4 8.8 95.6 9.2 98.5 8.3 M 114.6 9.2 C 113.4 9.2 115.0 8.0 114.6 9.2 M 116.9 9.8 C 116.9 9.8 116.9 9.8 116.9 9.8 C 116.9 9.8 116.9 9.8 116.9 9.8 Z M 86.4 8.5 C 86.5 8.5 86.5 8.5 86.4 8.5 C 86.4 8.5 86.4 8.5 86.4 8.5 Z M 83.2 8.6 C 83.3 8.6 83.3 8.6 83.2 8.6 C 83.2 8.6 83.2 8.6 83.2 8.6 Z M 78.0 1.7 C 78.1 1.7 78.1 1.7 78.0 1.7 C 78.0 1.7 78.0 1.7 78.0 1.7 Z M 116.6 6.3 C 118.3 7.6 113.9 7.8 114.8 6.2 C 114.7 5.5 116.3 6.3 116.6 6.3 M 100.6 6.2 C 100.1 3.8 102.7 9.4 100.6 6.2 M 78.9 7.4 C 76.8 4.6 81.6 9.4 78.9 7.4 M 74.6 7.9 C 73.3 7.4 82.6 7.6 76.1 8.3 C 75.5 8.8 75.0 8.2 74.6 7.9 M 104.6 7.7 C 104.0 6.4 108.0 8.3 104.6 7.7 M 91.5 3.8 C 90.5 4.7 87.7 5.4 88.9 4.0 C 89.0 2.1 92.7 3.1 91.5 3.8 M 119.9 11.9 C 117.4 11.8 121.4 11.0 119.9 11.9 M 114.8 7.6 C 114.7 7.7 114.7 7.7 114.8 7.6 C 114.8 7.6 114.8 7.6 114.8 7.6 Z M 112.1 7.5 C 111.9 7.3 111.9 7.3 112.1 7.5 M 117.8 12.2 C 117.9 12.0 117.9 12.0 117.8 12.2 M 91.6 6.0 C 91.4 5.8 91.4 5.8 91.6 6.0 M 98.2 7.4 C 95.1 5.3 99.9 7.0 98.2 7.4 M 106.0 3.4 C 105.1 2.4 108.0 3.3 106.0 3.4 M 93.0 8.2 C 90.7 6.2 96.1 6.3 93.0 8.2 M 99.8 7.6 C 99.6 7.6 99.6 7.6 99.8 7.6 C 99.8 7.6 99.8 7.6 99.8 7.6 Z M 90.7 3.6 C 90.7 3.6 90.7 3.6 90.7 3.6 C 90.7 3.6 90.7 3.6 90.7 3.6 Z M 89.7 3.7 C 89.8 3.6 89.8 3.6 89.7 3.7 C 89.7 3.7 89.7 3.7 89.7 3.7 Z M 90.2 8.4 C 90.3 8.3 90.3 8.3 90.2 8.4 C 90.2 8.4 90.2 8.4 90.2 8.4 Z M 120.3 5.6 C 118.2 3.8 122.1 6.6 120.3 5.6 C 120.3 5.6 120.3 5.6 120.3 5.6 Z M 109.2 8.5 C 105.5 6.9 111.8 7.0 109.2 8.5 C 109.2 8.5 109.2 8.5 109.2 8.5 Z M 105.0 5.9 C 105.0 5.8 105.0 5.8 105.0 5.9 C 105.0 5.9 105.0 5.9 105.0 5.9 Z M 94.4 9.4 C 94.4 9.3 94.4 9.3 94.4 9.4 C 94.4 9.4 94.4 9.4 94.4 9.4 Z M 119.3 4.6 C 119.4 4.5 119.4 4.5 119.3 4.6 C 119.3 4.6 119.3 4.6 119.3 4.6 Z M 83.8 7.3 C 83.8 7.2 83.8 7.2 83.8 7.3 C 83.8 7.3 83.8 7.3 83.8 7.3 Z M 96.8 3.3 C 96.0 4.0 96.6 2.7 96.8 3.3 C 96.8 3.3 96.8 3.3 96.8 3.3 Z M 93.4 3.3 C 93.3 3.3 93.3 3.3 93.4 3.3 C 93.4 3.3 93.4 3.3 93.4 3.3 Z M 78.5 9.1 C 78.4 9.1 78.4 9.1 78.5 9.1 C 78.5 9.1 78.5 9.1 78.5 9.1 Z M 84.8 1.4 C 84.7 1.4 84.7 1.4 84.8 1.4 C 84.8 1.4 84.8 1.4 84.8 1.4 Z M 82.0 3.7 C 82.0 3.7 82.0 3.7 82.0 3.7 C 82.0 3.7 82.0 3.7 82.0 3.7 Z M 90.8 7.9 C 87.4 8.3 91.6 7.0 90.8 7.9 C 90.8 7.9 90.8 7.9 90.8 7.9 Z M 73.6 4.4 C 73.5 4.2 73.5 4.2 73.6 4.4 C 73.6 4.4 73.6 4.4 73.6 4.4 Z M 71.9 7.1 C 71.8 6.9 71.8 6.9 71.9 7.1 C 71.9 7.1 71.9 7.1 71.9 7.1 Z M 71.0 8.5 C 70.9 8.4 70.9 8.4 71.0 8.5 C 71.0 8.5 71.0 8.5 71.0 8.5 Z M 112.2 4.6 C 112.3 4.7 112.3 4.7 112.2 4.6 C 112.2 4.6 112.2 4.6 112.2 4.6 Z M 113.0 9.1 C 113.0 9.1 113.0 9.1 113.0 9.1 C 113.0 9.1 113.0 9.1 113.0 9.1 Z M 108.9 9.2 C 109.0 9.2 109.0 9.2 108.9 9.2 C 108.9 9.2 108.9 9.2 108.9 9.2 Z M 113.4 2.0 C 113.5 2.1 113.5 2.1 113.4 2.0 C 113.4 2.0 113.4 2.0 113.4 2.0 Z M 95.9 5.7 C 95.9 5.7 95.9 5.7 95.9 5.7 C 95.9 5.7 95.9 5.7 95.9 5.7 Z M 94.2 3.9 C 94.3 4.0 94.3 4.0 94.2 3.9 C 94.2 3.9 94.2 3.9 94.2 3.9 Z M 98.2 1.5 C 98.2 1.6 98.2 1.6 98.2 1.5 C 98.2 1.5 98.2 1.5 98.2 1.5 Z M 93.0 2.4 C 93.0 2.4 93.0 2.4 93.0 2.4 C 93.0 2.4 93.0 2.4 93.0 2.4 Z M 124.3 10.3 C 124.3 10.3 124.3 10.3 124.3 10.3 C 124.3 10.3 124.3 10.3 124.3 10.3 Z M 121.5 12.2 C 121.6 12.2 121.6 12.2 121.5 12.2 C 121.5 12.2 121.5 12.2 121.5 12.2 Z M 95.3 8.1 C 94.6 8.8 93.8 7.1 95.3 8.1 M 101.9 7.7 C 101.9 7.6 101.9 7.6 101.9 7.7 C 101.9 7.7 101.9 7.7 101.9 7.7 Z M 84.3 8.0 C 83.5 6.6 87.4 8.7 84.3 8.0 C 84.3 8.0 84.3 8.0 84.3 8.0 Z M 87.8 2.4 C 87.7 2.3 87.7 2.3 87.8 2.4 C 87.8 2.4 87.8 2.4 87.8 2.4 Z M 86.1 2.9 C 86.0 2.8 86.0 2.8 86.1 2.9 C 86.1 2.9 86.1 2.9 86.1 2.9 Z M 76.6 6.6 C 76.5 6.4 76.5 6.4 76.6 6.6 M 102.7 8.9 C 101.7 8.3 101.9 8.4 102.7 8.9 M 82.1 7.9 C 82.2 7.9 82.2 7.9 82.1 7.9 C 82.1 7.9 82.1 7.9 82.1 7.9 Z M 74.6 7.3 C 74.6 7.3 74.6 7.3 74.6 7.3 C 74.6 7.3 74.6 7.3 74.6 7.3 Z M 107.3 8.0 C 107.2 6.3 108.1 6.7 107.3 8.0 M 118.1 9.9 C 118.2 9.8 118.2 9.8 118.1 9.9 C 118.1 9.9 118.1 9.9 118.1 9.9 Z M 63.7 7.2 C 71.6 9.3 69.7 5.7 70.0 5.0 C 71.1 4.1 70.0 3.4 68.5 2.8 C 66.9 0.5 66.0 5.1 64.9 2.8 C 62.7 -0.2 62.5 5.5 61.6 2.3 C 61.9 1.5 58.9 2.1 59.1 2.3 C 57.6 0.8 55.4 3.5 55.4 3.8 C 54.4 3.4 54.3 0.5 51.1 2.7 C 48.7 3.4 47.6 0.6 48.3 2.6 C 46.5 0.4 47.0 3.2 45.3 2.5 C 44.0 1.3 45.2 4.3 43.0 2.0 C 42.0 3.8 44.0 0.8 38.0 2.1 C 40.9 2.3 35.1 3.6 36.3 2.3 C 38.3 1.0 33.4 2.8 30.7 2.0 C 30.0 2.7 26.7 4.4 27.2 2.5 C 24.4 0.4 24.3 3.8 23.1 2.1 C 22.2 1.4 21.8 2.9 21.2 2.8 C 20.2 1.5 19.8 1.9 15.2 2.2 C 10.2 2.6 10.5 4.3 11.2 5.0 C 12.0 5.7 13.2 6.3 12.1 7.2 C 12.0 7.9 16.8 10.6 14.4 8.0 C 15.2 8.7 19.8 5.0 17.5 8.6 C 19.3 7.1 16.9 10.0 21.8 8.3 C 15.2 5.8 29.3 7.3 22.9 8.5 C 24.0 9.3 26.6 9.1 24.7 8.5 C 24.0 6.3 29.3 9.5 26.6 6.8 C 30.7 7.6 29.6 5.1 30.8 6.8 C 31.7 9.8 30.6 6.0 32.6 6.9 C 37.4 6.9 33.7 10.3 36.6 8.1 C 41.3 9.6 37.7 6.8 39.3 6.4 C 39.7 4.4 44.1 8.0 40.5 8.3 C 42.4 7.2 40.8 9.2 43.0 7.9 C 41.4 6.1 45.8 10.0 45.1 8.4 C 47.0 8.0 46.0 6.8 46.6 6.8 C 49.5 6.8 48.6 8.6 49.2 7.2 C 49.9 6.5 51.2 8.9 51.6 8.3 C 48.6 8.2 54.0 6.3 54.3 7.3 C 52.5 7.5 55.2 9.8 56.4 8.3 C 54.9 4.2 58.9 9.4 60.3 7.9 C 59.0 5.6 66.7 7.7 63.8 8.7 C 64.0 8.5 63.7 7.2 63.7 7.2 M 52.4 8.0 C 50.0 7.8 55.0 7.5 52.4 8.0 M 52.5 8.6 C 51.5 7.8 54.8 9.2 52.4 8.8 C 52.4 8.8 52.7 8.6 52.5 8.6 M 42.5 8.7 C 42.8 8.0 43.9 9.0 42.5 8.7 M 40.6 7.2 C 39.0 6.6 42.8 7.1 40.6 7.2 M 18.5 7.7 C 20.7 4.3 20.8 9.6 18.5 7.7 M 33.1 8.4 C 35.8 7.9 32.2 9.8 33.1 8.4 M 33.9 7.5 C 35.2 7.0 34.2 8.3 33.9 7.5 M 22.7 7.7 C 22.5 7.6 22.5 7.6 22.7 7.7 C 22.7 7.7 22.7 7.7 22.7 7.7 Z M 16.4 7.7 C 16.3 7.7 16.3 7.7 16.4 7.7 C 16.4 7.7 16.4 7.7 16.4 7.7 Z M 29.0 7.3 C 31.1 8.1 25.7 7.7 29.0 7.3 C 29.0 7.3 29.0 7.3 29.0 7.3 Z M 19.2 2.4 C 19.4 2.3 19.4 2.3 19.2 2.4 C 19.2 2.4 19.2 2.4 19.2 2.4 Z M 54.3 6.4 C 54.4 6.4 54.4 6.4 54.3 6.4 C 54.3 6.4 54.3 6.4 54.3 6.4 Z M 61.8 7.7 C 61.7 7.2 63.2 8.1 61.8 7.7 C 61.8 7.7 61.8 7.7 61.8 7.7 Z M 67.8 3.8 C 67.9 3.7 67.9 3.7 67.8 3.8 C 67.8 3.8 67.8 3.8 67.8 3.8 Z M 56.8 4.6 C 56.9 4.6 56.9 4.6 56.8 4.6 C 56.8 4.6 56.8 4.6 56.8 4.6 Z M 55.8 7.2 C 57.0 9.0 52.9 6.7 55.8 7.2 C 55.8 7.2 55.8 7.2 55.8 7.2 Z M 31.6 2.6 C 31.5 3.4 29.8 2.3 31.6 2.6 C 31.6 2.6 31.6 2.6 31.6 2.6 Z M 40.3 6.5 C 40.0 6.9 39.2 6.3 40.3 6.5 C 40.3 6.5 40.3 6.5 40.3 6.5 Z M 44.4 9.0 C 44.1 9.5 43.3 8.8 44.4 9.0 C 44.4 9.0 44.4 9.0 44.4 9.0 Z M 61.7 8.2 C 61.5 8.3 61.5 8.3 61.7 8.2 C 61.7 8.2 61.7 8.2 61.7 8.2 Z M 59.0 6.8 C 60.8 8.6 56.2 5.8 59.0 6.8 C 59.0 6.8 59.0 6.8 59.0 6.8 Z M 62.2 6.3 C 61.2 5.6 64.6 6.6 62.2 6.3 M 60.4 3.6 C 58.1 4.3 62.4 0.4 60.4 3.6 C 60.4 3.6 60.4 3.6 60.4 3.6 Z M 48.9 2.9 C 48.7 2.8 48.7 2.8 48.9 2.9 C 48.9 2.9 48.9 2.9 48.9 2.9 Z M 50.1 8.0 C 48.1 8.0 51.4 7.6 50.1 8.0 C 50.1 8.0 50.1 8.0 50.1 8.0 Z M 67.4 8.4 C 65.4 8.4 68.7 8.0 67.4 8.4 C 67.4 8.4 67.4 8.4 67.4 8.4 Z M 42.2 4.6 C 38.9 4.9 44.2 3.7 42.2 4.6 C 42.2 4.6 42.2 4.6 42.2 4.6 Z M 30.2 6.7 C 30.1 6.6 30.1 6.6 30.2 6.7 C 30.2 6.7 30.2 6.7 30.2 6.7 Z M 27.9 7.4 C 27.9 7.3 27.9 7.3 27.9 7.4 C 27.9 7.4 27.9 7.4 27.9 7.4 Z M 18.7 5.6 C 18.5 5.5 18.5 5.5 18.7 5.6 C 18.7 5.6 18.7 5.6 18.7 5.6 Z M 25.9 8.2 C 25.9 8.2 25.9 8.2 25.9 8.2 C 25.9 8.2 25.9 8.2 25.9 8.2 Z M 19.5 7.8 C 19.4 7.7 19.4 7.7 19.5 7.8 C 19.5 7.8 19.5 7.8 19.5 7.8 Z M 20.4 9.3 C 20.2 9.2 20.2 9.2 20.4 9.3 C 20.4 9.3 20.4 9.3 20.4 9.3 Z M 34.7 1.6 C 34.6 1.5 34.6 1.5 34.7 1.6 C 34.7 1.6 34.7 1.6 34.7 1.6 Z M 58.2 8.8 C 58.0 8.7 58.0 8.7 58.2 8.8 C 58.2 8.8 58.2 8.8 58.2 8.8 Z M 20.0 7.1 C 19.9 7.0 19.9 7.0 20.0 7.1 C 20.0 7.1 20.0 7.1 20.0 7.1 Z M 35.7 5.7 C 35.7 4.2 37.1 7.7 35.3 5.8 C 35.4 5.7 35.8 5.9 35.7 5.7 M 33.6 3.2 C 33.7 3.1 33.7 3.1 33.6 3.2 C 33.6 3.2 33.6 3.2 33.6 3.2 Z M 40.7 2.3 C 40.8 2.2 40.8 2.2 40.7 2.3 C 40.7 2.3 40.7 2.3 40.7 2.3 Z M 27.1 8.5 C 27.3 9.4 25.3 7.9 27.3 8.5 M 18.6 2.9 C 18.9 3.8 16.8 2.3 18.9 2.9 M 69.7 7.9 C 69.9 7.2 71.0 8.2 69.7 7.9 M 42.3 1.5 C 42.6 0.8 43.7 1.8 42.3 1.5 M 39.0 3.4 C 39.3 4.2 37.2 2.7 39.3 3.3 M 23.5 3.0 C 23.4 3.0 23.4 3.0 23.5 3.0 C 23.5 3.0 23.5 3.0 23.5 3.0 Z M 47.0 7.9 C 46.9 7.9 46.9 7.9 47.0 7.9 C 47.0 7.9 47.0 7.9 47.0 7.9 Z M 38.3 6.1 C 39.5 7.2 36.8 5.3 38.3 6.1 M 49.6 5.9 C 51.3 7.3 46.8 5.4 49.6 5.9 M 14.2 2.9 C 16.9 4.1 12.3 2.4 14.2 2.9 M 24.5 6.9 C 26.4 8.6 23.0 6.0 24.5 6.9 M 45.3 7.1 C 45.4 8.0 43.3 6.6 45.3 7.1 M 65.1 8.0 C 67.0 8.2 62.7 8.7 65.1 8.0 M 28.2 2.9 C 28.1 2.9 28.1 2.9 28.2 2.9 C 28.2 2.9 28.2 2.9 28.2 2.9 Z M 59.1 1.4 C 59.0 1.4 59.0 1.4 59.1 1.4 C 59.1 1.4 59.1 1.4 59.1 1.4 Z M 13.8 9.1 C 13.7 9.0 13.7 9.0 13.8 9.1 C 13.8 9.1 13.8 9.1 13.8 9.1 Z M 25.6 6.1 C 25.6 6.0 25.6 6.0 25.6 6.1 C 25.6 6.1 25.6 6.1 25.6 6.1 Z M 16.5 8.5 C 16.4 8.4 16.4 8.4 16.5 8.5 C 16.5 8.5 16.5 8.5 16.5 8.5 Z M 31.6 4.8 C 31.6 4.7 31.6 4.7 31.6 4.8 C 31.6 4.8 31.6 4.8 31.6 4.8 Z M 32.9 9.2 C 32.8 9.1 32.8 9.1 32.9 9.2 C 32.9 9.2 32.9 9.2 32.9 9.2 Z M 39.4 7.3 C 39.4 7.2 39.4 7.2 39.4 7.3 C 39.4 7.3 39.4 7.3 39.4 7.3 Z M 29.9 8.8 C 25.9 9.1 31.9 7.4 29.9 8.8 C 29.9 8.8 29.9 8.8 29.9 8.8 Z M 36.7 4.4 C 36.6 4.4 36.6 4.4 36.7 4.4 C 36.7 4.4 36.7 4.4 36.7 4.4 Z M 37.2 7.5 C 34.7 8.8 35.9 5.4 37.2 7.5 M 48.2 8.6 C 47.4 9.2 47.8 7.5 48.2 8.6 M 52.5 2.8 C 52.6 2.7 52.6 2.7 52.5 2.8 C 52.5 2.8 52.5 2.8 52.5 2.8 Z M 51.4 3.2 C 51.3 3.2 51.3 3.2 51.4 3.2 C 51.4 3.2 51.4 3.2 51.4 3.2 Z M 50.8 8.8 C 50.8 8.8 50.8 8.8 50.8 8.8 C 50.8 8.8 50.8 8.8 50.8 8.8 Z M 51.2 1.6 C 51.1 1.6 51.1 1.6 51.2 1.6 C 51.2 1.6 51.2 1.6 51.2 1.6 Z M 34.4 9.0 C 34.3 9.0 34.3 9.0 34.4 9.0 C 34.4 9.0 34.4 9.0 34.4 9.0 Z M 15.3 9.4 C 15.2 9.4 15.2 9.4 15.3 9.4 C 15.3 9.4 15.3 9.4 15.3 9.4 Z M 64.6 3.4 C 64.5 3.3 64.5 3.3 64.6 3.4 C 64.6 3.4 64.6 3.4 64.6 3.4 Z M 32.3 7.3 C 32.2 7.2 32.2 7.2 32.3 7.3 C 32.3 7.3 32.3 7.3 32.3 7.3 Z M 55.4 3.1 C 55.3 3.0 55.3 3.0 55.4 3.1 C 55.4 3.1 55.4 3.1 55.4 3.1 Z M 33.6 7.7 C 33.5 7.7 33.5 7.7 33.6 7.7 C 33.6 7.7 33.6 7.7 33.6 7.7 Z M 28.8 2.6 C 28.8 2.5 28.8 2.5 28.8 2.6 C 28.8 2.6 28.8 2.6 28.8 2.6 Z M 24.5 1.6 C 24.4 1.6 24.4 1.6 24.5 1.6 C 24.5 1.6 24.5 1.6 24.5 1.6 Z M 29.1 5.6 C 29.1 5.6 29.1 5.6 29.1 5.6 C 29.1 5.6 29.1 5.6 29.1 5.6 Z M 56.8 5.0 C 64.8 6.5 50.5 5.6 56.8 5.0 M 27.8 5.3 C 33.3 5.6 23.4 7.0 27.8 5.3 C 27.2 5.7 27.7 5.3 27.8 5.3 " fill="#52575F"></path><g><clipPath id="clip-557"><path d="M 5.7 5.3 L 123.4 5.3 L 123.4 112.7 L 5.7 112.7 Z M 5.7 5.3 "></path></clipPath><g clip-path="url(#clip-557)"><text xml:space="preserve" font-family="Helvetica-Bold" font-weight="bold" font-size="24.0" fill="#FEFFFE" transform="matrix(1.00, 0.00, -0.00, -1.00, 16.0, 50.0)">N</text><text xml:space="preserve" font-family="Helvetica-Bold" font-weight="bold" font-size="24.0" fill="#FEFFFE" transform="matrix(1.00, 0.00, -0.00, -1.00, 33.3, 50.0)">o</text><text xml:space="preserve" font-family="Helvetica-Bold" font-weight="bold" font-size="24.0" fill="#FEFFFE" transform="matrix(1.00, 0.00, -0.00, -1.00, 48.0, 50.0)">t</text><text xml:space="preserve" font-family="Helvetica-Bold" font-weight="bold" font-size="24.0" fill="#FEFFFE" transform="matrix(1.00, 0.00, -0.00, -1.00, 56.0, 50.0)">a</text><text xml:space="preserve" font-family="Helvetica-Bold" font-weight="bold" font-size="24.0" fill="#FEFFFE" transform="matrix(1.00, 0.00, -0.00, -1.00, 69.3, 50.0)">t</text><text xml:space="preserve" font-family="Helvetica-Bold" font-weight="bold" font-size="24.0" fill="#FEFFFE" transform="matrix(1.00, 0.00, -0.00, -1.00, 77.3, 50.0)">i</text><text xml:space="preserve" font-family="Helvetica-Bold" font-weight="bold" font-size="24.0" fill="#FEFFFE" transform="matrix(1.00, 0.00, -0.00, -1.00, 84.0, 50.0)">o</text><text xml:space="preserve" font-family="Helvetica-Bold" font-weight="bold" font-size="24.0" fill="#FEFFFE" transform="matrix(1.00, 0.00, -0.00, -1.00, 98.6, 50.0)">n</text></g></g></g></svg>