<?xml version="1.0" encoding="UTF-8" standalone="no"?><svg xmlns="http://www.w3.org/2000/svg" xmlns:xlink="http://www.w3.org/1999/xlink" clip-rule="evenodd" stroke-miterlimit="4.00" viewBox="0 0 138 18"><desc>SVG generated by Keynote</desc><defs></defs><g transform="matrix(1.00, 0.00, -0.00, -1.00, 0.0, 18.0)"><text xml:space="preserve" font-family="Helvetica" font-size="15.0" fill="#FEFFFE" transform="matrix(1.00, 0.00, -0.00, -1.00, 2.0, 4.0)">V</text><text xml:space="preserve" font-family="Helvetica" font-size="15.0" fill="#FEFFFE" transform="matrix(1.00, 0.00, -0.00, -1.00, 11.7, 4.0)">i</text><text xml:space="preserve" font-family="Helvetica" font-size="15.0" fill="#FEFFFE" transform="matrix(1.00, 0.00, -0.00, -1.00, 15.1, 4.0)">s</text><text xml:space="preserve" font-family="Helvetica" font-size="15.0" fill="#FEFFFE" transform="matrix(1.00, 0.00, -0.00, -1.00, 22.6, 4.0)">u</text><text xml:space="preserve" font-family="Helvetica" font-size="15.0" fill="#FEFFFE" transform="matrix(1.00, 0.00, -0.00, -1.00, 30.9, 4.0)">a</text><text xml:space="preserve" font-family="Helvetica" font-size="15.0" fill="#FEFFFE" transform="matrix(1.00, 0.00, -0.00, -1.00, 39.3, 4.0)">l</text><text xml:space="preserve" font-family="Helvetica" font-size="15.0" fill="#FEFFFE" transform="matrix(1.00, 0.00, -0.00, -1.00, 42.6, 4.0)"> </text><text xml:space="preserve" font-family="Helvetica" font-size="15.0" fill="#FEFFFE" transform="matrix(1.00, 0.00, -0.00, -1.00, 46.8, 4.0)">P</text><text xml:space="preserve" font-family="Helvetica" font-size="15.0" fill="#FEFFFE" transform="matrix(1.00, 0.00, -0.00, -1.00, 56.8, 4.0)">r</text><text xml:space="preserve" font-family="Helvetica" font-size="15.0" fill="#FEFFFE" transform="matrix(1.00, 0.00, -0.00, -1.00, 61.8, 4.0)">o</text><text xml:space="preserve" font-family="Helvetica" font-size="15.0" fill="#FEFFFE" transform="matrix(1.00, 0.00, -0.00, -1.00, 70.1, 4.0)">g</text><text xml:space="preserve" font-family="Helvetica" font-size="15.0" fill="#FEFFFE" transform="matrix(1.00, 0.00, -0.00, -1.00, 78.5, 4.0)">r</text><text xml:space="preserve" font-family="Helvetica" font-size="15.0" fill="#FEFFFE" transform="matrix(1.00, 0.00, -0.00, -1.00, 83.5, 4.0)">a</text><text xml:space="preserve" font-family="Helvetica" font-size="15.0" fill="#FEFFFE" transform="matrix(1.00, 0.00, -0.00, -1.00, 91.8, 4.0)">m</text><text xml:space="preserve" font-family="Helvetica" font-size="15.0" fill="#FEFFFE" transform="matrix(1.00, 0.00, -0.00, -1.00, 104.3, 4.0)">m</text><text xml:space="preserve" font-family="Helvetica" font-size="15.0" fill="#FEFFFE" transform="matrix(1.00, 0.00, -0.00, -1.00, 116.8, 4.0)">i</text><text xml:space="preserve" font-family="Helvetica" font-size="15.0" fill="#FEFFFE" transform="matrix(1.00, 0.00, -0.00, -1.00, 120.1, 4.0)">n</text><text xml:space="preserve" font-family="Helvetica" font-size="15.0" fill="#FEFFFE" transform="matrix(1.00, 0.00, -0.00, -1.00, 128.5, 4.0)">g</text></g></svg>