<?xml version="1.0" encoding="UTF-8" standalone="no"?><svg xmlns="http://www.w3.org/2000/svg" xmlns:xlink="http://www.w3.org/1999/xlink" clip-rule="evenodd" stroke-miterlimit="4.00" viewBox="0 0 417 262"><desc>SVG generated by Keynote</desc><defs><linearGradient id="gradSh1.180" x1="0.0" y1="0.0" x2="100.0" y2="0.0" gradientUnits="userSpaceOnUse" gradientTransform="matrix(0.00, -0.91, -1.76, 0.00, 208.8, 176.5)"><stop offset="0.00000" stop-color="#70BF41"></stop><stop offset="0.00293" stop-color="#6FBF41"></stop><stop offset="0.01979" stop-color="#6EBC3F"></stop><stop offset="0.02053" stop-color="#6DBB3F"></stop><stop offset="0.52199" stop-color="#365D1F"></stop><stop offset="0.52346" stop-color="#355D1F"></stop><stop offset="0.68109" stop-color="#243F15"></stop><stop offset="0.68548" stop-color="#233F15"></stop><stop offset="0.77346" stop-color="#1A2E0F"></stop><stop offset="0.77493" stop-color="#192E0F"></stop><stop offset="0.85191" stop-color="#111F0A"></stop><stop offset="0.85631" stop-color="#101F0A"></stop><stop offset="0.89883" stop-color="#0C1707"></stop><stop offset="0.89956" stop-color="#0C1607"></stop><stop offset="0.93695" stop-color="#070F05"></stop><stop offset="0.94208" stop-color="#070E05"></stop><stop offset="0.96188" stop-color="#050B03"></stop><stop offset="0.96334" stop-color="#050A03"></stop><stop offset="0.97287" stop-color="#030903"></stop><stop offset="0.97434" stop-color="#030803"></stop><stop offset="0.99047" stop-color="#010502"></stop><stop offset="0.99340" stop-color="#010501"></stop><stop offset="0.99560" stop-color="#010401"></stop><stop offset="1.00000" stop-color="#000401"></stop></linearGradient></defs><g transform="matrix(1.00, 0.00, -0.00, -1.00, 0.0, 262.0)"><image xlink:href="F57FAADD2E88378432A502EAC1AD7361.png" width="415.00" height="150.00" transform="matrix(1.00, 0.00, -0.00, -1.00, 1.6, 151.5)" opacity="0.76"></image><g><clipPath id="clip-555"><path d="M 121.6 100.2 L 121.6 161.8 C 121.6 169.3 127.7 175.5 135.3 175.5 L 282.3 175.5 C 289.9 175.5 296.0 169.3 296.0 161.8 L 296.0 100.2 C 296.0 92.6 289.9 86.5 282.3 86.5 L 135.3 86.5 C 127.7 86.5 121.6 92.6 121.6 100.2 Z M 121.6 100.2 "></path></clipPath><g clip-path="url(#clip-555)"><path d="M 121.6 100.2 L 121.6 161.8 C 121.6 169.3 127.7 175.5 135.3 175.5 L 282.3 175.5 C 289.9 175.5 296.0 169.3 296.0 161.8 L 296.0 100.2 C 296.0 92.6 289.9 86.5 282.3 86.5 L 135.3 86.5 C 127.7 86.5 121.6 92.6 121.6 100.2 Z M 121.6 100.2 " fill="url(#gradSh1.180)"></path></g></g></g></svg>