<?xml version="1.0" encoding="UTF-8" standalone="no"?><svg xmlns="http://www.w3.org/2000/svg" xmlns:xlink="http://www.w3.org/1999/xlink" clip-rule="evenodd" stroke-miterlimit="4.00" viewBox="0 0 102 17"><desc>SVG generated by Keynote</desc><defs></defs><g transform="matrix(1.00, 0.00, -0.00, -1.00, 0.0, 17.0)"><text xml:space="preserve" font-family="Helvetica" font-size="18.0" fill="#FEFFFE" transform="matrix(1.00, 0.00, -0.00, -1.00, 0.0, 2.0)">M</text><text xml:space="preserve" font-family="Helvetica" font-size="18.0" fill="#FEFFFE" transform="matrix(1.00, 0.00, -0.00, -1.00, 15.0, 2.0)">i</text><text xml:space="preserve" font-family="Helvetica" font-size="18.0" fill="#FEFFFE" transform="matrix(1.00, 0.00, -0.00, -1.00, 19.0, 2.0)">x</text><text xml:space="preserve" font-family="Helvetica" font-size="18.0" fill="#FEFFFE" transform="matrix(1.00, 0.00, -0.00, -1.00, 28.0, 2.0)">e</text><text xml:space="preserve" font-family="Helvetica" font-size="18.0" fill="#FEFFFE" transform="matrix(1.00, 0.00, -0.00, -1.00, 38.0, 2.0)">d</text><text xml:space="preserve" font-family="Helvetica" font-size="18.0" fill="#FEFFFE" transform="matrix(1.00, 0.00, -0.00, -1.00, 48.0, 2.0)"> </text><text xml:space="preserve" font-family="Helvetica" font-size="18.0" fill="#FEFFFE" transform="matrix(1.00, 0.00, -0.00, -1.00, 53.0, 2.0)">m</text><text xml:space="preserve" font-family="Helvetica" font-size="18.0" fill="#FEFFFE" transform="matrix(1.00, 0.00, -0.00, -1.00, 68.0, 2.0)">u</text><text xml:space="preserve" font-family="Helvetica" font-size="18.0" fill="#FEFFFE" transform="matrix(1.00, 0.00, -0.00, -1.00, 78.0, 2.0)">s</text><text xml:space="preserve" font-family="Helvetica" font-size="18.0" fill="#FEFFFE" transform="matrix(1.00, 0.00, -0.00, -1.00, 87.0, 2.0)">i</text><text xml:space="preserve" font-family="Helvetica" font-size="18.0" fill="#FEFFFE" transform="matrix(1.00, 0.00, -0.00, -1.00, 91.0, 2.0)">c</text></g></svg>