<?xml version="1.0" encoding="UTF-8" standalone="no"?><svg xmlns="http://www.w3.org/2000/svg" xmlns:xlink="http://www.w3.org/1999/xlink" clip-rule="evenodd" stroke-miterlimit="4.00" viewBox="0 0 91 18"><desc>SVG generated by Keynote</desc><defs></defs><g transform="matrix(1.00, 0.00, -0.00, -1.00, 0.0, 18.0)"><text xml:space="preserve" font-family="Helvetica" font-size="15.0" fill="#FEFFFE" transform="matrix(1.00, 0.00, -0.00, -1.00, 0.0, 4.0)">P</text><text xml:space="preserve" font-family="Helvetica" font-size="15.0" fill="#FEFFFE" transform="matrix(1.00, 0.00, -0.00, -1.00, 10.0, 4.0)">r</text><text xml:space="preserve" font-family="Helvetica" font-size="15.0" fill="#FEFFFE" transform="matrix(1.00, 0.00, -0.00, -1.00, 15.0, 4.0)">o</text><text xml:space="preserve" font-family="Helvetica" font-size="15.0" fill="#FEFFFE" transform="matrix(1.00, 0.00, -0.00, -1.00, 23.3, 4.0)">g</text><text xml:space="preserve" font-family="Helvetica" font-size="15.0" fill="#FEFFFE" transform="matrix(1.00, 0.00, -0.00, -1.00, 31.7, 4.0)">r</text><text xml:space="preserve" font-family="Helvetica" font-size="15.0" fill="#FEFFFE" transform="matrix(1.00, 0.00, -0.00, -1.00, 36.7, 4.0)">a</text><text xml:space="preserve" font-family="Helvetica" font-size="15.0" fill="#FEFFFE" transform="matrix(1.00, 0.00, -0.00, -1.00, 45.0, 4.0)">m</text><text xml:space="preserve" font-family="Helvetica" font-size="15.0" fill="#FEFFFE" transform="matrix(1.00, 0.00, -0.00, -1.00, 57.5, 4.0)">m</text><text xml:space="preserve" font-family="Helvetica" font-size="15.0" fill="#FEFFFE" transform="matrix(1.00, 0.00, -0.00, -1.00, 70.0, 4.0)">i</text><text xml:space="preserve" font-family="Helvetica" font-size="15.0" fill="#FEFFFE" transform="matrix(1.00, 0.00, -0.00, -1.00, 73.4, 4.0)">n</text><text xml:space="preserve" font-family="Helvetica" font-size="15.0" fill="#FEFFFE" transform="matrix(1.00, 0.00, -0.00, -1.00, 81.7, 4.0)">g</text></g></svg>