<?xml version="1.0" encoding="UTF-8" standalone="no"?><svg xmlns="http://www.w3.org/2000/svg" xmlns:xlink="http://www.w3.org/1999/xlink" clip-rule="evenodd" stroke-miterlimit="4.00" viewBox="0 0 122 19"><desc>SVG generated by Keynote</desc><defs></defs><g transform="matrix(1.00, 0.00, -0.00, -1.00, 0.0, 19.0)"><text xml:space="preserve" font-family="Helvetica-Bold" font-weight="bold" font-size="20.0" fill="#FEFFFE" transform="matrix(1.00, 0.00, -0.00, -1.00, 0.0, 2.0)">P</text><text xml:space="preserve" font-family="Helvetica-Bold" font-weight="bold" font-size="20.0" fill="#FEFFFE" transform="matrix(1.00, 0.00, -0.00, -1.00, 13.3, 2.0)">r</text><text xml:space="preserve" font-family="Helvetica-Bold" font-weight="bold" font-size="20.0" fill="#FEFFFE" transform="matrix(1.00, 0.00, -0.00, -1.00, 21.1, 2.0)">e</text><text xml:space="preserve" font-family="Helvetica-Bold" font-weight="bold" font-size="20.0" fill="#FEFFFE" transform="matrix(1.00, 0.00, -0.00, -1.00, 32.3, 2.0)">s</text><text xml:space="preserve" font-family="Helvetica-Bold" font-weight="bold" font-size="20.0" fill="#FEFFFE" transform="matrix(1.00, 0.00, -0.00, -1.00, 43.4, 2.0)">e</text><text xml:space="preserve" font-family="Helvetica-Bold" font-weight="bold" font-size="20.0" fill="#FEFFFE" transform="matrix(1.00, 0.00, -0.00, -1.00, 54.5, 2.0)">r</text><text xml:space="preserve" font-family="Helvetica-Bold" font-weight="bold" font-size="20.0" fill="#FEFFFE" transform="matrix(1.00, 0.00, -0.00, -1.00, 62.3, 2.0)">v</text><text xml:space="preserve" font-family="Helvetica-Bold" font-weight="bold" font-size="20.0" fill="#FEFFFE" transform="matrix(1.00, 0.00, -0.00, -1.00, 73.4, 2.0)">a</text><text xml:space="preserve" font-family="Helvetica-Bold" font-weight="bold" font-size="20.0" fill="#FEFFFE" transform="matrix(1.00, 0.00, -0.00, -1.00, 84.5, 2.0)">t</text><text xml:space="preserve" font-family="Helvetica-Bold" font-weight="bold" font-size="20.0" fill="#FEFFFE" transform="matrix(1.00, 0.00, -0.00, -1.00, 91.2, 2.0)">i</text><text xml:space="preserve" font-family="Helvetica-Bold" font-weight="bold" font-size="20.0" fill="#FEFFFE" transform="matrix(1.00, 0.00, -0.00, -1.00, 96.8, 2.0)">o</text><text xml:space="preserve" font-family="Helvetica-Bold" font-weight="bold" font-size="20.0" fill="#FEFFFE" transform="matrix(1.00, 0.00, -0.00, -1.00, 109.0, 2.0)">n</text></g></svg>