<?xml version="1.0" encoding="UTF-8" standalone="no"?><svg xmlns="http://www.w3.org/2000/svg" xmlns:xlink="http://www.w3.org/1999/xlink" clip-rule="evenodd" stroke-miterlimit="4.00" viewBox="0 0 393 233"><desc>SVG generated by Keynote</desc><defs><linearGradient id="gradSh1.169" x1="0.0" y1="0.0" x2="100.0" y2="0.0" gradientUnits="userSpaceOnUse" gradientTransform="matrix(0.00, -0.62, -1.52, 0.00, 196.9, 148.0)"><stop offset="0.00000" stop-color="#885CB2"></stop><stop offset="0.00147" stop-color="#885BB2"></stop><stop offset="0.09971" stop-color="#7F55A7"></stop><stop offset="0.10630" stop-color="#7F54A7"></stop><stop offset="0.47801" stop-color="#603C7F"></stop><stop offset="0.48094" stop-color="#603B7F"></stop><stop offset="0.87903" stop-color="#3F2155"></stop><stop offset="0.88490" stop-color="#3F2055"></stop><stop offset="1.00000" stop-color="#361948"></stop></linearGradient></defs><g transform="matrix(1.00, 0.00, -0.00, -1.00, 0.0, 233.0)"><image xlink:href="../../4AAE6EA7-3F1F-4CAC-8E5B-8863539C57B9/assets/0ABDBFE58846D4E14DFCA112EE026A95.png" width="390.00" height="150.00" transform="matrix(1.00, 0.00, -0.00, -1.00, 1.9, 152.0)" opacity="0.76"></image><g><clipPath id="clip-544"><path d="M 121.9 98.7 L 121.9 135.2 C 121.9 141.7 127.2 147.0 133.7 147.0 L 260.1 147.0 C 266.6 147.0 271.9 141.7 271.9 135.2 L 271.9 98.7 C 271.9 92.2 266.6 87.0 260.1 87.0 L 133.7 87.0 C 127.2 87.0 121.9 92.2 121.9 98.7 Z M 121.9 98.7 "></path></clipPath><g clip-path="url(#clip-544)"><path d="M 121.9 98.7 L 121.9 135.2 C 121.9 141.7 127.2 147.0 133.7 147.0 L 260.1 147.0 C 266.6 147.0 271.9 141.7 271.9 135.2 L 271.9 98.7 C 271.9 92.2 266.6 87.0 260.1 87.0 L 133.7 87.0 C 127.2 87.0 121.9 92.2 121.9 98.7 Z M 121.9 98.7 " fill="url(#gradSh1.169)"></path></g></g></g></svg>