<?xml version="1.0" encoding="UTF-8" standalone="no"?><svg xmlns="http://www.w3.org/2000/svg" xmlns:xlink="http://www.w3.org/1999/xlink" clip-rule="evenodd" stroke-miterlimit="4.00" viewBox="0 0 393 233"><desc>SVG generated by Keynote</desc><defs><linearGradient id="gradSh1.170" x1="0.0" y1="0.0" x2="100.0" y2="0.0" gradientUnits="userSpaceOnUse" gradientTransform="matrix(0.00, -0.62, -1.52, 0.00, 196.2, 147.6)"><stop offset="0.00000" stop-color="#885CB2"></stop><stop offset="0.00147" stop-color="#885BB2"></stop><stop offset="0.09971" stop-color="#7F55A7"></stop><stop offset="0.10630" stop-color="#7F54A7"></stop><stop offset="0.47801" stop-color="#603C7F"></stop><stop offset="0.48094" stop-color="#603B7F"></stop><stop offset="0.87903" stop-color="#3F2155"></stop><stop offset="0.88490" stop-color="#3F2055"></stop><stop offset="1.00000" stop-color="#361948"></stop></linearGradient></defs><g transform="matrix(1.00, 0.00, -0.00, -1.00, 0.0, 233.0)"><image xlink:href="../../4AAE6EA7-3F1F-4CAC-8E5B-8863539C57B9/assets/0ABDBFE58846D4E14DFCA112EE026A95.png" width="390.00" height="150.00" transform="matrix(1.00, 0.00, -0.00, -1.00, 1.2, 151.6)" opacity="0.76"></image><g><clipPath id="clip-545"><path d="M 121.2 98.4 L 121.2 134.8 C 121.2 141.3 126.4 146.6 132.9 146.6 L 259.4 146.6 C 265.9 146.6 271.2 141.3 271.2 134.8 L 271.2 98.4 C 271.2 91.9 265.9 86.6 259.4 86.6 L 132.9 86.6 C 126.4 86.6 121.2 91.9 121.2 98.4 Z M 121.2 98.4 "></path></clipPath><g clip-path="url(#clip-545)"><path d="M 121.2 98.4 L 121.2 134.8 C 121.2 141.3 126.4 146.6 132.9 146.6 L 259.4 146.6 C 265.9 146.6 271.2 141.3 271.2 134.8 L 271.2 98.4 C 271.2 91.9 265.9 86.6 259.4 86.6 L 132.9 86.6 C 126.4 86.6 121.2 91.9 121.2 98.4 Z M 121.2 98.4 " fill="url(#gradSh1.170)"></path></g></g></g></svg>