<?xml version="1.0" encoding="UTF-8" standalone="no"?><svg xmlns="http://www.w3.org/2000/svg" xmlns:xlink="http://www.w3.org/1999/xlink" clip-rule="evenodd" stroke-miterlimit="4.00" viewBox="0 0 381 314"><desc>SVG generated by Keynote</desc><defs><linearGradient id="gradSh1.156" x1="0.0" y1="0.0" x2="100.0" y2="0.0" gradientUnits="userSpaceOnUse" gradientTransform="matrix(0.00, -3.03, -3.74, 0.00, 190.2, 308.7)"><stop offset="0.00000" stop-color="#DFDEE0"></stop><stop offset="0.00073" stop-color="#DFDEDF"></stop><stop offset="0.45674" stop-color="#807F81"></stop><stop offset="0.45748" stop-color="#807F80"></stop><stop offset="0.45968" stop-color="#7F7F80"></stop><stop offset="0.46114" stop-color="#7F7E80"></stop><stop offset="0.46188" stop-color="#7F7E7F"></stop><stop offset="0.46408" stop-color="#7E7E7F"></stop><stop offset="0.76686" stop-color="#403F40"></stop><stop offset="0.76833" stop-color="#3F3F40"></stop><stop offset="0.76979" stop-color="#3F3F3F"></stop><stop offset="0.77126" stop-color="#3F3E3F"></stop><stop offset="0.92229" stop-color="#1F1F20"></stop><stop offset="0.92302" stop-color="#1F1F1F"></stop><stop offset="0.92669" stop-color="#1F1E1F"></stop><stop offset="0.99927" stop-color="#0F0F10"></stop><stop offset="1.00000" stop-color="#0F0F0F"></stop></linearGradient></defs><g transform="matrix(1.00, 0.00, -0.00, -1.00, 0.0, 314.0)"><image xlink:href="../../9BA85007-1552-4425-896F-6FEC3A878E91/assets/30FF3A6F3D241110F65FB637F24E09B3.png" width="378.00" height="307.00" transform="matrix(1.00, 0.00, -0.00, -1.00, 1.1, 308.7)" opacity="0.50"></image><g><clipPath id="clip-530"><path d="M 4.1 51.8 L 4.1 262.6 C 4.1 287.5 24.3 307.7 49.3 307.7 L 331.1 307.7 C 356.0 307.7 376.2 287.5 376.2 262.6 L 376.2 51.8 C 376.2 26.8 356.0 6.6 331.1 6.6 L 49.3 6.6 C 24.3 6.6 4.1 26.8 4.1 51.8 Z M 4.1 51.8 "></path></clipPath><g clip-path="url(#clip-530)"><path d="M 4.1 51.8 L 4.1 262.6 C 4.1 287.5 24.3 307.7 49.3 307.7 L 331.1 307.7 C 356.0 307.7 376.2 287.5 376.2 262.6 L 376.2 51.8 C 376.2 26.8 356.0 6.6 331.1 6.6 L 49.3 6.6 C 24.3 6.6 4.1 26.8 4.1 51.8 Z M 4.1 51.8 " fill="url(#gradSh1.156)"></path></g></g></g></svg>