<?xml version="1.0" encoding="UTF-8" standalone="no"?><svg xmlns="http://www.w3.org/2000/svg" xmlns:xlink="http://www.w3.org/1999/xlink" clip-rule="evenodd" stroke-miterlimit="4.00" viewBox="0 0 568 95"><desc>SVG generated by Keynote</desc><defs></defs><g transform="matrix(1.00, 0.00, -0.00, -1.00, 0.0, 95.0)"><text xml:space="preserve" font-family="Courier" font-size="16.0" fill="#000000" transform="matrix(1.00, 0.00, -0.00, -1.00, 1.0, 81.0)">v</text><text xml:space="preserve" font-family="Courier" font-size="16.0" fill="#000000" transform="matrix(1.00, 0.00, -0.00, -1.00, 10.6, 81.0)">a</text><text xml:space="preserve" font-family="Courier" font-size="16.0" fill="#000000" transform="matrix(1.00, 0.00, -0.00, -1.00, 20.2, 81.0)">r</text><text xml:space="preserve" font-family="Courier" font-size="16.0" fill="#000000" transform="matrix(1.00, 0.00, -0.00, -1.00, 29.8, 81.0)"> </text><text xml:space="preserve" font-family="Courier" font-size="16.0" fill="#000000" transform="matrix(1.00, 0.00, -0.00, -1.00, 39.4, 81.0)">m</text><text xml:space="preserve" font-family="Courier" font-size="16.0" fill="#000000" transform="matrix(1.00, 0.00, -0.00, -1.00, 49.0, 81.0)">s</text><text xml:space="preserve" font-family="Courier" font-size="16.0" fill="#000000" transform="matrix(1.00, 0.00, -0.00, -1.00, 58.6, 81.0)">g</text><text xml:space="preserve" font-family="Courier" font-size="16.0" fill="#000000" transform="matrix(1.00, 0.00, -0.00, -1.00, 68.2, 81.0)">T</text><text xml:space="preserve" font-family="Courier" font-size="16.0" fill="#000000" transform="matrix(1.00, 0.00, -0.00, -1.00, 77.8, 81.0)">e</text><text xml:space="preserve" font-family="Courier" font-size="16.0" fill="#000000" transform="matrix(1.00, 0.00, -0.00, -1.00, 87.4, 81.0)">m</text><text xml:space="preserve" font-family="Courier" font-size="16.0" fill="#000000" transform="matrix(1.00, 0.00, -0.00, -1.00, 97.0, 81.0)">p</text><text xml:space="preserve" font-family="Courier" font-size="16.0" fill="#000000" transform="matrix(1.00, 0.00, -0.00, -1.00, 106.6, 81.0)">l</text><text xml:space="preserve" font-family="Courier" font-size="16.0" fill="#000000" transform="matrix(1.00, 0.00, -0.00, -1.00, 116.2, 81.0)">a</text><text xml:space="preserve" font-family="Courier" font-size="16.0" fill="#000000" transform="matrix(1.00, 0.00, -0.00, -1.00, 125.8, 81.0)">t</text><text xml:space="preserve" font-family="Courier" font-size="16.0" fill="#000000" transform="matrix(1.00, 0.00, -0.00, -1.00, 135.4, 81.0)">e</text><text xml:space="preserve" font-family="Courier" font-size="16.0" fill="#000000" transform="matrix(1.00, 0.00, -0.00, -1.00, 145.0, 81.0)"> </text><text xml:space="preserve" font-family="Courier" font-size="16.0" fill="#000000" transform="matrix(1.00, 0.00, -0.00, -1.00, 154.7, 81.0)">=</text><text xml:space="preserve" font-family="Courier" font-size="16.0" fill="#000000" transform="matrix(1.00, 0.00, -0.00, -1.00, 164.3, 81.0)"> </text><text xml:space="preserve" font-family="Courier" font-size="16.0" fill="#000000" transform="matrix(1.00, 0.00, -0.00, -1.00, 173.9, 81.0)">“</text><text xml:space="preserve" font-family="Courier" font-size="16.0" fill="#000000" transform="matrix(1.00, 0.00, -0.00, -1.00, 183.5, 81.0)">/</text><text xml:space="preserve" font-family="Courier" font-size="16.0" fill="#000000" transform="matrix(1.00, 0.00, -0.00, -1.00, 193.1, 81.0)">I</text><text xml:space="preserve" font-family="Courier" font-size="16.0" fill="#000000" transform="matrix(1.00, 0.00, -0.00, -1.00, 202.7, 81.0)">T</text><text xml:space="preserve" font-family="Courier" font-size="16.0" fill="#000000" transform="matrix(1.00, 0.00, -0.00, -1.00, 212.3, 81.0)">L</text><text xml:space="preserve" font-family="Courier" font-size="16.0" fill="#000000" transform="matrix(1.00, 0.00, -0.00, -1.00, 221.9, 81.0)">/</text><text xml:space="preserve" font-family="Courier" font-size="16.0" fill="#000000" transform="matrix(1.00, 0.00, -0.00, -1.00, 231.5, 81.0)">s</text><text xml:space="preserve" font-family="Courier" font-size="16.0" fill="#000000" transform="matrix(1.00, 0.00, -0.00, -1.00, 241.1, 81.0)">c</text><text xml:space="preserve" font-family="Courier" font-size="16.0" fill="#000000" transform="matrix(1.00, 0.00, -0.00, -1.00, 250.7, 81.0)">e</text><text xml:space="preserve" font-family="Courier" font-size="16.0" fill="#000000" transform="matrix(1.00, 0.00, -0.00, -1.00, 260.3, 81.0)">n</text><text xml:space="preserve" font-family="Courier" font-size="16.0" fill="#000000" transform="matrix(1.00, 0.00, -0.00, -1.00, 269.9, 81.0)">e</text><text xml:space="preserve" font-family="Courier" font-size="16.0" fill="#000000" transform="matrix(1.00, 0.00, -0.00, -1.00, 279.5, 81.0)">/</text><text xml:space="preserve" font-family="Courier" font-size="16.0" fill="#000000" transform="matrix(1.00, 0.00, -0.00, -1.00, 289.1, 81.0)">s</text><text xml:space="preserve" font-family="Courier" font-size="16.0" fill="#000000" transform="matrix(1.00, 0.00, -0.00, -1.00, 298.7, 81.0)">c</text><text xml:space="preserve" font-family="Courier" font-size="16.0" fill="#000000" transform="matrix(1.00, 0.00, -0.00, -1.00, 308.3, 81.0)">o</text><text xml:space="preserve" font-family="Courier" font-size="16.0" fill="#000000" transform="matrix(1.00, 0.00, -0.00, -1.00, 317.9, 81.0)">r</text><text xml:space="preserve" font-family="Courier" font-size="16.0" fill="#000000" transform="matrix(1.00, 0.00, -0.00, -1.00, 327.5, 81.0)">e</text><text xml:space="preserve" font-family="Courier" font-size="16.0" fill="#000000" transform="matrix(1.00, 0.00, -0.00, -1.00, 337.1, 81.0)"> </text><text xml:space="preserve" font-family="Courier" font-size="16.0" fill="#000000" transform="matrix(1.00, 0.00, -0.00, -1.00, 346.7, 81.0)">w</text><text xml:space="preserve" font-family="Courier" font-size="16.0" fill="#000000" transform="matrix(1.00, 0.00, -0.00, -1.00, 356.3, 81.0)">r</text><text xml:space="preserve" font-family="Courier" font-size="16.0" fill="#000000" transform="matrix(1.00, 0.00, -0.00, -1.00, 365.9, 81.0)">i</text><text xml:space="preserve" font-family="Courier" font-size="16.0" fill="#000000" transform="matrix(1.00, 0.00, -0.00, -1.00, 375.5, 81.0)">t</text><text xml:space="preserve" font-family="Courier" font-size="16.0" fill="#000000" transform="matrix(1.00, 0.00, -0.00, -1.00, 385.1, 81.0)">e</text><text xml:space="preserve" font-family="Courier" font-size="16.0" fill="#000000" transform="matrix(1.00, 0.00, -0.00, -1.00, 394.7, 81.0)"> </text><text xml:space="preserve" font-family="Courier" font-size="16.0" fill="#C82505" transform="matrix(1.00, 0.00, -0.00, -1.00, 404.3, 81.0)">N</text><text xml:space="preserve" font-family="Courier" font-size="16.0" fill="#C82505" transform="matrix(1.00, 0.00, -0.00, -1.00, 413.9, 81.0)">O</text><text xml:space="preserve" font-family="Courier" font-size="16.0" fill="#C82505" transform="matrix(1.00, 0.00, -0.00, -1.00, 423.5, 81.0)">T</text><text xml:space="preserve" font-family="Courier" font-size="16.0" fill="#C82505" transform="matrix(1.00, 0.00, -0.00, -1.00, 433.1, 81.0)">E</text><text xml:space="preserve" font-family="Courier" font-size="16.0" fill="#000000" transform="matrix(1.00, 0.00, -0.00, -1.00, 442.7, 81.0)">;</text><text xml:space="preserve" font-family="Courier" font-size="16.0" fill="#000000" transform="matrix(1.00, 0.00, -0.00, -1.00, 469.0, 81.0)">“</text><text xml:space="preserve" font-family="Courier" font-size="16.0" fill="#000000" transform="matrix(1.00, 0.00, -0.00, -1.00, 37.0, 62.0)">+</text><text xml:space="preserve" font-family="Courier" font-size="16.0" fill="#000000" transform="matrix(1.00, 0.00, -0.00, -1.00, 46.6, 62.0)"> </text><text xml:space="preserve" font-family="Courier" font-size="16.0" fill="#000000" transform="matrix(1.00, 0.00, -0.00, -1.00, 56.2, 62.0)">“</text><text xml:space="preserve" font-family="Courier" font-size="16.0" fill="#000000" transform="matrix(1.00, 0.00, -0.00, -1.00, 65.8, 62.0)">/</text><text xml:space="preserve" font-family="Courier" font-size="16.0" fill="#000000" transform="matrix(1.00, 0.00, -0.00, -1.00, 75.4, 62.0)">I</text><text xml:space="preserve" font-family="Courier" font-size="16.0" fill="#000000" transform="matrix(1.00, 0.00, -0.00, -1.00, 85.0, 62.0)">T</text><text xml:space="preserve" font-family="Courier" font-size="16.0" fill="#000000" transform="matrix(1.00, 0.00, -0.00, -1.00, 94.6, 62.0)">L</text><text xml:space="preserve" font-family="Courier" font-size="16.0" fill="#000000" transform="matrix(1.00, 0.00, -0.00, -1.00, 104.2, 62.0)">/</text><text xml:space="preserve" font-family="Courier" font-size="16.0" fill="#000000" transform="matrix(1.00, 0.00, -0.00, -1.00, 113.8, 62.0)">s</text><text xml:space="preserve" font-family="Courier" font-size="16.0" fill="#000000" transform="matrix(1.00, 0.00, -0.00, -1.00, 123.4, 62.0)">c</text><text xml:space="preserve" font-family="Courier" font-size="16.0" fill="#000000" transform="matrix(1.00, 0.00, -0.00, -1.00, 133.0, 62.0)">e</text><text xml:space="preserve" font-family="Courier" font-size="16.0" fill="#000000" transform="matrix(1.00, 0.00, -0.00, -1.00, 142.6, 62.0)">n</text><text xml:space="preserve" font-family="Courier" font-size="16.0" fill="#000000" transform="matrix(1.00, 0.00, -0.00, -1.00, 152.2, 62.0)">e</text><text xml:space="preserve" font-family="Courier" font-size="16.0" fill="#000000" transform="matrix(1.00, 0.00, -0.00, -1.00, 161.8, 62.0)">/</text><text xml:space="preserve" font-family="Courier" font-size="16.0" fill="#000000" transform="matrix(1.00, 0.00, -0.00, -1.00, 171.4, 62.0)">c</text><text xml:space="preserve" font-family="Courier" font-size="16.0" fill="#000000" transform="matrix(1.00, 0.00, -0.00, -1.00, 181.0, 62.0)">u</text><text xml:space="preserve" font-family="Courier" font-size="16.0" fill="#000000" transform="matrix(1.00, 0.00, -0.00, -1.00, 190.7, 62.0)">r</text><text xml:space="preserve" font-family="Courier" font-size="16.0" fill="#000000" transform="matrix(1.00, 0.00, -0.00, -1.00, 200.3, 62.0)">s</text><text xml:space="preserve" font-family="Courier" font-size="16.0" fill="#000000" transform="matrix(1.00, 0.00, -0.00, -1.00, 209.9, 62.0)">o</text><text xml:space="preserve" font-family="Courier" font-size="16.0" fill="#000000" transform="matrix(1.00, 0.00, -0.00, -1.00, 219.5, 62.0)">r</text><text xml:space="preserve" font-family="Courier" font-size="16.0" fill="#000000" transform="matrix(1.00, 0.00, -0.00, -1.00, 229.1, 62.0)"> </text><text xml:space="preserve" font-family="Courier" font-size="16.0" fill="#000000" transform="matrix(1.00, 0.00, -0.00, -1.00, 238.7, 62.0)">w</text><text xml:space="preserve" font-family="Courier" font-size="16.0" fill="#000000" transform="matrix(1.00, 0.00, -0.00, -1.00, 248.3, 62.0)">a</text><text xml:space="preserve" font-family="Courier" font-size="16.0" fill="#000000" transform="matrix(1.00, 0.00, -0.00, -1.00, 257.9, 62.0)">t</text><text xml:space="preserve" font-family="Courier" font-size="16.0" fill="#000000" transform="matrix(1.00, 0.00, -0.00, -1.00, 267.5, 62.0)">c</text><text xml:space="preserve" font-family="Courier" font-size="16.0" fill="#000000" transform="matrix(1.00, 0.00, -0.00, -1.00, 277.1, 62.0)">h</text><text xml:space="preserve" font-family="Courier" font-size="16.0" fill="#000000" transform="matrix(1.00, 0.00, -0.00, -1.00, 286.7, 62.0)"> </text><text xml:space="preserve" font-family="Courier" font-size="16.0" fill="#000000" transform="matrix(1.00, 0.00, -0.00, -1.00, 296.3, 62.0)">t</text><text xml:space="preserve" font-family="Courier" font-size="16.0" fill="#000000" transform="matrix(1.00, 0.00, -0.00, -1.00, 305.9, 62.0)">i</text><text xml:space="preserve" font-family="Courier" font-size="16.0" fill="#000000" transform="matrix(1.00, 0.00, -0.00, -1.00, 315.5, 62.0)">m</text><text xml:space="preserve" font-family="Courier" font-size="16.0" fill="#000000" transform="matrix(1.00, 0.00, -0.00, -1.00, 325.1, 62.0)">e</text><text xml:space="preserve" font-family="Courier" font-size="16.0" fill="#000000" transform="matrix(1.00, 0.00, -0.00, -1.00, 334.7, 62.0)">E</text><text xml:space="preserve" font-family="Courier" font-size="16.0" fill="#000000" transform="matrix(1.00, 0.00, -0.00, -1.00, 344.3, 62.0)">n</text><text xml:space="preserve" font-family="Courier" font-size="16.0" fill="#000000" transform="matrix(1.00, 0.00, -0.00, -1.00, 353.9, 62.0)">t</text><text xml:space="preserve" font-family="Courier" font-size="16.0" fill="#000000" transform="matrix(1.00, 0.00, -0.00, -1.00, 363.5, 62.0)">e</text><text xml:space="preserve" font-family="Courier" font-size="16.0" fill="#000000" transform="matrix(1.00, 0.00, -0.00, -1.00, 373.1, 62.0)">r</text><text xml:space="preserve" font-family="Courier" font-size="16.0" fill="#000000" transform="matrix(1.00, 0.00, -0.00, -1.00, 382.7, 62.0)"> </text><text xml:space="preserve" font-family="Courier" font-size="16.0" fill="#C82505" transform="matrix(1.00, 0.00, -0.00, -1.00, 392.3, 62.0)">O</text><text xml:space="preserve" font-family="Courier" font-size="16.0" fill="#C82505" transform="matrix(1.00, 0.00, -0.00, -1.00, 401.9, 62.0)">L</text><text xml:space="preserve" font-family="Courier" font-size="16.0" fill="#C82505" transform="matrix(1.00, 0.00, -0.00, -1.00, 411.5, 62.0)">D</text><text xml:space="preserve" font-family="Courier" font-size="16.0" fill="#C82505" transform="matrix(1.00, 0.00, -0.00, -1.00, 421.1, 62.0)">D</text><text xml:space="preserve" font-family="Courier" font-size="16.0" fill="#C82505" transform="matrix(1.00, 0.00, -0.00, -1.00, 430.7, 62.0)">U</text><text xml:space="preserve" font-family="Courier" font-size="16.0" fill="#C82505" transform="matrix(1.00, 0.00, -0.00, -1.00, 440.3, 62.0)">R</text><text xml:space="preserve" font-family="Courier" font-size="16.0" fill="#000000" transform="matrix(1.00, 0.00, -0.00, -1.00, 449.9, 62.0)"> </text><text xml:space="preserve" font-family="Courier" font-size="16.0" fill="#000000" transform="matrix(1.00, 0.00, -0.00, -1.00, 459.5, 62.0)">4</text><text xml:space="preserve" font-family="Courier" font-size="16.0" fill="#000000" transform="matrix(1.00, 0.00, -0.00, -1.00, 469.1, 62.0)"> </text><text xml:space="preserve" font-family="Courier" font-size="16.0" fill="#000000" transform="matrix(1.00, 0.00, -0.00, -1.00, 478.7, 62.0)">9</text><text xml:space="preserve" font-family="Courier" font-size="16.0" fill="#000000" transform="matrix(1.00, 0.00, -0.00, -1.00, 488.3, 62.0)">9</text><text xml:space="preserve" font-family="Courier" font-size="16.0" fill="#000000" transform="matrix(1.00, 0.00, -0.00, -1.00, 497.9, 62.0)">9</text><text xml:space="preserve" font-family="Courier" font-size="16.0" fill="#000000" transform="matrix(1.00, 0.00, -0.00, -1.00, 507.5, 62.0)">9</text><text xml:space="preserve" font-family="Courier" font-size="16.0" fill="#000000" transform="matrix(1.00, 0.00, -0.00, -1.00, 517.1, 62.0)"> </text><text xml:space="preserve" font-family="Courier" font-size="16.0" fill="#000000" transform="matrix(1.00, 0.00, -0.00, -1.00, 526.7, 62.0)">4</text><text xml:space="preserve" font-family="Courier" font-size="16.0" fill="#000000" transform="matrix(1.00, 0.00, -0.00, -1.00, 536.3, 62.0)">;</text><text xml:space="preserve" font-family="Courier" font-size="16.0" fill="#000000" transform="matrix(1.00, 0.00, -0.00, -1.00, 545.9, 62.0)">”</text><text xml:space="preserve" font-family="Courier" font-size="16.0" fill="#000000" transform="matrix(1.00, 0.00, -0.00, -1.00, 37.0, 43.0)">+</text><text xml:space="preserve" font-family="Courier" font-size="16.0" fill="#000000" transform="matrix(1.00, 0.00, -0.00, -1.00, 46.6, 43.0)"> </text><text xml:space="preserve" font-family="Courier" font-size="16.0" fill="#000000" transform="matrix(1.00, 0.00, -0.00, -1.00, 56.2, 43.0)">“</text><text xml:space="preserve" font-family="Courier" font-size="16.0" fill="#000000" transform="matrix(1.00, 0.00, -0.00, -1.00, 65.8, 43.0)">/</text><text xml:space="preserve" font-family="Courier" font-size="16.0" fill="#000000" transform="matrix(1.00, 0.00, -0.00, -1.00, 75.4, 43.0)">I</text><text xml:space="preserve" font-family="Courier" font-size="16.0" fill="#000000" transform="matrix(1.00, 0.00, -0.00, -1.00, 85.0, 43.0)">T</text><text xml:space="preserve" font-family="Courier" font-size="16.0" fill="#000000" transform="matrix(1.00, 0.00, -0.00, -1.00, 94.6, 43.0)">L</text><text xml:space="preserve" font-family="Courier" font-size="16.0" fill="#000000" transform="matrix(1.00, 0.00, -0.00, -1.00, 104.2, 43.0)">/</text><text xml:space="preserve" font-family="Courier" font-size="16.0" fill="#000000" transform="matrix(1.00, 0.00, -0.00, -1.00, 113.8, 43.0)">s</text><text xml:space="preserve" font-family="Courier" font-size="16.0" fill="#000000" transform="matrix(1.00, 0.00, -0.00, -1.00, 123.4, 43.0)">c</text><text xml:space="preserve" font-family="Courier" font-size="16.0" fill="#000000" transform="matrix(1.00, 0.00, -0.00, -1.00, 133.0, 43.0)">e</text><text xml:space="preserve" font-family="Courier" font-size="16.0" fill="#000000" transform="matrix(1.00, 0.00, -0.00, -1.00, 142.6, 43.0)">n</text><text xml:space="preserve" font-family="Courier" font-size="16.0" fill="#000000" transform="matrix(1.00, 0.00, -0.00, -1.00, 152.2, 43.0)">e</text><text xml:space="preserve" font-family="Courier" font-size="16.0" fill="#000000" transform="matrix(1.00, 0.00, -0.00, -1.00, 161.8, 43.0)">/</text><text xml:space="preserve" font-family="Courier" font-size="16.0" fill="#000000" transform="matrix(1.00, 0.00, -0.00, -1.00, 171.4, 43.0)">c</text><text xml:space="preserve" font-family="Courier" font-size="16.0" fill="#000000" transform="matrix(1.00, 0.00, -0.00, -1.00, 181.0, 43.0)">u</text><text xml:space="preserve" font-family="Courier" font-size="16.0" fill="#000000" transform="matrix(1.00, 0.00, -0.00, -1.00, 190.7, 43.0)">r</text><text xml:space="preserve" font-family="Courier" font-size="16.0" fill="#000000" transform="matrix(1.00, 0.00, -0.00, -1.00, 200.3, 43.0)">s</text><text xml:space="preserve" font-family="Courier" font-size="16.0" fill="#000000" transform="matrix(1.00, 0.00, -0.00, -1.00, 209.9, 43.0)">o</text><text xml:space="preserve" font-family="Courier" font-size="16.0" fill="#000000" transform="matrix(1.00, 0.00, -0.00, -1.00, 219.5, 43.0)">r</text><text xml:space="preserve" font-family="Courier" font-size="16.0" fill="#000000" transform="matrix(1.00, 0.00, -0.00, -1.00, 229.1, 43.0)"> </text><text xml:space="preserve" font-family="Courier" font-size="16.0" fill="#000000" transform="matrix(1.00, 0.00, -0.00, -1.00, 238.7, 43.0)">w</text><text xml:space="preserve" font-family="Courier" font-size="16.0" fill="#000000" transform="matrix(1.00, 0.00, -0.00, -1.00, 248.3, 43.0)">a</text><text xml:space="preserve" font-family="Courier" font-size="16.0" fill="#000000" transform="matrix(1.00, 0.00, -0.00, -1.00, 257.9, 43.0)">t</text><text xml:space="preserve" font-family="Courier" font-size="16.0" fill="#000000" transform="matrix(1.00, 0.00, -0.00, -1.00, 267.5, 43.0)">c</text><text xml:space="preserve" font-family="Courier" font-size="16.0" fill="#000000" transform="matrix(1.00, 0.00, -0.00, -1.00, 277.1, 43.0)">h</text><text xml:space="preserve" font-family="Courier" font-size="16.0" fill="#000000" transform="matrix(1.00, 0.00, -0.00, -1.00, 286.7, 43.0)"> </text><text xml:space="preserve" font-family="Courier" font-size="16.0" fill="#000000" transform="matrix(1.00, 0.00, -0.00, -1.00, 296.3, 43.0)">t</text><text xml:space="preserve" font-family="Courier" font-size="16.0" fill="#000000" transform="matrix(1.00, 0.00, -0.00, -1.00, 305.9, 43.0)">i</text><text xml:space="preserve" font-family="Courier" font-size="16.0" fill="#000000" transform="matrix(1.00, 0.00, -0.00, -1.00, 315.5, 43.0)">m</text><text xml:space="preserve" font-family="Courier" font-size="16.0" fill="#000000" transform="matrix(1.00, 0.00, -0.00, -1.00, 325.1, 43.0)">e</text><text xml:space="preserve" font-family="Courier" font-size="16.0" fill="#000000" transform="matrix(1.00, 0.00, -0.00, -1.00, 334.7, 43.0)">E</text><text xml:space="preserve" font-family="Courier" font-size="16.0" fill="#000000" transform="matrix(1.00, 0.00, -0.00, -1.00, 344.3, 43.0)">n</text><text xml:space="preserve" font-family="Courier" font-size="16.0" fill="#000000" transform="matrix(1.00, 0.00, -0.00, -1.00, 353.9, 43.0)">t</text><text xml:space="preserve" font-family="Courier" font-size="16.0" fill="#000000" transform="matrix(1.00, 0.00, -0.00, -1.00, 363.5, 43.0)">e</text><text xml:space="preserve" font-family="Courier" font-size="16.0" fill="#000000" transform="matrix(1.00, 0.00, -0.00, -1.00, 373.1, 43.0)">r</text><text xml:space="preserve" font-family="Courier" font-size="16.0" fill="#000000" transform="matrix(1.00, 0.00, -0.00, -1.00, 382.7, 43.0)"> </text><text xml:space="preserve" font-family="Courier" font-size="16.0" fill="#C82505" transform="matrix(1.00, 0.00, -0.00, -1.00, 392.3, 43.0)">N</text><text xml:space="preserve" font-family="Courier" font-size="16.0" fill="#C82505" transform="matrix(1.00, 0.00, -0.00, -1.00, 401.9, 43.0)">E</text><text xml:space="preserve" font-family="Courier" font-size="16.0" fill="#C82505" transform="matrix(1.00, 0.00, -0.00, -1.00, 411.5, 43.0)">W</text><text xml:space="preserve" font-family="Courier" font-size="16.0" fill="#C82505" transform="matrix(1.00, 0.00, -0.00, -1.00, 421.1, 43.0)">D</text><text xml:space="preserve" font-family="Courier" font-size="16.0" fill="#C82505" transform="matrix(1.00, 0.00, -0.00, -1.00, 430.7, 43.0)">U</text><text xml:space="preserve" font-family="Courier" font-size="16.0" fill="#C82505" transform="matrix(1.00, 0.00, -0.00, -1.00, 440.3, 43.0)">R</text><text xml:space="preserve" font-family="Courier" font-size="16.0" fill="#000000" transform="matrix(1.00, 0.00, -0.00, -1.00, 449.9, 43.0)"> </text><text xml:space="preserve" font-family="Courier" font-size="16.0" fill="#000000" transform="matrix(1.00, 0.00, -0.00, -1.00, 459.5, 43.0)">4</text><text xml:space="preserve" font-family="Courier" font-size="16.0" fill="#000000" transform="matrix(1.00, 0.00, -0.00, -1.00, 469.1, 43.0)"> </text><text xml:space="preserve" font-family="Courier" font-size="16.0" fill="#000000" transform="matrix(1.00, 0.00, -0.00, -1.00, 478.7, 43.0)">9</text><text xml:space="preserve" font-family="Courier" font-size="16.0" fill="#000000" transform="matrix(1.00, 0.00, -0.00, -1.00, 488.3, 43.0)">9</text><text xml:space="preserve" font-family="Courier" font-size="16.0" fill="#000000" transform="matrix(1.00, 0.00, -0.00, -1.00, 497.9, 43.0)">9</text><text xml:space="preserve" font-family="Courier" font-size="16.0" fill="#000000" transform="matrix(1.00, 0.00, -0.00, -1.00, 507.5, 43.0)">9</text><text xml:space="preserve" font-family="Courier" font-size="16.0" fill="#000000" transform="matrix(1.00, 0.00, -0.00, -1.00, 517.1, 43.0)"> </text><text xml:space="preserve" font-family="Courier" font-size="16.0" fill="#000000" transform="matrix(1.00, 0.00, -0.00, -1.00, 526.7, 43.0)">4</text><text xml:space="preserve" font-family="Courier" font-size="16.0" fill="#000000" transform="matrix(1.00, 0.00, -0.00, -1.00, 536.3, 43.0)"> </text><text xml:space="preserve" font-family="Courier" font-size="16.0" fill="#000000" transform="matrix(1.00, 0.00, -0.00, -1.00, 545.9, 43.0)">(</text><text xml:space="preserve" font-family="Courier" font-size="16.0" fill="#000000" transform="matrix(1.00, 0.00, -0.00, -1.00, 555.5, 43.0)">“</text><text xml:space="preserve" font-family="Courier" font-size="16.0" fill="#000000" transform="matrix(1.00, 0.00, -0.00, -1.00, 37.0, 24.0)">+</text><text xml:space="preserve" font-family="Courier" font-size="16.0" fill="#000000" transform="matrix(1.00, 0.00, -0.00, -1.00, 46.6, 24.0)"> </text><text xml:space="preserve" font-family="Courier" font-size="16.0" fill="#000000" transform="matrix(1.00, 0.00, -0.00, -1.00, 56.2, 24.0)">“</text><text xml:space="preserve" font-family="Courier" font-size="16.0" fill="#000000" transform="matrix(1.00, 0.00, -0.00, -1.00, 65.8, 24.0)"> </text><text xml:space="preserve" font-family="Courier" font-size="16.0" fill="#000000" transform="matrix(1.00, 0.00, -0.00, -1.00, 75.4, 24.0)">/</text><text xml:space="preserve" font-family="Courier" font-size="16.0" fill="#000000" transform="matrix(1.00, 0.00, -0.00, -1.00, 85.0, 24.0)">I</text><text xml:space="preserve" font-family="Courier" font-size="16.0" fill="#000000" transform="matrix(1.00, 0.00, -0.00, -1.00, 94.6, 24.0)">T</text><text xml:space="preserve" font-family="Courier" font-size="16.0" fill="#000000" transform="matrix(1.00, 0.00, -0.00, -1.00, 104.2, 24.0)">L</text><text xml:space="preserve" font-family="Courier" font-size="16.0" fill="#000000" transform="matrix(1.00, 0.00, -0.00, -1.00, 113.8, 24.0)">/</text><text xml:space="preserve" font-family="Courier" font-size="16.0" fill="#000000" transform="matrix(1.00, 0.00, -0.00, -1.00, 123.4, 24.0)">s</text><text xml:space="preserve" font-family="Courier" font-size="16.0" fill="#000000" transform="matrix(1.00, 0.00, -0.00, -1.00, 133.0, 24.0)">c</text><text xml:space="preserve" font-family="Courier" font-size="16.0" fill="#000000" transform="matrix(1.00, 0.00, -0.00, -1.00, 142.6, 24.0)">e</text><text xml:space="preserve" font-family="Courier" font-size="16.0" fill="#000000" transform="matrix(1.00, 0.00, -0.00, -1.00, 152.2, 24.0)">n</text><text xml:space="preserve" font-family="Courier" font-size="16.0" fill="#000000" transform="matrix(1.00, 0.00, -0.00, -1.00, 161.8, 24.0)">e</text><text xml:space="preserve" font-family="Courier" font-size="16.0" fill="#000000" transform="matrix(1.00, 0.00, -0.00, -1.00, 171.4, 24.0)">/</text><text xml:space="preserve" font-family="Courier" font-size="16.0" fill="#000000" transform="matrix(1.00, 0.00, -0.00, -1.00, 181.0, 24.0)">c</text><text xml:space="preserve" font-family="Courier" font-size="16.0" fill="#000000" transform="matrix(1.00, 0.00, -0.00, -1.00, 190.7, 24.0)">u</text><text xml:space="preserve" font-family="Courier" font-size="16.0" fill="#000000" transform="matrix(1.00, 0.00, -0.00, -1.00, 200.3, 24.0)">r</text><text xml:space="preserve" font-family="Courier" font-size="16.0" fill="#000000" transform="matrix(1.00, 0.00, -0.00, -1.00, 209.9, 24.0)">s</text><text xml:space="preserve" font-family="Courier" font-size="16.0" fill="#000000" transform="matrix(1.00, 0.00, -0.00, -1.00, 219.5, 24.0)">o</text><text xml:space="preserve" font-family="Courier" font-size="16.0" fill="#000000" transform="matrix(1.00, 0.00, -0.00, -1.00, 229.1, 24.0)">r</text><text xml:space="preserve" font-family="Courier" font-size="16.0" fill="#000000" transform="matrix(1.00, 0.00, -0.00, -1.00, 238.7, 24.0)"> </text><text xml:space="preserve" font-family="Courier" font-size="16.0" fill="#000000" transform="matrix(1.00, 0.00, -0.00, -1.00, 248.3, 24.0)">t</text><text xml:space="preserve" font-family="Courier" font-size="16.0" fill="#000000" transform="matrix(1.00, 0.00, -0.00, -1.00, 257.9, 24.0)">e</text><text xml:space="preserve" font-family="Courier" font-size="16.0" fill="#000000" transform="matrix(1.00, 0.00, -0.00, -1.00, 267.5, 24.0)">m</text><text xml:space="preserve" font-family="Courier" font-size="16.0" fill="#000000" transform="matrix(1.00, 0.00, -0.00, -1.00, 277.1, 24.0)">p</text><text xml:space="preserve" font-family="Courier" font-size="16.0" fill="#000000" transform="matrix(1.00, 0.00, -0.00, -1.00, 286.7, 24.0)">o</text><text xml:space="preserve" font-family="Courier" font-size="16.0" fill="#000000" transform="matrix(1.00, 0.00, -0.00, -1.00, 296.3, 24.0)"> </text><text xml:space="preserve" font-family="Courier" font-size="16.0" fill="#C82505" transform="matrix(1.00, 0.00, -0.00, -1.00, 305.8, 24.0)">T</text><text xml:space="preserve" font-family="Courier" font-size="16.0" fill="#C82505" transform="matrix(1.00, 0.00, -0.00, -1.00, 315.4, 24.0)">E</text><text xml:space="preserve" font-family="Courier" font-size="16.0" fill="#C82505" transform="matrix(1.00, 0.00, -0.00, -1.00, 325.1, 24.0)">M</text><text xml:space="preserve" font-family="Courier" font-size="16.0" fill="#C82505" transform="matrix(1.00, 0.00, -0.00, -1.00, 334.7, 24.0)">P</text><text xml:space="preserve" font-family="Courier" font-size="16.0" fill="#C82505" transform="matrix(1.00, 0.00, -0.00, -1.00, 344.3, 24.0)">O</text><text xml:space="preserve" font-family="Courier" font-size="16.0" fill="#000000" transform="matrix(1.00, 0.00, -0.00, -1.00, 353.9, 24.0)">,</text><text xml:space="preserve" font-family="Courier" font-size="16.0" fill="#000000" transform="matrix(1.00, 0.00, -0.00, -1.00, 363.5, 24.0)">”</text><text xml:space="preserve" font-family="Courier" font-size="16.0" fill="#000000" transform="matrix(1.00, 0.00, -0.00, -1.00, 37.0, 5.0)">+</text><text xml:space="preserve" font-family="Courier" font-size="16.0" fill="#000000" transform="matrix(1.00, 0.00, -0.00, -1.00, 46.6, 5.0)"> </text><text xml:space="preserve" font-family="Courier" font-size="16.0" fill="#000000" transform="matrix(1.00, 0.00, -0.00, -1.00, 56.2, 5.0)">“</text><text xml:space="preserve" font-family="Courier" font-size="16.0" fill="#000000" transform="matrix(1.00, 0.00, -0.00, -1.00, 65.8, 5.0)"> </text><text xml:space="preserve" font-family="Courier" font-size="16.0" fill="#000000" transform="matrix(1.00, 0.00, -0.00, -1.00, 75.4, 5.0)">/</text><text xml:space="preserve" font-family="Courier" font-size="16.0" fill="#000000" transform="matrix(1.00, 0.00, -0.00, -1.00, 85.0, 5.0)">I</text><text xml:space="preserve" font-family="Courier" font-size="16.0" fill="#000000" transform="matrix(1.00, 0.00, -0.00, -1.00, 94.6, 5.0)">T</text><text xml:space="preserve" font-family="Courier" font-size="16.0" fill="#000000" transform="matrix(1.00, 0.00, -0.00, -1.00, 104.2, 5.0)">L</text><text xml:space="preserve" font-family="Courier" font-size="16.0" fill="#000000" transform="matrix(1.00, 0.00, -0.00, -1.00, 113.8, 5.0)">/</text><text xml:space="preserve" font-family="Courier" font-size="16.0" fill="#000000" transform="matrix(1.00, 0.00, -0.00, -1.00, 123.4, 5.0)">s</text><text xml:space="preserve" font-family="Courier" font-size="16.0" fill="#000000" transform="matrix(1.00, 0.00, -0.00, -1.00, 133.0, 5.0)">c</text><text xml:space="preserve" font-family="Courier" font-size="16.0" fill="#000000" transform="matrix(1.00, 0.00, -0.00, -1.00, 142.6, 5.0)">e</text><text xml:space="preserve" font-family="Courier" font-size="16.0" fill="#000000" transform="matrix(1.00, 0.00, -0.00, -1.00, 152.2, 5.0)">n</text><text xml:space="preserve" font-family="Courier" font-size="16.0" fill="#000000" transform="matrix(1.00, 0.00, -0.00, -1.00, 161.8, 5.0)">e</text><text xml:space="preserve" font-family="Courier" font-size="16.0" fill="#000000" transform="matrix(1.00, 0.00, -0.00, -1.00, 171.4, 5.0)">/</text><text xml:space="preserve" font-family="Courier" font-size="16.0" fill="#000000" transform="matrix(1.00, 0.00, -0.00, -1.00, 181.0, 5.0)">j</text><text xml:space="preserve" font-family="Courier" font-size="16.0" fill="#000000" transform="matrix(1.00, 0.00, -0.00, -1.00, 190.7, 5.0)">a</text><text xml:space="preserve" font-family="Courier" font-size="16.0" fill="#000000" transform="matrix(1.00, 0.00, -0.00, -1.00, 200.3, 5.0)">v</text><text xml:space="preserve" font-family="Courier" font-size="16.0" fill="#000000" transform="matrix(1.00, 0.00, -0.00, -1.00, 209.9, 5.0)">a</text><text xml:space="preserve" font-family="Courier" font-size="16.0" fill="#000000" transform="matrix(1.00, 0.00, -0.00, -1.00, 219.5, 5.0)">s</text><text xml:space="preserve" font-family="Courier" font-size="16.0" fill="#000000" transform="matrix(1.00, 0.00, -0.00, -1.00, 229.1, 5.0)">c</text><text xml:space="preserve" font-family="Courier" font-size="16.0" fill="#000000" transform="matrix(1.00, 0.00, -0.00, -1.00, 238.7, 5.0)">r</text><text xml:space="preserve" font-family="Courier" font-size="16.0" fill="#000000" transform="matrix(1.00, 0.00, -0.00, -1.00, 248.3, 5.0)">i</text><text xml:space="preserve" font-family="Courier" font-size="16.0" fill="#000000" transform="matrix(1.00, 0.00, -0.00, -1.00, 257.9, 5.0)">p</text><text xml:space="preserve" font-family="Courier" font-size="16.0" fill="#000000" transform="matrix(1.00, 0.00, -0.00, -1.00, 267.5, 5.0)">t</text><text xml:space="preserve" font-family="Courier" font-size="16.0" fill="#000000" transform="matrix(1.00, 0.00, -0.00, -1.00, 277.1, 5.0)"> </text><text xml:space="preserve" font-family="Courier" font-size="16.0" fill="#000000" transform="matrix(1.00, 0.00, -0.00, -1.00, 286.7, 5.0)">r</text><text xml:space="preserve" font-family="Courier" font-size="16.0" fill="#000000" transform="matrix(1.00, 0.00, -0.00, -1.00, 296.3, 5.0)">u</text><text xml:space="preserve" font-family="Courier" font-size="16.0" fill="#000000" transform="matrix(1.00, 0.00, -0.00, -1.00, 305.9, 5.0)">n</text><text xml:space="preserve" font-family="Courier" font-size="16.0" fill="#000000" transform="matrix(1.00, 0.00, -0.00, -1.00, 315.5, 5.0)"> </text><text xml:space="preserve" font-family="Courier" font-size="16.0" fill="#000000" transform="matrix(1.00, 0.00, -0.00, -1.00, 325.1, 5.0)">‘</text><text xml:space="preserve" font-family="Courier" font-size="16.0" fill="#000000" transform="matrix(1.00, 0.00, -0.00, -1.00, 334.7, 5.0)">n</text><text xml:space="preserve" font-family="Courier" font-size="16.0" fill="#000000" transform="matrix(1.00, 0.00, -0.00, -1.00, 344.3, 5.0)">o</text><text xml:space="preserve" font-family="Courier" font-size="16.0" fill="#000000" transform="matrix(1.00, 0.00, -0.00, -1.00, 353.9, 5.0)">t</text><text xml:space="preserve" font-family="Courier" font-size="16.0" fill="#000000" transform="matrix(1.00, 0.00, -0.00, -1.00, 363.5, 5.0)">e</text><text xml:space="preserve" font-family="Courier" font-size="16.0" fill="#000000" transform="matrix(1.00, 0.00, -0.00, -1.00, 373.1, 5.0)">(</text><text xml:space="preserve" font-family="Courier" font-size="16.0" fill="#000000" transform="matrix(1.00, 0.00, -0.00, -1.00, 382.7, 5.0)">)</text><text xml:space="preserve" font-family="Courier" font-size="16.0" fill="#000000" transform="matrix(1.00, 0.00, -0.00, -1.00, 392.3, 5.0)">'</text><text xml:space="preserve" font-family="Courier" font-size="16.0" fill="#000000" transform="matrix(1.00, 0.00, -0.00, -1.00, 401.9, 5.0)">)</text><text xml:space="preserve" font-family="Courier" font-size="16.0" fill="#000000" transform="matrix(1.00, 0.00, -0.00, -1.00, 411.5, 5.0)">;</text><text xml:space="preserve" font-family="Courier" font-size="16.0" fill="#000000" transform="matrix(1.00, 0.00, -0.00, -1.00, 421.1, 5.0)">"</text></g></svg>