<?xml version="1.0" encoding="UTF-8" standalone="no"?><svg xmlns="http://www.w3.org/2000/svg" xmlns:xlink="http://www.w3.org/1999/xlink" clip-rule="evenodd" stroke-miterlimit="4.00" viewBox="0 0 426 112"><desc>SVG generated by Keynote</desc><defs></defs><g transform="matrix(1.00, 0.00, -0.00, -1.00, 0.0, 112.0)"><text xml:space="preserve" font-family="Courier" font-size="16.0" fill="#000000" transform="matrix(1.00, 0.00, -0.00, -1.00, 2.0, 99.0)">f</text><text xml:space="preserve" font-family="Courier" font-size="16.0" fill="#000000" transform="matrix(1.00, 0.00, -0.00, -1.00, 11.6, 99.0)">u</text><text xml:space="preserve" font-family="Courier" font-size="16.0" fill="#000000" transform="matrix(1.00, 0.00, -0.00, -1.00, 21.2, 99.0)">n</text><text xml:space="preserve" font-family="Courier" font-size="16.0" fill="#000000" transform="matrix(1.00, 0.00, -0.00, -1.00, 30.8, 99.0)">c</text><text xml:space="preserve" font-family="Courier" font-size="16.0" fill="#000000" transform="matrix(1.00, 0.00, -0.00, -1.00, 40.4, 99.0)">t</text><text xml:space="preserve" font-family="Courier" font-size="16.0" fill="#000000" transform="matrix(1.00, 0.00, -0.00, -1.00, 50.0, 99.0)">i</text><text xml:space="preserve" font-family="Courier" font-size="16.0" fill="#000000" transform="matrix(1.00, 0.00, -0.00, -1.00, 59.6, 99.0)">o</text><text xml:space="preserve" font-family="Courier" font-size="16.0" fill="#000000" transform="matrix(1.00, 0.00, -0.00, -1.00, 69.2, 99.0)">n</text><text xml:space="preserve" font-family="Courier" font-size="16.0" fill="#000000" transform="matrix(1.00, 0.00, -0.00, -1.00, 78.8, 99.0)"> </text><text xml:space="preserve" font-family="Courier" font-size="16.0" fill="#000000" transform="matrix(1.00, 0.00, -0.00, -1.00, 88.4, 99.0)">m</text><text xml:space="preserve" font-family="Courier" font-size="16.0" fill="#000000" transform="matrix(1.00, 0.00, -0.00, -1.00, 98.0, 99.0)">a</text><text xml:space="preserve" font-family="Courier" font-size="16.0" fill="#000000" transform="matrix(1.00, 0.00, -0.00, -1.00, 107.6, 99.0)">k</text><text xml:space="preserve" font-family="Courier" font-size="16.0" fill="#000000" transform="matrix(1.00, 0.00, -0.00, -1.00, 117.2, 99.0)">e</text><text xml:space="preserve" font-family="Courier" font-size="16.0" fill="#000000" transform="matrix(1.00, 0.00, -0.00, -1.00, 126.8, 99.0)">M</text><text xml:space="preserve" font-family="Courier" font-size="16.0" fill="#000000" transform="matrix(1.00, 0.00, -0.00, -1.00, 136.4, 99.0)">s</text><text xml:space="preserve" font-family="Courier" font-size="16.0" fill="#000000" transform="matrix(1.00, 0.00, -0.00, -1.00, 146.0, 99.0)">g</text><text xml:space="preserve" font-family="Courier" font-size="16.0" fill="#000000" transform="matrix(1.00, 0.00, -0.00, -1.00, 155.7, 99.0)">(</text><text xml:space="preserve" font-family="Courier" font-size="16.0" fill="#000000" transform="matrix(1.00, 0.00, -0.00, -1.00, 165.3, 99.0)">m</text><text xml:space="preserve" font-family="Courier" font-size="16.0" fill="#000000" transform="matrix(1.00, 0.00, -0.00, -1.00, 174.9, 99.0)">s</text><text xml:space="preserve" font-family="Courier" font-size="16.0" fill="#000000" transform="matrix(1.00, 0.00, -0.00, -1.00, 184.5, 99.0)">g</text><text xml:space="preserve" font-family="Courier" font-size="16.0" fill="#000000" transform="matrix(1.00, 0.00, -0.00, -1.00, 194.1, 99.0)">,</text><text xml:space="preserve" font-family="Courier" font-size="16.0" fill="#000000" transform="matrix(1.00, 0.00, -0.00, -1.00, 203.7, 99.0)"> </text><text xml:space="preserve" font-family="Courier" font-size="16.0" fill="#000000" transform="matrix(1.00, 0.00, -0.00, -1.00, 213.3, 99.0)">n</text><text xml:space="preserve" font-family="Courier" font-size="16.0" fill="#000000" transform="matrix(1.00, 0.00, -0.00, -1.00, 222.9, 99.0)">o</text><text xml:space="preserve" font-family="Courier" font-size="16.0" fill="#000000" transform="matrix(1.00, 0.00, -0.00, -1.00, 232.5, 99.0)">t</text><text xml:space="preserve" font-family="Courier" font-size="16.0" fill="#000000" transform="matrix(1.00, 0.00, -0.00, -1.00, 242.1, 99.0)">e</text><text xml:space="preserve" font-family="Courier" font-size="16.0" fill="#000000" transform="matrix(1.00, 0.00, -0.00, -1.00, 251.7, 99.0)">,</text><text xml:space="preserve" font-family="Courier" font-size="16.0" fill="#000000" transform="matrix(1.00, 0.00, -0.00, -1.00, 261.3, 99.0)"> </text><text xml:space="preserve" font-family="Courier" font-size="16.0" fill="#000000" transform="matrix(1.00, 0.00, -0.00, -1.00, 270.9, 99.0)">d</text><text xml:space="preserve" font-family="Courier" font-size="16.0" fill="#000000" transform="matrix(1.00, 0.00, -0.00, -1.00, 280.5, 99.0)">1</text><text xml:space="preserve" font-family="Courier" font-size="16.0" fill="#000000" transform="matrix(1.00, 0.00, -0.00, -1.00, 290.1, 99.0)">,</text><text xml:space="preserve" font-family="Courier" font-size="16.0" fill="#000000" transform="matrix(1.00, 0.00, -0.00, -1.00, 299.7, 99.0)"> </text><text xml:space="preserve" font-family="Courier" font-size="16.0" fill="#000000" transform="matrix(1.00, 0.00, -0.00, -1.00, 309.3, 99.0)">d</text><text xml:space="preserve" font-family="Courier" font-size="16.0" fill="#000000" transform="matrix(1.00, 0.00, -0.00, -1.00, 318.9, 99.0)">2</text><text xml:space="preserve" font-family="Courier" font-size="16.0" fill="#000000" transform="matrix(1.00, 0.00, -0.00, -1.00, 328.5, 99.0)">,</text><text xml:space="preserve" font-family="Courier" font-size="16.0" fill="#000000" transform="matrix(1.00, 0.00, -0.00, -1.00, 338.1, 99.0)"> </text><text xml:space="preserve" font-family="Courier" font-size="16.0" fill="#000000" transform="matrix(1.00, 0.00, -0.00, -1.00, 347.7, 99.0)">t</text><text xml:space="preserve" font-family="Courier" font-size="16.0" fill="#000000" transform="matrix(1.00, 0.00, -0.00, -1.00, 357.3, 99.0)">e</text><text xml:space="preserve" font-family="Courier" font-size="16.0" fill="#000000" transform="matrix(1.00, 0.00, -0.00, -1.00, 366.9, 99.0)">m</text><text xml:space="preserve" font-family="Courier" font-size="16.0" fill="#000000" transform="matrix(1.00, 0.00, -0.00, -1.00, 376.5, 99.0)">p</text><text xml:space="preserve" font-family="Courier" font-size="16.0" fill="#000000" transform="matrix(1.00, 0.00, -0.00, -1.00, 386.1, 99.0)">o</text><text xml:space="preserve" font-family="Courier" font-size="16.0" fill="#000000" transform="matrix(1.00, 0.00, -0.00, -1.00, 395.7, 99.0)">)</text><text xml:space="preserve" font-family="Courier" font-size="16.0" fill="#000000" transform="matrix(1.00, 0.00, -0.00, -1.00, 405.3, 99.0)"> </text><text xml:space="preserve" font-family="Courier" font-size="16.0" fill="#000000" transform="matrix(1.00, 0.00, -0.00, -1.00, 414.9, 99.0)">{</text><text xml:space="preserve" font-family="Courier" font-size="16.0" fill="#000000" transform="matrix(1.00, 0.00, -0.00, -1.00, 38.0, 80.0)">m</text><text xml:space="preserve" font-family="Courier" font-size="16.0" fill="#000000" transform="matrix(1.00, 0.00, -0.00, -1.00, 47.6, 80.0)">s</text><text xml:space="preserve" font-family="Courier" font-size="16.0" fill="#000000" transform="matrix(1.00, 0.00, -0.00, -1.00, 57.2, 80.0)">g</text><text xml:space="preserve" font-family="Courier" font-size="16.0" fill="#000000" transform="matrix(1.00, 0.00, -0.00, -1.00, 66.8, 80.0)"> </text><text xml:space="preserve" font-family="Courier" font-size="16.0" fill="#000000" transform="matrix(1.00, 0.00, -0.00, -1.00, 76.4, 80.0)">=</text><text xml:space="preserve" font-family="Courier" font-size="16.0" fill="#000000" transform="matrix(1.00, 0.00, -0.00, -1.00, 86.0, 80.0)"> </text><text xml:space="preserve" font-family="Courier" font-size="16.0" fill="#000000" transform="matrix(1.00, 0.00, -0.00, -1.00, 95.6, 80.0)">m</text><text xml:space="preserve" font-family="Courier" font-size="16.0" fill="#000000" transform="matrix(1.00, 0.00, -0.00, -1.00, 105.2, 80.0)">s</text><text xml:space="preserve" font-family="Courier" font-size="16.0" fill="#000000" transform="matrix(1.00, 0.00, -0.00, -1.00, 114.8, 80.0)">g</text><text xml:space="preserve" font-family="Courier" font-size="16.0" fill="#000000" transform="matrix(1.00, 0.00, -0.00, -1.00, 124.4, 80.0)">.</text><text xml:space="preserve" font-family="Courier" font-size="16.0" fill="#000000" transform="matrix(1.00, 0.00, -0.00, -1.00, 134.0, 80.0)">r</text><text xml:space="preserve" font-family="Courier" font-size="16.0" fill="#000000" transform="matrix(1.00, 0.00, -0.00, -1.00, 143.6, 80.0)">e</text><text xml:space="preserve" font-family="Courier" font-size="16.0" fill="#000000" transform="matrix(1.00, 0.00, -0.00, -1.00, 153.2, 80.0)">p</text><text xml:space="preserve" font-family="Courier" font-size="16.0" fill="#000000" transform="matrix(1.00, 0.00, -0.00, -1.00, 162.8, 80.0)">l</text><text xml:space="preserve" font-family="Courier" font-size="16.0" fill="#000000" transform="matrix(1.00, 0.00, -0.00, -1.00, 172.4, 80.0)">a</text><text xml:space="preserve" font-family="Courier" font-size="16.0" fill="#000000" transform="matrix(1.00, 0.00, -0.00, -1.00, 182.0, 80.0)">c</text><text xml:space="preserve" font-family="Courier" font-size="16.0" fill="#000000" transform="matrix(1.00, 0.00, -0.00, -1.00, 191.7, 80.0)">e</text><text xml:space="preserve" font-family="Courier" font-size="16.0" fill="#000000" transform="matrix(1.00, 0.00, -0.00, -1.00, 201.3, 80.0)">(</text><text xml:space="preserve" font-family="Courier" font-size="16.0" fill="#000000" transform="matrix(1.00, 0.00, -0.00, -1.00, 210.9, 80.0)">"</text><text xml:space="preserve" font-family="Courier" font-size="16.0" fill="#C82505" transform="matrix(1.00, 0.00, -0.00, -1.00, 220.4, 80.0)">N</text><text xml:space="preserve" font-family="Courier" font-size="16.0" fill="#C82505" transform="matrix(1.00, 0.00, -0.00, -1.00, 230.0, 80.0)">O</text><text xml:space="preserve" font-family="Courier" font-size="16.0" fill="#C82505" transform="matrix(1.00, 0.00, -0.00, -1.00, 239.6, 80.0)">T</text><text xml:space="preserve" font-family="Courier" font-size="16.0" fill="#C82505" transform="matrix(1.00, 0.00, -0.00, -1.00, 249.2, 80.0)">E</text><text xml:space="preserve" font-family="Courier" font-size="16.0" fill="#000000" transform="matrix(1.00, 0.00, -0.00, -1.00, 258.8, 80.0)">"</text><text xml:space="preserve" font-family="Courier" font-size="16.0" fill="#000000" transform="matrix(1.00, 0.00, -0.00, -1.00, 268.4, 80.0)">,</text><text xml:space="preserve" font-family="Courier" font-size="16.0" fill="#000000" transform="matrix(1.00, 0.00, -0.00, -1.00, 278.0, 80.0)"> </text><text xml:space="preserve" font-family="Courier" font-size="16.0" fill="#000000" transform="matrix(1.00, 0.00, -0.00, -1.00, 287.6, 80.0)">n</text><text xml:space="preserve" font-family="Courier" font-size="16.0" fill="#000000" transform="matrix(1.00, 0.00, -0.00, -1.00, 297.2, 80.0)">o</text><text xml:space="preserve" font-family="Courier" font-size="16.0" fill="#000000" transform="matrix(1.00, 0.00, -0.00, -1.00, 306.9, 80.0)">t</text><text xml:space="preserve" font-family="Courier" font-size="16.0" fill="#000000" transform="matrix(1.00, 0.00, -0.00, -1.00, 316.5, 80.0)">e</text><text xml:space="preserve" font-family="Courier" font-size="16.0" fill="#000000" transform="matrix(1.00, 0.00, -0.00, -1.00, 326.1, 80.0)">)</text><text xml:space="preserve" font-family="Courier" font-size="16.0" fill="#000000" transform="matrix(1.00, 0.00, -0.00, -1.00, 335.7, 80.0)"> </text><text xml:space="preserve" font-family="Courier" font-size="16.0" fill="#000000" transform="matrix(1.00, 0.00, -0.00, -1.00, 345.3, 80.0)">;</text><text xml:space="preserve" font-family="Courier" font-size="16.0" fill="#000000" transform="matrix(1.00, 0.00, -0.00, -1.00, 38.0, 61.0)">m</text><text xml:space="preserve" font-family="Courier" font-size="16.0" fill="#000000" transform="matrix(1.00, 0.00, -0.00, -1.00, 47.6, 61.0)">s</text><text xml:space="preserve" font-family="Courier" font-size="16.0" fill="#000000" transform="matrix(1.00, 0.00, -0.00, -1.00, 57.2, 61.0)">g</text><text xml:space="preserve" font-family="Courier" font-size="16.0" fill="#000000" transform="matrix(1.00, 0.00, -0.00, -1.00, 66.8, 61.0)"> </text><text xml:space="preserve" font-family="Courier" font-size="16.0" fill="#000000" transform="matrix(1.00, 0.00, -0.00, -1.00, 76.4, 61.0)">=</text><text xml:space="preserve" font-family="Courier" font-size="16.0" fill="#000000" transform="matrix(1.00, 0.00, -0.00, -1.00, 86.0, 61.0)"> </text><text xml:space="preserve" font-family="Courier" font-size="16.0" fill="#000000" transform="matrix(1.00, 0.00, -0.00, -1.00, 95.6, 61.0)">m</text><text xml:space="preserve" font-family="Courier" font-size="16.0" fill="#000000" transform="matrix(1.00, 0.00, -0.00, -1.00, 105.2, 61.0)">s</text><text xml:space="preserve" font-family="Courier" font-size="16.0" fill="#000000" transform="matrix(1.00, 0.00, -0.00, -1.00, 114.8, 61.0)">g</text><text xml:space="preserve" font-family="Courier" font-size="16.0" fill="#000000" transform="matrix(1.00, 0.00, -0.00, -1.00, 124.4, 61.0)">.</text><text xml:space="preserve" font-family="Courier" font-size="16.0" fill="#000000" transform="matrix(1.00, 0.00, -0.00, -1.00, 134.0, 61.0)">r</text><text xml:space="preserve" font-family="Courier" font-size="16.0" fill="#000000" transform="matrix(1.00, 0.00, -0.00, -1.00, 143.6, 61.0)">e</text><text xml:space="preserve" font-family="Courier" font-size="16.0" fill="#000000" transform="matrix(1.00, 0.00, -0.00, -1.00, 153.2, 61.0)">p</text><text xml:space="preserve" font-family="Courier" font-size="16.0" fill="#000000" transform="matrix(1.00, 0.00, -0.00, -1.00, 162.8, 61.0)">l</text><text xml:space="preserve" font-family="Courier" font-size="16.0" fill="#000000" transform="matrix(1.00, 0.00, -0.00, -1.00, 172.4, 61.0)">a</text><text xml:space="preserve" font-family="Courier" font-size="16.0" fill="#000000" transform="matrix(1.00, 0.00, -0.00, -1.00, 182.0, 61.0)">c</text><text xml:space="preserve" font-family="Courier" font-size="16.0" fill="#000000" transform="matrix(1.00, 0.00, -0.00, -1.00, 191.7, 61.0)">e</text><text xml:space="preserve" font-family="Courier" font-size="16.0" fill="#000000" transform="matrix(1.00, 0.00, -0.00, -1.00, 201.3, 61.0)">(</text><text xml:space="preserve" font-family="Courier" font-size="16.0" fill="#000000" transform="matrix(1.00, 0.00, -0.00, -1.00, 210.9, 61.0)">"</text><text xml:space="preserve" font-family="Courier" font-size="16.0" fill="#C82505" transform="matrix(1.00, 0.00, -0.00, -1.00, 220.4, 61.0)">O</text><text xml:space="preserve" font-family="Courier" font-size="16.0" fill="#C82505" transform="matrix(1.00, 0.00, -0.00, -1.00, 230.0, 61.0)">L</text><text xml:space="preserve" font-family="Courier" font-size="16.0" fill="#C82505" transform="matrix(1.00, 0.00, -0.00, -1.00, 239.6, 61.0)">D</text><text xml:space="preserve" font-family="Courier" font-size="16.0" fill="#C82505" transform="matrix(1.00, 0.00, -0.00, -1.00, 249.2, 61.0)">D</text><text xml:space="preserve" font-family="Courier" font-size="16.0" fill="#C82505" transform="matrix(1.00, 0.00, -0.00, -1.00, 258.8, 61.0)">U</text><text xml:space="preserve" font-family="Courier" font-size="16.0" fill="#C82505" transform="matrix(1.00, 0.00, -0.00, -1.00, 268.4, 61.0)">R</text><text xml:space="preserve" font-family="Courier" font-size="16.0" fill="#000000" transform="matrix(1.00, 0.00, -0.00, -1.00, 278.0, 61.0)">"</text><text xml:space="preserve" font-family="Courier" font-size="16.0" fill="#000000" transform="matrix(1.00, 0.00, -0.00, -1.00, 287.6, 61.0)">,</text><text xml:space="preserve" font-family="Courier" font-size="16.0" fill="#000000" transform="matrix(1.00, 0.00, -0.00, -1.00, 297.2, 61.0)"> </text><text xml:space="preserve" font-family="Courier" font-size="16.0" fill="#000000" transform="matrix(1.00, 0.00, -0.00, -1.00, 306.8, 61.0)">d</text><text xml:space="preserve" font-family="Courier" font-size="16.0" fill="#000000" transform="matrix(1.00, 0.00, -0.00, -1.00, 316.5, 61.0)">1</text><text xml:space="preserve" font-family="Courier" font-size="16.0" fill="#000000" transform="matrix(1.00, 0.00, -0.00, -1.00, 326.0, 61.0)">)</text><text xml:space="preserve" font-family="Courier" font-size="16.0" fill="#000000" transform="matrix(1.00, 0.00, -0.00, -1.00, 335.7, 61.0)"> </text><text xml:space="preserve" font-family="Courier" font-size="16.0" fill="#000000" transform="matrix(1.00, 0.00, -0.00, -1.00, 345.3, 61.0)">;</text><text xml:space="preserve" font-family="Courier" font-size="16.0" fill="#000000" transform="matrix(1.00, 0.00, -0.00, -1.00, 38.0, 42.0)">m</text><text xml:space="preserve" font-family="Courier" font-size="16.0" fill="#000000" transform="matrix(1.00, 0.00, -0.00, -1.00, 47.6, 42.0)">s</text><text xml:space="preserve" font-family="Courier" font-size="16.0" fill="#000000" transform="matrix(1.00, 0.00, -0.00, -1.00, 57.2, 42.0)">g</text><text xml:space="preserve" font-family="Courier" font-size="16.0" fill="#000000" transform="matrix(1.00, 0.00, -0.00, -1.00, 66.8, 42.0)"> </text><text xml:space="preserve" font-family="Courier" font-size="16.0" fill="#000000" transform="matrix(1.00, 0.00, -0.00, -1.00, 76.4, 42.0)">=</text><text xml:space="preserve" font-family="Courier" font-size="16.0" fill="#000000" transform="matrix(1.00, 0.00, -0.00, -1.00, 86.0, 42.0)"> </text><text xml:space="preserve" font-family="Courier" font-size="16.0" fill="#000000" transform="matrix(1.00, 0.00, -0.00, -1.00, 95.6, 42.0)">m</text><text xml:space="preserve" font-family="Courier" font-size="16.0" fill="#000000" transform="matrix(1.00, 0.00, -0.00, -1.00, 105.2, 42.0)">s</text><text xml:space="preserve" font-family="Courier" font-size="16.0" fill="#000000" transform="matrix(1.00, 0.00, -0.00, -1.00, 114.8, 42.0)">g</text><text xml:space="preserve" font-family="Courier" font-size="16.0" fill="#000000" transform="matrix(1.00, 0.00, -0.00, -1.00, 124.4, 42.0)">.</text><text xml:space="preserve" font-family="Courier" font-size="16.0" fill="#000000" transform="matrix(1.00, 0.00, -0.00, -1.00, 134.0, 42.0)">r</text><text xml:space="preserve" font-family="Courier" font-size="16.0" fill="#000000" transform="matrix(1.00, 0.00, -0.00, -1.00, 143.6, 42.0)">e</text><text xml:space="preserve" font-family="Courier" font-size="16.0" fill="#000000" transform="matrix(1.00, 0.00, -0.00, -1.00, 153.2, 42.0)">p</text><text xml:space="preserve" font-family="Courier" font-size="16.0" fill="#000000" transform="matrix(1.00, 0.00, -0.00, -1.00, 162.8, 42.0)">l</text><text xml:space="preserve" font-family="Courier" font-size="16.0" fill="#000000" transform="matrix(1.00, 0.00, -0.00, -1.00, 172.4, 42.0)">a</text><text xml:space="preserve" font-family="Courier" font-size="16.0" fill="#000000" transform="matrix(1.00, 0.00, -0.00, -1.00, 182.0, 42.0)">c</text><text xml:space="preserve" font-family="Courier" font-size="16.0" fill="#000000" transform="matrix(1.00, 0.00, -0.00, -1.00, 191.7, 42.0)">e</text><text xml:space="preserve" font-family="Courier" font-size="16.0" fill="#000000" transform="matrix(1.00, 0.00, -0.00, -1.00, 201.3, 42.0)">(</text><text xml:space="preserve" font-family="Courier" font-size="16.0" fill="#000000" transform="matrix(1.00, 0.00, -0.00, -1.00, 210.9, 42.0)">“</text><text xml:space="preserve" font-family="Courier" font-size="16.0" fill="#C82505" transform="matrix(1.00, 0.00, -0.00, -1.00, 220.4, 42.0)">N</text><text xml:space="preserve" font-family="Courier" font-size="16.0" fill="#C82505" transform="matrix(1.00, 0.00, -0.00, -1.00, 230.0, 42.0)">E</text><text xml:space="preserve" font-family="Courier" font-size="16.0" fill="#C82505" transform="matrix(1.00, 0.00, -0.00, -1.00, 239.6, 42.0)">W</text><text xml:space="preserve" font-family="Courier" font-size="16.0" fill="#C82505" transform="matrix(1.00, 0.00, -0.00, -1.00, 249.2, 42.0)">D</text><text xml:space="preserve" font-family="Courier" font-size="16.0" fill="#C82505" transform="matrix(1.00, 0.00, -0.00, -1.00, 258.8, 42.0)">U</text><text xml:space="preserve" font-family="Courier" font-size="16.0" fill="#C82505" transform="matrix(1.00, 0.00, -0.00, -1.00, 268.4, 42.0)">R</text><text xml:space="preserve" font-family="Courier" font-size="16.0" fill="#000000" transform="matrix(1.00, 0.00, -0.00, -1.00, 278.0, 42.0)">”</text><text xml:space="preserve" font-family="Courier" font-size="16.0" fill="#000000" transform="matrix(1.00, 0.00, -0.00, -1.00, 287.6, 42.0)">,</text><text xml:space="preserve" font-family="Courier" font-size="16.0" fill="#000000" transform="matrix(1.00, 0.00, -0.00, -1.00, 297.2, 42.0)"> </text><text xml:space="preserve" font-family="Courier" font-size="16.0" fill="#000000" transform="matrix(1.00, 0.00, -0.00, -1.00, 306.8, 42.0)">d</text><text xml:space="preserve" font-family="Courier" font-size="16.0" fill="#000000" transform="matrix(1.00, 0.00, -0.00, -1.00, 316.5, 42.0)">2</text><text xml:space="preserve" font-family="Courier" font-size="16.0" fill="#000000" transform="matrix(1.00, 0.00, -0.00, -1.00, 326.0, 42.0)">)</text><text xml:space="preserve" font-family="Courier" font-size="16.0" fill="#000000" transform="matrix(1.00, 0.00, -0.00, -1.00, 335.7, 42.0)"> </text><text xml:space="preserve" font-family="Courier" font-size="16.0" fill="#000000" transform="matrix(1.00, 0.00, -0.00, -1.00, 345.3, 42.0)">;</text><text xml:space="preserve" font-family="Courier" font-size="16.0" fill="#000000" transform="matrix(1.00, 0.00, -0.00, -1.00, 38.0, 23.0)">r</text><text xml:space="preserve" font-family="Courier" font-size="16.0" fill="#000000" transform="matrix(1.00, 0.00, -0.00, -1.00, 47.6, 23.0)">e</text><text xml:space="preserve" font-family="Courier" font-size="16.0" fill="#000000" transform="matrix(1.00, 0.00, -0.00, -1.00, 57.2, 23.0)">t</text><text xml:space="preserve" font-family="Courier" font-size="16.0" fill="#000000" transform="matrix(1.00, 0.00, -0.00, -1.00, 66.8, 23.0)">u</text><text xml:space="preserve" font-family="Courier" font-size="16.0" fill="#000000" transform="matrix(1.00, 0.00, -0.00, -1.00, 76.4, 23.0)">r</text><text xml:space="preserve" font-family="Courier" font-size="16.0" fill="#000000" transform="matrix(1.00, 0.00, -0.00, -1.00, 86.0, 23.0)">n</text><text xml:space="preserve" font-family="Courier" font-size="16.0" fill="#000000" transform="matrix(1.00, 0.00, -0.00, -1.00, 95.6, 23.0)"> </text><text xml:space="preserve" font-family="Courier" font-size="16.0" fill="#000000" transform="matrix(1.00, 0.00, -0.00, -1.00, 105.2, 23.0)">m</text><text xml:space="preserve" font-family="Courier" font-size="16.0" fill="#000000" transform="matrix(1.00, 0.00, -0.00, -1.00, 114.8, 23.0)">s</text><text xml:space="preserve" font-family="Courier" font-size="16.0" fill="#000000" transform="matrix(1.00, 0.00, -0.00, -1.00, 124.4, 23.0)">g</text><text xml:space="preserve" font-family="Courier" font-size="16.0" fill="#000000" transform="matrix(1.00, 0.00, -0.00, -1.00, 134.0, 23.0)">.</text><text xml:space="preserve" font-family="Courier" font-size="16.0" fill="#000000" transform="matrix(1.00, 0.00, -0.00, -1.00, 143.6, 23.0)">r</text><text xml:space="preserve" font-family="Courier" font-size="16.0" fill="#000000" transform="matrix(1.00, 0.00, -0.00, -1.00, 153.2, 23.0)">e</text><text xml:space="preserve" font-family="Courier" font-size="16.0" fill="#000000" transform="matrix(1.00, 0.00, -0.00, -1.00, 162.8, 23.0)">p</text><text xml:space="preserve" font-family="Courier" font-size="16.0" fill="#000000" transform="matrix(1.00, 0.00, -0.00, -1.00, 172.4, 23.0)">l</text><text xml:space="preserve" font-family="Courier" font-size="16.0" fill="#000000" transform="matrix(1.00, 0.00, -0.00, -1.00, 182.0, 23.0)">a</text><text xml:space="preserve" font-family="Courier" font-size="16.0" fill="#000000" transform="matrix(1.00, 0.00, -0.00, -1.00, 191.7, 23.0)">c</text><text xml:space="preserve" font-family="Courier" font-size="16.0" fill="#000000" transform="matrix(1.00, 0.00, -0.00, -1.00, 201.3, 23.0)">e</text><text xml:space="preserve" font-family="Courier" font-size="16.0" fill="#000000" transform="matrix(1.00, 0.00, -0.00, -1.00, 210.9, 23.0)">(</text><text xml:space="preserve" font-family="Courier" font-size="16.0" fill="#000000" transform="matrix(1.00, 0.00, -0.00, -1.00, 220.5, 23.0)">“</text><text xml:space="preserve" font-family="Courier" font-size="16.0" fill="#C82505" transform="matrix(1.00, 0.00, -0.00, -1.00, 230.0, 23.0)">T</text><text xml:space="preserve" font-family="Courier" font-size="16.0" fill="#C82505" transform="matrix(1.00, 0.00, -0.00, -1.00, 239.6, 23.0)">E</text><text xml:space="preserve" font-family="Courier" font-size="16.0" fill="#C82505" transform="matrix(1.00, 0.00, -0.00, -1.00, 249.2, 23.0)">M</text><text xml:space="preserve" font-family="Courier" font-size="16.0" fill="#C82505" transform="matrix(1.00, 0.00, -0.00, -1.00, 258.8, 23.0)">P</text><text xml:space="preserve" font-family="Courier" font-size="16.0" fill="#C82505" transform="matrix(1.00, 0.00, -0.00, -1.00, 268.4, 23.0)">O</text><text xml:space="preserve" font-family="Courier" font-size="16.0" fill="#000000" transform="matrix(1.00, 0.00, -0.00, -1.00, 278.0, 23.0)">“</text><text xml:space="preserve" font-family="Courier" font-size="16.0" fill="#000000" transform="matrix(1.00, 0.00, -0.00, -1.00, 287.6, 23.0)">,</text><text xml:space="preserve" font-family="Courier" font-size="16.0" fill="#000000" transform="matrix(1.00, 0.00, -0.00, -1.00, 297.2, 23.0)"> </text><text xml:space="preserve" font-family="Courier" font-size="16.0" fill="#000000" transform="matrix(1.00, 0.00, -0.00, -1.00, 306.8, 23.0)">t</text><text xml:space="preserve" font-family="Courier" font-size="16.0" fill="#000000" transform="matrix(1.00, 0.00, -0.00, -1.00, 316.5, 23.0)">e</text><text xml:space="preserve" font-family="Courier" font-size="16.0" fill="#000000" transform="matrix(1.00, 0.00, -0.00, -1.00, 326.1, 23.0)">m</text><text xml:space="preserve" font-family="Courier" font-size="16.0" fill="#000000" transform="matrix(1.00, 0.00, -0.00, -1.00, 335.7, 23.0)">p</text><text xml:space="preserve" font-family="Courier" font-size="16.0" fill="#000000" transform="matrix(1.00, 0.00, -0.00, -1.00, 345.3, 23.0)">o</text><text xml:space="preserve" font-family="Courier" font-size="16.0" fill="#000000" transform="matrix(1.00, 0.00, -0.00, -1.00, 354.9, 23.0)">)</text><text xml:space="preserve" font-family="Courier" font-size="16.0" fill="#000000" transform="matrix(1.00, 0.00, -0.00, -1.00, 364.5, 23.0)"> </text><text xml:space="preserve" font-family="Courier" font-size="16.0" fill="#000000" transform="matrix(1.00, 0.00, -0.00, -1.00, 374.1, 23.0)">;</text><text xml:space="preserve" font-family="Courier" font-size="16.0" fill="#000000" transform="matrix(1.00, 0.00, -0.00, -1.00, 2.0, 4.0)">}</text></g></svg>