<?xml version="1.0" encoding="UTF-8" standalone="no"?><svg xmlns="http://www.w3.org/2000/svg" xmlns:xlink="http://www.w3.org/1999/xlink" clip-rule="evenodd" stroke-miterlimit="4.00" viewBox="0 0 374 32"><desc>SVG generated by Keynote</desc><defs></defs><g transform="matrix(1.00, 0.00, -0.00, -1.00, 0.0, 32.0)"><text xml:space="preserve" font-family="Avenir-Black" font-weight="bold" font-size="28.3" fill="#FEFFFF" transform="matrix(1.00, 0.00, -0.00, -1.00, -1.0, 9.0)">M</text><text xml:space="preserve" font-family="Avenir-Black" font-weight="bold" font-size="28.3" fill="#FEFFFF" transform="matrix(1.00, 0.00, -0.00, -1.00, 25.7, 9.0)">O</text><text xml:space="preserve" font-family="Avenir-Black" font-weight="bold" font-size="28.3" fill="#FEFFFF" transform="matrix(1.00, 0.00, -0.00, -1.00, 49.3, 9.0)"> </text><text xml:space="preserve" font-family="Avenir-Black" font-weight="bold" font-size="28.3" fill="#FEFFFF" transform="matrix(1.00, 0.00, -0.00, -1.00, 57.7, 9.0)">-</text><text xml:space="preserve" font-family="Avenir-Black" font-weight="bold" font-size="28.3" fill="#FEFFFF" transform="matrix(1.00, 0.00, -0.00, -1.00, 66.1, 9.0)"> </text><text xml:space="preserve" font-family="Avenir-Medium" font-size="28.3" fill="#FEFFFF" transform="matrix(1.00, 0.00, -0.00, -1.00, 74.4, 9.0)">M</text><text xml:space="preserve" font-family="Avenir-Medium" font-size="28.3" fill="#FEFFFF" transform="matrix(1.00, 0.00, -0.00, -1.00, 100.1, 9.0)">o</text><text xml:space="preserve" font-family="Avenir-Medium" font-size="28.3" fill="#FEFFFF" transform="matrix(1.00, 0.00, -0.00, -1.00, 116.9, 9.0)">d</text><text xml:space="preserve" font-family="Avenir-Medium" font-size="28.3" fill="#FEFFFF" transform="matrix(1.00, 0.00, -0.00, -1.00, 134.2, 9.0)">u</text><text xml:space="preserve" font-family="Avenir-Medium" font-size="28.3" fill="#FEFFFF" transform="matrix(1.00, 0.00, -0.00, -1.00, 150.0, 9.0)">l</text><text xml:space="preserve" font-family="Avenir-Medium" font-size="28.3" fill="#FEFFFF" transform="matrix(1.00, 0.00, -0.00, -1.00, 156.8, 9.0)">a</text><text xml:space="preserve" font-family="Avenir-Medium" font-size="28.3" fill="#FEFFFF" transform="matrix(1.00, 0.00, -0.00, -1.00, 171.5, 9.0)">r</text><text xml:space="preserve" font-family="Avenir-Medium" font-size="28.3" fill="#FEFFFF" transform="matrix(1.00, 0.00, -0.00, -1.00, 181.9, 9.0)"> </text><text xml:space="preserve" font-family="Avenir-Medium" font-size="28.3" fill="#FEFFFF" transform="matrix(1.00, 0.00, -0.00, -1.00, 189.8, 9.0)">M</text><text xml:space="preserve" font-family="Avenir-Medium" font-size="28.3" fill="#FEFFFF" transform="matrix(1.00, 0.00, -0.00, -1.00, 215.5, 9.0)">u</text><text xml:space="preserve" font-family="Avenir-Medium" font-size="28.3" fill="#FEFFFF" transform="matrix(1.00, 0.00, -0.00, -1.00, 231.2, 9.0)">s</text><text xml:space="preserve" font-family="Avenir-Medium" font-size="28.3" fill="#FEFFFF" transform="matrix(1.00, 0.00, -0.00, -1.00, 243.8, 9.0)">i</text><text xml:space="preserve" font-family="Avenir-Medium" font-size="28.3" fill="#FEFFFF" transform="matrix(1.00, 0.00, -0.00, -1.00, 250.6, 9.0)">c</text><text xml:space="preserve" font-family="Avenir-Medium" font-size="28.3" fill="#FEFFFF" transform="matrix(1.00, 0.00, -0.00, -1.00, 264.2, 9.0)"> </text><text xml:space="preserve" font-family="Avenir-Medium" font-size="28.3" fill="#FEFFFF" transform="matrix(1.00, 0.00, -0.00, -1.00, 272.1, 9.0)">O</text><text xml:space="preserve" font-family="Avenir-Medium" font-size="28.3" fill="#FEFFFF" transform="matrix(1.00, 0.00, -0.00, -1.00, 295.7, 9.0)">b</text><text xml:space="preserve" font-family="Avenir-Medium" font-size="28.3" fill="#FEFFFF" transform="matrix(1.00, 0.00, -0.00, -1.00, 313.0, 9.0)">j</text><text xml:space="preserve" font-family="Avenir-Medium" font-size="28.3" fill="#FEFFFF" transform="matrix(1.00, 0.00, -0.00, -1.00, 319.8, 9.0)">e</text><text xml:space="preserve" font-family="Avenir-Medium" font-size="28.3" fill="#FEFFFF" transform="matrix(1.00, 0.00, -0.00, -1.00, 335.5, 9.0)">c</text><text xml:space="preserve" font-family="Avenir-Medium" font-size="28.3" fill="#FEFFFF" transform="matrix(1.00, 0.00, -0.00, -1.00, 349.2, 9.0)">t</text><text xml:space="preserve" font-family="Avenir-Medium" font-size="28.3" fill="#FEFFFF" transform="matrix(1.00, 0.00, -0.00, -1.00, 359.7, 9.0)">s</text></g></svg>