<?xml version="1.0" encoding="UTF-8" standalone="no"?><svg xmlns="http://www.w3.org/2000/svg" xmlns:xlink="http://www.w3.org/1999/xlink" clip-rule="evenodd" stroke-miterlimit="4.00" viewBox="0 0 465 32"><desc>SVG generated by Keynote</desc><defs></defs><g transform="matrix(1.00, 0.00, -0.00, -1.00, 0.0, 32.0)"><text xml:space="preserve" font-family="Avenir-Black" font-weight="bold" font-size="28.3" fill="#FEFFFF" transform="matrix(1.00, 0.00, -0.00, -1.00, -1.0, 9.0)">L</text><text xml:space="preserve" font-family="Avenir-Black" font-weight="bold" font-size="28.3" fill="#FEFFFF" transform="matrix(1.00, 0.00, -0.00, -1.00, 14.2, 9.0)">i</text><text xml:space="preserve" font-family="Avenir-Black" font-weight="bold" font-size="28.3" fill="#FEFFFF" transform="matrix(1.00, 0.00, -0.00, -1.00, 21.6, 9.0)">g</text><text xml:space="preserve" font-family="Avenir-Black" font-weight="bold" font-size="28.3" fill="#FEFFFF" transform="matrix(1.00, 0.00, -0.00, -1.00, 39.4, 9.0)">h</text><text xml:space="preserve" font-family="Avenir-Black" font-weight="bold" font-size="28.3" fill="#FEFFFF" transform="matrix(1.00, 0.00, -0.00, -1.00, 55.7, 9.0)">t</text><text xml:space="preserve" font-family="Avenir-Black" font-weight="bold" font-size="28.3" fill="#FEFFFF" transform="matrix(1.00, 0.00, -0.00, -1.00, 67.2, 9.0)"> </text><text xml:space="preserve" font-family="Avenir-Black" font-weight="bold" font-size="28.3" fill="#FEFFFF" transform="matrix(1.00, 0.00, -0.00, -1.00, 75.6, 9.0)">M</text><text xml:space="preserve" font-family="Avenir-Black" font-weight="bold" font-size="28.3" fill="#FEFFFF" transform="matrix(1.00, 0.00, -0.00, -1.00, 102.3, 9.0)">u</text><text xml:space="preserve" font-family="Avenir-Black" font-weight="bold" font-size="28.3" fill="#FEFFFF" transform="matrix(1.00, 0.00, -0.00, -1.00, 118.6, 9.0)">s</text><text xml:space="preserve" font-family="Avenir-Black" font-weight="bold" font-size="28.3" fill="#FEFFFF" transform="matrix(1.00, 0.00, -0.00, -1.00, 131.7, 9.0)">i</text><text xml:space="preserve" font-family="Avenir-Black" font-weight="bold" font-size="28.3" fill="#FEFFFF" transform="matrix(1.00, 0.00, -0.00, -1.00, 139.0, 9.0)">c</text><text xml:space="preserve" font-family="Avenir-Black" font-weight="bold" font-size="28.3" fill="#FEFFFF" transform="matrix(1.00, 0.00, -0.00, -1.00, 152.7, 9.0)"> </text><text xml:space="preserve" font-family="Avenir-Black" font-weight="bold" font-size="28.3" fill="#FEFFFF" transform="matrix(1.00, 0.00, -0.00, -1.00, 161.1, 9.0)">-</text><text xml:space="preserve" font-family="Avenir-Black" font-weight="bold" font-size="28.3" fill="#FEFFFF" transform="matrix(1.00, 0.00, -0.00, -1.00, 169.5, 9.0)"> </text><text xml:space="preserve" font-family="Avenir-Medium" font-size="28.3" fill="#FEFFFF" transform="matrix(1.00, 0.00, -0.00, -1.00, 177.8, 9.0)">T</text><text xml:space="preserve" font-family="Avenir-Medium" font-size="28.3" fill="#FEFFFF" transform="matrix(1.00, 0.00, -0.00, -1.00, 194.1, 9.0)">h</text><text xml:space="preserve" font-family="Avenir-Medium" font-size="28.3" fill="#FEFFFF" transform="matrix(1.00, 0.00, -0.00, -1.00, 209.8, 9.0)">i</text><text xml:space="preserve" font-family="Avenir-Medium" font-size="28.3" fill="#FEFFFF" transform="matrix(1.00, 0.00, -0.00, -1.00, 216.6, 9.0)">e</text><text xml:space="preserve" font-family="Avenir-Medium" font-size="28.3" fill="#FEFFFF" transform="matrix(1.00, 0.00, -0.00, -1.00, 232.4, 9.0)">r</text><text xml:space="preserve" font-family="Avenir-Medium" font-size="28.3" fill="#FEFFFF" transform="matrix(1.00, 0.00, -0.00, -1.00, 242.9, 9.0)">r</text><text xml:space="preserve" font-family="Avenir-Medium" font-size="28.3" fill="#FEFFFF" transform="matrix(1.00, 0.00, -0.00, -1.00, 253.3, 9.0)">y</text><text xml:space="preserve" font-family="Avenir-Medium" font-size="28.3" fill="#FEFFFF" transform="matrix(1.00, 0.00, -0.00, -1.00, 267.5, 9.0)"> </text><text xml:space="preserve" font-family="Avenir-Medium" font-size="28.3" fill="#FEFFFF" transform="matrix(1.00, 0.00, -0.00, -1.00, 275.4, 9.0)">D</text><text xml:space="preserve" font-family="Avenir-Medium" font-size="28.3" fill="#FEFFFF" transform="matrix(1.00, 0.00, -0.00, -1.00, 296.4, 9.0)">e</text><text xml:space="preserve" font-family="Avenir-Medium" font-size="28.3" fill="#FEFFFF" transform="matrix(1.00, 0.00, -0.00, -1.00, 312.1, 9.0)"> </text><text xml:space="preserve" font-family="Avenir-Medium" font-size="28.3" fill="#FEFFFF" transform="matrix(1.00, 0.00, -0.00, -1.00, 320.0, 9.0)">M</text><text xml:space="preserve" font-family="Avenir-Medium" font-size="28.3" fill="#FEFFFF" transform="matrix(1.00, 0.00, -0.00, -1.00, 345.6, 9.0)">e</text><text xml:space="preserve" font-family="Avenir-Medium" font-size="28.3" fill="#FEFFFF" transform="matrix(1.00, 0.00, -0.00, -1.00, 361.4, 9.0)">y</text><text xml:space="preserve" font-family="Avenir-Medium" font-size="28.3" fill="#FEFFFF" transform="matrix(1.00, 0.00, -0.00, -1.00, 375.5, 9.0)"> </text><text xml:space="preserve" font-family="Avenir-Medium" font-size="28.3" fill="#FEFFFF" transform="matrix(1.00, 0.00, -0.00, -1.00, 383.4, 9.0)">-</text><text xml:space="preserve" font-family="Avenir-Medium" font-size="28.3" fill="#FEFFFF" transform="matrix(1.00, 0.00, -0.00, -1.00, 392.4, 9.0)"> </text><text xml:space="preserve" font-family="Avenir-Medium" font-size="28.3" fill="#FEFFFF" transform="matrix(1.00, 0.00, -0.00, -1.00, 400.2, 9.0)">2</text><text xml:space="preserve" font-family="Avenir-Medium" font-size="28.3" fill="#FEFFFF" transform="matrix(1.00, 0.00, -0.00, -1.00, 416.0, 9.0)">0</text><text xml:space="preserve" font-family="Avenir-Medium" font-size="28.3" fill="#FEFFFF" transform="matrix(1.00, 0.00, -0.00, -1.00, 431.7, 9.0)">0</text><text xml:space="preserve" font-family="Avenir-Medium" font-size="28.3" fill="#FEFFFF" transform="matrix(1.00, 0.00, -0.00, -1.00, 447.5, 9.0)">4</text></g></svg>