<?xml version="1.0" encoding="UTF-8" standalone="no"?><svg xmlns="http://www.w3.org/2000/svg" xmlns:xlink="http://www.w3.org/1999/xlink" clip-rule="evenodd" stroke-miterlimit="4.00" viewBox="0 0 771 39"><desc>SVG generated by Keynote</desc><defs></defs><g transform="matrix(1.00, 0.00, -0.00, -1.00, 0.0, 39.0)"><text xml:space="preserve" font-family="Avenir-Book" font-size="33.0" fill="#FEFFFE" transform="matrix(1.00, 0.00, -0.00, -1.00, 1.0, 12.0)">A</text><text xml:space="preserve" font-family="Avenir-Book" font-size="33.0" fill="#FEFFFE" transform="matrix(1.00, 0.00, -0.00, -1.00, 23.6, 12.0)">p</text><text xml:space="preserve" font-family="Avenir-Book" font-size="33.0" fill="#FEFFFE" transform="matrix(1.00, 0.00, -0.00, -1.00, 43.8, 12.0)">p</text><text xml:space="preserve" font-family="Avenir-Book" font-size="33.0" fill="#FEFFFE" transform="matrix(1.00, 0.00, -0.00, -1.00, 64.0, 12.0)">r</text><text xml:space="preserve" font-family="Avenir-Book" font-size="33.0" fill="#FEFFFE" transform="matrix(1.00, 0.00, -0.00, -1.00, 74.3, 12.0)">o</text><text xml:space="preserve" font-family="Avenir-Book" font-size="33.0" fill="#FEFFFE" transform="matrix(1.00, 0.00, -0.00, -1.00, 93.9, 12.0)">a</text><text xml:space="preserve" font-family="Avenir-Book" font-size="33.0" fill="#FEFFFE" transform="matrix(1.00, 0.00, -0.00, -1.00, 111.0, 12.0)">c</text><text xml:space="preserve" font-family="Avenir-Book" font-size="33.0" fill="#FEFFFE" transform="matrix(1.00, 0.00, -0.00, -1.00, 126.9, 12.0)">h</text><text xml:space="preserve" font-family="Avenir-Book" font-size="33.0" fill="#FEFFFE" transform="matrix(1.00, 0.00, -0.00, -1.00, 145.3, 12.0)"> </text><text xml:space="preserve" font-family="Avenir-Book" font-size="33.0" fill="#FEFFFE" transform="matrix(1.00, 0.00, -0.00, -1.00, 154.5, 12.0)">t</text><text xml:space="preserve" font-family="Avenir-Book" font-size="33.0" fill="#FEFFFE" transform="matrix(1.00, 0.00, -0.00, -1.00, 165.4, 12.0)">h</text><text xml:space="preserve" font-family="Avenir-Book" font-size="33.0" fill="#FEFFFE" transform="matrix(1.00, 0.00, -0.00, -1.00, 183.8, 12.0)">e</text><text xml:space="preserve" font-family="Avenir-Book" font-size="33.0" fill="#FEFFFE" transform="matrix(1.00, 0.00, -0.00, -1.00, 202.1, 12.0)"> </text><text xml:space="preserve" font-family="Avenir-Book" font-size="33.0" fill="#FEFFFE" transform="matrix(1.00, 0.00, -0.00, -1.00, 211.3, 12.0)">g</text><text xml:space="preserve" font-family="Avenir-Book" font-size="33.0" fill="#FEFFFE" transform="matrix(1.00, 0.00, -0.00, -1.00, 231.4, 12.0)">r</text><text xml:space="preserve" font-family="Avenir-Book" font-size="33.0" fill="#FEFFFE" transform="matrix(1.00, 0.00, -0.00, -1.00, 242.4, 12.0)">a</text><text xml:space="preserve" font-family="Avenir-Book" font-size="33.0" fill="#FEFFFE" transform="matrix(1.00, 0.00, -0.00, -1.00, 259.5, 12.0)">p</text><text xml:space="preserve" font-family="Avenir-Book" font-size="33.0" fill="#FEFFFE" transform="matrix(1.00, 0.00, -0.00, -1.00, 279.7, 12.0)">h</text><text xml:space="preserve" font-family="Avenir-Book" font-size="33.0" fill="#FEFFFE" transform="matrix(1.00, 0.00, -0.00, -1.00, 298.0, 12.0)">i</text><text xml:space="preserve" font-family="Avenir-Book" font-size="33.0" fill="#FEFFFE" transform="matrix(1.00, 0.00, -0.00, -1.00, 306.0, 12.0)">c</text><text xml:space="preserve" font-family="Avenir-Book" font-size="33.0" fill="#FEFFFE" transform="matrix(1.00, 0.00, -0.00, -1.00, 321.9, 12.0)"> </text><text xml:space="preserve" font-family="Avenir-Book" font-size="33.0" fill="#FEFFFE" transform="matrix(1.00, 0.00, -0.00, -1.00, 331.0, 12.0)">o</text><text xml:space="preserve" font-family="Avenir-Book" font-size="33.0" fill="#FEFFFE" transform="matrix(1.00, 0.00, -0.00, -1.00, 350.6, 12.0)">f</text><text xml:space="preserve" font-family="Avenir-Book" font-size="33.0" fill="#FEFFFE" transform="matrix(1.00, 0.00, -0.00, -1.00, 360.4, 12.0)"> </text><text xml:space="preserve" font-family="Avenir-Book" font-size="33.0" fill="#FEFFFE" transform="matrix(1.00, 0.00, -0.00, -1.00, 369.5, 12.0)">a</text><text xml:space="preserve" font-family="Avenir-Book" font-size="33.0" fill="#FEFFFE" transform="matrix(1.00, 0.00, -0.00, -1.00, 386.7, 12.0)"> </text><text xml:space="preserve" font-family="Avenir-Book" font-size="33.0" fill="#FEFFFE" transform="matrix(1.00, 0.00, -0.00, -1.00, 395.8, 12.0)">s</text><text xml:space="preserve" font-family="Avenir-Book" font-size="33.0" fill="#FEFFFE" transform="matrix(1.00, 0.00, -0.00, -1.00, 409.9, 12.0)">i</text><text xml:space="preserve" font-family="Avenir-Book" font-size="33.0" fill="#FEFFFE" transform="matrix(1.00, 0.00, -0.00, -1.00, 417.8, 12.0)">g</text><text xml:space="preserve" font-family="Avenir-Book" font-size="33.0" fill="#FEFFFE" transform="matrix(1.00, 0.00, -0.00, -1.00, 438.0, 12.0)">n</text><text xml:space="preserve" font-family="Avenir-Book" font-size="33.0" fill="#FEFFFE" transform="matrix(1.00, 0.00, -0.00, -1.00, 456.3, 12.0)">a</text><text xml:space="preserve" font-family="Avenir-Book" font-size="33.0" fill="#FEFFFE" transform="matrix(1.00, 0.00, -0.00, -1.00, 473.5, 12.0)">l</text><text xml:space="preserve" font-family="Avenir-Book" font-size="33.0" fill="#FEFFFE" transform="matrix(1.00, 0.00, -0.00, -1.00, 481.4, 12.0)"> </text><text xml:space="preserve" font-family="Avenir-Book" font-size="33.0" fill="#FEFFFE" transform="matrix(1.00, 0.00, -0.00, -1.00, 490.6, 12.0)">a</text><text xml:space="preserve" font-family="Avenir-Book" font-size="33.0" fill="#FEFFFE" transform="matrix(1.00, 0.00, -0.00, -1.00, 507.7, 12.0)">s</text><text xml:space="preserve" font-family="Avenir-Book" font-size="33.0" fill="#FEFFFE" transform="matrix(1.00, 0.00, -0.00, -1.00, 521.7, 12.0)"> </text><text xml:space="preserve" font-family="Avenir-Book" font-size="33.0" fill="#FEFFFE" transform="matrix(1.00, 0.00, -0.00, -1.00, 530.9, 12.0)">a</text><text xml:space="preserve" font-family="Avenir-Book" font-size="33.0" fill="#FEFFFE" transform="matrix(1.00, 0.00, -0.00, -1.00, 548.0, 12.0)"> </text><text xml:space="preserve" font-family="Avenir-BookOblique" font-style="italic" font-size="33.0" fill="#FEFFFE" transform="matrix(1.00, 0.00, -0.00, -1.00, 557.2, 12.0)">g</text><text xml:space="preserve" font-family="Avenir-BookOblique" font-style="italic" font-size="33.0" fill="#FEFFFE" transform="matrix(1.00, 0.00, -0.00, -1.00, 577.4, 12.0)">r</text><text xml:space="preserve" font-family="Avenir-BookOblique" font-style="italic" font-size="33.0" fill="#FEFFFE" transform="matrix(1.00, 0.00, -0.00, -1.00, 588.3, 12.0)">a</text><text xml:space="preserve" font-family="Avenir-BookOblique" font-style="italic" font-size="33.0" fill="#FEFFFE" transform="matrix(1.00, 0.00, -0.00, -1.00, 605.5, 12.0)">p</text><text xml:space="preserve" font-family="Avenir-BookOblique" font-style="italic" font-size="33.0" fill="#FEFFFE" transform="matrix(1.00, 0.00, -0.00, -1.00, 625.6, 12.0)">h</text><text xml:space="preserve" font-family="Avenir-BookOblique" font-style="italic" font-size="33.0" fill="#FEFFFE" transform="matrix(1.00, 0.00, -0.00, -1.00, 644.0, 12.0)">i</text><text xml:space="preserve" font-family="Avenir-BookOblique" font-style="italic" font-size="33.0" fill="#FEFFFE" transform="matrix(1.00, 0.00, -0.00, -1.00, 651.9, 12.0)">c</text><text xml:space="preserve" font-family="Avenir-BookOblique" font-style="italic" font-size="33.0" fill="#FEFFFE" transform="matrix(1.00, 0.00, -0.00, -1.00, 667.8, 12.0)"> </text><text xml:space="preserve" font-family="Avenir-BookOblique" font-style="italic" font-size="33.0" fill="#FEFFFE" transform="matrix(1.00, 0.00, -0.00, -1.00, 677.0, 12.0)">s</text><text xml:space="preserve" font-family="Avenir-BookOblique" font-style="italic" font-size="33.0" fill="#FEFFFE" transform="matrix(1.00, 0.00, -0.00, -1.00, 691.0, 12.0)">i</text><text xml:space="preserve" font-family="Avenir-BookOblique" font-style="italic" font-size="33.0" fill="#FEFFFE" transform="matrix(1.00, 0.00, -0.00, -1.00, 698.9, 12.0)">g</text><text xml:space="preserve" font-family="Avenir-BookOblique" font-style="italic" font-size="33.0" fill="#FEFFFE" transform="matrix(1.00, 0.00, -0.00, -1.00, 719.1, 12.0)">n</text><text xml:space="preserve" font-family="Avenir-BookOblique" font-style="italic" font-size="33.0" fill="#FEFFFE" transform="matrix(1.00, 0.00, -0.00, -1.00, 737.5, 12.0)">a</text><text xml:space="preserve" font-family="Avenir-BookOblique" font-style="italic" font-size="33.0" fill="#FEFFFE" transform="matrix(1.00, 0.00, -0.00, -1.00, 754.6, 12.0)">l</text><text xml:space="preserve" font-family="Avenir-Book" font-size="33.0" fill="#FEFFFE" transform="matrix(1.00, 0.00, -0.00, -1.00, 762.5, 12.0)">.</text></g></svg>