<?xml version="1.0" encoding="UTF-8" standalone="no"?><svg xmlns="http://www.w3.org/2000/svg" xmlns:xlink="http://www.w3.org/1999/xlink" clip-rule="evenodd" stroke-miterlimit="4.00" viewBox="0 0 581 37"><desc>SVG generated by Keynote</desc><defs></defs><g transform="matrix(1.00, 0.00, -0.00, -1.00, 0.0, 37.0)"><text xml:space="preserve" font-family="Avenir-Book" font-size="33.0" fill="#FEFFFE" transform="matrix(1.00, 0.00, -0.00, -1.00, 2.0, 10.0)">V</text><text xml:space="preserve" font-family="Avenir-Book" font-size="33.0" fill="#FEFFFE" transform="matrix(1.00, 0.00, -0.00, -1.00, 22.4, 10.0)">i</text><text xml:space="preserve" font-family="Avenir-Book" font-size="33.0" fill="#FEFFFE" transform="matrix(1.00, 0.00, -0.00, -1.00, 30.3, 10.0)">e</text><text xml:space="preserve" font-family="Avenir-Book" font-size="33.0" fill="#FEFFFE" transform="matrix(1.00, 0.00, -0.00, -1.00, 48.6, 10.0)">w</text><text xml:space="preserve" font-family="Avenir-Book" font-size="33.0" fill="#FEFFFE" transform="matrix(1.00, 0.00, -0.00, -1.00, 72.5, 10.0)">e</text><text xml:space="preserve" font-family="Avenir-Book" font-size="33.0" fill="#FEFFFE" transform="matrix(1.00, 0.00, -0.00, -1.00, 90.8, 10.0)">d</text><text xml:space="preserve" font-family="Avenir-Book" font-size="33.0" fill="#FEFFFE" transform="matrix(1.00, 0.00, -0.00, -1.00, 111.0, 10.0)"> </text><text xml:space="preserve" font-family="Avenir-Book" font-size="33.0" fill="#FEFFFE" transform="matrix(1.00, 0.00, -0.00, -1.00, 120.1, 10.0)">a</text><text xml:space="preserve" font-family="Avenir-Book" font-size="33.0" fill="#FEFFFE" transform="matrix(1.00, 0.00, -0.00, -1.00, 137.3, 10.0)">s</text><text xml:space="preserve" font-family="Avenir-Book" font-size="33.0" fill="#FEFFFE" transform="matrix(1.00, 0.00, -0.00, -1.00, 151.3, 10.0)"> </text><text xml:space="preserve" font-family="Avenir-Book" font-size="33.0" fill="#FEFFFE" transform="matrix(1.00, 0.00, -0.00, -1.00, 160.5, 10.0)">a</text><text xml:space="preserve" font-family="Avenir-Book" font-size="33.0" fill="#FEFFFE" transform="matrix(1.00, 0.00, -0.00, -1.00, 177.6, 10.0)"> </text><text xml:space="preserve" font-family="Avenir-Book" font-size="33.0" fill="#FEFFFE" transform="matrix(1.00, 0.00, -0.00, -1.00, 186.8, 10.0)">s</text><text xml:space="preserve" font-family="Avenir-Book" font-size="33.0" fill="#FEFFFE" transform="matrix(1.00, 0.00, -0.00, -1.00, 200.9, 10.0)">i</text><text xml:space="preserve" font-family="Avenir-Book" font-size="33.0" fill="#FEFFFE" transform="matrix(1.00, 0.00, -0.00, -1.00, 208.8, 10.0)">g</text><text xml:space="preserve" font-family="Avenir-Book" font-size="33.0" fill="#FEFFFE" transform="matrix(1.00, 0.00, -0.00, -1.00, 228.9, 10.0)">n</text><text xml:space="preserve" font-family="Avenir-Book" font-size="33.0" fill="#FEFFFE" transform="matrix(1.00, 0.00, -0.00, -1.00, 247.3, 10.0)">a</text><text xml:space="preserve" font-family="Avenir-Book" font-size="33.0" fill="#FEFFFE" transform="matrix(1.00, 0.00, -0.00, -1.00, 264.4, 10.0)">l</text><text xml:space="preserve" font-family="Avenir-Book" font-size="33.0" fill="#FEFFFE" transform="matrix(1.00, 0.00, -0.00, -1.00, 272.3, 10.0)"> </text><text xml:space="preserve" font-family="Avenir-Book" font-size="33.0" fill="#FEFFFE" transform="matrix(1.00, 0.00, -0.00, -1.00, 281.5, 10.0)">(</text><text xml:space="preserve" font-family="Avenir-Book" font-size="33.0" fill="#FEFFFE" transform="matrix(1.00, 0.00, -0.00, -1.00, 290.1, 10.0)">a</text><text xml:space="preserve" font-family="Avenir-Book" font-size="33.0" fill="#FEFFFE" transform="matrix(1.00, 0.00, -0.00, -1.00, 307.2, 10.0)">u</text><text xml:space="preserve" font-family="Avenir-Book" font-size="33.0" fill="#FEFFFE" transform="matrix(1.00, 0.00, -0.00, -1.00, 325.6, 10.0)">d</text><text xml:space="preserve" font-family="Avenir-Book" font-size="33.0" fill="#FEFFFE" transform="matrix(1.00, 0.00, -0.00, -1.00, 345.7, 10.0)">i</text><text xml:space="preserve" font-family="Avenir-Book" font-size="33.0" fill="#FEFFFE" transform="matrix(1.00, 0.00, -0.00, -1.00, 353.6, 10.0)">o</text><text xml:space="preserve" font-family="Avenir-Book" font-size="33.0" fill="#FEFFFE" transform="matrix(1.00, 0.00, -0.00, -1.00, 373.2, 10.0)">,</text><text xml:space="preserve" font-family="Avenir-Book" font-size="33.0" fill="#FEFFFE" transform="matrix(1.00, 0.00, -0.00, -1.00, 382.4, 10.0)"> </text><text xml:space="preserve" font-family="Avenir-Book" font-size="33.0" fill="#FEFFFE" transform="matrix(1.00, 0.00, -0.00, -1.00, 391.6, 10.0)">g</text><text xml:space="preserve" font-family="Avenir-Book" font-size="33.0" fill="#FEFFFE" transform="matrix(1.00, 0.00, -0.00, -1.00, 411.7, 10.0)">e</text><text xml:space="preserve" font-family="Avenir-Book" font-size="33.0" fill="#FEFFFE" transform="matrix(1.00, 0.00, -0.00, -1.00, 430.1, 10.0)">s</text><text xml:space="preserve" font-family="Avenir-Book" font-size="33.0" fill="#FEFFFE" transform="matrix(1.00, 0.00, -0.00, -1.00, 444.1, 10.0)">t</text><text xml:space="preserve" font-family="Avenir-Book" font-size="33.0" fill="#FEFFFE" transform="matrix(1.00, 0.00, -0.00, -1.00, 455.1, 10.0)">u</text><text xml:space="preserve" font-family="Avenir-Book" font-size="33.0" fill="#FEFFFE" transform="matrix(1.00, 0.00, -0.00, -1.00, 473.4, 10.0)">a</text><text xml:space="preserve" font-family="Avenir-Book" font-size="33.0" fill="#FEFFFE" transform="matrix(1.00, 0.00, -0.00, -1.00, 490.6, 10.0)">l</text><text xml:space="preserve" font-family="Avenir-Book" font-size="33.0" fill="#FEFFFE" transform="matrix(1.00, 0.00, -0.00, -1.00, 498.5, 10.0)">,</text><text xml:space="preserve" font-family="Avenir-Book" font-size="33.0" fill="#FEFFFE" transform="matrix(1.00, 0.00, -0.00, -1.00, 507.7, 10.0)"> </text><text xml:space="preserve" font-family="Avenir-Book" font-size="33.0" fill="#FEFFFE" transform="matrix(1.00, 0.00, -0.00, -1.00, 516.8, 10.0)">e</text><text xml:space="preserve" font-family="Avenir-Book" font-size="33.0" fill="#FEFFFE" transform="matrix(1.00, 0.00, -0.00, -1.00, 535.2, 10.0)">t</text><text xml:space="preserve" font-family="Avenir-Book" font-size="33.0" fill="#FEFFFE" transform="matrix(1.00, 0.00, -0.00, -1.00, 546.1, 10.0)">c</text><text xml:space="preserve" font-family="Avenir-Book" font-size="33.0" fill="#FEFFFE" transform="matrix(1.00, 0.00, -0.00, -1.00, 562.0, 10.0)">.</text><text xml:space="preserve" font-family="Avenir-Book" font-size="33.0" fill="#FEFFFE" transform="matrix(1.00, 0.00, -0.00, -1.00, 571.2, 10.0)">)</text></g></svg>