<?xml version="1.0" encoding="UTF-8" standalone="no"?><svg xmlns="http://www.w3.org/2000/svg" xmlns:xlink="http://www.w3.org/1999/xlink" clip-rule="evenodd" stroke-miterlimit="4.00" viewBox="0 0 248 36"><desc>SVG generated by Keynote</desc><defs></defs><g transform="matrix(1.00, 0.00, -0.00, -1.00, 0.0, 36.0)"><text xml:space="preserve" font-family="Courier" font-size="38.0" fill="#F5D327" transform="matrix(1.00, 0.00, -0.00, -1.00, 0.0, 9.0)">g</text><text xml:space="preserve" font-family="Courier" font-size="38.0" fill="#F5D327" transform="matrix(1.00, 0.00, -0.00, -1.00, 22.8, 9.0)">-</text><text xml:space="preserve" font-family="Courier" font-size="38.0" fill="#F5D327" transform="matrix(1.00, 0.00, -0.00, -1.00, 45.6, 9.0)">1</text><text xml:space="preserve" font-family="Courier" font-size="38.0" fill="#F5D327" transform="matrix(1.00, 0.00, -0.00, -1.00, 68.4, 9.0)"> </text><text xml:space="preserve" font-family="Courier" font-size="38.0" fill="#F5D327" transform="matrix(1.00, 0.00, -0.00, -1.00, 91.2, 9.0)">c</text><text xml:space="preserve" font-family="Courier" font-size="38.0" fill="#F5D327" transform="matrix(1.00, 0.00, -0.00, -1.00, 114.0, 9.0)">0</text><text xml:space="preserve" font-family="Courier" font-size="38.0" fill="#F5D327" transform="matrix(1.00, 0.00, -0.00, -1.00, 136.8, 9.0)"> </text><text xml:space="preserve" font-family="Courier" font-size="38.0" fill="#F5D327" transform="matrix(1.00, 0.00, -0.00, -1.00, 159.7, 9.0)">g</text><text xml:space="preserve" font-family="Courier" font-size="38.0" fill="#F5D327" transform="matrix(1.00, 0.00, -0.00, -1.00, 182.5, 9.0)"> </text><text xml:space="preserve" font-family="Courier" font-size="38.0" fill="#F5D327" transform="matrix(1.00, 0.00, -0.00, -1.00, 205.3, 9.0)">c</text><text xml:space="preserve" font-family="Courier" font-size="38.0" fill="#F5D327" transform="matrix(1.00, 0.00, -0.00, -1.00, 228.1, 9.0)">1</text></g></svg>