<?xml version="1.0" encoding="UTF-8" standalone="no"?><svg xmlns="http://www.w3.org/2000/svg" xmlns:xlink="http://www.w3.org/1999/xlink" clip-rule="evenodd" stroke-miterlimit="4.00" viewBox="0 0 153 63"><desc>SVG generated by Keynote</desc><defs><linearGradient id="gradSh1.106" x1="0.0" y1="0.0" x2="100.0" y2="0.0" gradientUnits="userSpaceOnUse" gradientTransform="matrix(0.00, -0.62, -1.52, 0.00, 76.9, 62.8)"><stop offset="0.00000" stop-color="#70BF41"></stop><stop offset="0.00293" stop-color="#6FBF41"></stop><stop offset="0.01979" stop-color="#6EBC3F"></stop><stop offset="0.02053" stop-color="#6DBB3F"></stop><stop offset="0.52199" stop-color="#365D1F"></stop><stop offset="0.52346" stop-color="#355D1F"></stop><stop offset="0.68109" stop-color="#243F15"></stop><stop offset="0.68548" stop-color="#233F15"></stop><stop offset="0.77346" stop-color="#1A2E0F"></stop><stop offset="0.77493" stop-color="#192E0F"></stop><stop offset="0.85191" stop-color="#111F0A"></stop><stop offset="0.85631" stop-color="#101F0A"></stop><stop offset="0.89883" stop-color="#0C1707"></stop><stop offset="0.89956" stop-color="#0C1607"></stop><stop offset="0.93695" stop-color="#070F05"></stop><stop offset="0.94208" stop-color="#070E05"></stop><stop offset="0.96188" stop-color="#050B03"></stop><stop offset="0.96334" stop-color="#050A03"></stop><stop offset="0.97287" stop-color="#030903"></stop><stop offset="0.97434" stop-color="#030803"></stop><stop offset="0.99047" stop-color="#010502"></stop><stop offset="0.99340" stop-color="#010501"></stop><stop offset="0.99560" stop-color="#010401"></stop><stop offset="1.00000" stop-color="#000401"></stop></linearGradient></defs><g transform="matrix(1.00, 0.00, -0.00, -1.00, 0.0, 63.0)"><g><clipPath id="clip-391"><path d="M 1.9 13.6 L 1.9 50.0 C 1.9 56.5 7.2 61.8 13.7 61.8 L 140.1 61.8 C 146.6 61.8 151.9 56.5 151.9 50.0 L 151.9 13.6 C 151.9 7.1 146.6 1.8 140.1 1.8 L 13.7 1.8 C 7.2 1.8 1.9 7.1 1.9 13.6 Z M 1.9 13.6 "></path></clipPath><g clip-path="url(#clip-391)"><path d="M 1.9 13.6 L 1.9 50.0 C 1.9 56.5 7.2 61.8 13.7 61.8 L 140.1 61.8 C 146.6 61.8 151.9 56.5 151.9 50.0 L 151.9 13.6 C 151.9 7.1 146.6 1.8 140.1 1.8 L 13.7 1.8 C 7.2 1.8 1.9 7.1 1.9 13.6 Z M 1.9 13.6 " fill="url(#gradSh1.106)"></path></g></g><g><clipPath id="clip-392"><path d="M 1.4 1.8 L 152.4 1.8 L 152.4 61.8 L 1.4 61.8 Z M 1.4 1.8 "></path></clipPath><g clip-path="url(#clip-392)"><text xml:space="preserve" font-family="Helvetica" font-size="18.0" fill="#FEFFFE" transform="matrix(1.00, 0.00, -0.00, -1.00, 59.0, 25.0)">W</text><text xml:space="preserve" font-family="Helvetica" font-size="18.0" fill="#FEFFFE" transform="matrix(1.00, 0.00, -0.00, -1.00, 75.7, 25.0)">e</text><text xml:space="preserve" font-family="Helvetica" font-size="18.0" fill="#FEFFFE" transform="matrix(1.00, 0.00, -0.00, -1.00, 85.7, 25.0)">b</text></g></g></g></svg>