<?xml version="1.0" encoding="UTF-8" standalone="no"?><svg xmlns="http://www.w3.org/2000/svg" xmlns:xlink="http://www.w3.org/1999/xlink" clip-rule="evenodd" stroke-miterlimit="4.00" viewBox="0 0 153 63"><desc>SVG generated by Keynote</desc><defs><linearGradient id="gradSh1.89" x1="0.0" y1="0.0" x2="100.0" y2="0.0" gradientUnits="userSpaceOnUse" gradientTransform="matrix(0.00, -0.62, -1.52, 0.00, 76.8, 62.3)"><stop offset="0.00000" stop-color="#FB4912"></stop><stop offset="0.00147" stop-color="#FA4912"></stop><stop offset="0.13636" stop-color="#E03F10"></stop><stop offset="0.13783" stop-color="#DF3F10"></stop><stop offset="0.16202" stop-color="#DB3E0F"></stop><stop offset="0.16276" stop-color="#DA3E0F"></stop><stop offset="0.58724" stop-color="#861F08"></stop><stop offset="0.59164" stop-color="#851F08"></stop><stop offset="0.59897" stop-color="#841F07"></stop><stop offset="0.60117" stop-color="#831E07"></stop><stop offset="0.81745" stop-color="#590F03"></stop><stop offset="0.81818" stop-color="#580F03"></stop><stop offset="0.92522" stop-color="#430702"></stop><stop offset="0.92669" stop-color="#430701"></stop><stop offset="0.92889" stop-color="#420701"></stop><stop offset="0.98094" stop-color="#380400"></stop><stop offset="0.98167" stop-color="#380300"></stop><stop offset="0.98460" stop-color="#370300"></stop><stop offset="1.00000" stop-color="#340200"></stop></linearGradient></defs><g transform="matrix(1.00, 0.00, -0.00, -1.00, 0.0, 63.0)"><g><clipPath id="clip-357"><path d="M 1.8 13.1 L 1.8 49.5 C 1.8 56.0 7.1 61.3 13.6 61.3 L 140.0 61.3 C 146.5 61.3 151.8 56.0 151.8 49.5 L 151.8 13.1 C 151.8 6.6 146.5 1.3 140.0 1.3 L 13.6 1.3 C 7.1 1.3 1.8 6.6 1.8 13.1 Z M 1.8 13.1 "></path></clipPath><g clip-path="url(#clip-357)"><path d="M 1.8 13.1 L 1.8 49.5 C 1.8 56.0 7.1 61.3 13.6 61.3 L 140.0 61.3 C 146.5 61.3 151.8 56.0 151.8 49.5 L 151.8 13.1 C 151.8 6.6 146.5 1.3 140.0 1.3 L 13.6 1.3 C 7.1 1.3 1.8 6.6 1.8 13.1 Z M 1.8 13.1 " fill="url(#gradSh1.89)"></path></g></g><g><clipPath id="clip-358"><path d="M 1.3 1.3 L 152.3 1.3 L 152.3 61.3 L 1.3 61.3 Z M 1.3 1.3 "></path></clipPath><g clip-path="url(#clip-358)"><text xml:space="preserve" font-family="Helvetica" font-size="18.0" fill="#FEFFFE" transform="matrix(1.00, 0.00, -0.00, -1.00, 45.0, 25.0)">G</text><text xml:space="preserve" font-family="Helvetica" font-size="18.0" fill="#FEFFFE" transform="matrix(1.00, 0.00, -0.00, -1.00, 59.0, 25.0)">r</text><text xml:space="preserve" font-family="Helvetica" font-size="18.0" fill="#FEFFFE" transform="matrix(1.00, 0.00, -0.00, -1.00, 65.0, 25.0)">a</text><text xml:space="preserve" font-family="Helvetica" font-size="18.0" fill="#FEFFFE" transform="matrix(1.00, 0.00, -0.00, -1.00, 75.0, 25.0)">p</text><text xml:space="preserve" font-family="Helvetica" font-size="18.0" fill="#FEFFFE" transform="matrix(1.00, 0.00, -0.00, -1.00, 85.0, 25.0)">h</text><text xml:space="preserve" font-family="Helvetica" font-size="18.0" fill="#FEFFFE" transform="matrix(1.00, 0.00, -0.00, -1.00, 95.0, 25.0)">i</text><text xml:space="preserve" font-family="Helvetica" font-size="18.0" fill="#FEFFFE" transform="matrix(1.00, 0.00, -0.00, -1.00, 99.0, 25.0)">c</text></g></g></g></svg>