<?xml version="1.0" encoding="UTF-8" standalone="no"?><svg xmlns="http://www.w3.org/2000/svg" xmlns:xlink="http://www.w3.org/1999/xlink" clip-rule="evenodd" stroke-miterlimit="4.00" viewBox="0 0 153 63"><desc>SVG generated by Keynote</desc><defs><linearGradient id="gradSh1.90" x1="0.0" y1="0.0" x2="100.0" y2="0.0" gradientUnits="userSpaceOnUse" gradientTransform="matrix(0.00, -0.62, -1.52, 0.00, 76.8, 62.8)"><stop offset="0.00000" stop-color="#FB4912"></stop><stop offset="0.00147" stop-color="#FA4912"></stop><stop offset="0.13636" stop-color="#E03F10"></stop><stop offset="0.13783" stop-color="#DF3F10"></stop><stop offset="0.16202" stop-color="#DB3E0F"></stop><stop offset="0.16276" stop-color="#DA3E0F"></stop><stop offset="0.58724" stop-color="#861F08"></stop><stop offset="0.59164" stop-color="#851F08"></stop><stop offset="0.59897" stop-color="#841F07"></stop><stop offset="0.60117" stop-color="#831E07"></stop><stop offset="0.81745" stop-color="#590F03"></stop><stop offset="0.81818" stop-color="#580F03"></stop><stop offset="0.92522" stop-color="#430702"></stop><stop offset="0.92669" stop-color="#430701"></stop><stop offset="0.92889" stop-color="#420701"></stop><stop offset="0.98094" stop-color="#380400"></stop><stop offset="0.98167" stop-color="#380300"></stop><stop offset="0.98460" stop-color="#370300"></stop><stop offset="1.00000" stop-color="#340200"></stop></linearGradient></defs><g transform="matrix(1.00, 0.00, -0.00, -1.00, 0.0, 63.0)"><g><clipPath id="clip-359"><path d="M 1.8 13.6 L 1.8 50.1 C 1.8 56.6 7.1 61.8 13.6 61.8 L 140.0 61.8 C 146.5 61.8 151.8 56.6 151.8 50.1 L 151.8 13.6 C 151.8 7.1 146.5 1.8 140.0 1.8 L 13.6 1.8 C 7.1 1.8 1.8 7.1 1.8 13.6 Z M 1.8 13.6 "></path></clipPath><g clip-path="url(#clip-359)"><path d="M 1.8 13.6 L 1.8 50.1 C 1.8 56.6 7.1 61.8 13.6 61.8 L 140.0 61.8 C 146.5 61.8 151.8 56.6 151.8 50.1 L 151.8 13.6 C 151.8 7.1 146.5 1.8 140.0 1.8 L 13.6 1.8 C 7.1 1.8 1.8 7.1 1.8 13.6 Z M 1.8 13.6 " fill="url(#gradSh1.90)"></path></g></g><g><clipPath id="clip-360"><path d="M 1.3 1.8 L 152.3 1.8 L 152.3 61.8 L 1.3 61.8 Z M 1.3 1.8 "></path></clipPath><g clip-path="url(#clip-360)"><text xml:space="preserve" font-family="Helvetica" font-size="18.0" fill="#FEFFFE" transform="matrix(1.00, 0.00, -0.00, -1.00, 40.0, 25.0)">S</text><text xml:space="preserve" font-family="Helvetica" font-size="18.0" fill="#FEFFFE" transform="matrix(1.00, 0.00, -0.00, -1.00, 52.0, 25.0)">y</text><text xml:space="preserve" font-family="Helvetica" font-size="18.0" fill="#FEFFFE" transform="matrix(1.00, 0.00, -0.00, -1.00, 61.0, 25.0)">m</text><text xml:space="preserve" font-family="Helvetica" font-size="18.0" fill="#FEFFFE" transform="matrix(1.00, 0.00, -0.00, -1.00, 76.0, 25.0)">b</text><text xml:space="preserve" font-family="Helvetica" font-size="18.0" fill="#FEFFFE" transform="matrix(1.00, 0.00, -0.00, -1.00, 86.0, 25.0)">o</text><text xml:space="preserve" font-family="Helvetica" font-size="18.0" fill="#FEFFFE" transform="matrix(1.00, 0.00, -0.00, -1.00, 96.0, 25.0)">l</text><text xml:space="preserve" font-family="Helvetica" font-size="18.0" fill="#FEFFFE" transform="matrix(1.00, 0.00, -0.00, -1.00, 100.0, 25.0)">i</text><text xml:space="preserve" font-family="Helvetica" font-size="18.0" fill="#FEFFFE" transform="matrix(1.00, 0.00, -0.00, -1.00, 104.0, 25.0)">c</text></g></g></g></svg>