<?xml version="1.0" encoding="UTF-8" standalone="no"?><svg xmlns="http://www.w3.org/2000/svg" xmlns:xlink="http://www.w3.org/1999/xlink" clip-rule="evenodd" stroke-miterlimit="4.00" viewBox="0 0 430 42"><desc>SVG generated by Keynote</desc><defs></defs><g transform="matrix(1.00, 0.00, -0.00, -1.00, 0.0, 42.0)"><text xml:space="preserve" font-family="Avenir-Book" font-size="36.0" fill="#E0CEAC" transform="matrix(1.00, 0.00, -0.00, -1.00, 1.0, 13.0)">A</text><text xml:space="preserve" font-family="Avenir-Book" font-size="36.0" fill="#E0CEAC" transform="matrix(1.00, 0.00, -0.00, -1.00, 25.7, 13.0)">p</text><text xml:space="preserve" font-family="Avenir-Book" font-size="36.0" fill="#E0CEAC" transform="matrix(1.00, 0.00, -0.00, -1.00, 47.7, 13.0)">p</text><text xml:space="preserve" font-family="Avenir-Book" font-size="36.0" fill="#E0CEAC" transform="matrix(1.00, 0.00, -0.00, -1.00, 69.7, 13.0)">l</text><text xml:space="preserve" font-family="Avenir-Book" font-size="36.0" fill="#E0CEAC" transform="matrix(1.00, 0.00, -0.00, -1.00, 78.3, 13.0)">i</text><text xml:space="preserve" font-family="Avenir-Book" font-size="36.0" fill="#E0CEAC" transform="matrix(1.00, 0.00, -0.00, -1.00, 87.0, 13.0)">c</text><text xml:space="preserve" font-family="Avenir-Book" font-size="36.0" fill="#E0CEAC" transform="matrix(1.00, 0.00, -0.00, -1.00, 104.3, 13.0)">a</text><text xml:space="preserve" font-family="Avenir-Book" font-size="36.0" fill="#E0CEAC" transform="matrix(1.00, 0.00, -0.00, -1.00, 123.0, 13.0)">t</text><text xml:space="preserve" font-family="Avenir-Book" font-size="36.0" fill="#E0CEAC" transform="matrix(1.00, 0.00, -0.00, -1.00, 135.0, 13.0)">i</text><text xml:space="preserve" font-family="Avenir-Book" font-size="36.0" fill="#E0CEAC" transform="matrix(1.00, 0.00, -0.00, -1.00, 143.6, 13.0)">o</text><text xml:space="preserve" font-family="Avenir-Book" font-size="36.0" fill="#E0CEAC" transform="matrix(1.00, 0.00, -0.00, -1.00, 164.9, 13.0)">n</text><text xml:space="preserve" font-family="Avenir-Book" font-size="36.0" fill="#E0CEAC" transform="matrix(1.00, 0.00, -0.00, -1.00, 185.0, 13.0)"> </text><text xml:space="preserve" font-family="Avenir-Book" font-size="36.0" fill="#E0CEAC" transform="matrix(1.00, 0.00, -0.00, -1.00, 195.0, 13.0)">&amp;</text><text xml:space="preserve" font-family="Avenir-Book" font-size="36.0" fill="#E0CEAC" transform="matrix(1.00, 0.00, -0.00, -1.00, 220.3, 13.0)"> </text><text xml:space="preserve" font-family="Avenir-Book" font-size="36.0" fill="#E0CEAC" transform="matrix(1.00, 0.00, -0.00, -1.00, 230.3, 13.0)">S</text><text xml:space="preserve" font-family="Avenir-Book" font-size="36.0" fill="#E0CEAC" transform="matrix(1.00, 0.00, -0.00, -1.00, 250.3, 13.0)">c</text><text xml:space="preserve" font-family="Avenir-Book" font-size="36.0" fill="#E0CEAC" transform="matrix(1.00, 0.00, -0.00, -1.00, 267.7, 13.0)">e</text><text xml:space="preserve" font-family="Avenir-Book" font-size="36.0" fill="#E0CEAC" transform="matrix(1.00, 0.00, -0.00, -1.00, 287.7, 13.0)">n</text><text xml:space="preserve" font-family="Avenir-Book" font-size="36.0" fill="#E0CEAC" transform="matrix(1.00, 0.00, -0.00, -1.00, 307.7, 13.0)">e</text><text xml:space="preserve" font-family="Avenir-Book" font-size="36.0" fill="#E0CEAC" transform="matrix(1.00, 0.00, -0.00, -1.00, 327.7, 13.0)"> </text><text xml:space="preserve" font-family="Avenir-Book" font-size="36.0" fill="#E0CEAC" transform="matrix(1.00, 0.00, -0.00, -1.00, 337.7, 13.0)">l</text><text xml:space="preserve" font-family="Avenir-Book" font-size="36.0" fill="#E0CEAC" transform="matrix(1.00, 0.00, -0.00, -1.00, 346.4, 13.0)">e</text><text xml:space="preserve" font-family="Avenir-Book" font-size="36.0" fill="#E0CEAC" transform="matrix(1.00, 0.00, -0.00, -1.00, 366.4, 13.0)">v</text><text xml:space="preserve" font-family="Avenir-Book" font-size="36.0" fill="#E0CEAC" transform="matrix(1.00, 0.00, -0.00, -1.00, 383.8, 13.0)">e</text><text xml:space="preserve" font-family="Avenir-Book" font-size="36.0" fill="#E0CEAC" transform="matrix(1.00, 0.00, -0.00, -1.00, 403.8, 13.0)">l</text><text xml:space="preserve" font-family="Avenir-Book" font-size="36.0" fill="#E0CEAC" transform="matrix(1.00, 0.00, -0.00, -1.00, 412.4, 13.0)">s</text></g></svg>