<?xml version="1.0" encoding="UTF-8" standalone="no"?><svg xmlns="http://www.w3.org/2000/svg" xmlns:xlink="http://www.w3.org/1999/xlink" clip-rule="evenodd" stroke-miterlimit="4.00" viewBox="0 0 129 28"><desc>SVG generated by Keynote</desc><defs></defs><g transform="matrix(1.00, 0.00, -0.00, -1.00, 0.0, 28.0)"><text xml:space="preserve" font-family="Helvetica-Bold" font-weight="bold" font-size="32.0" fill="#A6AAA8" transform="matrix(1.00, 0.00, -0.00, -1.00, 0.0, 3.0)">r</text><text xml:space="preserve" font-family="Helvetica-Bold" font-weight="bold" font-size="32.0" fill="#A6AAA8" transform="matrix(1.00, 0.00, -0.00, -1.00, 12.5, 3.0)">e</text><text xml:space="preserve" font-family="Helvetica-Bold" font-weight="bold" font-size="32.0" fill="#A6AAA8" transform="matrix(1.00, 0.00, -0.00, -1.00, 30.3, 3.0)">f</text><text xml:space="preserve" font-family="Helvetica-Bold" font-weight="bold" font-size="32.0" fill="#A6AAA8" transform="matrix(1.00, 0.00, -0.00, -1.00, 40.9, 3.0)">e</text><text xml:space="preserve" font-family="Helvetica-Bold" font-weight="bold" font-size="32.0" fill="#A6AAA8" transform="matrix(1.00, 0.00, -0.00, -1.00, 58.7, 3.0)">r</text><text xml:space="preserve" font-family="Helvetica-Bold" font-weight="bold" font-size="32.0" fill="#A6AAA8" transform="matrix(1.00, 0.00, -0.00, -1.00, 71.2, 3.0)">s</text><text xml:space="preserve" font-family="Helvetica-Bold" font-weight="bold" font-size="32.0" fill="#A6AAA8" transform="matrix(1.00, 0.00, -0.00, -1.00, 89.0, 3.0)"> </text><text xml:space="preserve" font-family="Helvetica-Bold" font-weight="bold" font-size="32.0" fill="#A6AAA8" transform="matrix(1.00, 0.00, -0.00, -1.00, 97.9, 3.0)">t</text><text xml:space="preserve" font-family="Helvetica-Bold" font-weight="bold" font-size="32.0" fill="#A6AAA8" transform="matrix(1.00, 0.00, -0.00, -1.00, 108.5, 3.0)">o</text></g></svg>