<?xml version="1.0" encoding="UTF-8" standalone="no"?><svg xmlns="http://www.w3.org/2000/svg" xmlns:xlink="http://www.w3.org/1999/xlink" clip-rule="evenodd" stroke-miterlimit="4.00" viewBox="0 0 705 56"><desc>SVG generated by Keynote</desc><defs></defs><g transform="matrix(1.00, 0.00, -0.00, -1.00, 0.0, 56.0)"><text xml:space="preserve" font-family="AvenirNext-Regular" font-size="53.0" fill="#FEFFFF" transform="matrix(1.00, 0.00, -0.00, -1.00, 0.0, 14.0)">S</text><text xml:space="preserve" font-family="AvenirNext-Regular" font-size="53.0" fill="#FEFFFF" transform="matrix(1.00, 0.00, -0.00, -1.00, 29.3, 14.0)">y</text><text xml:space="preserve" font-family="AvenirNext-Regular" font-size="53.0" fill="#FEFFFF" transform="matrix(1.00, 0.00, -0.00, -1.00, 55.1, 14.0)">m</text><text xml:space="preserve" font-family="AvenirNext-Regular" font-size="53.0" fill="#FEFFFF" transform="matrix(1.00, 0.00, -0.00, -1.00, 101.9, 14.0)">b</text><text xml:space="preserve" font-family="AvenirNext-Regular" font-size="53.0" fill="#FEFFFF" transform="matrix(1.00, 0.00, -0.00, -1.00, 135.7, 14.0)">o</text><text xml:space="preserve" font-family="AvenirNext-Regular" font-size="53.0" fill="#FEFFFF" transform="matrix(1.00, 0.00, -0.00, -1.00, 168.1, 14.0)">l</text><text xml:space="preserve" font-family="AvenirNext-Regular" font-size="53.0" fill="#FEFFFF" transform="matrix(1.00, 0.00, -0.00, -1.00, 181.4, 14.0)">i</text><text xml:space="preserve" font-family="AvenirNext-Regular" font-size="53.0" fill="#FEFFFF" transform="matrix(1.00, 0.00, -0.00, -1.00, 194.7, 14.0)">c</text><text xml:space="preserve" font-family="AvenirNext-Regular" font-size="53.0" fill="#FEFFFF" transform="matrix(1.00, 0.00, -0.00, -1.00, 221.2, 14.0)"> </text><text xml:space="preserve" font-family="AvenirNext-Regular" font-size="53.0" fill="#FEFFFF" transform="matrix(1.00, 0.00, -0.00, -1.00, 234.4, 14.0)">n</text><text xml:space="preserve" font-family="AvenirNext-Regular" font-size="53.0" fill="#FEFFFF" transform="matrix(1.00, 0.00, -0.00, -1.00, 265.2, 14.0)">o</text><text xml:space="preserve" font-family="AvenirNext-Regular" font-size="53.0" fill="#FEFFFF" transform="matrix(1.00, 0.00, -0.00, -1.00, 297.6, 14.0)">t</text><text xml:space="preserve" font-family="AvenirNext-Regular" font-size="53.0" fill="#FEFFFF" transform="matrix(1.00, 0.00, -0.00, -1.00, 314.4, 14.0)">a</text><text xml:space="preserve" font-family="AvenirNext-Regular" font-size="53.0" fill="#FEFFFF" transform="matrix(1.00, 0.00, -0.00, -1.00, 342.2, 14.0)">t</text><text xml:space="preserve" font-family="AvenirNext-Regular" font-size="53.0" fill="#FEFFFF" transform="matrix(1.00, 0.00, -0.00, -1.00, 359.0, 14.0)">i</text><text xml:space="preserve" font-family="AvenirNext-Regular" font-size="53.0" fill="#FEFFFF" transform="matrix(1.00, 0.00, -0.00, -1.00, 372.2, 14.0)">o</text><text xml:space="preserve" font-family="AvenirNext-Regular" font-size="53.0" fill="#FEFFFF" transform="matrix(1.00, 0.00, -0.00, -1.00, 404.6, 14.0)">n</text><text xml:space="preserve" font-family="AvenirNext-Regular" font-size="53.0" fill="#FEFFFF" transform="matrix(1.00, 0.00, -0.00, -1.00, 435.4, 14.0)"> </text><text xml:space="preserve" font-family="AvenirNext-Regular" font-size="53.0" fill="#FEFFFF" transform="matrix(1.00, 0.00, -0.00, -1.00, 448.6, 14.0)">e</text><text xml:space="preserve" font-family="AvenirNext-Regular" font-size="53.0" fill="#FEFFFF" transform="matrix(1.00, 0.00, -0.00, -1.00, 478.6, 14.0)">x</text><text xml:space="preserve" font-family="AvenirNext-Regular" font-size="53.0" fill="#FEFFFF" transform="matrix(1.00, 0.00, -0.00, -1.00, 504.3, 14.0)">t</text><text xml:space="preserve" font-family="AvenirNext-Regular" font-size="53.0" fill="#FEFFFF" transform="matrix(1.00, 0.00, -0.00, -1.00, 521.1, 14.0)">e</text><text xml:space="preserve" font-family="AvenirNext-Regular" font-size="53.0" fill="#FEFFFF" transform="matrix(1.00, 0.00, -0.00, -1.00, 551.4, 14.0)">n</text><text xml:space="preserve" font-family="AvenirNext-Regular" font-size="53.0" fill="#FEFFFF" transform="matrix(1.00, 0.00, -0.00, -1.00, 582.2, 14.0)">s</text><text xml:space="preserve" font-family="AvenirNext-Regular" font-size="53.0" fill="#FEFFFF" transform="matrix(1.00, 0.00, -0.00, -1.00, 605.7, 14.0)">i</text><text xml:space="preserve" font-family="AvenirNext-Regular" font-size="53.0" fill="#FEFFFF" transform="matrix(1.00, 0.00, -0.00, -1.00, 619.0, 14.0)">o</text><text xml:space="preserve" font-family="AvenirNext-Regular" font-size="53.0" fill="#FEFFFF" transform="matrix(1.00, 0.00, -0.00, -1.00, 651.4, 14.0)">n</text><text xml:space="preserve" font-family="AvenirNext-Regular" font-size="53.0" fill="#FEFFFF" transform="matrix(1.00, 0.00, -0.00, -1.00, 682.2, 14.0)">s</text></g></svg>