<?xml version="1.0" encoding="UTF-8" standalone="no"?><svg xmlns="http://www.w3.org/2000/svg" xmlns:xlink="http://www.w3.org/1999/xlink" clip-rule="evenodd" stroke-miterlimit="4.00" viewBox="0 0 119 24"><desc>SVG generated by Keynote</desc><defs></defs><g transform="matrix(1.00, 0.00, -0.00, -1.00, 0.0, 24.0)"><text xml:space="preserve" font-family="Courier" font-size="24.0" fill="#000000" transform="matrix(1.00, 0.00, -0.00, -1.00, 2.2, 7.0)"> </text><text xml:space="preserve" font-family="Courier" font-size="24.0" fill="#000000" transform="matrix(1.00, 0.00, -0.00, -1.00, 16.6, 7.0)">t</text><text xml:space="preserve" font-family="Courier" font-size="24.0" fill="#000000" transform="matrix(1.00, 0.00, -0.00, -1.00, 31.1, 7.0)">h</text><text xml:space="preserve" font-family="Courier" font-size="24.0" fill="#000000" transform="matrix(1.00, 0.00, -0.00, -1.00, 45.5, 7.0)">e</text><text xml:space="preserve" font-family="Courier" font-size="24.0" fill="#000000" transform="matrix(1.00, 0.00, -0.00, -1.00, 59.9, 7.0)"> </text><text xml:space="preserve" font-family="Courier" font-size="24.0" fill="#000000" transform="matrix(1.00, 0.00, -0.00, -1.00, 74.3, 7.0)">g</text><text xml:space="preserve" font-family="Courier" font-size="24.0" fill="#000000" transform="matrix(1.00, 0.00, -0.00, -1.00, 88.7, 7.0)">m</text><text xml:space="preserve" font-family="Courier" font-size="24.0" fill="#000000" transform="matrix(1.00, 0.00, -0.00, -1.00, 103.1, 7.0)">n</text><text xml:space="preserve" font-family="Courier" font-size="24.0" fill="#000000" transform="matrix(1.00, 0.00, -0.00, -1.00, 117.5, 7.0)"> </text></g></svg>