<?xml version="1.0" encoding="UTF-8" standalone="no"?><svg xmlns="http://www.w3.org/2000/svg" xmlns:xlink="http://www.w3.org/1999/xlink" clip-rule="evenodd" stroke-miterlimit="4.00" viewBox="0 0 56 227"><desc>SVG generated by Keynote</desc><defs></defs><g transform="matrix(1.00, 0.00, -0.00, -1.00, 0.0, 227.0)"><image xlink:href="../../32B68BF9-2C51-4245-B5D0-3DD6E596B850/assets/165C58CF6C0B5B6279544F44E48EBC0B.png" width="44.00" height="216.00" transform="matrix(1.01, 0.00, -0.00, -1.00, 10.5, 217.3)" opacity="0.71"></image><path d="M 26.0 193.3 C 26.0 193.7 26.0 195.3 26.0 195.3 C 26.0 194.7 26.1 193.4 26.0 193.3 C 26.0 193.3 26.0 193.3 26.0 193.3 Z M 26.0 190.1 C 25.9 190.7 26.0 192.0 26.0 192.4 C 26.0 191.7 26.0 190.3 26.0 190.1 C 26.0 190.1 26.0 190.1 26.0 190.1 Z M 26.2 195.0 C 26.2 195.9 26.1 197.5 26.2 197.8 C 26.2 197.0 26.2 195.4 26.2 195.0 C 26.2 195.0 26.2 195.0 26.2 195.0 Z M 25.3 150.0 C 25.2 150.4 25.2 152.0 25.3 152.0 C 25.3 151.4 25.3 150.1 25.3 150.0 C 25.3 150.0 25.3 150.0 25.3 150.0 Z M 25.4 158.9 C 25.3 159.5 25.4 160.8 25.4 161.2 C 25.4 160.5 25.4 159.1 25.4 158.9 C 25.4 158.9 25.4 158.9 25.4 158.9 Z M 25.3 164.1 C 25.3 165.3 25.3 166.6 25.4 166.3 C 25.3 165.9 25.4 164.2 25.3 164.1 C 25.3 164.1 25.3 164.1 25.3 164.1 Z M 28.9 194.0 C 28.9 192.7 28.9 191.8 28.9 190.9 C 28.9 186.6 28.8 193.2 28.9 194.0 C 28.9 194.0 28.9 194.0 28.9 194.0 Z M 25.5 173.2 C 25.5 172.3 25.5 171.6 25.4 171.2 C 25.4 172.0 25.4 173.1 25.5 173.2 C 25.5 173.2 25.5 173.2 25.5 173.2 Z M 25.5 180.7 C 25.5 180.9 25.5 185.3 25.5 187.8 C 25.5 185.7 25.6 180.5 25.5 180.7 C 25.5 180.7 25.5 180.7 25.5 180.7 Z M 29.0 183.6 C 28.9 180.7 28.9 176.1 28.9 174.0 C 28.9 172.0 28.9 177.7 28.8 183.0 C 28.8 188.4 29.0 184.0 29.0 186.1 C 29.0 188.3 29.1 184.1 29.0 181.9 C 29.0 179.8 29.0 183.3 29.0 183.6 C 29.0 183.6 29.0 183.6 29.0 183.6 Z M 29.2 183.7 C 29.2 184.8 29.2 185.7 29.2 186.3 C 29.3 185.2 29.3 184.2 29.2 183.7 C 29.2 183.7 29.2 183.7 29.2 183.7 Z M 28.3 29.4 C 27.6 29.8 27.1 32.3 26.7 35.1 C 26.6 35.7 26.5 36.4 26.4 37.1 C 26.1 42.2 25.9 47.2 25.8 52.3 C 25.8 53.3 25.7 54.3 25.7 55.3 C 25.7 58.4 25.6 61.6 25.6 64.7 C 25.6 65.7 25.6 66.8 25.6 67.8 C 25.5 71.6 25.5 75.2 25.5 78.9 C 25.5 80.8 25.5 82.6 25.4 84.6 C 25.3 85.5 25.3 89.7 25.3 91.1 C 25.2 89.7 25.2 96.5 25.2 96.2 C 25.3 97.0 25.3 97.8 25.3 98.5 C 25.3 99.3 25.4 98.3 25.4 97.3 C 25.4 98.2 25.4 99.1 25.4 100.0 C 25.4 101.0 25.4 101.9 25.4 102.9 C 25.3 106.0 25.3 109.5 25.4 112.4 C 25.3 120.4 25.3 142.5 25.3 138.5 C 25.4 134.0 25.4 136.3 25.4 137.5 C 25.4 138.3 25.4 139.2 25.4 140.3 C 25.4 140.2 25.4 140.1 25.4 140.0 C 25.4 142.0 25.3 144.8 25.3 147.6 C 25.3 147.1 25.3 146.4 25.4 146.2 C 25.4 147.6 25.4 146.5 25.5 147.4 C 25.5 149.9 25.5 151.2 25.5 148.2 C 25.5 151.0 25.6 152.7 25.7 155.4 C 25.7 156.5 25.7 155.9 25.7 155.6 C 25.6 157.4 25.6 161.5 25.6 161.9 C 25.5 162.3 25.6 150.7 25.6 152.8 C 25.5 153.6 25.5 155.4 25.5 156.0 C 25.5 154.5 25.5 152.7 25.5 151.8 C 25.5 152.8 25.5 154.3 25.5 155.0 C 25.5 154.1 25.5 153.4 25.4 153.1 C 25.4 154.5 25.4 155.6 25.4 157.3 C 25.4 158.1 25.5 156.7 25.4 158.3 C 25.5 158.6 25.5 157.2 25.5 157.3 C 25.5 158.6 25.5 161.2 25.5 161.9 C 25.5 162.5 25.5 160.3 25.5 160.2 C 25.5 165.3 25.5 171.0 25.5 172.8 C 25.5 174.5 25.5 172.9 25.6 172.1 C 25.6 174.2 25.6 175.8 25.6 178.2 C 25.6 179.8 25.6 179.2 25.6 178.6 C 25.6 179.0 25.6 179.4 25.6 179.6 C 25.6 179.8 25.6 180.2 25.6 180.5 C 25.7 179.6 25.7 177.8 25.7 177.0 C 25.7 178.4 25.7 181.9 25.7 183.1 C 25.7 181.1 25.7 179.0 25.8 176.8 C 25.8 181.1 25.6 185.6 25.7 189.1 C 25.7 188.5 25.8 188.2 25.8 187.7 C 25.8 189.0 25.7 191.0 25.8 192.2 C 25.8 192.8 25.8 194.1 25.8 195.4 C 25.9 193.2 25.9 191.6 25.9 190.0 C 25.9 190.1 25.9 190.2 25.9 190.5 C 26.0 186.9 25.8 184.9 25.8 182.3 C 25.8 182.1 25.8 181.9 25.8 181.7 C 25.9 180.9 25.9 183.8 25.9 184.1 C 25.9 180.3 25.9 176.2 26.0 174.4 C 26.0 178.9 25.9 182.8 26.0 186.2 C 26.1 185.3 26.0 181.9 26.1 180.3 C 26.1 187.6 26.1 188.4 26.1 189.0 C 26.1 188.4 26.1 187.8 26.2 187.3 C 26.2 187.4 26.2 187.5 26.2 187.7 C 26.2 190.9 26.2 194.7 26.2 194.5 C 26.2 194.4 26.2 191.4 26.2 188.3 C 26.3 188.6 26.3 189.0 26.3 189.3 C 26.3 192.9 26.4 197.0 26.4 200.7 C 26.4 200.1 26.4 200.4 26.4 201.1 C 26.5 200.0 26.5 198.4 26.5 197.2 C 26.6 197.6 26.5 198.3 26.6 198.6 C 26.6 198.0 26.6 197.0 26.6 196.7 C 26.6 198.4 26.7 200.3 26.7 202.1 C 26.7 202.5 26.7 201.3 26.7 201.4 C 26.7 203.1 26.7 205.5 26.7 206.8 C 26.8 205.3 26.8 202.5 26.8 201.6 C 26.8 202.2 26.8 202.8 26.9 203.4 C 26.9 204.5 26.9 205.1 26.9 203.8 C 26.9 203.1 26.9 203.1 26.9 203.3 C 27.0 204.1 26.9 206.9 27.0 206.8 C 27.0 206.1 27.1 203.3 27.1 202.6 C 27.2 203.1 27.1 204.5 27.2 204.7 C 27.2 201.6 27.2 201.7 27.2 200.9 C 27.2 201.2 27.2 202.1 27.1 202.1 C 27.1 200.2 27.2 198.3 27.2 196.3 C 27.2 196.3 27.2 196.3 27.2 196.3 C 27.2 196.3 27.2 196.3 27.2 196.3 C 27.2 196.3 27.2 196.3 27.2 196.3 C 27.2 196.5 27.3 196.4 27.3 196.2 C 27.3 197.1 27.3 197.9 27.3 199.5 C 27.4 199.1 27.4 197.7 27.4 196.3 C 27.4 196.4 27.4 196.4 27.4 196.4 C 27.4 198.5 27.4 201.8 27.4 204.0 C 27.5 203.0 27.5 199.3 27.5 196.8 C 27.5 196.9 27.5 196.9 27.5 197.0 C 27.5 193.9 27.6 190.2 27.6 186.6 C 27.7 188.3 27.6 190.3 27.6 192.5 C 27.6 193.5 27.7 194.5 27.7 195.5 C 27.7 198.3 27.6 206.6 27.6 207.5 C 27.7 208.6 27.7 200.1 27.8 200.1 C 27.8 200.0 27.8 204.0 27.8 202.1 C 27.8 201.2 27.8 199.0 27.8 197.5 C 27.8 197.5 27.9 197.4 28.0 197.4 C 27.9 198.7 28.0 200.3 27.9 200.3 C 27.9 201.0 27.8 202.4 27.9 202.6 C 27.9 202.4 27.9 202.0 27.9 202.0 C 27.9 202.3 27.9 202.8 27.9 202.9 C 27.9 201.3 28.0 199.0 28.0 197.3 C 28.0 197.1 28.0 197.0 28.1 196.8 C 28.1 196.9 28.1 198.2 28.1 199.4 C 28.1 200.6 28.1 198.1 28.1 196.0 C 28.2 195.7 28.2 195.4 28.2 195.0 C 28.2 195.7 28.2 196.6 28.2 197.5 C 28.2 198.7 28.3 198.6 28.3 199.8 C 28.4 197.7 28.4 195.2 28.4 193.2 C 28.4 192.4 28.5 191.7 28.5 190.9 C 28.5 192.6 28.6 194.2 28.6 195.1 C 28.6 195.8 28.6 196.6 28.6 196.9 C 28.6 196.2 28.6 198.0 28.7 197.7 C 28.7 196.7 28.7 194.8 28.6 194.0 C 28.6 192.5 28.6 190.8 28.6 189.3 C 28.6 189.1 28.7 188.9 28.7 188.7 C 28.7 190.0 28.7 191.2 28.7 192.6 C 28.8 192.0 28.8 188.2 28.8 185.5 C 28.9 180.0 28.6 174.5 28.5 168.9 C 28.5 168.7 28.6 168.4 28.6 168.0 C 28.6 167.6 28.6 167.3 28.7 166.8 C 28.7 168.2 28.7 169.3 28.7 170.3 C 28.8 166.4 28.7 175.9 28.8 176.5 C 28.9 170.2 28.9 158.4 29.0 151.1 C 29.0 152.8 29.0 153.4 29.0 151.5 C 29.0 151.0 29.1 150.5 29.1 150.0 C 29.1 157.4 28.9 165.1 29.0 171.0 C 29.0 167.5 29.0 162.2 29.1 160.7 C 29.1 161.7 29.1 163.2 29.1 163.4 C 29.2 161.6 29.1 155.6 29.2 153.8 C 29.2 162.5 29.1 174.2 29.2 180.6 C 29.2 171.0 29.3 158.0 29.3 149.7 C 29.3 151.1 29.2 151.2 29.2 150.4 C 29.2 147.8 29.2 145.3 29.2 142.6 C 29.2 142.1 29.2 142.3 29.2 143.6 C 29.3 144.6 29.2 145.2 29.3 145.6 C 29.3 144.9 29.3 136.7 29.3 143.2 C 29.3 149.6 29.3 160.8 29.4 154.3 C 29.4 147.7 29.5 145.2 29.5 148.7 C 29.5 152.3 29.5 163.6 29.5 159.8 C 29.6 156.1 29.7 148.1 29.7 143.6 C 29.7 139.1 29.4 146.6 29.5 140.0 C 29.5 133.3 29.5 138.9 29.5 137.6 C 29.5 135.6 29.6 131.9 29.6 128.4 C 29.6 125.9 29.6 122.8 29.7 121.2 C 29.7 121.3 29.6 128.8 29.7 125.8 C 29.7 118.5 29.8 110.4 29.7 113.7 C 29.7 109.2 29.7 105.9 29.7 103.1 C 29.8 98.7 29.9 93.6 29.9 93.1 C 29.9 92.4 29.8 80.5 30.1 76.0 C 30.1 75.7 30.0 67.6 30.0 66.9 C 30.1 59.3 30.1 60.3 30.2 52.8 C 30.2 46.5 30.1 44.6 30.1 43.5 C 30.1 36.9 30.2 36.9 29.9 33.7 C 29.8 32.7 29.8 31.2 29.6 30.6 C 29.3 29.6 28.9 29.1 28.3 29.4 C 28.3 29.4 28.3 29.4 28.3 29.4 Z M 27.1 195.4 C 27.0 196.6 27.0 198.7 27.0 200.0 C 26.9 198.6 27.0 196.8 27.0 195.0 C 27.0 195.2 27.0 195.3 27.1 195.4 C 27.1 195.4 27.1 195.4 27.1 195.4 Z M 28.2 186.4 C 28.2 187.2 28.1 188.1 28.1 189.0 C 28.1 189.8 28.1 190.7 28.1 192.0 C 28.2 191.9 28.2 189.8 28.2 188.1 C 28.2 188.1 28.2 188.1 28.3 188.1 C 28.3 188.9 28.3 189.9 28.3 191.0 C 28.3 191.3 28.3 191.7 28.3 192.1 C 28.2 192.1 28.2 191.6 28.2 191.3 C 28.2 191.6 28.1 192.6 28.1 193.9 C 28.1 194.0 28.1 194.2 28.1 194.3 C 28.0 194.5 28.0 193.5 28.0 194.6 C 28.0 193.9 28.0 191.9 28.0 190.7 C 28.1 192.0 28.1 186.9 28.1 185.6 C 28.1 185.9 28.1 186.1 28.2 186.4 Z M 25.8 176.5 C 25.8 175.8 25.8 175.1 25.8 174.4 C 25.8 175.4 25.8 176.2 25.8 176.9 C 25.8 176.8 25.8 176.6 25.8 176.5 Z M 25.6 118.6 C 25.7 122.8 25.5 131.7 25.6 132.2 C 25.6 133.1 25.6 134.0 25.5 135.0 C 25.6 129.1 25.6 122.8 25.6 118.6 C 25.6 118.6 25.6 118.6 25.6 118.6 Z M 29.3 133.5 C 29.3 133.8 29.3 133.7 29.3 132.8 C 29.3 128.3 29.2 125.6 29.2 128.5 C 29.2 130.9 29.1 136.3 29.1 134.7 C 29.1 132.6 29.1 130.5 29.1 128.4 C 29.2 126.8 29.2 125.2 29.3 123.6 C 29.3 127.1 29.3 130.4 29.3 133.5 C 29.3 133.5 29.3 133.5 29.3 133.5 Z M 29.4 121.6 C 29.4 122.8 29.4 124.3 29.4 125.9 C 29.4 124.5 29.4 123.2 29.4 121.9 C 29.4 121.8 29.4 121.7 29.4 121.6 Z M 29.5 120.0 C 29.5 122.5 29.5 125.1 29.5 122.5 C 29.5 121.9 29.5 121.4 29.5 120.8 C 29.5 120.5 29.5 120.2 29.5 120.0 Z M 29.6 118.4 C 29.5 118.4 29.5 118.9 29.5 119.7 C 29.5 118.0 29.5 114.5 29.6 114.7 C 29.6 115.8 29.6 117.1 29.6 118.4 C 29.6 118.4 29.6 118.4 29.6 118.4 Z M 25.5 115.8 C 25.5 116.9 25.4 117.9 25.4 116.1 C 25.4 115.4 25.4 114.8 25.4 114.1 C 25.4 114.6 25.5 115.2 25.5 115.8 Z M 29.1 174.8 C 29.1 174.3 29.1 172.5 29.1 171.4 C 28.9 171.3 29.0 175.5 29.1 174.8 C 29.1 174.8 29.1 174.8 29.1 174.8 Z M 29.1 181.7 C 29.1 181.2 29.1 179.4 29.1 178.3 C 28.9 178.2 29.0 182.4 29.1 181.7 C 29.1 181.7 29.1 181.7 29.1 181.7 Z M 30.1 76.0 C 30.1 76.0 30.1 76.0 30.1 76.0 C 30.1 76.0 30.1 76.0 30.1 76.0 C 30.1 76.0 30.1 76.0 30.1 76.0 Z M 30.1 76.0 " fill="#FEFB00"></path><path d="M 27.8 36.0 C 27.8 36.1 30.9 37.0 31.0 37.0 C 31.3 37.0 32.0 37.1 32.3 37.2 C 31.8 37.1 31.3 37.1 31.1 37.1 C 31.1 37.1 30.3 37.0 31.1 37.4 C 31.0 37.4 30.9 37.4 30.9 37.5 L 30.9 37.5 C 30.9 37.5 30.1 37.2 30.1 37.3 C 29.9 37.7 32.6 37.9 32.8 38.1 C 32.5 38.1 32.3 38.0 32.1 38.1 C 32.8 38.1 35.7 39.0 36.3 39.1 L 37.1 39.3 L 37.5 39.4 L 37.7 39.4 L 37.8 39.4 L 37.8 39.4 L 37.8 39.4 L 37.8 39.4 C 37.8 39.4 38.0 39.5 37.7 39.4 C 37.9 39.4 38.3 39.7 39.5 39.2 C 42.0 36.9 39.8 35.7 40.4 36.0 L 40.4 36.0 L 39.4 34.6 C 38.8 33.7 38.1 32.8 37.5 31.9 C 35.3 28.6 32.0 23.6 30.0 20.0 C 29.9 19.9 29.8 19.7 29.7 19.4 L 29.5 19.0 L 29.3 18.8 C 29.4 18.9 29.2 18.6 28.8 18.3 C 28.5 18.0 27.5 18.0 27.1 18.4 C 26.4 19.0 26.8 18.8 26.7 18.8 L 26.7 18.8 L 26.7 18.9 L 26.7 18.9 L 26.7 18.9 L 26.6 19.0 C 26.2 19.7 25.9 20.4 25.5 21.0 C 24.7 22.4 24.0 23.7 23.9 23.7 C 23.8 24.0 20.8 29.4 20.6 29.6 C 20.5 29.7 20.5 29.2 20.5 29.2 L 20.0 29.9 C 20.0 29.8 20.1 29.7 20.1 29.5 C 19.2 30.7 18.0 33.7 17.4 34.6 C 17.6 34.5 17.5 34.8 17.5 34.8 C 17.5 34.8 17.2 35.3 16.8 36.0 L 16.6 36.2 L 16.5 36.4 L 16.5 36.4 C 16.4 36.7 16.6 36.0 16.3 37.0 C 16.0 38.0 17.9 38.6 17.8 38.2 C 17.7 38.3 17.7 38.3 17.7 38.3 L 17.7 38.3 L 17.7 38.3 L 17.8 38.2 L 18.5 38.1 C 19.0 38.0 19.6 37.9 20.1 37.7 C 22.4 37.3 24.7 36.7 25.2 36.6 C 26.0 36.4 27.9 35.4 27.0 35.4 " fill="#FEFB00"></path></g></svg>