<?xml version="1.0" encoding="UTF-8" standalone="no"?><svg xmlns="http://www.w3.org/2000/svg" xmlns:xlink="http://www.w3.org/1999/xlink" clip-rule="evenodd" stroke-miterlimit="4.00" viewBox="0 0 1024 768"><desc>SVG generated by Keynote</desc><defs></defs><g transform="matrix(1.00, 0.00, -0.00, -1.00, 0.0, 768.0)"><path d="M 0.0 768.0 L 1024.0 768.0 L 1024.0 0.0 L 0.0 0.0 Z M 0.0 768.0 " fill="#000000"></path><text xml:space="preserve" font-family="AvenirNext-DemiBold" font-weight="bold" font-size="53.0" fill="#FEFFFF" transform="matrix(1.00, 0.00, -0.00, -1.00, 74.0, 677.0)">I</text><text xml:space="preserve" font-family="AvenirNext-DemiBold" font-weight="bold" font-size="53.0" fill="#FEFFFF" transform="matrix(1.00, 0.00, -0.00, -1.00, 88.9, 677.0)">N</text><text xml:space="preserve" font-family="AvenirNext-DemiBold" font-weight="bold" font-size="53.0" fill="#FEFFFF" transform="matrix(1.00, 0.00, -0.00, -1.00, 130.3, 677.0)">S</text><text xml:space="preserve" font-family="AvenirNext-DemiBold" font-weight="bold" font-size="53.0" fill="#FEFFFF" transform="matrix(1.00, 0.00, -0.00, -1.00, 160.7, 677.0)">c</text><text xml:space="preserve" font-family="AvenirNext-DemiBold" font-weight="bold" font-size="53.0" fill="#FEFFFF" transform="matrix(1.00, 0.00, -0.00, -1.00, 186.6, 677.0)">o</text><text xml:space="preserve" font-family="AvenirNext-DemiBold" font-weight="bold" font-size="53.0" fill="#FEFFFF" transform="matrix(1.00, 0.00, -0.00, -1.00, 218.9, 677.0)">r</text><text xml:space="preserve" font-family="AvenirNext-DemiBold" font-weight="bold" font-size="53.0" fill="#FEFFFF" transform="matrix(1.00, 0.00, -0.00, -1.00, 237.2, 677.0)">e</text><text xml:space="preserve" font-family="Avenir-Book" font-size="18.0" fill="#D5D5D5" transform="matrix(1.00, 0.00, -0.00, -1.00, 30.0, 28.0)">4</text><text xml:space="preserve" font-family="Avenir-Book" font-size="18.0" fill="#D5D5D5" transform="matrix(1.00, 0.00, -0.00, -1.00, 40.0, 28.0)">3</text><text xml:space="preserve" font-family="Avenir-Book" font-size="27.5" fill="#FEFFFF" transform="matrix(1.00, 0.00, -0.00, -1.00, 74.0, 633.0)">A</text><text xml:space="preserve" font-family="Avenir-Book" font-size="27.5" fill="#FEFFFF" transform="matrix(1.00, 0.00, -0.00, -1.00, 92.9, 633.0)">n</text><text xml:space="preserve" font-family="Avenir-Book" font-size="27.5" fill="#FEFFFF" transform="matrix(1.00, 0.00, -0.00, -1.00, 108.2, 633.0)"> </text><text xml:space="preserve" font-family="Avenir-Book" font-size="27.5" fill="#FEFFFF" transform="matrix(1.00, 0.00, -0.00, -1.00, 115.8, 633.0)">e</text><text xml:space="preserve" font-family="Avenir-Book" font-size="27.5" fill="#FEFFFF" transform="matrix(1.00, 0.00, -0.00, -1.00, 131.1, 633.0)">n</text><text xml:space="preserve" font-family="Avenir-Book" font-size="27.5" fill="#FEFFFF" transform="matrix(1.00, 0.00, -0.00, -1.00, 146.4, 633.0)">v</text><text xml:space="preserve" font-family="Avenir-Book" font-size="27.5" fill="#FEFFFF" transform="matrix(1.00, 0.00, -0.00, -1.00, 159.6, 633.0)">i</text><text xml:space="preserve" font-family="Avenir-Book" font-size="27.5" fill="#FEFFFF" transform="matrix(1.00, 0.00, -0.00, -1.00, 166.2, 633.0)">r</text><text xml:space="preserve" font-family="Avenir-Book" font-size="27.5" fill="#FEFFFF" transform="matrix(1.00, 0.00, -0.00, -1.00, 174.9, 633.0)">o</text><text xml:space="preserve" font-family="Avenir-Book" font-size="27.5" fill="#FEFFFF" transform="matrix(1.00, 0.00, -0.00, -1.00, 191.2, 633.0)">n</text><text xml:space="preserve" font-family="Avenir-Book" font-size="27.5" fill="#FEFFFF" transform="matrix(1.00, 0.00, -0.00, -1.00, 206.5, 633.0)">m</text><text xml:space="preserve" font-family="Avenir-Book" font-size="27.5" fill="#FEFFFF" transform="matrix(1.00, 0.00, -0.00, -1.00, 229.9, 633.0)">e</text><text xml:space="preserve" font-family="Avenir-Book" font-size="27.5" fill="#FEFFFF" transform="matrix(1.00, 0.00, -0.00, -1.00, 245.2, 633.0)">n</text><text xml:space="preserve" font-family="Avenir-Book" font-size="27.5" fill="#FEFFFF" transform="matrix(1.00, 0.00, -0.00, -1.00, 260.5, 633.0)">t</text><text xml:space="preserve" font-family="Avenir-Book" font-size="27.5" fill="#FEFFFF" transform="matrix(1.00, 0.00, -0.00, -1.00, 269.6, 633.0)"> </text><text xml:space="preserve" font-family="Avenir-Book" font-size="27.5" fill="#FEFFFF" transform="matrix(1.00, 0.00, -0.00, -1.00, 277.3, 633.0)">f</text><text xml:space="preserve" font-family="Avenir-Book" font-size="27.5" fill="#FEFFFF" transform="matrix(1.00, 0.00, -0.00, -1.00, 285.4, 633.0)">o</text><text xml:space="preserve" font-family="Avenir-Book" font-size="27.5" fill="#FEFFFF" transform="matrix(1.00, 0.00, -0.00, -1.00, 301.7, 633.0)">r</text><text xml:space="preserve" font-family="Avenir-Book" font-size="27.5" fill="#FEFFFF" transform="matrix(1.00, 0.00, -0.00, -1.00, 310.8, 633.0)"> </text><text xml:space="preserve" font-family="Avenir-Book" font-size="27.5" fill="#FEFFFF" transform="matrix(1.00, 0.00, -0.00, -1.00, 318.5, 633.0)">t</text><text xml:space="preserve" font-family="Avenir-Book" font-size="27.5" fill="#FEFFFF" transform="matrix(1.00, 0.00, -0.00, -1.00, 327.6, 633.0)">h</text><text xml:space="preserve" font-family="Avenir-Book" font-size="27.5" fill="#FEFFFF" transform="matrix(1.00, 0.00, -0.00, -1.00, 342.9, 633.0)">e</text><text xml:space="preserve" font-family="Avenir-Book" font-size="27.5" fill="#FEFFFF" transform="matrix(1.00, 0.00, -0.00, -1.00, 358.2, 633.0)"> </text><text xml:space="preserve" font-family="Avenir-Book" font-size="27.5" fill="#FEFFFF" transform="matrix(1.00, 0.00, -0.00, -1.00, 365.8, 633.0)">d</text><text xml:space="preserve" font-family="Avenir-Book" font-size="27.5" fill="#FEFFFF" transform="matrix(1.00, 0.00, -0.00, -1.00, 382.6, 633.0)">e</text><text xml:space="preserve" font-family="Avenir-Book" font-size="27.5" fill="#FEFFFF" transform="matrix(1.00, 0.00, -0.00, -1.00, 397.9, 633.0)">s</text><text xml:space="preserve" font-family="Avenir-Book" font-size="27.5" fill="#FEFFFF" transform="matrix(1.00, 0.00, -0.00, -1.00, 409.6, 633.0)">i</text><text xml:space="preserve" font-family="Avenir-Book" font-size="27.5" fill="#FEFFFF" transform="matrix(1.00, 0.00, -0.00, -1.00, 416.2, 633.0)">g</text><text xml:space="preserve" font-family="Avenir-Book" font-size="27.5" fill="#FEFFFF" transform="matrix(1.00, 0.00, -0.00, -1.00, 433.0, 633.0)">n</text><text xml:space="preserve" font-family="Avenir-Book" font-size="27.5" fill="#FEFFFF" transform="matrix(1.00, 0.00, -0.00, -1.00, 448.3, 633.0)"> </text><text xml:space="preserve" font-family="Avenir-Book" font-size="27.5" fill="#FEFFFF" transform="matrix(1.00, 0.00, -0.00, -1.00, 456.0, 633.0)">o</text><text xml:space="preserve" font-family="Avenir-Book" font-size="27.5" fill="#FEFFFF" transform="matrix(1.00, 0.00, -0.00, -1.00, 472.3, 633.0)">f</text><text xml:space="preserve" font-family="Avenir-Book" font-size="27.5" fill="#FEFFFF" transform="matrix(1.00, 0.00, -0.00, -1.00, 480.4, 633.0)"> </text><text xml:space="preserve" font-family="Avenir-Book" font-size="27.5" fill="#FEFFFF" transform="matrix(1.00, 0.00, -0.00, -1.00, 488.1, 633.0)">i</text><text xml:space="preserve" font-family="Avenir-Book" font-size="27.5" fill="#FEFFFF" transform="matrix(1.00, 0.00, -0.00, -1.00, 494.7, 633.0)">n</text><text xml:space="preserve" font-family="Avenir-Book" font-size="27.5" fill="#FEFFFF" transform="matrix(1.00, 0.00, -0.00, -1.00, 510.0, 633.0)">t</text><text xml:space="preserve" font-family="Avenir-Book" font-size="27.5" fill="#FEFFFF" transform="matrix(1.00, 0.00, -0.00, -1.00, 519.1, 633.0)">e</text><text xml:space="preserve" font-family="Avenir-Book" font-size="27.5" fill="#FEFFFF" transform="matrix(1.00, 0.00, -0.00, -1.00, 534.4, 633.0)">r</text><text xml:space="preserve" font-family="Avenir-Book" font-size="27.5" fill="#FEFFFF" transform="matrix(1.00, 0.00, -0.00, -1.00, 543.5, 633.0)">a</text><text xml:space="preserve" font-family="Avenir-Book" font-size="27.5" fill="#FEFFFF" transform="matrix(1.00, 0.00, -0.00, -1.00, 557.8, 633.0)">c</text><text xml:space="preserve" font-family="Avenir-Book" font-size="27.5" fill="#FEFFFF" transform="matrix(1.00, 0.00, -0.00, -1.00, 571.0, 633.0)">t</text><text xml:space="preserve" font-family="Avenir-Book" font-size="27.5" fill="#FEFFFF" transform="matrix(1.00, 0.00, -0.00, -1.00, 580.2, 633.0)">i</text><text xml:space="preserve" font-family="Avenir-Book" font-size="27.5" fill="#FEFFFF" transform="matrix(1.00, 0.00, -0.00, -1.00, 586.8, 633.0)">v</text><text xml:space="preserve" font-family="Avenir-Book" font-size="27.5" fill="#FEFFFF" transform="matrix(1.00, 0.00, -0.00, -1.00, 600.0, 633.0)">e</text><text xml:space="preserve" font-family="Avenir-Book" font-size="27.5" fill="#FEFFFF" transform="matrix(1.00, 0.00, -0.00, -1.00, 615.3, 633.0)"> </text><text xml:space="preserve" font-family="Avenir-Book" font-size="27.5" fill="#FEFFFF" transform="matrix(1.00, 0.00, -0.00, -1.00, 623.0, 633.0)">a</text><text xml:space="preserve" font-family="Avenir-Book" font-size="27.5" fill="#FEFFFF" transform="matrix(1.00, 0.00, -0.00, -1.00, 637.2, 633.0)">u</text><text xml:space="preserve" font-family="Avenir-Book" font-size="27.5" fill="#FEFFFF" transform="matrix(1.00, 0.00, -0.00, -1.00, 652.5, 633.0)">g</text><text xml:space="preserve" font-family="Avenir-Book" font-size="27.5" fill="#FEFFFF" transform="matrix(1.00, 0.00, -0.00, -1.00, 669.3, 633.0)">m</text><text xml:space="preserve" font-family="Avenir-Book" font-size="27.5" fill="#FEFFFF" transform="matrix(1.00, 0.00, -0.00, -1.00, 692.7, 633.0)">e</text><text xml:space="preserve" font-family="Avenir-Book" font-size="27.5" fill="#FEFFFF" transform="matrix(1.00, 0.00, -0.00, -1.00, 708.0, 633.0)">n</text><text xml:space="preserve" font-family="Avenir-Book" font-size="27.5" fill="#FEFFFF" transform="matrix(1.00, 0.00, -0.00, -1.00, 723.3, 633.0)">t</text><text xml:space="preserve" font-family="Avenir-Book" font-size="27.5" fill="#FEFFFF" transform="matrix(1.00, 0.00, -0.00, -1.00, 732.5, 633.0)">e</text><text xml:space="preserve" font-family="Avenir-Book" font-size="27.5" fill="#FEFFFF" transform="matrix(1.00, 0.00, -0.00, -1.00, 747.7, 633.0)">d</text><text xml:space="preserve" font-family="Avenir-Book" font-size="27.5" fill="#FEFFFF" transform="matrix(1.00, 0.00, -0.00, -1.00, 764.6, 633.0)"> </text><text xml:space="preserve" font-family="Avenir-Book" font-size="27.5" fill="#FEFFFF" transform="matrix(1.00, 0.00, -0.00, -1.00, 772.2, 633.0)">m</text><text xml:space="preserve" font-family="Avenir-Book" font-size="27.5" fill="#FEFFFF" transform="matrix(1.00, 0.00, -0.00, -1.00, 795.6, 633.0)">u</text><text xml:space="preserve" font-family="Avenir-Book" font-size="27.5" fill="#FEFFFF" transform="matrix(1.00, 0.00, -0.00, -1.00, 810.9, 633.0)">s</text><text xml:space="preserve" font-family="Avenir-Book" font-size="27.5" fill="#FEFFFF" transform="matrix(1.00, 0.00, -0.00, -1.00, 822.6, 633.0)">i</text><text xml:space="preserve" font-family="Avenir-Book" font-size="27.5" fill="#FEFFFF" transform="matrix(1.00, 0.00, -0.00, -1.00, 829.2, 633.0)">c</text><text xml:space="preserve" font-family="Avenir-Book" font-size="27.5" fill="#FEFFFF" transform="matrix(1.00, 0.00, -0.00, -1.00, 842.5, 633.0)"> </text><text xml:space="preserve" font-family="Avenir-Book" font-size="27.5" fill="#FEFFFF" transform="matrix(1.00, 0.00, -0.00, -1.00, 850.1, 633.0)">s</text><text xml:space="preserve" font-family="Avenir-Book" font-size="27.5" fill="#FEFFFF" transform="matrix(1.00, 0.00, -0.00, -1.00, 861.8, 633.0)">c</text><text xml:space="preserve" font-family="Avenir-Book" font-size="27.5" fill="#FEFFFF" transform="matrix(1.00, 0.00, -0.00, -1.00, 875.1, 633.0)">o</text><text xml:space="preserve" font-family="Avenir-Book" font-size="27.5" fill="#FEFFFF" transform="matrix(1.00, 0.00, -0.00, -1.00, 891.4, 633.0)">r</text><text xml:space="preserve" font-family="Avenir-Book" font-size="27.5" fill="#FEFFFF" transform="matrix(1.00, 0.00, -0.00, -1.00, 900.0, 633.0)">e</text><text xml:space="preserve" font-family="Avenir-Book" font-size="27.5" fill="#FEFFFF" transform="matrix(1.00, 0.00, -0.00, -1.00, 915.3, 633.0)">s</text><image xlink:href="../../B04F1C97-ECAB-4D96-BED1-068678BAA01E/assets/BEF333F0D2746660C5E29CAA3BCC24B1.png" width="236.00" height="101.00" transform="matrix(1.00, 0.00, -0.00, -1.00, -285.0, 1087.0)"></image><text xml:space="preserve" font-family="Avenir-Heavy" font-weight="bold" font-size="34.0" fill="#DCDDE0" transform="matrix(1.00, 0.00, -0.00, -1.00, 77.0, 566.0)">I</text><text xml:space="preserve" font-family="Avenir-Heavy" font-weight="bold" font-size="34.0" fill="#DCDDE0" transform="matrix(1.00, 0.00, -0.00, -1.00, 86.5, 566.0)">n</text><text xml:space="preserve" font-family="Avenir-Heavy" font-weight="bold" font-size="34.0" fill="#DCDDE0" transform="matrix(1.00, 0.00, -0.00, -1.00, 106.0, 566.0)">t</text><text xml:space="preserve" font-family="Avenir-Heavy" font-weight="bold" font-size="34.0" fill="#DCDDE0" transform="matrix(1.00, 0.00, -0.00, -1.00, 119.2, 566.0)">e</text><text xml:space="preserve" font-family="Avenir-Heavy" font-weight="bold" font-size="34.0" fill="#DCDDE0" transform="matrix(1.00, 0.00, -0.00, -1.00, 138.7, 566.0)">r</text><text xml:space="preserve" font-family="Avenir-Heavy" font-weight="bold" font-size="34.0" fill="#DCDDE0" transform="matrix(1.00, 0.00, -0.00, -1.00, 151.9, 566.0)">a</text><text xml:space="preserve" font-family="Avenir-Heavy" font-weight="bold" font-size="34.0" fill="#DCDDE0" transform="matrix(1.00, 0.00, -0.00, -1.00, 170.2, 566.0)">c</text><text xml:space="preserve" font-family="Avenir-Heavy" font-weight="bold" font-size="34.0" fill="#DCDDE0" transform="matrix(1.00, 0.00, -0.00, -1.00, 186.6, 566.0)">t</text><text xml:space="preserve" font-family="Avenir-Heavy" font-weight="bold" font-size="34.0" fill="#DCDDE0" transform="matrix(1.00, 0.00, -0.00, -1.00, 199.8, 566.0)">i</text><text xml:space="preserve" font-family="Avenir-Heavy" font-weight="bold" font-size="34.0" fill="#DCDDE0" transform="matrix(1.00, 0.00, -0.00, -1.00, 208.7, 566.0)">o</text><text xml:space="preserve" font-family="Avenir-Heavy" font-weight="bold" font-size="34.0" fill="#DCDDE0" transform="matrix(1.00, 0.00, -0.00, -1.00, 229.4, 566.0)">n</text><text xml:space="preserve" font-family="Avenir-Book" font-size="30.0" fill="#E42100" transform="matrix(1.00, 0.00, -0.00, -1.00, 73.2, 357.1)">•</text><text xml:space="preserve" font-family="Avenir-Book" font-size="24.0" fill="#FEFFFE" transform="matrix(1.00, 0.00, -0.00, -1.00, 107.0, 359.0)">a</text><text xml:space="preserve" font-family="Avenir-Book" font-size="24.0" fill="#FEFFFE" transform="matrix(1.00, 0.00, -0.00, -1.00, 119.5, 359.0)">n</text><text xml:space="preserve" font-family="Avenir-Book" font-size="24.0" fill="#FEFFFE" transform="matrix(1.00, 0.00, -0.00, -1.00, 132.8, 359.0)">y</text><text xml:space="preserve" font-family="Avenir-Book" font-size="24.0" fill="#FEFFFE" transform="matrix(1.00, 0.00, -0.00, -1.00, 144.4, 359.0)"> </text><text xml:space="preserve" font-family="Avenir-Book" font-size="24.0" fill="#FEFFFE" transform="matrix(1.00, 0.00, -0.00, -1.00, 151.0, 359.0)">o</text><text xml:space="preserve" font-family="Avenir-Book" font-size="24.0" fill="#FEFFFE" transform="matrix(1.00, 0.00, -0.00, -1.00, 165.3, 359.0)">b</text><text xml:space="preserve" font-family="Avenir-Book" font-size="24.0" fill="#FEFFFE" transform="matrix(1.00, 0.00, -0.00, -1.00, 179.9, 359.0)">j</text><text xml:space="preserve" font-family="Avenir-Book" font-size="24.0" fill="#FEFFFE" transform="matrix(1.00, 0.00, -0.00, -1.00, 185.7, 359.0)">e</text><text xml:space="preserve" font-family="Avenir-Book" font-size="24.0" fill="#FEFFFE" transform="matrix(1.00, 0.00, -0.00, -1.00, 199.0, 359.0)">c</text><text xml:space="preserve" font-family="Avenir-Book" font-size="24.0" fill="#FEFFFE" transform="matrix(1.00, 0.00, -0.00, -1.00, 210.6, 359.0)">t</text><text xml:space="preserve" font-family="Avenir-Book" font-size="24.0" fill="#FEFFFE" transform="matrix(1.00, 0.00, -0.00, -1.00, 218.6, 359.0)"> </text><text xml:space="preserve" font-family="Avenir-Book" font-size="24.0" fill="#FEFFFE" transform="matrix(1.00, 0.00, -0.00, -1.00, 225.2, 359.0)">a</text><text xml:space="preserve" font-family="Avenir-Book" font-size="24.0" fill="#FEFFFE" transform="matrix(1.00, 0.00, -0.00, -1.00, 237.7, 359.0)">t</text><text xml:space="preserve" font-family="Avenir-Book" font-size="24.0" fill="#FEFFFE" transform="matrix(1.00, 0.00, -0.00, -1.00, 245.7, 359.0)">t</text><text xml:space="preserve" font-family="Avenir-Book" font-size="24.0" fill="#FEFFFE" transform="matrix(1.00, 0.00, -0.00, -1.00, 253.6, 359.0)">r</text><text xml:space="preserve" font-family="Avenir-Book" font-size="24.0" fill="#FEFFFE" transform="matrix(1.00, 0.00, -0.00, -1.00, 261.6, 359.0)">i</text><text xml:space="preserve" font-family="Avenir-Book" font-size="24.0" fill="#FEFFFE" transform="matrix(1.00, 0.00, -0.00, -1.00, 267.4, 359.0)">b</text><text xml:space="preserve" font-family="Avenir-Book" font-size="24.0" fill="#FEFFFE" transform="matrix(1.00, 0.00, -0.00, -1.00, 282.0, 359.0)">u</text><text xml:space="preserve" font-family="Avenir-Book" font-size="24.0" fill="#FEFFFE" transform="matrix(1.00, 0.00, -0.00, -1.00, 295.4, 359.0)">t</text><text xml:space="preserve" font-family="Avenir-Book" font-size="24.0" fill="#FEFFFE" transform="matrix(1.00, 0.00, -0.00, -1.00, 303.3, 359.0)">e</text><text xml:space="preserve" font-family="Avenir-Book" font-size="24.0" fill="#FEFFFE" transform="matrix(1.00, 0.00, -0.00, -1.00, 316.7, 359.0)"> </text><text xml:space="preserve" font-family="Avenir-Book" font-size="24.0" fill="#FEFFFE" transform="matrix(1.00, 0.00, -0.00, -1.00, 323.4, 359.0)">(</text><text xml:space="preserve" font-family="Avenir-Book" font-size="24.0" fill="#FEFFFE" transform="matrix(1.00, 0.00, -0.00, -1.00, 329.6, 359.0)">x</text><text xml:space="preserve" font-family="Avenir-Book" font-size="24.0" fill="#FEFFFE" transform="matrix(1.00, 0.00, -0.00, -1.00, 341.2, 359.0)">,</text><text xml:space="preserve" font-family="Avenir-Book" font-size="24.0" fill="#FEFFFE" transform="matrix(1.00, 0.00, -0.00, -1.00, 347.8, 359.0)"> </text><text xml:space="preserve" font-family="Avenir-Book" font-size="24.0" fill="#FEFFFE" transform="matrix(1.00, 0.00, -0.00, -1.00, 354.5, 359.0)">y</text><text xml:space="preserve" font-family="Avenir-Book" font-size="24.0" fill="#FEFFFE" transform="matrix(1.00, 0.00, -0.00, -1.00, 363.9, 359.0)">,</text><text xml:space="preserve" font-family="Avenir-Book" font-size="24.0" fill="#FEFFFE" transform="matrix(1.00, 0.00, -0.00, -1.00, 370.5, 359.0)"> </text><text xml:space="preserve" font-family="Avenir-Book" font-size="24.0" fill="#FEFFFE" transform="matrix(1.00, 0.00, -0.00, -1.00, 377.2, 359.0)">d</text><text xml:space="preserve" font-family="Avenir-Book" font-size="24.0" fill="#FEFFFE" transform="matrix(1.00, 0.00, -0.00, -1.00, 391.9, 359.0)">a</text><text xml:space="preserve" font-family="Avenir-Book" font-size="24.0" fill="#FEFFFE" transform="matrix(1.00, 0.00, -0.00, -1.00, 404.3, 359.0)">t</text><text xml:space="preserve" font-family="Avenir-Book" font-size="24.0" fill="#FEFFFE" transform="matrix(1.00, 0.00, -0.00, -1.00, 412.3, 359.0)">e</text><text xml:space="preserve" font-family="Avenir-Book" font-size="24.0" fill="#FEFFFE" transform="matrix(1.00, 0.00, -0.00, -1.00, 425.6, 359.0)">,</text><text xml:space="preserve" font-family="Avenir-Book" font-size="24.0" fill="#FEFFFE" transform="matrix(1.00, 0.00, -0.00, -1.00, 432.3, 359.0)"> </text><text xml:space="preserve" font-family="Avenir-Book" font-size="24.0" fill="#FEFFFE" transform="matrix(1.00, 0.00, -0.00, -1.00, 439.0, 359.0)">c</text><text xml:space="preserve" font-family="Avenir-Book" font-size="24.0" fill="#FEFFFE" transform="matrix(1.00, 0.00, -0.00, -1.00, 450.6, 359.0)">o</text><text xml:space="preserve" font-family="Avenir-Book" font-size="24.0" fill="#FEFFFE" transform="matrix(1.00, 0.00, -0.00, -1.00, 464.8, 359.0)">l</text><text xml:space="preserve" font-family="Avenir-Book" font-size="24.0" fill="#FEFFFE" transform="matrix(1.00, 0.00, -0.00, -1.00, 470.6, 359.0)">o</text><text xml:space="preserve" font-family="Avenir-Book" font-size="24.0" fill="#FEFFFE" transform="matrix(1.00, 0.00, -0.00, -1.00, 484.8, 359.0)">r</text><text xml:space="preserve" font-family="Avenir-Book" font-size="24.0" fill="#FEFFFE" transform="matrix(1.00, 0.00, -0.00, -1.00, 492.8, 359.0)">…</text><text xml:space="preserve" font-family="Avenir-Book" font-size="24.0" fill="#FEFFFE" transform="matrix(1.00, 0.00, -0.00, -1.00, 516.8, 359.0)">)</text><text xml:space="preserve" font-family="Avenir-Book" font-size="24.0" fill="#FEFFFE" transform="matrix(1.00, 0.00, -0.00, -1.00, 523.0, 359.0)"> </text><text xml:space="preserve" font-family="Avenir-Book" font-size="30.0" fill="#E42100" transform="matrix(1.00, 0.00, -0.00, -1.00, 73.2, 324.1)">•</text><text xml:space="preserve" font-family="Avenir-Book" font-size="24.0" fill="#FEFFFE" transform="matrix(1.00, 0.00, -0.00, -1.00, 107.0, 326.0)">u</text><text xml:space="preserve" font-family="Avenir-Book" font-size="24.0" fill="#FEFFFE" transform="matrix(1.00, 0.00, -0.00, -1.00, 120.3, 326.0)">s</text><text xml:space="preserve" font-family="Avenir-Book" font-size="24.0" fill="#FEFFFE" transform="matrix(1.00, 0.00, -0.00, -1.00, 130.6, 326.0)">e</text><text xml:space="preserve" font-family="Avenir-Book" font-size="24.0" fill="#FEFFFE" transform="matrix(1.00, 0.00, -0.00, -1.00, 143.9, 326.0)">r</text><text xml:space="preserve" font-family="Avenir-Book" font-size="24.0" fill="#FEFFFE" transform="matrix(1.00, 0.00, -0.00, -1.00, 151.9, 326.0)"> </text><text xml:space="preserve" font-family="Avenir-Book" font-size="24.0" fill="#FEFFFE" transform="matrix(1.00, 0.00, -0.00, -1.00, 158.6, 326.0)">d</text><text xml:space="preserve" font-family="Avenir-Book" font-size="24.0" fill="#FEFFFE" transform="matrix(1.00, 0.00, -0.00, -1.00, 173.2, 326.0)">e</text><text xml:space="preserve" font-family="Avenir-Book" font-size="24.0" fill="#FEFFFE" transform="matrix(1.00, 0.00, -0.00, -1.00, 186.6, 326.0)">f</text><text xml:space="preserve" font-family="Avenir-Book" font-size="24.0" fill="#FEFFFE" transform="matrix(1.00, 0.00, -0.00, -1.00, 193.7, 326.0)">i</text><text xml:space="preserve" font-family="Avenir-Book" font-size="24.0" fill="#FEFFFE" transform="matrix(1.00, 0.00, -0.00, -1.00, 199.4, 326.0)">n</text><text xml:space="preserve" font-family="Avenir-Book" font-size="24.0" fill="#FEFFFE" transform="matrix(1.00, 0.00, -0.00, -1.00, 212.8, 326.0)">e</text><text xml:space="preserve" font-family="Avenir-Book" font-size="24.0" fill="#FEFFFE" transform="matrix(1.00, 0.00, -0.00, -1.00, 226.1, 326.0)"> </text><text xml:space="preserve" font-family="Avenir-Book" font-size="24.0" fill="#FEFFFE" transform="matrix(1.00, 0.00, -0.00, -1.00, 232.8, 326.0)">e</text><text xml:space="preserve" font-family="Avenir-Book" font-size="24.0" fill="#FEFFFE" transform="matrix(1.00, 0.00, -0.00, -1.00, 246.1, 326.0)">v</text><text xml:space="preserve" font-family="Avenir-Book" font-size="24.0" fill="#FEFFFE" transform="matrix(1.00, 0.00, -0.00, -1.00, 257.7, 326.0)">e</text><text xml:space="preserve" font-family="Avenir-Book" font-size="24.0" fill="#FEFFFE" transform="matrix(1.00, 0.00, -0.00, -1.00, 271.0, 326.0)">n</text><text xml:space="preserve" font-family="Avenir-Book" font-size="24.0" fill="#FEFFFE" transform="matrix(1.00, 0.00, -0.00, -1.00, 284.4, 326.0)">t</text><text xml:space="preserve" font-family="Avenir-Book" font-size="24.0" fill="#FEFFFE" transform="matrix(1.00, 0.00, -0.00, -1.00, 292.4, 326.0)">s</text><text xml:space="preserve" font-family="Avenir-Book" font-size="24.0" fill="#FEFFFE" transform="matrix(1.00, 0.00, -0.00, -1.00, 302.6, 326.0)"> </text><text xml:space="preserve" font-family="Avenir-Book" font-size="24.0" fill="#FEFFFE" transform="matrix(1.00, 0.00, -0.00, -1.00, 309.2, 326.0)">(</text><text xml:space="preserve" font-family="Avenir-Book" font-size="24.0" fill="#FEFFFE" transform="matrix(1.00, 0.00, -0.00, -1.00, 315.5, 326.0)">i</text><text xml:space="preserve" font-family="Avenir-Book" font-size="24.0" fill="#FEFFFE" transform="matrix(1.00, 0.00, -0.00, -1.00, 321.2, 326.0)">n</text><text xml:space="preserve" font-family="Avenir-Book" font-size="24.0" fill="#FEFFFE" transform="matrix(1.00, 0.00, -0.00, -1.00, 334.6, 326.0)"> </text><text xml:space="preserve" font-family="Avenir-Book" font-size="24.0" fill="#FEFFFE" transform="matrix(1.00, 0.00, -0.00, -1.00, 341.3, 326.0)">c</text><text xml:space="preserve" font-family="Avenir-Book" font-size="24.0" fill="#FEFFFE" transform="matrix(1.00, 0.00, -0.00, -1.00, 352.8, 326.0)">a</text><text xml:space="preserve" font-family="Avenir-Book" font-size="24.0" fill="#FEFFFE" transform="matrix(1.00, 0.00, -0.00, -1.00, 365.3, 326.0)">p</text><text xml:space="preserve" font-family="Avenir-Book" font-size="24.0" fill="#FEFFFE" transform="matrix(1.00, 0.00, -0.00, -1.00, 380.0, 326.0)">i</text><text xml:space="preserve" font-family="Avenir-Book" font-size="24.0" fill="#FEFFFE" transform="matrix(1.00, 0.00, -0.00, -1.00, 385.7, 326.0)">t</text><text xml:space="preserve" font-family="Avenir-Book" font-size="24.0" fill="#FEFFFE" transform="matrix(1.00, 0.00, -0.00, -1.00, 393.7, 326.0)">a</text><text xml:space="preserve" font-family="Avenir-Book" font-size="24.0" fill="#FEFFFE" transform="matrix(1.00, 0.00, -0.00, -1.00, 406.1, 326.0)">l</text><text xml:space="preserve" font-family="Avenir-Book" font-size="24.0" fill="#FEFFFE" transform="matrix(1.00, 0.00, -0.00, -1.00, 411.9, 326.0)"> </text><text xml:space="preserve" font-family="Avenir-Book" font-size="24.0" fill="#FEFFFE" transform="matrix(1.00, 0.00, -0.00, -1.00, 418.6, 326.0)">l</text><text xml:space="preserve" font-family="Avenir-Book" font-size="24.0" fill="#FEFFFE" transform="matrix(1.00, 0.00, -0.00, -1.00, 424.3, 326.0)">e</text><text xml:space="preserve" font-family="Avenir-Book" font-size="24.0" fill="#FEFFFE" transform="matrix(1.00, 0.00, -0.00, -1.00, 437.7, 326.0)">t</text><text xml:space="preserve" font-family="Avenir-Book" font-size="24.0" fill="#FEFFFE" transform="matrix(1.00, 0.00, -0.00, -1.00, 445.6, 326.0)">t</text><text xml:space="preserve" font-family="Avenir-Book" font-size="24.0" fill="#FEFFFE" transform="matrix(1.00, 0.00, -0.00, -1.00, 453.6, 326.0)">e</text><text xml:space="preserve" font-family="Avenir-Book" font-size="24.0" fill="#FEFFFE" transform="matrix(1.00, 0.00, -0.00, -1.00, 467.0, 326.0)">r</text><text xml:space="preserve" font-family="Avenir-Book" font-size="24.0" fill="#FEFFFE" transform="matrix(1.00, 0.00, -0.00, -1.00, 474.9, 326.0)">s</text><text xml:space="preserve" font-family="Avenir-Book" font-size="24.0" fill="#FEFFFE" transform="matrix(1.00, 0.00, -0.00, -1.00, 485.1, 326.0)"> </text><text xml:space="preserve" font-family="Avenir-Book" font-size="24.0" fill="#FEFFFE" transform="matrix(1.00, 0.00, -0.00, -1.00, 491.8, 326.0)">a</text><text xml:space="preserve" font-family="Avenir-Book" font-size="24.0" fill="#FEFFFE" transform="matrix(1.00, 0.00, -0.00, -1.00, 504.3, 326.0)">n</text><text xml:space="preserve" font-family="Avenir-Book" font-size="24.0" fill="#FEFFFE" transform="matrix(1.00, 0.00, -0.00, -1.00, 517.6, 326.0)">d</text><text xml:space="preserve" font-family="Avenir-Book" font-size="24.0" fill="#FEFFFE" transform="matrix(1.00, 0.00, -0.00, -1.00, 532.3, 326.0)">/</text><text xml:space="preserve" font-family="Avenir-Book" font-size="24.0" fill="#FEFFFE" transform="matrix(1.00, 0.00, -0.00, -1.00, 541.2, 326.0)">o</text><text xml:space="preserve" font-family="Avenir-Book" font-size="24.0" fill="#FEFFFE" transform="matrix(1.00, 0.00, -0.00, -1.00, 555.4, 326.0)">r</text><text xml:space="preserve" font-family="Avenir-Book" font-size="24.0" fill="#FEFFFE" transform="matrix(1.00, 0.00, -0.00, -1.00, 563.4, 326.0)"> </text><text xml:space="preserve" font-family="Avenir-Book" font-size="24.0" fill="#FEFFFE" transform="matrix(1.00, 0.00, -0.00, -1.00, 570.0, 326.0)">n</text><text xml:space="preserve" font-family="Avenir-Book" font-size="24.0" fill="#FEFFFE" transform="matrix(1.00, 0.00, -0.00, -1.00, 583.4, 326.0)">u</text><text xml:space="preserve" font-family="Avenir-Book" font-size="24.0" fill="#FEFFFE" transform="matrix(1.00, 0.00, -0.00, -1.00, 596.7, 326.0)">m</text><text xml:space="preserve" font-family="Avenir-Book" font-size="24.0" fill="#FEFFFE" transform="matrix(1.00, 0.00, -0.00, -1.00, 617.2, 326.0)">b</text><text xml:space="preserve" font-family="Avenir-Book" font-size="24.0" fill="#FEFFFE" transform="matrix(1.00, 0.00, -0.00, -1.00, 631.8, 326.0)">e</text><text xml:space="preserve" font-family="Avenir-Book" font-size="24.0" fill="#FEFFFE" transform="matrix(1.00, 0.00, -0.00, -1.00, 645.2, 326.0)">r</text><text xml:space="preserve" font-family="Avenir-Book" font-size="24.0" fill="#FEFFFE" transform="matrix(1.00, 0.00, -0.00, -1.00, 653.1, 326.0)">s</text><text xml:space="preserve" font-family="Avenir-Book" font-size="24.0" fill="#FEFFFE" transform="matrix(1.00, 0.00, -0.00, -1.00, 663.4, 326.0)">)</text><text xml:space="preserve" font-family="Avenir-Book" font-size="24.0" fill="#FEFFFE" transform="matrix(1.00, 0.00, -0.00, -1.00, 669.6, 326.0)"> </text><text xml:space="preserve" font-family="Avenir-Book" font-size="36.0" fill="#FEFFFE" transform="matrix(1.00, 0.00, -0.00, -1.00, 106.0, 408.0)">E</text><text xml:space="preserve" font-family="Avenir-Book" font-size="36.0" fill="#FEFFFE" transform="matrix(1.00, 0.00, -0.00, -1.00, 127.3, 408.0)">v</text><text xml:space="preserve" font-family="Avenir-Book" font-size="36.0" fill="#FEFFFE" transform="matrix(1.00, 0.00, -0.00, -1.00, 144.7, 408.0)">e</text><text xml:space="preserve" font-family="Avenir-Book" font-size="36.0" fill="#FEFFFE" transform="matrix(1.00, 0.00, -0.00, -1.00, 164.7, 408.0)">n</text><text xml:space="preserve" font-family="Avenir-Book" font-size="36.0" fill="#FEFFFE" transform="matrix(1.00, 0.00, -0.00, -1.00, 184.7, 408.0)">t</text><text xml:space="preserve" font-family="Avenir-Book" font-size="36.0" fill="#FEFFFE" transform="matrix(1.00, 0.00, -0.00, -1.00, 196.7, 408.0)">s</text><text xml:space="preserve" font-family="Avenir-Book" font-size="36.0" fill="#FEFFFE" transform="matrix(1.00, 0.00, -0.00, -1.00, 212.0, 408.0)"> </text><text xml:space="preserve" font-family="Avenir-Book" font-size="36.0" fill="#FEFFFE" transform="matrix(1.00, 0.00, -0.00, -1.00, 222.0, 408.0)">e</text><text xml:space="preserve" font-family="Avenir-Book" font-size="36.0" fill="#FEFFFE" transform="matrix(1.00, 0.00, -0.00, -1.00, 242.0, 408.0)">x</text><text xml:space="preserve" font-family="Avenir-Book" font-size="36.0" fill="#FEFFFE" transform="matrix(1.00, 0.00, -0.00, -1.00, 259.4, 408.0)">t</text><text xml:space="preserve" font-family="Avenir-Book" font-size="36.0" fill="#FEFFFE" transform="matrix(1.00, 0.00, -0.00, -1.00, 271.3, 408.0)">e</text><text xml:space="preserve" font-family="Avenir-Book" font-size="36.0" fill="#FEFFFE" transform="matrix(1.00, 0.00, -0.00, -1.00, 291.4, 408.0)">n</text><text xml:space="preserve" font-family="Avenir-Book" font-size="36.0" fill="#FEFFFE" transform="matrix(1.00, 0.00, -0.00, -1.00, 311.4, 408.0)">s</text><text xml:space="preserve" font-family="Avenir-Book" font-size="36.0" fill="#FEFFFE" transform="matrix(1.00, 0.00, -0.00, -1.00, 326.7, 408.0)">i</text><text xml:space="preserve" font-family="Avenir-Book" font-size="36.0" fill="#FEFFFE" transform="matrix(1.00, 0.00, -0.00, -1.00, 335.4, 408.0)">o</text><text xml:space="preserve" font-family="Avenir-Book" font-size="36.0" fill="#FEFFFE" transform="matrix(1.00, 0.00, -0.00, -1.00, 356.7, 408.0)">n</text><g><clipPath id="clip-647"><path d="M 185.0 447.0 L 875.7 447.0 L 875.7 550.1 L 185.0 550.1 Z M 185.0 447.0 "></path></clipPath><g clip-path="url(#clip-647)"><image xlink:href="../../E00DE75B-55CE-46D0-A584-ADAC1C344A26/assets/78F632E1D2E6999108E7A5445581208C.png" width="118.00" height="54.00" transform="matrix(1.55, 0.00, -0.00, -1.56, 230.8, 530.5)"></image><image xlink:href="../../E00DE75B-55CE-46D0-A584-ADAC1C344A26/assets/78F632E1D2E6999108E7A5445581208C.png" width="118.00" height="54.00" transform="matrix(1.55, 0.00, -0.00, -1.56, 632.8, 530.5)"></image><image xlink:href="../../E00DE75B-55CE-46D0-A584-ADAC1C344A26/assets/D6897EACCE3F13E4BBC79E3486F78987.png" width="78.00" height="54.00" transform="matrix(1.55, 0.00, -0.00, -1.56, 513.3, 530.5)"></image><path d="M 247.9 519.6 L 396.9 519.6 L 396.9 469.6 L 247.9 469.6 Z M 247.9 519.6 " fill="#FEFFFF"></path><path d="M 98.0 667.0 L 194.0 667.0 L 194.0 699.0 L 98.0 699.0 Z M 98.0 667.0 " fill="none" stroke="#000000" stroke-width="1.00" stroke-miterlimit="0.00" stroke-linecap="round" stroke-linejoin="round" transform="matrix(1.55, 0.00, 0.00, -1.56, 95.8, 1561.2)"></path><text xml:space="preserve" font-family="Helvetica" font-size="12.0" fill="#000000" transform="matrix(1.55, 0.00, -0.00, -1.56, 265.1, 489.2)">O</text><text xml:space="preserve" font-family="Helvetica" font-size="12.0" fill="#000000" transform="matrix(1.55, 0.00, -0.00, -1.56, 279.5, 489.2)">S</text><text xml:space="preserve" font-family="Helvetica" font-size="12.0" fill="#000000" transform="matrix(1.55, 0.00, -0.00, -1.56, 292.0, 489.2)">C</text><text xml:space="preserve" font-family="Helvetica" font-size="12.0" fill="#000000" transform="matrix(1.55, 0.00, -0.00, -1.56, 305.4, 489.2)"> </text><text xml:space="preserve" font-family="Helvetica" font-size="12.0" fill="#000000" transform="matrix(1.55, 0.00, -0.00, -1.56, 310.6, 489.2)">a</text><text xml:space="preserve" font-family="Helvetica" font-size="12.0" fill="#000000" transform="matrix(1.55, 0.00, -0.00, -1.56, 321.0, 489.2)">d</text><text xml:space="preserve" font-family="Helvetica" font-size="12.0" fill="#000000" transform="matrix(1.55, 0.00, -0.00, -1.56, 331.3, 489.2)">d</text><text xml:space="preserve" font-family="Helvetica" font-size="12.0" fill="#000000" transform="matrix(1.55, 0.00, -0.00, -1.56, 341.7, 489.2)">r</text><text xml:space="preserve" font-family="Helvetica" font-size="12.0" fill="#000000" transform="matrix(1.55, 0.00, -0.00, -1.56, 347.9, 489.2)">e</text><text xml:space="preserve" font-family="Helvetica" font-size="12.0" fill="#000000" transform="matrix(1.55, 0.00, -0.00, -1.56, 358.2, 489.2)">s</text><text xml:space="preserve" font-family="Helvetica" font-size="12.0" fill="#000000" transform="matrix(1.55, 0.00, -0.00, -1.56, 367.6, 489.2)">s</text><path d="M 425.0 514.9 L 499.5 514.9 L 499.5 475.9 L 425.0 475.9 Z M 425.0 514.9 " fill="#FEFFFF"></path><text xml:space="preserve" font-family="Courier" font-size="12.0" fill="#1032FF" transform="matrix(1.55, 0.00, -0.00, -1.56, 434.3, 489.2)">w</text><text xml:space="preserve" font-family="Courier" font-size="12.0" fill="#1032FF" transform="matrix(1.55, 0.00, -0.00, -1.56, 445.4, 489.2)">a</text><text xml:space="preserve" font-family="Courier" font-size="12.0" fill="#1032FF" transform="matrix(1.55, 0.00, -0.00, -1.56, 456.6, 489.2)">t</text><text xml:space="preserve" font-family="Courier" font-size="12.0" fill="#1032FF" transform="matrix(1.55, 0.00, -0.00, -1.56, 467.8, 489.2)">c</text><text xml:space="preserve" font-family="Courier" font-size="12.0" fill="#1032FF" transform="matrix(1.55, 0.00, -0.00, -1.56, 479.0, 489.2)">h</text><path d="M 649.9 519.6 L 798.9 519.6 L 798.9 469.6 L 649.9 469.6 Z M 649.9 519.6 " fill="#FEFFFF"></path><path d="M 357.0 667.0 L 453.0 667.0 L 453.0 699.0 L 357.0 699.0 Z M 357.0 667.0 " fill="none" stroke="#000000" stroke-width="1.00" stroke-miterlimit="0.00" stroke-linecap="round" stroke-linejoin="round" transform="matrix(1.55, 0.00, 0.00, -1.56, 95.8, 1561.2)"></path><text xml:space="preserve" font-family="Helvetica" font-size="12.0" fill="#000000" transform="matrix(1.55, 0.00, -0.00, -1.56, 685.2, 489.2)">m</text><text xml:space="preserve" font-family="Helvetica" font-size="12.0" fill="#000000" transform="matrix(1.55, 0.00, -0.00, -1.56, 700.7, 489.2)">e</text><text xml:space="preserve" font-family="Helvetica" font-size="12.0" fill="#000000" transform="matrix(1.55, 0.00, -0.00, -1.56, 711.1, 489.2)">s</text><text xml:space="preserve" font-family="Helvetica" font-size="12.0" fill="#000000" transform="matrix(1.55, 0.00, -0.00, -1.56, 720.4, 489.2)">s</text><text xml:space="preserve" font-family="Helvetica" font-size="12.0" fill="#000000" transform="matrix(1.55, 0.00, -0.00, -1.56, 729.7, 489.2)">a</text><text xml:space="preserve" font-family="Helvetica" font-size="12.0" fill="#000000" transform="matrix(1.55, 0.00, -0.00, -1.56, 740.0, 489.2)">g</text><text xml:space="preserve" font-family="Helvetica" font-size="12.0" fill="#000000" transform="matrix(1.55, 0.00, -0.00, -1.56, 750.4, 489.2)">e</text><path d="M 336.0 683.0 L 344.0 683.0 L 349.0 683.0 L 357.0 683.0 " fill="none" stroke="#EDDB78" stroke-width="2.00" stroke-miterlimit="0.00" transform="matrix(1.55, 0.00, 0.00, -1.56, 95.8, 1561.2)"></path><path d="M 453.0 683.0 L 461.0 683.0 L 495.0 683.0 L 495.0 682.0 " fill="none" stroke="#EDDB78" stroke-width="2.00" stroke-miterlimit="0.00" transform="matrix(1.55, 0.00, 0.00, -1.56, 95.8, 1561.2)"></path><path d="M 67.0 684.0 L 67.0 683.0 L 90.0 683.0 L 98.0 683.0 " fill="none" stroke="#EDDB78" stroke-width="2.00" stroke-miterlimit="0.00" transform="matrix(1.55, 0.00, 0.00, -1.56, 95.8, 1561.2)"></path><path d="M 530.3 519.6 L 617.3 519.6 L 617.3 469.6 L 530.3 469.6 Z M 530.3 519.6 " fill="#FEFFFF"></path><path d="M 280.0 667.0 L 336.0 667.0 L 336.0 699.0 L 280.0 699.0 Z M 280.0 667.0 " fill="none" stroke="#000000" stroke-width="1.00" stroke-miterlimit="0.00" stroke-linecap="round" stroke-linejoin="round" transform="matrix(1.55, 0.00, 0.00, -1.56, 95.8, 1561.2)"></path><text xml:space="preserve" font-family="Helvetica" font-size="12.0" fill="#000000" transform="matrix(1.55, 0.00, -0.00, -1.56, 549.6, 489.2)">e</text><text xml:space="preserve" font-family="Helvetica" font-size="12.0" fill="#000000" transform="matrix(1.55, 0.00, -0.00, -1.56, 560.0, 489.2)">v</text><text xml:space="preserve" font-family="Helvetica" font-size="12.0" fill="#000000" transform="matrix(1.55, 0.00, -0.00, -1.56, 569.3, 489.2)">e</text><text xml:space="preserve" font-family="Helvetica" font-size="12.0" fill="#000000" transform="matrix(1.55, 0.00, -0.00, -1.56, 579.7, 489.2)">n</text><text xml:space="preserve" font-family="Helvetica" font-size="12.0" fill="#000000" transform="matrix(1.55, 0.00, -0.00, -1.56, 590.0, 489.2)">t</text><path d="M 194.0 683.0 L 213.0 683.0 " fill="none" stroke="#EDDB78" stroke-width="2.00" stroke-miterlimit="0.00" stroke-linecap="round" stroke-linejoin="round" transform="matrix(1.55, 0.00, 0.00, -1.56, 95.8, 1561.2)"></path><path d="M 261.0 683.0 L 280.0 683.0 " fill="none" stroke="#EDDB78" stroke-width="2.00" stroke-miterlimit="0.00" stroke-linecap="round" stroke-linejoin="round" transform="matrix(1.55, 0.00, 0.00, -1.56, 95.8, 1561.2)"></path><path d="M 453.0 683.0 L 461.0 683.0 L 461.0 656.0 L 399.0 656.0 L 349.0 656.0 L 349.0 683.0 L 357.0 683.0 " fill="none" stroke="#EDDB78" stroke-width="2.00" stroke-miterlimit="0.00" transform="matrix(1.55, 0.00, 0.00, -1.56, 95.8, 1561.2)"></path></g></g></g></svg>