<?xml version="1.0" encoding="UTF-8" standalone="no"?><svg xmlns="http://www.w3.org/2000/svg" xmlns:xlink="http://www.w3.org/1999/xlink" clip-rule="evenodd" stroke-miterlimit="4.00" viewBox="0 0 104 246"><desc>SVG generated by Keynote</desc><defs></defs><g transform="matrix(1.00, 0.00, -0.00, -1.00, 0.0, 246.0)"><image xlink:href="../../32B68BF9-2C51-4245-B5D0-3DD6E596B850/assets/001CB043F5AE25FB51F4620A67DF5DE4.png" width="93.00" height="235.00" transform="matrix(1.00, 0.00, -0.00, -1.00, 9.8, 236.3)" opacity="0.71"></image><path d="M 79.6 211.0 C 79.7 211.4 80.2 213.1 80.3 213.1 C 80.1 212.5 79.7 211.1 79.6 211.0 C 79.6 211.0 79.6 211.0 79.6 211.0 Z M 78.5 207.4 C 78.6 208.1 79.1 209.5 79.3 209.9 C 79.0 209.2 78.6 207.6 78.5 207.4 C 78.5 207.4 78.5 207.4 78.5 207.4 Z M 80.3 212.8 C 80.6 213.7 81.1 215.5 81.3 215.9 C 81.0 215.0 80.5 213.2 80.3 212.8 C 80.3 212.8 80.3 212.8 80.3 212.8 Z M 63.8 163.2 C 63.9 163.7 64.5 165.4 64.5 165.4 C 64.3 164.8 63.9 163.4 63.8 163.2 C 63.8 163.2 63.8 163.2 63.8 163.2 Z M 67.0 173.1 C 67.2 173.7 67.6 175.1 67.8 175.5 C 67.6 174.8 67.1 173.3 67.0 173.1 C 67.0 173.1 67.0 173.1 67.0 173.1 Z M 68.8 178.8 C 69.2 180.1 69.6 181.6 69.6 181.3 C 69.4 180.9 68.9 178.9 68.8 178.8 C 68.8 178.8 68.8 178.8 68.8 178.8 Z M 82.6 210.9 C 82.1 209.4 81.8 208.4 81.5 207.4 C 80.0 202.6 82.2 209.9 82.6 210.9 C 82.6 210.9 82.6 210.9 82.6 210.9 Z M 72.1 188.8 C 71.8 187.9 71.5 187.1 71.4 186.6 C 71.6 187.5 72.0 188.8 72.1 188.8 C 72.1 188.8 72.1 188.8 72.1 188.8 Z M 74.7 197.1 C 74.8 197.3 76.3 202.2 77.2 204.9 C 76.5 202.6 74.7 196.9 74.7 197.1 C 74.7 197.1 74.7 197.1 74.7 197.1 Z M 79.0 199.3 C 78.0 196.1 76.4 191.0 75.7 188.7 C 74.9 186.4 76.9 192.8 78.7 198.7 C 80.6 204.6 79.2 199.7 79.9 202.1 C 80.7 204.5 79.3 199.8 78.5 197.4 C 77.7 195.1 79.0 199.0 79.0 199.3 C 79.0 199.3 79.0 199.3 79.0 199.3 Z M 79.3 199.4 C 79.7 200.5 80.0 201.5 80.2 202.2 C 79.9 201.0 79.5 199.8 79.3 199.4 C 79.3 199.4 79.3 199.4 79.3 199.4 Z M 24.8 28.9 C 24.2 29.5 24.6 32.5 25.1 35.6 C 25.3 36.4 25.4 37.2 25.6 38.0 C 27.0 43.7 28.6 49.3 30.3 55.0 C 30.6 56.1 31.0 57.2 31.3 58.3 C 32.3 61.8 33.4 65.3 34.4 68.7 C 34.8 69.9 35.2 71.1 35.5 72.2 C 36.7 76.4 38.0 80.4 39.3 84.5 C 39.9 86.6 40.6 88.7 41.1 90.8 C 41.4 91.9 42.9 96.5 43.4 98.1 C 42.8 96.6 45.2 104.1 45.1 103.7 C 45.4 104.5 45.7 105.4 46.0 106.3 C 46.3 107.1 45.9 106.0 45.6 104.9 C 45.9 105.9 46.3 106.9 46.6 107.9 C 46.9 108.9 47.2 110.0 47.5 111.1 C 48.6 114.6 49.8 118.3 50.9 121.6 C 53.6 130.5 61.2 154.9 59.9 150.5 C 58.4 145.5 59.2 148.1 59.6 149.4 C 59.9 150.2 60.2 151.2 60.6 152.4 C 60.6 152.4 60.5 152.3 60.4 152.1 C 61.1 154.4 62.0 157.5 63.0 160.6 C 62.9 160.0 62.6 159.3 62.6 159.0 C 63.1 160.5 62.8 159.3 63.1 160.3 C 64.0 163.1 64.4 164.5 63.4 161.2 C 64.4 164.2 65.1 166.1 66.1 169.1 C 66.5 170.3 66.3 169.6 66.2 169.3 C 66.7 171.3 68.2 175.9 68.3 176.3 C 68.4 176.8 64.4 163.9 65.1 166.2 C 65.3 167.2 65.9 169.1 66.1 169.8 C 65.6 168.2 65.0 166.2 64.7 165.2 C 65.0 166.3 65.5 167.9 65.8 168.8 C 65.4 167.7 65.2 166.9 65.0 166.6 C 65.5 168.2 65.9 169.4 66.5 171.3 C 66.8 172.1 66.3 170.6 66.9 172.3 C 67.0 172.7 66.5 171.2 66.6 171.3 C 67.0 172.7 67.9 175.6 68.2 176.3 C 68.4 177.0 67.6 174.5 67.6 174.5 C 69.4 180.0 71.4 186.4 72.0 188.3 C 72.6 190.3 72.0 188.5 71.8 187.6 C 72.5 189.9 73.1 191.6 73.9 194.4 C 74.5 196.1 74.3 195.4 74.1 194.7 C 74.2 195.2 74.4 195.6 74.4 195.9 C 74.5 196.1 74.7 196.6 74.8 196.9 C 74.5 195.8 73.8 193.8 73.6 193.0 C 74.1 194.6 75.3 198.4 75.8 199.8 C 75.1 197.5 74.4 195.2 73.6 192.7 C 75.1 197.5 76.5 202.5 77.9 206.4 C 77.7 205.7 77.6 205.3 77.4 204.8 C 77.9 206.3 78.5 208.5 79.0 209.8 C 79.2 210.5 79.7 211.9 80.2 213.4 C 79.4 210.8 78.9 209.1 78.3 207.4 C 78.3 207.4 78.4 207.6 78.5 207.9 C 77.4 203.9 76.5 201.7 75.6 198.9 C 75.5 198.6 75.5 198.4 75.4 198.2 C 75.2 197.3 76.1 200.5 76.3 200.8 C 75.0 196.6 73.6 192.1 73.0 190.0 C 74.6 195.0 75.9 199.3 77.1 203.0 C 76.9 202.1 75.7 198.3 75.1 196.5 C 77.7 204.6 78.0 205.4 78.2 206.1 C 78.0 205.5 77.8 204.8 77.6 204.2 C 77.7 204.4 77.8 204.5 77.8 204.7 C 78.9 208.2 80.2 212.4 80.2 212.2 C 80.1 212.0 79.1 208.8 78.1 205.3 C 78.2 205.7 78.4 206.0 78.5 206.4 C 79.8 210.4 81.3 214.9 82.5 219.0 C 82.3 218.3 82.4 218.6 82.7 219.5 C 82.4 218.2 81.8 216.4 81.4 215.0 C 81.6 215.5 81.9 216.3 82.0 216.6 C 81.8 215.9 81.4 214.8 81.4 214.5 C 82.0 216.4 82.6 218.4 83.3 220.4 C 83.5 220.8 83.0 219.6 83.1 219.7 C 83.7 221.6 84.5 224.2 85.0 225.6 C 84.5 224.0 83.5 220.9 83.2 219.9 C 83.5 220.5 83.7 221.1 83.9 221.8 C 84.3 223.1 84.5 223.7 84.1 222.2 C 83.9 221.5 83.9 221.5 83.9 221.7 C 84.3 222.5 85.2 225.6 85.3 225.5 C 85.0 224.7 84.1 221.6 83.9 220.8 C 84.1 221.4 84.6 223.0 84.7 223.2 C 83.6 219.7 83.7 219.8 83.4 219.0 C 83.5 219.4 83.8 220.3 83.7 220.3 C 83.1 218.2 82.4 216.1 81.7 213.9 C 81.7 213.9 81.7 213.9 81.7 213.9 C 81.7 213.9 81.7 213.9 81.7 213.9 C 81.7 213.9 81.7 213.9 81.7 213.9 C 81.9 214.1 81.9 214.0 81.9 213.8 C 82.1 214.7 82.5 215.7 83.0 217.4 C 82.9 216.9 82.4 215.3 81.9 213.9 C 82.0 213.9 82.0 213.9 82.0 213.9 C 82.7 216.3 83.9 219.9 84.7 222.3 C 84.3 221.2 83.1 217.1 82.2 214.3 C 82.3 214.4 82.3 214.5 82.3 214.6 C 81.2 211.1 80.0 207.0 78.8 203.1 C 79.5 204.9 80.1 207.1 80.9 209.6 C 81.2 210.7 81.6 211.7 82.0 212.8 C 82.9 215.9 85.7 225.1 86.1 226.2 C 86.5 227.3 83.6 218.0 83.6 217.9 C 83.6 217.9 85.0 222.2 84.4 220.1 C 84.0 219.1 83.3 216.7 82.8 215.1 C 82.8 215.0 82.8 214.9 82.9 214.8 C 83.3 216.3 83.9 218.0 83.8 218.1 C 84.0 218.9 84.5 220.4 84.6 220.6 C 84.5 220.4 84.4 220.0 84.4 220.0 C 84.5 220.4 84.7 220.9 84.7 220.9 C 84.2 219.1 83.5 216.7 82.9 214.7 C 82.8 214.6 82.8 214.4 82.8 214.2 C 82.8 214.2 83.3 215.8 83.7 217.0 C 84.1 218.4 83.3 215.6 82.6 213.3 C 82.5 212.9 82.4 212.6 82.3 212.2 C 82.6 213.0 82.8 213.9 83.2 214.9 C 83.6 216.2 83.6 216.1 84.1 217.4 C 83.4 215.1 82.5 212.3 81.8 210.1 C 81.6 209.2 81.4 208.4 81.2 207.6 C 81.8 209.4 82.3 211.1 82.7 212.1 C 82.9 212.9 83.2 213.8 83.3 214.1 C 83.1 213.3 83.7 215.3 83.7 215.0 C 83.3 213.9 82.7 211.7 82.3 211.0 C 81.8 209.3 81.2 207.4 80.7 205.7 C 80.7 205.5 80.6 205.3 80.5 205.1 C 81.0 206.5 81.4 207.8 81.9 209.3 C 81.8 208.6 80.5 204.5 79.5 201.5 C 77.7 195.4 75.5 189.3 73.5 183.2 C 73.5 183.0 73.4 182.6 73.3 182.2 C 73.1 181.8 73.0 181.3 72.9 180.8 C 73.4 182.3 73.8 183.6 74.1 184.7 C 72.9 180.3 76.1 190.8 76.4 191.5 C 74.3 184.5 70.2 171.4 67.8 163.3 C 68.4 165.2 68.6 165.9 67.9 163.8 C 67.8 163.2 67.6 162.6 67.4 162.1 C 70.0 170.3 72.5 178.8 74.7 185.3 C 73.5 181.4 71.6 175.6 71.2 173.9 C 71.6 175.1 72.1 176.7 72.2 176.9 C 71.6 174.9 69.5 168.3 68.9 166.3 C 71.9 175.9 75.9 188.9 78.2 195.9 C 74.9 185.2 70.5 170.8 67.5 161.7 C 68.0 163.3 68.0 163.3 67.7 162.5 C 66.8 159.7 65.9 156.8 65.0 153.9 C 64.8 153.3 64.9 153.5 65.4 154.9 C 65.7 156.1 65.9 156.7 66.1 157.1 C 65.9 156.3 63.1 147.3 65.3 154.5 C 67.6 161.6 71.4 174.0 69.2 166.8 C 67.0 159.5 66.1 156.6 67.4 160.6 C 68.6 164.5 72.6 177.1 71.3 172.8 C 70.0 168.7 67.3 159.8 65.8 154.8 C 64.2 149.8 66.6 158.3 64.3 150.9 C 62.0 143.5 64.0 149.6 63.6 148.2 C 62.9 146.0 61.6 141.9 60.4 138.0 C 59.6 135.3 58.5 131.8 58.0 130.0 C 58.1 130.1 60.6 138.4 59.6 135.1 C 57.1 127.1 54.3 118.0 55.4 121.8 C 53.9 116.8 52.7 113.1 51.8 110.0 C 50.3 105.1 48.6 99.5 48.4 98.9 C 48.2 98.1 43.9 84.9 42.6 79.9 C 42.5 79.5 39.7 70.6 39.4 69.9 C 36.8 61.4 37.3 62.6 34.7 54.2 C 32.5 47.2 31.8 45.1 31.4 43.9 C 29.1 36.6 29.2 36.6 27.7 33.1 C 27.3 32.0 26.8 30.4 26.4 29.8 C 25.8 28.8 25.2 28.4 24.8 28.9 C 24.8 28.9 24.8 28.9 24.8 28.9 Z M 81.3 213.0 C 81.7 214.3 82.5 216.6 82.9 218.0 C 82.3 216.5 81.7 214.5 81.1 212.5 C 81.2 212.7 81.3 212.8 81.3 213.0 C 81.3 213.0 81.3 213.0 81.3 213.0 Z M 79.2 202.6 C 79.5 203.5 79.8 204.6 80.1 205.5 C 80.4 206.5 80.7 207.4 81.1 208.8 C 81.1 208.7 80.4 206.4 79.9 204.6 C 79.9 204.6 79.9 204.5 79.9 204.5 C 80.2 205.4 80.6 206.4 81.0 207.7 C 81.1 208.1 81.2 208.5 81.3 208.9 C 81.3 209.0 81.1 208.3 81.0 208.1 C 81.1 208.4 81.4 209.5 81.8 210.9 C 81.8 211.1 81.9 211.3 81.9 211.4 C 81.9 211.7 81.6 210.6 82.0 211.8 C 81.6 211.0 81.0 208.8 80.6 207.4 C 81.2 208.9 79.3 203.2 78.9 201.8 C 79.0 202.1 79.1 202.3 79.2 202.6 Z M 73.5 192.4 C 73.3 191.6 73.1 190.8 72.8 190.0 C 73.2 191.2 73.5 192.1 73.7 192.9 C 73.6 192.7 73.6 192.5 73.5 192.4 Z M 53.2 128.4 C 54.8 133.0 57.7 142.9 57.9 143.5 C 58.2 144.5 58.5 145.5 58.8 146.5 C 56.8 140.0 54.6 133.1 53.2 128.4 C 53.2 128.4 53.2 128.4 53.2 128.4 Z M 61.9 143.8 C 62.0 144.1 62.0 144.0 61.7 143.0 C 60.1 138.0 59.1 135.1 60.1 138.2 C 60.9 141.0 62.7 146.9 62.2 145.1 C 61.5 142.8 60.7 140.5 60.0 138.2 C 59.4 136.4 59.0 134.6 58.5 132.7 C 59.7 136.6 60.9 140.4 61.9 143.8 C 61.9 143.8 61.9 143.8 61.9 143.8 Z M 57.9 130.5 C 58.3 131.9 58.8 133.6 59.3 135.3 C 58.9 133.8 58.4 132.4 58.0 130.9 C 57.9 130.8 57.9 130.7 57.9 130.5 Z M 57.4 128.7 C 58.3 131.6 59.2 134.4 58.3 131.6 C 58.1 130.9 57.9 130.3 57.7 129.6 C 57.6 129.3 57.5 129.0 57.4 128.7 Z M 56.9 127.0 C 56.9 127.0 57.0 127.5 57.3 128.5 C 56.7 126.5 55.5 122.7 55.6 122.8 C 56.0 124.1 56.5 125.5 56.9 127.0 C 56.9 127.0 56.9 127.0 56.9 127.0 Z M 52.1 125.3 C 52.5 126.6 52.8 127.7 52.2 125.7 C 51.9 124.9 51.7 124.2 51.5 123.4 C 51.7 124.0 51.9 124.7 52.1 125.3 Z M 76.1 189.5 C 75.9 189.0 75.3 187.0 74.9 185.8 C 74.7 185.7 76.2 190.3 76.1 189.5 C 76.1 189.5 76.1 189.5 76.1 189.5 Z M 78.5 197.1 C 78.3 196.6 77.7 194.6 77.3 193.4 C 77.1 193.3 78.7 197.9 78.5 197.1 C 78.5 197.1 78.5 197.1 78.5 197.1 Z M 42.6 79.9 C 42.6 79.9 42.6 79.9 42.6 79.9 C 42.6 79.9 42.6 79.9 42.6 79.9 C 42.6 79.9 42.6 79.9 42.6 79.9 Z M 42.6 79.9 " fill="#FEFB00"></path><path d="M 26.2 35.2 C 26.3 35.3 29.5 35.2 29.6 35.2 C 29.8 35.1 30.6 35.0 30.8 35.0 C 30.3 35.1 29.9 35.2 29.7 35.3 C 29.7 35.3 29.0 35.4 29.8 35.6 C 29.6 35.6 29.6 35.7 29.6 35.7 L 29.6 35.7 C 29.6 35.7 28.8 35.6 28.8 35.8 C 28.7 36.2 31.4 35.6 31.7 35.8 C 31.3 35.8 31.1 35.8 31.0 35.9 C 31.6 35.7 34.6 35.7 35.2 35.7 L 36.1 35.6 L 36.5 35.5 L 36.7 35.5 L 36.8 35.5 L 36.8 35.5 L 36.8 35.5 L 36.8 35.5 C 36.8 35.5 37.0 35.5 36.7 35.5 C 36.9 35.4 37.4 35.6 38.3 34.8 C 40.1 31.8 37.5 31.3 38.2 31.5 L 38.2 31.5 L 36.9 30.4 C 36.0 29.8 35.1 29.1 34.3 28.4 C 31.2 25.9 26.5 22.1 23.5 19.3 C 23.4 19.2 23.2 19.0 23.0 18.9 L 22.7 18.6 L 22.5 18.4 C 22.6 18.5 22.3 18.2 21.9 18.1 C 21.5 17.9 20.5 18.2 20.3 18.6 C 19.8 19.5 20.1 19.1 20.0 19.2 L 20.0 19.2 L 20.0 19.2 L 20.0 19.2 L 20.0 19.3 L 20.0 19.4 C 19.8 20.1 19.7 20.9 19.5 21.7 C 19.2 23.2 18.9 24.6 18.8 24.7 C 18.8 25.0 17.6 31.1 17.5 31.2 C 17.4 31.4 17.2 31.0 17.2 30.9 L 17.0 31.8 C 16.9 31.7 16.9 31.5 17.0 31.3 C 16.5 32.7 16.2 35.9 15.9 37.0 C 16.0 36.9 16.1 37.2 16.1 37.2 C 16.0 37.2 15.9 37.7 15.7 38.5 L 15.6 38.8 L 15.6 39.0 L 15.5 39.1 C 15.5 39.3 15.5 38.6 15.5 39.6 C 15.6 40.7 17.6 40.7 17.3 40.4 C 17.2 40.4 17.3 40.4 17.3 40.4 L 17.3 40.4 L 17.3 40.4 L 17.3 40.4 L 18.0 40.0 C 18.4 39.8 18.9 39.5 19.4 39.2 C 21.4 38.1 23.5 36.9 23.9 36.6 C 24.6 36.2 26.1 34.6 25.3 34.9 " fill="#FEFB00"></path></g></svg>