<?xml version="1.0" encoding="UTF-8" standalone="no"?><svg xmlns="http://www.w3.org/2000/svg" xmlns:xlink="http://www.w3.org/1999/xlink" clip-rule="evenodd" stroke-miterlimit="4.00" viewBox="0 0 1024 768"><desc>SVG generated by Keynote</desc><defs></defs><g transform="matrix(1.00, 0.00, -0.00, -1.00, 0.0, 768.0)"><path d="M 0.0 768.0 L 1024.0 768.0 L 1024.0 0.0 L 0.0 0.0 Z M 0.0 768.0 " fill="#000000"></path><text xml:space="preserve" font-family="Avenir-Book" font-size="20.0" fill="#D5D5D5" transform="matrix(1.00, 0.00, -0.00, -1.00, 366.0, 28.0)">G</text><text xml:space="preserve" font-family="Avenir-Book" font-size="20.0" fill="#D5D5D5" transform="matrix(1.00, 0.00, -0.00, -1.00, 381.6, 28.0)">u</text><text xml:space="preserve" font-family="Avenir-Book" font-size="20.0" fill="#D5D5D5" transform="matrix(1.00, 0.00, -0.00, -1.00, 392.7, 28.0)">i</text><text xml:space="preserve" font-family="Avenir-Book" font-size="20.0" fill="#D5D5D5" transform="matrix(1.00, 0.00, -0.00, -1.00, 397.5, 28.0)">d</text><text xml:space="preserve" font-family="Avenir-Book" font-size="20.0" fill="#D5D5D5" transform="matrix(1.00, 0.00, -0.00, -1.00, 409.7, 28.0)">o</text><text xml:space="preserve" font-family="Avenir-Book" font-size="20.0" fill="#D5D5D5" transform="matrix(1.00, 0.00, -0.00, -1.00, 421.6, 28.0)"> </text><text xml:space="preserve" font-family="Avenir-Book" font-size="20.0" fill="#D5D5D5" transform="matrix(1.00, 0.00, -0.00, -1.00, 427.1, 28.0)">M</text><text xml:space="preserve" font-family="Avenir-Book" font-size="20.0" fill="#D5D5D5" transform="matrix(1.00, 0.00, -0.00, -1.00, 444.9, 28.0)">u</text><text xml:space="preserve" font-family="Avenir-Book" font-size="20.0" fill="#D5D5D5" transform="matrix(1.00, 0.00, -0.00, -1.00, 456.0, 28.0)">s</text><text xml:space="preserve" font-family="Avenir-Book" font-size="20.0" fill="#D5D5D5" transform="matrix(1.00, 0.00, -0.00, -1.00, 464.6, 28.0)">i</text><text xml:space="preserve" font-family="Avenir-Book" font-size="20.0" fill="#D5D5D5" transform="matrix(1.00, 0.00, -0.00, -1.00, 469.4, 28.0)">c</text><text xml:space="preserve" font-family="Avenir-Book" font-size="20.0" fill="#D5D5D5" transform="matrix(1.00, 0.00, -0.00, -1.00, 479.0, 28.0)"> </text><text xml:space="preserve" font-family="Avenir-Book" font-size="20.0" fill="#D5D5D5" transform="matrix(1.00, 0.00, -0.00, -1.00, 484.6, 28.0)">N</text><text xml:space="preserve" font-family="Avenir-Book" font-size="20.0" fill="#D5D5D5" transform="matrix(1.00, 0.00, -0.00, -1.00, 500.1, 28.0)">o</text><text xml:space="preserve" font-family="Avenir-Book" font-size="20.0" fill="#D5D5D5" transform="matrix(1.00, 0.00, -0.00, -1.00, 512.0, 28.0)">t</text><text xml:space="preserve" font-family="Avenir-Book" font-size="20.0" fill="#D5D5D5" transform="matrix(1.00, 0.00, -0.00, -1.00, 518.6, 28.0)">a</text><text xml:space="preserve" font-family="Avenir-Book" font-size="20.0" fill="#D5D5D5" transform="matrix(1.00, 0.00, -0.00, -1.00, 529.0, 28.0)">t</text><text xml:space="preserve" font-family="Avenir-Book" font-size="20.0" fill="#D5D5D5" transform="matrix(1.00, 0.00, -0.00, -1.00, 535.6, 28.0)">i</text><text xml:space="preserve" font-family="Avenir-Book" font-size="20.0" fill="#D5D5D5" transform="matrix(1.00, 0.00, -0.00, -1.00, 540.4, 28.0)">o</text><text xml:space="preserve" font-family="Avenir-Book" font-size="20.0" fill="#D5D5D5" transform="matrix(1.00, 0.00, -0.00, -1.00, 552.3, 28.0)">n</text><text xml:space="preserve" font-family="Avenir-Book" font-size="20.0" fill="#D5D5D5" transform="matrix(1.00, 0.00, -0.00, -1.00, 563.4, 28.0)"> </text><text xml:space="preserve" font-family="Avenir-Book" font-size="20.0" fill="#D5D5D5" transform="matrix(1.00, 0.00, -0.00, -1.00, 569.0, 28.0)">L</text><text xml:space="preserve" font-family="Avenir-Book" font-size="20.0" fill="#D5D5D5" transform="matrix(1.00, 0.00, -0.00, -1.00, 579.0, 28.0)">a</text><text xml:space="preserve" font-family="Avenir-Book" font-size="20.0" fill="#D5D5D5" transform="matrix(1.00, 0.00, -0.00, -1.00, 589.4, 28.0)">n</text><text xml:space="preserve" font-family="Avenir-Book" font-size="20.0" fill="#D5D5D5" transform="matrix(1.00, 0.00, -0.00, -1.00, 600.5, 28.0)">g</text><text xml:space="preserve" font-family="Avenir-Book" font-size="20.0" fill="#D5D5D5" transform="matrix(1.00, 0.00, -0.00, -1.00, 612.7, 28.0)">u</text><text xml:space="preserve" font-family="Avenir-Book" font-size="20.0" fill="#D5D5D5" transform="matrix(1.00, 0.00, -0.00, -1.00, 623.8, 28.0)">a</text><text xml:space="preserve" font-family="Avenir-Book" font-size="20.0" fill="#D5D5D5" transform="matrix(1.00, 0.00, -0.00, -1.00, 634.2, 28.0)">g</text><text xml:space="preserve" font-family="Avenir-Book" font-size="20.0" fill="#D5D5D5" transform="matrix(1.00, 0.00, -0.00, -1.00, 646.4, 28.0)">e</text><text xml:space="preserve" font-family="AvenirNext-DemiBold" font-weight="bold" font-size="50.0" fill="#FEFFFF" transform="matrix(1.00, 0.00, -0.00, -1.00, 73.0, 676.0)">M</text><text xml:space="preserve" font-family="AvenirNext-DemiBold" font-weight="bold" font-size="50.0" fill="#FEFFFF" transform="matrix(1.00, 0.00, -0.00, -1.00, 119.0, 676.0)">a</text><text xml:space="preserve" font-family="AvenirNext-DemiBold" font-weight="bold" font-size="50.0" fill="#FEFFFF" transform="matrix(1.00, 0.00, -0.00, -1.00, 146.5, 676.0)">n</text><text xml:space="preserve" font-family="AvenirNext-DemiBold" font-weight="bold" font-size="50.0" fill="#FEFFFF" transform="matrix(1.00, 0.00, -0.00, -1.00, 175.6, 676.0)">u</text><text xml:space="preserve" font-family="AvenirNext-DemiBold" font-weight="bold" font-size="50.0" fill="#FEFFFF" transform="matrix(1.00, 0.00, -0.00, -1.00, 204.7, 676.0)">a</text><text xml:space="preserve" font-family="AvenirNext-DemiBold" font-weight="bold" font-size="50.0" fill="#FEFFFF" transform="matrix(1.00, 0.00, -0.00, -1.00, 232.2, 676.0)">l</text><text xml:space="preserve" font-family="AvenirNext-DemiBold" font-weight="bold" font-size="50.0" fill="#FEFFFF" transform="matrix(1.00, 0.00, -0.00, -1.00, 245.6, 676.0)"> </text><text xml:space="preserve" font-family="AvenirNext-DemiBold" font-weight="bold" font-size="50.0" fill="#FEFFFF" transform="matrix(1.00, 0.00, -0.00, -1.00, 258.1, 676.0)">l</text><text xml:space="preserve" font-family="AvenirNext-DemiBold" font-weight="bold" font-size="50.0" fill="#FEFFFF" transform="matrix(1.00, 0.00, -0.00, -1.00, 271.5, 676.0)">a</text><text xml:space="preserve" font-family="AvenirNext-DemiBold" font-weight="bold" font-size="50.0" fill="#FEFFFF" transform="matrix(1.00, 0.00, -0.00, -1.00, 299.0, 676.0)">y</text><text xml:space="preserve" font-family="AvenirNext-DemiBold" font-weight="bold" font-size="50.0" fill="#FEFFFF" transform="matrix(1.00, 0.00, -0.00, -1.00, 324.6, 676.0)">o</text><text xml:space="preserve" font-family="AvenirNext-DemiBold" font-weight="bold" font-size="50.0" fill="#FEFFFF" transform="matrix(1.00, 0.00, -0.00, -1.00, 355.1, 676.0)">u</text><text xml:space="preserve" font-family="AvenirNext-DemiBold" font-weight="bold" font-size="50.0" fill="#FEFFFF" transform="matrix(1.00, 0.00, -0.00, -1.00, 384.2, 676.0)">t</text><text xml:space="preserve" font-family="Avenir-Book" font-size="18.0" fill="#D5D5D5" transform="matrix(1.00, 0.00, -0.00, -1.00, 30.0, 28.0)">3</text><text xml:space="preserve" font-family="Avenir-Book" font-size="18.0" fill="#D5D5D5" transform="matrix(1.00, 0.00, -0.00, -1.00, 40.0, 28.0)">4</text><image xlink:href="../../B04F1C97-ECAB-4D96-BED1-068678BAA01E/assets/BEF333F0D2746660C5E29CAA3BCC24B1.png" width="236.00" height="101.00" transform="matrix(1.00, 0.00, -0.00, -1.00, -285.0, 1087.0)"></image><text xml:space="preserve" font-family="Avenir-Book" font-size="38.0" fill="#FEFFFF" transform="matrix(1.00, 0.00, -0.00, -1.00, 67.0, 487.0)">C</text><text xml:space="preserve" font-family="Avenir-Book" font-size="38.0" fill="#FEFFFF" transform="matrix(1.00, 0.00, -0.00, -1.00, 93.8, 487.0)">o</text><text xml:space="preserve" font-family="Avenir-Book" font-size="38.0" fill="#FEFFFF" transform="matrix(1.00, 0.00, -0.00, -1.00, 116.3, 487.0)">m</text><text xml:space="preserve" font-family="Avenir-Book" font-size="38.0" fill="#FEFFFF" transform="matrix(1.00, 0.00, -0.00, -1.00, 148.7, 487.0)">m</text><text xml:space="preserve" font-family="Avenir-Book" font-size="38.0" fill="#FEFFFF" transform="matrix(1.00, 0.00, -0.00, -1.00, 181.0, 487.0)">o</text><text xml:space="preserve" font-family="Avenir-Book" font-size="38.0" fill="#FEFFFF" transform="matrix(1.00, 0.00, -0.00, -1.00, 203.6, 487.0)">n</text><text xml:space="preserve" font-family="Avenir-Book" font-size="38.0" fill="#FEFFFF" transform="matrix(1.00, 0.00, -0.00, -1.00, 224.7, 487.0)"> </text><text xml:space="preserve" font-family="Avenir-Book" font-size="38.0" fill="#FEFFFF" transform="matrix(1.00, 0.00, -0.00, -1.00, 235.3, 487.0)">t</text><text xml:space="preserve" font-family="Avenir-Book" font-size="38.0" fill="#FEFFFF" transform="matrix(1.00, 0.00, -0.00, -1.00, 247.9, 487.0)">a</text><text xml:space="preserve" font-family="Avenir-Book" font-size="38.0" fill="#FEFFFF" transform="matrix(1.00, 0.00, -0.00, -1.00, 267.6, 487.0)">g</text><text xml:space="preserve" font-family="Avenir-Book" font-size="38.0" fill="#FEFFFF" transform="matrix(1.00, 0.00, -0.00, -1.00, 290.8, 487.0)"> </text><text xml:space="preserve" font-family="Avenir-Book" font-size="38.0" fill="#FEFFFF" transform="matrix(1.00, 0.00, -0.00, -1.00, 301.4, 487.0)">p</text><text xml:space="preserve" font-family="Avenir-Book" font-size="38.0" fill="#FEFFFF" transform="matrix(1.00, 0.00, -0.00, -1.00, 324.6, 487.0)">a</text><text xml:space="preserve" font-family="Avenir-Book" font-size="38.0" fill="#FEFFFF" transform="matrix(1.00, 0.00, -0.00, -1.00, 344.3, 487.0)">r</text><text xml:space="preserve" font-family="Avenir-Book" font-size="38.0" fill="#FEFFFF" transform="matrix(1.00, 0.00, -0.00, -1.00, 356.9, 487.0)">a</text><text xml:space="preserve" font-family="Avenir-Book" font-size="38.0" fill="#FEFFFF" transform="matrix(1.00, 0.00, -0.00, -1.00, 376.7, 487.0)">m</text><text xml:space="preserve" font-family="Avenir-Book" font-size="38.0" fill="#FEFFFF" transform="matrix(1.00, 0.00, -0.00, -1.00, 409.0, 487.0)">e</text><text xml:space="preserve" font-family="Avenir-Book" font-size="38.0" fill="#FEFFFF" transform="matrix(1.00, 0.00, -0.00, -1.00, 430.2, 487.0)">t</text><text xml:space="preserve" font-family="Avenir-Book" font-size="38.0" fill="#FEFFFF" transform="matrix(1.00, 0.00, -0.00, -1.00, 442.8, 487.0)">e</text><text xml:space="preserve" font-family="Avenir-Book" font-size="38.0" fill="#FEFFFF" transform="matrix(1.00, 0.00, -0.00, -1.00, 463.9, 487.0)">r</text><text xml:space="preserve" font-family="Avenir-Book" font-size="38.0" fill="#FEFFFF" transform="matrix(1.00, 0.00, -0.00, -1.00, 476.5, 487.0)">s</text><text xml:space="preserve" font-family="Courier" font-size="30.0" fill="#F5D327" transform="matrix(1.00, 0.00, -0.00, -1.00, 70.0, 317.0)">[</text><text xml:space="preserve" font-family="Courier" font-size="30.0" fill="#F5D327" transform="matrix(1.00, 0.00, -0.00, -1.00, 88.0, 317.0)">\</text><text xml:space="preserve" font-family="Courier" font-size="30.0" fill="#F5D327" transform="matrix(1.00, 0.00, -0.00, -1.00, 106.0, 317.0)">i</text><text xml:space="preserve" font-family="Courier" font-size="30.0" fill="#F5D327" transform="matrix(1.00, 0.00, -0.00, -1.00, 124.0, 317.0)">n</text><text xml:space="preserve" font-family="Courier" font-size="30.0" fill="#F5D327" transform="matrix(1.00, 0.00, -0.00, -1.00, 142.0, 317.0)">t</text><text xml:space="preserve" font-family="Courier" font-size="30.0" fill="#F5D327" transform="matrix(1.00, 0.00, -0.00, -1.00, 160.0, 317.0)">e</text><text xml:space="preserve" font-family="Courier" font-size="30.0" fill="#F5D327" transform="matrix(1.00, 0.00, -0.00, -1.00, 178.0, 317.0)">n</text><text xml:space="preserve" font-family="Courier" font-size="30.0" fill="#F5D327" transform="matrix(1.00, 0.00, -0.00, -1.00, 196.0, 317.0)">s</text><text xml:space="preserve" font-family="Courier" font-size="30.0" fill="#F5D327" transform="matrix(1.00, 0.00, -0.00, -1.00, 214.0, 317.0)">&lt;</text><text xml:space="preserve" font-family="Courier" font-size="30.0" fill="#F5D327" transform="matrix(1.00, 0.00, -0.00, -1.00, 232.1, 317.0)">"</text><text xml:space="preserve" font-family="Courier" font-size="30.0" fill="#F5D327" transform="matrix(1.00, 0.00, -0.00, -1.00, 250.1, 317.0)">f</text><text xml:space="preserve" font-family="Courier" font-size="30.0" fill="#F5D327" transform="matrix(1.00, 0.00, -0.00, -1.00, 268.1, 317.0)">f</text><text xml:space="preserve" font-family="Courier" font-size="30.0" fill="#F5D327" transform="matrix(1.00, 0.00, -0.00, -1.00, 286.1, 317.0)">"</text><text xml:space="preserve" font-family="Courier" font-size="30.0" fill="#F5D327" transform="matrix(1.00, 0.00, -0.00, -1.00, 304.1, 317.0)">,</text><text xml:space="preserve" font-family="Courier" font-size="30.0" fill="#F5D327" transform="matrix(1.00, 0.00, -0.00, -1.00, 322.1, 317.0)">d</text><text xml:space="preserve" font-family="Courier" font-size="30.0" fill="#F5D327" transform="matrix(1.00, 0.00, -0.00, -1.00, 340.1, 317.0)">x</text><text xml:space="preserve" font-family="Courier" font-size="30.0" fill="#F5D327" transform="matrix(1.00, 0.00, -0.00, -1.00, 358.1, 317.0)">=</text><text xml:space="preserve" font-family="Courier" font-size="30.0" fill="#F5D327" transform="matrix(1.00, 0.00, -0.00, -1.00, 376.1, 317.0)">7</text><text xml:space="preserve" font-family="Courier" font-size="30.0" fill="#F5D327" transform="matrix(1.00, 0.00, -0.00, -1.00, 394.1, 317.0)">h</text><text xml:space="preserve" font-family="Courier" font-size="30.0" fill="#F5D327" transform="matrix(1.00, 0.00, -0.00, -1.00, 412.1, 317.0)">s</text><text xml:space="preserve" font-family="Courier" font-size="30.0" fill="#F5D327" transform="matrix(1.00, 0.00, -0.00, -1.00, 430.1, 317.0)">,</text><text xml:space="preserve" font-family="Courier" font-size="30.0" fill="#F5D327" transform="matrix(1.00, 0.00, -0.00, -1.00, 448.1, 317.0)"> </text><text xml:space="preserve" font-family="Courier" font-size="30.0" fill="#F5D327" transform="matrix(1.00, 0.00, -0.00, -1.00, 466.1, 317.0)">d</text><text xml:space="preserve" font-family="Courier" font-size="30.0" fill="#F5D327" transform="matrix(1.00, 0.00, -0.00, -1.00, 484.1, 317.0)">y</text><text xml:space="preserve" font-family="Courier" font-size="30.0" fill="#F5D327" transform="matrix(1.00, 0.00, -0.00, -1.00, 502.1, 317.0)">=</text><text xml:space="preserve" font-family="Courier" font-size="30.0" fill="#F5D327" transform="matrix(1.00, 0.00, -0.00, -1.00, 520.1, 317.0)">1</text><text xml:space="preserve" font-family="Courier" font-size="30.0" fill="#F5D327" transform="matrix(1.00, 0.00, -0.00, -1.00, 538.2, 317.0)">2</text><text xml:space="preserve" font-family="Courier" font-size="30.0" fill="#F5D327" transform="matrix(1.00, 0.00, -0.00, -1.00, 556.2, 317.0)">h</text><text xml:space="preserve" font-family="Courier" font-size="30.0" fill="#F5D327" transform="matrix(1.00, 0.00, -0.00, -1.00, 574.2, 317.0)">s</text><text xml:space="preserve" font-family="Courier" font-size="30.0" fill="#F5D327" transform="matrix(1.00, 0.00, -0.00, -1.00, 592.2, 317.0)">,</text><text xml:space="preserve" font-family="Courier" font-size="30.0" fill="#F5D327" transform="matrix(1.00, 0.00, -0.00, -1.00, 610.2, 317.0)"> </text><text xml:space="preserve" font-family="Courier" font-size="30.0" fill="#F5D327" transform="matrix(1.00, 0.00, -0.00, -1.00, 628.2, 317.0)">c</text><text xml:space="preserve" font-family="Courier" font-size="30.0" fill="#F5D327" transform="matrix(1.00, 0.00, -0.00, -1.00, 646.2, 317.0)">o</text><text xml:space="preserve" font-family="Courier" font-size="30.0" fill="#F5D327" transform="matrix(1.00, 0.00, -0.00, -1.00, 664.2, 317.0)">l</text><text xml:space="preserve" font-family="Courier" font-size="30.0" fill="#F5D327" transform="matrix(1.00, 0.00, -0.00, -1.00, 682.2, 317.0)">o</text><text xml:space="preserve" font-family="Courier" font-size="30.0" fill="#F5D327" transform="matrix(1.00, 0.00, -0.00, -1.00, 700.2, 317.0)">r</text><text xml:space="preserve" font-family="Courier" font-size="30.0" fill="#F5D327" transform="matrix(1.00, 0.00, -0.00, -1.00, 718.2, 317.0)">=</text><text xml:space="preserve" font-family="Courier" font-size="30.0" fill="#F5D327" transform="matrix(1.00, 0.00, -0.00, -1.00, 736.2, 317.0)">"</text><text xml:space="preserve" font-family="Courier" font-size="30.0" fill="#F5D327" transform="matrix(1.00, 0.00, -0.00, -1.00, 754.2, 317.0)">r</text><text xml:space="preserve" font-family="Courier" font-size="30.0" fill="#F5D327" transform="matrix(1.00, 0.00, -0.00, -1.00, 772.2, 317.0)">e</text><text xml:space="preserve" font-family="Courier" font-size="30.0" fill="#F5D327" transform="matrix(1.00, 0.00, -0.00, -1.00, 790.2, 317.0)">d</text><text xml:space="preserve" font-family="Courier" font-size="30.0" fill="#F5D327" transform="matrix(1.00, 0.00, -0.00, -1.00, 808.2, 317.0)">"</text><text xml:space="preserve" font-family="Courier" font-size="30.0" fill="#F5D327" transform="matrix(1.00, 0.00, -0.00, -1.00, 826.2, 317.0)">&gt;</text><text xml:space="preserve" font-family="Courier" font-size="30.0" fill="#F5D327" transform="matrix(1.00, 0.00, -0.00, -1.00, 844.3, 317.0)"> </text><text xml:space="preserve" font-family="Courier" font-size="30.0" fill="#F5D327" transform="matrix(1.00, 0.00, -0.00, -1.00, 862.3, 317.0)">c</text><text xml:space="preserve" font-family="Courier" font-size="30.0" fill="#F5D327" transform="matrix(1.00, 0.00, -0.00, -1.00, 880.3, 317.0)"> </text><text xml:space="preserve" font-family="Courier" font-size="30.0" fill="#F5D327" transform="matrix(1.00, 0.00, -0.00, -1.00, 898.3, 317.0)">e</text><text xml:space="preserve" font-family="Courier" font-size="30.0" fill="#F5D327" transform="matrix(1.00, 0.00, -0.00, -1.00, 916.3, 317.0)"> </text><text xml:space="preserve" font-family="Courier" font-size="30.0" fill="#F5D327" transform="matrix(1.00, 0.00, -0.00, -1.00, 934.3, 317.0)">]</text><text xml:space="preserve" font-family="Avenir-Book" font-size="38.0" fill="#FEFFFF" transform="matrix(1.00, 0.00, -0.00, -1.00, 67.0, 562.0)">M</text><text xml:space="preserve" font-family="Avenir-Book" font-size="38.0" fill="#FEFFFF" transform="matrix(1.00, 0.00, -0.00, -1.00, 100.8, 562.0)">a</text><text xml:space="preserve" font-family="Avenir-Book" font-size="38.0" fill="#FEFFFF" transform="matrix(1.00, 0.00, -0.00, -1.00, 120.5, 562.0)">k</text><text xml:space="preserve" font-family="Avenir-Book" font-size="38.0" fill="#FEFFFF" transform="matrix(1.00, 0.00, -0.00, -1.00, 138.9, 562.0)">e</text><text xml:space="preserve" font-family="Avenir-Book" font-size="38.0" fill="#FEFFFF" transform="matrix(1.00, 0.00, -0.00, -1.00, 160.0, 562.0)">s</text><text xml:space="preserve" font-family="Avenir-Book" font-size="38.0" fill="#FEFFFF" transform="matrix(1.00, 0.00, -0.00, -1.00, 176.2, 562.0)"> </text><text xml:space="preserve" font-family="Avenir-Book" font-size="38.0" fill="#FEFFFF" transform="matrix(1.00, 0.00, -0.00, -1.00, 186.7, 562.0)">u</text><text xml:space="preserve" font-family="Avenir-Book" font-size="38.0" fill="#FEFFFF" transform="matrix(1.00, 0.00, -0.00, -1.00, 207.9, 562.0)">s</text><text xml:space="preserve" font-family="Avenir-Book" font-size="38.0" fill="#FEFFFF" transform="matrix(1.00, 0.00, -0.00, -1.00, 224.1, 562.0)">e</text><text xml:space="preserve" font-family="Avenir-Book" font-size="38.0" fill="#FEFFFF" transform="matrix(1.00, 0.00, -0.00, -1.00, 245.2, 562.0)"> </text><text xml:space="preserve" font-family="Avenir-Book" font-size="38.0" fill="#FEFFFF" transform="matrix(1.00, 0.00, -0.00, -1.00, 255.7, 562.0)">o</text><text xml:space="preserve" font-family="Avenir-Book" font-size="38.0" fill="#FEFFFF" transform="matrix(1.00, 0.00, -0.00, -1.00, 278.3, 562.0)">f</text><text xml:space="preserve" font-family="Avenir-Book" font-size="38.0" fill="#FEFFFF" transform="matrix(1.00, 0.00, -0.00, -1.00, 289.5, 562.0)"> </text><text xml:space="preserve" font-family="Avenir-Book" font-size="38.0" fill="#FEFFFF" transform="matrix(1.00, 0.00, -0.00, -1.00, 300.1, 562.0)">t</text><text xml:space="preserve" font-family="Avenir-Book" font-size="38.0" fill="#FEFFFF" transform="matrix(1.00, 0.00, -0.00, -1.00, 312.7, 562.0)">a</text><text xml:space="preserve" font-family="Avenir-Book" font-size="38.0" fill="#FEFFFF" transform="matrix(1.00, 0.00, -0.00, -1.00, 332.4, 562.0)">g</text><text xml:space="preserve" font-family="Avenir-Book" font-size="38.0" fill="#FEFFFF" transform="matrix(1.00, 0.00, -0.00, -1.00, 355.6, 562.0)">s</text><text xml:space="preserve" font-family="Avenir-Book" font-size="38.0" fill="#FEFFFF" transform="matrix(1.00, 0.00, -0.00, -1.00, 371.8, 562.0)"> </text><text xml:space="preserve" font-family="Avenir-Book" font-size="38.0" fill="#FEFFFF" transform="matrix(1.00, 0.00, -0.00, -1.00, 382.4, 562.0)">p</text><text xml:space="preserve" font-family="Avenir-Book" font-size="38.0" fill="#FEFFFF" transform="matrix(1.00, 0.00, -0.00, -1.00, 405.6, 562.0)">a</text><text xml:space="preserve" font-family="Avenir-Book" font-size="38.0" fill="#FEFFFF" transform="matrix(1.00, 0.00, -0.00, -1.00, 425.3, 562.0)">r</text><text xml:space="preserve" font-family="Avenir-Book" font-size="38.0" fill="#FEFFFF" transform="matrix(1.00, 0.00, -0.00, -1.00, 438.0, 562.0)">a</text><text xml:space="preserve" font-family="Avenir-Book" font-size="38.0" fill="#FEFFFF" transform="matrix(1.00, 0.00, -0.00, -1.00, 457.7, 562.0)">m</text><text xml:space="preserve" font-family="Avenir-Book" font-size="38.0" fill="#FEFFFF" transform="matrix(1.00, 0.00, -0.00, -1.00, 490.1, 562.0)">e</text><text xml:space="preserve" font-family="Avenir-Book" font-size="38.0" fill="#FEFFFF" transform="matrix(1.00, 0.00, -0.00, -1.00, 511.2, 562.0)">t</text><text xml:space="preserve" font-family="Avenir-Book" font-size="38.0" fill="#FEFFFF" transform="matrix(1.00, 0.00, -0.00, -1.00, 523.8, 562.0)">e</text><text xml:space="preserve" font-family="Avenir-Book" font-size="38.0" fill="#FEFFFF" transform="matrix(1.00, 0.00, -0.00, -1.00, 544.9, 562.0)">r</text><text xml:space="preserve" font-family="Avenir-Book" font-size="38.0" fill="#FEFFFF" transform="matrix(1.00, 0.00, -0.00, -1.00, 557.5, 562.0)">s</text><text xml:space="preserve" font-family="Avenir-Book" font-size="38.0" fill="#FEFFFF" transform="matrix(1.00, 0.00, -0.00, -1.00, 573.7, 562.0)">.</text><text xml:space="preserve" font-family="Avenir-Book" font-size="38.0" fill="#FEFFFF" transform="matrix(1.00, 0.00, -0.00, -1.00, 584.3, 562.0)"> </text><text xml:space="preserve" font-family="Courier" font-size="30.0" fill="#F5D327" transform="matrix(1.00, 0.00, -0.00, -1.00, 133.0, 436.0)">d</text><text xml:space="preserve" font-family="Courier" font-size="30.0" fill="#F5D327" transform="matrix(1.00, 0.00, -0.00, -1.00, 151.0, 436.0)">x</text><text xml:space="preserve" font-family="Courier" font-size="30.0" fill="#F5D327" transform="matrix(1.00, 0.00, -0.00, -1.00, 169.0, 436.0)">,</text><text xml:space="preserve" font-family="Courier" font-size="30.0" fill="#F5D327" transform="matrix(1.00, 0.00, -0.00, -1.00, 187.0, 436.0)"> </text><text xml:space="preserve" font-family="Courier" font-size="30.0" fill="#F5D327" transform="matrix(1.00, 0.00, -0.00, -1.00, 205.0, 436.0)">d</text><text xml:space="preserve" font-family="Courier" font-size="30.0" fill="#F5D327" transform="matrix(1.00, 0.00, -0.00, -1.00, 223.0, 436.0)">y</text><text xml:space="preserve" font-family="Courier" font-size="30.0" fill="#F5D327" transform="matrix(1.00, 0.00, -0.00, -1.00, 241.0, 436.0)">,</text><text xml:space="preserve" font-family="Courier" font-size="30.0" fill="#F5D327" transform="matrix(1.00, 0.00, -0.00, -1.00, 259.0, 436.0)"> </text><text xml:space="preserve" font-family="Courier" font-size="30.0" fill="#F5D327" transform="matrix(1.00, 0.00, -0.00, -1.00, 277.0, 436.0)">c</text><text xml:space="preserve" font-family="Courier" font-size="30.0" fill="#F5D327" transform="matrix(1.00, 0.00, -0.00, -1.00, 295.1, 436.0)">o</text><text xml:space="preserve" font-family="Courier" font-size="30.0" fill="#F5D327" transform="matrix(1.00, 0.00, -0.00, -1.00, 313.1, 436.0)">l</text><text xml:space="preserve" font-family="Courier" font-size="30.0" fill="#F5D327" transform="matrix(1.00, 0.00, -0.00, -1.00, 331.1, 436.0)">o</text><text xml:space="preserve" font-family="Courier" font-size="30.0" fill="#F5D327" transform="matrix(1.00, 0.00, -0.00, -1.00, 349.1, 436.0)">r</text><text xml:space="preserve" font-family="Avenir-Book" font-size="38.0" fill="#FEFFFF" transform="matrix(1.00, 0.00, -0.00, -1.00, 69.0, 357.0)">E</text><text xml:space="preserve" font-family="Avenir-Book" font-size="38.0" fill="#FEFFFF" transform="matrix(1.00, 0.00, -0.00, -1.00, 91.5, 357.0)">x</text><text xml:space="preserve" font-family="Avenir-Book" font-size="38.0" fill="#FEFFFF" transform="matrix(1.00, 0.00, -0.00, -1.00, 109.8, 357.0)">a</text><text xml:space="preserve" font-family="Avenir-Book" font-size="38.0" fill="#FEFFFF" transform="matrix(1.00, 0.00, -0.00, -1.00, 129.6, 357.0)">m</text><text xml:space="preserve" font-family="Avenir-Book" font-size="38.0" fill="#FEFFFF" transform="matrix(1.00, 0.00, -0.00, -1.00, 161.9, 357.0)">p</text><text xml:space="preserve" font-family="Avenir-Book" font-size="38.0" fill="#FEFFFF" transform="matrix(1.00, 0.00, -0.00, -1.00, 185.2, 357.0)">l</text><text xml:space="preserve" font-family="Avenir-Book" font-size="38.0" fill="#FEFFFF" transform="matrix(1.00, 0.00, -0.00, -1.00, 194.3, 357.0)">e</text><image xlink:href="../../F55E41AC-149C-4070-92B2-E0620E8A763D/assets/11DE7BA5B14B975D9C8DD043B5B9C51C.png" width="323.00" height="170.00" transform="matrix(1.00, 0.00, -0.00, -1.00, 351.0, 285.0)"></image></g></svg>