<?xml version="1.0" encoding="UTF-8" standalone="no"?><svg xmlns="http://www.w3.org/2000/svg" xmlns:xlink="http://www.w3.org/1999/xlink" clip-rule="evenodd" stroke-miterlimit="4.00" viewBox="0 0 164 29"><desc>SVG generated by Keynote</desc><defs></defs><g transform="matrix(1.00, 0.00, -0.00, -1.00, 0.0, 29.0)"><text xml:space="preserve" font-family="Courier" font-size="32.0" fill="#F5D327" transform="matrix(1.00, 0.00, -0.00, -1.00, -5.0, 9.0)">[</text><text xml:space="preserve" font-family="Courier" font-size="32.0" fill="#F5D327" transform="matrix(1.00, 0.00, -0.00, -1.00, 14.2, 9.0)"> </text><text xml:space="preserve" font-family="Courier" font-size="32.0" fill="#F5D327" transform="matrix(1.00, 0.00, -0.00, -1.00, 33.4, 9.0)">a</text><text xml:space="preserve" font-family="Courier" font-size="32.0" fill="#F5D327" transform="matrix(1.00, 0.00, -0.00, -1.00, 52.6, 9.0)"> </text><text xml:space="preserve" font-family="Courier" font-size="32.0" fill="#F5D327" transform="matrix(1.00, 0.00, -0.00, -1.00, 71.8, 9.0)">g</text><text xml:space="preserve" font-family="Courier" font-size="32.0" fill="#F5D327" transform="matrix(1.00, 0.00, -0.00, -1.00, 91.0, 9.0)"> </text><text xml:space="preserve" font-family="Courier" font-size="32.0" fill="#F5D327" transform="matrix(1.00, 0.00, -0.00, -1.00, 110.2, 9.0)">e</text><text xml:space="preserve" font-family="Courier" font-size="32.0" fill="#F5D327" transform="matrix(1.00, 0.00, -0.00, -1.00, 129.4, 9.0)"> </text><text xml:space="preserve" font-family="Courier" font-size="32.0" fill="#F5D327" transform="matrix(1.00, 0.00, -0.00, -1.00, 148.7, 9.0)">]</text></g></svg>