<?xml version="1.0" encoding="UTF-8" standalone="no"?><svg xmlns="http://www.w3.org/2000/svg" xmlns:xlink="http://www.w3.org/1999/xlink" clip-rule="evenodd" stroke-miterlimit="4.00" viewBox="0 0 1024 768"><desc>SVG generated by Keynote</desc><defs></defs><g transform="matrix(1.00, 0.00, -0.00, -1.00, 0.0, 768.0)"><path d="M 0.0 768.0 L 1024.0 768.0 L 1024.0 0.0 L 0.0 0.0 Z M 0.0 768.0 " fill="#000000"></path><text xml:space="preserve" font-family="Avenir-Book" font-size="20.0" fill="#D5D5D5" transform="matrix(1.00, 0.00, -0.00, -1.00, 259.0, 28.0)">N</text><text xml:space="preserve" font-family="Avenir-Book" font-size="20.0" fill="#D5D5D5" transform="matrix(1.00, 0.00, -0.00, -1.00, 274.6, 28.0)">e</text><text xml:space="preserve" font-family="Avenir-Book" font-size="20.0" fill="#D5D5D5" transform="matrix(1.00, 0.00, -0.00, -1.00, 285.7, 28.0)">w</text><text xml:space="preserve" font-family="Avenir-Book" font-size="20.0" fill="#D5D5D5" transform="matrix(1.00, 0.00, -0.00, -1.00, 300.1, 28.0)"> </text><text xml:space="preserve" font-family="Avenir-Book" font-size="20.0" fill="#D5D5D5" transform="matrix(1.00, 0.00, -0.00, -1.00, 305.7, 28.0)">A</text><text xml:space="preserve" font-family="Avenir-Book" font-size="20.0" fill="#D5D5D5" transform="matrix(1.00, 0.00, -0.00, -1.00, 319.4, 28.0)">p</text><text xml:space="preserve" font-family="Avenir-Book" font-size="20.0" fill="#D5D5D5" transform="matrix(1.00, 0.00, -0.00, -1.00, 331.6, 28.0)">p</text><text xml:space="preserve" font-family="Avenir-Book" font-size="20.0" fill="#D5D5D5" transform="matrix(1.00, 0.00, -0.00, -1.00, 343.8, 28.0)">r</text><text xml:space="preserve" font-family="Avenir-Book" font-size="20.0" fill="#D5D5D5" transform="matrix(1.00, 0.00, -0.00, -1.00, 350.1, 28.0)">o</text><text xml:space="preserve" font-family="Avenir-Book" font-size="20.0" fill="#D5D5D5" transform="matrix(1.00, 0.00, -0.00, -1.00, 362.0, 28.0)">a</text><text xml:space="preserve" font-family="Avenir-Book" font-size="20.0" fill="#D5D5D5" transform="matrix(1.00, 0.00, -0.00, -1.00, 372.4, 28.0)">c</text><text xml:space="preserve" font-family="Avenir-Book" font-size="20.0" fill="#D5D5D5" transform="matrix(1.00, 0.00, -0.00, -1.00, 382.0, 28.0)">h</text><text xml:space="preserve" font-family="Avenir-Book" font-size="20.0" fill="#D5D5D5" transform="matrix(1.00, 0.00, -0.00, -1.00, 393.1, 28.0)">e</text><text xml:space="preserve" font-family="Avenir-Book" font-size="20.0" fill="#D5D5D5" transform="matrix(1.00, 0.00, -0.00, -1.00, 404.2, 28.0)">s</text><text xml:space="preserve" font-family="Avenir-Book" font-size="20.0" fill="#D5D5D5" transform="matrix(1.00, 0.00, -0.00, -1.00, 412.8, 28.0)"> </text><text xml:space="preserve" font-family="Avenir-Book" font-size="20.0" fill="#D5D5D5" transform="matrix(1.00, 0.00, -0.00, -1.00, 418.3, 28.0)">f</text><text xml:space="preserve" font-family="Avenir-Book" font-size="20.0" fill="#D5D5D5" transform="matrix(1.00, 0.00, -0.00, -1.00, 424.2, 28.0)">o</text><text xml:space="preserve" font-family="Avenir-Book" font-size="20.0" fill="#D5D5D5" transform="matrix(1.00, 0.00, -0.00, -1.00, 436.1, 28.0)">r</text><text xml:space="preserve" font-family="Avenir-Book" font-size="20.0" fill="#D5D5D5" transform="matrix(1.00, 0.00, -0.00, -1.00, 442.7, 28.0)"> </text><text xml:space="preserve" font-family="Avenir-Book" font-size="20.0" fill="#D5D5D5" transform="matrix(1.00, 0.00, -0.00, -1.00, 448.3, 28.0)">M</text><text xml:space="preserve" font-family="Avenir-Book" font-size="20.0" fill="#D5D5D5" transform="matrix(1.00, 0.00, -0.00, -1.00, 466.1, 28.0)">u</text><text xml:space="preserve" font-family="Avenir-Book" font-size="20.0" fill="#D5D5D5" transform="matrix(1.00, 0.00, -0.00, -1.00, 477.2, 28.0)">s</text><text xml:space="preserve" font-family="Avenir-Book" font-size="20.0" fill="#D5D5D5" transform="matrix(1.00, 0.00, -0.00, -1.00, 485.7, 28.0)">i</text><text xml:space="preserve" font-family="Avenir-Book" font-size="20.0" fill="#D5D5D5" transform="matrix(1.00, 0.00, -0.00, -1.00, 490.5, 28.0)">c</text><text xml:space="preserve" font-family="Avenir-Book" font-size="20.0" fill="#D5D5D5" transform="matrix(1.00, 0.00, -0.00, -1.00, 500.2, 28.0)"> </text><text xml:space="preserve" font-family="Avenir-Book" font-size="20.0" fill="#D5D5D5" transform="matrix(1.00, 0.00, -0.00, -1.00, 505.7, 28.0)">R</text><text xml:space="preserve" font-family="Avenir-Book" font-size="20.0" fill="#D5D5D5" transform="matrix(1.00, 0.00, -0.00, -1.00, 517.6, 28.0)">e</text><text xml:space="preserve" font-family="Avenir-Book" font-size="20.0" fill="#D5D5D5" transform="matrix(1.00, 0.00, -0.00, -1.00, 528.7, 28.0)">p</text><text xml:space="preserve" font-family="Avenir-Book" font-size="20.0" fill="#D5D5D5" transform="matrix(1.00, 0.00, -0.00, -1.00, 540.9, 28.0)">r</text><text xml:space="preserve" font-family="Avenir-Book" font-size="20.0" fill="#D5D5D5" transform="matrix(1.00, 0.00, -0.00, -1.00, 547.2, 28.0)">e</text><text xml:space="preserve" font-family="Avenir-Book" font-size="20.0" fill="#D5D5D5" transform="matrix(1.00, 0.00, -0.00, -1.00, 558.3, 28.0)">s</text><text xml:space="preserve" font-family="Avenir-Book" font-size="20.0" fill="#D5D5D5" transform="matrix(1.00, 0.00, -0.00, -1.00, 566.9, 28.0)">e</text><text xml:space="preserve" font-family="Avenir-Book" font-size="20.0" fill="#D5D5D5" transform="matrix(1.00, 0.00, -0.00, -1.00, 578.0, 28.0)">n</text><text xml:space="preserve" font-family="Avenir-Book" font-size="20.0" fill="#D5D5D5" transform="matrix(1.00, 0.00, -0.00, -1.00, 589.1, 28.0)">t</text><text xml:space="preserve" font-family="Avenir-Book" font-size="20.0" fill="#D5D5D5" transform="matrix(1.00, 0.00, -0.00, -1.00, 595.7, 28.0)">a</text><text xml:space="preserve" font-family="Avenir-Book" font-size="20.0" fill="#D5D5D5" transform="matrix(1.00, 0.00, -0.00, -1.00, 606.1, 28.0)">t</text><text xml:space="preserve" font-family="Avenir-Book" font-size="20.0" fill="#D5D5D5" transform="matrix(1.00, 0.00, -0.00, -1.00, 612.8, 28.0)">i</text><text xml:space="preserve" font-family="Avenir-Book" font-size="20.0" fill="#D5D5D5" transform="matrix(1.00, 0.00, -0.00, -1.00, 617.6, 28.0)">o</text><text xml:space="preserve" font-family="Avenir-Book" font-size="20.0" fill="#D5D5D5" transform="matrix(1.00, 0.00, -0.00, -1.00, 629.4, 28.0)">n</text><text xml:space="preserve" font-family="Avenir-Book" font-size="20.0" fill="#D5D5D5" transform="matrix(1.00, 0.00, -0.00, -1.00, 640.5, 28.0)"> </text><text xml:space="preserve" font-family="Avenir-Book" font-size="20.0" fill="#D5D5D5" transform="matrix(1.00, 0.00, -0.00, -1.00, 646.1, 28.0)">a</text><text xml:space="preserve" font-family="Avenir-Book" font-size="20.0" fill="#D5D5D5" transform="matrix(1.00, 0.00, -0.00, -1.00, 656.5, 28.0)">n</text><text xml:space="preserve" font-family="Avenir-Book" font-size="20.0" fill="#D5D5D5" transform="matrix(1.00, 0.00, -0.00, -1.00, 667.6, 28.0)">d</text><text xml:space="preserve" font-family="Avenir-Book" font-size="20.0" fill="#D5D5D5" transform="matrix(1.00, 0.00, -0.00, -1.00, 679.8, 28.0)"> </text><text xml:space="preserve" font-family="Avenir-Book" font-size="20.0" fill="#D5D5D5" transform="matrix(1.00, 0.00, -0.00, -1.00, 685.4, 28.0)">N</text><text xml:space="preserve" font-family="Avenir-Book" font-size="20.0" fill="#D5D5D5" transform="matrix(1.00, 0.00, -0.00, -1.00, 700.9, 28.0)">o</text><text xml:space="preserve" font-family="Avenir-Book" font-size="20.0" fill="#D5D5D5" transform="matrix(1.00, 0.00, -0.00, -1.00, 712.8, 28.0)">t</text><text xml:space="preserve" font-family="Avenir-Book" font-size="20.0" fill="#D5D5D5" transform="matrix(1.00, 0.00, -0.00, -1.00, 719.4, 28.0)">a</text><text xml:space="preserve" font-family="Avenir-Book" font-size="20.0" fill="#D5D5D5" transform="matrix(1.00, 0.00, -0.00, -1.00, 729.8, 28.0)">t</text><text xml:space="preserve" font-family="Avenir-Book" font-size="20.0" fill="#D5D5D5" transform="matrix(1.00, 0.00, -0.00, -1.00, 736.5, 28.0)">i</text><text xml:space="preserve" font-family="Avenir-Book" font-size="20.0" fill="#D5D5D5" transform="matrix(1.00, 0.00, -0.00, -1.00, 741.3, 28.0)">o</text><text xml:space="preserve" font-family="Avenir-Book" font-size="20.0" fill="#D5D5D5" transform="matrix(1.00, 0.00, -0.00, -1.00, 753.1, 28.0)">n</text><text xml:space="preserve" font-family="AvenirNext-Regular" font-size="53.0" fill="#FEFFFF" transform="matrix(1.00, 0.00, -0.00, -1.00, 74.0, 677.0)">S</text><text xml:space="preserve" font-family="AvenirNext-Regular" font-size="53.0" fill="#FEFFFF" transform="matrix(1.00, 0.00, -0.00, -1.00, 103.9, 677.0)">o</text><text xml:space="preserve" font-family="AvenirNext-Regular" font-size="53.0" fill="#FEFFFF" transform="matrix(1.00, 0.00, -0.00, -1.00, 136.3, 677.0)">m</text><text xml:space="preserve" font-family="AvenirNext-Regular" font-size="53.0" fill="#FEFFFF" transform="matrix(1.00, 0.00, -0.00, -1.00, 183.1, 677.0)">e</text><text xml:space="preserve" font-family="AvenirNext-Regular" font-size="53.0" fill="#FEFFFF" transform="matrix(1.00, 0.00, -0.00, -1.00, 213.4, 677.0)"> </text><text xml:space="preserve" font-family="AvenirNext-Regular" font-size="53.0" fill="#FEFFFF" transform="matrix(1.00, 0.00, -0.00, -1.00, 226.6, 677.0)">n</text><text xml:space="preserve" font-family="AvenirNext-Regular" font-size="53.0" fill="#FEFFFF" transform="matrix(1.00, 0.00, -0.00, -1.00, 257.4, 677.0)">e</text><text xml:space="preserve" font-family="AvenirNext-Regular" font-size="53.0" fill="#FEFFFF" transform="matrix(1.00, 0.00, -0.00, -1.00, 287.7, 677.0)">w</text><text xml:space="preserve" font-family="AvenirNext-Regular" font-size="53.0" fill="#FEFFFF" transform="matrix(1.00, 0.00, -0.00, -1.00, 327.3, 677.0)"> </text><text xml:space="preserve" font-family="AvenirNext-Regular" font-size="53.0" fill="#FEFFFF" transform="matrix(1.00, 0.00, -0.00, -1.00, 340.5, 677.0)">i</text><text xml:space="preserve" font-family="AvenirNext-Regular" font-size="53.0" fill="#FEFFFF" transform="matrix(1.00, 0.00, -0.00, -1.00, 353.8, 677.0)">n</text><text xml:space="preserve" font-family="AvenirNext-Regular" font-size="53.0" fill="#FEFFFF" transform="matrix(1.00, 0.00, -0.00, -1.00, 384.6, 677.0)">s</text><text xml:space="preserve" font-family="AvenirNext-Regular" font-size="53.0" fill="#FEFFFF" transform="matrix(1.00, 0.00, -0.00, -1.00, 408.1, 677.0)">t</text><text xml:space="preserve" font-family="AvenirNext-Regular" font-size="53.0" fill="#FEFFFF" transform="matrix(1.00, 0.00, -0.00, -1.00, 424.9, 677.0)">r</text><text xml:space="preserve" font-family="AvenirNext-Regular" font-size="53.0" fill="#FEFFFF" transform="matrix(1.00, 0.00, -0.00, -1.00, 444.0, 677.0)">u</text><text xml:space="preserve" font-family="AvenirNext-Regular" font-size="53.0" fill="#FEFFFF" transform="matrix(1.00, 0.00, -0.00, -1.00, 474.8, 677.0)">m</text><text xml:space="preserve" font-family="AvenirNext-Regular" font-size="53.0" fill="#FEFFFF" transform="matrix(1.00, 0.00, -0.00, -1.00, 521.6, 677.0)">e</text><text xml:space="preserve" font-family="AvenirNext-Regular" font-size="53.0" fill="#FEFFFF" transform="matrix(1.00, 0.00, -0.00, -1.00, 551.9, 677.0)">n</text><text xml:space="preserve" font-family="AvenirNext-Regular" font-size="53.0" fill="#FEFFFF" transform="matrix(1.00, 0.00, -0.00, -1.00, 582.7, 677.0)">t</text><text xml:space="preserve" font-family="AvenirNext-Regular" font-size="53.0" fill="#FEFFFF" transform="matrix(1.00, 0.00, -0.00, -1.00, 599.5, 677.0)">s</text><text xml:space="preserve" font-family="AvenirNext-Regular" font-size="53.0" fill="#FEFFFF" transform="matrix(1.00, 0.00, -0.00, -1.00, 623.0, 677.0)">…</text><text xml:space="preserve" font-family="Avenir-Book" font-size="18.0" fill="#D5D5D5" transform="matrix(1.00, 0.00, -0.00, -1.00, 35.0, 28.0)">9</text><text xml:space="preserve" font-family="Avenir-Black" font-weight="bold" font-size="28.3" fill="#FEFFFF" transform="matrix(1.00, 0.00, -0.00, -1.00, 334.0, 84.0)">B</text><text xml:space="preserve" font-family="Avenir-Black" font-weight="bold" font-size="28.3" fill="#FEFFFF" transform="matrix(1.00, 0.00, -0.00, -1.00, 352.4, 84.0)">e</text><text xml:space="preserve" font-family="Avenir-Black" font-weight="bold" font-size="28.3" fill="#FEFFFF" transform="matrix(1.00, 0.00, -0.00, -1.00, 368.6, 84.0)">l</text><text xml:space="preserve" font-family="Avenir-Black" font-weight="bold" font-size="28.3" fill="#FEFFFF" transform="matrix(1.00, 0.00, -0.00, -1.00, 376.0, 84.0)">i</text><text xml:space="preserve" font-family="Avenir-Black" font-weight="bold" font-size="28.3" fill="#FEFFFF" transform="matrix(1.00, 0.00, -0.00, -1.00, 383.3, 84.0)">a</text><text xml:space="preserve" font-family="Avenir-Black" font-weight="bold" font-size="28.3" fill="#FEFFFF" transform="matrix(1.00, 0.00, -0.00, -1.00, 398.5, 84.0)">l</text><text xml:space="preserve" font-family="Avenir-Black" font-weight="bold" font-size="28.3" fill="#FEFFFF" transform="matrix(1.00, 0.00, -0.00, -1.00, 405.9, 84.0)"> </text><text xml:space="preserve" font-family="Avenir-Black" font-weight="bold" font-size="28.3" fill="#FEFFFF" transform="matrix(1.00, 0.00, -0.00, -1.00, 414.3, 84.0)">-</text><text xml:space="preserve" font-family="Avenir-Black" font-weight="bold" font-size="28.3" fill="#FEFFFF" transform="matrix(1.00, 0.00, -0.00, -1.00, 422.7, 84.0)"> </text><text xml:space="preserve" font-family="Avenir-Medium" font-size="28.3" fill="#FEFFFF" transform="matrix(1.00, 0.00, -0.00, -1.00, 431.1, 84.0)">X</text><text xml:space="preserve" font-family="Avenir-Medium" font-size="28.3" fill="#FEFFFF" transform="matrix(1.00, 0.00, -0.00, -1.00, 449.4, 84.0)">a</text><text xml:space="preserve" font-family="Avenir-Medium" font-size="28.3" fill="#FEFFFF" transform="matrix(1.00, 0.00, -0.00, -1.00, 464.1, 84.0)">v</text><text xml:space="preserve" font-family="Avenir-Medium" font-size="28.3" fill="#FEFFFF" transform="matrix(1.00, 0.00, -0.00, -1.00, 478.3, 84.0)">i</text><text xml:space="preserve" font-family="Avenir-Medium" font-size="28.3" fill="#FEFFFF" transform="matrix(1.00, 0.00, -0.00, -1.00, 485.1, 84.0)">e</text><text xml:space="preserve" font-family="Avenir-Medium" font-size="28.3" fill="#FEFFFF" transform="matrix(1.00, 0.00, -0.00, -1.00, 500.8, 84.0)">r</text><text xml:space="preserve" font-family="Avenir-Medium" font-size="28.3" fill="#FEFFFF" transform="matrix(1.00, 0.00, -0.00, -1.00, 511.3, 84.0)"> </text><text xml:space="preserve" font-family="Avenir-Medium" font-size="28.3" fill="#FEFFFF" transform="matrix(1.00, 0.00, -0.00, -1.00, 519.2, 84.0)">G</text><text xml:space="preserve" font-family="Avenir-Medium" font-size="28.3" fill="#FEFFFF" transform="matrix(1.00, 0.00, -0.00, -1.00, 541.2, 84.0)">r</text><text xml:space="preserve" font-family="Avenir-Medium" font-size="28.3" fill="#FEFFFF" transform="matrix(1.00, 0.00, -0.00, -1.00, 551.7, 84.0)">a</text><text xml:space="preserve" font-family="Avenir-Medium" font-size="28.3" fill="#FEFFFF" transform="matrix(1.00, 0.00, -0.00, -1.00, 566.4, 84.0)">c</text><text xml:space="preserve" font-family="Avenir-Medium" font-size="28.3" fill="#FEFFFF" transform="matrix(1.00, 0.00, -0.00, -1.00, 580.0, 84.0)">i</text><text xml:space="preserve" font-family="Avenir-Medium" font-size="28.3" fill="#FEFFFF" transform="matrix(1.00, 0.00, -0.00, -1.00, 586.8, 84.0)">a</text><text xml:space="preserve" font-family="Avenir-Medium" font-size="28.3" fill="#FEFFFF" transform="matrix(1.00, 0.00, -0.00, -1.00, 601.5, 84.0)"> </text><text xml:space="preserve" font-family="Avenir-Medium" font-size="28.3" fill="#FEFFFF" transform="matrix(1.00, 0.00, -0.00, -1.00, 609.4, 84.0)">-</text><text xml:space="preserve" font-family="Avenir-Medium" font-size="28.3" fill="#FEFFFF" transform="matrix(1.00, 0.00, -0.00, -1.00, 618.3, 84.0)"> </text><text xml:space="preserve" font-family="Avenir-Medium" font-size="28.3" fill="#FEFFFF" transform="matrix(1.00, 0.00, -0.00, -1.00, 626.2, 84.0)">2</text><text xml:space="preserve" font-family="Avenir-Medium" font-size="28.3" fill="#FEFFFF" transform="matrix(1.00, 0.00, -0.00, -1.00, 642.0, 84.0)">0</text><text xml:space="preserve" font-family="Avenir-Medium" font-size="28.3" fill="#FEFFFF" transform="matrix(1.00, 0.00, -0.00, -1.00, 657.7, 84.0)">1</text><text xml:space="preserve" font-family="Avenir-Medium" font-size="28.3" fill="#FEFFFF" transform="matrix(1.00, 0.00, -0.00, -1.00, 673.4, 84.0)">4</text><image xlink:href="54D9EAA4E0C155C2B223FAD52F5C756B.png" width="920.00" height="517.00" transform="matrix(1.00, 0.00, -0.00, -1.00, 52.0, 662.0)"></image></g></svg>