<?xml version="1.0" encoding="UTF-8" standalone="no"?><svg xmlns="http://www.w3.org/2000/svg" xmlns:xlink="http://www.w3.org/1999/xlink" clip-rule="evenodd" stroke-miterlimit="4.00" viewBox="0 0 658 28"><desc>SVG generated by Keynote</desc><defs></defs><g transform="matrix(1.00, 0.00, -0.00, -1.00, 0.0, 28.0)"><text xml:space="preserve" font-family="Avenir-Book" font-size="28.0" fill="#FEFFFE" transform="matrix(1.00, 0.00, -0.00, -1.00, 1.0, 9.0)">e</text><text xml:space="preserve" font-family="Avenir-Book" font-size="28.0" fill="#FEFFFE" transform="matrix(1.00, 0.00, -0.00, -1.00, 16.6, 9.0)">.</text><text xml:space="preserve" font-family="Avenir-Book" font-size="28.0" fill="#FEFFFE" transform="matrix(1.00, 0.00, -0.00, -1.00, 24.4, 9.0)">g</text><text xml:space="preserve" font-family="Avenir-Book" font-size="28.0" fill="#FEFFFE" transform="matrix(1.00, 0.00, -0.00, -1.00, 41.5, 9.0)">.</text><text xml:space="preserve" font-family="Avenir-Book" font-size="28.0" fill="#FEFFFE" transform="matrix(1.00, 0.00, -0.00, -1.00, 49.2, 9.0)"> </text><text xml:space="preserve" font-family="Courier" font-size="24.0" fill="#F5D327" transform="matrix(1.00, 0.00, -0.00, -1.00, 57.0, 9.0)">/</text><text xml:space="preserve" font-family="Courier" font-size="24.0" fill="#F5D327" transform="matrix(1.00, 0.00, -0.00, -1.00, 71.4, 9.0)">I</text><text xml:space="preserve" font-family="Courier" font-size="24.0" fill="#F5D327" transform="matrix(1.00, 0.00, -0.00, -1.00, 85.8, 9.0)">T</text><text xml:space="preserve" font-family="Courier" font-size="24.0" fill="#F5D327" transform="matrix(1.00, 0.00, -0.00, -1.00, 100.2, 9.0)">L</text><text xml:space="preserve" font-family="Courier" font-size="24.0" fill="#F5D327" transform="matrix(1.00, 0.00, -0.00, -1.00, 114.6, 9.0)">/</text><text xml:space="preserve" font-family="Courier" font-size="24.0" fill="#F5D327" transform="matrix(1.00, 0.00, -0.00, -1.00, 129.1, 9.0)">s</text><text xml:space="preserve" font-family="Courier" font-size="24.0" fill="#F5D327" transform="matrix(1.00, 0.00, -0.00, -1.00, 143.5, 9.0)">c</text><text xml:space="preserve" font-family="Courier" font-size="24.0" fill="#F5D327" transform="matrix(1.00, 0.00, -0.00, -1.00, 157.9, 9.0)">e</text><text xml:space="preserve" font-family="Courier" font-size="24.0" fill="#F5D327" transform="matrix(1.00, 0.00, -0.00, -1.00, 172.3, 9.0)">n</text><text xml:space="preserve" font-family="Courier" font-size="24.0" fill="#F5D327" transform="matrix(1.00, 0.00, -0.00, -1.00, 186.7, 9.0)">e</text><text xml:space="preserve" font-family="Courier" font-size="24.0" fill="#F5D327" transform="matrix(1.00, 0.00, -0.00, -1.00, 201.1, 9.0)">/</text><text xml:space="preserve" font-family="Courier" font-size="24.0" fill="#F5D327" transform="matrix(1.00, 0.00, -0.00, -1.00, 215.5, 9.0)">j</text><text xml:space="preserve" font-family="Courier" font-size="24.0" fill="#F5D327" transform="matrix(1.00, 0.00, -0.00, -1.00, 229.9, 9.0)">a</text><text xml:space="preserve" font-family="Courier" font-size="24.0" fill="#F5D327" transform="matrix(1.00, 0.00, -0.00, -1.00, 244.3, 9.0)">v</text><text xml:space="preserve" font-family="Courier" font-size="24.0" fill="#F5D327" transform="matrix(1.00, 0.00, -0.00, -1.00, 258.7, 9.0)">a</text><text xml:space="preserve" font-family="Courier" font-size="24.0" fill="#F5D327" transform="matrix(1.00, 0.00, -0.00, -1.00, 273.1, 9.0)">s</text><text xml:space="preserve" font-family="Courier" font-size="24.0" fill="#F5D327" transform="matrix(1.00, 0.00, -0.00, -1.00, 287.5, 9.0)">c</text><text xml:space="preserve" font-family="Courier" font-size="24.0" fill="#F5D327" transform="matrix(1.00, 0.00, -0.00, -1.00, 301.9, 9.0)">r</text><text xml:space="preserve" font-family="Courier" font-size="24.0" fill="#F5D327" transform="matrix(1.00, 0.00, -0.00, -1.00, 316.3, 9.0)">i</text><text xml:space="preserve" font-family="Courier" font-size="24.0" fill="#F5D327" transform="matrix(1.00, 0.00, -0.00, -1.00, 330.7, 9.0)">p</text><text xml:space="preserve" font-family="Courier" font-size="24.0" fill="#F5D327" transform="matrix(1.00, 0.00, -0.00, -1.00, 345.1, 9.0)">t</text><text xml:space="preserve" font-family="Courier" font-size="24.0" fill="#F5D327" transform="matrix(1.00, 0.00, -0.00, -1.00, 359.5, 9.0)"> </text><text xml:space="preserve" font-family="Courier" font-size="24.0" fill="#F5D327" transform="matrix(1.00, 0.00, -0.00, -1.00, 373.9, 9.0)">r</text><text xml:space="preserve" font-family="Courier" font-size="24.0" fill="#F5D327" transform="matrix(1.00, 0.00, -0.00, -1.00, 388.3, 9.0)">u</text><text xml:space="preserve" font-family="Courier" font-size="24.0" fill="#F5D327" transform="matrix(1.00, 0.00, -0.00, -1.00, 402.7, 9.0)">n</text><text xml:space="preserve" font-family="Courier" font-size="24.0" fill="#F5D327" transform="matrix(1.00, 0.00, -0.00, -1.00, 417.1, 9.0)"> </text><text xml:space="preserve" font-family="Courier" font-size="24.0" fill="#F5D327" transform="matrix(1.00, 0.00, -0.00, -1.00, 431.6, 9.0)">‘</text><text xml:space="preserve" font-family="Courier" font-size="24.0" fill="#F5D327" transform="matrix(1.00, 0.00, -0.00, -1.00, 446.0, 9.0)">a</text><text xml:space="preserve" font-family="Courier" font-size="24.0" fill="#F5D327" transform="matrix(1.00, 0.00, -0.00, -1.00, 460.4, 9.0)">j</text><text xml:space="preserve" font-family="Courier" font-size="24.0" fill="#F5D327" transform="matrix(1.00, 0.00, -0.00, -1.00, 474.8, 9.0)">s</text><text xml:space="preserve" font-family="Courier" font-size="24.0" fill="#F5D327" transform="matrix(1.00, 0.00, -0.00, -1.00, 489.2, 9.0)">f</text><text xml:space="preserve" font-family="Courier" font-size="24.0" fill="#F5D327" transform="matrix(1.00, 0.00, -0.00, -1.00, 503.6, 9.0)">u</text><text xml:space="preserve" font-family="Courier" font-size="24.0" fill="#F5D327" transform="matrix(1.00, 0.00, -0.00, -1.00, 518.0, 9.0)">n</text><text xml:space="preserve" font-family="Courier" font-size="24.0" fill="#F5D327" transform="matrix(1.00, 0.00, -0.00, -1.00, 532.4, 9.0)">c</text><text xml:space="preserve" font-family="Courier" font-size="24.0" fill="#F5D327" transform="matrix(1.00, 0.00, -0.00, -1.00, 546.8, 9.0)">t</text><text xml:space="preserve" font-family="Courier" font-size="24.0" fill="#F5D327" transform="matrix(1.00, 0.00, -0.00, -1.00, 561.2, 9.0)">i</text><text xml:space="preserve" font-family="Courier" font-size="24.0" fill="#F5D327" transform="matrix(1.00, 0.00, -0.00, -1.00, 575.6, 9.0)">o</text><text xml:space="preserve" font-family="Courier" font-size="24.0" fill="#F5D327" transform="matrix(1.00, 0.00, -0.00, -1.00, 590.0, 9.0)">n</text><text xml:space="preserve" font-family="Courier" font-size="24.0" fill="#F5D327" transform="matrix(1.00, 0.00, -0.00, -1.00, 604.4, 9.0)">(</text><text xml:space="preserve" font-family="Courier" font-size="24.0" fill="#F5D327" transform="matrix(1.00, 0.00, -0.00, -1.00, 618.8, 9.0)">)</text><text xml:space="preserve" font-family="Courier" font-size="24.0" fill="#F5D327" transform="matrix(1.00, 0.00, -0.00, -1.00, 633.2, 9.0)">’</text><text xml:space="preserve" font-family="Courier" font-size="24.0" fill="#F5D327" transform="matrix(1.00, 0.00, -0.00, -1.00, 647.6, 9.0)">;</text></g></svg>