<?xml version="1.0" encoding="UTF-8" standalone="no"?><svg xmlns="http://www.w3.org/2000/svg" xmlns:xlink="http://www.w3.org/1999/xlink" clip-rule="evenodd" stroke-miterlimit="4.00" viewBox="0 0 380 239"><desc>SVG generated by Keynote</desc><defs></defs><g transform="matrix(1.00, 0.00, -0.00, -1.00, 0.0, 239.0)"><text xml:space="preserve" font-family="Avenir-Book" font-size="35.0" fill="#E42100" transform="matrix(1.00, 0.00, -0.00, -1.00, 0.0, 203.4)">•</text><text xml:space="preserve" font-family="Avenir-Book" font-size="28.0" fill="#FEFFFE" transform="matrix(1.00, 0.00, -0.00, -1.00, 34.0, 206.0)">v</text><text xml:space="preserve" font-family="Avenir-Book" font-size="28.0" fill="#FEFFFE" transform="matrix(1.00, 0.00, -0.00, -1.00, 47.5, 206.0)">a</text><text xml:space="preserve" font-family="Avenir-Book" font-size="28.0" fill="#FEFFFE" transform="matrix(1.00, 0.00, -0.00, -1.00, 62.0, 206.0)">r</text><text xml:space="preserve" font-family="Avenir-Book" font-size="28.0" fill="#FEFFFE" transform="matrix(1.00, 0.00, -0.00, -1.00, 71.3, 206.0)">i</text><text xml:space="preserve" font-family="Avenir-Book" font-size="28.0" fill="#FEFFFE" transform="matrix(1.00, 0.00, -0.00, -1.00, 78.0, 206.0)">a</text><text xml:space="preserve" font-family="Avenir-Book" font-size="28.0" fill="#FEFFFE" transform="matrix(1.00, 0.00, -0.00, -1.00, 92.6, 206.0)">b</text><text xml:space="preserve" font-family="Avenir-Book" font-size="28.0" fill="#FEFFFE" transform="matrix(1.00, 0.00, -0.00, -1.00, 109.7, 206.0)">l</text><text xml:space="preserve" font-family="Avenir-Book" font-size="28.0" fill="#FEFFFE" transform="matrix(1.00, 0.00, -0.00, -1.00, 116.4, 206.0)">e</text><text xml:space="preserve" font-family="Avenir-Book" font-size="28.0" fill="#FEFFFE" transform="matrix(1.00, 0.00, -0.00, -1.00, 132.0, 206.0)">s</text><text xml:space="preserve" font-family="Avenir-Book" font-size="28.0" fill="#FEFFFE" transform="matrix(1.00, 0.00, -0.00, -1.00, 143.9, 206.0)"> </text><text xml:space="preserve" font-family="Avenir-Book" font-size="35.0" fill="#E42100" transform="matrix(1.00, 0.00, -0.00, -1.00, 0.0, 165.4)">•</text><text xml:space="preserve" font-family="Avenir-Book" font-size="28.0" fill="#FEFFFE" transform="matrix(1.00, 0.00, -0.00, -1.00, 34.0, 168.0)">e</text><text xml:space="preserve" font-family="Avenir-Book" font-size="28.0" fill="#FEFFFE" transform="matrix(1.00, 0.00, -0.00, -1.00, 49.6, 168.0)">x</text><text xml:space="preserve" font-family="Avenir-Book" font-size="28.0" fill="#FEFFFE" transform="matrix(1.00, 0.00, -0.00, -1.00, 63.1, 168.0)">t</text><text xml:space="preserve" font-family="Avenir-Book" font-size="28.0" fill="#FEFFFE" transform="matrix(1.00, 0.00, -0.00, -1.00, 72.4, 168.0)">e</text><text xml:space="preserve" font-family="Avenir-Book" font-size="28.0" fill="#FEFFFE" transform="matrix(1.00, 0.00, -0.00, -1.00, 87.9, 168.0)">n</text><text xml:space="preserve" font-family="Avenir-Book" font-size="28.0" fill="#FEFFFE" transform="matrix(1.00, 0.00, -0.00, -1.00, 103.5, 168.0)">d</text><text xml:space="preserve" font-family="Avenir-Book" font-size="28.0" fill="#FEFFFE" transform="matrix(1.00, 0.00, -0.00, -1.00, 120.6, 168.0)">e</text><text xml:space="preserve" font-family="Avenir-Book" font-size="28.0" fill="#FEFFFE" transform="matrix(1.00, 0.00, -0.00, -1.00, 136.2, 168.0)">d</text><text xml:space="preserve" font-family="Avenir-Book" font-size="28.0" fill="#FEFFFE" transform="matrix(1.00, 0.00, -0.00, -1.00, 153.3, 168.0)"> </text><text xml:space="preserve" font-family="Avenir-Book" font-size="28.0" fill="#FEFFFE" transform="matrix(1.00, 0.00, -0.00, -1.00, 161.1, 168.0)">O</text><text xml:space="preserve" font-family="Avenir-Book" font-size="28.0" fill="#FEFFFE" transform="matrix(1.00, 0.00, -0.00, -1.00, 184.4, 168.0)">S</text><text xml:space="preserve" font-family="Avenir-Book" font-size="28.0" fill="#FEFFFE" transform="matrix(1.00, 0.00, -0.00, -1.00, 200.0, 168.0)">C</text><text xml:space="preserve" font-family="Avenir-Book" font-size="28.0" fill="#FEFFFE" transform="matrix(1.00, 0.00, -0.00, -1.00, 219.7, 168.0)"> </text><text xml:space="preserve" font-family="Avenir-Book" font-size="28.0" fill="#FEFFFE" transform="matrix(1.00, 0.00, -0.00, -1.00, 227.5, 168.0)">a</text><text xml:space="preserve" font-family="Avenir-Book" font-size="28.0" fill="#FEFFFE" transform="matrix(1.00, 0.00, -0.00, -1.00, 242.0, 168.0)">d</text><text xml:space="preserve" font-family="Avenir-Book" font-size="28.0" fill="#FEFFFE" transform="matrix(1.00, 0.00, -0.00, -1.00, 259.1, 168.0)">d</text><text xml:space="preserve" font-family="Avenir-Book" font-size="28.0" fill="#FEFFFE" transform="matrix(1.00, 0.00, -0.00, -1.00, 276.2, 168.0)">r</text><text xml:space="preserve" font-family="Avenir-Book" font-size="28.0" fill="#FEFFFE" transform="matrix(1.00, 0.00, -0.00, -1.00, 285.0, 168.0)">e</text><text xml:space="preserve" font-family="Avenir-Book" font-size="28.0" fill="#FEFFFE" transform="matrix(1.00, 0.00, -0.00, -1.00, 300.6, 168.0)">s</text><text xml:space="preserve" font-family="Avenir-Book" font-size="28.0" fill="#FEFFFE" transform="matrix(1.00, 0.00, -0.00, -1.00, 312.5, 168.0)">s</text><text xml:space="preserve" font-family="Avenir-Book" font-size="28.0" fill="#FEFFFE" transform="matrix(1.00, 0.00, -0.00, -1.00, 324.4, 168.0)">e</text><text xml:space="preserve" font-family="Avenir-Book" font-size="28.0" fill="#FEFFFE" transform="matrix(1.00, 0.00, -0.00, -1.00, 340.0, 168.0)">s</text><text xml:space="preserve" font-family="Avenir-Book" font-size="28.0" fill="#FEFFFE" transform="matrix(1.00, 0.00, -0.00, -1.00, 351.9, 168.0)"> </text><text xml:space="preserve" font-family="Avenir-Book" font-size="35.0" fill="#E42100" transform="matrix(1.00, 0.00, -0.00, -1.00, 0.0, 127.4)">•</text><text xml:space="preserve" font-family="Avenir-Book" font-size="28.0" fill="#FEFFFE" transform="matrix(1.00, 0.00, -0.00, -1.00, 34.0, 130.0)">r</text><text xml:space="preserve" font-family="Avenir-Book" font-size="28.0" fill="#FEFFFE" transform="matrix(1.00, 0.00, -0.00, -1.00, 42.8, 130.0)">e</text><text xml:space="preserve" font-family="Avenir-Book" font-size="28.0" fill="#FEFFFE" transform="matrix(1.00, 0.00, -0.00, -1.00, 58.4, 130.0)">l</text><text xml:space="preserve" font-family="Avenir-Book" font-size="28.0" fill="#FEFFFE" transform="matrix(1.00, 0.00, -0.00, -1.00, 65.1, 130.0)">a</text><text xml:space="preserve" font-family="Avenir-Book" font-size="28.0" fill="#FEFFFE" transform="matrix(1.00, 0.00, -0.00, -1.00, 79.6, 130.0)">t</text><text xml:space="preserve" font-family="Avenir-Book" font-size="28.0" fill="#FEFFFE" transform="matrix(1.00, 0.00, -0.00, -1.00, 88.9, 130.0)">i</text><text xml:space="preserve" font-family="Avenir-Book" font-size="28.0" fill="#FEFFFE" transform="matrix(1.00, 0.00, -0.00, -1.00, 95.6, 130.0)">v</text><text xml:space="preserve" font-family="Avenir-Book" font-size="28.0" fill="#FEFFFE" transform="matrix(1.00, 0.00, -0.00, -1.00, 109.1, 130.0)">e</text><text xml:space="preserve" font-family="Avenir-Book" font-size="28.0" fill="#FEFFFE" transform="matrix(1.00, 0.00, -0.00, -1.00, 124.7, 130.0)"> </text><text xml:space="preserve" font-family="Avenir-Book" font-size="28.0" fill="#FEFFFE" transform="matrix(1.00, 0.00, -0.00, -1.00, 132.5, 130.0)">a</text><text xml:space="preserve" font-family="Avenir-Book" font-size="28.0" fill="#FEFFFE" transform="matrix(1.00, 0.00, -0.00, -1.00, 147.0, 130.0)">d</text><text xml:space="preserve" font-family="Avenir-Book" font-size="28.0" fill="#FEFFFE" transform="matrix(1.00, 0.00, -0.00, -1.00, 164.1, 130.0)">d</text><text xml:space="preserve" font-family="Avenir-Book" font-size="28.0" fill="#FEFFFE" transform="matrix(1.00, 0.00, -0.00, -1.00, 181.2, 130.0)">r</text><text xml:space="preserve" font-family="Avenir-Book" font-size="28.0" fill="#FEFFFE" transform="matrix(1.00, 0.00, -0.00, -1.00, 190.0, 130.0)">e</text><text xml:space="preserve" font-family="Avenir-Book" font-size="28.0" fill="#FEFFFE" transform="matrix(1.00, 0.00, -0.00, -1.00, 205.6, 130.0)">s</text><text xml:space="preserve" font-family="Avenir-Book" font-size="28.0" fill="#FEFFFE" transform="matrix(1.00, 0.00, -0.00, -1.00, 217.5, 130.0)">s</text><text xml:space="preserve" font-family="Avenir-Book" font-size="28.0" fill="#FEFFFE" transform="matrix(1.00, 0.00, -0.00, -1.00, 229.4, 130.0)">e</text><text xml:space="preserve" font-family="Avenir-Book" font-size="28.0" fill="#FEFFFE" transform="matrix(1.00, 0.00, -0.00, -1.00, 245.0, 130.0)">s</text><text xml:space="preserve" font-family="Avenir-Book" font-size="28.0" fill="#FEFFFE" transform="matrix(1.00, 0.00, -0.00, -1.00, 256.9, 130.0)"> </text><text xml:space="preserve" font-family="Avenir-Book" font-size="35.0" fill="#E42100" transform="matrix(1.00, 0.00, -0.00, -1.00, 0.0, 89.4)">•</text><text xml:space="preserve" font-family="Avenir-Book" font-size="28.0" fill="#FEFFFE" transform="matrix(1.00, 0.00, -0.00, -1.00, 34.0, 92.0)">m</text><text xml:space="preserve" font-family="Avenir-Book" font-size="28.0" fill="#FEFFFE" transform="matrix(1.00, 0.00, -0.00, -1.00, 57.9, 92.0)">e</text><text xml:space="preserve" font-family="Avenir-Book" font-size="28.0" fill="#FEFFFE" transform="matrix(1.00, 0.00, -0.00, -1.00, 73.4, 92.0)">s</text><text xml:space="preserve" font-family="Avenir-Book" font-size="28.0" fill="#FEFFFE" transform="matrix(1.00, 0.00, -0.00, -1.00, 85.4, 92.0)">s</text><text xml:space="preserve" font-family="Avenir-Book" font-size="28.0" fill="#FEFFFE" transform="matrix(1.00, 0.00, -0.00, -1.00, 97.3, 92.0)">a</text><text xml:space="preserve" font-family="Avenir-Book" font-size="28.0" fill="#FEFFFE" transform="matrix(1.00, 0.00, -0.00, -1.00, 111.8, 92.0)">g</text><text xml:space="preserve" font-family="Avenir-Book" font-size="28.0" fill="#FEFFFE" transform="matrix(1.00, 0.00, -0.00, -1.00, 128.9, 92.0)">e</text><text xml:space="preserve" font-family="Avenir-Book" font-size="28.0" fill="#FEFFFE" transform="matrix(1.00, 0.00, -0.00, -1.00, 144.5, 92.0)"> </text><text xml:space="preserve" font-family="Avenir-Book" font-size="28.0" fill="#FEFFFE" transform="matrix(1.00, 0.00, -0.00, -1.00, 152.3, 92.0)">b</text><text xml:space="preserve" font-family="Avenir-Book" font-size="28.0" fill="#FEFFFE" transform="matrix(1.00, 0.00, -0.00, -1.00, 169.4, 92.0)">a</text><text xml:space="preserve" font-family="Avenir-Book" font-size="28.0" fill="#FEFFFE" transform="matrix(1.00, 0.00, -0.00, -1.00, 183.9, 92.0)">s</text><text xml:space="preserve" font-family="Avenir-Book" font-size="28.0" fill="#FEFFFE" transform="matrix(1.00, 0.00, -0.00, -1.00, 195.8, 92.0)">e</text><text xml:space="preserve" font-family="Avenir-Book" font-size="28.0" fill="#FEFFFE" transform="matrix(1.00, 0.00, -0.00, -1.00, 211.4, 92.0)">d</text><text xml:space="preserve" font-family="Avenir-Book" font-size="28.0" fill="#FEFFFE" transform="matrix(1.00, 0.00, -0.00, -1.00, 228.5, 92.0)"> </text><text xml:space="preserve" font-family="Avenir-Book" font-size="28.0" fill="#FEFFFE" transform="matrix(1.00, 0.00, -0.00, -1.00, 236.3, 92.0)">p</text><text xml:space="preserve" font-family="Avenir-Book" font-size="28.0" fill="#FEFFFE" transform="matrix(1.00, 0.00, -0.00, -1.00, 253.4, 92.0)">a</text><text xml:space="preserve" font-family="Avenir-Book" font-size="28.0" fill="#FEFFFE" transform="matrix(1.00, 0.00, -0.00, -1.00, 267.9, 92.0)">r</text><text xml:space="preserve" font-family="Avenir-Book" font-size="28.0" fill="#FEFFFE" transform="matrix(1.00, 0.00, -0.00, -1.00, 277.2, 92.0)">a</text><text xml:space="preserve" font-family="Avenir-Book" font-size="28.0" fill="#FEFFFE" transform="matrix(1.00, 0.00, -0.00, -1.00, 291.8, 92.0)">m</text><text xml:space="preserve" font-family="Avenir-Book" font-size="28.0" fill="#FEFFFE" transform="matrix(1.00, 0.00, -0.00, -1.00, 315.6, 92.0)">e</text><text xml:space="preserve" font-family="Avenir-Book" font-size="28.0" fill="#FEFFFE" transform="matrix(1.00, 0.00, -0.00, -1.00, 331.2, 92.0)">t</text><text xml:space="preserve" font-family="Avenir-Book" font-size="28.0" fill="#FEFFFE" transform="matrix(1.00, 0.00, -0.00, -1.00, 340.5, 92.0)">e</text><text xml:space="preserve" font-family="Avenir-Book" font-size="28.0" fill="#FEFFFE" transform="matrix(1.00, 0.00, -0.00, -1.00, 356.1, 92.0)">r</text><text xml:space="preserve" font-family="Avenir-Book" font-size="28.0" fill="#FEFFFE" transform="matrix(1.00, 0.00, -0.00, -1.00, 365.4, 92.0)">s</text><text xml:space="preserve" font-family="Avenir-Book" font-size="28.0" fill="#FEFFFE" transform="matrix(1.00, 0.00, -0.00, -1.00, 377.3, 92.0)"> </text><text xml:space="preserve" font-family="Avenir-Book" font-size="35.0" fill="#E42100" transform="matrix(1.00, 0.00, -0.00, -1.00, 0.0, 51.4)">•</text><text xml:space="preserve" font-family="Avenir-Book" font-size="28.0" fill="#FEFFFE" transform="matrix(1.00, 0.00, -0.00, -1.00, 34.0, 54.0)">j</text><text xml:space="preserve" font-family="Avenir-Book" font-size="28.0" fill="#FEFFFE" transform="matrix(1.00, 0.00, -0.00, -1.00, 40.7, 54.0)">a</text><text xml:space="preserve" font-family="Avenir-Book" font-size="28.0" fill="#FEFFFE" transform="matrix(1.00, 0.00, -0.00, -1.00, 55.3, 54.0)">v</text><text xml:space="preserve" font-family="Avenir-Book" font-size="28.0" fill="#FEFFFE" transform="matrix(1.00, 0.00, -0.00, -1.00, 68.7, 54.0)">a</text><text xml:space="preserve" font-family="Avenir-Book" font-size="28.0" fill="#FEFFFE" transform="matrix(1.00, 0.00, -0.00, -1.00, 83.3, 54.0)">s</text><text xml:space="preserve" font-family="Avenir-Book" font-size="28.0" fill="#FEFFFE" transform="matrix(1.00, 0.00, -0.00, -1.00, 95.2, 54.0)">c</text><text xml:space="preserve" font-family="Avenir-Book" font-size="28.0" fill="#FEFFFE" transform="matrix(1.00, 0.00, -0.00, -1.00, 108.7, 54.0)">r</text><text xml:space="preserve" font-family="Avenir-Book" font-size="28.0" fill="#FEFFFE" transform="matrix(1.00, 0.00, -0.00, -1.00, 118.0, 54.0)">i</text><text xml:space="preserve" font-family="Avenir-Book" font-size="28.0" fill="#FEFFFE" transform="matrix(1.00, 0.00, -0.00, -1.00, 124.7, 54.0)">p</text><text xml:space="preserve" font-family="Avenir-Book" font-size="28.0" fill="#FEFFFE" transform="matrix(1.00, 0.00, -0.00, -1.00, 141.8, 54.0)">t</text><text xml:space="preserve" font-family="Avenir-Book" font-size="28.0" fill="#FEFFFE" transform="matrix(1.00, 0.00, -0.00, -1.00, 151.1, 54.0)"> </text><text xml:space="preserve" font-family="Avenir-Book" font-size="28.0" fill="#FEFFFE" transform="matrix(1.00, 0.00, -0.00, -1.00, 158.9, 54.0)">s</text><text xml:space="preserve" font-family="Avenir-Book" font-size="28.0" fill="#FEFFFE" transform="matrix(1.00, 0.00, -0.00, -1.00, 170.8, 54.0)">e</text><text xml:space="preserve" font-family="Avenir-Book" font-size="28.0" fill="#FEFFFE" transform="matrix(1.00, 0.00, -0.00, -1.00, 186.4, 54.0)">c</text><text xml:space="preserve" font-family="Avenir-Book" font-size="28.0" fill="#FEFFFE" transform="matrix(1.00, 0.00, -0.00, -1.00, 199.9, 54.0)">t</text><text xml:space="preserve" font-family="Avenir-Book" font-size="28.0" fill="#FEFFFE" transform="matrix(1.00, 0.00, -0.00, -1.00, 209.2, 54.0)">i</text><text xml:space="preserve" font-family="Avenir-Book" font-size="28.0" fill="#FEFFFE" transform="matrix(1.00, 0.00, -0.00, -1.00, 215.9, 54.0)">o</text><text xml:space="preserve" font-family="Avenir-Book" font-size="28.0" fill="#FEFFFE" transform="matrix(1.00, 0.00, -0.00, -1.00, 232.5, 54.0)">n</text><text xml:space="preserve" font-family="Avenir-Book" font-size="28.0" fill="#FEFFFE" transform="matrix(1.00, 0.00, -0.00, -1.00, 248.1, 54.0)">s</text><text xml:space="preserve" font-family="Avenir-Book" font-size="28.0" fill="#FEFFFE" transform="matrix(1.00, 0.00, -0.00, -1.00, 260.0, 54.0)"> </text><text xml:space="preserve" font-family="Avenir-Book" font-size="35.0" fill="#E42100" transform="matrix(1.00, 0.00, -0.00, -1.00, 0.0, 13.4)">•</text><text xml:space="preserve" font-family="Avenir-Book" font-size="28.0" fill="#FEFFFE" transform="matrix(1.00, 0.00, -0.00, -1.00, 34.0, 16.0)">m</text><text xml:space="preserve" font-family="Avenir-Book" font-size="28.0" fill="#FEFFFE" transform="matrix(1.00, 0.00, -0.00, -1.00, 57.9, 16.0)">a</text><text xml:space="preserve" font-family="Avenir-Book" font-size="28.0" fill="#FEFFFE" transform="matrix(1.00, 0.00, -0.00, -1.00, 72.4, 16.0)">t</text><text xml:space="preserve" font-family="Avenir-Book" font-size="28.0" fill="#FEFFFE" transform="matrix(1.00, 0.00, -0.00, -1.00, 81.7, 16.0)">h</text><text xml:space="preserve" font-family="Avenir-Book" font-size="28.0" fill="#FEFFFE" transform="matrix(1.00, 0.00, -0.00, -1.00, 97.3, 16.0)"> </text><text xml:space="preserve" font-family="Avenir-Book" font-size="28.0" fill="#FEFFFE" transform="matrix(1.00, 0.00, -0.00, -1.00, 105.0, 16.0)">e</text><text xml:space="preserve" font-family="Avenir-Book" font-size="28.0" fill="#FEFFFE" transform="matrix(1.00, 0.00, -0.00, -1.00, 120.6, 16.0)">x</text><text xml:space="preserve" font-family="Avenir-Book" font-size="28.0" fill="#FEFFFE" transform="matrix(1.00, 0.00, -0.00, -1.00, 134.1, 16.0)">p</text><text xml:space="preserve" font-family="Avenir-Book" font-size="28.0" fill="#FEFFFE" transform="matrix(1.00, 0.00, -0.00, -1.00, 151.2, 16.0)">r</text><text xml:space="preserve" font-family="Avenir-Book" font-size="28.0" fill="#FEFFFE" transform="matrix(1.00, 0.00, -0.00, -1.00, 160.0, 16.0)">e</text><text xml:space="preserve" font-family="Avenir-Book" font-size="28.0" fill="#FEFFFE" transform="matrix(1.00, 0.00, -0.00, -1.00, 175.6, 16.0)">s</text><text xml:space="preserve" font-family="Avenir-Book" font-size="28.0" fill="#FEFFFE" transform="matrix(1.00, 0.00, -0.00, -1.00, 187.5, 16.0)">s</text><text xml:space="preserve" font-family="Avenir-Book" font-size="28.0" fill="#FEFFFE" transform="matrix(1.00, 0.00, -0.00, -1.00, 199.4, 16.0)">i</text><text xml:space="preserve" font-family="Avenir-Book" font-size="28.0" fill="#FEFFFE" transform="matrix(1.00, 0.00, -0.00, -1.00, 206.1, 16.0)">o</text><text xml:space="preserve" font-family="Avenir-Book" font-size="28.0" fill="#FEFFFE" transform="matrix(1.00, 0.00, -0.00, -1.00, 222.7, 16.0)">n</text><text xml:space="preserve" font-family="Avenir-Book" font-size="28.0" fill="#FEFFFE" transform="matrix(1.00, 0.00, -0.00, -1.00, 238.3, 16.0)">s</text></g></svg>