<?xml version="1.0" encoding="UTF-8" standalone="no"?><svg xmlns="http://www.w3.org/2000/svg" xmlns:xlink="http://www.w3.org/1999/xlink" clip-rule="evenodd" stroke-miterlimit="4.00" viewBox="0 0 810 75"><desc>SVG generated by Keynote</desc><defs></defs><g transform="matrix(1.00, 0.00, -0.00, -1.00, 0.0, 75.0)"><text xml:space="preserve" font-family="Avenir-Book" font-size="33.0" fill="#FEFFFE" transform="matrix(1.00, 0.00, -0.00, -1.00, 1.0, 47.0)">A</text><text xml:space="preserve" font-family="Avenir-Book" font-size="33.0" fill="#FEFFFE" transform="matrix(1.00, 0.00, -0.00, -1.00, 23.6, 47.0)">n</text><text xml:space="preserve" font-family="Avenir-Book" font-size="33.0" fill="#FEFFFE" transform="matrix(1.00, 0.00, -0.00, -1.00, 42.0, 47.0)"> </text><text xml:space="preserve" font-family="Avenir-Book" font-size="33.0" fill="#FEFFFE" transform="matrix(1.00, 0.00, -0.00, -1.00, 51.2, 47.0)">I</text><text xml:space="preserve" font-family="Avenir-Book" font-size="33.0" fill="#FEFFFE" transform="matrix(1.00, 0.00, -0.00, -1.00, 59.9, 47.0)">N</text><text xml:space="preserve" font-family="Avenir-Book" font-size="33.0" fill="#FEFFFE" transform="matrix(1.00, 0.00, -0.00, -1.00, 85.5, 47.0)">S</text><text xml:space="preserve" font-family="Avenir-Book" font-size="33.0" fill="#FEFFFE" transform="matrix(1.00, 0.00, -0.00, -1.00, 103.9, 47.0)">c</text><text xml:space="preserve" font-family="Avenir-Book" font-size="33.0" fill="#FEFFFE" transform="matrix(1.00, 0.00, -0.00, -1.00, 119.8, 47.0)">o</text><text xml:space="preserve" font-family="Avenir-Book" font-size="33.0" fill="#FEFFFE" transform="matrix(1.00, 0.00, -0.00, -1.00, 139.4, 47.0)">r</text><text xml:space="preserve" font-family="Avenir-Book" font-size="33.0" fill="#FEFFFE" transform="matrix(1.00, 0.00, -0.00, -1.00, 149.7, 47.0)">e</text><text xml:space="preserve" font-family="Avenir-Book" font-size="33.0" fill="#FEFFFE" transform="matrix(1.00, 0.00, -0.00, -1.00, 168.1, 47.0)"> </text><text xml:space="preserve" font-family="Avenir-Book" font-size="33.0" fill="#FEFFFE" transform="matrix(1.00, 0.00, -0.00, -1.00, 177.3, 47.0)">s</text><text xml:space="preserve" font-family="Avenir-Book" font-size="33.0" fill="#FEFFFE" transform="matrix(1.00, 0.00, -0.00, -1.00, 191.3, 47.0)">c</text><text xml:space="preserve" font-family="Avenir-Book" font-size="33.0" fill="#FEFFFE" transform="matrix(1.00, 0.00, -0.00, -1.00, 207.2, 47.0)">r</text><text xml:space="preserve" font-family="Avenir-Book" font-size="33.0" fill="#FEFFFE" transform="matrix(1.00, 0.00, -0.00, -1.00, 218.2, 47.0)">i</text><text xml:space="preserve" font-family="Avenir-Book" font-size="33.0" fill="#FEFFFE" transform="matrix(1.00, 0.00, -0.00, -1.00, 226.1, 47.0)">p</text><text xml:space="preserve" font-family="Avenir-Book" font-size="33.0" fill="#FEFFFE" transform="matrix(1.00, 0.00, -0.00, -1.00, 246.3, 47.0)">t</text><text xml:space="preserve" font-family="Avenir-Book" font-size="33.0" fill="#FEFFFE" transform="matrix(1.00, 0.00, -0.00, -1.00, 257.2, 47.0)"> </text><text xml:space="preserve" font-family="Avenir-Book" font-size="33.0" fill="#FEFFFE" transform="matrix(1.00, 0.00, -0.00, -1.00, 266.4, 47.0)">i</text><text xml:space="preserve" font-family="Avenir-Book" font-size="33.0" fill="#FEFFFE" transform="matrix(1.00, 0.00, -0.00, -1.00, 274.3, 47.0)">s</text><text xml:space="preserve" font-family="Avenir-Book" font-size="33.0" fill="#FEFFFE" transform="matrix(1.00, 0.00, -0.00, -1.00, 288.4, 47.0)"> </text><text xml:space="preserve" font-family="Avenir-Book" font-size="33.0" fill="#FEFFFE" transform="matrix(1.00, 0.00, -0.00, -1.00, 297.5, 47.0)">a</text><text xml:space="preserve" font-family="Avenir-Book" font-size="33.0" fill="#FEFFFE" transform="matrix(1.00, 0.00, -0.00, -1.00, 314.7, 47.0)"> </text><text xml:space="preserve" font-family="Avenir-Book" font-size="33.0" fill="#FEFFFE" transform="matrix(1.00, 0.00, -0.00, -1.00, 323.8, 47.0)">t</text><text xml:space="preserve" font-family="Avenir-Book" font-size="33.0" fill="#FEFFFE" transform="matrix(1.00, 0.00, -0.00, -1.00, 334.8, 47.0)">e</text><text xml:space="preserve" font-family="Avenir-Book" font-size="33.0" fill="#FEFFFE" transform="matrix(1.00, 0.00, -0.00, -1.00, 353.1, 47.0)">x</text><text xml:space="preserve" font-family="Avenir-Book" font-size="33.0" fill="#FEFFFE" transform="matrix(1.00, 0.00, -0.00, -1.00, 369.0, 47.0)">t</text><text xml:space="preserve" font-family="Avenir-Book" font-size="33.0" fill="#FEFFFE" transform="matrix(1.00, 0.00, -0.00, -1.00, 380.0, 47.0)">u</text><text xml:space="preserve" font-family="Avenir-Book" font-size="33.0" fill="#FEFFFE" transform="matrix(1.00, 0.00, -0.00, -1.00, 398.4, 47.0)">a</text><text xml:space="preserve" font-family="Avenir-Book" font-size="33.0" fill="#FEFFFE" transform="matrix(1.00, 0.00, -0.00, -1.00, 415.5, 47.0)">l</text><text xml:space="preserve" font-family="Avenir-Book" font-size="33.0" fill="#FEFFFE" transform="matrix(1.00, 0.00, -0.00, -1.00, 423.4, 47.0)"> </text><text xml:space="preserve" font-family="Avenir-Book" font-size="33.0" fill="#FEFFFE" transform="matrix(1.00, 0.00, -0.00, -1.00, 432.6, 47.0)">v</text><text xml:space="preserve" font-family="Avenir-Book" font-size="33.0" fill="#FEFFFE" transform="matrix(1.00, 0.00, -0.00, -1.00, 448.5, 47.0)">e</text><text xml:space="preserve" font-family="Avenir-Book" font-size="33.0" fill="#FEFFFE" transform="matrix(1.00, 0.00, -0.00, -1.00, 466.8, 47.0)">r</text><text xml:space="preserve" font-family="Avenir-Book" font-size="33.0" fill="#FEFFFE" transform="matrix(1.00, 0.00, -0.00, -1.00, 477.8, 47.0)">s</text><text xml:space="preserve" font-family="Avenir-Book" font-size="33.0" fill="#FEFFFE" transform="matrix(1.00, 0.00, -0.00, -1.00, 491.8, 47.0)">i</text><text xml:space="preserve" font-family="Avenir-Book" font-size="33.0" fill="#FEFFFE" transform="matrix(1.00, 0.00, -0.00, -1.00, 499.8, 47.0)">o</text><text xml:space="preserve" font-family="Avenir-Book" font-size="33.0" fill="#FEFFFE" transform="matrix(1.00, 0.00, -0.00, -1.00, 519.3, 47.0)">n</text><text xml:space="preserve" font-family="Avenir-Book" font-size="33.0" fill="#FEFFFE" transform="matrix(1.00, 0.00, -0.00, -1.00, 537.7, 47.0)"> </text><text xml:space="preserve" font-family="Avenir-Book" font-size="33.0" fill="#FEFFFE" transform="matrix(1.00, 0.00, -0.00, -1.00, 546.9, 47.0)">o</text><text xml:space="preserve" font-family="Avenir-Book" font-size="33.0" fill="#FEFFFE" transform="matrix(1.00, 0.00, -0.00, -1.00, 566.4, 47.0)">f</text><text xml:space="preserve" font-family="Avenir-Book" font-size="33.0" fill="#FEFFFE" transform="matrix(1.00, 0.00, -0.00, -1.00, 576.2, 47.0)"> </text><text xml:space="preserve" font-family="Avenir-Book" font-size="33.0" fill="#FEFFFE" transform="matrix(1.00, 0.00, -0.00, -1.00, 585.4, 47.0)">O</text><text xml:space="preserve" font-family="Avenir-Book" font-size="33.0" fill="#FEFFFE" transform="matrix(1.00, 0.00, -0.00, -1.00, 612.9, 47.0)">S</text><text xml:space="preserve" font-family="Avenir-Book" font-size="33.0" fill="#FEFFFE" transform="matrix(1.00, 0.00, -0.00, -1.00, 631.2, 47.0)">C</text><text xml:space="preserve" font-family="Avenir-Book" font-size="33.0" fill="#FEFFFE" transform="matrix(1.00, 0.00, -0.00, -1.00, 654.5, 47.0)"> </text><text xml:space="preserve" font-family="Avenir-Book" font-size="33.0" fill="#FEFFFE" transform="matrix(1.00, 0.00, -0.00, -1.00, 663.6, 47.0)">m</text><text xml:space="preserve" font-family="Avenir-Book" font-size="33.0" fill="#FEFFFE" transform="matrix(1.00, 0.00, -0.00, -1.00, 691.8, 47.0)">e</text><text xml:space="preserve" font-family="Avenir-Book" font-size="33.0" fill="#FEFFFE" transform="matrix(1.00, 0.00, -0.00, -1.00, 710.1, 47.0)">s</text><text xml:space="preserve" font-family="Avenir-Book" font-size="33.0" fill="#FEFFFE" transform="matrix(1.00, 0.00, -0.00, -1.00, 724.2, 47.0)">s</text><text xml:space="preserve" font-family="Avenir-Book" font-size="33.0" fill="#FEFFFE" transform="matrix(1.00, 0.00, -0.00, -1.00, 738.2, 47.0)">a</text><text xml:space="preserve" font-family="Avenir-Book" font-size="33.0" fill="#FEFFFE" transform="matrix(1.00, 0.00, -0.00, -1.00, 755.3, 47.0)">g</text><text xml:space="preserve" font-family="Avenir-Book" font-size="33.0" fill="#FEFFFE" transform="matrix(1.00, 0.00, -0.00, -1.00, 775.5, 47.0)">e</text><text xml:space="preserve" font-family="Avenir-Book" font-size="33.0" fill="#FEFFFE" transform="matrix(1.00, 0.00, -0.00, -1.00, 793.9, 47.0)">s</text><text xml:space="preserve" font-family="Avenir-Book" font-size="33.0" fill="#FEFFFE" transform="matrix(1.00, 0.00, -0.00, -1.00, 807.9, 47.0)"> </text><text xml:space="preserve" font-family="Avenir-Book" font-size="33.0" fill="#FEFFFE" transform="matrix(1.00, 0.00, -0.00, -1.00, 1.0, 2.0)">e</text><text xml:space="preserve" font-family="Avenir-Book" font-size="33.0" fill="#FEFFFE" transform="matrix(1.00, 0.00, -0.00, -1.00, 19.3, 2.0)">x</text><text xml:space="preserve" font-family="Avenir-Book" font-size="33.0" fill="#FEFFFE" transform="matrix(1.00, 0.00, -0.00, -1.00, 35.3, 2.0)">t</text><text xml:space="preserve" font-family="Avenir-Book" font-size="33.0" fill="#FEFFFE" transform="matrix(1.00, 0.00, -0.00, -1.00, 46.2, 2.0)">e</text><text xml:space="preserve" font-family="Avenir-Book" font-size="33.0" fill="#FEFFFE" transform="matrix(1.00, 0.00, -0.00, -1.00, 64.6, 2.0)">n</text><text xml:space="preserve" font-family="Avenir-Book" font-size="33.0" fill="#FEFFFE" transform="matrix(1.00, 0.00, -0.00, -1.00, 82.9, 2.0)">d</text><text xml:space="preserve" font-family="Avenir-Book" font-size="33.0" fill="#FEFFFE" transform="matrix(1.00, 0.00, -0.00, -1.00, 103.1, 2.0)">e</text><text xml:space="preserve" font-family="Avenir-Book" font-size="33.0" fill="#FEFFFE" transform="matrix(1.00, 0.00, -0.00, -1.00, 121.4, 2.0)">d</text><text xml:space="preserve" font-family="Avenir-Book" font-size="33.0" fill="#FEFFFE" transform="matrix(1.00, 0.00, -0.00, -1.00, 141.6, 2.0)"> </text><text xml:space="preserve" font-family="Avenir-Book" font-size="33.0" fill="#FEFFFE" transform="matrix(1.00, 0.00, -0.00, -1.00, 150.8, 2.0)">w</text><text xml:space="preserve" font-family="Avenir-Book" font-size="33.0" fill="#FEFFFE" transform="matrix(1.00, 0.00, -0.00, -1.00, 174.6, 2.0)">i</text><text xml:space="preserve" font-family="Avenir-Book" font-size="33.0" fill="#FEFFFE" transform="matrix(1.00, 0.00, -0.00, -1.00, 182.5, 2.0)">t</text><text xml:space="preserve" font-family="Avenir-Book" font-size="33.0" fill="#FEFFFE" transform="matrix(1.00, 0.00, -0.00, -1.00, 193.5, 2.0)">h</text><text xml:space="preserve" font-family="Avenir-Book" font-size="33.0" fill="#FEFFFE" transform="matrix(1.00, 0.00, -0.00, -1.00, 211.8, 2.0)">:</text></g></svg>