<?xml version="1.0" encoding="UTF-8" standalone="no"?><svg xmlns="http://www.w3.org/2000/svg" xmlns:xlink="http://www.w3.org/1999/xlink" clip-rule="evenodd" stroke-miterlimit="4.00" viewBox="0 0 269 38"><desc>SVG generated by Keynote</desc><defs></defs><g transform="matrix(1.00, 0.00, -0.00, -1.00, 0.0, 38.0)"><text xml:space="preserve" font-family="Helvetica-Light" font-size="36.0" fill="#A9A9A9" transform="matrix(1.00, 0.00, -0.00, -1.00, 0.0, 10.0)">S</text><text xml:space="preserve" font-family="Helvetica-Light" font-size="36.0" fill="#A9A9A9" transform="matrix(1.00, 0.00, -0.00, -1.00, 22.0, 10.0)">t</text><text xml:space="preserve" font-family="Helvetica-Light" font-size="36.0" fill="#A9A9A9" transform="matrix(1.00, 0.00, -0.00, -1.00, 32.0, 10.0)">a</text><text xml:space="preserve" font-family="Helvetica-Light" font-size="36.0" fill="#A9A9A9" transform="matrix(1.00, 0.00, -0.00, -1.00, 52.0, 10.0)">f</text><text xml:space="preserve" font-family="Helvetica-Light" font-size="36.0" fill="#A9A9A9" transform="matrix(1.00, 0.00, -0.00, -1.00, 61.4, 10.0)">f</text><text xml:space="preserve" font-family="Helvetica-Light" font-size="36.0" fill="#A9A9A9" transform="matrix(1.00, 0.00, -0.00, -1.00, 71.4, 10.0)"> </text><text xml:space="preserve" font-family="Helvetica-Light" font-size="36.0" fill="#A9A9A9" transform="matrix(1.00, 0.00, -0.00, -1.00, 81.4, 10.0)">a</text><text xml:space="preserve" font-family="Helvetica-Light" font-size="36.0" fill="#A9A9A9" transform="matrix(1.00, 0.00, -0.00, -1.00, 101.4, 10.0)">s</text><text xml:space="preserve" font-family="Helvetica-Light" font-size="36.0" fill="#A9A9A9" transform="matrix(1.00, 0.00, -0.00, -1.00, 119.4, 10.0)">s</text><text xml:space="preserve" font-family="Helvetica-Light" font-size="36.0" fill="#A9A9A9" transform="matrix(1.00, 0.00, -0.00, -1.00, 137.4, 10.0)">i</text><text xml:space="preserve" font-family="Helvetica-Light" font-size="36.0" fill="#A9A9A9" transform="matrix(1.00, 0.00, -0.00, -1.00, 145.4, 10.0)">g</text><text xml:space="preserve" font-family="Helvetica-Light" font-size="36.0" fill="#A9A9A9" transform="matrix(1.00, 0.00, -0.00, -1.00, 167.4, 10.0)">n</text><text xml:space="preserve" font-family="Helvetica-Light" font-size="36.0" fill="#A9A9A9" transform="matrix(1.00, 0.00, -0.00, -1.00, 187.4, 10.0)">m</text><text xml:space="preserve" font-family="Helvetica-Light" font-size="36.0" fill="#A9A9A9" transform="matrix(1.00, 0.00, -0.00, -1.00, 217.4, 10.0)">e</text><text xml:space="preserve" font-family="Helvetica-Light" font-size="36.0" fill="#A9A9A9" transform="matrix(1.00, 0.00, -0.00, -1.00, 237.4, 10.0)">n</text><text xml:space="preserve" font-family="Helvetica-Light" font-size="36.0" fill="#A9A9A9" transform="matrix(1.00, 0.00, -0.00, -1.00, 257.4, 10.0)">t</text></g></svg>