<?xml version="1.0" encoding="UTF-8" standalone="no"?><svg xmlns="http://www.w3.org/2000/svg" xmlns:xlink="http://www.w3.org/1999/xlink" clip-rule="evenodd" stroke-miterlimit="4.00" viewBox="0 0 356 26"><desc>SVG generated by Keynote</desc><defs></defs><g transform="matrix(1.00, 0.00, -0.00, -1.00, 0.0, 26.0)"><text xml:space="preserve" font-family="Avenir-Black" font-weight="bold" font-size="28.3" fill="#FEFFFF" transform="matrix(1.00, 0.00, -0.00, -1.00, -1.0, 3.0)">B</text><text xml:space="preserve" font-family="Avenir-Black" font-weight="bold" font-size="28.3" fill="#FEFFFF" transform="matrix(1.00, 0.00, -0.00, -1.00, 17.4, 3.0)">e</text><text xml:space="preserve" font-family="Avenir-Black" font-weight="bold" font-size="28.3" fill="#FEFFFF" transform="matrix(1.00, 0.00, -0.00, -1.00, 33.6, 3.0)">l</text><text xml:space="preserve" font-family="Avenir-Black" font-weight="bold" font-size="28.3" fill="#FEFFFF" transform="matrix(1.00, 0.00, -0.00, -1.00, 41.0, 3.0)">i</text><text xml:space="preserve" font-family="Avenir-Black" font-weight="bold" font-size="28.3" fill="#FEFFFF" transform="matrix(1.00, 0.00, -0.00, -1.00, 48.3, 3.0)">a</text><text xml:space="preserve" font-family="Avenir-Black" font-weight="bold" font-size="28.3" fill="#FEFFFF" transform="matrix(1.00, 0.00, -0.00, -1.00, 63.5, 3.0)">l</text><text xml:space="preserve" font-family="Avenir-Black" font-weight="bold" font-size="28.3" fill="#FEFFFF" transform="matrix(1.00, 0.00, -0.00, -1.00, 70.9, 3.0)"> </text><text xml:space="preserve" font-family="Avenir-Black" font-weight="bold" font-size="28.3" fill="#FEFFFF" transform="matrix(1.00, 0.00, -0.00, -1.00, 79.3, 3.0)">-</text><text xml:space="preserve" font-family="Avenir-Black" font-weight="bold" font-size="28.3" fill="#FEFFFF" transform="matrix(1.00, 0.00, -0.00, -1.00, 87.7, 3.0)"> </text><text xml:space="preserve" font-family="Avenir-Medium" font-size="28.3" fill="#FEFFFF" transform="matrix(1.00, 0.00, -0.00, -1.00, 96.1, 3.0)">X</text><text xml:space="preserve" font-family="Avenir-Medium" font-size="28.3" fill="#FEFFFF" transform="matrix(1.00, 0.00, -0.00, -1.00, 114.4, 3.0)">a</text><text xml:space="preserve" font-family="Avenir-Medium" font-size="28.3" fill="#FEFFFF" transform="matrix(1.00, 0.00, -0.00, -1.00, 129.1, 3.0)">v</text><text xml:space="preserve" font-family="Avenir-Medium" font-size="28.3" fill="#FEFFFF" transform="matrix(1.00, 0.00, -0.00, -1.00, 143.3, 3.0)">i</text><text xml:space="preserve" font-family="Avenir-Medium" font-size="28.3" fill="#FEFFFF" transform="matrix(1.00, 0.00, -0.00, -1.00, 150.1, 3.0)">e</text><text xml:space="preserve" font-family="Avenir-Medium" font-size="28.3" fill="#FEFFFF" transform="matrix(1.00, 0.00, -0.00, -1.00, 165.8, 3.0)">r</text><text xml:space="preserve" font-family="Avenir-Medium" font-size="28.3" fill="#FEFFFF" transform="matrix(1.00, 0.00, -0.00, -1.00, 176.3, 3.0)"> </text><text xml:space="preserve" font-family="Avenir-Medium" font-size="28.3" fill="#FEFFFF" transform="matrix(1.00, 0.00, -0.00, -1.00, 184.2, 3.0)">G</text><text xml:space="preserve" font-family="Avenir-Medium" font-size="28.3" fill="#FEFFFF" transform="matrix(1.00, 0.00, -0.00, -1.00, 206.2, 3.0)">r</text><text xml:space="preserve" font-family="Avenir-Medium" font-size="28.3" fill="#FEFFFF" transform="matrix(1.00, 0.00, -0.00, -1.00, 216.7, 3.0)">a</text><text xml:space="preserve" font-family="Avenir-Medium" font-size="28.3" fill="#FEFFFF" transform="matrix(1.00, 0.00, -0.00, -1.00, 231.4, 3.0)">c</text><text xml:space="preserve" font-family="Avenir-Medium" font-size="28.3" fill="#FEFFFF" transform="matrix(1.00, 0.00, -0.00, -1.00, 245.0, 3.0)">i</text><text xml:space="preserve" font-family="Avenir-Medium" font-size="28.3" fill="#FEFFFF" transform="matrix(1.00, 0.00, -0.00, -1.00, 251.8, 3.0)">a</text><text xml:space="preserve" font-family="Avenir-Medium" font-size="28.3" fill="#FEFFFF" transform="matrix(1.00, 0.00, -0.00, -1.00, 266.5, 3.0)"> </text><text xml:space="preserve" font-family="Avenir-Medium" font-size="28.3" fill="#FEFFFF" transform="matrix(1.00, 0.00, -0.00, -1.00, 274.4, 3.0)">-</text><text xml:space="preserve" font-family="Avenir-Medium" font-size="28.3" fill="#FEFFFF" transform="matrix(1.00, 0.00, -0.00, -1.00, 283.3, 3.0)"> </text><text xml:space="preserve" font-family="Avenir-Medium" font-size="28.3" fill="#FEFFFF" transform="matrix(1.00, 0.00, -0.00, -1.00, 291.2, 3.0)">2</text><text xml:space="preserve" font-family="Avenir-Medium" font-size="28.3" fill="#FEFFFF" transform="matrix(1.00, 0.00, -0.00, -1.00, 307.0, 3.0)">0</text><text xml:space="preserve" font-family="Avenir-Medium" font-size="28.3" fill="#FEFFFF" transform="matrix(1.00, 0.00, -0.00, -1.00, 322.7, 3.0)">1</text><text xml:space="preserve" font-family="Avenir-Medium" font-size="28.3" fill="#FEFFFF" transform="matrix(1.00, 0.00, -0.00, -1.00, 338.4, 3.0)">4</text></g></svg>