<?xml version="1.0" encoding="UTF-8" standalone="no"?><svg xmlns="http://www.w3.org/2000/svg" xmlns:xlink="http://www.w3.org/1999/xlink" clip-rule="evenodd" stroke-miterlimit="4.00" viewBox="0 0 690 39"><desc>SVG generated by Keynote</desc><defs></defs><g transform="matrix(1.00, 0.00, -0.00, -1.00, 0.0, 39.0)"><text xml:space="preserve" font-family="Avenir-Heavy" font-weight="bold" font-size="34.0" fill="#DCDDE0" transform="matrix(1.00, 0.00, -0.00, -1.00, -1.0, 11.0)">P</text><text xml:space="preserve" font-family="Avenir-Heavy" font-weight="bold" font-size="34.0" fill="#DCDDE0" transform="matrix(1.00, 0.00, -0.00, -1.00, 19.8, 11.0)">e</text><text xml:space="preserve" font-family="Avenir-Heavy" font-weight="bold" font-size="34.0" fill="#DCDDE0" transform="matrix(1.00, 0.00, -0.00, -1.00, 39.3, 11.0)">r</text><text xml:space="preserve" font-family="Avenir-Heavy" font-weight="bold" font-size="34.0" fill="#DCDDE0" transform="matrix(1.00, 0.00, -0.00, -1.00, 52.5, 11.0)">f</text><text xml:space="preserve" font-family="Avenir-Heavy" font-weight="bold" font-size="34.0" fill="#DCDDE0" transform="matrix(1.00, 0.00, -0.00, -1.00, 64.5, 11.0)">o</text><text xml:space="preserve" font-family="Avenir-Heavy" font-weight="bold" font-size="34.0" fill="#DCDDE0" transform="matrix(1.00, 0.00, -0.00, -1.00, 85.2, 11.0)">r</text><text xml:space="preserve" font-family="Avenir-Heavy" font-weight="bold" font-size="34.0" fill="#DCDDE0" transform="matrix(1.00, 0.00, -0.00, -1.00, 99.1, 11.0)">m</text><text xml:space="preserve" font-family="Avenir-Heavy" font-weight="bold" font-size="34.0" fill="#DCDDE0" transform="matrix(1.00, 0.00, -0.00, -1.00, 128.6, 11.0)">a</text><text xml:space="preserve" font-family="Avenir-Heavy" font-weight="bold" font-size="34.0" fill="#DCDDE0" transform="matrix(1.00, 0.00, -0.00, -1.00, 146.9, 11.0)">n</text><text xml:space="preserve" font-family="Avenir-Heavy" font-weight="bold" font-size="34.0" fill="#DCDDE0" transform="matrix(1.00, 0.00, -0.00, -1.00, 166.4, 11.0)">c</text><text xml:space="preserve" font-family="Avenir-Heavy" font-weight="bold" font-size="34.0" fill="#DCDDE0" transform="matrix(1.00, 0.00, -0.00, -1.00, 182.8, 11.0)">e</text><text xml:space="preserve" font-family="Avenir-Heavy" font-weight="bold" font-size="34.0" fill="#DCDDE0" transform="matrix(1.00, 0.00, -0.00, -1.00, 202.3, 11.0)"> </text><text xml:space="preserve" font-family="Avenir-Heavy" font-weight="bold" font-size="34.0" fill="#DCDDE0" transform="matrix(1.00, 0.00, -0.00, -1.00, 212.4, 11.0)">r</text><text xml:space="preserve" font-family="Avenir-Heavy" font-weight="bold" font-size="34.0" fill="#DCDDE0" transform="matrix(1.00, 0.00, -0.00, -1.00, 225.0, 11.0)">e</text><text xml:space="preserve" font-family="Avenir-Heavy" font-weight="bold" font-size="34.0" fill="#DCDDE0" transform="matrix(1.00, 0.00, -0.00, -1.00, 244.5, 11.0)">p</text><text xml:space="preserve" font-family="Avenir-Heavy" font-weight="bold" font-size="34.0" fill="#DCDDE0" transform="matrix(1.00, 0.00, -0.00, -1.00, 265.9, 11.0)">r</text><text xml:space="preserve" font-family="Avenir-Heavy" font-weight="bold" font-size="34.0" fill="#DCDDE0" transform="matrix(1.00, 0.00, -0.00, -1.00, 278.5, 11.0)">e</text><text xml:space="preserve" font-family="Avenir-Heavy" font-weight="bold" font-size="34.0" fill="#DCDDE0" transform="matrix(1.00, 0.00, -0.00, -1.00, 298.1, 11.0)">s</text><text xml:space="preserve" font-family="Avenir-Heavy" font-weight="bold" font-size="34.0" fill="#DCDDE0" transform="matrix(1.00, 0.00, -0.00, -1.00, 313.2, 11.0)">e</text><text xml:space="preserve" font-family="Avenir-Heavy" font-weight="bold" font-size="34.0" fill="#DCDDE0" transform="matrix(1.00, 0.00, -0.00, -1.00, 332.7, 11.0)">n</text><text xml:space="preserve" font-family="Avenir-Heavy" font-weight="bold" font-size="34.0" fill="#DCDDE0" transform="matrix(1.00, 0.00, -0.00, -1.00, 352.2, 11.0)">t</text><text xml:space="preserve" font-family="Avenir-Heavy" font-weight="bold" font-size="34.0" fill="#DCDDE0" transform="matrix(1.00, 0.00, -0.00, -1.00, 365.4, 11.0)">a</text><text xml:space="preserve" font-family="Avenir-Heavy" font-weight="bold" font-size="34.0" fill="#DCDDE0" transform="matrix(1.00, 0.00, -0.00, -1.00, 383.7, 11.0)">t</text><text xml:space="preserve" font-family="Avenir-Heavy" font-weight="bold" font-size="34.0" fill="#DCDDE0" transform="matrix(1.00, 0.00, -0.00, -1.00, 396.9, 11.0)">i</text><text xml:space="preserve" font-family="Avenir-Heavy" font-weight="bold" font-size="34.0" fill="#DCDDE0" transform="matrix(1.00, 0.00, -0.00, -1.00, 405.8, 11.0)">o</text><text xml:space="preserve" font-family="Avenir-Heavy" font-weight="bold" font-size="34.0" fill="#DCDDE0" transform="matrix(1.00, 0.00, -0.00, -1.00, 426.5, 11.0)">n</text><text xml:space="preserve" font-family="Avenir-Heavy" font-weight="bold" font-size="34.0" fill="#DCDDE0" transform="matrix(1.00, 0.00, -0.00, -1.00, 446.0, 11.0)"> </text><text xml:space="preserve" font-family="Avenir-Book" font-size="30.0" fill="#DCDDE0" transform="matrix(1.00, 0.00, -0.00, -1.00, 456.1, 11.0)">(</text><text xml:space="preserve" font-family="Avenir-Book" font-size="30.0" fill="#DCDDE0" transform="matrix(1.00, 0.00, -0.00, -1.00, 463.9, 11.0)">s</text><text xml:space="preserve" font-family="Avenir-Book" font-size="30.0" fill="#DCDDE0" transform="matrix(1.00, 0.00, -0.00, -1.00, 476.7, 11.0)">a</text><text xml:space="preserve" font-family="Avenir-Book" font-size="30.0" fill="#DCDDE0" transform="matrix(1.00, 0.00, -0.00, -1.00, 492.2, 11.0)">m</text><text xml:space="preserve" font-family="Avenir-Book" font-size="30.0" fill="#DCDDE0" transform="matrix(1.00, 0.00, -0.00, -1.00, 517.8, 11.0)">p</text><text xml:space="preserve" font-family="Avenir-Book" font-size="30.0" fill="#DCDDE0" transform="matrix(1.00, 0.00, -0.00, -1.00, 536.1, 11.0)">l</text><text xml:space="preserve" font-family="Avenir-Book" font-size="30.0" fill="#DCDDE0" transform="matrix(1.00, 0.00, -0.00, -1.00, 543.3, 11.0)">e</text><text xml:space="preserve" font-family="Avenir-Book" font-size="30.0" fill="#DCDDE0" transform="matrix(1.00, 0.00, -0.00, -1.00, 560.0, 11.0)">4</text><text xml:space="preserve" font-family="Avenir-Book" font-size="30.0" fill="#DCDDE0" transform="matrix(1.00, 0.00, -0.00, -1.00, 576.7, 11.0)">.</text><text xml:space="preserve" font-family="Avenir-Book" font-size="30.0" fill="#DCDDE0" transform="matrix(1.00, 0.00, -0.00, -1.00, 585.0, 11.0)">i</text><text xml:space="preserve" font-family="Avenir-Book" font-size="30.0" fill="#DCDDE0" transform="matrix(1.00, 0.00, -0.00, -1.00, 592.2, 11.0)">n</text><text xml:space="preserve" font-family="Avenir-Book" font-size="30.0" fill="#DCDDE0" transform="matrix(1.00, 0.00, -0.00, -1.00, 608.9, 11.0)">s</text><text xml:space="preserve" font-family="Avenir-Book" font-size="30.0" fill="#DCDDE0" transform="matrix(1.00, 0.00, -0.00, -1.00, 621.7, 11.0)">c</text><text xml:space="preserve" font-family="Avenir-Book" font-size="30.0" fill="#DCDDE0" transform="matrix(1.00, 0.00, -0.00, -1.00, 636.2, 11.0)">o</text><text xml:space="preserve" font-family="Avenir-Book" font-size="30.0" fill="#DCDDE0" transform="matrix(1.00, 0.00, -0.00, -1.00, 653.9, 11.0)">r</text><text xml:space="preserve" font-family="Avenir-Book" font-size="30.0" fill="#DCDDE0" transform="matrix(1.00, 0.00, -0.00, -1.00, 663.4, 11.0)">e</text><text xml:space="preserve" font-family="Avenir-Book" font-size="30.0" fill="#DCDDE0" transform="matrix(1.00, 0.00, -0.00, -1.00, 680.0, 11.0)">)</text></g></svg>