<?xml version="1.0" encoding="UTF-8" standalone="no"?><svg xmlns="http://www.w3.org/2000/svg" xmlns:xlink="http://www.w3.org/1999/xlink" clip-rule="evenodd" stroke-miterlimit="4.00" viewBox="0 0 334 32"><desc>SVG generated by Keynote</desc><defs></defs><g transform="matrix(1.00, 0.00, -0.00, -1.00, 0.0, 32.0)"><text xml:space="preserve" font-family="Helvetica-Bold" font-weight="bold" font-size="30.0" fill="#0264C0" transform="matrix(1.00, 0.00, -0.00, -1.00, 2.0, 8.0)">d</text><text xml:space="preserve" font-family="Helvetica-Bold" font-weight="bold" font-size="30.0" fill="#0264C0" transform="matrix(1.00, 0.00, -0.00, -1.00, 20.3, 8.0)">e</text><text xml:space="preserve" font-family="Helvetica-Bold" font-weight="bold" font-size="30.0" fill="#0264C0" transform="matrix(1.00, 0.00, -0.00, -1.00, 37.0, 8.0)">l</text><text xml:space="preserve" font-family="Helvetica-Bold" font-weight="bold" font-size="30.0" fill="#0264C0" transform="matrix(1.00, 0.00, -0.00, -1.00, 45.3, 8.0)">e</text><text xml:space="preserve" font-family="Helvetica-Bold" font-weight="bold" font-size="30.0" fill="#0264C0" transform="matrix(1.00, 0.00, -0.00, -1.00, 62.0, 8.0)">t</text><text xml:space="preserve" font-family="Helvetica-Bold" font-weight="bold" font-size="30.0" fill="#0264C0" transform="matrix(1.00, 0.00, -0.00, -1.00, 72.0, 8.0)">e</text><text xml:space="preserve" font-family="Helvetica-Bold" font-weight="bold" font-size="30.0" fill="#0264C0" transform="matrix(1.00, 0.00, -0.00, -1.00, 88.7, 8.0)"> </text><text xml:space="preserve" font-family="Helvetica-Bold" font-weight="bold" font-size="30.0" fill="#0264C0" transform="matrix(1.00, 0.00, -0.00, -1.00, 97.0, 8.0)">p</text><text xml:space="preserve" font-family="Helvetica-Bold" font-weight="bold" font-size="30.0" fill="#0264C0" transform="matrix(1.00, 0.00, -0.00, -1.00, 115.4, 8.0)">r</text><text xml:space="preserve" font-family="Helvetica-Bold" font-weight="bold" font-size="30.0" fill="#0264C0" transform="matrix(1.00, 0.00, -0.00, -1.00, 127.0, 8.0)">e</text><text xml:space="preserve" font-family="Helvetica-Bold" font-weight="bold" font-size="30.0" fill="#0264C0" transform="matrix(1.00, 0.00, -0.00, -1.00, 143.7, 8.0)">v</text><text xml:space="preserve" font-family="Helvetica-Bold" font-weight="bold" font-size="30.0" fill="#0264C0" transform="matrix(1.00, 0.00, -0.00, -1.00, 160.4, 8.0)">i</text><text xml:space="preserve" font-family="Helvetica-Bold" font-weight="bold" font-size="30.0" fill="#0264C0" transform="matrix(1.00, 0.00, -0.00, -1.00, 168.7, 8.0)">o</text><text xml:space="preserve" font-family="Helvetica-Bold" font-weight="bold" font-size="30.0" fill="#0264C0" transform="matrix(1.00, 0.00, -0.00, -1.00, 187.1, 8.0)">u</text><text xml:space="preserve" font-family="Helvetica-Bold" font-weight="bold" font-size="30.0" fill="#0264C0" transform="matrix(1.00, 0.00, -0.00, -1.00, 205.4, 8.0)">s</text><text xml:space="preserve" font-family="Helvetica-Bold" font-weight="bold" font-size="30.0" fill="#0264C0" transform="matrix(1.00, 0.00, -0.00, -1.00, 222.1, 8.0)"> </text><text xml:space="preserve" font-family="Helvetica-Bold" font-weight="bold" font-size="30.0" fill="#0264C0" transform="matrix(1.00, 0.00, -0.00, -1.00, 230.4, 8.0)">s</text><text xml:space="preserve" font-family="Helvetica-Bold" font-weight="bold" font-size="30.0" fill="#0264C0" transform="matrix(1.00, 0.00, -0.00, -1.00, 247.1, 8.0)">i</text><text xml:space="preserve" font-family="Helvetica-Bold" font-weight="bold" font-size="30.0" fill="#0264C0" transform="matrix(1.00, 0.00, -0.00, -1.00, 255.4, 8.0)">g</text><text xml:space="preserve" font-family="Helvetica-Bold" font-weight="bold" font-size="30.0" fill="#0264C0" transform="matrix(1.00, 0.00, -0.00, -1.00, 273.7, 8.0)">n</text><text xml:space="preserve" font-family="Helvetica-Bold" font-weight="bold" font-size="30.0" fill="#0264C0" transform="matrix(1.00, 0.00, -0.00, -1.00, 292.1, 8.0)">a</text><text xml:space="preserve" font-family="Helvetica-Bold" font-weight="bold" font-size="30.0" fill="#0264C0" transform="matrix(1.00, 0.00, -0.00, -1.00, 308.8, 8.0)">l</text><text xml:space="preserve" font-family="Helvetica-Bold" font-weight="bold" font-size="30.0" fill="#0264C0" transform="matrix(1.00, 0.00, -0.00, -1.00, 317.1, 8.0)">s</text></g></svg>