<?xml version="1.0" encoding="UTF-8" standalone="no"?><svg xmlns="http://www.w3.org/2000/svg" xmlns:xlink="http://www.w3.org/1999/xlink" clip-rule="evenodd" stroke-miterlimit="4.00" viewBox="0 0 374 28"><desc>SVG generated by Keynote</desc><defs></defs><g transform="matrix(1.00, 0.00, -0.00, -1.00, 0.0, 28.0)"><text xml:space="preserve" font-family="Helvetica-Light" font-size="26.0" fill="#FEFFFE" transform="matrix(1.00, 0.00, -0.00, -1.00, 0.0, 7.0)">c</text><text xml:space="preserve" font-family="Helvetica-Light" font-size="26.0" fill="#FEFFFE" transform="matrix(1.00, 0.00, -0.00, -1.00, 14.5, 7.0)">o</text><text xml:space="preserve" font-family="Helvetica-Light" font-size="26.0" fill="#FEFFFE" transform="matrix(1.00, 0.00, -0.00, -1.00, 28.9, 7.0)">n</text><text xml:space="preserve" font-family="Helvetica-Light" font-size="26.0" fill="#FEFFFE" transform="matrix(1.00, 0.00, -0.00, -1.00, 43.4, 7.0)">s</text><text xml:space="preserve" font-family="Helvetica-Light" font-size="26.0" fill="#FEFFFE" transform="matrix(1.00, 0.00, -0.00, -1.00, 56.4, 7.0)">i</text><text xml:space="preserve" font-family="Helvetica-Light" font-size="26.0" fill="#FEFFFE" transform="matrix(1.00, 0.00, -0.00, -1.00, 62.1, 7.0)">s</text><text xml:space="preserve" font-family="Helvetica-Light" font-size="26.0" fill="#FEFFFE" transform="matrix(1.00, 0.00, -0.00, -1.00, 75.1, 7.0)">t</text><text xml:space="preserve" font-family="Helvetica-Light" font-size="26.0" fill="#FEFFFE" transform="matrix(1.00, 0.00, -0.00, -1.00, 82.4, 7.0)">e</text><text xml:space="preserve" font-family="Helvetica-Light" font-size="26.0" fill="#FEFFFE" transform="matrix(1.00, 0.00, -0.00, -1.00, 96.8, 7.0)">n</text><text xml:space="preserve" font-family="Helvetica-Light" font-size="26.0" fill="#FEFFFE" transform="matrix(1.00, 0.00, -0.00, -1.00, 111.3, 7.0)">t</text><text xml:space="preserve" font-family="Helvetica-Light" font-size="26.0" fill="#FEFFFE" transform="matrix(1.00, 0.00, -0.00, -1.00, 118.5, 7.0)">l</text><text xml:space="preserve" font-family="Helvetica-Light" font-size="26.0" fill="#FEFFFE" transform="matrix(1.00, 0.00, -0.00, -1.00, 124.3, 7.0)">y</text><text xml:space="preserve" font-family="Helvetica-Light" font-size="26.0" fill="#FEFFFE" transform="matrix(1.00, 0.00, -0.00, -1.00, 137.3, 7.0)"> </text><text xml:space="preserve" font-family="Helvetica-Light" font-size="26.0" fill="#FEFFFE" transform="matrix(1.00, 0.00, -0.00, -1.00, 144.5, 7.0)">2</text><text xml:space="preserve" font-family="Helvetica-Light" font-size="26.0" fill="#FEFFFE" transform="matrix(1.00, 0.00, -0.00, -1.00, 159.0, 7.0)"> </text><text xml:space="preserve" font-family="Helvetica-Light" font-size="26.0" fill="#FEFFFE" transform="matrix(1.00, 0.00, -0.00, -1.00, 166.2, 7.0)">s</text><text xml:space="preserve" font-family="Helvetica-Light" font-size="26.0" fill="#FEFFFE" transform="matrix(1.00, 0.00, -0.00, -1.00, 179.2, 7.0)">c</text><text xml:space="preserve" font-family="Helvetica-Light" font-size="26.0" fill="#FEFFFE" transform="matrix(1.00, 0.00, -0.00, -1.00, 193.6, 7.0)">o</text><text xml:space="preserve" font-family="Helvetica-Light" font-size="26.0" fill="#FEFFFE" transform="matrix(1.00, 0.00, -0.00, -1.00, 208.1, 7.0)">r</text><text xml:space="preserve" font-family="Helvetica-Light" font-size="26.0" fill="#FEFFFE" transform="matrix(1.00, 0.00, -0.00, -1.00, 216.3, 7.0)">e</text><text xml:space="preserve" font-family="Helvetica-Light" font-size="26.0" fill="#FEFFFE" transform="matrix(1.00, 0.00, -0.00, -1.00, 230.7, 7.0)">s</text><text xml:space="preserve" font-family="Helvetica-Light" font-size="26.0" fill="#FEFFFE" transform="matrix(1.00, 0.00, -0.00, -1.00, 243.7, 7.0)"> </text><text xml:space="preserve" font-family="Helvetica-Light" font-size="26.0" fill="#FEFFFE" transform="matrix(1.00, 0.00, -0.00, -1.00, 251.0, 7.0)">a</text><text xml:space="preserve" font-family="Helvetica-Light" font-size="26.0" fill="#FEFFFE" transform="matrix(1.00, 0.00, -0.00, -1.00, 265.4, 7.0)">s</text><text xml:space="preserve" font-family="Helvetica-Light" font-size="26.0" fill="#FEFFFE" transform="matrix(1.00, 0.00, -0.00, -1.00, 278.4, 7.0)"> </text><text xml:space="preserve" font-family="Helvetica-Light" font-size="26.0" fill="#FEFFFE" transform="matrix(1.00, 0.00, -0.00, -1.00, 285.7, 7.0)">i</text><text xml:space="preserve" font-family="Helvetica-Light" font-size="26.0" fill="#FEFFFE" transform="matrix(1.00, 0.00, -0.00, -1.00, 291.4, 7.0)">n</text><text xml:space="preserve" font-family="Helvetica-Light" font-size="26.0" fill="#FEFFFE" transform="matrix(1.00, 0.00, -0.00, -1.00, 305.9, 7.0)">p</text><text xml:space="preserve" font-family="Helvetica-Light" font-size="26.0" fill="#FEFFFE" transform="matrix(1.00, 0.00, -0.00, -1.00, 321.8, 7.0)">u</text><text xml:space="preserve" font-family="Helvetica-Light" font-size="26.0" fill="#FEFFFE" transform="matrix(1.00, 0.00, -0.00, -1.00, 336.2, 7.0)">t</text><text xml:space="preserve" font-family="Helvetica-Light" font-size="26.0" fill="#FEFFFE" transform="matrix(1.00, 0.00, -0.00, -1.00, 343.5, 7.0)"> </text><text xml:space="preserve" font-family="Helvetica-Light" font-size="26.0" fill="#FEFFFE" transform="matrix(1.00, 0.00, -0.00, -1.00, 350.7, 7.0)">t</text><text xml:space="preserve" font-family="Helvetica-Light" font-size="26.0" fill="#FEFFFE" transform="matrix(1.00, 0.00, -0.00, -1.00, 357.9, 7.0)">o</text></g></svg>