<?xml version="1.0" encoding="UTF-8" standalone="no"?><svg xmlns="http://www.w3.org/2000/svg" xmlns:xlink="http://www.w3.org/1999/xlink" clip-rule="evenodd" stroke-miterlimit="4.00" viewBox="0 0 439 174"><desc>SVG generated by Keynote</desc><defs><pattern id="E4B61A4D-8F92-435F-82ED-F41958B398E7" patternUnits="userSpaceOnUse" width="431" height="431" viewBox="0 0 431 431" patternTransform="matrix(0.696056, 0.000000, 0.000000, -0.696056, 4.128418, 167.603400)"><image xlink:href="../../07DC45D4-9821-4558-B462-56CDCB78D1CC/assets/ADAE438DAFCBC09D8A26C26D597077FE.jpeg" width="431.00" height="431.00"></image></pattern></defs><g transform="matrix(1.00, 0.00, -0.00, -1.00, 0.0, 174.0)"><image xlink:href="../../07DC45D4-9821-4558-B462-56CDCB78D1CC/assets/BA6E3A89853820F8B3041FE4C09F0D31.png" width="436.00" height="167.00" transform="matrix(1.00, 0.00, -0.00, -1.00, 1.1, 168.6)" opacity="0.50"></image><g><clipPath id="clip-146"><path d="M 30.8 167.6 L 407.5 167.6 C 415.1 167.6 419.0 167.6 423.1 166.3 C 427.7 164.7 431.2 161.1 432.9 156.6 C 434.2 152.5 434.2 148.6 434.2 140.8 L 434.2 33.1 C 434.2 25.4 434.2 21.5 432.9 17.4 C 431.2 12.9 427.7 9.3 423.1 7.7 C 419.0 6.4 415.1 6.4 407.4 6.4 L 30.8 6.4 C 23.2 6.4 19.3 6.4 15.2 7.7 C 10.6 9.3 7.1 12.9 5.4 17.4 C 4.1 21.5 4.1 25.4 4.1 33.2 L 4.1 140.9 C 4.1 148.6 4.1 152.5 5.4 156.6 C 7.1 161.1 10.6 164.7 15.2 166.3 C 19.3 167.6 23.2 167.6 30.9 167.6 Z M 30.8 167.6 "></path></clipPath><g clip-path="url(#clip-146)"><path d="M 4.1 6.4 L 434.2 6.4 L 434.2 167.6 L 4.1 167.6 Z M 4.1 6.4 " fill="url(#E4B61A4D-8F92-435F-82ED-F41958B398E7)"></path><path d="M 4.1 167.6 L 434.2 167.6 L 434.2 6.4 L 4.1 6.4 Z M 4.1 167.6 " fill="#009BFC" fill-opacity="0.50"></path></g></g></g></svg>