<?xml version="1.0" encoding="UTF-8" standalone="no"?><svg xmlns="http://www.w3.org/2000/svg" xmlns:xlink="http://www.w3.org/1999/xlink" clip-rule="evenodd" stroke-miterlimit="4.00" viewBox="0 0 99 104"><desc>SVG generated by Keynote</desc><defs><linearGradient id="gradSh1.0" x1="0.0" y1="0.0" x2="100.0" y2="0.0" gradientUnits="userSpaceOnUse" gradientTransform="matrix(0.00, -0.96, -0.92, 0.00, 49.1, 102.1)"><stop offset="0.00000" stop-color="#000000"></stop><stop offset="0.00220" stop-color="#010101"></stop><stop offset="0.00733" stop-color="#020202"></stop><stop offset="0.01393" stop-color="#040404"></stop><stop offset="0.01906" stop-color="#050505"></stop><stop offset="0.03006" stop-color="#080808"></stop><stop offset="0.03446" stop-color="#090909"></stop><stop offset="0.06085" stop-color="#101010"></stop><stop offset="0.06598" stop-color="#111111"></stop><stop offset="0.12390" stop-color="#202020"></stop><stop offset="0.12830" stop-color="#212121"></stop><stop offset="0.24927" stop-color="#404040"></stop><stop offset="0.25440" stop-color="#414141"></stop><stop offset="0.50000" stop-color="#7F807F"></stop><stop offset="0.50073" stop-color="#808080"></stop><stop offset="0.50513" stop-color="#818181"></stop><stop offset="1.00000" stop-color="#FFFFFF"></stop></linearGradient></defs><g transform="matrix(1.00, 0.00, -0.00, -1.00, 0.0, 104.0)"><g><clipPath id="clip-12"><path d="M 0.1 0.9 L 98.1 0.9 L 98.1 103.1 L 0.1 103.1 Z M 0.1 0.9 "></path></clipPath><g clip-path="url(#clip-12)"><image xlink:href="936084964EE5AC8B58410982DF0585A3.png" width="96.00" height="100.00" transform="matrix(1.00, 0.00, -0.00, -1.00, 1.1, 102.1)" opacity="0.50"></image></g></g><g><clipPath id="clip-13"><path d="M 4.1 101.1 L 94.1 101.1 L 94.1 6.9 L 4.1 6.9 Z M 4.1 101.1 "></path></clipPath><g clip-path="url(#clip-13)"><g><clipPath id="clip-14"><path d="M 0.1 0.9 L 98.1 0.9 L 98.1 103.1 L 0.1 103.1 Z M 0.1 0.9 "></path></clipPath><g clip-path="url(#clip-14)"><path d="M 0.1 0.9 L 98.1 0.9 L 98.1 103.1 L 0.1 103.1 Z M 0.1 0.9 " fill="url(#gradSh1.0)"></path></g></g></g></g><g><clipPath id="clip-15"><path d="M 4.1 6.9 L 94.1 6.9 L 94.1 82.3 L 4.1 82.3 Z M 4.1 6.9 "></path></clipPath><g clip-path="url(#clip-15)"><image xlink:href="03115C8AD733FF0919B73268E9AC4C3C.png" width="90.00" height="76.00" transform="matrix(1.00, 0.00, -0.00, -0.99, 4.0, 82.0)"></image></g></g></g></svg>