<?xml version="1.0" encoding="UTF-8" standalone="no"?><svg xmlns="http://www.w3.org/2000/svg" xmlns:xlink="http://www.w3.org/1999/xlink" clip-rule="evenodd" stroke-miterlimit="4.00" viewBox="0 0 1024 768"><desc>SVG generated by Keynote</desc><defs></defs><g transform="matrix(1.00, 0.00, -0.00, -1.00, 0.0, 768.0)"><path d="M 0.0 768.0 L 1024.0 768.0 L 1024.0 0.0 L 0.0 0.0 Z M 0.0 768.0 " fill="#000000"></path><text xml:space="preserve" font-family="AvenirNext-DemiBold" font-weight="bold" font-size="53.0" fill="#FEFFFF" transform="matrix(1.00, 0.00, -0.00, -1.00, 74.0, 677.0)">I</text><text xml:space="preserve" font-family="AvenirNext-DemiBold" font-weight="bold" font-size="53.0" fill="#FEFFFF" transform="matrix(1.00, 0.00, -0.00, -1.00, 88.9, 677.0)">N</text><text xml:space="preserve" font-family="AvenirNext-DemiBold" font-weight="bold" font-size="53.0" fill="#FEFFFF" transform="matrix(1.00, 0.00, -0.00, -1.00, 130.3, 677.0)">S</text><text xml:space="preserve" font-family="AvenirNext-DemiBold" font-weight="bold" font-size="53.0" fill="#FEFFFF" transform="matrix(1.00, 0.00, -0.00, -1.00, 160.7, 677.0)">c</text><text xml:space="preserve" font-family="AvenirNext-DemiBold" font-weight="bold" font-size="53.0" fill="#FEFFFF" transform="matrix(1.00, 0.00, -0.00, -1.00, 186.6, 677.0)">o</text><text xml:space="preserve" font-family="AvenirNext-DemiBold" font-weight="bold" font-size="53.0" fill="#FEFFFF" transform="matrix(1.00, 0.00, -0.00, -1.00, 218.9, 677.0)">r</text><text xml:space="preserve" font-family="AvenirNext-DemiBold" font-weight="bold" font-size="53.0" fill="#FEFFFF" transform="matrix(1.00, 0.00, -0.00, -1.00, 237.2, 677.0)">e</text><text xml:space="preserve" font-family="Avenir-Book" font-size="18.0" fill="#D5D5D5" transform="matrix(1.00, 0.00, -0.00, -1.00, 35.0, 28.0)">7</text><text xml:space="preserve" font-family="Avenir-Book" font-size="27.5" fill="#FEFFFF" transform="matrix(1.00, 0.00, -0.00, -1.00, 74.0, 633.0)">A</text><text xml:space="preserve" font-family="Avenir-Book" font-size="27.5" fill="#FEFFFF" transform="matrix(1.00, 0.00, -0.00, -1.00, 92.9, 633.0)">n</text><text xml:space="preserve" font-family="Avenir-Book" font-size="27.5" fill="#FEFFFF" transform="matrix(1.00, 0.00, -0.00, -1.00, 108.2, 633.0)"> </text><text xml:space="preserve" font-family="Avenir-Book" font-size="27.5" fill="#FEFFFF" transform="matrix(1.00, 0.00, -0.00, -1.00, 115.8, 633.0)">e</text><text xml:space="preserve" font-family="Avenir-Book" font-size="27.5" fill="#FEFFFF" transform="matrix(1.00, 0.00, -0.00, -1.00, 131.1, 633.0)">n</text><text xml:space="preserve" font-family="Avenir-Book" font-size="27.5" fill="#FEFFFF" transform="matrix(1.00, 0.00, -0.00, -1.00, 146.4, 633.0)">v</text><text xml:space="preserve" font-family="Avenir-Book" font-size="27.5" fill="#FEFFFF" transform="matrix(1.00, 0.00, -0.00, -1.00, 159.6, 633.0)">i</text><text xml:space="preserve" font-family="Avenir-Book" font-size="27.5" fill="#FEFFFF" transform="matrix(1.00, 0.00, -0.00, -1.00, 166.2, 633.0)">r</text><text xml:space="preserve" font-family="Avenir-Book" font-size="27.5" fill="#FEFFFF" transform="matrix(1.00, 0.00, -0.00, -1.00, 174.9, 633.0)">o</text><text xml:space="preserve" font-family="Avenir-Book" font-size="27.5" fill="#FEFFFF" transform="matrix(1.00, 0.00, -0.00, -1.00, 191.2, 633.0)">n</text><text xml:space="preserve" font-family="Avenir-Book" font-size="27.5" fill="#FEFFFF" transform="matrix(1.00, 0.00, -0.00, -1.00, 206.5, 633.0)">m</text><text xml:space="preserve" font-family="Avenir-Book" font-size="27.5" fill="#FEFFFF" transform="matrix(1.00, 0.00, -0.00, -1.00, 229.9, 633.0)">e</text><text xml:space="preserve" font-family="Avenir-Book" font-size="27.5" fill="#FEFFFF" transform="matrix(1.00, 0.00, -0.00, -1.00, 245.2, 633.0)">n</text><text xml:space="preserve" font-family="Avenir-Book" font-size="27.5" fill="#FEFFFF" transform="matrix(1.00, 0.00, -0.00, -1.00, 260.5, 633.0)">t</text><text xml:space="preserve" font-family="Avenir-Book" font-size="27.5" fill="#FEFFFF" transform="matrix(1.00, 0.00, -0.00, -1.00, 269.6, 633.0)"> </text><text xml:space="preserve" font-family="Avenir-Book" font-size="27.5" fill="#FEFFFF" transform="matrix(1.00, 0.00, -0.00, -1.00, 277.3, 633.0)">f</text><text xml:space="preserve" font-family="Avenir-Book" font-size="27.5" fill="#FEFFFF" transform="matrix(1.00, 0.00, -0.00, -1.00, 285.4, 633.0)">o</text><text xml:space="preserve" font-family="Avenir-Book" font-size="27.5" fill="#FEFFFF" transform="matrix(1.00, 0.00, -0.00, -1.00, 301.7, 633.0)">r</text><text xml:space="preserve" font-family="Avenir-Book" font-size="27.5" fill="#FEFFFF" transform="matrix(1.00, 0.00, -0.00, -1.00, 310.8, 633.0)"> </text><text xml:space="preserve" font-family="Avenir-Book" font-size="27.5" fill="#FEFFFF" transform="matrix(1.00, 0.00, -0.00, -1.00, 318.5, 633.0)">t</text><text xml:space="preserve" font-family="Avenir-Book" font-size="27.5" fill="#FEFFFF" transform="matrix(1.00, 0.00, -0.00, -1.00, 327.6, 633.0)">h</text><text xml:space="preserve" font-family="Avenir-Book" font-size="27.5" fill="#FEFFFF" transform="matrix(1.00, 0.00, -0.00, -1.00, 342.9, 633.0)">e</text><text xml:space="preserve" font-family="Avenir-Book" font-size="27.5" fill="#FEFFFF" transform="matrix(1.00, 0.00, -0.00, -1.00, 358.2, 633.0)"> </text><text xml:space="preserve" font-family="Avenir-Book" font-size="27.5" fill="#FEFFFF" transform="matrix(1.00, 0.00, -0.00, -1.00, 365.8, 633.0)">d</text><text xml:space="preserve" font-family="Avenir-Book" font-size="27.5" fill="#FEFFFF" transform="matrix(1.00, 0.00, -0.00, -1.00, 382.6, 633.0)">e</text><text xml:space="preserve" font-family="Avenir-Book" font-size="27.5" fill="#FEFFFF" transform="matrix(1.00, 0.00, -0.00, -1.00, 397.9, 633.0)">s</text><text xml:space="preserve" font-family="Avenir-Book" font-size="27.5" fill="#FEFFFF" transform="matrix(1.00, 0.00, -0.00, -1.00, 409.6, 633.0)">i</text><text xml:space="preserve" font-family="Avenir-Book" font-size="27.5" fill="#FEFFFF" transform="matrix(1.00, 0.00, -0.00, -1.00, 416.2, 633.0)">g</text><text xml:space="preserve" font-family="Avenir-Book" font-size="27.5" fill="#FEFFFF" transform="matrix(1.00, 0.00, -0.00, -1.00, 433.0, 633.0)">n</text><text xml:space="preserve" font-family="Avenir-Book" font-size="27.5" fill="#FEFFFF" transform="matrix(1.00, 0.00, -0.00, -1.00, 448.3, 633.0)"> </text><text xml:space="preserve" font-family="Avenir-Book" font-size="27.5" fill="#FEFFFF" transform="matrix(1.00, 0.00, -0.00, -1.00, 456.0, 633.0)">o</text><text xml:space="preserve" font-family="Avenir-Book" font-size="27.5" fill="#FEFFFF" transform="matrix(1.00, 0.00, -0.00, -1.00, 472.3, 633.0)">f</text><text xml:space="preserve" font-family="Avenir-Book" font-size="27.5" fill="#FEFFFF" transform="matrix(1.00, 0.00, -0.00, -1.00, 480.4, 633.0)"> </text><text xml:space="preserve" font-family="Avenir-Book" font-size="27.5" fill="#FEFFFF" transform="matrix(1.00, 0.00, -0.00, -1.00, 488.1, 633.0)">i</text><text xml:space="preserve" font-family="Avenir-Book" font-size="27.5" fill="#FEFFFF" transform="matrix(1.00, 0.00, -0.00, -1.00, 494.7, 633.0)">n</text><text xml:space="preserve" font-family="Avenir-Book" font-size="27.5" fill="#FEFFFF" transform="matrix(1.00, 0.00, -0.00, -1.00, 510.0, 633.0)">t</text><text xml:space="preserve" font-family="Avenir-Book" font-size="27.5" fill="#FEFFFF" transform="matrix(1.00, 0.00, -0.00, -1.00, 519.1, 633.0)">e</text><text xml:space="preserve" font-family="Avenir-Book" font-size="27.5" fill="#FEFFFF" transform="matrix(1.00, 0.00, -0.00, -1.00, 534.4, 633.0)">r</text><text xml:space="preserve" font-family="Avenir-Book" font-size="27.5" fill="#FEFFFF" transform="matrix(1.00, 0.00, -0.00, -1.00, 543.5, 633.0)">a</text><text xml:space="preserve" font-family="Avenir-Book" font-size="27.5" fill="#FEFFFF" transform="matrix(1.00, 0.00, -0.00, -1.00, 557.8, 633.0)">c</text><text xml:space="preserve" font-family="Avenir-Book" font-size="27.5" fill="#FEFFFF" transform="matrix(1.00, 0.00, -0.00, -1.00, 571.0, 633.0)">t</text><text xml:space="preserve" font-family="Avenir-Book" font-size="27.5" fill="#FEFFFF" transform="matrix(1.00, 0.00, -0.00, -1.00, 580.2, 633.0)">i</text><text xml:space="preserve" font-family="Avenir-Book" font-size="27.5" fill="#FEFFFF" transform="matrix(1.00, 0.00, -0.00, -1.00, 586.8, 633.0)">v</text><text xml:space="preserve" font-family="Avenir-Book" font-size="27.5" fill="#FEFFFF" transform="matrix(1.00, 0.00, -0.00, -1.00, 600.0, 633.0)">e</text><text xml:space="preserve" font-family="Avenir-Book" font-size="27.5" fill="#FEFFFF" transform="matrix(1.00, 0.00, -0.00, -1.00, 615.3, 633.0)"> </text><text xml:space="preserve" font-family="Avenir-Book" font-size="27.5" fill="#FEFFFF" transform="matrix(1.00, 0.00, -0.00, -1.00, 623.0, 633.0)">a</text><text xml:space="preserve" font-family="Avenir-Book" font-size="27.5" fill="#FEFFFF" transform="matrix(1.00, 0.00, -0.00, -1.00, 637.2, 633.0)">u</text><text xml:space="preserve" font-family="Avenir-Book" font-size="27.5" fill="#FEFFFF" transform="matrix(1.00, 0.00, -0.00, -1.00, 652.5, 633.0)">g</text><text xml:space="preserve" font-family="Avenir-Book" font-size="27.5" fill="#FEFFFF" transform="matrix(1.00, 0.00, -0.00, -1.00, 669.3, 633.0)">m</text><text xml:space="preserve" font-family="Avenir-Book" font-size="27.5" fill="#FEFFFF" transform="matrix(1.00, 0.00, -0.00, -1.00, 692.7, 633.0)">e</text><text xml:space="preserve" font-family="Avenir-Book" font-size="27.5" fill="#FEFFFF" transform="matrix(1.00, 0.00, -0.00, -1.00, 708.0, 633.0)">n</text><text xml:space="preserve" font-family="Avenir-Book" font-size="27.5" fill="#FEFFFF" transform="matrix(1.00, 0.00, -0.00, -1.00, 723.3, 633.0)">t</text><text xml:space="preserve" font-family="Avenir-Book" font-size="27.5" fill="#FEFFFF" transform="matrix(1.00, 0.00, -0.00, -1.00, 732.5, 633.0)">e</text><text xml:space="preserve" font-family="Avenir-Book" font-size="27.5" fill="#FEFFFF" transform="matrix(1.00, 0.00, -0.00, -1.00, 747.7, 633.0)">d</text><text xml:space="preserve" font-family="Avenir-Book" font-size="27.5" fill="#FEFFFF" transform="matrix(1.00, 0.00, -0.00, -1.00, 764.6, 633.0)"> </text><text xml:space="preserve" font-family="Avenir-Book" font-size="27.5" fill="#FEFFFF" transform="matrix(1.00, 0.00, -0.00, -1.00, 772.2, 633.0)">m</text><text xml:space="preserve" font-family="Avenir-Book" font-size="27.5" fill="#FEFFFF" transform="matrix(1.00, 0.00, -0.00, -1.00, 795.6, 633.0)">u</text><text xml:space="preserve" font-family="Avenir-Book" font-size="27.5" fill="#FEFFFF" transform="matrix(1.00, 0.00, -0.00, -1.00, 810.9, 633.0)">s</text><text xml:space="preserve" font-family="Avenir-Book" font-size="27.5" fill="#FEFFFF" transform="matrix(1.00, 0.00, -0.00, -1.00, 822.6, 633.0)">i</text><text xml:space="preserve" font-family="Avenir-Book" font-size="27.5" fill="#FEFFFF" transform="matrix(1.00, 0.00, -0.00, -1.00, 829.2, 633.0)">c</text><text xml:space="preserve" font-family="Avenir-Book" font-size="27.5" fill="#FEFFFF" transform="matrix(1.00, 0.00, -0.00, -1.00, 842.5, 633.0)"> </text><text xml:space="preserve" font-family="Avenir-Book" font-size="27.5" fill="#FEFFFF" transform="matrix(1.00, 0.00, -0.00, -1.00, 850.1, 633.0)">s</text><text xml:space="preserve" font-family="Avenir-Book" font-size="27.5" fill="#FEFFFF" transform="matrix(1.00, 0.00, -0.00, -1.00, 861.8, 633.0)">c</text><text xml:space="preserve" font-family="Avenir-Book" font-size="27.5" fill="#FEFFFF" transform="matrix(1.00, 0.00, -0.00, -1.00, 875.1, 633.0)">o</text><text xml:space="preserve" font-family="Avenir-Book" font-size="27.5" fill="#FEFFFF" transform="matrix(1.00, 0.00, -0.00, -1.00, 891.4, 633.0)">r</text><text xml:space="preserve" font-family="Avenir-Book" font-size="27.5" fill="#FEFFFF" transform="matrix(1.00, 0.00, -0.00, -1.00, 900.0, 633.0)">e</text><text xml:space="preserve" font-family="Avenir-Book" font-size="27.5" fill="#FEFFFF" transform="matrix(1.00, 0.00, -0.00, -1.00, 915.3, 633.0)">s</text><image xlink:href="../../B04F1C97-ECAB-4D96-BED1-068678BAA01E/assets/BEF333F0D2746660C5E29CAA3BCC24B1.png" width="236.00" height="101.00" transform="matrix(1.00, 0.00, -0.00, -1.00, -285.0, 1087.0)"></image><text xml:space="preserve" font-family="Avenir-Heavy" font-weight="bold" font-size="36.0" fill="#DCDDE0" transform="matrix(1.00, 0.00, -0.00, -1.00, 77.0, 573.0)">I</text><text xml:space="preserve" font-family="Avenir-Heavy" font-weight="bold" font-size="36.0" fill="#DCDDE0" transform="matrix(1.00, 0.00, -0.00, -1.00, 87.0, 573.0)">N</text><text xml:space="preserve" font-family="Avenir-Heavy" font-weight="bold" font-size="36.0" fill="#DCDDE0" transform="matrix(1.00, 0.00, -0.00, -1.00, 115.7, 573.0)">S</text><text xml:space="preserve" font-family="Avenir-Heavy" font-weight="bold" font-size="36.0" fill="#DCDDE0" transform="matrix(1.00, 0.00, -0.00, -1.00, 136.3, 573.0)">c</text><text xml:space="preserve" font-family="Avenir-Heavy" font-weight="bold" font-size="36.0" fill="#DCDDE0" transform="matrix(1.00, 0.00, -0.00, -1.00, 153.7, 573.0)">o</text><text xml:space="preserve" font-family="Avenir-Heavy" font-weight="bold" font-size="36.0" fill="#DCDDE0" transform="matrix(1.00, 0.00, -0.00, -1.00, 175.6, 573.0)">r</text><text xml:space="preserve" font-family="Avenir-Heavy" font-weight="bold" font-size="36.0" fill="#DCDDE0" transform="matrix(1.00, 0.00, -0.00, -1.00, 189.0, 573.0)">e</text><text xml:space="preserve" font-family="Avenir-Heavy" font-weight="bold" font-size="36.0" fill="#DCDDE0" transform="matrix(1.00, 0.00, -0.00, -1.00, 209.7, 573.0)"> </text><text xml:space="preserve" font-family="Avenir-Heavy" font-weight="bold" font-size="36.0" fill="#DCDDE0" transform="matrix(1.00, 0.00, -0.00, -1.00, 220.3, 573.0)">A</text><text xml:space="preserve" font-family="Avenir-Heavy" font-weight="bold" font-size="36.0" fill="#DCDDE0" transform="matrix(1.00, 0.00, -0.00, -1.00, 246.3, 573.0)">P</text><text xml:space="preserve" font-family="Avenir-Heavy" font-weight="bold" font-size="36.0" fill="#DCDDE0" transform="matrix(1.00, 0.00, -0.00, -1.00, 268.3, 573.0)">I</text><text xml:space="preserve" font-family="Avenir-Heavy" font-weight="bold" font-size="36.0" fill="#DCDDE0" transform="matrix(1.00, 0.00, -0.00, -1.00, 278.3, 573.0)"> </text><text xml:space="preserve" font-family="Avenir-Heavy" font-weight="bold" font-size="36.0" fill="#DCDDE0" transform="matrix(1.00, 0.00, -0.00, -1.00, 289.0, 573.0)">i</text><text xml:space="preserve" font-family="Avenir-Heavy" font-weight="bold" font-size="36.0" fill="#DCDDE0" transform="matrix(1.00, 0.00, -0.00, -1.00, 298.3, 573.0)">n</text><text xml:space="preserve" font-family="Avenir-Heavy" font-weight="bold" font-size="36.0" fill="#DCDDE0" transform="matrix(1.00, 0.00, -0.00, -1.00, 319.0, 573.0)"> </text><text xml:space="preserve" font-family="Avenir-Heavy" font-weight="bold" font-size="36.0" fill="#DCDDE0" transform="matrix(1.00, 0.00, -0.00, -1.00, 329.6, 573.0)">s</text><text xml:space="preserve" font-family="Avenir-Heavy" font-weight="bold" font-size="36.0" fill="#DCDDE0" transform="matrix(1.00, 0.00, -0.00, -1.00, 345.6, 573.0)">h</text><text xml:space="preserve" font-family="Avenir-Heavy" font-weight="bold" font-size="36.0" fill="#DCDDE0" transform="matrix(1.00, 0.00, -0.00, -1.00, 366.3, 573.0)">o</text><text xml:space="preserve" font-family="Avenir-Heavy" font-weight="bold" font-size="36.0" fill="#DCDDE0" transform="matrix(1.00, 0.00, -0.00, -1.00, 388.3, 573.0)">r</text><text xml:space="preserve" font-family="Avenir-Heavy" font-weight="bold" font-size="36.0" fill="#DCDDE0" transform="matrix(1.00, 0.00, -0.00, -1.00, 402.3, 573.0)">t</text><g><clipPath id="clip-29"><path d="M 33.1 381.1 L 814.9 381.1 L 814.9 506.9 L 33.1 506.9 Z M 33.1 381.1 "></path></clipPath><g clip-path="url(#clip-29)"><text xml:space="preserve" font-family="Avenir-Book" font-size="32.5" fill="#E42100" transform="matrix(1.00, 0.00, -0.00, -1.00, 42.0, 469.4)">•</text><text xml:space="preserve" font-family="Avenir-Book" font-size="26.0" fill="#FEFFFE" transform="matrix(1.00, 0.00, -0.00, -1.00, 76.0, 472.0)">T</text><text xml:space="preserve" font-family="Avenir-Book" font-size="26.0" fill="#FEFFFE" transform="matrix(1.00, 0.00, -0.00, -1.00, 90.9, 472.0)">h</text><text xml:space="preserve" font-family="Avenir-Book" font-size="26.0" fill="#FEFFFE" transform="matrix(1.00, 0.00, -0.00, -1.00, 105.4, 472.0)">e</text><text xml:space="preserve" font-family="Avenir-Book" font-size="26.0" fill="#FEFFFE" transform="matrix(1.00, 0.00, -0.00, -1.00, 119.8, 472.0)"> </text><text xml:space="preserve" font-family="Avenir-Book" font-size="26.0" fill="#FEFFFE" transform="matrix(1.00, 0.00, -0.00, -1.00, 127.1, 472.0)">O</text><text xml:space="preserve" font-family="Avenir-Book" font-size="26.0" fill="#FEFFFE" transform="matrix(1.00, 0.00, -0.00, -1.00, 148.7, 472.0)">S</text><text xml:space="preserve" font-family="Avenir-Book" font-size="26.0" fill="#FEFFFE" transform="matrix(1.00, 0.00, -0.00, -1.00, 163.2, 472.0)">C</text><text xml:space="preserve" font-family="Avenir-Book" font-size="26.0" fill="#FEFFFE" transform="matrix(1.00, 0.00, -0.00, -1.00, 181.5, 472.0)"> </text><text xml:space="preserve" font-family="Avenir-Book" font-size="26.0" fill="#FEFFFE" transform="matrix(1.00, 0.00, -0.00, -1.00, 188.7, 472.0)">a</text><text xml:space="preserve" font-family="Avenir-Book" font-size="26.0" fill="#FEFFFE" transform="matrix(1.00, 0.00, -0.00, -1.00, 202.2, 472.0)">d</text><text xml:space="preserve" font-family="Avenir-Book" font-size="26.0" fill="#FEFFFE" transform="matrix(1.00, 0.00, -0.00, -1.00, 218.1, 472.0)">d</text><text xml:space="preserve" font-family="Avenir-Book" font-size="26.0" fill="#FEFFFE" transform="matrix(1.00, 0.00, -0.00, -1.00, 234.0, 472.0)">r</text><text xml:space="preserve" font-family="Avenir-Book" font-size="26.0" fill="#FEFFFE" transform="matrix(1.00, 0.00, -0.00, -1.00, 242.2, 472.0)">e</text><text xml:space="preserve" font-family="Avenir-Book" font-size="26.0" fill="#FEFFFE" transform="matrix(1.00, 0.00, -0.00, -1.00, 256.6, 472.0)">s</text><text xml:space="preserve" font-family="Avenir-Book" font-size="26.0" fill="#FEFFFE" transform="matrix(1.00, 0.00, -0.00, -1.00, 267.7, 472.0)">s</text><text xml:space="preserve" font-family="Avenir-Book" font-size="26.0" fill="#FEFFFE" transform="matrix(1.00, 0.00, -0.00, -1.00, 278.8, 472.0)"> </text><text xml:space="preserve" font-family="Avenir-Book" font-size="26.0" fill="#FEFFFE" transform="matrix(1.00, 0.00, -0.00, -1.00, 286.0, 472.0)">i</text><text xml:space="preserve" font-family="Avenir-Book" font-size="26.0" fill="#FEFFFE" transform="matrix(1.00, 0.00, -0.00, -1.00, 292.2, 472.0)">s</text><text xml:space="preserve" font-family="Avenir-Book" font-size="26.0" fill="#FEFFFE" transform="matrix(1.00, 0.00, -0.00, -1.00, 303.3, 472.0)"> </text><text xml:space="preserve" font-family="Avenir-Book" font-size="26.0" fill="#FEFFFE" transform="matrix(1.00, 0.00, -0.00, -1.00, 310.5, 472.0)">l</text><text xml:space="preserve" font-family="Avenir-Book" font-size="26.0" fill="#FEFFFE" transform="matrix(1.00, 0.00, -0.00, -1.00, 316.8, 472.0)">i</text><text xml:space="preserve" font-family="Avenir-Book" font-size="26.0" fill="#FEFFFE" transform="matrix(1.00, 0.00, -0.00, -1.00, 323.0, 472.0)">k</text><text xml:space="preserve" font-family="Avenir-Book" font-size="26.0" fill="#FEFFFE" transform="matrix(1.00, 0.00, -0.00, -1.00, 335.6, 472.0)">e</text><text xml:space="preserve" font-family="Avenir-Book" font-size="26.0" fill="#FEFFFE" transform="matrix(1.00, 0.00, -0.00, -1.00, 350.0, 472.0)"> </text><text xml:space="preserve" font-family="Avenir-Book" font-size="26.0" fill="#FEFFFE" transform="matrix(1.00, 0.00, -0.00, -1.00, 357.2, 472.0)">a</text><text xml:space="preserve" font-family="Avenir-Book" font-size="26.0" fill="#FEFFFE" transform="matrix(1.00, 0.00, -0.00, -1.00, 370.7, 472.0)">n</text><text xml:space="preserve" font-family="Avenir-Book" font-size="26.0" fill="#FEFFFE" transform="matrix(1.00, 0.00, -0.00, -1.00, 385.2, 472.0)"> </text><text xml:space="preserve" font-family="Avenir-Book" font-size="26.0" fill="#FEFFFE" transform="matrix(1.00, 0.00, -0.00, -1.00, 392.4, 472.0)">o</text><text xml:space="preserve" font-family="Avenir-Book" font-size="26.0" fill="#FEFFFE" transform="matrix(1.00, 0.00, -0.00, -1.00, 407.8, 472.0)">b</text><text xml:space="preserve" font-family="Avenir-Book" font-size="26.0" fill="#FEFFFE" transform="matrix(1.00, 0.00, -0.00, -1.00, 423.7, 472.0)">j</text><text xml:space="preserve" font-family="Avenir-Book" font-size="26.0" fill="#FEFFFE" transform="matrix(1.00, 0.00, -0.00, -1.00, 430.0, 472.0)">e</text><text xml:space="preserve" font-family="Avenir-Book" font-size="26.0" fill="#FEFFFE" transform="matrix(1.00, 0.00, -0.00, -1.00, 444.4, 472.0)">c</text><text xml:space="preserve" font-family="Avenir-Book" font-size="26.0" fill="#FEFFFE" transform="matrix(1.00, 0.00, -0.00, -1.00, 457.0, 472.0)">t</text><text xml:space="preserve" font-family="Avenir-Book" font-size="26.0" fill="#FEFFFE" transform="matrix(1.00, 0.00, -0.00, -1.00, 465.6, 472.0)"> </text><text xml:space="preserve" font-family="Avenir-Book" font-size="26.0" fill="#FEFFFE" transform="matrix(1.00, 0.00, -0.00, -1.00, 472.8, 472.0)">p</text><text xml:space="preserve" font-family="Avenir-Book" font-size="26.0" fill="#FEFFFE" transform="matrix(1.00, 0.00, -0.00, -1.00, 488.7, 472.0)">o</text><text xml:space="preserve" font-family="Avenir-Book" font-size="26.0" fill="#FEFFFE" transform="matrix(1.00, 0.00, -0.00, -1.00, 504.1, 472.0)">i</text><text xml:space="preserve" font-family="Avenir-Book" font-size="26.0" fill="#FEFFFE" transform="matrix(1.00, 0.00, -0.00, -1.00, 510.4, 472.0)">n</text><text xml:space="preserve" font-family="Avenir-Book" font-size="26.0" fill="#FEFFFE" transform="matrix(1.00, 0.00, -0.00, -1.00, 524.8, 472.0)">t</text><text xml:space="preserve" font-family="Avenir-Book" font-size="26.0" fill="#FEFFFE" transform="matrix(1.00, 0.00, -0.00, -1.00, 533.4, 472.0)">e</text><text xml:space="preserve" font-family="Avenir-Book" font-size="26.0" fill="#FEFFFE" transform="matrix(1.00, 0.00, -0.00, -1.00, 547.9, 472.0)">r</text><text xml:space="preserve" font-family="Avenir-Book" font-size="26.0" fill="#FEFFFE" transform="matrix(1.00, 0.00, -0.00, -1.00, 554.1, 472.0)">.</text><text xml:space="preserve" font-family="Avenir-Book" font-size="26.0" fill="#FEFFFE" transform="matrix(1.00, 0.00, -0.00, -1.00, 561.4, 472.0)"> </text><text xml:space="preserve" font-family="Avenir-Book" font-size="32.5" fill="#E42100" transform="matrix(1.00, 0.00, -0.00, -1.00, 42.0, 433.4)">•</text><text xml:space="preserve" font-family="Avenir-Book" font-size="26.0" fill="#FEFFFE" transform="matrix(1.00, 0.00, -0.00, -1.00, 76.0, 436.0)">A</text><text xml:space="preserve" font-family="Avenir-Book" font-size="26.0" fill="#FEFFFE" transform="matrix(1.00, 0.00, -0.00, -1.00, 93.8, 436.0)">n</text><text xml:space="preserve" font-family="Avenir-Book" font-size="26.0" fill="#FEFFFE" transform="matrix(1.00, 0.00, -0.00, -1.00, 108.3, 436.0)"> </text><text xml:space="preserve" font-family="Avenir-Book" font-size="26.0" fill="#FEFFFE" transform="matrix(1.00, 0.00, -0.00, -1.00, 115.5, 436.0)">O</text><text xml:space="preserve" font-family="Avenir-Book" font-size="26.0" fill="#FEFFFE" transform="matrix(1.00, 0.00, -0.00, -1.00, 137.2, 436.0)">S</text><text xml:space="preserve" font-family="Avenir-Book" font-size="26.0" fill="#FEFFFE" transform="matrix(1.00, 0.00, -0.00, -1.00, 151.7, 436.0)">C</text><text xml:space="preserve" font-family="Avenir-Book" font-size="26.0" fill="#FEFFFE" transform="matrix(1.00, 0.00, -0.00, -1.00, 170.0, 436.0)"> </text><text xml:space="preserve" font-family="Avenir-Book" font-size="26.0" fill="#FEFFFE" transform="matrix(1.00, 0.00, -0.00, -1.00, 177.2, 436.0)">m</text><text xml:space="preserve" font-family="Avenir-Book" font-size="26.0" fill="#FEFFFE" transform="matrix(1.00, 0.00, -0.00, -1.00, 199.3, 436.0)">e</text><text xml:space="preserve" font-family="Avenir-Book" font-size="26.0" fill="#FEFFFE" transform="matrix(1.00, 0.00, -0.00, -1.00, 213.8, 436.0)">s</text><text xml:space="preserve" font-family="Avenir-Book" font-size="26.0" fill="#FEFFFE" transform="matrix(1.00, 0.00, -0.00, -1.00, 224.9, 436.0)">s</text><text xml:space="preserve" font-family="Avenir-Book" font-size="26.0" fill="#FEFFFE" transform="matrix(1.00, 0.00, -0.00, -1.00, 236.0, 436.0)">a</text><text xml:space="preserve" font-family="Avenir-Book" font-size="26.0" fill="#FEFFFE" transform="matrix(1.00, 0.00, -0.00, -1.00, 249.4, 436.0)">g</text><text xml:space="preserve" font-family="Avenir-Book" font-size="26.0" fill="#FEFFFE" transform="matrix(1.00, 0.00, -0.00, -1.00, 265.3, 436.0)">e</text><text xml:space="preserve" font-family="Avenir-Book" font-size="26.0" fill="#FEFFFE" transform="matrix(1.00, 0.00, -0.00, -1.00, 279.8, 436.0)"> </text><text xml:space="preserve" font-family="Avenir-Book" font-size="26.0" fill="#FEFFFE" transform="matrix(1.00, 0.00, -0.00, -1.00, 287.0, 436.0)">i</text><text xml:space="preserve" font-family="Avenir-Book" font-size="26.0" fill="#FEFFFE" transform="matrix(1.00, 0.00, -0.00, -1.00, 293.3, 436.0)">s</text><text xml:space="preserve" font-family="Avenir-Book" font-size="26.0" fill="#FEFFFE" transform="matrix(1.00, 0.00, -0.00, -1.00, 304.3, 436.0)"> </text><text xml:space="preserve" font-family="Avenir-Book" font-size="26.0" fill="#FEFFFE" transform="matrix(1.00, 0.00, -0.00, -1.00, 311.6, 436.0)">s</text><text xml:space="preserve" font-family="Avenir-Book" font-size="26.0" fill="#FEFFFE" transform="matrix(1.00, 0.00, -0.00, -1.00, 322.6, 436.0)">i</text><text xml:space="preserve" font-family="Avenir-Book" font-size="26.0" fill="#FEFFFE" transform="matrix(1.00, 0.00, -0.00, -1.00, 328.9, 436.0)">m</text><text xml:space="preserve" font-family="Avenir-Book" font-size="26.0" fill="#FEFFFE" transform="matrix(1.00, 0.00, -0.00, -1.00, 351.0, 436.0)">i</text><text xml:space="preserve" font-family="Avenir-Book" font-size="26.0" fill="#FEFFFE" transform="matrix(1.00, 0.00, -0.00, -1.00, 357.3, 436.0)">l</text><text xml:space="preserve" font-family="Avenir-Book" font-size="26.0" fill="#FEFFFE" transform="matrix(1.00, 0.00, -0.00, -1.00, 363.5, 436.0)">a</text><text xml:space="preserve" font-family="Avenir-Book" font-size="26.0" fill="#FEFFFE" transform="matrix(1.00, 0.00, -0.00, -1.00, 377.0, 436.0)">r</text><text xml:space="preserve" font-family="Avenir-Book" font-size="26.0" fill="#FEFFFE" transform="matrix(1.00, 0.00, -0.00, -1.00, 385.6, 436.0)"> </text><text xml:space="preserve" font-family="Avenir-Book" font-size="26.0" fill="#FEFFFE" transform="matrix(1.00, 0.00, -0.00, -1.00, 392.9, 436.0)">t</text><text xml:space="preserve" font-family="Avenir-Book" font-size="26.0" fill="#FEFFFE" transform="matrix(1.00, 0.00, -0.00, -1.00, 401.5, 436.0)">o</text><text xml:space="preserve" font-family="Avenir-Book" font-size="26.0" fill="#FEFFFE" transform="matrix(1.00, 0.00, -0.00, -1.00, 416.9, 436.0)"> </text><text xml:space="preserve" font-family="Avenir-Book" font-size="26.0" fill="#FEFFFE" transform="matrix(1.00, 0.00, -0.00, -1.00, 424.1, 436.0)">a</text><text xml:space="preserve" font-family="Avenir-Book" font-size="26.0" fill="#FEFFFE" transform="matrix(1.00, 0.00, -0.00, -1.00, 437.6, 436.0)">n</text><text xml:space="preserve" font-family="Avenir-Book" font-size="26.0" fill="#FEFFFE" transform="matrix(1.00, 0.00, -0.00, -1.00, 452.1, 436.0)"> </text><text xml:space="preserve" font-family="Avenir-Book" font-size="26.0" fill="#FEFFFE" transform="matrix(1.00, 0.00, -0.00, -1.00, 459.3, 436.0)">o</text><text xml:space="preserve" font-family="Avenir-Book" font-size="26.0" fill="#FEFFFE" transform="matrix(1.00, 0.00, -0.00, -1.00, 474.7, 436.0)">b</text><text xml:space="preserve" font-family="Avenir-Book" font-size="26.0" fill="#FEFFFE" transform="matrix(1.00, 0.00, -0.00, -1.00, 490.6, 436.0)">j</text><text xml:space="preserve" font-family="Avenir-Book" font-size="26.0" fill="#FEFFFE" transform="matrix(1.00, 0.00, -0.00, -1.00, 496.9, 436.0)">e</text><text xml:space="preserve" font-family="Avenir-Book" font-size="26.0" fill="#FEFFFE" transform="matrix(1.00, 0.00, -0.00, -1.00, 511.3, 436.0)">c</text><text xml:space="preserve" font-family="Avenir-Book" font-size="26.0" fill="#FEFFFE" transform="matrix(1.00, 0.00, -0.00, -1.00, 523.9, 436.0)">t</text><text xml:space="preserve" font-family="Avenir-Book" font-size="26.0" fill="#FEFFFE" transform="matrix(1.00, 0.00, -0.00, -1.00, 532.5, 436.0)"> </text><text xml:space="preserve" font-family="Avenir-Book" font-size="26.0" fill="#FEFFFE" transform="matrix(1.00, 0.00, -0.00, -1.00, 539.7, 436.0)">m</text><text xml:space="preserve" font-family="Avenir-Book" font-size="26.0" fill="#FEFFFE" transform="matrix(1.00, 0.00, -0.00, -1.00, 561.9, 436.0)">e</text><text xml:space="preserve" font-family="Avenir-Book" font-size="26.0" fill="#FEFFFE" transform="matrix(1.00, 0.00, -0.00, -1.00, 576.3, 436.0)">t</text><text xml:space="preserve" font-family="Avenir-Book" font-size="26.0" fill="#FEFFFE" transform="matrix(1.00, 0.00, -0.00, -1.00, 585.0, 436.0)">h</text><text xml:space="preserve" font-family="Avenir-Book" font-size="26.0" fill="#FEFFFE" transform="matrix(1.00, 0.00, -0.00, -1.00, 599.4, 436.0)">o</text><text xml:space="preserve" font-family="Avenir-Book" font-size="26.0" fill="#FEFFFE" transform="matrix(1.00, 0.00, -0.00, -1.00, 614.8, 436.0)">d</text><text xml:space="preserve" font-family="Avenir-Book" font-size="26.0" fill="#FEFFFE" transform="matrix(1.00, 0.00, -0.00, -1.00, 630.7, 436.0)"> </text><text xml:space="preserve" font-family="Avenir-Book" font-size="26.0" fill="#FEFFFE" transform="matrix(1.00, 0.00, -0.00, -1.00, 637.9, 436.0)">c</text><text xml:space="preserve" font-family="Avenir-Book" font-size="26.0" fill="#FEFFFE" transform="matrix(1.00, 0.00, -0.00, -1.00, 650.5, 436.0)">a</text><text xml:space="preserve" font-family="Avenir-Book" font-size="26.0" fill="#FEFFFE" transform="matrix(1.00, 0.00, -0.00, -1.00, 664.0, 436.0)">l</text><text xml:space="preserve" font-family="Avenir-Book" font-size="26.0" fill="#FEFFFE" transform="matrix(1.00, 0.00, -0.00, -1.00, 670.2, 436.0)">l</text><text xml:space="preserve" font-family="Avenir-Book" font-size="26.0" fill="#FEFFFE" transform="matrix(1.00, 0.00, -0.00, -1.00, 676.4, 436.0)">.</text><text xml:space="preserve" font-family="Avenir-Book" font-size="26.0" fill="#FEFFFE" transform="matrix(1.00, 0.00, -0.00, -1.00, 683.7, 436.0)"> </text><text xml:space="preserve" font-family="Avenir-Book" font-size="32.5" fill="#E42100" transform="matrix(1.00, 0.00, -0.00, -1.00, 42.0, 397.4)">•</text><text xml:space="preserve" font-family="Avenir-Book" font-size="26.0" fill="#FEFFFE" transform="matrix(1.00, 0.00, -0.00, -1.00, 76.0, 400.0)">T</text><text xml:space="preserve" font-family="Avenir-Book" font-size="26.0" fill="#FEFFFE" transform="matrix(1.00, 0.00, -0.00, -1.00, 90.9, 400.0)">h</text><text xml:space="preserve" font-family="Avenir-Book" font-size="26.0" fill="#FEFFFE" transform="matrix(1.00, 0.00, -0.00, -1.00, 105.4, 400.0)">e</text><text xml:space="preserve" font-family="Avenir-Book" font-size="26.0" fill="#FEFFFE" transform="matrix(1.00, 0.00, -0.00, -1.00, 119.8, 400.0)"> </text><text xml:space="preserve" font-family="Avenir-Book" font-size="26.0" fill="#FEFFFE" transform="matrix(1.00, 0.00, -0.00, -1.00, 127.1, 400.0)">O</text><text xml:space="preserve" font-family="Avenir-Book" font-size="26.0" fill="#FEFFFE" transform="matrix(1.00, 0.00, -0.00, -1.00, 148.7, 400.0)">S</text><text xml:space="preserve" font-family="Avenir-Book" font-size="26.0" fill="#FEFFFE" transform="matrix(1.00, 0.00, -0.00, -1.00, 163.2, 400.0)">C</text><text xml:space="preserve" font-family="Avenir-Book" font-size="26.0" fill="#FEFFFE" transform="matrix(1.00, 0.00, -0.00, -1.00, 181.5, 400.0)"> </text><text xml:space="preserve" font-family="Avenir-Book" font-size="26.0" fill="#FEFFFE" transform="matrix(1.00, 0.00, -0.00, -1.00, 188.7, 400.0)">a</text><text xml:space="preserve" font-family="Avenir-Book" font-size="26.0" fill="#FEFFFE" transform="matrix(1.00, 0.00, -0.00, -1.00, 202.2, 400.0)">d</text><text xml:space="preserve" font-family="Avenir-Book" font-size="26.0" fill="#FEFFFE" transform="matrix(1.00, 0.00, -0.00, -1.00, 218.1, 400.0)">d</text><text xml:space="preserve" font-family="Avenir-Book" font-size="26.0" fill="#FEFFFE" transform="matrix(1.00, 0.00, -0.00, -1.00, 234.0, 400.0)">r</text><text xml:space="preserve" font-family="Avenir-Book" font-size="26.0" fill="#FEFFFE" transform="matrix(1.00, 0.00, -0.00, -1.00, 242.2, 400.0)">e</text><text xml:space="preserve" font-family="Avenir-Book" font-size="26.0" fill="#FEFFFE" transform="matrix(1.00, 0.00, -0.00, -1.00, 256.6, 400.0)">s</text><text xml:space="preserve" font-family="Avenir-Book" font-size="26.0" fill="#FEFFFE" transform="matrix(1.00, 0.00, -0.00, -1.00, 267.7, 400.0)">s</text><text xml:space="preserve" font-family="Avenir-Book" font-size="26.0" fill="#FEFFFE" transform="matrix(1.00, 0.00, -0.00, -1.00, 278.8, 400.0)"> </text><text xml:space="preserve" font-family="Avenir-Book" font-size="26.0" fill="#FEFFFE" transform="matrix(1.00, 0.00, -0.00, -1.00, 286.0, 400.0)">s</text><text xml:space="preserve" font-family="Avenir-Book" font-size="26.0" fill="#FEFFFE" transform="matrix(1.00, 0.00, -0.00, -1.00, 297.1, 400.0)">p</text><text xml:space="preserve" font-family="Avenir-Book" font-size="26.0" fill="#FEFFFE" transform="matrix(1.00, 0.00, -0.00, -1.00, 313.0, 400.0)">a</text><text xml:space="preserve" font-family="Avenir-Book" font-size="26.0" fill="#FEFFFE" transform="matrix(1.00, 0.00, -0.00, -1.00, 326.5, 400.0)">c</text><text xml:space="preserve" font-family="Avenir-Book" font-size="26.0" fill="#FEFFFE" transform="matrix(1.00, 0.00, -0.00, -1.00, 339.0, 400.0)">e</text><text xml:space="preserve" font-family="Avenir-Book" font-size="26.0" fill="#FEFFFE" transform="matrix(1.00, 0.00, -0.00, -1.00, 353.4, 400.0)"> </text><text xml:space="preserve" font-family="Avenir-Book" font-size="26.0" fill="#FEFFFE" transform="matrix(1.00, 0.00, -0.00, -1.00, 360.7, 400.0)">i</text><text xml:space="preserve" font-family="Avenir-Book" font-size="26.0" fill="#FEFFFE" transform="matrix(1.00, 0.00, -0.00, -1.00, 366.9, 400.0)">s</text><text xml:space="preserve" font-family="Avenir-Book" font-size="26.0" fill="#FEFFFE" transform="matrix(1.00, 0.00, -0.00, -1.00, 378.0, 400.0)"> </text><text xml:space="preserve" font-family="Avenir-Book" font-size="26.0" fill="#FEFFFE" transform="matrix(1.00, 0.00, -0.00, -1.00, 385.2, 400.0)">d</text><text xml:space="preserve" font-family="Avenir-Book" font-size="26.0" fill="#FEFFFE" transform="matrix(1.00, 0.00, -0.00, -1.00, 401.1, 400.0)">y</text><text xml:space="preserve" font-family="Avenir-Book" font-size="26.0" fill="#FEFFFE" transform="matrix(1.00, 0.00, -0.00, -1.00, 413.6, 400.0)">n</text><text xml:space="preserve" font-family="Avenir-Book" font-size="26.0" fill="#FEFFFE" transform="matrix(1.00, 0.00, -0.00, -1.00, 428.1, 400.0)">a</text><text xml:space="preserve" font-family="Avenir-Book" font-size="26.0" fill="#FEFFFE" transform="matrix(1.00, 0.00, -0.00, -1.00, 441.6, 400.0)">m</text><text xml:space="preserve" font-family="Avenir-Book" font-size="26.0" fill="#FEFFFE" transform="matrix(1.00, 0.00, -0.00, -1.00, 463.7, 400.0)">i</text><text xml:space="preserve" font-family="Avenir-Book" font-size="26.0" fill="#FEFFFE" transform="matrix(1.00, 0.00, -0.00, -1.00, 470.0, 400.0)">c</text><text xml:space="preserve" font-family="Avenir-Book" font-size="26.0" fill="#FEFFFE" transform="matrix(1.00, 0.00, -0.00, -1.00, 482.5, 400.0)">.</text></g></g><g><clipPath id="clip-30"><path d="M 65.7 490.2 L 554.7 490.2 L 554.7 563.8 L 65.7 563.8 Z M 65.7 490.2 "></path></clipPath><g clip-path="url(#clip-30)"><text xml:space="preserve" font-family="Avenir-Book" font-size="36.0" fill="#DCDDE0" transform="matrix(1.00, 0.00, -0.00, -1.00, 78.0, 516.0)">A</text><text xml:space="preserve" font-family="Avenir-Book" font-size="36.0" fill="#DCDDE0" transform="matrix(1.00, 0.00, -0.00, -1.00, 102.7, 516.0)">n</text><text xml:space="preserve" font-family="Avenir-Book" font-size="36.0" fill="#DCDDE0" transform="matrix(1.00, 0.00, -0.00, -1.00, 122.7, 516.0)"> </text><text xml:space="preserve" font-family="Avenir-Book" font-size="36.0" fill="#DCDDE0" transform="matrix(1.00, 0.00, -0.00, -1.00, 132.7, 516.0)">o</text><text xml:space="preserve" font-family="Avenir-Book" font-size="36.0" fill="#DCDDE0" transform="matrix(1.00, 0.00, -0.00, -1.00, 154.1, 516.0)">b</text><text xml:space="preserve" font-family="Avenir-Book" font-size="36.0" fill="#DCDDE0" transform="matrix(1.00, 0.00, -0.00, -1.00, 176.1, 516.0)">j</text><text xml:space="preserve" font-family="Avenir-Book" font-size="36.0" fill="#DCDDE0" transform="matrix(1.00, 0.00, -0.00, -1.00, 184.7, 516.0)">e</text><text xml:space="preserve" font-family="Avenir-Book" font-size="36.0" fill="#DCDDE0" transform="matrix(1.00, 0.00, -0.00, -1.00, 204.7, 516.0)">c</text><text xml:space="preserve" font-family="Avenir-Book" font-size="36.0" fill="#DCDDE0" transform="matrix(1.00, 0.00, -0.00, -1.00, 222.1, 516.0)">t</text><text xml:space="preserve" font-family="Avenir-Book" font-size="36.0" fill="#DCDDE0" transform="matrix(1.00, 0.00, -0.00, -1.00, 234.0, 516.0)"> </text><text xml:space="preserve" font-family="Avenir-Book" font-size="36.0" fill="#DCDDE0" transform="matrix(1.00, 0.00, -0.00, -1.00, 244.0, 516.0)">o</text><text xml:space="preserve" font-family="Avenir-Book" font-size="36.0" fill="#DCDDE0" transform="matrix(1.00, 0.00, -0.00, -1.00, 265.4, 516.0)">r</text><text xml:space="preserve" font-family="Avenir-Book" font-size="36.0" fill="#DCDDE0" transform="matrix(1.00, 0.00, -0.00, -1.00, 277.3, 516.0)">i</text><text xml:space="preserve" font-family="Avenir-Book" font-size="36.0" fill="#DCDDE0" transform="matrix(1.00, 0.00, -0.00, -1.00, 286.0, 516.0)">e</text><text xml:space="preserve" font-family="Avenir-Book" font-size="36.0" fill="#DCDDE0" transform="matrix(1.00, 0.00, -0.00, -1.00, 306.0, 516.0)">n</text><text xml:space="preserve" font-family="Avenir-Book" font-size="36.0" fill="#DCDDE0" transform="matrix(1.00, 0.00, -0.00, -1.00, 326.0, 516.0)">t</text><text xml:space="preserve" font-family="Avenir-Book" font-size="36.0" fill="#DCDDE0" transform="matrix(1.00, 0.00, -0.00, -1.00, 338.0, 516.0)">e</text><text xml:space="preserve" font-family="Avenir-Book" font-size="36.0" fill="#DCDDE0" transform="matrix(1.00, 0.00, -0.00, -1.00, 358.0, 516.0)">d</text><text xml:space="preserve" font-family="Avenir-Book" font-size="36.0" fill="#DCDDE0" transform="matrix(1.00, 0.00, -0.00, -1.00, 380.0, 516.0)"> </text><text xml:space="preserve" font-family="Avenir-Book" font-size="36.0" fill="#DCDDE0" transform="matrix(1.00, 0.00, -0.00, -1.00, 390.0, 516.0)">a</text><text xml:space="preserve" font-family="Avenir-Book" font-size="36.0" fill="#DCDDE0" transform="matrix(1.00, 0.00, -0.00, -1.00, 408.7, 516.0)">p</text><text xml:space="preserve" font-family="Avenir-Book" font-size="36.0" fill="#DCDDE0" transform="matrix(1.00, 0.00, -0.00, -1.00, 430.7, 516.0)">p</text><text xml:space="preserve" font-family="Avenir-Book" font-size="36.0" fill="#DCDDE0" transform="matrix(1.00, 0.00, -0.00, -1.00, 452.7, 516.0)">r</text><text xml:space="preserve" font-family="Avenir-Book" font-size="36.0" fill="#DCDDE0" transform="matrix(1.00, 0.00, -0.00, -1.00, 464.0, 516.0)">o</text><text xml:space="preserve" font-family="Avenir-Book" font-size="36.0" fill="#DCDDE0" transform="matrix(1.00, 0.00, -0.00, -1.00, 485.3, 516.0)">a</text><text xml:space="preserve" font-family="Avenir-Book" font-size="36.0" fill="#DCDDE0" transform="matrix(1.00, 0.00, -0.00, -1.00, 504.0, 516.0)">c</text><text xml:space="preserve" font-family="Avenir-Book" font-size="36.0" fill="#DCDDE0" transform="matrix(1.00, 0.00, -0.00, -1.00, 521.3, 516.0)">h</text></g></g></g></svg>