<?xml version="1.0" encoding="UTF-8" standalone="no"?><svg xmlns="http://www.w3.org/2000/svg" xmlns:xlink="http://www.w3.org/1999/xlink" clip-rule="evenodd" stroke-miterlimit="4.00" viewBox="0 0 261 21"><desc>SVG generated by Keynote</desc><defs></defs><g transform="matrix(1.00, 0.00, -0.00, -1.00, 0.0, 21.0)"><text xml:space="preserve" font-family="Monaco" font-size="16.0" fill="#FEFFFE" transform="matrix(1.00, 0.00, -0.00, -1.00, 1.0, 6.0)">f</text><text xml:space="preserve" font-family="Monaco" font-size="16.0" fill="#FEFFFE" transform="matrix(1.00, 0.00, -0.00, -1.00, 10.6, 6.0)">u</text><text xml:space="preserve" font-family="Monaco" font-size="16.0" fill="#FEFFFE" transform="matrix(1.00, 0.00, -0.00, -1.00, 20.2, 6.0)">n</text><text xml:space="preserve" font-family="Monaco" font-size="16.0" fill="#FEFFFE" transform="matrix(1.00, 0.00, -0.00, -1.00, 29.8, 6.0)">c</text><text xml:space="preserve" font-family="Monaco" font-size="16.0" fill="#FEFFFE" transform="matrix(1.00, 0.00, -0.00, -1.00, 39.4, 6.0)">t</text><text xml:space="preserve" font-family="Monaco" font-size="16.0" fill="#FEFFFE" transform="matrix(1.00, 0.00, -0.00, -1.00, 49.0, 6.0)">i</text><text xml:space="preserve" font-family="Monaco" font-size="16.0" fill="#FEFFFE" transform="matrix(1.00, 0.00, -0.00, -1.00, 58.6, 6.0)">o</text><text xml:space="preserve" font-family="Monaco" font-size="16.0" fill="#FEFFFE" transform="matrix(1.00, 0.00, -0.00, -1.00, 68.2, 6.0)">n</text><text xml:space="preserve" font-family="Monaco" font-size="16.0" fill="#FEFFFE" transform="matrix(1.00, 0.00, -0.00, -1.00, 77.8, 6.0)"> </text><text xml:space="preserve" font-family="Monaco" font-size="16.0" fill="#FEFFFE" transform="matrix(1.00, 0.00, -0.00, -1.00, 87.4, 6.0)">p</text><text xml:space="preserve" font-family="Monaco" font-size="16.0" fill="#FEFFFE" transform="matrix(1.00, 0.00, -0.00, -1.00, 97.0, 6.0)">r</text><text xml:space="preserve" font-family="Monaco" font-size="16.0" fill="#FEFFFE" transform="matrix(1.00, 0.00, -0.00, -1.00, 106.6, 6.0)">o</text><text xml:space="preserve" font-family="Monaco" font-size="16.0" fill="#FEFFFE" transform="matrix(1.00, 0.00, -0.00, -1.00, 116.2, 6.0)">c</text><text xml:space="preserve" font-family="Monaco" font-size="16.0" fill="#FEFFFE" transform="matrix(1.00, 0.00, -0.00, -1.00, 125.8, 6.0)">e</text><text xml:space="preserve" font-family="Monaco" font-size="16.0" fill="#FEFFFE" transform="matrix(1.00, 0.00, -0.00, -1.00, 135.4, 6.0)">s</text><text xml:space="preserve" font-family="Monaco" font-size="16.0" fill="#FEFFFE" transform="matrix(1.00, 0.00, -0.00, -1.00, 145.0, 6.0)">s</text><text xml:space="preserve" font-family="Monaco" font-size="16.0" fill="#FEFFFE" transform="matrix(1.00, 0.00, -0.00, -1.00, 154.7, 6.0)">G</text><text xml:space="preserve" font-family="Monaco" font-size="16.0" fill="#FEFFFE" transform="matrix(1.00, 0.00, -0.00, -1.00, 164.3, 6.0)">M</text><text xml:space="preserve" font-family="Monaco" font-size="16.0" fill="#FEFFFE" transform="matrix(1.00, 0.00, -0.00, -1.00, 173.9, 6.0)">N</text><text xml:space="preserve" font-family="Monaco" font-size="16.0" fill="#FEFFFE" transform="matrix(1.00, 0.00, -0.00, -1.00, 183.5, 6.0)">C</text><text xml:space="preserve" font-family="Monaco" font-size="16.0" fill="#FEFFFE" transform="matrix(1.00, 0.00, -0.00, -1.00, 193.1, 6.0)">o</text><text xml:space="preserve" font-family="Monaco" font-size="16.0" fill="#FEFFFE" transform="matrix(1.00, 0.00, -0.00, -1.00, 202.7, 6.0)">d</text><text xml:space="preserve" font-family="Monaco" font-size="16.0" fill="#FEFFFE" transform="matrix(1.00, 0.00, -0.00, -1.00, 212.3, 6.0)">e</text><text xml:space="preserve" font-family="Monaco" font-size="16.0" fill="#FEFFFE" transform="matrix(1.00, 0.00, -0.00, -1.00, 221.9, 6.0)">(</text><text xml:space="preserve" font-family="Monaco" font-size="16.0" fill="#FEFFFE" transform="matrix(1.00, 0.00, -0.00, -1.00, 231.5, 6.0)">)</text><text xml:space="preserve" font-family="Monaco" font-size="16.0" fill="#FEFFFE" transform="matrix(1.00, 0.00, -0.00, -1.00, 241.1, 6.0)"> </text><text xml:space="preserve" font-family="Monaco" font-size="16.0" fill="#FEFFFE" transform="matrix(1.00, 0.00, -0.00, -1.00, 250.7, 6.0)">{</text></g></svg>