<?xml version="1.0" encoding="UTF-8" standalone="no"?><svg xmlns="http://www.w3.org/2000/svg" xmlns:xlink="http://www.w3.org/1999/xlink" clip-rule="evenodd" stroke-miterlimit="4.00" viewBox="0 0 244 32"><desc>SVG generated by Keynote</desc><defs></defs><g transform="matrix(1.00, 0.00, -0.00, -1.00, 0.0, 32.0)"><text xml:space="preserve" font-family="AvenirNext-DemiBold" font-weight="bold" font-size="29.0" fill="#DCDDE0" transform="matrix(1.00, 0.00, -0.00, -1.00, 2.0, 10.0)">A</text><text xml:space="preserve" font-family="AvenirNext-DemiBold" font-weight="bold" font-size="29.0" fill="#DCDDE0" transform="matrix(1.00, 0.00, -0.00, -1.00, 22.5, 10.0)">R</text><text xml:space="preserve" font-family="AvenirNext-DemiBold" font-weight="bold" font-size="29.0" fill="#DCDDE0" transform="matrix(1.00, 0.00, -0.00, -1.00, 40.7, 10.0)"> </text><text xml:space="preserve" font-family="AvenirNext-DemiBold" font-weight="bold" font-size="29.0" fill="#DCDDE0" transform="matrix(1.00, 0.00, -0.00, -1.00, 48.0, 10.0)">r</text><text xml:space="preserve" font-family="AvenirNext-DemiBold" font-weight="bold" font-size="29.0" fill="#DCDDE0" transform="matrix(1.00, 0.00, -0.00, -1.00, 58.0, 10.0)">e</text><text xml:space="preserve" font-family="AvenirNext-DemiBold" font-weight="bold" font-size="29.0" fill="#DCDDE0" transform="matrix(1.00, 0.00, -0.00, -1.00, 74.6, 10.0)">p</text><text xml:space="preserve" font-family="AvenirNext-DemiBold" font-weight="bold" font-size="29.0" fill="#DCDDE0" transform="matrix(1.00, 0.00, -0.00, -1.00, 93.0, 10.0)">r</text><text xml:space="preserve" font-family="AvenirNext-DemiBold" font-weight="bold" font-size="29.0" fill="#DCDDE0" transform="matrix(1.00, 0.00, -0.00, -1.00, 103.0, 10.0)">e</text><text xml:space="preserve" font-family="AvenirNext-DemiBold" font-weight="bold" font-size="29.0" fill="#DCDDE0" transform="matrix(1.00, 0.00, -0.00, -1.00, 119.7, 10.0)">s</text><text xml:space="preserve" font-family="AvenirNext-DemiBold" font-weight="bold" font-size="29.0" fill="#DCDDE0" transform="matrix(1.00, 0.00, -0.00, -1.00, 132.6, 10.0)">e</text><text xml:space="preserve" font-family="AvenirNext-DemiBold" font-weight="bold" font-size="29.0" fill="#DCDDE0" transform="matrix(1.00, 0.00, -0.00, -1.00, 149.2, 10.0)">n</text><text xml:space="preserve" font-family="AvenirNext-DemiBold" font-weight="bold" font-size="29.0" fill="#DCDDE0" transform="matrix(1.00, 0.00, -0.00, -1.00, 166.1, 10.0)">t</text><text xml:space="preserve" font-family="AvenirNext-DemiBold" font-weight="bold" font-size="29.0" fill="#DCDDE0" transform="matrix(1.00, 0.00, -0.00, -1.00, 175.9, 10.0)">a</text><text xml:space="preserve" font-family="AvenirNext-DemiBold" font-weight="bold" font-size="29.0" fill="#DCDDE0" transform="matrix(1.00, 0.00, -0.00, -1.00, 191.6, 10.0)">t</text><text xml:space="preserve" font-family="AvenirNext-DemiBold" font-weight="bold" font-size="29.0" fill="#DCDDE0" transform="matrix(1.00, 0.00, -0.00, -1.00, 201.5, 10.0)">i</text><text xml:space="preserve" font-family="AvenirNext-DemiBold" font-weight="bold" font-size="29.0" fill="#DCDDE0" transform="matrix(1.00, 0.00, -0.00, -1.00, 209.2, 10.0)">o</text><text xml:space="preserve" font-family="AvenirNext-DemiBold" font-weight="bold" font-size="29.0" fill="#DCDDE0" transform="matrix(1.00, 0.00, -0.00, -1.00, 226.9, 10.0)">n</text></g></svg>