<?xml version="1.0" encoding="UTF-8" standalone="no"?><svg xmlns="http://www.w3.org/2000/svg" xmlns:xlink="http://www.w3.org/1999/xlink" clip-rule="evenodd" stroke-miterlimit="4.00" viewBox="0 0 269 21"><desc>SVG generated by Keynote</desc><defs></defs><g transform="matrix(1.00, 0.00, -0.00, -1.00, 0.0, 21.0)"><text xml:space="preserve" font-family="Monaco" font-size="16.0" fill="#F5D327" transform="matrix(1.00, 0.00, -0.00, -1.00, 2.0, 6.0)">v</text><text xml:space="preserve" font-family="Monaco" font-size="16.0" fill="#F5D327" transform="matrix(1.00, 0.00, -0.00, -1.00, 11.6, 6.0)">a</text><text xml:space="preserve" font-family="Monaco" font-size="16.0" fill="#F5D327" transform="matrix(1.00, 0.00, -0.00, -1.00, 21.2, 6.0)">r</text><text xml:space="preserve" font-family="Monaco" font-size="16.0" fill="#F5D327" transform="matrix(1.00, 0.00, -0.00, -1.00, 30.8, 6.0)"> </text><text xml:space="preserve" font-family="Monaco" font-size="16.0" fill="#F5D327" transform="matrix(1.00, 0.00, -0.00, -1.00, 40.4, 6.0)">c</text><text xml:space="preserve" font-family="Monaco" font-size="16.0" fill="#F5D327" transform="matrix(1.00, 0.00, -0.00, -1.00, 50.0, 6.0)">o</text><text xml:space="preserve" font-family="Monaco" font-size="16.0" fill="#F5D327" transform="matrix(1.00, 0.00, -0.00, -1.00, 59.6, 6.0)">n</text><text xml:space="preserve" font-family="Monaco" font-size="16.0" fill="#F5D327" transform="matrix(1.00, 0.00, -0.00, -1.00, 69.2, 6.0)">t</text><text xml:space="preserve" font-family="Monaco" font-size="16.0" fill="#F5D327" transform="matrix(1.00, 0.00, -0.00, -1.00, 78.8, 6.0)">e</text><text xml:space="preserve" font-family="Monaco" font-size="16.0" fill="#F5D327" transform="matrix(1.00, 0.00, -0.00, -1.00, 88.4, 6.0)">n</text><text xml:space="preserve" font-family="Monaco" font-size="16.0" fill="#F5D327" transform="matrix(1.00, 0.00, -0.00, -1.00, 98.0, 6.0)">t</text><text xml:space="preserve" font-family="Monaco" font-size="16.0" fill="#F5D327" transform="matrix(1.00, 0.00, -0.00, -1.00, 107.6, 6.0)"> </text><text xml:space="preserve" font-family="Monaco" font-size="16.0" fill="#F5D327" transform="matrix(1.00, 0.00, -0.00, -1.00, 117.2, 6.0)">=</text><text xml:space="preserve" font-family="Monaco" font-size="16.0" fill="#F5D327" transform="matrix(1.00, 0.00, -0.00, -1.00, 126.8, 6.0)"> </text><text xml:space="preserve" font-family="Monaco" font-size="16.0" fill="#F5D327" transform="matrix(1.00, 0.00, -0.00, -1.00, 136.4, 6.0)">d</text><text xml:space="preserve" font-family="Monaco" font-size="16.0" fill="#F5D327" transform="matrix(1.00, 0.00, -0.00, -1.00, 146.0, 6.0)">i</text><text xml:space="preserve" font-family="Monaco" font-size="16.0" fill="#F5D327" transform="matrix(1.00, 0.00, -0.00, -1.00, 155.7, 6.0)">v</text><text xml:space="preserve" font-family="Monaco" font-size="16.0" fill="#F5D327" transform="matrix(1.00, 0.00, -0.00, -1.00, 165.3, 6.0)">.</text><text xml:space="preserve" font-family="Monaco" font-size="16.0" fill="#F5D327" transform="matrix(1.00, 0.00, -0.00, -1.00, 174.9, 6.0)">i</text><text xml:space="preserve" font-family="Monaco" font-size="16.0" fill="#F5D327" transform="matrix(1.00, 0.00, -0.00, -1.00, 184.5, 6.0)">n</text><text xml:space="preserve" font-family="Monaco" font-size="16.0" fill="#F5D327" transform="matrix(1.00, 0.00, -0.00, -1.00, 194.1, 6.0)">n</text><text xml:space="preserve" font-family="Monaco" font-size="16.0" fill="#F5D327" transform="matrix(1.00, 0.00, -0.00, -1.00, 203.7, 6.0)">e</text><text xml:space="preserve" font-family="Monaco" font-size="16.0" fill="#F5D327" transform="matrix(1.00, 0.00, -0.00, -1.00, 213.3, 6.0)">r</text><text xml:space="preserve" font-family="Monaco" font-size="16.0" fill="#F5D327" transform="matrix(1.00, 0.00, -0.00, -1.00, 222.9, 6.0)">H</text><text xml:space="preserve" font-family="Monaco" font-size="16.0" fill="#F5D327" transform="matrix(1.00, 0.00, -0.00, -1.00, 232.5, 6.0)">T</text><text xml:space="preserve" font-family="Monaco" font-size="16.0" fill="#F5D327" transform="matrix(1.00, 0.00, -0.00, -1.00, 242.1, 6.0)">M</text><text xml:space="preserve" font-family="Monaco" font-size="16.0" fill="#F5D327" transform="matrix(1.00, 0.00, -0.00, -1.00, 251.7, 6.0)">L</text><text xml:space="preserve" font-family="Monaco" font-size="16.0" fill="#F5D327" transform="matrix(1.00, 0.00, -0.00, -1.00, 261.3, 6.0)">;</text></g></svg>