<?xml version="1.0" encoding="UTF-8" standalone="no"?><svg xmlns="http://www.w3.org/2000/svg" xmlns:xlink="http://www.w3.org/1999/xlink" clip-rule="evenodd" stroke-miterlimit="4.00" viewBox="0 0 594 21"><desc>SVG generated by Keynote</desc><defs></defs><g transform="matrix(1.00, 0.00, -0.00, -1.00, 0.0, 21.0)"><text xml:space="preserve" font-family="Monaco" font-size="16.0" fill="#F5D327" transform="matrix(1.00, 0.00, -0.00, -1.00, 1.0, 6.0)">c</text><text xml:space="preserve" font-family="Monaco" font-size="16.0" fill="#F5D327" transform="matrix(1.00, 0.00, -0.00, -1.00, 10.6, 6.0)">o</text><text xml:space="preserve" font-family="Monaco" font-size="16.0" fill="#F5D327" transform="matrix(1.00, 0.00, -0.00, -1.00, 20.2, 6.0)">n</text><text xml:space="preserve" font-family="Monaco" font-size="16.0" fill="#F5D327" transform="matrix(1.00, 0.00, -0.00, -1.00, 29.8, 6.0)">t</text><text xml:space="preserve" font-family="Monaco" font-size="16.0" fill="#F5D327" transform="matrix(1.00, 0.00, -0.00, -1.00, 39.4, 6.0)">e</text><text xml:space="preserve" font-family="Monaco" font-size="16.0" fill="#F5D327" transform="matrix(1.00, 0.00, -0.00, -1.00, 49.0, 6.0)">n</text><text xml:space="preserve" font-family="Monaco" font-size="16.0" fill="#F5D327" transform="matrix(1.00, 0.00, -0.00, -1.00, 58.6, 6.0)">t</text><text xml:space="preserve" font-family="Monaco" font-size="16.0" fill="#F5D327" transform="matrix(1.00, 0.00, -0.00, -1.00, 68.2, 6.0)"> </text><text xml:space="preserve" font-family="Monaco" font-size="16.0" fill="#F5D327" transform="matrix(1.00, 0.00, -0.00, -1.00, 77.8, 6.0)">=</text><text xml:space="preserve" font-family="Monaco" font-size="16.0" fill="#F5D327" transform="matrix(1.00, 0.00, -0.00, -1.00, 87.4, 6.0)"> </text><text xml:space="preserve" font-family="Monaco" font-size="16.0" fill="#F5D327" transform="matrix(1.00, 0.00, -0.00, -1.00, 97.0, 6.0)">c</text><text xml:space="preserve" font-family="Monaco" font-size="16.0" fill="#F5D327" transform="matrix(1.00, 0.00, -0.00, -1.00, 106.6, 6.0)">o</text><text xml:space="preserve" font-family="Monaco" font-size="16.0" fill="#F5D327" transform="matrix(1.00, 0.00, -0.00, -1.00, 116.2, 6.0)">n</text><text xml:space="preserve" font-family="Monaco" font-size="16.0" fill="#F5D327" transform="matrix(1.00, 0.00, -0.00, -1.00, 125.8, 6.0)">t</text><text xml:space="preserve" font-family="Monaco" font-size="16.0" fill="#F5D327" transform="matrix(1.00, 0.00, -0.00, -1.00, 135.4, 6.0)">e</text><text xml:space="preserve" font-family="Monaco" font-size="16.0" fill="#F5D327" transform="matrix(1.00, 0.00, -0.00, -1.00, 145.0, 6.0)">n</text><text xml:space="preserve" font-family="Monaco" font-size="16.0" fill="#F5D327" transform="matrix(1.00, 0.00, -0.00, -1.00, 154.7, 6.0)">t</text><text xml:space="preserve" font-family="Monaco" font-size="16.0" fill="#F5D327" transform="matrix(1.00, 0.00, -0.00, -1.00, 164.3, 6.0)">.</text><text xml:space="preserve" font-family="Monaco" font-size="16.0" fill="#F5D327" transform="matrix(1.00, 0.00, -0.00, -1.00, 173.9, 6.0)">r</text><text xml:space="preserve" font-family="Monaco" font-size="16.0" fill="#F5D327" transform="matrix(1.00, 0.00, -0.00, -1.00, 183.5, 6.0)">e</text><text xml:space="preserve" font-family="Monaco" font-size="16.0" fill="#F5D327" transform="matrix(1.00, 0.00, -0.00, -1.00, 193.1, 6.0)">p</text><text xml:space="preserve" font-family="Monaco" font-size="16.0" fill="#F5D327" transform="matrix(1.00, 0.00, -0.00, -1.00, 202.7, 6.0)">l</text><text xml:space="preserve" font-family="Monaco" font-size="16.0" fill="#F5D327" transform="matrix(1.00, 0.00, -0.00, -1.00, 212.3, 6.0)">a</text><text xml:space="preserve" font-family="Monaco" font-size="16.0" fill="#F5D327" transform="matrix(1.00, 0.00, -0.00, -1.00, 221.9, 6.0)">c</text><text xml:space="preserve" font-family="Monaco" font-size="16.0" fill="#F5D327" transform="matrix(1.00, 0.00, -0.00, -1.00, 231.5, 6.0)">e</text><text xml:space="preserve" font-family="Monaco" font-size="16.0" fill="#F5D327" transform="matrix(1.00, 0.00, -0.00, -1.00, 241.1, 6.0)">(</text><text xml:space="preserve" font-family="Monaco" font-size="16.0" fill="#F5D327" transform="matrix(1.00, 0.00, -0.00, -1.00, 250.7, 6.0)">/</text><text xml:space="preserve" font-family="Monaco" font-size="16.0" fill="#F5D327" transform="matrix(1.00, 0.00, -0.00, -1.00, 260.3, 6.0)">&amp;</text><text xml:space="preserve" font-family="Monaco" font-size="16.0" fill="#F5D327" transform="matrix(1.00, 0.00, -0.00, -1.00, 269.9, 6.0)">l</text><text xml:space="preserve" font-family="Monaco" font-size="16.0" fill="#F5D327" transform="matrix(1.00, 0.00, -0.00, -1.00, 279.5, 6.0)">t</text><text xml:space="preserve" font-family="Monaco" font-size="16.0" fill="#F5D327" transform="matrix(1.00, 0.00, -0.00, -1.00, 289.1, 6.0)">;</text><text xml:space="preserve" font-family="Monaco" font-size="16.0" fill="#F5D327" transform="matrix(1.00, 0.00, -0.00, -1.00, 298.7, 6.0)">/</text><text xml:space="preserve" font-family="Monaco" font-size="16.0" fill="#F5D327" transform="matrix(1.00, 0.00, -0.00, -1.00, 308.3, 6.0)">g</text><text xml:space="preserve" font-family="Monaco" font-size="16.0" fill="#F5D327" transform="matrix(1.00, 0.00, -0.00, -1.00, 317.9, 6.0)">,</text><text xml:space="preserve" font-family="Monaco" font-size="16.0" fill="#F5D327" transform="matrix(1.00, 0.00, -0.00, -1.00, 327.5, 6.0)"> </text><text xml:space="preserve" font-family="Monaco" font-size="16.0" fill="#F5D327" transform="matrix(1.00, 0.00, -0.00, -1.00, 337.1, 6.0)">"</text><text xml:space="preserve" font-family="Monaco" font-size="16.0" fill="#F5D327" transform="matrix(1.00, 0.00, -0.00, -1.00, 346.7, 6.0)">&lt;</text><text xml:space="preserve" font-family="Monaco" font-size="16.0" fill="#F5D327" transform="matrix(1.00, 0.00, -0.00, -1.00, 356.3, 6.0)">"</text><text xml:space="preserve" font-family="Monaco" font-size="16.0" fill="#F5D327" transform="matrix(1.00, 0.00, -0.00, -1.00, 365.9, 6.0)">)</text><text xml:space="preserve" font-family="Monaco" font-size="16.0" fill="#F5D327" transform="matrix(1.00, 0.00, -0.00, -1.00, 375.5, 6.0)">.</text><text xml:space="preserve" font-family="Monaco" font-size="16.0" fill="#F5D327" transform="matrix(1.00, 0.00, -0.00, -1.00, 385.1, 6.0)">r</text><text xml:space="preserve" font-family="Monaco" font-size="16.0" fill="#F5D327" transform="matrix(1.00, 0.00, -0.00, -1.00, 394.7, 6.0)">e</text><text xml:space="preserve" font-family="Monaco" font-size="16.0" fill="#F5D327" transform="matrix(1.00, 0.00, -0.00, -1.00, 404.3, 6.0)">p</text><text xml:space="preserve" font-family="Monaco" font-size="16.0" fill="#F5D327" transform="matrix(1.00, 0.00, -0.00, -1.00, 413.9, 6.0)">l</text><text xml:space="preserve" font-family="Monaco" font-size="16.0" fill="#F5D327" transform="matrix(1.00, 0.00, -0.00, -1.00, 423.5, 6.0)">a</text><text xml:space="preserve" font-family="Monaco" font-size="16.0" fill="#F5D327" transform="matrix(1.00, 0.00, -0.00, -1.00, 433.1, 6.0)">c</text><text xml:space="preserve" font-family="Monaco" font-size="16.0" fill="#F5D327" transform="matrix(1.00, 0.00, -0.00, -1.00, 442.7, 6.0)">e</text><text xml:space="preserve" font-family="Monaco" font-size="16.0" fill="#F5D327" transform="matrix(1.00, 0.00, -0.00, -1.00, 452.3, 6.0)">(</text><text xml:space="preserve" font-family="Monaco" font-size="16.0" fill="#F5D327" transform="matrix(1.00, 0.00, -0.00, -1.00, 462.0, 6.0)">/</text><text xml:space="preserve" font-family="Monaco" font-size="16.0" fill="#F5D327" transform="matrix(1.00, 0.00, -0.00, -1.00, 471.6, 6.0)">&amp;</text><text xml:space="preserve" font-family="Monaco" font-size="16.0" fill="#F5D327" transform="matrix(1.00, 0.00, -0.00, -1.00, 481.2, 6.0)">g</text><text xml:space="preserve" font-family="Monaco" font-size="16.0" fill="#F5D327" transform="matrix(1.00, 0.00, -0.00, -1.00, 490.8, 6.0)">t</text><text xml:space="preserve" font-family="Monaco" font-size="16.0" fill="#F5D327" transform="matrix(1.00, 0.00, -0.00, -1.00, 500.4, 6.0)">;</text><text xml:space="preserve" font-family="Monaco" font-size="16.0" fill="#F5D327" transform="matrix(1.00, 0.00, -0.00, -1.00, 510.0, 6.0)">/</text><text xml:space="preserve" font-family="Monaco" font-size="16.0" fill="#F5D327" transform="matrix(1.00, 0.00, -0.00, -1.00, 519.6, 6.0)">g</text><text xml:space="preserve" font-family="Monaco" font-size="16.0" fill="#F5D327" transform="matrix(1.00, 0.00, -0.00, -1.00, 529.2, 6.0)">,</text><text xml:space="preserve" font-family="Monaco" font-size="16.0" fill="#F5D327" transform="matrix(1.00, 0.00, -0.00, -1.00, 538.8, 6.0)"> </text><text xml:space="preserve" font-family="Monaco" font-size="16.0" fill="#F5D327" transform="matrix(1.00, 0.00, -0.00, -1.00, 548.4, 6.0)">"</text><text xml:space="preserve" font-family="Monaco" font-size="16.0" fill="#F5D327" transform="matrix(1.00, 0.00, -0.00, -1.00, 558.0, 6.0)">&gt;</text><text xml:space="preserve" font-family="Monaco" font-size="16.0" fill="#F5D327" transform="matrix(1.00, 0.00, -0.00, -1.00, 567.6, 6.0)">"</text><text xml:space="preserve" font-family="Monaco" font-size="16.0" fill="#F5D327" transform="matrix(1.00, 0.00, -0.00, -1.00, 577.2, 6.0)">)</text><text xml:space="preserve" font-family="Monaco" font-size="16.0" fill="#F5D327" transform="matrix(1.00, 0.00, -0.00, -1.00, 586.8, 6.0)">;</text></g></svg>