<?xml version="1.0" encoding="UTF-8" standalone="no"?><svg xmlns="http://www.w3.org/2000/svg" xmlns:xlink="http://www.w3.org/1999/xlink" clip-rule="evenodd" stroke-miterlimit="4.00" viewBox="0 0 306 34"><desc>SVG generated by Keynote</desc><defs></defs><g transform="matrix(1.00, 0.00, -0.00, -1.00, 0.0, 34.0)"><text xml:space="preserve" font-family="Avenir-Book" font-size="38.0" fill="#FEFFFF" transform="matrix(1.00, 0.00, -0.00, -1.00, -1.0, 2.0)">D</text><text xml:space="preserve" font-family="Avenir-Book" font-size="38.0" fill="#FEFFFF" transform="matrix(1.00, 0.00, -0.00, -1.00, 27.2, 2.0)">e</text><text xml:space="preserve" font-family="Avenir-Book" font-size="38.0" fill="#FEFFFF" transform="matrix(1.00, 0.00, -0.00, -1.00, 48.3, 2.0)">f</text><text xml:space="preserve" font-family="Avenir-Book" font-size="38.0" fill="#FEFFFF" transform="matrix(1.00, 0.00, -0.00, -1.00, 59.5, 2.0)">a</text><text xml:space="preserve" font-family="Avenir-Book" font-size="38.0" fill="#FEFFFF" transform="matrix(1.00, 0.00, -0.00, -1.00, 79.3, 2.0)">u</text><text xml:space="preserve" font-family="Avenir-Book" font-size="38.0" fill="#FEFFFF" transform="matrix(1.00, 0.00, -0.00, -1.00, 100.4, 2.0)">l</text><text xml:space="preserve" font-family="Avenir-Book" font-size="38.0" fill="#FEFFFF" transform="matrix(1.00, 0.00, -0.00, -1.00, 109.5, 2.0)">t</text><text xml:space="preserve" font-family="Avenir-Book" font-size="38.0" fill="#FEFFFF" transform="matrix(1.00, 0.00, -0.00, -1.00, 122.1, 2.0)"> </text><text xml:space="preserve" font-family="Avenir-Book" font-size="38.0" fill="#FEFFFF" transform="matrix(1.00, 0.00, -0.00, -1.00, 132.7, 2.0)">o</text><text xml:space="preserve" font-family="Avenir-Book" font-size="38.0" fill="#FEFFFF" transform="matrix(1.00, 0.00, -0.00, -1.00, 155.2, 2.0)">c</text><text xml:space="preserve" font-family="Avenir-Book" font-size="38.0" fill="#FEFFFF" transform="matrix(1.00, 0.00, -0.00, -1.00, 173.5, 2.0)">t</text><text xml:space="preserve" font-family="Avenir-Book" font-size="38.0" fill="#FEFFFF" transform="matrix(1.00, 0.00, -0.00, -1.00, 186.1, 2.0)">a</text><text xml:space="preserve" font-family="Avenir-Book" font-size="38.0" fill="#FEFFFF" transform="matrix(1.00, 0.00, -0.00, -1.00, 205.9, 2.0)">v</text><text xml:space="preserve" font-family="Avenir-Book" font-size="38.0" fill="#FEFFFF" transform="matrix(1.00, 0.00, -0.00, -1.00, 224.2, 2.0)">e</text><text xml:space="preserve" font-family="Avenir-Book" font-size="38.0" fill="#FEFFFF" transform="matrix(1.00, 0.00, -0.00, -1.00, 245.3, 2.0)"> </text><text xml:space="preserve" font-family="Avenir-Book" font-size="38.0" fill="#FEFFFF" transform="matrix(1.00, 0.00, -0.00, -1.00, 255.9, 2.0)">i</text><text xml:space="preserve" font-family="Avenir-Book" font-size="38.0" fill="#FEFFFF" transform="matrix(1.00, 0.00, -0.00, -1.00, 265.0, 2.0)">s</text><text xml:space="preserve" font-family="Avenir-Book" font-size="38.0" fill="#FEFFFF" transform="matrix(1.00, 0.00, -0.00, -1.00, 281.2, 2.0)"> </text><text xml:space="preserve" font-family="Avenir-Book" font-size="38.0" fill="#FEFFFF" transform="matrix(1.00, 0.00, -0.00, -1.00, 291.8, 2.0)">1</text></g></svg>