<?xml version="1.0" encoding="UTF-8" standalone="no"?><svg xmlns="http://www.w3.org/2000/svg" xmlns:xlink="http://www.w3.org/1999/xlink" clip-rule="evenodd" stroke-miterlimit="4.00" viewBox="0 0 384 42"><desc>SVG generated by Keynote</desc><defs></defs><g transform="matrix(1.00, 0.00, -0.00, -1.00, 0.0, 42.0)"><text xml:space="preserve" font-family="Avenir-Book" font-size="38.0" fill="#FEFFFF" transform="matrix(1.00, 0.00, -0.00, -1.00, 2.0, 12.0)">A</text><text xml:space="preserve" font-family="Avenir-Book" font-size="38.0" fill="#FEFFFF" transform="matrix(1.00, 0.00, -0.00, -1.00, 28.1, 12.0)"> </text><text xml:space="preserve" font-family="Avenir-Book" font-size="38.0" fill="#FEFFFF" transform="matrix(1.00, 0.00, -0.00, -1.00, 38.6, 12.0)">s</text><text xml:space="preserve" font-family="Avenir-Book" font-size="38.0" fill="#FEFFFF" transform="matrix(1.00, 0.00, -0.00, -1.00, 54.8, 12.0)">i</text><text xml:space="preserve" font-family="Avenir-Book" font-size="38.0" fill="#FEFFFF" transform="matrix(1.00, 0.00, -0.00, -1.00, 63.9, 12.0)">g</text><text xml:space="preserve" font-family="Avenir-Book" font-size="38.0" fill="#FEFFFF" transform="matrix(1.00, 0.00, -0.00, -1.00, 87.2, 12.0)">n</text><text xml:space="preserve" font-family="Avenir-Book" font-size="38.0" fill="#FEFFFF" transform="matrix(1.00, 0.00, -0.00, -1.00, 108.3, 12.0)">e</text><text xml:space="preserve" font-family="Avenir-Book" font-size="38.0" fill="#FEFFFF" transform="matrix(1.00, 0.00, -0.00, -1.00, 129.4, 12.0)">d</text><text xml:space="preserve" font-family="Avenir-Book" font-size="38.0" fill="#FEFFFF" transform="matrix(1.00, 0.00, -0.00, -1.00, 152.6, 12.0)"> </text><text xml:space="preserve" font-family="Avenir-Book" font-size="38.0" fill="#FEFFFF" transform="matrix(1.00, 0.00, -0.00, -1.00, 163.2, 12.0)">i</text><text xml:space="preserve" font-family="Avenir-Book" font-size="38.0" fill="#FEFFFF" transform="matrix(1.00, 0.00, -0.00, -1.00, 172.3, 12.0)">n</text><text xml:space="preserve" font-family="Avenir-Book" font-size="38.0" fill="#FEFFFF" transform="matrix(1.00, 0.00, -0.00, -1.00, 193.4, 12.0)">t</text><text xml:space="preserve" font-family="Avenir-Book" font-size="38.0" fill="#FEFFFF" transform="matrix(1.00, 0.00, -0.00, -1.00, 206.1, 12.0)">e</text><text xml:space="preserve" font-family="Avenir-Book" font-size="38.0" fill="#FEFFFF" transform="matrix(1.00, 0.00, -0.00, -1.00, 227.2, 12.0)">g</text><text xml:space="preserve" font-family="Avenir-Book" font-size="38.0" fill="#FEFFFF" transform="matrix(1.00, 0.00, -0.00, -1.00, 250.4, 12.0)">e</text><text xml:space="preserve" font-family="Avenir-Book" font-size="38.0" fill="#FEFFFF" transform="matrix(1.00, 0.00, -0.00, -1.00, 271.5, 12.0)">r</text><text xml:space="preserve" font-family="Avenir-Book" font-size="38.0" fill="#FEFFFF" transform="matrix(1.00, 0.00, -0.00, -1.00, 284.1, 12.0)"> </text><text xml:space="preserve" font-family="Avenir-Book" font-size="38.0" fill="#FEFFFF" transform="matrix(1.00, 0.00, -0.00, -1.00, 294.7, 12.0)">v</text><text xml:space="preserve" font-family="Avenir-Book" font-size="38.0" fill="#FEFFFF" transform="matrix(1.00, 0.00, -0.00, -1.00, 313.0, 12.0)">a</text><text xml:space="preserve" font-family="Avenir-Book" font-size="38.0" fill="#FEFFFF" transform="matrix(1.00, 0.00, -0.00, -1.00, 332.8, 12.0)">l</text><text xml:space="preserve" font-family="Avenir-Book" font-size="38.0" fill="#FEFFFF" transform="matrix(1.00, 0.00, -0.00, -1.00, 341.9, 12.0)">u</text><text xml:space="preserve" font-family="Avenir-Book" font-size="38.0" fill="#FEFFFF" transform="matrix(1.00, 0.00, -0.00, -1.00, 363.0, 12.0)">e</text></g></svg>