<?xml version="1.0" encoding="UTF-8" standalone="no"?><svg xmlns="http://www.w3.org/2000/svg" xmlns:xlink="http://www.w3.org/1999/xlink" clip-rule="evenodd" stroke-miterlimit="4.00" viewBox="0 0 636 33"><desc>SVG generated by Keynote</desc><defs></defs><g transform="matrix(1.00, 0.00, -0.00, -1.00, 0.0, 33.0)"><text xml:space="preserve" font-family="Courier" font-size="32.0" fill="#F5D327" transform="matrix(1.00, 0.00, -0.00, -1.00, 1.0, 9.0)">c</text><text xml:space="preserve" font-family="Courier" font-size="32.0" fill="#F5D327" transform="matrix(1.00, 0.00, -0.00, -1.00, 20.2, 9.0)"> </text><text xml:space="preserve" font-family="Courier" font-size="32.0" fill="#F5D327" transform="matrix(1.00, 0.00, -0.00, -1.00, 39.4, 9.0)">c</text><text xml:space="preserve" font-family="Courier" font-size="32.0" fill="#F5D327" transform="matrix(1.00, 0.00, -0.00, -1.00, 58.6, 9.0)">i</text><text xml:space="preserve" font-family="Courier" font-size="32.0" fill="#F5D327" transform="matrix(1.00, 0.00, -0.00, -1.00, 77.8, 9.0)">d</text><text xml:space="preserve" font-family="Courier" font-size="32.0" fill="#F5D327" transform="matrix(1.00, 0.00, -0.00, -1.00, 97.0, 9.0)"> </text><text xml:space="preserve" font-family="Courier" font-size="32.0" fill="#F5D327" transform="matrix(1.00, 0.00, -0.00, -1.00, 116.2, 9.0)">d</text><text xml:space="preserve" font-family="Courier" font-size="32.0" fill="#F5D327" transform="matrix(1.00, 0.00, -0.00, -1.00, 135.4, 9.0)"> </text><text xml:space="preserve" font-family="Courier" font-size="32.0" fill="#F5D327" transform="matrix(1.00, 0.00, -0.00, -1.00, 154.7, 9.0)">d</text><text xml:space="preserve" font-family="Courier" font-size="32.0" fill="#F5D327" transform="matrix(1.00, 0.00, -0.00, -1.00, 173.9, 9.0)">i</text><text xml:space="preserve" font-family="Courier" font-size="32.0" fill="#F5D327" transform="matrix(1.00, 0.00, -0.00, -1.00, 193.1, 9.0)">s</text><text xml:space="preserve" font-family="Courier" font-size="32.0" fill="#F5D327" transform="matrix(1.00, 0.00, -0.00, -1.00, 212.3, 9.0)"> </text><text xml:space="preserve" font-family="Courier" font-size="32.0" fill="#F5D327" transform="matrix(1.00, 0.00, -0.00, -1.00, 231.5, 9.0)">e</text><text xml:space="preserve" font-family="Courier" font-size="32.0" fill="#F5D327" transform="matrix(1.00, 0.00, -0.00, -1.00, 250.7, 9.0)"> </text><text xml:space="preserve" font-family="Courier" font-size="32.0" fill="#F5D327" transform="matrix(1.00, 0.00, -0.00, -1.00, 269.9, 9.0)">f</text><text xml:space="preserve" font-family="Courier" font-size="32.0" fill="#F5D327" transform="matrix(1.00, 0.00, -0.00, -1.00, 289.1, 9.0)"> </text><text xml:space="preserve" font-family="Courier" font-size="32.0" fill="#F5D327" transform="matrix(1.00, 0.00, -0.00, -1.00, 308.3, 9.0)">f</text><text xml:space="preserve" font-family="Courier" font-size="32.0" fill="#F5D327" transform="matrix(1.00, 0.00, -0.00, -1.00, 327.5, 9.0)">i</text><text xml:space="preserve" font-family="Courier" font-size="32.0" fill="#F5D327" transform="matrix(1.00, 0.00, -0.00, -1.00, 346.7, 9.0)">s</text><text xml:space="preserve" font-family="Courier" font-size="32.0" fill="#F5D327" transform="matrix(1.00, 0.00, -0.00, -1.00, 365.9, 9.0)"> </text><text xml:space="preserve" font-family="Courier" font-size="32.0" fill="#F5D327" transform="matrix(1.00, 0.00, -0.00, -1.00, 385.1, 9.0)">g</text><text xml:space="preserve" font-family="Courier" font-size="32.0" fill="#F5D327" transform="matrix(1.00, 0.00, -0.00, -1.00, 404.3, 9.0)">i</text><text xml:space="preserve" font-family="Courier" font-size="32.0" fill="#F5D327" transform="matrix(1.00, 0.00, -0.00, -1.00, 423.5, 9.0)">s</text><text xml:space="preserve" font-family="Courier" font-size="32.0" fill="#F5D327" transform="matrix(1.00, 0.00, -0.00, -1.00, 442.7, 9.0)"> </text><text xml:space="preserve" font-family="Courier" font-size="32.0" fill="#F5D327" transform="matrix(1.00, 0.00, -0.00, -1.00, 462.0, 9.0)">a</text><text xml:space="preserve" font-family="Courier" font-size="32.0" fill="#F5D327" transform="matrix(1.00, 0.00, -0.00, -1.00, 481.2, 9.0)"> </text><text xml:space="preserve" font-family="Courier" font-size="32.0" fill="#F5D327" transform="matrix(1.00, 0.00, -0.00, -1.00, 500.4, 9.0)">a</text><text xml:space="preserve" font-family="Courier" font-size="32.0" fill="#F5D327" transform="matrix(1.00, 0.00, -0.00, -1.00, 519.6, 9.0)">i</text><text xml:space="preserve" font-family="Courier" font-size="32.0" fill="#F5D327" transform="matrix(1.00, 0.00, -0.00, -1.00, 538.8, 9.0)">s</text><text xml:space="preserve" font-family="Courier" font-size="32.0" fill="#F5D327" transform="matrix(1.00, 0.00, -0.00, -1.00, 558.0, 9.0)"> </text><text xml:space="preserve" font-family="Courier" font-size="32.0" fill="#F5D327" transform="matrix(1.00, 0.00, -0.00, -1.00, 577.2, 9.0)">b</text><text xml:space="preserve" font-family="Courier" font-size="32.0" fill="#F5D327" transform="matrix(1.00, 0.00, -0.00, -1.00, 596.4, 9.0)">/</text><text xml:space="preserve" font-family="Courier" font-size="32.0" fill="#F5D327" transform="matrix(1.00, 0.00, -0.00, -1.00, 615.6, 9.0)">h</text></g></svg>