<?xml version="1.0" encoding="UTF-8" standalone="no"?><svg xmlns="http://www.w3.org/2000/svg" xmlns:xlink="http://www.w3.org/1999/xlink" clip-rule="evenodd" stroke-miterlimit="4.00" viewBox="0 0 290 33"><desc>SVG generated by Keynote</desc><defs></defs><g transform="matrix(1.00, 0.00, -0.00, -1.00, 0.0, 33.0)"><text xml:space="preserve" font-family="Courier" font-size="32.0" fill="#F5D327" transform="matrix(1.00, 0.00, -0.00, -1.00, 0.0, 8.0)">c</text><text xml:space="preserve" font-family="Courier" font-size="32.0" fill="#F5D327" transform="matrix(1.00, 0.00, -0.00, -1.00, 19.2, 8.0)"> </text><text xml:space="preserve" font-family="Courier" font-size="32.0" fill="#F5D327" transform="matrix(1.00, 0.00, -0.00, -1.00, 38.4, 8.0)">d</text><text xml:space="preserve" font-family="Courier" font-size="32.0" fill="#F5D327" transform="matrix(1.00, 0.00, -0.00, -1.00, 57.6, 8.0)"> </text><text xml:space="preserve" font-family="Courier" font-size="32.0" fill="#F5D327" transform="matrix(1.00, 0.00, -0.00, -1.00, 76.8, 8.0)">e</text><text xml:space="preserve" font-family="Courier" font-size="32.0" fill="#F5D327" transform="matrix(1.00, 0.00, -0.00, -1.00, 96.0, 8.0)"> </text><text xml:space="preserve" font-family="Courier" font-size="32.0" fill="#F5D327" transform="matrix(1.00, 0.00, -0.00, -1.00, 115.2, 8.0)">f</text><text xml:space="preserve" font-family="Courier" font-size="32.0" fill="#F5D327" transform="matrix(1.00, 0.00, -0.00, -1.00, 134.4, 8.0)"> </text><text xml:space="preserve" font-family="Courier" font-size="32.0" fill="#F5D327" transform="matrix(1.00, 0.00, -0.00, -1.00, 153.7, 8.0)">g</text><text xml:space="preserve" font-family="Courier" font-size="32.0" fill="#F5D327" transform="matrix(1.00, 0.00, -0.00, -1.00, 172.9, 8.0)"> </text><text xml:space="preserve" font-family="Courier" font-size="32.0" fill="#F5D327" transform="matrix(1.00, 0.00, -0.00, -1.00, 192.1, 8.0)">a</text><text xml:space="preserve" font-family="Courier" font-size="32.0" fill="#F5D327" transform="matrix(1.00, 0.00, -0.00, -1.00, 211.3, 8.0)"> </text><text xml:space="preserve" font-family="Courier" font-size="32.0" fill="#F5D327" transform="matrix(1.00, 0.00, -0.00, -1.00, 230.5, 8.0)">b</text><text xml:space="preserve" font-family="Courier" font-size="32.0" fill="#F5D327" transform="matrix(1.00, 0.00, -0.00, -1.00, 249.7, 8.0)">/</text><text xml:space="preserve" font-family="Courier" font-size="32.0" fill="#F5D327" transform="matrix(1.00, 0.00, -0.00, -1.00, 268.9, 8.0)">h</text></g></svg>