<?xml version="1.0" encoding="UTF-8" standalone="no"?><svg xmlns="http://www.w3.org/2000/svg" xmlns:xlink="http://www.w3.org/1999/xlink" clip-rule="evenodd" stroke-miterlimit="4.00" viewBox="0 0 168 33"><desc>SVG generated by Keynote</desc><defs></defs><g transform="matrix(1.00, 0.00, -0.00, -1.00, 0.0, 33.0)"><text xml:space="preserve" font-family="Avenir-Book" font-size="38.0" fill="#FEFFFF" transform="matrix(1.00, 0.00, -0.00, -1.00, 1.0, 3.0)">c</text><text xml:space="preserve" font-family="Avenir-Book" font-size="38.0" fill="#FEFFFF" transform="matrix(1.00, 0.00, -0.00, -1.00, 19.3, 3.0)">h</text><text xml:space="preserve" font-family="Avenir-Book" font-size="38.0" fill="#FEFFFF" transform="matrix(1.00, 0.00, -0.00, -1.00, 40.4, 3.0)">r</text><text xml:space="preserve" font-family="Avenir-Book" font-size="38.0" fill="#FEFFFF" transform="matrix(1.00, 0.00, -0.00, -1.00, 52.4, 3.0)">o</text><text xml:space="preserve" font-family="Avenir-Book" font-size="38.0" fill="#FEFFFF" transform="matrix(1.00, 0.00, -0.00, -1.00, 74.9, 3.0)">m</text><text xml:space="preserve" font-family="Avenir-Book" font-size="38.0" fill="#FEFFFF" transform="matrix(1.00, 0.00, -0.00, -1.00, 107.3, 3.0)">a</text><text xml:space="preserve" font-family="Avenir-Book" font-size="38.0" fill="#FEFFFF" transform="matrix(1.00, 0.00, -0.00, -1.00, 127.0, 3.0)">t</text><text xml:space="preserve" font-family="Avenir-Book" font-size="38.0" fill="#FEFFFF" transform="matrix(1.00, 0.00, -0.00, -1.00, 139.6, 3.0)">i</text><text xml:space="preserve" font-family="Avenir-Book" font-size="38.0" fill="#FEFFFF" transform="matrix(1.00, 0.00, -0.00, -1.00, 148.7, 3.0)">c</text></g></svg>