<?xml version="1.0" encoding="UTF-8" standalone="no"?><svg xmlns="http://www.w3.org/2000/svg" xmlns:xlink="http://www.w3.org/1999/xlink" clip-rule="evenodd" stroke-miterlimit="4.00" viewBox="0 0 175 151"><desc>SVG generated by Keynote</desc><defs></defs><g transform="matrix(1.00, 0.00, -0.00, -1.00, 0.0, 151.0)"><image xlink:href="../../B43E4BD7-8382-4E90-B9A4-E6442EB946D5/assets/178CBCB041F17D3AA708D8A36FB7A142.png" width="172.00" height="148.00" transform="matrix(1.00, 0.00, -0.00, -0.99, 1.4, 148.2)"></image><path d="M 42.4 63.3 L 42.4 87.3 C 42.4 91.7 46.0 95.3 50.4 95.3 L 124.4 95.3 C 128.9 95.3 132.4 91.7 132.4 87.3 L 132.4 63.3 C 132.4 58.9 128.9 55.3 124.4 55.3 L 50.4 55.3 C 46.0 55.3 42.4 58.9 42.4 63.3 Z M 42.4 63.3 " fill="#FEFFFE"></path><path d="M 0.0 32.0 L 0.0 8.0 C 0.0 3.6 3.6 0.0 8.0 0.0 L 82.0 0.0 C 86.4 0.0 90.0 3.6 90.0 8.0 L 90.0 32.0 C 90.0 36.4 86.4 40.0 82.0 40.0 L 8.0 40.0 C 3.6 40.0 0.0 36.4 0.0 32.0 Z M 0.0 32.0 " fill="none" stroke="#A8A49C" stroke-width="2.00" transform="matrix(1.00, 0.00, 0.00, -1.00, 42.4, 95.3)"></path></g></svg>