<?xml version="1.0" encoding="UTF-8" standalone="no"?><svg xmlns="http://www.w3.org/2000/svg" xmlns:xlink="http://www.w3.org/1999/xlink" clip-rule="evenodd" stroke-miterlimit="4.00" viewBox="0 0 1024 768"><desc>SVG generated by Keynote</desc><defs></defs><g transform="matrix(1.00, 0.00, -0.00, -1.00, 0.0, 768.0)"><path d="M 0.0 768.0 L 1024.0 768.0 L 1024.0 0.0 L 0.0 0.0 Z M 0.0 768.0 " fill="#000000"></path><text xml:space="preserve" font-family="AvenirNext-DemiBold" font-weight="bold" font-size="53.0" fill="#FEFFFF" transform="matrix(1.00, 0.00, -0.00, -1.00, 74.0, 677.0)">I</text><text xml:space="preserve" font-family="AvenirNext-DemiBold" font-weight="bold" font-size="53.0" fill="#FEFFFF" transform="matrix(1.00, 0.00, -0.00, -1.00, 88.9, 677.0)">N</text><text xml:space="preserve" font-family="AvenirNext-DemiBold" font-weight="bold" font-size="53.0" fill="#FEFFFF" transform="matrix(1.00, 0.00, -0.00, -1.00, 130.3, 677.0)">S</text><text xml:space="preserve" font-family="AvenirNext-DemiBold" font-weight="bold" font-size="53.0" fill="#FEFFFF" transform="matrix(1.00, 0.00, -0.00, -1.00, 160.7, 677.0)">c</text><text xml:space="preserve" font-family="AvenirNext-DemiBold" font-weight="bold" font-size="53.0" fill="#FEFFFF" transform="matrix(1.00, 0.00, -0.00, -1.00, 186.6, 677.0)">o</text><text xml:space="preserve" font-family="AvenirNext-DemiBold" font-weight="bold" font-size="53.0" fill="#FEFFFF" transform="matrix(1.00, 0.00, -0.00, -1.00, 218.9, 677.0)">r</text><text xml:space="preserve" font-family="AvenirNext-DemiBold" font-weight="bold" font-size="53.0" fill="#FEFFFF" transform="matrix(1.00, 0.00, -0.00, -1.00, 237.2, 677.0)">e</text><text xml:space="preserve" font-family="Avenir-Book" font-size="18.0" fill="#D5D5D5" transform="matrix(1.00, 0.00, -0.00, -1.00, 30.0, 28.0)">1</text><text xml:space="preserve" font-family="Avenir-Book" font-size="18.0" fill="#D5D5D5" transform="matrix(1.00, 0.00, -0.00, -1.00, 40.0, 28.0)">1</text><text xml:space="preserve" font-family="Avenir-Book" font-size="27.5" fill="#FEFFFF" transform="matrix(1.00, 0.00, -0.00, -1.00, 74.0, 633.0)">A</text><text xml:space="preserve" font-family="Avenir-Book" font-size="27.5" fill="#FEFFFF" transform="matrix(1.00, 0.00, -0.00, -1.00, 92.9, 633.0)">n</text><text xml:space="preserve" font-family="Avenir-Book" font-size="27.5" fill="#FEFFFF" transform="matrix(1.00, 0.00, -0.00, -1.00, 108.2, 633.0)"> </text><text xml:space="preserve" font-family="Avenir-Book" font-size="27.5" fill="#FEFFFF" transform="matrix(1.00, 0.00, -0.00, -1.00, 115.8, 633.0)">e</text><text xml:space="preserve" font-family="Avenir-Book" font-size="27.5" fill="#FEFFFF" transform="matrix(1.00, 0.00, -0.00, -1.00, 131.1, 633.0)">n</text><text xml:space="preserve" font-family="Avenir-Book" font-size="27.5" fill="#FEFFFF" transform="matrix(1.00, 0.00, -0.00, -1.00, 146.4, 633.0)">v</text><text xml:space="preserve" font-family="Avenir-Book" font-size="27.5" fill="#FEFFFF" transform="matrix(1.00, 0.00, -0.00, -1.00, 159.6, 633.0)">i</text><text xml:space="preserve" font-family="Avenir-Book" font-size="27.5" fill="#FEFFFF" transform="matrix(1.00, 0.00, -0.00, -1.00, 166.2, 633.0)">r</text><text xml:space="preserve" font-family="Avenir-Book" font-size="27.5" fill="#FEFFFF" transform="matrix(1.00, 0.00, -0.00, -1.00, 174.9, 633.0)">o</text><text xml:space="preserve" font-family="Avenir-Book" font-size="27.5" fill="#FEFFFF" transform="matrix(1.00, 0.00, -0.00, -1.00, 191.2, 633.0)">n</text><text xml:space="preserve" font-family="Avenir-Book" font-size="27.5" fill="#FEFFFF" transform="matrix(1.00, 0.00, -0.00, -1.00, 206.5, 633.0)">m</text><text xml:space="preserve" font-family="Avenir-Book" font-size="27.5" fill="#FEFFFF" transform="matrix(1.00, 0.00, -0.00, -1.00, 229.9, 633.0)">e</text><text xml:space="preserve" font-family="Avenir-Book" font-size="27.5" fill="#FEFFFF" transform="matrix(1.00, 0.00, -0.00, -1.00, 245.2, 633.0)">n</text><text xml:space="preserve" font-family="Avenir-Book" font-size="27.5" fill="#FEFFFF" transform="matrix(1.00, 0.00, -0.00, -1.00, 260.5, 633.0)">t</text><text xml:space="preserve" font-family="Avenir-Book" font-size="27.5" fill="#FEFFFF" transform="matrix(1.00, 0.00, -0.00, -1.00, 269.6, 633.0)"> </text><text xml:space="preserve" font-family="Avenir-Book" font-size="27.5" fill="#FEFFFF" transform="matrix(1.00, 0.00, -0.00, -1.00, 277.3, 633.0)">f</text><text xml:space="preserve" font-family="Avenir-Book" font-size="27.5" fill="#FEFFFF" transform="matrix(1.00, 0.00, -0.00, -1.00, 285.4, 633.0)">o</text><text xml:space="preserve" font-family="Avenir-Book" font-size="27.5" fill="#FEFFFF" transform="matrix(1.00, 0.00, -0.00, -1.00, 301.7, 633.0)">r</text><text xml:space="preserve" font-family="Avenir-Book" font-size="27.5" fill="#FEFFFF" transform="matrix(1.00, 0.00, -0.00, -1.00, 310.8, 633.0)"> </text><text xml:space="preserve" font-family="Avenir-Book" font-size="27.5" fill="#FEFFFF" transform="matrix(1.00, 0.00, -0.00, -1.00, 318.5, 633.0)">t</text><text xml:space="preserve" font-family="Avenir-Book" font-size="27.5" fill="#FEFFFF" transform="matrix(1.00, 0.00, -0.00, -1.00, 327.6, 633.0)">h</text><text xml:space="preserve" font-family="Avenir-Book" font-size="27.5" fill="#FEFFFF" transform="matrix(1.00, 0.00, -0.00, -1.00, 342.9, 633.0)">e</text><text xml:space="preserve" font-family="Avenir-Book" font-size="27.5" fill="#FEFFFF" transform="matrix(1.00, 0.00, -0.00, -1.00, 358.2, 633.0)"> </text><text xml:space="preserve" font-family="Avenir-Book" font-size="27.5" fill="#FEFFFF" transform="matrix(1.00, 0.00, -0.00, -1.00, 365.8, 633.0)">d</text><text xml:space="preserve" font-family="Avenir-Book" font-size="27.5" fill="#FEFFFF" transform="matrix(1.00, 0.00, -0.00, -1.00, 382.6, 633.0)">e</text><text xml:space="preserve" font-family="Avenir-Book" font-size="27.5" fill="#FEFFFF" transform="matrix(1.00, 0.00, -0.00, -1.00, 397.9, 633.0)">s</text><text xml:space="preserve" font-family="Avenir-Book" font-size="27.5" fill="#FEFFFF" transform="matrix(1.00, 0.00, -0.00, -1.00, 409.6, 633.0)">i</text><text xml:space="preserve" font-family="Avenir-Book" font-size="27.5" fill="#FEFFFF" transform="matrix(1.00, 0.00, -0.00, -1.00, 416.2, 633.0)">g</text><text xml:space="preserve" font-family="Avenir-Book" font-size="27.5" fill="#FEFFFF" transform="matrix(1.00, 0.00, -0.00, -1.00, 433.0, 633.0)">n</text><text xml:space="preserve" font-family="Avenir-Book" font-size="27.5" fill="#FEFFFF" transform="matrix(1.00, 0.00, -0.00, -1.00, 448.3, 633.0)"> </text><text xml:space="preserve" font-family="Avenir-Book" font-size="27.5" fill="#FEFFFF" transform="matrix(1.00, 0.00, -0.00, -1.00, 456.0, 633.0)">o</text><text xml:space="preserve" font-family="Avenir-Book" font-size="27.5" fill="#FEFFFF" transform="matrix(1.00, 0.00, -0.00, -1.00, 472.3, 633.0)">f</text><text xml:space="preserve" font-family="Avenir-Book" font-size="27.5" fill="#FEFFFF" transform="matrix(1.00, 0.00, -0.00, -1.00, 480.4, 633.0)"> </text><text xml:space="preserve" font-family="Avenir-Book" font-size="27.5" fill="#FEFFFF" transform="matrix(1.00, 0.00, -0.00, -1.00, 488.1, 633.0)">i</text><text xml:space="preserve" font-family="Avenir-Book" font-size="27.5" fill="#FEFFFF" transform="matrix(1.00, 0.00, -0.00, -1.00, 494.7, 633.0)">n</text><text xml:space="preserve" font-family="Avenir-Book" font-size="27.5" fill="#FEFFFF" transform="matrix(1.00, 0.00, -0.00, -1.00, 510.0, 633.0)">t</text><text xml:space="preserve" font-family="Avenir-Book" font-size="27.5" fill="#FEFFFF" transform="matrix(1.00, 0.00, -0.00, -1.00, 519.1, 633.0)">e</text><text xml:space="preserve" font-family="Avenir-Book" font-size="27.5" fill="#FEFFFF" transform="matrix(1.00, 0.00, -0.00, -1.00, 534.4, 633.0)">r</text><text xml:space="preserve" font-family="Avenir-Book" font-size="27.5" fill="#FEFFFF" transform="matrix(1.00, 0.00, -0.00, -1.00, 543.5, 633.0)">a</text><text xml:space="preserve" font-family="Avenir-Book" font-size="27.5" fill="#FEFFFF" transform="matrix(1.00, 0.00, -0.00, -1.00, 557.8, 633.0)">c</text><text xml:space="preserve" font-family="Avenir-Book" font-size="27.5" fill="#FEFFFF" transform="matrix(1.00, 0.00, -0.00, -1.00, 571.0, 633.0)">t</text><text xml:space="preserve" font-family="Avenir-Book" font-size="27.5" fill="#FEFFFF" transform="matrix(1.00, 0.00, -0.00, -1.00, 580.2, 633.0)">i</text><text xml:space="preserve" font-family="Avenir-Book" font-size="27.5" fill="#FEFFFF" transform="matrix(1.00, 0.00, -0.00, -1.00, 586.8, 633.0)">v</text><text xml:space="preserve" font-family="Avenir-Book" font-size="27.5" fill="#FEFFFF" transform="matrix(1.00, 0.00, -0.00, -1.00, 600.0, 633.0)">e</text><text xml:space="preserve" font-family="Avenir-Book" font-size="27.5" fill="#FEFFFF" transform="matrix(1.00, 0.00, -0.00, -1.00, 615.3, 633.0)"> </text><text xml:space="preserve" font-family="Avenir-Book" font-size="27.5" fill="#FEFFFF" transform="matrix(1.00, 0.00, -0.00, -1.00, 623.0, 633.0)">a</text><text xml:space="preserve" font-family="Avenir-Book" font-size="27.5" fill="#FEFFFF" transform="matrix(1.00, 0.00, -0.00, -1.00, 637.2, 633.0)">u</text><text xml:space="preserve" font-family="Avenir-Book" font-size="27.5" fill="#FEFFFF" transform="matrix(1.00, 0.00, -0.00, -1.00, 652.5, 633.0)">g</text><text xml:space="preserve" font-family="Avenir-Book" font-size="27.5" fill="#FEFFFF" transform="matrix(1.00, 0.00, -0.00, -1.00, 669.3, 633.0)">m</text><text xml:space="preserve" font-family="Avenir-Book" font-size="27.5" fill="#FEFFFF" transform="matrix(1.00, 0.00, -0.00, -1.00, 692.7, 633.0)">e</text><text xml:space="preserve" font-family="Avenir-Book" font-size="27.5" fill="#FEFFFF" transform="matrix(1.00, 0.00, -0.00, -1.00, 708.0, 633.0)">n</text><text xml:space="preserve" font-family="Avenir-Book" font-size="27.5" fill="#FEFFFF" transform="matrix(1.00, 0.00, -0.00, -1.00, 723.3, 633.0)">t</text><text xml:space="preserve" font-family="Avenir-Book" font-size="27.5" fill="#FEFFFF" transform="matrix(1.00, 0.00, -0.00, -1.00, 732.5, 633.0)">e</text><text xml:space="preserve" font-family="Avenir-Book" font-size="27.5" fill="#FEFFFF" transform="matrix(1.00, 0.00, -0.00, -1.00, 747.7, 633.0)">d</text><text xml:space="preserve" font-family="Avenir-Book" font-size="27.5" fill="#FEFFFF" transform="matrix(1.00, 0.00, -0.00, -1.00, 764.6, 633.0)"> </text><text xml:space="preserve" font-family="Avenir-Book" font-size="27.5" fill="#FEFFFF" transform="matrix(1.00, 0.00, -0.00, -1.00, 772.2, 633.0)">m</text><text xml:space="preserve" font-family="Avenir-Book" font-size="27.5" fill="#FEFFFF" transform="matrix(1.00, 0.00, -0.00, -1.00, 795.6, 633.0)">u</text><text xml:space="preserve" font-family="Avenir-Book" font-size="27.5" fill="#FEFFFF" transform="matrix(1.00, 0.00, -0.00, -1.00, 810.9, 633.0)">s</text><text xml:space="preserve" font-family="Avenir-Book" font-size="27.5" fill="#FEFFFF" transform="matrix(1.00, 0.00, -0.00, -1.00, 822.6, 633.0)">i</text><text xml:space="preserve" font-family="Avenir-Book" font-size="27.5" fill="#FEFFFF" transform="matrix(1.00, 0.00, -0.00, -1.00, 829.2, 633.0)">c</text><text xml:space="preserve" font-family="Avenir-Book" font-size="27.5" fill="#FEFFFF" transform="matrix(1.00, 0.00, -0.00, -1.00, 842.5, 633.0)"> </text><text xml:space="preserve" font-family="Avenir-Book" font-size="27.5" fill="#FEFFFF" transform="matrix(1.00, 0.00, -0.00, -1.00, 850.1, 633.0)">s</text><text xml:space="preserve" font-family="Avenir-Book" font-size="27.5" fill="#FEFFFF" transform="matrix(1.00, 0.00, -0.00, -1.00, 861.8, 633.0)">c</text><text xml:space="preserve" font-family="Avenir-Book" font-size="27.5" fill="#FEFFFF" transform="matrix(1.00, 0.00, -0.00, -1.00, 875.1, 633.0)">o</text><text xml:space="preserve" font-family="Avenir-Book" font-size="27.5" fill="#FEFFFF" transform="matrix(1.00, 0.00, -0.00, -1.00, 891.4, 633.0)">r</text><text xml:space="preserve" font-family="Avenir-Book" font-size="27.5" fill="#FEFFFF" transform="matrix(1.00, 0.00, -0.00, -1.00, 900.0, 633.0)">e</text><text xml:space="preserve" font-family="Avenir-Book" font-size="27.5" fill="#FEFFFF" transform="matrix(1.00, 0.00, -0.00, -1.00, 915.3, 633.0)">s</text><image xlink:href="../../B04F1C97-ECAB-4D96-BED1-068678BAA01E/assets/BEF333F0D2746660C5E29CAA3BCC24B1.png" width="236.00" height="101.00" transform="matrix(1.00, 0.00, -0.00, -1.00, -285.0, 1087.0)"></image><text xml:space="preserve" font-family="Avenir-Heavy" font-weight="bold" font-size="34.0" fill="#DCDDE0" transform="matrix(1.00, 0.00, -0.00, -1.00, 77.0, 574.0)">O</text><text xml:space="preserve" font-family="Avenir-Heavy" font-weight="bold" font-size="34.0" fill="#DCDDE0" transform="matrix(1.00, 0.00, -0.00, -1.00, 105.3, 574.0)">S</text><text xml:space="preserve" font-family="Avenir-Heavy" font-weight="bold" font-size="34.0" fill="#DCDDE0" transform="matrix(1.00, 0.00, -0.00, -1.00, 124.8, 574.0)">C</text><text xml:space="preserve" font-family="Avenir-Heavy" font-weight="bold" font-size="34.0" fill="#DCDDE0" transform="matrix(1.00, 0.00, -0.00, -1.00, 148.1, 574.0)"> </text><text xml:space="preserve" font-family="Avenir-Heavy" font-weight="bold" font-size="34.0" fill="#DCDDE0" transform="matrix(1.00, 0.00, -0.00, -1.00, 158.2, 574.0)">a</text><text xml:space="preserve" font-family="Avenir-Heavy" font-weight="bold" font-size="34.0" fill="#DCDDE0" transform="matrix(1.00, 0.00, -0.00, -1.00, 176.5, 574.0)">d</text><text xml:space="preserve" font-family="Avenir-Heavy" font-weight="bold" font-size="34.0" fill="#DCDDE0" transform="matrix(1.00, 0.00, -0.00, -1.00, 197.9, 574.0)">d</text><text xml:space="preserve" font-family="Avenir-Heavy" font-weight="bold" font-size="34.0" fill="#DCDDE0" transform="matrix(1.00, 0.00, -0.00, -1.00, 219.3, 574.0)">r</text><text xml:space="preserve" font-family="Avenir-Heavy" font-weight="bold" font-size="34.0" fill="#DCDDE0" transform="matrix(1.00, 0.00, -0.00, -1.00, 231.9, 574.0)">e</text><text xml:space="preserve" font-family="Avenir-Heavy" font-weight="bold" font-size="34.0" fill="#DCDDE0" transform="matrix(1.00, 0.00, -0.00, -1.00, 251.4, 574.0)">s</text><text xml:space="preserve" font-family="Avenir-Heavy" font-weight="bold" font-size="34.0" fill="#DCDDE0" transform="matrix(1.00, 0.00, -0.00, -1.00, 266.5, 574.0)">s</text><text xml:space="preserve" font-family="Avenir-Heavy" font-weight="bold" font-size="34.0" fill="#DCDDE0" transform="matrix(1.00, 0.00, -0.00, -1.00, 281.6, 574.0)"> </text><text xml:space="preserve" font-family="Avenir-Heavy" font-weight="bold" font-size="34.0" fill="#DCDDE0" transform="matrix(1.00, 0.00, -0.00, -1.00, 291.7, 574.0)">s</text><text xml:space="preserve" font-family="Avenir-Heavy" font-weight="bold" font-size="34.0" fill="#DCDDE0" transform="matrix(1.00, 0.00, -0.00, -1.00, 306.8, 574.0)">p</text><text xml:space="preserve" font-family="Avenir-Heavy" font-weight="bold" font-size="34.0" fill="#DCDDE0" transform="matrix(1.00, 0.00, -0.00, -1.00, 328.2, 574.0)">a</text><text xml:space="preserve" font-family="Avenir-Heavy" font-weight="bold" font-size="34.0" fill="#DCDDE0" transform="matrix(1.00, 0.00, -0.00, -1.00, 346.4, 574.0)">c</text><text xml:space="preserve" font-family="Avenir-Heavy" font-weight="bold" font-size="34.0" fill="#DCDDE0" transform="matrix(1.00, 0.00, -0.00, -1.00, 362.8, 574.0)">e</text><g><clipPath id="clip-138"><path d="M 273.0 500.0 L 728.0 500.0 L 728.0 582.0 L 273.0 582.0 Z M 273.0 500.0 "></path></clipPath><g clip-path="url(#clip-138)"><image xlink:href="../../D51D7656-423F-4084-A5B7-0BE4A0E5ADDE/assets/A3D205114B302A36EE1BC375BCE3C73D.png" width="118.00" height="54.00" transform="matrix(1.00, 0.00, -0.00, -1.00, 298.5, 564.7)"></image><image xlink:href="../../D51D7656-423F-4084-A5B7-0BE4A0E5ADDE/assets/A3D205114B302A36EE1BC375BCE3C73D.png" width="118.00" height="54.00" transform="matrix(1.00, 0.00, -0.00, -1.00, 436.6, 564.7)"></image><image xlink:href="../../D51D7656-423F-4084-A5B7-0BE4A0E5ADDE/assets/A3D205114B302A36EE1BC375BCE3C73D.png" width="118.00" height="54.00" transform="matrix(1.00, 0.00, -0.00, -1.00, 574.8, 564.7)"></image><path d="M 309.5 525.6 L 405.6 525.6 L 405.6 557.7 L 309.5 557.7 Z M 309.5 525.6 " fill="#FEFFFF"></path><path d="M 104.0 473.0 L 200.0 473.0 L 200.0 505.0 L 104.0 505.0 Z M 104.0 473.0 " fill="none" stroke="#000000" stroke-width="1.00" stroke-miterlimit="0.00" stroke-linecap="round" stroke-linejoin="round" transform="matrix(1.00, 0.00, 0.00, -1.00, 205.4, 1032.0)"></path><text xml:space="preserve" font-family="Helvetica" font-size="12.0" fill="#000000" transform="matrix(1.00, 0.00, -0.00, -1.00, 320.8, 538.5)">O</text><text xml:space="preserve" font-family="Helvetica" font-size="12.0" fill="#000000" transform="matrix(1.00, 0.00, -0.00, -1.00, 330.2, 538.5)">S</text><text xml:space="preserve" font-family="Helvetica" font-size="12.0" fill="#000000" transform="matrix(1.00, 0.00, -0.00, -1.00, 338.2, 538.5)">C</text><text xml:space="preserve" font-family="Helvetica" font-size="12.0" fill="#000000" transform="matrix(1.00, 0.00, -0.00, -1.00, 346.9, 538.5)"> </text><text xml:space="preserve" font-family="Helvetica" font-size="12.0" fill="#000000" transform="matrix(1.00, 0.00, -0.00, -1.00, 350.2, 538.5)">a</text><text xml:space="preserve" font-family="Helvetica" font-size="12.0" fill="#000000" transform="matrix(1.00, 0.00, -0.00, -1.00, 356.9, 538.5)">d</text><text xml:space="preserve" font-family="Helvetica" font-size="12.0" fill="#000000" transform="matrix(1.00, 0.00, -0.00, -1.00, 363.6, 538.5)">d</text><text xml:space="preserve" font-family="Helvetica" font-size="12.0" fill="#000000" transform="matrix(1.00, 0.00, -0.00, -1.00, 370.2, 538.5)">r</text><text xml:space="preserve" font-family="Helvetica" font-size="12.0" fill="#000000" transform="matrix(1.00, 0.00, -0.00, -1.00, 374.2, 538.5)">e</text><text xml:space="preserve" font-family="Helvetica" font-size="12.0" fill="#000000" transform="matrix(1.00, 0.00, -0.00, -1.00, 380.9, 538.5)">s</text><text xml:space="preserve" font-family="Helvetica" font-size="12.0" fill="#000000" transform="matrix(1.00, 0.00, -0.00, -1.00, 386.9, 538.5)">s</text><path d="M 447.7 525.6 L 543.7 525.6 L 543.7 557.7 L 447.7 557.7 Z M 447.7 525.6 " fill="#FEFFFF"></path><path d="M 242.0 473.0 L 338.0 473.0 L 338.0 505.0 L 242.0 505.0 Z M 242.0 473.0 " fill="none" stroke="#B3B3B3" stroke-width="1.00" stroke-miterlimit="0.00" stroke-linecap="round" stroke-linejoin="round" transform="matrix(1.00, 0.00, 0.00, -1.00, 205.4, 1032.0)"></path><text xml:space="preserve" font-family="Helvetica" font-size="12.0" fill="#B3B3B3" transform="matrix(1.00, 0.00, -0.00, -1.00, 454.3, 538.5)">m</text><text xml:space="preserve" font-family="Helvetica" font-size="12.0" fill="#B3B3B3" transform="matrix(1.00, 0.00, -0.00, -1.00, 464.3, 538.5)">e</text><text xml:space="preserve" font-family="Helvetica" font-size="12.0" fill="#B3B3B3" transform="matrix(1.00, 0.00, -0.00, -1.00, 471.0, 538.5)">s</text><text xml:space="preserve" font-family="Helvetica" font-size="12.0" fill="#B3B3B3" transform="matrix(1.00, 0.00, -0.00, -1.00, 477.0, 538.5)">s</text><text xml:space="preserve" font-family="Helvetica" font-size="12.0" fill="#B3B3B3" transform="matrix(1.00, 0.00, -0.00, -1.00, 483.0, 538.5)">a</text><text xml:space="preserve" font-family="Helvetica" font-size="12.0" fill="#B3B3B3" transform="matrix(1.00, 0.00, -0.00, -1.00, 489.7, 538.5)">g</text><text xml:space="preserve" font-family="Helvetica" font-size="12.0" fill="#B3B3B3" transform="matrix(1.00, 0.00, -0.00, -1.00, 496.3, 538.5)">e</text><text xml:space="preserve" font-family="Helvetica" font-size="12.0" fill="#B3B3B3" transform="matrix(1.00, 0.00, -0.00, -1.00, 503.0, 538.5)"> </text><text xml:space="preserve" font-family="Helvetica" font-size="12.0" fill="#B3B3B3" transform="matrix(1.00, 0.00, -0.00, -1.00, 506.4, 538.5)">s</text><text xml:space="preserve" font-family="Helvetica" font-size="12.0" fill="#B3B3B3" transform="matrix(1.00, 0.00, -0.00, -1.00, 512.4, 538.5)">t</text><text xml:space="preserve" font-family="Helvetica" font-size="12.0" fill="#B3B3B3" transform="matrix(1.00, 0.00, -0.00, -1.00, 515.7, 538.5)">r</text><text xml:space="preserve" font-family="Helvetica" font-size="12.0" fill="#B3B3B3" transform="matrix(1.00, 0.00, -0.00, -1.00, 519.7, 538.5)">i</text><text xml:space="preserve" font-family="Helvetica" font-size="12.0" fill="#B3B3B3" transform="matrix(1.00, 0.00, -0.00, -1.00, 522.4, 538.5)">n</text><text xml:space="preserve" font-family="Helvetica" font-size="12.0" fill="#B3B3B3" transform="matrix(1.00, 0.00, -0.00, -1.00, 529.0, 538.5)">g</text><path d="M 585.8 525.6 L 681.9 525.6 L 681.9 557.7 L 585.8 557.7 Z M 585.8 525.6 " fill="#FEFFFF"></path><path d="M 380.0 473.0 L 476.0 473.0 L 476.0 505.0 L 380.0 505.0 Z M 380.0 473.0 " fill="none" stroke="#B3B3B3" stroke-width="1.00" stroke-miterlimit="0.00" stroke-linecap="round" stroke-linejoin="round" transform="matrix(1.00, 0.00, 0.00, -1.00, 205.4, 1032.0)"></path><text xml:space="preserve" font-family="Helvetica" font-size="12.0" fill="#B3B3B3" transform="matrix(1.00, 0.00, -0.00, -1.00, 605.7, 538.5)">p</text><text xml:space="preserve" font-family="Helvetica" font-size="12.0" fill="#B3B3B3" transform="matrix(1.00, 0.00, -0.00, -1.00, 612.4, 538.5)">a</text><text xml:space="preserve" font-family="Helvetica" font-size="12.0" fill="#B3B3B3" transform="matrix(1.00, 0.00, -0.00, -1.00, 619.1, 538.5)">r</text><text xml:space="preserve" font-family="Helvetica" font-size="12.0" fill="#B3B3B3" transform="matrix(1.00, 0.00, -0.00, -1.00, 623.1, 538.5)">a</text><text xml:space="preserve" font-family="Helvetica" font-size="12.0" fill="#B3B3B3" transform="matrix(1.00, 0.00, -0.00, -1.00, 629.8, 538.5)">m</text><text xml:space="preserve" font-family="Helvetica" font-size="12.0" fill="#B3B3B3" transform="matrix(1.00, 0.00, -0.00, -1.00, 639.8, 538.5)">e</text><text xml:space="preserve" font-family="Helvetica" font-size="12.0" fill="#B3B3B3" transform="matrix(1.00, 0.00, -0.00, -1.00, 646.5, 538.5)">t</text><text xml:space="preserve" font-family="Helvetica" font-size="12.0" fill="#B3B3B3" transform="matrix(1.00, 0.00, -0.00, -1.00, 649.8, 538.5)">e</text><text xml:space="preserve" font-family="Helvetica" font-size="12.0" fill="#B3B3B3" transform="matrix(1.00, 0.00, -0.00, -1.00, 656.5, 538.5)">r</text><path d="M 200.0 489.0 L 207.0 489.0 L 235.0 489.0 L 242.0 489.0 " fill="none" stroke="#B3B3B3" stroke-width="1.00" stroke-miterlimit="0.00" transform="matrix(1.00, 0.00, 0.00, -1.00, 205.4, 1032.0)"></path><path d="M 338.0 489.0 L 345.0 489.0 L 373.0 489.0 L 380.0 489.0 " fill="none" stroke="#B3B3B3" stroke-width="1.00" stroke-miterlimit="0.00" transform="matrix(1.00, 0.00, 0.00, -1.00, 205.4, 1032.0)"></path><path d="M 476.0 489.0 L 483.0 489.0 L 518.0 489.0 L 518.0 488.0 " fill="none" stroke="#B3B3B3" stroke-width="1.00" stroke-miterlimit="0.00" transform="matrix(1.00, 0.00, 0.00, -1.00, 205.4, 1032.0)"></path><path d="M 73.0 490.0 L 73.0 489.0 L 97.0 489.0 L 104.0 489.0 " fill="none" stroke="#B3B3B3" stroke-width="1.00" stroke-miterlimit="0.00" transform="matrix(1.00, 0.00, 0.00, -1.00, 205.4, 1032.0)"></path><path d="M 338.0 489.0 C 347.0 491.0 358.0 488.8 365.0 495.0 C 372.0 501.2 361.5 521.0 380.0 526.0 C 398.5 531.0 457.3 530.3 476.0 525.0 C 494.7 519.7 487.0 500.0 492.0 494.0 C 494.6 490.9 497.0 490.1 499.4 489.9 " fill="none" stroke="#B3B3B3" stroke-width="1.00" stroke-miterlimit="0.00" stroke-linecap="round" stroke-linejoin="round" transform="matrix(1.00, 0.00, 0.00, -1.00, 205.4, 1032.0)"></path><path d="M 710.2 541.4 L 701.9 543.4 L 705.3 540.8 L 705.3 540.8 L 702.7 537.4 Z M 710.2 541.4 " fill="#B3B3B3"></path><path d="M 504.4 489.2 L 496.1 487.2 L 499.4 489.9 L 499.4 489.9 L 496.8 493.2 Z M 504.4 489.2 " fill="none" stroke="#B3B3B3" stroke-width="1.00" stroke-miterlimit="0.00" transform="matrix(1.00, 0.00, 0.00, -1.00, 205.4, 1032.0)"></path><path d="M 476.0 489.0 C 480.3 483.7 489.0 478.8 489.0 473.0 C 489.0 467.2 494.2 457.2 476.0 454.0 C 457.8 450.8 398.3 450.8 380.0 454.0 C 361.7 457.2 366.0 467.2 366.0 473.0 C 366.0 477.1 370.6 480.7 374.9 484.3 " fill="none" stroke="#B3B3B3" stroke-width="1.00" stroke-miterlimit="0.00" stroke-linecap="round" stroke-linejoin="round" transform="matrix(1.00, 0.00, 0.00, -1.00, 205.4, 1032.0)"></path><path d="M 584.4 542.9 L 580.5 550.6 L 580.7 546.3 L 580.7 546.3 L 576.5 546.2 Z M 584.4 542.9 " fill="#B3B3B3"></path><path d="M 378.6 487.7 L 374.8 480.1 L 374.9 484.3 L 374.9 484.3 L 370.7 484.5 Z M 378.6 487.7 " fill="none" stroke="#B3B3B3" stroke-width="1.00" stroke-miterlimit="0.00" transform="matrix(1.00, 0.00, 0.00, -1.00, 205.4, 1032.0)"></path></g></g><g><clipPath id="clip-139"><path d="M 51.8 338.9 L 972.8 338.9 L 972.8 400.9 L 51.8 400.9 Z M 51.8 338.9 "></path></clipPath><g clip-path="url(#clip-139)"><path d="M 52.8 399.9 L 971.8 399.9 L 971.8 339.9 L 52.8 339.9 Z M 52.8 399.9 " fill="#7995B9" fill-opacity="0.70"></path></g></g><g><clipPath id="clip-140"><path d="M 785.8 344.7 L 961.2 344.7 L 961.2 397.1 L 785.8 397.1 Z M 785.8 344.7 "></path></clipPath><g clip-path="url(#clip-140)"><text xml:space="preserve" font-family="Palatino-Roman" font-size="28.0" fill="#FEFFFE" transform="matrix(1.00, 0.00, -0.00, -1.00, 794.0, 360.0)">C</text><text xml:space="preserve" font-family="Palatino-Roman" font-size="28.0" fill="#FEFFFE" transform="matrix(1.00, 0.00, -0.00, -1.00, 813.9, 360.0)">o</text><text xml:space="preserve" font-family="Palatino-Roman" font-size="28.0" fill="#FEFFFE" transform="matrix(1.00, 0.00, -0.00, -1.00, 829.1, 360.0)">m</text><text xml:space="preserve" font-family="Palatino-Roman" font-size="28.0" fill="#FEFFFE" transform="matrix(1.00, 0.00, -0.00, -1.00, 853.8, 360.0)">p</text><text xml:space="preserve" font-family="Palatino-Roman" font-size="28.0" fill="#FEFFFE" transform="matrix(1.00, 0.00, -0.00, -1.00, 870.7, 360.0)">o</text><text xml:space="preserve" font-family="Palatino-Roman" font-size="28.0" fill="#FEFFFE" transform="matrix(1.00, 0.00, -0.00, -1.00, 886.0, 360.0)">n</text><text xml:space="preserve" font-family="Palatino-Roman" font-size="28.0" fill="#FEFFFE" transform="matrix(1.00, 0.00, -0.00, -1.00, 902.3, 360.0)">e</text><text xml:space="preserve" font-family="Palatino-Roman" font-size="28.0" fill="#FEFFFE" transform="matrix(1.00, 0.00, -0.00, -1.00, 915.7, 360.0)">n</text><text xml:space="preserve" font-family="Palatino-Roman" font-size="28.0" fill="#FEFFFE" transform="matrix(1.00, 0.00, -0.00, -1.00, 932.0, 360.0)">t</text><text xml:space="preserve" font-family="Palatino-Roman" font-size="28.0" fill="#FEFFFE" transform="matrix(1.00, 0.00, -0.00, -1.00, 941.1, 360.0)">s</text></g></g><path d="M 210.0 322.9 L 550.2 322.9 L 550.2 247.9 L 210.0 247.9 Z M 210.0 322.9 " fill="#7995B9"></path><g><clipPath id="clip-141"><path d="M 51.2 422.9 L 972.2 422.9 L 972.2 484.9 L 51.2 484.9 Z M 51.2 422.9 "></path></clipPath><g clip-path="url(#clip-141)"><path d="M 52.2 483.9 L 971.2 483.9 L 971.2 423.9 L 52.2 423.9 Z M 52.2 483.9 " fill="#7995B9" fill-opacity="0.80"></path></g></g><g><clipPath id="clip-142"><path d="M 785.8 428.7 L 961.2 428.7 L 961.2 481.1 L 785.8 481.1 Z M 785.8 428.7 "></path></clipPath><g clip-path="url(#clip-142)"><text xml:space="preserve" font-family="Palatino-Roman" font-size="28.0" fill="#FEFFFE" transform="matrix(1.00, 0.00, -0.00, -1.00, 794.0, 444.0)">C</text><text xml:space="preserve" font-family="Palatino-Roman" font-size="28.0" fill="#FEFFFE" transform="matrix(1.00, 0.00, -0.00, -1.00, 813.9, 444.0)">o</text><text xml:space="preserve" font-family="Palatino-Roman" font-size="28.0" fill="#FEFFFE" transform="matrix(1.00, 0.00, -0.00, -1.00, 829.1, 444.0)">m</text><text xml:space="preserve" font-family="Palatino-Roman" font-size="28.0" fill="#FEFFFE" transform="matrix(1.00, 0.00, -0.00, -1.00, 853.8, 444.0)">p</text><text xml:space="preserve" font-family="Palatino-Roman" font-size="28.0" fill="#FEFFFE" transform="matrix(1.00, 0.00, -0.00, -1.00, 870.7, 444.0)">o</text><text xml:space="preserve" font-family="Palatino-Roman" font-size="28.0" fill="#FEFFFE" transform="matrix(1.00, 0.00, -0.00, -1.00, 886.0, 444.0)">n</text><text xml:space="preserve" font-family="Palatino-Roman" font-size="28.0" fill="#FEFFFE" transform="matrix(1.00, 0.00, -0.00, -1.00, 902.3, 444.0)">e</text><text xml:space="preserve" font-family="Palatino-Roman" font-size="28.0" fill="#FEFFFE" transform="matrix(1.00, 0.00, -0.00, -1.00, 915.7, 444.0)">n</text><text xml:space="preserve" font-family="Palatino-Roman" font-size="28.0" fill="#FEFFFE" transform="matrix(1.00, 0.00, -0.00, -1.00, 932.0, 444.0)">t</text><text xml:space="preserve" font-family="Palatino-Roman" font-size="28.0" fill="#FEFFFE" transform="matrix(1.00, 0.00, -0.00, -1.00, 941.1, 444.0)">s</text></g></g><g><clipPath id="clip-143"><path d="M 52.4 254.7 L 972.2 254.7 L 972.2 316.7 L 52.4 316.7 Z M 52.4 254.7 "></path></clipPath><g clip-path="url(#clip-143)"><path d="M 53.4 315.7 L 971.2 315.7 L 971.2 255.7 L 53.4 255.7 Z M 53.4 315.7 " fill="#7995B9" fill-opacity="0.60"></path></g></g><g><clipPath id="clip-144"><path d="M 785.8 260.5 L 961.2 260.5 L 961.2 312.9 L 785.8 312.9 Z M 785.8 260.5 "></path></clipPath><g clip-path="url(#clip-144)"><text xml:space="preserve" font-family="Palatino-Roman" font-size="28.0" fill="#FEFFFE" transform="matrix(1.00, 0.00, -0.00, -1.00, 794.0, 276.0)">C</text><text xml:space="preserve" font-family="Palatino-Roman" font-size="28.0" fill="#FEFFFE" transform="matrix(1.00, 0.00, -0.00, -1.00, 813.9, 276.0)">o</text><text xml:space="preserve" font-family="Palatino-Roman" font-size="28.0" fill="#FEFFFE" transform="matrix(1.00, 0.00, -0.00, -1.00, 829.1, 276.0)">m</text><text xml:space="preserve" font-family="Palatino-Roman" font-size="28.0" fill="#FEFFFE" transform="matrix(1.00, 0.00, -0.00, -1.00, 853.8, 276.0)">p</text><text xml:space="preserve" font-family="Palatino-Roman" font-size="28.0" fill="#FEFFFE" transform="matrix(1.00, 0.00, -0.00, -1.00, 870.7, 276.0)">o</text><text xml:space="preserve" font-family="Palatino-Roman" font-size="28.0" fill="#FEFFFE" transform="matrix(1.00, 0.00, -0.00, -1.00, 886.0, 276.0)">n</text><text xml:space="preserve" font-family="Palatino-Roman" font-size="28.0" fill="#FEFFFE" transform="matrix(1.00, 0.00, -0.00, -1.00, 902.3, 276.0)">e</text><text xml:space="preserve" font-family="Palatino-Roman" font-size="28.0" fill="#FEFFFE" transform="matrix(1.00, 0.00, -0.00, -1.00, 915.7, 276.0)">n</text><text xml:space="preserve" font-family="Palatino-Roman" font-size="28.0" fill="#FEFFFE" transform="matrix(1.00, 0.00, -0.00, -1.00, 932.0, 276.0)">t</text><text xml:space="preserve" font-family="Palatino-Roman" font-size="28.0" fill="#FEFFFE" transform="matrix(1.00, 0.00, -0.00, -1.00, 941.1, 276.0)">s</text></g></g><image xlink:href="../../B43E4BD7-8382-4E90-B9A4-E6442EB946D5/assets/178CBCB041F17D3AA708D8A36FB7A142.png" width="172.00" height="148.00" transform="matrix(1.00, 0.00, -0.00, -0.99, 345.6, 527.6)"></image><path d="M 386.6 442.7 L 386.6 466.7 C 386.6 471.1 390.1 474.7 394.6 474.7 L 468.6 474.7 C 473.0 474.7 476.6 471.1 476.6 466.7 L 476.6 442.7 C 476.6 438.3 473.0 434.7 468.6 434.7 L 394.6 434.7 C 390.1 434.7 386.6 438.3 386.6 442.7 Z M 386.6 442.7 " fill="#FEFFFE"></path><path d="M 0.0 32.0 L 0.0 8.0 C 0.0 3.6 3.6 0.0 8.0 0.0 L 82.0 0.0 C 86.4 0.0 90.0 3.6 90.0 8.0 L 90.0 32.0 C 90.0 36.4 86.4 40.0 82.0 40.0 L 8.0 40.0 C 3.6 40.0 0.0 36.4 0.0 32.0 Z M 0.0 32.0 " fill="none" stroke="#A8A49C" stroke-width="2.00" transform="matrix(1.00, 0.00, 0.00, -1.00, 386.6, 474.7)"></path><text xml:space="preserve" font-family="Helvetica" font-size="20.0" fill="#0432FF" transform="matrix(1.00, 0.00, -0.00, -1.00, 402.0, 448.0)">/</text><text xml:space="preserve" font-family="Helvetica" font-size="20.0" fill="#0432FF" transform="matrix(1.00, 0.00, -0.00, -1.00, 407.6, 448.0)">s</text><text xml:space="preserve" font-family="Helvetica" font-size="20.0" fill="#0432FF" transform="matrix(1.00, 0.00, -0.00, -1.00, 417.6, 448.0)">c</text><text xml:space="preserve" font-family="Helvetica" font-size="20.0" fill="#0432FF" transform="matrix(1.00, 0.00, -0.00, -1.00, 427.6, 448.0)">e</text><text xml:space="preserve" font-family="Helvetica" font-size="20.0" fill="#0432FF" transform="matrix(1.00, 0.00, -0.00, -1.00, 438.7, 448.0)">n</text><text xml:space="preserve" font-family="Helvetica" font-size="20.0" fill="#0432FF" transform="matrix(1.00, 0.00, -0.00, -1.00, 449.8, 448.0)">e</text><image xlink:href="../../B43E4BD7-8382-4E90-B9A4-E6442EB946D5/assets/178CBCB041F17D3AA708D8A36FB7A142.png" width="172.00" height="148.00" transform="matrix(1.00, 0.00, -0.00, -0.99, 252.1, 527.4)"></image><path d="M 293.1 442.4 L 293.1 466.4 C 293.1 470.9 296.6 474.4 301.1 474.4 L 375.1 474.4 C 379.5 474.4 383.1 470.9 383.1 466.4 L 383.1 442.4 C 383.1 438.0 379.5 434.4 375.1 434.4 L 301.1 434.4 C 296.6 434.4 293.1 438.0 293.1 442.4 Z M 293.1 442.4 " fill="#FEFFFE"></path><path d="M 0.0 32.0 L 0.0 8.0 C 0.0 3.6 3.6 0.0 8.0 0.0 L 82.0 0.0 C 86.4 0.0 90.0 3.6 90.0 8.0 L 90.0 32.0 C 90.0 36.4 86.4 40.0 82.0 40.0 L 8.0 40.0 C 3.6 40.0 0.0 36.4 0.0 32.0 Z M 0.0 32.0 " fill="none" stroke="#A8A49C" stroke-width="2.00" transform="matrix(1.00, 0.00, 0.00, -1.00, 293.1, 474.4)"></path><text xml:space="preserve" font-family="Helvetica" font-size="20.0" fill="#324763" transform="matrix(1.00, 0.00, -0.00, -1.00, 321.0, 447.0)">/</text><text xml:space="preserve" font-family="Helvetica" font-size="20.0" fill="#324763" transform="matrix(1.00, 0.00, -0.00, -1.00, 326.6, 447.0)">I</text><text xml:space="preserve" font-family="Helvetica" font-size="20.0" fill="#324763" transform="matrix(1.00, 0.00, -0.00, -1.00, 332.1, 447.0)">T</text><text xml:space="preserve" font-family="Helvetica" font-size="20.0" fill="#324763" transform="matrix(1.00, 0.00, -0.00, -1.00, 344.3, 447.0)">L</text><g><clipPath id="clip-145"><path d="M 51.2 170.4 L 970.9 170.4 L 970.9 232.4 L 51.2 232.4 Z M 51.2 170.4 "></path></clipPath><g clip-path="url(#clip-145)"><path d="M 52.2 231.4 L 969.9 231.4 L 969.9 171.4 L 52.2 171.4 Z M 52.2 231.4 " fill="#7995B9" fill-opacity="0.45"></path></g></g><g><clipPath id="clip-146"><path d="M 784.6 176.2 L 959.9 176.2 L 959.9 228.6 L 784.6 228.6 Z M 784.6 176.2 "></path></clipPath><g clip-path="url(#clip-146)"><text xml:space="preserve" font-family="Palatino-Roman" font-size="28.0" fill="#FEFFFE" transform="matrix(1.00, 0.00, -0.00, -1.00, 793.0, 192.0)">C</text><text xml:space="preserve" font-family="Palatino-Roman" font-size="28.0" fill="#FEFFFE" transform="matrix(1.00, 0.00, -0.00, -1.00, 812.9, 192.0)">o</text><text xml:space="preserve" font-family="Palatino-Roman" font-size="28.0" fill="#FEFFFE" transform="matrix(1.00, 0.00, -0.00, -1.00, 828.1, 192.0)">m</text><text xml:space="preserve" font-family="Palatino-Roman" font-size="28.0" fill="#FEFFFE" transform="matrix(1.00, 0.00, -0.00, -1.00, 852.8, 192.0)">p</text><text xml:space="preserve" font-family="Palatino-Roman" font-size="28.0" fill="#FEFFFE" transform="matrix(1.00, 0.00, -0.00, -1.00, 869.7, 192.0)">o</text><text xml:space="preserve" font-family="Palatino-Roman" font-size="28.0" fill="#FEFFFE" transform="matrix(1.00, 0.00, -0.00, -1.00, 885.0, 192.0)">n</text><text xml:space="preserve" font-family="Palatino-Roman" font-size="28.0" fill="#FEFFFE" transform="matrix(1.00, 0.00, -0.00, -1.00, 901.3, 192.0)">e</text><text xml:space="preserve" font-family="Palatino-Roman" font-size="28.0" fill="#FEFFFE" transform="matrix(1.00, 0.00, -0.00, -1.00, 914.7, 192.0)">n</text><text xml:space="preserve" font-family="Palatino-Roman" font-size="28.0" fill="#FEFFFE" transform="matrix(1.00, 0.00, -0.00, -1.00, 931.0, 192.0)">t</text><text xml:space="preserve" font-family="Palatino-Roman" font-size="28.0" fill="#FEFFFE" transform="matrix(1.00, 0.00, -0.00, -1.00, 940.1, 192.0)">s</text></g></g><image xlink:href="../../B43E4BD7-8382-4E90-B9A4-E6442EB946D5/assets/178CBCB041F17D3AA708D8A36FB7A142.png" width="172.00" height="148.00" transform="matrix(1.00, 0.00, -0.00, -0.99, 233.3, 442.6)"></image><path d="M 274.3 357.7 L 274.3 381.7 C 274.3 386.1 277.9 389.7 282.3 389.7 L 356.3 389.7 C 360.8 389.7 364.3 386.1 364.3 381.7 L 364.3 357.7 C 364.3 353.3 360.8 349.7 356.3 349.7 L 282.3 349.7 C 277.9 349.7 274.3 353.3 274.3 357.7 Z M 274.3 357.7 " fill="#FEFFFE"></path><path d="M 0.0 32.0 L 0.0 8.0 C 0.0 3.6 3.6 0.0 8.0 0.0 L 82.0 0.0 C 86.4 0.0 90.0 3.6 90.0 8.0 L 90.0 32.0 C 90.0 36.4 86.4 40.0 82.0 40.0 L 8.0 40.0 C 3.6 40.0 0.0 36.4 0.0 32.0 Z M 0.0 32.0 " fill="none" stroke="#A8A49C" stroke-width="2.00" transform="matrix(1.00, 0.00, 0.00, -1.00, 274.3, 389.7)"></path><text xml:space="preserve" font-family="Helvetica" font-size="20.0" fill="#324763" transform="matrix(1.00, 0.00, -0.00, -1.00, 292.0, 362.0)">/</text><text xml:space="preserve" font-family="Helvetica" font-size="20.0" fill="#324763" transform="matrix(1.00, 0.00, -0.00, -1.00, 297.6, 362.0)">s</text><text xml:space="preserve" font-family="Helvetica" font-size="20.0" fill="#324763" transform="matrix(1.00, 0.00, -0.00, -1.00, 307.6, 362.0)">i</text><text xml:space="preserve" font-family="Helvetica" font-size="20.0" fill="#324763" transform="matrix(1.00, 0.00, -0.00, -1.00, 312.0, 362.0)">g</text><text xml:space="preserve" font-family="Helvetica" font-size="20.0" fill="#324763" transform="matrix(1.00, 0.00, -0.00, -1.00, 323.1, 362.0)">n</text><text xml:space="preserve" font-family="Helvetica" font-size="20.0" fill="#324763" transform="matrix(1.00, 0.00, -0.00, -1.00, 334.3, 362.0)">a</text><text xml:space="preserve" font-family="Helvetica" font-size="20.0" fill="#324763" transform="matrix(1.00, 0.00, -0.00, -1.00, 345.4, 362.0)">l</text><image xlink:href="../../B43E4BD7-8382-4E90-B9A4-E6442EB946D5/assets/178CBCB041F17D3AA708D8A36FB7A142.png" width="172.00" height="148.00" transform="matrix(1.00, 0.00, -0.00, -0.99, 335.1, 442.6)"></image><path d="M 376.1 357.7 L 376.1 381.7 C 376.1 386.1 379.6 389.7 384.1 389.7 L 458.1 389.7 C 462.5 389.7 466.1 386.1 466.1 381.7 L 466.1 357.7 C 466.1 353.3 462.5 349.7 458.1 349.7 L 384.1 349.7 C 379.6 349.7 376.1 353.3 376.1 357.7 Z M 376.1 357.7 " fill="#FEFFFE"></path><path d="M 0.0 32.0 L 0.0 8.0 C 0.0 3.6 3.6 0.0 8.0 0.0 L 82.0 0.0 C 86.4 0.0 90.0 3.6 90.0 8.0 L 90.0 32.0 C 90.0 36.4 86.4 40.0 82.0 40.0 L 8.0 40.0 C 3.6 40.0 0.0 36.4 0.0 32.0 Z M 0.0 32.0 " fill="none" stroke="#A8A49C" stroke-width="2.00" transform="matrix(1.00, 0.00, 0.00, -1.00, 376.1, 389.7)"></path><text xml:space="preserve" font-family="Helvetica" font-size="20.0" fill="#324763" transform="matrix(1.00, 0.00, -0.00, -1.00, 400.0, 362.0)">/</text><text xml:space="preserve" font-family="Helvetica" font-size="20.0" fill="#324763" transform="matrix(1.00, 0.00, -0.00, -1.00, 405.6, 362.0)">s</text><text xml:space="preserve" font-family="Helvetica" font-size="20.0" fill="#324763" transform="matrix(1.00, 0.00, -0.00, -1.00, 415.6, 362.0)">y</text><text xml:space="preserve" font-family="Helvetica" font-size="20.0" fill="#324763" transform="matrix(1.00, 0.00, -0.00, -1.00, 425.6, 362.0)">n</text><text xml:space="preserve" font-family="Helvetica" font-size="20.0" fill="#324763" transform="matrix(1.00, 0.00, -0.00, -1.00, 436.7, 362.0)">c</text><image xlink:href="../../B43E4BD7-8382-4E90-B9A4-E6442EB946D5/assets/178CBCB041F17D3AA708D8A36FB7A142.png" width="172.00" height="148.00" transform="matrix(1.00, 0.00, -0.00, -0.99, 436.8, 442.6)"></image><path d="M 477.8 357.7 L 477.8 381.7 C 477.8 386.1 481.4 389.7 485.8 389.7 L 559.8 389.7 C 564.2 389.7 567.8 386.1 567.8 381.7 L 567.8 357.7 C 567.8 353.3 564.2 349.7 559.8 349.7 L 485.8 349.7 C 481.4 349.7 477.8 353.3 477.8 357.7 Z M 477.8 357.7 " fill="#FEFFFE"></path><path d="M 0.0 32.0 L 0.0 8.0 C 0.0 3.6 3.6 0.0 8.0 0.0 L 82.0 0.0 C 86.4 0.0 90.0 3.6 90.0 8.0 L 90.0 32.0 C 90.0 36.4 86.4 40.0 82.0 40.0 L 8.0 40.0 C 3.6 40.0 0.0 36.4 0.0 32.0 Z M 0.0 32.0 " fill="none" stroke="#A8A49C" stroke-width="2.00" transform="matrix(1.00, 0.00, 0.00, -1.00, 477.8, 389.7)"></path><text xml:space="preserve" font-family="Helvetica" font-size="20.0" fill="#0432FF" transform="matrix(1.00, 0.00, -0.00, -1.00, 494.0, 363.0)">/</text><text xml:space="preserve" font-family="Helvetica" font-size="20.0" fill="#0432FF" transform="matrix(1.00, 0.00, -0.00, -1.00, 499.6, 363.0)">o</text><text xml:space="preserve" font-family="Helvetica" font-size="20.0" fill="#0432FF" transform="matrix(1.00, 0.00, -0.00, -1.00, 510.7, 363.0)">b</text><text xml:space="preserve" font-family="Helvetica" font-size="20.0" fill="#0432FF" transform="matrix(1.00, 0.00, -0.00, -1.00, 521.8, 363.0)">j</text><text xml:space="preserve" font-family="Helvetica" font-size="20.0" fill="#0432FF" transform="matrix(1.00, 0.00, -0.00, -1.00, 526.3, 363.0)">e</text><text xml:space="preserve" font-family="Helvetica" font-size="20.0" fill="#0432FF" transform="matrix(1.00, 0.00, -0.00, -1.00, 537.4, 363.0)">c</text><text xml:space="preserve" font-family="Helvetica" font-size="20.0" fill="#0432FF" transform="matrix(1.00, 0.00, -0.00, -1.00, 547.4, 363.0)">t</text><image xlink:href="../../B43E4BD7-8382-4E90-B9A4-E6442EB946D5/assets/178CBCB041F17D3AA708D8A36FB7A142.png" width="172.00" height="148.00" transform="matrix(1.00, 0.00, -0.00, -0.99, 538.5, 442.6)"></image><path d="M 579.5 357.7 L 579.5 381.7 C 579.5 386.1 583.1 389.7 587.5 389.7 L 661.5 389.7 C 665.9 389.7 669.5 386.1 669.5 381.7 L 669.5 357.7 C 669.5 353.3 665.9 349.7 661.5 349.7 L 587.5 349.7 C 583.1 349.7 579.5 353.3 579.5 357.7 Z M 579.5 357.7 " fill="#FEFFFE"></path><path d="M 0.0 32.0 L 0.0 8.0 C 0.0 3.6 3.6 0.0 8.0 0.0 L 82.0 0.0 C 86.4 0.0 90.0 3.6 90.0 8.0 L 90.0 32.0 C 90.0 36.4 86.4 40.0 82.0 40.0 L 8.0 40.0 C 3.6 40.0 0.0 36.4 0.0 32.0 Z M 0.0 32.0 " fill="none" stroke="#A8A49C" stroke-width="2.00" transform="matrix(1.00, 0.00, 0.00, -1.00, 579.5, 389.7)"></path><text xml:space="preserve" font-family="Helvetica" font-size="20.0" fill="#0432FF" transform="matrix(1.00, 0.00, -0.00, -1.00, 595.0, 363.0)">/</text><text xml:space="preserve" font-family="Helvetica" font-size="20.0" fill="#0432FF" transform="matrix(1.00, 0.00, -0.00, -1.00, 600.6, 363.0)">o</text><text xml:space="preserve" font-family="Helvetica" font-size="20.0" fill="#0432FF" transform="matrix(1.00, 0.00, -0.00, -1.00, 611.7, 363.0)">b</text><text xml:space="preserve" font-family="Helvetica" font-size="20.0" fill="#0432FF" transform="matrix(1.00, 0.00, -0.00, -1.00, 622.8, 363.0)">j</text><text xml:space="preserve" font-family="Helvetica" font-size="20.0" fill="#0432FF" transform="matrix(1.00, 0.00, -0.00, -1.00, 627.3, 363.0)">e</text><text xml:space="preserve" font-family="Helvetica" font-size="20.0" fill="#0432FF" transform="matrix(1.00, 0.00, -0.00, -1.00, 638.4, 363.0)">c</text><text xml:space="preserve" font-family="Helvetica" font-size="20.0" fill="#0432FF" transform="matrix(1.00, 0.00, -0.00, -1.00, 648.4, 363.0)">t</text><image xlink:href="../../B43E4BD7-8382-4E90-B9A4-E6442EB946D5/assets/178CBCB041F17D3AA708D8A36FB7A142.png" width="172.00" height="148.00" transform="matrix(1.00, 0.00, -0.00, -0.99, 640.2, 442.6)"></image><path d="M 681.2 357.7 L 681.2 381.7 C 681.2 386.1 684.8 389.7 689.2 389.7 L 763.2 389.7 C 767.6 389.7 771.2 386.1 771.2 381.7 L 771.2 357.7 C 771.2 353.3 767.6 349.7 763.2 349.7 L 689.2 349.7 C 684.8 349.7 681.2 353.3 681.2 357.7 Z M 681.2 357.7 " fill="#FEFFFE"></path><path d="M 0.0 32.0 L 0.0 8.0 C 0.0 3.6 3.6 0.0 8.0 0.0 L 82.0 0.0 C 86.4 0.0 90.0 3.6 90.0 8.0 L 90.0 32.0 C 90.0 36.4 86.4 40.0 82.0 40.0 L 8.0 40.0 C 3.6 40.0 0.0 36.4 0.0 32.0 Z M 0.0 32.0 " fill="none" stroke="#A8A49C" stroke-width="2.00" transform="matrix(1.00, 0.00, 0.00, -1.00, 681.2, 389.7)"></path><text xml:space="preserve" font-family="Helvetica" font-size="20.0" fill="#0432FF" transform="matrix(1.00, 0.00, -0.00, -1.00, 697.0, 363.0)">/</text><text xml:space="preserve" font-family="Helvetica" font-size="20.0" fill="#0432FF" transform="matrix(1.00, 0.00, -0.00, -1.00, 702.6, 363.0)">o</text><text xml:space="preserve" font-family="Helvetica" font-size="20.0" fill="#0432FF" transform="matrix(1.00, 0.00, -0.00, -1.00, 713.7, 363.0)">b</text><text xml:space="preserve" font-family="Helvetica" font-size="20.0" fill="#0432FF" transform="matrix(1.00, 0.00, -0.00, -1.00, 724.8, 363.0)">j</text><text xml:space="preserve" font-family="Helvetica" font-size="20.0" fill="#0432FF" transform="matrix(1.00, 0.00, -0.00, -1.00, 729.3, 363.0)">e</text><text xml:space="preserve" font-family="Helvetica" font-size="20.0" fill="#0432FF" transform="matrix(1.00, 0.00, -0.00, -1.00, 740.4, 363.0)">c</text><text xml:space="preserve" font-family="Helvetica" font-size="20.0" fill="#0432FF" transform="matrix(1.00, 0.00, -0.00, -1.00, 750.4, 363.0)">t</text><path d="M 156.6 53.4 L 156.2 51.9 C 143.4 21.9 91.4 4.6 0.0 0.0 " fill="none" stroke="#0432FF" stroke-width="3.00" transform="matrix(1.00, 0.00, 0.00, -1.00, 569.6, 453.2)"></path><path d="M 732.5 397.4 C 733.2 394.5 731.5 391.5 728.5 390.7 C 725.6 389.9 722.6 391.7 721.8 394.6 C 721.0 397.5 722.8 400.5 725.7 401.3 C 728.7 402.1 731.7 400.3 732.5 397.4 Z M 732.5 397.4 " fill="#0432FF"></path><path d="M 68.0 46.2 L 68.2 44.7 C 66.8 25.2 44.1 10.3 0.0 0.0 " fill="none" stroke="#0432FF" stroke-width="3.00" transform="matrix(1.00, 0.00, 0.00, -1.00, 569.6, 446.3)"></path><path d="M 642.6 395.5 C 642.2 392.5 639.5 390.3 636.4 390.7 C 633.4 391.0 631.3 393.8 631.6 396.8 C 632.0 399.8 634.7 402.0 637.7 401.6 C 640.8 401.2 642.9 398.5 642.6 395.5 Z M 642.6 395.5 " fill="#0432FF"></path><path d="M 0.1 33.3 L 0.1 31.8 C 0.2 21.2 0.3 10.6 0.4 0.0 " fill="none" stroke="#0432FF" stroke-width="3.00" transform="matrix(1.00, 0.00, 0.00, -1.00, 523.0, 433.4)"></path><path d="M 528.5 396.1 C 528.5 393.1 526.0 390.7 523.0 390.7 C 519.9 390.7 517.5 393.2 517.5 396.2 C 517.5 399.3 520.0 401.7 523.1 401.7 C 526.1 401.7 528.5 399.2 528.5 396.1 Z M 528.5 396.1 " fill="#0432FF"></path><path d="M 3.6 54.6 L 4.2 53.2 C 21.4 21.0 71.9 3.2 155.8 0.0 " fill="none" stroke="#605F5C" stroke-width="3.00" transform="matrix(1.00, 0.00, 0.00, -1.00, 321.7, 454.1)"></path><path d="M 328.9 393.7 C 327.8 390.9 324.5 389.5 321.7 390.7 C 318.9 391.8 317.6 395.1 318.7 397.9 C 319.9 400.7 323.1 402.0 325.9 400.9 C 328.7 399.7 330.1 396.5 328.9 393.7 Z M 328.9 393.7 " fill="#605F5C"></path><path d="M 2.2 51.7 L 2.5 50.2 C 9.9 25.8 26.8 9.1 53.0 0.0 " fill="none" stroke="#605F5C" stroke-width="3.00" transform="matrix(1.00, 0.00, 0.00, -1.00, 424.5, 446.6)"></path><path d="M 431.2 389.8 C 430.5 386.8 427.5 385.0 424.5 385.7 C 421.6 386.4 419.8 389.4 420.5 392.3 C 421.2 395.3 424.1 397.1 427.1 396.4 C 430.0 395.7 431.9 392.7 431.2 389.8 Z M 431.2 389.8 " fill="#605F5C"></path><text xml:space="preserve" font-family="Palatino-Roman" font-size="30.0" fill="#FEFFFE" transform="matrix(1.00, 0.00, -0.00, -1.00, 443.0, 274.0)">S</text><text xml:space="preserve" font-family="Palatino-Roman" font-size="30.0" fill="#FEFFFE" transform="matrix(1.00, 0.00, -0.00, -1.00, 458.7, 274.0)">i</text><text xml:space="preserve" font-family="Palatino-Roman" font-size="30.0" fill="#FEFFFE" transform="matrix(1.00, 0.00, -0.00, -1.00, 467.5, 274.0)">g</text><text xml:space="preserve" font-family="Palatino-Roman" font-size="30.0" fill="#FEFFFE" transform="matrix(1.00, 0.00, -0.00, -1.00, 484.2, 274.0)">n</text><text xml:space="preserve" font-family="Palatino-Roman" font-size="30.0" fill="#FEFFFE" transform="matrix(1.00, 0.00, -0.00, -1.00, 501.6, 274.0)">a</text><text xml:space="preserve" font-family="Palatino-Roman" font-size="30.0" fill="#FEFFFE" transform="matrix(1.00, 0.00, -0.00, -1.00, 516.6, 274.0)">l</text><text xml:space="preserve" font-family="Palatino-Roman" font-size="30.0" fill="#FEFFFE" transform="matrix(1.00, 0.00, -0.00, -1.00, 525.4, 274.0)">s</text><image xlink:href="../../B43E4BD7-8382-4E90-B9A4-E6442EB946D5/assets/178CBCB041F17D3AA708D8A36FB7A142.png" width="172.00" height="148.00" transform="matrix(1.00, 0.00, -0.00, -0.99, 186.6, 358.9)"></image><path d="M 227.6 273.9 L 227.6 297.9 C 227.6 302.4 231.1 305.9 235.6 305.9 L 309.6 305.9 C 314.0 305.9 317.6 302.4 317.6 297.9 L 317.6 273.9 C 317.6 269.5 314.0 265.9 309.6 265.9 L 235.6 265.9 C 231.1 265.9 227.6 269.5 227.6 273.9 Z M 227.6 273.9 " fill="#FEFFFE"></path><path d="M 0.0 32.0 L 0.0 8.0 C 0.0 3.6 3.6 0.0 8.0 0.0 L 82.0 0.0 C 86.4 0.0 90.0 3.6 90.0 8.0 L 90.0 32.0 C 90.0 36.4 86.4 40.0 82.0 40.0 L 8.0 40.0 C 3.6 40.0 0.0 36.4 0.0 32.0 Z M 0.0 32.0 " fill="none" stroke="#A8A49C" stroke-width="2.00" transform="matrix(1.00, 0.00, 0.00, -1.00, 227.6, 305.9)"></path><text xml:space="preserve" font-family="Helvetica" font-size="20.0" fill="#0432FF" transform="matrix(1.00, 0.00, -0.00, -1.00, 257.0, 279.0)">/</text><text xml:space="preserve" font-family="Helvetica" font-size="20.0" fill="#0432FF" transform="matrix(1.00, 0.00, -0.00, -1.00, 262.6, 279.0)">s</text><text xml:space="preserve" font-family="Helvetica" font-size="20.0" fill="#0432FF" transform="matrix(1.00, 0.00, -0.00, -1.00, 272.6, 279.0)">i</text><text xml:space="preserve" font-family="Helvetica" font-size="20.0" fill="#0432FF" transform="matrix(1.00, 0.00, -0.00, -1.00, 277.0, 279.0)">g</text><image xlink:href="../../B43E4BD7-8382-4E90-B9A4-E6442EB946D5/assets/178CBCB041F17D3AA708D8A36FB7A142.png" width="172.00" height="148.00" transform="matrix(1.00, 0.00, -0.00, -0.99, 288.3, 358.9)"></image><path d="M 329.3 273.9 L 329.3 297.9 C 329.3 302.4 332.9 305.9 337.3 305.9 L 411.3 305.9 C 415.7 305.9 419.3 302.4 419.3 297.9 L 419.3 273.9 C 419.3 269.5 415.7 265.9 411.3 265.9 L 337.3 265.9 C 332.9 265.9 329.3 269.5 329.3 273.9 Z M 329.3 273.9 " fill="#FEFFFE"></path><path d="M 0.0 32.0 L 0.0 8.0 C 0.0 3.6 3.6 0.0 8.0 0.0 L 82.0 0.0 C 86.4 0.0 90.0 3.6 90.0 8.0 L 90.0 32.0 C 90.0 36.4 86.4 40.0 82.0 40.0 L 8.0 40.0 C 3.6 40.0 0.0 36.4 0.0 32.0 Z M 0.0 32.0 " fill="none" stroke="#A8A49C" stroke-width="2.00" transform="matrix(1.00, 0.00, 0.00, -1.00, 329.3, 305.9)"></path><text xml:space="preserve" font-family="Helvetica" font-size="20.0" fill="#0432FF" transform="matrix(1.00, 0.00, -0.00, -1.00, 359.0, 279.0)">/</text><text xml:space="preserve" font-family="Helvetica" font-size="20.0" fill="#0432FF" transform="matrix(1.00, 0.00, -0.00, -1.00, 364.6, 279.0)">s</text><text xml:space="preserve" font-family="Helvetica" font-size="20.0" fill="#0432FF" transform="matrix(1.00, 0.00, -0.00, -1.00, 374.6, 279.0)">i</text><text xml:space="preserve" font-family="Helvetica" font-size="20.0" fill="#0432FF" transform="matrix(1.00, 0.00, -0.00, -1.00, 379.0, 279.0)">g</text><path d="M 1.6 32.4 L 1.9 30.9 C 5.2 21.0 12.9 10.7 25.1 0.0 " fill="none" stroke="#0432FF" stroke-width="3.00" transform="matrix(1.00, 0.00, 0.00, -1.00, 265.3, 348.7)"></path><path d="M 271.6 311.4 C 271.1 308.4 268.3 306.4 265.3 306.9 C 262.3 307.5 260.3 310.3 260.8 313.3 C 261.3 316.3 264.2 318.3 267.2 317.8 C 270.1 317.3 272.2 314.4 271.6 311.4 Z M 271.6 311.4 " fill="#0432FF"></path><path d="M 20.9 32.8 L 20.4 31.4 C 15.4 19.7 8.6 9.3 0.0 0.0 " fill="none" stroke="#0432FF" stroke-width="3.00" transform="matrix(1.00, 0.00, 0.00, -1.00, 345.2, 348.7)"></path><path d="M 372.7 314.0 C 373.7 311.2 372.3 308.0 369.4 306.9 C 366.6 305.9 363.4 307.3 362.4 310.2 C 361.3 313.0 362.7 316.2 365.6 317.2 C 368.4 318.3 371.6 316.9 372.7 314.0 Z M 372.7 314.0 " fill="#0432FF"></path><image xlink:href="../../B43E4BD7-8382-4E90-B9A4-E6442EB946D5/assets/178CBCB041F17D3AA708D8A36FB7A142.png" width="172.00" height="148.00" transform="matrix(1.00, 0.00, -0.00, -0.99, 437.6, 527.4)"></image><path d="M 478.6 442.4 L 478.6 466.4 C 478.6 470.9 482.1 474.4 486.6 474.4 L 560.6 474.4 C 565.0 474.4 568.6 470.9 568.6 466.4 L 568.6 442.4 C 568.6 438.0 565.0 434.4 560.6 434.4 L 486.6 434.4 C 482.1 434.4 478.6 438.0 478.6 442.4 Z M 478.6 442.4 " fill="#FEFFFE"></path><path d="M 0.0 32.0 L 0.0 8.0 C 0.0 3.6 3.6 0.0 8.0 0.0 L 82.0 0.0 C 86.4 0.0 90.0 3.6 90.0 8.0 L 90.0 32.0 C 90.0 36.4 86.4 40.0 82.0 40.0 L 8.0 40.0 C 3.6 40.0 0.0 36.4 0.0 32.0 Z M 0.0 32.0 " fill="none" stroke="#A8A49C" stroke-width="2.00" transform="matrix(1.00, 0.00, 0.00, -1.00, 478.6, 474.4)"></path><text xml:space="preserve" font-family="Helvetica" font-size="20.0" fill="#0432FF" transform="matrix(1.00, 0.00, -0.00, -1.00, 494.0, 447.0)">/</text><text xml:space="preserve" font-family="Helvetica" font-size="20.0" fill="#0432FF" transform="matrix(1.00, 0.00, -0.00, -1.00, 499.6, 447.0)">o</text><text xml:space="preserve" font-family="Helvetica" font-size="20.0" fill="#0432FF" transform="matrix(1.00, 0.00, -0.00, -1.00, 510.7, 447.0)">b</text><text xml:space="preserve" font-family="Helvetica" font-size="20.0" fill="#0432FF" transform="matrix(1.00, 0.00, -0.00, -1.00, 521.8, 447.0)">j</text><text xml:space="preserve" font-family="Helvetica" font-size="20.0" fill="#0432FF" transform="matrix(1.00, 0.00, -0.00, -1.00, 526.3, 447.0)">e</text><text xml:space="preserve" font-family="Helvetica" font-size="20.0" fill="#0432FF" transform="matrix(1.00, 0.00, -0.00, -1.00, 537.4, 447.0)">c</text><text xml:space="preserve" font-family="Helvetica" font-size="20.0" fill="#0432FF" transform="matrix(1.00, 0.00, -0.00, -1.00, 547.4, 447.0)">t</text><g opacity="0.30"><g><clipPath id="clip-147"><path d="M 52.0 83.0 L 973.0 83.0 L 973.0 146.0 L 52.0 146.0 Z M 52.0 83.0 "></path></clipPath><g clip-path="url(#clip-147)"><path d="M 53.4 144.3 L 971.2 144.3 L 971.2 84.3 L 53.4 84.3 Z M 53.4 144.3 " fill="#7995B9"></path></g></g></g><text xml:space="preserve" font-family="Palatino-Roman" font-size="28.0" fill="#FEFFFE" transform="matrix(1.00, 0.00, -0.00, -1.00, 794.0, 105.0)">C</text><text xml:space="preserve" font-family="Palatino-Roman" font-size="28.0" fill="#FEFFFE" transform="matrix(1.00, 0.00, -0.00, -1.00, 813.9, 105.0)">o</text><text xml:space="preserve" font-family="Palatino-Roman" font-size="28.0" fill="#FEFFFE" transform="matrix(1.00, 0.00, -0.00, -1.00, 829.1, 105.0)">m</text><text xml:space="preserve" font-family="Palatino-Roman" font-size="28.0" fill="#FEFFFE" transform="matrix(1.00, 0.00, -0.00, -1.00, 853.8, 105.0)">p</text><text xml:space="preserve" font-family="Palatino-Roman" font-size="28.0" fill="#FEFFFE" transform="matrix(1.00, 0.00, -0.00, -1.00, 870.7, 105.0)">o</text><text xml:space="preserve" font-family="Palatino-Roman" font-size="28.0" fill="#FEFFFE" transform="matrix(1.00, 0.00, -0.00, -1.00, 886.0, 105.0)">n</text><text xml:space="preserve" font-family="Palatino-Roman" font-size="28.0" fill="#FEFFFE" transform="matrix(1.00, 0.00, -0.00, -1.00, 902.3, 105.0)">e</text><text xml:space="preserve" font-family="Palatino-Roman" font-size="28.0" fill="#FEFFFE" transform="matrix(1.00, 0.00, -0.00, -1.00, 915.7, 105.0)">n</text><text xml:space="preserve" font-family="Palatino-Roman" font-size="28.0" fill="#FEFFFE" transform="matrix(1.00, 0.00, -0.00, -1.00, 932.0, 105.0)">t</text><text xml:space="preserve" font-family="Palatino-Roman" font-size="28.0" fill="#FEFFFE" transform="matrix(1.00, 0.00, -0.00, -1.00, 941.1, 105.0)">s</text><image xlink:href="../../B43E4BD7-8382-4E90-B9A4-E6442EB946D5/assets/178CBCB041F17D3AA708D8A36FB7A142.png" width="172.00" height="148.00" transform="matrix(1.00, 0.00, -0.00, -0.99, 546.4, 358.9)"></image><path d="M 587.4 273.9 L 587.4 297.9 C 587.4 302.4 591.0 305.9 595.4 305.9 L 669.4 305.9 C 673.9 305.9 677.4 302.4 677.4 297.9 L 677.4 273.9 C 677.4 269.5 673.9 265.9 669.4 265.9 L 595.4 265.9 C 591.0 265.9 587.4 269.5 587.4 273.9 Z M 587.4 273.9 " fill="#FEFFFE"></path><path d="M 0.0 32.0 L 0.0 8.0 C 0.0 3.6 3.6 0.0 8.0 0.0 L 82.0 0.0 C 86.4 0.0 90.0 3.6 90.0 8.0 L 90.0 32.0 C 90.0 36.4 86.4 40.0 82.0 40.0 L 8.0 40.0 C 3.6 40.0 0.0 36.4 0.0 32.0 Z M 0.0 32.0 " fill="none" stroke="#A8A49C" stroke-width="2.00" transform="matrix(1.00, 0.00, 0.00, -1.00, 587.4, 305.9)"></path><text xml:space="preserve" font-family="Helvetica" font-size="20.0" fill="#0432FF" transform="matrix(1.00, 0.00, -0.00, -1.00, 603.0, 279.0)">/</text><text xml:space="preserve" font-family="Helvetica" font-size="20.0" fill="#0432FF" transform="matrix(1.00, 0.00, -0.00, -1.00, 608.6, 279.0)">o</text><text xml:space="preserve" font-family="Helvetica" font-size="20.0" fill="#0432FF" transform="matrix(1.00, 0.00, -0.00, -1.00, 619.7, 279.0)">b</text><text xml:space="preserve" font-family="Helvetica" font-size="20.0" fill="#0432FF" transform="matrix(1.00, 0.00, -0.00, -1.00, 630.8, 279.0)">j</text><text xml:space="preserve" font-family="Helvetica" font-size="20.0" fill="#0432FF" transform="matrix(1.00, 0.00, -0.00, -1.00, 635.3, 279.0)">e</text><text xml:space="preserve" font-family="Helvetica" font-size="20.0" fill="#0432FF" transform="matrix(1.00, 0.00, -0.00, -1.00, 646.4, 279.0)">c</text><text xml:space="preserve" font-family="Helvetica" font-size="20.0" fill="#0432FF" transform="matrix(1.00, 0.00, -0.00, -1.00, 656.4, 279.0)">t</text><image xlink:href="../../B43E4BD7-8382-4E90-B9A4-E6442EB946D5/assets/178CBCB041F17D3AA708D8A36FB7A142.png" width="172.00" height="148.00" transform="matrix(1.00, 0.00, -0.00, -0.99, 546.4, 275.1)"></image><path d="M 587.4 190.2 L 587.4 214.2 C 587.4 218.6 591.0 222.2 595.4 222.2 L 669.4 222.2 C 673.9 222.2 677.4 218.6 677.4 214.2 L 677.4 190.2 C 677.4 185.8 673.9 182.2 669.4 182.2 L 595.4 182.2 C 591.0 182.2 587.4 185.8 587.4 190.2 Z M 587.4 190.2 " fill="#FEFFFE"></path><path d="M 0.0 32.0 L 0.0 8.0 C 0.0 3.6 3.6 0.0 8.0 0.0 L 82.0 0.0 C 86.4 0.0 90.0 3.6 90.0 8.0 L 90.0 32.0 C 90.0 36.4 86.4 40.0 82.0 40.0 L 8.0 40.0 C 3.6 40.0 0.0 36.4 0.0 32.0 Z M 0.0 32.0 " fill="none" stroke="#A8A49C" stroke-width="2.00" transform="matrix(1.00, 0.00, 0.00, -1.00, 587.4, 222.2)"></path><text xml:space="preserve" font-family="Helvetica" font-size="20.0" fill="#0432FF" transform="matrix(1.00, 0.00, -0.00, -1.00, 603.0, 195.0)">/</text><text xml:space="preserve" font-family="Helvetica" font-size="20.0" fill="#0432FF" transform="matrix(1.00, 0.00, -0.00, -1.00, 608.6, 195.0)">o</text><text xml:space="preserve" font-family="Helvetica" font-size="20.0" fill="#0432FF" transform="matrix(1.00, 0.00, -0.00, -1.00, 619.7, 195.0)">b</text><text xml:space="preserve" font-family="Helvetica" font-size="20.0" fill="#0432FF" transform="matrix(1.00, 0.00, -0.00, -1.00, 630.8, 195.0)">j</text><text xml:space="preserve" font-family="Helvetica" font-size="20.0" fill="#0432FF" transform="matrix(1.00, 0.00, -0.00, -1.00, 635.3, 195.0)">e</text><text xml:space="preserve" font-family="Helvetica" font-size="20.0" fill="#0432FF" transform="matrix(1.00, 0.00, -0.00, -1.00, 646.4, 195.0)">c</text><text xml:space="preserve" font-family="Helvetica" font-size="20.0" fill="#0432FF" transform="matrix(1.00, 0.00, -0.00, -1.00, 656.4, 195.0)">t</text><image xlink:href="../../B43E4BD7-8382-4E90-B9A4-E6442EB946D5/assets/178CBCB041F17D3AA708D8A36FB7A142.png" width="172.00" height="148.00" transform="matrix(1.00, 0.00, -0.00, -0.99, 546.4, 187.2)"></image><path d="M 587.4 102.3 L 587.4 126.3 C 587.4 130.7 591.0 134.3 595.4 134.3 L 669.4 134.3 C 673.9 134.3 677.4 130.7 677.4 126.3 L 677.4 102.3 C 677.4 97.9 673.9 94.3 669.4 94.3 L 595.4 94.3 C 591.0 94.3 587.4 97.9 587.4 102.3 Z M 587.4 102.3 " fill="#FEFFFE"></path><path d="M 0.0 32.0 L 0.0 8.0 C 0.0 3.6 3.6 0.0 8.0 0.0 L 82.0 0.0 C 86.4 0.0 90.0 3.6 90.0 8.0 L 90.0 32.0 C 90.0 36.4 86.4 40.0 82.0 40.0 L 8.0 40.0 C 3.6 40.0 0.0 36.4 0.0 32.0 Z M 0.0 32.0 " fill="none" stroke="#A8A49C" stroke-width="2.00" transform="matrix(1.00, 0.00, 0.00, -1.00, 587.4, 134.3)"></path><text xml:space="preserve" font-family="Helvetica" font-size="20.0" fill="#0432FF" transform="matrix(1.00, 0.00, -0.00, -1.00, 603.0, 107.0)">/</text><text xml:space="preserve" font-family="Helvetica" font-size="20.0" fill="#0432FF" transform="matrix(1.00, 0.00, -0.00, -1.00, 608.6, 107.0)">o</text><text xml:space="preserve" font-family="Helvetica" font-size="20.0" fill="#0432FF" transform="matrix(1.00, 0.00, -0.00, -1.00, 619.7, 107.0)">b</text><text xml:space="preserve" font-family="Helvetica" font-size="20.0" fill="#0432FF" transform="matrix(1.00, 0.00, -0.00, -1.00, 630.8, 107.0)">j</text><text xml:space="preserve" font-family="Helvetica" font-size="20.0" fill="#0432FF" transform="matrix(1.00, 0.00, -0.00, -1.00, 635.3, 107.0)">e</text><text xml:space="preserve" font-family="Helvetica" font-size="20.0" fill="#0432FF" transform="matrix(1.00, 0.00, -0.00, -1.00, 646.4, 107.0)">c</text><text xml:space="preserve" font-family="Helvetica" font-size="20.0" fill="#0432FF" transform="matrix(1.00, 0.00, -0.00, -1.00, 656.4, 107.0)">t</text><image xlink:href="../../B43E4BD7-8382-4E90-B9A4-E6442EB946D5/assets/178CBCB041F17D3AA708D8A36FB7A142.png" width="172.00" height="148.00" transform="matrix(1.00, 0.00, -0.00, -0.99, 546.4, 189.7)"></image><path d="M 587.4 104.8 L 587.4 128.8 C 587.4 133.2 591.0 136.8 595.4 136.8 L 669.4 136.8 C 673.9 136.8 677.4 133.2 677.4 128.8 L 677.4 104.8 C 677.4 100.4 673.9 96.8 669.4 96.8 L 595.4 96.8 C 591.0 96.8 587.4 100.4 587.4 104.8 Z M 587.4 104.8 " fill="#FEFFFE"></path><path d="M 0.0 32.0 L 0.0 8.0 C 0.0 3.6 3.6 0.0 8.0 0.0 L 82.0 0.0 C 86.4 0.0 90.0 3.6 90.0 8.0 L 90.0 32.0 C 90.0 36.4 86.4 40.0 82.0 40.0 L 8.0 40.0 C 3.6 40.0 0.0 36.4 0.0 32.0 Z M 0.0 32.0 " fill="none" stroke="#A8A49C" stroke-width="2.00" transform="matrix(1.00, 0.00, 0.00, -1.00, 587.4, 136.8)"></path><text xml:space="preserve" font-family="Helvetica" font-size="20.0" fill="#0432FF" transform="matrix(1.00, 0.00, -0.00, -1.00, 603.0, 110.0)">/</text><text xml:space="preserve" font-family="Helvetica" font-size="20.0" fill="#0432FF" transform="matrix(1.00, 0.00, -0.00, -1.00, 608.6, 110.0)">o</text><text xml:space="preserve" font-family="Helvetica" font-size="20.0" fill="#0432FF" transform="matrix(1.00, 0.00, -0.00, -1.00, 619.7, 110.0)">b</text><text xml:space="preserve" font-family="Helvetica" font-size="20.0" fill="#0432FF" transform="matrix(1.00, 0.00, -0.00, -1.00, 630.8, 110.0)">j</text><text xml:space="preserve" font-family="Helvetica" font-size="20.0" fill="#0432FF" transform="matrix(1.00, 0.00, -0.00, -1.00, 635.3, 110.0)">e</text><text xml:space="preserve" font-family="Helvetica" font-size="20.0" fill="#0432FF" transform="matrix(1.00, 0.00, -0.00, -1.00, 646.4, 110.0)">c</text><text xml:space="preserve" font-family="Helvetica" font-size="20.0" fill="#0432FF" transform="matrix(1.00, 0.00, -0.00, -1.00, 656.4, 110.0)">t</text><path d="M 3.1 32.3 L 2.9 30.8 C 1.9 20.5 1.0 10.3 0.0 0.0 " fill="none" stroke="#0432FF" stroke-width="3.00" transform="matrix(1.00, 0.00, 0.00, -1.00, 626.5, 348.7)"></path><path d="M 635.4 312.9 C 635.7 309.9 633.5 307.2 630.5 306.9 C 627.4 306.6 624.7 308.9 624.5 311.9 C 624.2 314.9 626.4 317.6 629.4 317.9 C 632.4 318.2 635.1 316.0 635.4 312.9 Z M 635.4 312.9 " fill="#0432FF"></path><path d="M 0.0 32.2 L 0.0 30.7 C 0.0 20.5 0.0 10.2 0.0 0.0 " fill="none" stroke="#0432FF" stroke-width="3.00" transform="matrix(1.00, 0.00, 0.00, -1.00, 632.4, 264.9)"></path><path d="M 637.9 228.7 C 637.9 225.6 635.5 223.2 632.4 223.2 C 629.4 223.2 626.9 225.6 626.9 228.7 C 626.9 231.7 629.4 234.2 632.4 234.2 C 635.5 234.2 637.9 231.7 637.9 228.7 Z M 637.9 228.7 " fill="#0432FF"></path><path d="M 0.0 33.9 L 0.0 32.4 C 0.0 21.6 0.0 10.8 0.0 0.0 " fill="none" stroke="#0432FF" stroke-width="3.00" transform="matrix(1.00, 0.00, 0.00, -1.00, 632.4, 181.2)"></path><path d="M 637.9 143.3 C 637.9 140.3 635.5 137.8 632.4 137.8 C 629.4 137.8 626.9 140.3 626.9 143.3 C 626.9 146.3 629.4 148.8 632.4 148.8 C 635.5 148.8 637.9 146.3 637.9 143.3 Z M 637.9 143.3 " fill="#0432FF"></path></g></svg>