<?xml version="1.0" encoding="UTF-8" standalone="no"?><svg xmlns="http://www.w3.org/2000/svg" xmlns:xlink="http://www.w3.org/1999/xlink" clip-rule="evenodd" stroke-miterlimit="4.00" viewBox="0 0 921 63"><desc>SVG generated by Keynote</desc><defs></defs><g transform="matrix(1.00, 0.00, -0.00, -1.00, 0.0, 63.0)"><g><clipPath id="clip-134"><path d="M 0.4 0.7 L 920.2 0.7 L 920.2 62.7 L 0.4 62.7 Z M 0.4 0.7 "></path></clipPath><g clip-path="url(#clip-134)"><path d="M 1.4 61.7 L 919.2 61.7 L 919.2 1.7 L 1.4 1.7 Z M 1.4 61.7 " fill="#7995B9" fill-opacity="0.60"></path></g></g><g><clipPath id="clip-135"><path d="M 733.8 6.5 L 909.2 6.5 L 909.2 58.9 L 733.8 58.9 Z M 733.8 6.5 "></path></clipPath><g clip-path="url(#clip-135)"><text xml:space="preserve" font-family="Palatino-Roman" font-size="28.0" fill="#FEFFFE" transform="matrix(1.00, 0.00, -0.00, -1.00, 742.0, 22.0)">C</text><text xml:space="preserve" font-family="Palatino-Roman" font-size="28.0" fill="#FEFFFE" transform="matrix(1.00, 0.00, -0.00, -1.00, 761.9, 22.0)">o</text><text xml:space="preserve" font-family="Palatino-Roman" font-size="28.0" fill="#FEFFFE" transform="matrix(1.00, 0.00, -0.00, -1.00, 777.1, 22.0)">m</text><text xml:space="preserve" font-family="Palatino-Roman" font-size="28.0" fill="#FEFFFE" transform="matrix(1.00, 0.00, -0.00, -1.00, 801.8, 22.0)">p</text><text xml:space="preserve" font-family="Palatino-Roman" font-size="28.0" fill="#FEFFFE" transform="matrix(1.00, 0.00, -0.00, -1.00, 818.7, 22.0)">o</text><text xml:space="preserve" font-family="Palatino-Roman" font-size="28.0" fill="#FEFFFE" transform="matrix(1.00, 0.00, -0.00, -1.00, 834.0, 22.0)">n</text><text xml:space="preserve" font-family="Palatino-Roman" font-size="28.0" fill="#FEFFFE" transform="matrix(1.00, 0.00, -0.00, -1.00, 850.3, 22.0)">e</text><text xml:space="preserve" font-family="Palatino-Roman" font-size="28.0" fill="#FEFFFE" transform="matrix(1.00, 0.00, -0.00, -1.00, 863.7, 22.0)">n</text><text xml:space="preserve" font-family="Palatino-Roman" font-size="28.0" fill="#FEFFFE" transform="matrix(1.00, 0.00, -0.00, -1.00, 880.0, 22.0)">t</text><text xml:space="preserve" font-family="Palatino-Roman" font-size="28.0" fill="#FEFFFE" transform="matrix(1.00, 0.00, -0.00, -1.00, 889.1, 22.0)">s</text></g></g></g></svg>