<?xml version="1.0" encoding="UTF-8" standalone="no"?><svg xmlns="http://www.w3.org/2000/svg" xmlns:xlink="http://www.w3.org/1999/xlink" clip-rule="evenodd" stroke-miterlimit="4.00" viewBox="0 0 161 31"><desc>SVG generated by Keynote</desc><defs></defs><g transform="matrix(1.00, 0.00, -0.00, -1.00, 0.0, 31.0)"><text xml:space="preserve" font-family="Palatino-Roman" font-size="28.0" fill="#FEFFFE" transform="matrix(1.00, 0.00, -0.00, -1.00, 1.0, 10.0)">C</text><text xml:space="preserve" font-family="Palatino-Roman" font-size="28.0" fill="#FEFFFE" transform="matrix(1.00, 0.00, -0.00, -1.00, 20.9, 10.0)">o</text><text xml:space="preserve" font-family="Palatino-Roman" font-size="28.0" fill="#FEFFFE" transform="matrix(1.00, 0.00, -0.00, -1.00, 36.1, 10.0)">m</text><text xml:space="preserve" font-family="Palatino-Roman" font-size="28.0" fill="#FEFFFE" transform="matrix(1.00, 0.00, -0.00, -1.00, 60.8, 10.0)">p</text><text xml:space="preserve" font-family="Palatino-Roman" font-size="28.0" fill="#FEFFFE" transform="matrix(1.00, 0.00, -0.00, -1.00, 77.7, 10.0)">o</text><text xml:space="preserve" font-family="Palatino-Roman" font-size="28.0" fill="#FEFFFE" transform="matrix(1.00, 0.00, -0.00, -1.00, 93.0, 10.0)">n</text><text xml:space="preserve" font-family="Palatino-Roman" font-size="28.0" fill="#FEFFFE" transform="matrix(1.00, 0.00, -0.00, -1.00, 109.3, 10.0)">e</text><text xml:space="preserve" font-family="Palatino-Roman" font-size="28.0" fill="#FEFFFE" transform="matrix(1.00, 0.00, -0.00, -1.00, 122.7, 10.0)">n</text><text xml:space="preserve" font-family="Palatino-Roman" font-size="28.0" fill="#FEFFFE" transform="matrix(1.00, 0.00, -0.00, -1.00, 139.0, 10.0)">t</text><text xml:space="preserve" font-family="Palatino-Roman" font-size="28.0" fill="#FEFFFE" transform="matrix(1.00, 0.00, -0.00, -1.00, 148.1, 10.0)">s</text></g></svg>