<?xml version="1.0" encoding="UTF-8" standalone="no"?><svg xmlns="http://www.w3.org/2000/svg" xmlns:xlink="http://www.w3.org/1999/xlink" clip-rule="evenodd" stroke-miterlimit="4.00" viewBox="0 0 124 21"><desc>SVG generated by Keynote</desc><defs></defs><g transform="matrix(1.00, 0.00, -0.00, -1.00, 0.0, 21.0)"><text xml:space="preserve" font-family="Monaco" font-size="16.0" fill="#6FBF40" transform="matrix(1.00, 0.00, -0.00, -1.00, 1.4, 6.0)">o</text><text xml:space="preserve" font-family="Monaco" font-size="16.0" fill="#6FBF40" transform="matrix(1.00, 0.00, -0.00, -1.00, 11.0, 6.0)">s</text><text xml:space="preserve" font-family="Monaco" font-size="16.0" fill="#6FBF40" transform="matrix(1.00, 0.00, -0.00, -1.00, 20.6, 6.0)">e</text><text xml:space="preserve" font-family="Monaco" font-size="16.0" fill="#6FBF40" transform="matrix(1.00, 0.00, -0.00, -1.00, 30.2, 6.0)">P</text><text xml:space="preserve" font-family="Monaco" font-size="16.0" fill="#6FBF40" transform="matrix(1.00, 0.00, -0.00, -1.00, 39.8, 6.0)">a</text><text xml:space="preserve" font-family="Monaco" font-size="16.0" fill="#6FBF40" transform="matrix(1.00, 0.00, -0.00, -1.00, 49.4, 6.0)">r</text><text xml:space="preserve" font-family="Monaco" font-size="16.0" fill="#6FBF40" transform="matrix(1.00, 0.00, -0.00, -1.00, 59.0, 6.0)">s</text><text xml:space="preserve" font-family="Monaco" font-size="16.0" fill="#6FBF40" transform="matrix(1.00, 0.00, -0.00, -1.00, 68.6, 6.0)">e</text><text xml:space="preserve" font-family="Monaco" font-size="16.0" fill="#6FBF40" transform="matrix(1.00, 0.00, -0.00, -1.00, 78.2, 6.0)">r</text><text xml:space="preserve" font-family="Monaco" font-size="16.0" fill="#6FBF40" transform="matrix(1.00, 0.00, -0.00, -1.00, 87.9, 6.0)">(</text><text xml:space="preserve" font-family="Monaco" font-size="16.0" fill="#6FBF40" transform="matrix(1.00, 0.00, -0.00, -1.00, 97.5, 6.0)">p</text><text xml:space="preserve" font-family="Monaco" font-size="16.0" fill="#6FBF40" transform="matrix(1.00, 0.00, -0.00, -1.00, 107.1, 6.0)">)</text><text xml:space="preserve" font-family="Monaco" font-size="16.0" fill="#6FBF40" transform="matrix(1.00, 0.00, -0.00, -1.00, 116.7, 6.0)">;</text></g></svg>