<?xml version="1.0" encoding="UTF-8" standalone="no"?><svg xmlns="http://www.w3.org/2000/svg" xmlns:xlink="http://www.w3.org/1999/xlink" clip-rule="evenodd" stroke-miterlimit="4.00" viewBox="0 0 124 21"><desc>SVG generated by Keynote</desc><defs></defs><g transform="matrix(1.00, 0.00, -0.00, -1.00, 0.0, 21.0)"><text xml:space="preserve" font-family="Monaco" font-size="16.0" fill="#F5D327" transform="matrix(1.00, 0.00, -0.00, -1.00, 0.8, 6.0)">n</text><text xml:space="preserve" font-family="Monaco" font-size="16.0" fill="#F5D327" transform="matrix(1.00, 0.00, -0.00, -1.00, 10.4, 6.0)">e</text><text xml:space="preserve" font-family="Monaco" font-size="16.0" fill="#F5D327" transform="matrix(1.00, 0.00, -0.00, -1.00, 20.0, 6.0)">.</text><text xml:space="preserve" font-family="Monaco" font-size="16.0" fill="#F5D327" transform="matrix(1.00, 0.00, -0.00, -1.00, 29.6, 6.0)">a</text><text xml:space="preserve" font-family="Monaco" font-size="16.0" fill="#F5D327" transform="matrix(1.00, 0.00, -0.00, -1.00, 39.2, 6.0)">r</text><text xml:space="preserve" font-family="Monaco" font-size="16.0" fill="#F5D327" transform="matrix(1.00, 0.00, -0.00, -1.00, 48.8, 6.0)">2</text><text xml:space="preserve" font-family="Monaco" font-size="16.0" fill="#F5D327" transform="matrix(1.00, 0.00, -0.00, -1.00, 58.4, 6.0)">g</text><text xml:space="preserve" font-family="Monaco" font-size="16.0" fill="#F5D327" transform="matrix(1.00, 0.00, -0.00, -1.00, 68.1, 6.0)">r</text><text xml:space="preserve" font-family="Monaco" font-size="16.0" fill="#F5D327" transform="matrix(1.00, 0.00, -0.00, -1.00, 77.7, 6.0)">(</text><text xml:space="preserve" font-family="Monaco" font-size="16.0" fill="#F5D327" transform="matrix(1.00, 0.00, -0.00, -1.00, 87.3, 6.0)">a</text><text xml:space="preserve" font-family="Monaco" font-size="16.0" fill="#F5D327" transform="matrix(1.00, 0.00, -0.00, -1.00, 96.9, 6.0)">r</text><text xml:space="preserve" font-family="Monaco" font-size="16.0" fill="#F5D327" transform="matrix(1.00, 0.00, -0.00, -1.00, 106.5, 6.0)">)</text><text xml:space="preserve" font-family="Monaco" font-size="16.0" fill="#F5D327" transform="matrix(1.00, 0.00, -0.00, -1.00, 116.1, 6.0)">;</text></g></svg>