<?xml version="1.0" encoding="UTF-8" standalone="no"?><svg xmlns="http://www.w3.org/2000/svg" xmlns:xlink="http://www.w3.org/1999/xlink" clip-rule="evenodd" stroke-miterlimit="4.00" viewBox="0 0 137 21"><desc>SVG generated by Keynote</desc><defs></defs><g transform="matrix(1.00, 0.00, -0.00, -1.00, 0.0, 21.0)"><text xml:space="preserve" font-family="Monaco" font-size="16.0" fill="#6FBF40" transform="matrix(1.00, 0.00, -0.00, -1.00, 2.2, 6.0)"> </text><text xml:space="preserve" font-family="Monaco" font-size="16.0" fill="#6FBF40" transform="matrix(1.00, 0.00, -0.00, -1.00, 11.8, 6.0)">g</text><text xml:space="preserve" font-family="Monaco" font-size="16.0" fill="#6FBF40" transform="matrix(1.00, 0.00, -0.00, -1.00, 21.4, 6.0)">u</text><text xml:space="preserve" font-family="Monaco" font-size="16.0" fill="#6FBF40" transform="matrix(1.00, 0.00, -0.00, -1.00, 31.0, 6.0)">i</text><text xml:space="preserve" font-family="Monaco" font-size="16.0" fill="#6FBF40" transform="matrix(1.00, 0.00, -0.00, -1.00, 40.6, 6.0)">d</text><text xml:space="preserve" font-family="Monaco" font-size="16.0" fill="#6FBF40" transform="matrix(1.00, 0.00, -0.00, -1.00, 50.2, 6.0)">o</text><text xml:space="preserve" font-family="Monaco" font-size="16.0" fill="#6FBF40" transform="matrix(1.00, 0.00, -0.00, -1.00, 59.8, 6.0)">E</text><text xml:space="preserve" font-family="Monaco" font-size="16.0" fill="#6FBF40" transform="matrix(1.00, 0.00, -0.00, -1.00, 69.4, 6.0)">n</text><text xml:space="preserve" font-family="Monaco" font-size="16.0" fill="#6FBF40" transform="matrix(1.00, 0.00, -0.00, -1.00, 79.0, 6.0)">g</text><text xml:space="preserve" font-family="Monaco" font-size="16.0" fill="#6FBF40" transform="matrix(1.00, 0.00, -0.00, -1.00, 88.6, 6.0)">i</text><text xml:space="preserve" font-family="Monaco" font-size="16.0" fill="#6FBF40" transform="matrix(1.00, 0.00, -0.00, -1.00, 98.2, 6.0)">n</text><text xml:space="preserve" font-family="Monaco" font-size="16.0" fill="#6FBF40" transform="matrix(1.00, 0.00, -0.00, -1.00, 107.8, 6.0)">e</text><text xml:space="preserve" font-family="Monaco" font-size="16.0" fill="#6FBF40" transform="matrix(1.00, 0.00, -0.00, -1.00, 117.4, 6.0)">.</text><text xml:space="preserve" font-family="Monaco" font-size="16.0" fill="#6FBF40" transform="matrix(1.00, 0.00, -0.00, -1.00, 127.1, 6.0)">o</text></g></svg>