<?xml version="1.0" encoding="UTF-8" standalone="no"?><svg xmlns="http://www.w3.org/2000/svg" xmlns:xlink="http://www.w3.org/1999/xlink" clip-rule="evenodd" stroke-miterlimit="4.00" viewBox="0 0 115 30"><desc>SVG generated by Keynote</desc><defs></defs><g transform="matrix(1.00, 0.00, -0.00, -1.00, 0.0, 30.0)"><text xml:space="preserve" font-family="Helvetica" font-size="28.0" fill="#F5D327" transform="matrix(1.00, 0.00, -0.00, -1.00, 1.0, 8.0)">g</text><text xml:space="preserve" font-family="Helvetica" font-size="28.0" fill="#F5D327" transform="matrix(1.00, 0.00, -0.00, -1.00, 16.6, 8.0)">r</text><text xml:space="preserve" font-family="Helvetica" font-size="28.0" fill="#F5D327" transform="matrix(1.00, 0.00, -0.00, -1.00, 25.9, 8.0)">a</text><text xml:space="preserve" font-family="Helvetica" font-size="28.0" fill="#F5D327" transform="matrix(1.00, 0.00, -0.00, -1.00, 41.5, 8.0)">p</text><text xml:space="preserve" font-family="Helvetica" font-size="28.0" fill="#F5D327" transform="matrix(1.00, 0.00, -0.00, -1.00, 57.1, 8.0)">h</text><text xml:space="preserve" font-family="Helvetica" font-size="28.0" fill="#F5D327" transform="matrix(1.00, 0.00, -0.00, -1.00, 72.6, 8.0)">i</text><text xml:space="preserve" font-family="Helvetica" font-size="28.0" fill="#F5D327" transform="matrix(1.00, 0.00, -0.00, -1.00, 78.9, 8.0)">c</text><text xml:space="preserve" font-family="Helvetica" font-size="28.0" fill="#F5D327" transform="matrix(1.00, 0.00, -0.00, -1.00, 92.9, 8.0)">a</text><text xml:space="preserve" font-family="Helvetica" font-size="28.0" fill="#F5D327" transform="matrix(1.00, 0.00, -0.00, -1.00, 108.4, 8.0)">l</text></g></svg>