<?xml version="1.0" encoding="UTF-8" standalone="no"?><svg xmlns="http://www.w3.org/2000/svg" xmlns:xlink="http://www.w3.org/1999/xlink" clip-rule="evenodd" stroke-miterlimit="4.00" viewBox="0 0 369 268"><desc>SVG generated by Keynote</desc><defs><linearGradient id="gradSh1.182" x1="0.0" y1="0.0" x2="100.0" y2="0.0" gradientUnits="userSpaceOnUse" gradientTransform="matrix(0.00, -1.09, -1.20, 0.00, 184.6, 188.7)"><stop offset="0.00000" stop-color="#EF951A"></stop><stop offset="0.00293" stop-color="#EF941A"></stop><stop offset="1.00000" stop-color="#DE6A10"></stop></linearGradient></defs><g transform="matrix(1.00, 0.00, -0.00, -1.00, 0.0, 268.0)"><image xlink:href="../../4AAE6EA7-3F1F-4CAC-8E5B-8863539C57B9/assets/839057E8351A24D80F5D243E5F061EE0.png" width="366.00" height="150.00" transform="matrix(1.00, 0.00, -0.00, -1.00, 1.7, 151.3)" opacity="0.75"></image><g><clipPath id="clip-558"><path d="M 125.7 92.1 L 125.7 175.9 C 125.7 182.4 131.0 187.7 137.5 187.7 L 231.7 187.7 C 238.2 187.7 243.4 182.4 243.4 175.9 L 243.4 92.1 C 243.4 85.6 238.2 80.3 231.7 80.3 L 137.5 80.3 C 131.0 80.3 125.7 85.6 125.7 92.1 Z M 125.7 92.1 "></path></clipPath><g clip-path="url(#clip-558)"><path d="M 125.7 92.1 L 125.7 175.9 C 125.7 182.4 131.0 187.7 137.5 187.7 L 231.7 187.7 C 238.2 187.7 243.4 182.4 243.4 175.9 L 243.4 92.1 C 243.4 85.6 238.2 80.3 231.7 80.3 L 137.5 80.3 C 131.0 80.3 125.7 85.6 125.7 92.1 Z M 125.7 92.1 " fill="url(#gradSh1.182)"></path></g></g><path d="M 127.7 106.0 C 127.5 105.6 127.8 104.6 127.6 104.4 M 127.7 106.0 C 129.2 105.0 129.3 103.3 129.6 100.9 C 129.6 98.4 128.2 101.0 127.6 100.7 C 127.0 97.4 128.1 97.4 129.7 97.9 C 128.6 96.6 130.5 92.8 128.5 93.6 C 128.5 98.9 128.0 89.8 126.9 94.3 C 126.6 94.8 126.1 93.5 126.1 93.0 C 125.2 94.5 124.3 91.9 123.7 94.3 C 122.4 94.6 123.0 94.2 122.0 95.7 C 121.9 96.4 122.3 96.1 122.6 96.1 C 124.1 96.3 121.8 97.9 122.7 99.1 C 120.8 100.3 123.0 101.5 123.8 100.4 C 123.6 101.6 121.6 102.9 123.0 104.1 C 122.0 104.7 122.7 107.7 123.9 105.9 C 124.6 104.6 125.2 106.1 125.7 106.3 C 126.1 105.8 125.5 104.0 125.8 103.7 C 126.1 104.2 126.8 106.6 126.8 104.1 C 127.4 104.9 127.8 103.7 127.7 106.0 C 127.7 106.0 127.7 106.0 127.7 106.0 Z M 128.8 96.9 C 129.3 96.9 128.8 97.8 128.8 96.9 C 128.8 96.9 128.8 96.9 128.8 96.9 Z M 122.0 103.1 C 122.5 103.1 122.0 104.0 122.0 103.1 C 122.0 103.1 122.0 103.1 122.0 103.1 Z M 122.6 96.5 C 123.1 96.5 122.5 97.4 122.6 96.5 C 122.6 96.5 122.6 96.5 122.6 96.5 Z M 128.5 99.3 C 128.0 100.7 127.8 98.1 128.2 97.9 C 128.2 98.2 128.9 98.9 128.5 99.3 C 128.5 99.3 128.5 99.3 128.5 99.3 Z M 125.5 99.5 C 125.7 99.6 125.8 100.2 125.3 100.1 C 125.2 99.7 125.4 99.4 125.5 99.5 C 125.5 99.5 125.5 99.5 125.5 99.5 Z M 127.6 92.4 C 127.8 92.5 127.9 93.1 127.4 93.1 C 127.2 92.7 127.4 92.3 127.6 92.4 C 127.6 92.4 127.6 92.4 127.6 92.4 Z M 127.1 100.9 C 127.0 101.3 126.6 101.4 126.5 101.0 C 126.8 100.8 126.8 99.8 127.1 100.9 C 127.1 100.9 127.1 100.9 127.1 100.9 Z M 128.8 103.1 C 128.6 104.3 127.8 101.9 128.0 101.9 C 128.4 101.6 129.2 102.5 128.8 103.1 C 128.8 103.1 128.8 103.1 128.8 103.1 Z M 126.4 101.6 C 126.2 102.6 126.1 101.2 126.4 101.6 C 126.4 101.6 126.4 101.6 126.4 101.6 Z M 123.9 93.4 C 123.6 94.4 123.5 93.0 123.9 93.4 C 123.9 93.4 123.9 93.4 123.9 93.4 Z M 122.3 98.6 C 122.1 99.6 121.9 98.2 122.3 98.6 C 122.3 98.6 122.3 98.6 122.3 98.6 Z M 127.5 96.7 C 127.5 94.9 128.8 96.4 127.5 96.7 C 127.5 96.7 127.5 96.7 127.5 96.7 Z M 129.0 105.9 C 129.0 104.2 130.2 105.7 129.0 105.9 C 129.0 105.9 129.0 105.9 129.0 105.9 Z M 128.7 90.3 C 128.7 91.5 131.6 87.7 129.1 88.6 C 127.4 88.5 129.2 85.5 130.0 87.0 C 130.7 86.4 130.7 86.5 130.5 85.6 C 131.5 86.3 133.3 85.5 133.7 84.6 C 133.6 83.5 132.3 85.3 132.9 83.7 C 135.3 82.0 132.0 82.8 132.7 81.0 C 132.8 80.9 133.1 81.5 133.3 81.0 C 133.0 79.8 130.4 80.0 131.1 78.7 C 130.5 79.1 127.1 79.8 128.8 79.9 C 129.9 80.6 125.1 81.3 126.8 82.4 C 125.4 82.5 125.8 84.1 124.3 84.5 C 123.7 85.1 124.6 85.6 124.9 85.6 C 125.8 85.9 122.5 85.7 123.7 87.4 C 123.2 87.4 122.4 90.9 123.8 88.5 C 123.5 89.2 122.7 93.2 124.6 91.3 C 125.5 88.7 126.2 93.7 126.5 91.1 C 126.9 89.1 126.7 88.8 127.4 90.3 C 127.2 90.7 127.2 92.7 128.1 91.1 C 127.9 90.7 128.2 90.0 128.7 90.3 C 128.7 90.3 128.7 90.3 128.7 90.3 Z M 126.1 90.2 C 126.2 89.0 126.7 90.2 126.1 90.2 C 126.1 90.2 126.1 90.2 126.1 90.2 Z M 124.1 84.1 C 124.8 82.7 124.7 84.3 124.1 84.1 C 124.1 84.1 124.1 84.1 124.1 84.1 Z M 130.1 87.8 C 129.8 87.1 131.5 88.0 130.1 87.8 C 130.1 87.8 130.1 87.8 130.1 87.8 Z M 124.3 87.0 C 124.3 86.9 124.4 87.3 124.4 87.6 C 124.4 87.5 124.3 87.1 124.3 87.0 C 124.3 87.0 124.3 87.0 124.3 87.0 Z M 130.9 86.6 C 131.0 85.1 132.2 87.3 130.9 86.6 C 130.9 86.6 130.9 86.6 130.9 86.6 Z M 131.9 83.4 C 131.0 81.8 133.4 82.9 131.9 83.4 C 131.9 83.4 131.9 83.4 131.9 83.4 Z M 127.4 82.0 C 127.4 82.5 126.9 82.1 127.4 82.0 C 127.4 82.0 127.4 82.0 127.4 82.0 Z M 123.0 90.3 C 123.4 90.8 122.8 90.7 123.0 90.3 C 123.0 90.3 123.0 90.3 123.0 90.3 Z M 129.5 80.4 C 129.7 81.0 128.7 80.5 129.5 80.4 C 129.5 80.4 129.5 80.4 129.5 80.4 Z M 129.6 87.2 C 130.1 89.1 126.9 87.4 129.6 87.2 C 129.6 87.2 129.6 87.2 129.6 87.2 Z M 128.8 89.4 C 128.8 90.3 127.9 88.9 128.3 88.6 C 128.4 88.7 128.7 89.2 128.8 89.4 C 128.8 89.4 128.8 89.4 128.8 89.4 Z M 130.2 86.0 C 130.2 87.2 129.4 86.4 130.2 86.0 C 130.2 86.0 130.2 86.0 130.2 86.0 Z M 129.7 88.3 C 129.4 88.5 129.7 87.9 129.7 88.3 C 129.7 88.3 129.7 88.3 129.7 88.3 Z M 132.4 85.9 C 132.0 86.0 132.6 85.6 132.4 85.9 C 132.4 85.9 132.4 85.9 132.4 85.9 Z M 129.2 90.6 C 129.0 90.9 129.1 90.2 129.2 90.6 C 129.2 90.6 129.2 90.6 129.2 90.6 Z M 131.6 85.4 C 131.2 84.8 129.3 84.4 131.9 84.0 C 132.5 84.2 132.3 85.5 131.6 85.4 C 131.6 85.4 131.6 85.4 131.6 85.4 Z M 127.7 111.5 C 129.7 103.7 126.1 105.6 125.5 105.2 C 124.5 104.1 123.9 105.2 123.2 106.7 C 120.9 108.4 125.5 109.2 123.3 110.4 C 120.3 112.5 125.9 112.8 122.7 113.7 C 121.9 113.3 122.6 116.4 122.8 116.1 C 121.3 117.6 124.0 119.8 124.2 119.8 C 123.8 120.9 121.0 121.0 123.1 124.1 C 123.9 126.5 121.0 127.6 123.0 127.0 C 120.8 128.8 123.6 128.2 122.9 130.0 C 121.7 131.2 124.8 130.0 122.4 132.3 C 124.3 133.2 121.2 131.2 122.5 137.3 C 122.7 134.4 124.0 140.1 122.8 138.9 C 121.4 136.9 123.3 141.8 122.5 144.5 C 123.1 145.3 124.8 148.6 123.0 148.0 C 120.9 150.8 124.3 150.9 122.5 152.1 C 121.8 153.1 123.4 153.4 123.2 154.1 C 121.9 155.1 122.8 156.0 122.4 159.5 C 121.8 167.2 125.8 160.6 126.2 163.6 C 126.8 164.1 131.1 159.8 127.9 161.5 C 128.8 160.9 125.5 154.6 129.0 157.8 C 127.6 155.4 130.4 158.3 128.8 153.4 C 126.3 160.1 127.8 145.9 129.0 152.3 C 129.7 151.2 129.6 148.6 129.0 150.5 C 126.7 151.2 130.0 146.0 127.2 148.6 C 128.0 144.5 125.5 145.6 127.3 144.5 C 130.2 143.5 126.5 144.7 127.4 142.6 C 127.4 137.8 130.8 141.5 128.5 138.6 C 130.0 133.9 127.2 137.6 126.9 135.9 C 124.8 135.5 128.4 131.1 128.7 134.7 C 127.6 132.8 129.7 134.4 128.4 132.3 C 126.5 133.8 130.4 129.5 128.9 130.1 C 128.4 128.2 127.3 129.2 127.2 128.6 C 127.2 125.7 129.1 126.6 127.7 126.0 C 126.9 125.4 129.4 124.0 128.8 123.6 C 128.7 126.6 126.8 121.2 127.8 120.9 C 127.9 122.7 130.3 120.0 128.8 118.8 C 124.6 120.3 129.8 116.3 128.4 115.0 C 126.1 116.2 128.1 108.5 129.2 111.4 C 129.0 111.3 127.7 111.5 127.7 111.5 M 128.4 122.8 C 128.2 125.2 128.0 120.2 128.4 122.8 M 129.0 122.7 C 128.3 123.8 129.6 120.4 129.3 122.8 C 129.3 122.9 129.1 122.5 129.0 122.7 M 129.1 132.7 C 128.5 132.4 129.5 131.4 129.1 132.7 M 127.7 134.6 C 127.1 136.2 127.6 132.5 127.7 134.6 M 128.1 156.8 C 124.7 154.5 130.1 154.4 128.1 156.8 M 128.8 142.1 C 128.4 139.4 130.3 143.1 128.8 142.1 M 128.0 141.3 C 127.4 140.1 128.8 141.0 128.0 141.3 M 128.1 152.6 C 128.1 152.8 128.1 152.8 128.1 152.6 C 128.1 152.6 128.1 152.6 128.1 152.6 Z M 128.0 159.1 C 128.1 159.1 128.1 159.1 128.0 159.1 C 128.0 159.1 128.0 159.1 128.0 159.1 Z M 127.8 146.2 C 128.6 144.1 128.1 149.5 127.8 146.2 C 127.8 146.2 127.8 146.2 127.8 146.2 Z M 122.8 156.0 C 122.8 155.9 122.8 155.9 122.8 156.0 C 122.8 156.0 122.8 156.0 122.8 156.0 Z M 126.9 120.9 C 126.8 120.8 126.8 120.8 126.9 120.9 C 126.9 120.9 126.9 120.9 126.9 120.9 Z M 128.1 113.4 C 127.7 113.5 128.5 112.1 128.1 113.4 C 128.1 113.4 128.1 113.4 128.1 113.4 Z M 124.2 107.4 C 124.2 107.3 124.2 107.3 124.2 107.4 C 124.2 107.4 124.2 107.4 124.2 107.4 Z M 125.1 118.4 C 125.0 118.3 125.0 118.3 125.1 118.4 C 125.1 118.4 125.1 118.4 125.1 118.4 Z M 127.6 119.5 C 129.5 118.2 127.1 122.3 127.6 119.5 C 127.6 119.5 127.6 119.5 127.6 119.5 Z M 123.0 143.7 C 123.9 143.7 122.8 145.4 123.0 143.7 C 123.0 143.7 123.0 143.7 123.0 143.7 Z M 126.9 134.9 C 127.4 135.2 126.7 136.0 126.9 134.9 C 126.9 134.9 126.9 134.9 126.9 134.9 Z M 129.5 130.8 C 129.9 131.1 129.3 131.9 129.5 130.8 C 129.5 130.8 129.5 130.8 129.5 130.8 Z M 128.7 113.6 C 128.8 113.7 128.8 113.7 128.7 113.6 C 128.7 113.6 128.7 113.6 128.7 113.6 Z M 127.2 116.2 C 129.0 114.4 126.3 119.1 127.2 116.2 C 127.2 116.2 127.2 116.2 127.2 116.2 Z M 126.7 113.1 C 126.1 114.0 127.0 110.7 126.7 113.1 M 124.0 114.9 C 124.8 117.1 120.9 112.8 124.0 114.9 C 124.0 114.9 124.0 114.9 124.0 114.9 Z M 123.3 126.4 C 123.2 126.5 123.2 126.5 123.3 126.4 C 123.3 126.4 123.3 126.4 123.3 126.4 Z M 128.5 125.2 C 128.4 127.2 128.1 123.9 128.5 125.2 C 128.5 125.2 128.5 125.2 128.5 125.2 Z M 128.9 107.8 C 128.8 109.8 128.5 106.5 128.9 107.8 C 128.9 107.8 128.9 107.8 128.9 107.8 Z M 125.0 133.1 C 125.3 136.3 124.1 131.1 125.0 133.1 C 125.0 133.1 125.0 133.1 125.0 133.1 Z M 127.1 145.0 C 127.0 145.1 127.0 145.1 127.1 145.0 C 127.1 145.0 127.1 145.0 127.1 145.0 Z M 127.8 147.3 C 127.8 147.3 127.8 147.3 127.8 147.3 C 127.8 147.3 127.8 147.3 127.8 147.3 Z M 126.0 156.6 C 125.9 156.7 125.9 156.7 126.0 156.6 C 126.0 156.6 126.0 156.6 126.0 156.6 Z M 128.7 149.3 C 128.6 149.4 128.6 149.4 128.7 149.3 C 128.7 149.3 128.7 149.3 128.7 149.3 Z M 128.2 155.7 C 128.1 155.9 128.1 155.9 128.2 155.7 C 128.2 155.7 128.2 155.7 128.2 155.7 Z M 129.7 154.8 C 129.7 155.0 129.7 155.0 129.7 154.8 C 129.7 154.8 129.7 154.8 129.7 154.8 Z M 122.0 140.5 C 122.0 140.7 122.0 140.7 122.0 140.5 C 122.0 140.5 122.0 140.5 122.0 140.5 Z M 129.3 117.1 C 129.1 117.2 129.1 117.2 129.3 117.1 C 129.3 117.1 129.3 117.1 129.3 117.1 Z M 127.5 155.2 C 127.5 155.3 127.5 155.3 127.5 155.2 C 127.5 155.2 127.5 155.2 127.5 155.2 Z M 126.1 139.5 C 124.6 139.6 128.1 138.2 126.2 139.9 C 126.1 139.8 126.4 139.4 126.1 139.5 M 123.6 141.6 C 123.6 141.5 123.6 141.5 123.6 141.6 C 123.6 141.6 123.6 141.6 123.6 141.6 Z M 122.7 134.5 C 122.6 134.4 122.6 134.4 122.7 134.5 C 122.7 134.5 122.7 134.5 122.7 134.5 Z M 129.0 148.2 C 129.8 147.9 128.3 149.9 128.9 147.9 M 123.4 156.6 C 124.2 156.4 122.7 158.4 123.3 156.4 M 128.3 105.6 C 127.7 105.3 128.7 104.2 128.3 105.6 M 121.9 132.9 C 121.3 132.6 122.3 131.6 121.9 132.9 M 123.8 136.2 C 124.7 135.9 123.2 138.0 123.8 136.0 M 123.4 151.7 C 123.4 151.9 123.4 151.9 123.4 151.7 C 123.4 151.7 123.4 151.7 123.4 151.7 Z M 128.3 128.2 C 128.3 128.3 128.3 128.3 128.3 128.2 C 128.3 128.2 128.3 128.2 128.3 128.2 Z M 126.5 136.9 C 127.7 135.7 125.8 138.5 126.5 136.9 M 126.3 125.7 C 127.7 124.0 125.8 128.4 126.3 125.7 M 123.0 160.3 C 124.7 158.4 122.1 161.8 123.0 160.3 M 127.3 150.8 C 129.1 148.8 126.4 152.2 127.3 150.8 M 127.6 130.0 C 128.5 129.8 127.0 131.9 127.6 130.0 M 128.5 110.1 C 128.6 108.3 129.2 112.5 128.5 110.1 M 123.4 147.0 C 123.3 147.1 123.3 147.1 123.4 147.0 C 123.4 147.0 123.4 147.0 123.4 147.0 Z M 121.9 116.1 C 121.8 116.2 121.8 116.2 121.9 116.1 C 121.9 116.1 121.9 116.1 121.9 116.1 Z M 128.7 162.8 C 128.6 162.9 128.6 162.9 128.7 162.8 C 128.7 162.8 128.7 162.8 128.7 162.8 Z M 126.5 149.6 C 126.4 149.7 126.4 149.7 126.5 149.6 C 126.5 149.6 126.5 149.6 126.5 149.6 Z M 128.9 159.1 C 128.8 159.2 128.8 159.2 128.9 159.1 C 128.9 159.1 128.9 159.1 128.9 159.1 Z M 125.2 143.6 C 125.2 143.6 125.2 143.6 125.2 143.6 C 125.2 143.6 125.2 143.6 125.2 143.6 Z M 129.6 142.4 C 129.6 142.4 129.6 142.4 129.6 142.4 C 129.6 142.4 129.6 142.4 129.6 142.4 Z M 127.7 135.8 C 127.7 135.8 127.7 135.8 127.7 135.8 C 127.7 135.8 127.7 135.8 127.7 135.8 Z M 129.3 145.4 C 129.5 149.3 127.8 143.4 129.3 145.4 C 129.3 145.4 129.3 145.4 129.3 145.4 Z M 124.9 138.6 C 124.8 138.6 124.8 138.6 124.9 138.6 C 124.9 138.6 124.9 138.6 124.9 138.6 Z M 128.0 138.0 C 129.2 140.5 125.8 139.3 128.0 138.0 M 129.0 127.0 C 129.7 127.8 128.0 127.4 129.0 127.0 M 123.2 122.7 C 123.2 122.7 123.2 122.7 123.2 122.7 C 123.2 122.7 123.2 122.7 123.2 122.7 Z M 123.7 123.8 C 123.6 124.0 123.6 124.0 123.7 123.8 C 123.7 123.8 123.7 123.8 123.7 123.8 Z M 129.3 124.4 C 129.3 124.4 129.3 124.4 129.3 124.4 C 129.3 124.4 129.3 124.4 129.3 124.4 Z M 122.0 124.0 C 122.0 124.1 122.0 124.1 122.0 124.0 C 122.0 124.0 122.0 124.0 122.0 124.0 Z M 129.5 140.9 C 129.5 140.9 129.5 140.9 129.5 140.9 C 129.5 140.9 129.5 140.9 129.5 140.9 Z M 129.5 161.0 C 129.5 161.1 129.5 161.1 129.5 161.0 C 129.5 161.0 129.5 161.0 129.5 161.0 Z M 123.8 110.7 C 123.8 110.8 123.8 110.8 123.8 110.7 C 123.8 110.7 123.8 110.7 123.8 110.7 Z M 127.8 143.0 C 127.7 143.0 127.7 143.0 127.8 143.0 C 127.8 143.0 127.8 143.0 127.8 143.0 Z M 123.5 119.8 C 123.4 119.9 123.4 119.9 123.5 119.8 C 123.5 119.8 123.5 119.8 123.5 119.8 Z M 128.1 141.7 C 128.1 141.7 128.1 141.7 128.1 141.7 C 128.1 141.7 128.1 141.7 128.1 141.7 Z M 123.0 146.4 C 123.0 146.5 123.0 146.5 123.0 146.4 C 123.0 146.4 123.0 146.4 123.0 146.4 Z M 122.0 150.7 C 122.0 150.8 122.0 150.8 122.0 150.7 C 122.0 150.7 122.0 150.7 122.0 150.7 Z M 126.1 146.1 C 126.0 146.2 126.0 146.2 126.1 146.1 C 126.1 146.1 126.1 146.1 126.1 146.1 Z M 125.4 118.4 C 126.9 110.5 126.1 124.7 125.4 118.4 M 125.7 147.4 C 126.1 141.9 127.4 151.9 125.7 147.4 C 126.2 148.0 125.8 147.5 125.7 147.4 M 129.4 164.8 C 127.8 162.5 126.2 162.5 124.6 163.5 C 123.7 164.6 127.0 164.6 124.2 164.6 C 123.7 162.0 120.1 165.8 123.6 165.7 C 124.1 169.1 121.4 166.3 122.8 168.3 C 123.1 172.0 122.1 170.1 122.3 172.9 C 124.2 174.5 121.4 174.5 123.2 175.3 C 121.2 173.9 124.0 178.7 123.2 179.0 C 122.2 177.6 122.8 180.7 124.1 182.8 C 125.4 184.8 126.5 186.0 124.9 182.3 C 127.2 184.8 125.7 185.0 126.3 186.0 C 128.2 186.3 130.4 190.4 132.8 190.0 C 132.5 189.6 131.5 189.1 131.5 188.6 C 131.3 187.7 133.5 189.6 133.2 189.5 C 134.6 189.4 140.3 189.5 134.1 190.2 C 133.6 191.0 138.6 190.1 138.5 191.0 C 142.6 191.0 139.5 189.1 141.3 190.5 C 144.2 190.5 146.3 190.6 146.3 190.3 C 148.1 190.5 148.5 191.6 150.1 190.6 C 153.6 192.7 152.6 186.5 154.0 190.6 C 155.0 189.7 156.0 192.3 155.8 189.8 C 154.6 191.0 161.9 191.8 158.7 189.9 C 159.6 189.3 164.2 192.6 163.5 190.0 C 165.2 188.1 164.9 186.2 161.3 184.4 C 161.7 185.9 157.5 182.9 160.2 185.4 C 163.3 186.2 154.5 186.3 156.4 185.4 C 156.8 182.4 152.1 187.3 150.3 185.1 C 151.8 186.3 144.7 186.9 146.8 184.7 C 145.4 184.5 145.1 185.5 143.7 184.2 C 148.0 184.4 142.1 186.6 142.3 185.2 C 143.0 184.4 136.9 183.7 137.4 184.9 C 139.1 188.1 136.3 184.3 135.1 185.2 C 132.2 185.2 136.5 183.1 133.7 184.3 C 133.4 183.8 130.7 181.9 132.7 182.6 C 133.1 183.3 128.7 183.5 130.5 181.5 C 132.2 182.5 131.6 181.5 130.9 180.6 C 130.1 179.6 129.2 178.2 129.0 178.9 C 129.3 181.9 128.4 180.8 127.8 178.9 C 127.2 177.1 127.3 175.1 128.4 177.4 C 129.4 174.5 128.9 178.7 128.3 174.5 C 127.4 175.0 126.6 171.7 128.3 172.5 C 130.8 171.9 124.9 171.4 128.4 168.8 C 129.9 168.4 127.3 163.6 128.9 165.5 C 129.1 165.6 129.4 164.9 129.4 164.8 M 129.1 166.3 C 128.5 165.7 129.8 165.4 129.1 166.3 M 128.6 165.7 C 128.6 165.6 128.6 165.6 128.6 165.7 C 128.6 165.7 128.6 165.7 128.6 165.7 Z M 128.2 173.9 C 128.2 173.8 128.2 173.8 128.2 173.9 C 128.2 173.9 128.2 173.9 128.2 173.9 Z M 123.0 181.7 C 123.0 181.6 123.0 181.6 123.0 181.7 C 123.0 181.7 123.0 181.7 123.0 181.7 Z M 128.4 178.7 C 128.4 178.6 128.4 178.6 128.4 178.7 C 128.4 178.7 128.4 178.7 128.4 178.7 Z M 127.8 170.9 C 127.8 170.9 127.8 170.9 127.8 170.9 C 127.8 170.9 127.8 170.9 127.8 170.9 Z M 129.2 178.0 C 128.4 178.6 129.5 176.6 129.4 178.1 C 129.3 178.1 129.3 177.9 129.2 178.0 M 132.1 182.0 C 132.0 182.1 132.0 182.1 132.1 182.0 M 144.6 191.5 C 144.7 191.6 144.7 191.6 144.6 191.5 M 145.9 184.0 C 146.1 184.1 146.1 184.1 145.9 184.0 M 136.3 184.9 C 138.0 185.1 136.7 185.5 136.3 184.9 M 151.6 184.5 C 148.9 183.9 154.6 184.0 151.6 184.5 M 154.3 184.0 C 154.5 184.1 154.5 184.1 154.3 184.0 M 142.0 184.3 C 141.9 184.4 141.9 184.4 142.0 184.3 C 142.0 184.3 142.0 184.3 142.0 184.3 Z M 135.7 184.4 C 133.7 183.5 138.0 184.0 135.7 184.4 M 129.1 174.8 C 129.5 176.4 127.9 174.8 129.1 174.8 M 128.6 171.6 C 128.5 171.6 128.5 171.6 128.6 171.6 C 128.6 171.6 128.6 171.6 128.6 171.6 Z M 147.3 184.5 C 147.2 184.5 147.2 184.5 147.3 184.5 C 147.3 184.5 147.3 184.5 147.3 184.5 Z M 150.4 184.3 C 150.3 184.3 150.3 184.3 150.4 184.3 C 150.4 184.3 150.4 184.3 150.4 184.3 Z M 155.7 191.3 C 155.6 191.3 155.6 191.3 155.7 191.3 C 155.7 191.3 155.7 191.3 155.7 191.3 Z M 125.7 174.0 C 126.1 171.9 127.9 176.1 126.2 175.7 C 125.5 176.0 125.8 174.2 125.7 174.0 M 133.4 186.0 C 133.0 188.3 132.9 182.3 133.4 186.0 M 154.7 185.5 C 156.8 188.3 152.0 183.5 154.7 185.5 M 159.0 185.0 C 160.3 185.6 151.0 185.4 157.5 184.6 C 158.1 184.2 158.6 184.7 159.0 185.0 M 131.4 182.9 C 130.9 184.2 129.8 180.8 131.4 182.9 M 142.1 189.1 C 143.2 188.3 145.9 187.6 144.7 189.0 C 144.7 190.8 140.9 189.8 142.1 189.1 M 127.8 166.9 C 129.9 168.7 126.0 166.9 127.8 166.9 M 127.6 175.2 C 127.7 175.3 127.7 175.3 127.6 175.2 C 127.6 175.2 127.6 175.2 127.6 175.2 Z M 128.2 178.0 C 128.0 178.2 128.0 178.2 128.2 178.0 M 129.6 168.3 C 129.4 168.4 129.4 168.4 129.6 168.3 M 142.1 187.0 C 142.2 187.1 142.2 187.1 142.1 187.0 M 135.7 185.4 C 137.9 187.9 134.2 185.6 135.7 185.4 M 127.4 185.1 C 127.4 186.5 125.8 183.4 127.4 185.1 M 140.6 184.8 C 142.9 186.7 137.5 186.7 140.6 184.8 M 134.5 184.9 C 134.7 184.9 134.7 184.9 134.5 184.9 C 134.5 184.9 134.5 184.9 134.5 184.9 Z M 143.0 189.4 C 142.9 189.4 142.9 189.4 143.0 189.4 C 143.0 189.4 143.0 189.4 143.0 189.4 Z M 143.9 189.3 C 143.8 189.3 143.8 189.3 143.9 189.3 C 143.9 189.3 143.9 189.3 143.9 189.3 Z M 143.4 184.6 C 143.3 184.6 143.3 184.6 143.4 184.6 C 143.4 184.6 143.4 184.6 143.4 184.6 Z M 123.1 171.4 C 123.0 173.6 122.8 169.6 123.1 171.4 C 123.1 171.4 123.1 171.4 123.1 171.4 Z M 129.9 179.8 C 129.7 182.9 127.7 178.8 129.9 179.8 C 129.9 179.8 129.9 179.8 129.9 179.8 Z M 129.9 184.1 C 129.9 184.1 129.9 184.1 129.9 184.1 C 129.9 184.1 129.9 184.1 129.9 184.1 Z M 139.2 183.6 C 139.2 183.7 139.2 183.7 139.2 183.6 C 139.2 183.6 139.2 183.6 139.2 183.6 Z M 122.9 172.5 C 122.8 172.5 122.8 172.5 122.9 172.5 C 122.9 172.5 122.9 172.5 122.9 172.5 Z M 149.8 185.6 C 149.8 185.7 149.8 185.7 149.8 185.6 C 149.8 185.6 149.8 185.6 149.8 185.6 Z M 136.7 189.6 C 137.7 188.9 136.9 190.3 136.7 189.6 C 136.7 189.6 136.7 189.6 136.7 189.6 Z M 140.2 189.7 C 140.3 189.7 140.3 189.7 140.2 189.7 C 140.2 189.7 140.2 189.7 140.2 189.7 Z M 155.2 183.8 C 155.2 183.8 155.2 183.8 155.2 183.8 C 155.2 183.8 155.2 183.8 155.2 183.8 Z M 148.8 191.5 C 148.9 191.5 148.9 191.5 148.8 191.5 C 148.8 191.5 148.8 191.5 148.8 191.5 Z M 151.7 189.2 C 151.6 189.3 151.6 189.3 151.7 189.2 C 151.7 189.2 151.7 189.2 151.7 189.2 Z M 142.8 185.0 C 146.2 184.7 142.0 185.9 142.8 185.0 C 142.8 185.0 142.8 185.0 142.8 185.0 Z M 160.0 188.6 C 160.1 188.7 160.1 188.7 160.0 188.6 C 160.0 188.6 160.0 188.6 160.0 188.6 Z M 161.7 185.9 C 161.8 186.0 161.8 186.0 161.7 185.9 C 161.7 185.9 161.7 185.9 161.7 185.9 Z M 162.6 184.5 C 162.7 184.6 162.7 184.6 162.6 184.5 C 162.6 184.5 162.6 184.5 162.6 184.5 Z M 125.3 178.6 C 125.4 178.5 125.4 178.5 125.3 178.6 C 125.3 178.6 125.3 178.6 125.3 178.6 Z M 129.5 176.8 C 129.5 176.7 129.5 176.7 129.5 176.8 C 129.5 176.8 129.5 176.8 129.5 176.8 Z M 130.6 179.6 C 130.6 179.6 130.6 179.6 130.6 179.6 C 130.6 179.6 130.6 179.6 130.6 179.6 Z M 122.6 178.2 C 122.6 178.1 122.6 178.1 122.6 178.2 C 122.6 178.2 122.6 178.2 122.6 178.2 Z M 137.8 187.3 C 137.7 187.2 137.7 187.2 137.8 187.3 C 137.8 187.3 137.8 187.3 137.8 187.3 Z M 139.4 189.1 C 139.3 189.0 139.3 189.0 139.4 189.1 C 139.4 189.1 139.4 189.1 139.4 189.1 Z M 134.7 191.2 C 134.7 191.1 134.7 191.1 134.7 191.2 C 134.7 191.2 134.7 191.2 134.7 191.2 Z M 140.6 190.6 C 140.6 190.6 140.6 190.6 140.6 190.6 C 140.6 190.6 140.6 190.6 140.6 190.6 Z M 123.2 166.1 C 123.1 166.1 123.1 166.1 123.2 166.1 C 123.2 166.1 123.2 166.1 123.2 166.1 Z M 126.6 165.8 C 126.4 165.7 126.4 165.7 126.6 165.8 C 126.6 165.8 126.6 165.8 126.6 165.8 Z M 138.3 184.9 C 139.1 184.1 139.8 185.8 138.3 184.9 M 133.1 184.2 C 133.0 184.2 133.0 184.2 133.1 184.2 C 133.1 184.2 133.1 184.2 133.1 184.2 Z M 149.3 185.0 C 150.1 186.3 146.2 184.3 149.3 185.0 C 149.3 185.0 149.3 185.0 149.3 185.0 Z M 145.8 190.6 C 145.9 190.6 145.9 190.6 145.8 190.6 C 145.8 190.6 145.8 190.6 145.8 190.6 Z M 147.5 190.0 C 147.6 190.2 147.6 190.2 147.5 190.0 C 147.5 190.0 147.5 190.0 147.5 190.0 Z M 157.0 186.4 C 157.1 186.5 157.1 186.5 157.0 186.4 M 133.1 182.8 C 133.4 183.7 133.3 183.5 133.1 182.8 M 151.5 185.0 C 151.4 185.1 151.4 185.1 151.5 185.0 C 151.5 185.0 151.5 185.0 151.5 185.0 Z M 159.1 185.7 C 159.0 185.7 159.0 185.7 159.1 185.7 C 159.1 185.7 159.1 185.7 159.1 185.7 Z M 130.1 181.2 C 128.9 182.3 128.8 181.5 130.1 181.2 M 127.9 170.3 C 127.8 170.3 127.8 170.3 127.9 170.3 C 127.9 170.3 127.9 170.3 127.9 170.3 Z M 169.4 184.5 C 165.9 182.7 165.9 185.2 165.9 185.3 C 166.3 181.9 162.7 186.6 163.4 187.3 C 163.3 187.8 166.0 193.7 168.5 190.1 C 169.2 189.7 169.6 190.7 170.1 190.8 C 174.4 190.6 167.1 188.9 172.4 188.9 C 173.3 189.4 172.2 192.2 175.3 190.3 C 175.5 190.6 179.0 191.6 177.7 190.3 C 179.4 191.6 180.5 190.1 182.0 189.7 C 183.5 190.5 180.8 191.8 185.9 190.2 C 188.1 192.6 188.9 188.5 190.9 191.1 C 192.2 191.1 194.1 186.9 191.1 189.3 C 191.6 189.0 189.7 187.0 193.7 187.7 C 193.1 188.3 190.9 192.6 197.3 190.5 C 198.3 190.6 200.7 189.5 201.3 190.0 C 198.0 190.5 205.7 191.9 204.9 190.6 C 210.0 191.5 207.1 189.5 210.7 191.0 C 213.7 191.0 209.7 189.1 213.5 190.2 C 216.3 190.0 214.4 191.0 214.1 191.0 C 216.5 191.2 217.4 190.4 218.2 190.4 C 218.8 190.7 219.9 191.5 220.5 190.5 C 223.0 188.5 220.7 186.6 221.8 184.6 C 219.9 183.7 221.0 186.1 219.7 184.6 C 218.8 185.9 219.6 184.5 214.4 184.8 C 214.6 185.1 215.8 186.0 214.6 186.1 C 212.6 185.9 214.0 182.6 210.7 185.0 C 214.6 185.7 205.2 186.0 208.9 186.7 C 204.4 187.1 207.6 186.4 204.3 185.7 C 204.5 187.9 204.1 183.3 202.8 185.1 C 202.5 184.1 197.4 184.5 201.1 185.9 C 195.8 186.5 199.1 185.2 197.2 184.1 C 194.8 183.9 197.0 187.7 195.5 184.9 C 192.3 183.7 195.4 186.3 193.1 184.1 C 194.1 186.0 190.7 184.1 191.6 186.2 C 186.1 186.4 192.3 184.0 188.4 185.4 C 189.6 185.5 189.1 182.7 186.8 184.5 C 187.8 187.8 183.7 181.6 185.4 186.0 C 177.8 187.2 184.1 184.2 180.0 184.2 C 178.9 184.2 181.1 185.6 180.2 185.6 C 174.8 185.0 179.2 183.9 176.4 186.0 C 171.1 186.5 174.9 184.2 172.2 184.0 C 172.0 185.0 169.9 186.8 169.4 184.5 M 174.2 185.5 C 175.3 184.9 174.9 186.2 174.2 185.5 M 163.5 184.5 C 164.6 183.8 164.1 185.2 163.5 184.5 M 178.6 184.9 C 180.1 184.2 179.0 186.0 178.6 184.9 M 207.3 186.0 C 205.3 186.0 208.2 185.4 207.3 186.0 M 167.7 184.4 C 169.3 183.6 168.2 185.6 167.7 184.4 M 165.8 186.1 C 165.9 186.1 165.9 186.1 165.8 186.1 M 210.1 184.2 C 210.2 184.2 210.2 184.2 210.1 184.2 M 202.4 184.2 C 204.1 184.2 201.5 184.6 202.4 184.2 M 202.2 191.3 C 203.8 191.4 201.2 191.8 202.2 191.3 M 214.3 184.1 C 216.0 183.6 214.8 184.9 214.3 184.1 M 218.6 185.7 C 220.1 185.0 219.6 186.4 218.6 185.7 M 173.2 188.0 C 173.2 188.1 173.2 188.1 173.2 188.0 C 173.2 188.0 173.2 188.0 173.2 188.0 Z M 187.3 189.8 C 185.6 189.1 189.4 190.7 187.3 189.8 M 184.7 185.1 C 185.9 186.6 182.5 185.0 184.7 185.1 C 184.7 185.1 184.7 185.1 184.7 185.1 Z M 182.3 185.8 C 182.2 185.9 182.2 185.9 182.3 185.8 C 182.3 185.8 182.3 185.8 182.3 185.8 Z M 190.2 185.9 C 190.1 185.9 190.1 185.9 190.2 185.9 C 190.2 185.9 190.2 185.9 190.2 185.9 Z M 188.6 186.0 C 187.9 186.3 187.7 185.7 188.6 186.0 C 188.6 186.0 188.6 186.0 188.6 186.0 Z M 200.2 190.6 C 199.5 190.9 199.3 190.3 200.2 190.6 C 200.2 190.6 200.2 190.6 200.2 190.6 Z M 186.1 186.5 C 185.9 188.0 184.9 185.5 186.1 186.5 C 186.1 186.5 186.1 186.5 186.1 186.5 Z M 194.6 190.0 C 195.3 189.6 196.1 191.3 194.6 190.0 M 211.8 184.5 C 212.5 184.1 213.2 185.8 211.8 184.5 M 194.9 184.0 C 195.6 183.7 196.4 185.4 194.9 184.0 M 175.1 184.9 C 175.3 185.1 175.3 185.1 175.1 184.9 M 184.4 191.2 C 185.5 190.7 185.0 191.9 184.4 191.2 M 168.6 190.7 C 169.7 190.2 169.1 191.4 168.6 190.7 M 209.4 191.2 C 209.3 190.8 211.1 191.4 209.4 191.2 M 196.9 186.4 C 198.4 186.6 199.9 187.3 196.8 187.2 C 196.6 186.9 197.5 186.7 196.9 186.4 C 196.9 186.4 196.9 186.4 196.9 186.4 Z M 202.2 189.7 C 202.4 189.8 202.4 189.8 202.2 189.7 M 199.5 185.0 C 199.7 185.2 199.7 185.2 199.5 185.0 M 208.1 185.2 C 208.3 185.4 208.3 185.4 208.1 185.2 M 209.2 184.8 C 209.2 184.8 209.2 184.8 209.2 184.8 C 209.2 184.8 209.2 184.8 209.2 184.8 Z M 218.7 184.2 C 218.7 184.2 218.7 184.2 218.7 184.2 C 218.7 184.2 218.7 184.2 218.7 184.2 Z M 205.4 185.4 C 205.4 185.4 205.4 185.4 205.4 185.4 C 205.4 185.4 205.4 185.4 205.4 185.4 Z M 213.2 190.9 C 213.2 191.0 213.2 191.0 213.2 190.9 C 213.2 190.9 213.2 190.9 213.2 190.9 Z M 212.2 190.0 C 212.2 190.1 212.2 190.1 212.2 190.0 C 212.2 190.0 212.2 190.0 212.2 190.0 Z M 170.2 184.5 C 171.5 183.5 170.9 187.0 170.2 184.5 M 216.4 190.0 C 217.7 191.0 214.2 190.2 216.4 190.0 C 216.4 190.0 216.4 190.0 216.4 190.0 Z M 204.3 186.6 C 204.5 186.8 204.5 186.8 204.3 186.6 M 209.8 184.9 C 209.9 185.1 209.9 185.1 209.8 184.9 M 184.7 183.8 C 184.8 184.0 184.8 184.0 184.7 183.8 M 216.4 185.2 C 220.4 185.5 214.6 187.2 216.4 185.2 M 182.8 185.2 C 182.7 185.1 182.7 185.1 182.8 185.2 M 191.9 187.9 C 194.6 187.8 190.9 188.7 191.9 187.9 M 198.7 186.1 C 198.7 186.1 198.7 186.1 198.7 186.1 C 198.7 186.1 198.7 186.1 198.7 186.1 Z M 194.7 186.1 C 192.8 186.3 194.2 185.7 194.7 186.1 C 194.7 186.1 194.7 186.1 194.7 186.1 Z M 172.1 185.8 C 174.6 186.0 169.5 186.3 172.1 185.8 C 172.1 185.8 172.1 185.8 172.1 185.8 Z M 214.6 188.6 C 214.5 188.7 214.5 188.7 214.6 188.6 C 214.6 188.6 214.6 188.6 214.6 188.6 Z M 204.9 184.3 C 203.7 184.7 204.3 183.9 204.9 184.3 C 204.9 184.3 204.9 184.3 204.9 184.3 Z M 220.1 184.2 C 218.9 184.5 219.5 183.7 220.1 184.2 C 220.1 184.2 220.1 184.2 220.1 184.2 Z M 169.0 185.6 C 178.4 188.0 156.6 185.0 169.0 185.6 C 169.0 185.6 169.0 185.6 169.0 185.6 Z M 196.3 185.1 C 196.3 185.2 196.3 185.2 196.3 185.1 C 196.3 185.1 196.3 185.1 196.3 185.1 Z M 179.1 184.1 C 179.0 184.1 179.0 184.1 179.1 184.1 C 179.1 184.1 179.1 184.1 179.1 184.1 Z M 176.2 185.4 C 176.1 185.5 176.1 185.5 176.2 185.4 C 176.2 185.4 176.2 185.4 176.2 185.4 Z M 177.0 191.1 C 177.0 191.2 177.0 191.2 177.0 191.1 C 177.0 191.1 177.0 191.1 177.0 191.1 Z M 178.0 188.5 C 177.9 188.7 177.9 188.7 178.0 188.5 C 178.0 188.5 178.0 188.5 178.0 188.5 Z M 172.0 189.5 C 171.9 189.6 171.9 189.6 172.0 189.5 C 172.0 189.5 172.0 189.5 172.0 189.5 Z M 172.1 190.2 C 172.1 190.3 172.1 190.3 172.1 190.2 C 172.1 190.2 172.1 190.2 172.1 190.2 Z M 209.8 186.5 C 209.7 186.6 209.7 186.6 209.8 186.5 C 209.8 186.5 209.8 186.5 209.8 186.5 Z M 206.5 188.9 C 208.7 188.0 205.9 190.1 206.5 188.9 C 206.5 188.9 206.5 188.9 206.5 188.9 Z M 187.3 187.7 C 189.3 187.4 186.0 188.4 187.3 187.7 C 187.3 187.7 187.3 187.7 187.3 187.7 Z M 189.4 190.8 C 189.5 190.8 189.5 190.8 189.4 190.8 C 189.4 190.8 189.4 190.8 189.4 190.8 Z M 176.2 184.0 C 176.1 184.2 176.1 184.2 176.2 184.0 C 176.2 184.0 176.2 184.0 176.2 184.0 Z M 172.5 185.0 C 172.4 186.2 171.4 184.4 172.5 185.0 M 191.0 184.3 C 191.0 184.4 191.0 184.4 191.0 184.3 C 191.0 184.3 191.0 184.3 191.0 184.3 Z M 202.7 186.2 C 202.7 186.3 202.7 186.3 202.7 186.2 C 202.7 186.2 202.7 186.2 202.7 186.2 Z M 214.3 185.4 C 214.2 185.6 214.2 185.6 214.3 185.4 C 214.3 185.4 214.3 185.4 214.3 185.4 Z M 198.3 184.5 C 198.2 184.6 198.2 184.6 198.3 184.5 C 198.3 184.5 198.3 184.5 198.3 184.5 Z M 192.7 185.6 C 192.7 185.7 192.7 185.7 192.7 185.6 C 192.7 185.6 192.7 185.6 192.7 185.6 Z M 216.8 187.1 C 216.8 187.2 216.8 187.2 216.8 187.1 C 216.8 187.1 216.8 187.1 216.8 187.1 Z M 199.6 184.3 C 199.5 184.3 199.5 184.3 199.6 184.3 C 199.6 184.3 199.6 184.3 199.6 184.3 Z M 202.9 188.1 C 202.8 188.2 202.8 188.2 202.9 188.1 C 202.9 188.1 202.9 188.1 202.9 188.1 Z M 173.0 183.3 C 173.0 183.3 173.0 183.3 173.0 183.3 C 173.0 183.3 173.0 183.3 173.0 183.3 Z M 217.0 185.5 C 216.9 185.6 216.9 185.6 217.0 185.5 C 217.0 185.5 217.0 185.5 217.0 185.5 Z M 217.7 184.4 C 217.6 184.5 217.6 184.5 217.7 184.4 C 217.7 184.4 217.7 184.4 217.7 184.4 Z M 209.5 190.1 C 205.4 189.5 213.1 189.9 210.1 188.6 C 216.0 188.2 210.3 190.2 209.5 190.1 C 209.5 190.1 209.5 190.1 209.5 190.1 Z M 223.2 184.0 C 220.9 185.6 220.9 187.2 221.9 188.8 C 223.0 189.7 223.0 186.4 223.0 189.2 C 220.4 189.7 224.1 193.3 224.1 189.8 C 227.5 189.3 224.6 192.0 226.7 190.6 C 230.3 190.3 228.5 191.3 231.3 191.1 C 232.9 189.2 233.6 191.9 234.1 190.0 C 232.8 192.3 237.4 188.4 237.9 189.2 C 236.7 190.4 239.6 189.2 241.3 187.5 C 243.0 185.8 243.8 184.5 240.6 186.8 C 242.5 184.0 243.0 185.5 243.9 184.7 C 243.8 182.8 247.4 179.7 246.4 177.4 C 246.1 177.8 245.9 178.8 245.4 179.0 C 244.6 179.4 245.9 176.7 245.8 177.0 C 245.7 176.3 245.3 174.9 245.2 174.2 C 245.1 173.6 245.3 172.9 246.3 176.0 C 247.3 176.3 245.9 172.2 246.8 172.3 C 246.8 168.2 244.9 171.3 246.3 169.5 C 246.3 166.5 246.3 164.4 246.1 164.4 C 246.3 162.7 247.4 162.3 246.3 160.7 C 248.4 157.1 242.3 158.2 246.4 156.8 C 245.4 155.8 248.1 154.8 245.6 155.0 C 246.7 156.2 247.6 148.9 245.7 152.0 C 245.1 151.2 248.3 146.6 245.7 147.3 C 243.8 145.6 242.0 145.9 240.2 149.5 C 241.6 149.1 238.6 153.3 241.2 150.6 C 242.0 147.5 242.1 156.3 241.2 154.4 C 238.1 153.9 243.0 158.6 240.9 160.5 C 242.1 159.0 242.7 166.1 240.4 164.0 C 240.2 165.3 241.3 165.6 240.0 167.1 C 240.2 162.8 242.4 168.7 241.0 168.5 C 240.1 167.7 239.4 174.1 240.7 173.4 C 243.8 171.2 240.1 175.2 241.3 176.1 C 241.9 179.1 238.9 175.3 240.7 177.8 C 240.2 178.2 239.0 181.3 239.2 179.2 C 239.8 178.6 241.0 182.9 238.7 181.5 C 239.2 179.6 238.4 180.4 237.6 181.4 C 236.9 182.4 235.7 183.5 236.4 183.5 C 239.2 182.6 238.3 183.7 236.7 184.7 C 235.1 185.7 233.2 186.0 235.1 184.4 C 232.1 184.1 236.0 184.1 232.6 185.1 C 233.2 185.9 230.1 186.8 230.9 185.1 C 230.2 182.6 229.8 188.5 227.2 185.0 C 226.8 183.5 222.0 186.1 223.9 184.5 C 224.0 184.3 223.3 184.0 223.2 184.0 M 224.7 184.3 C 224.1 184.8 223.8 183.6 224.7 184.3 M 224.1 184.8 C 224.0 184.8 224.0 184.8 224.1 184.8 C 224.1 184.8 224.1 184.8 224.1 184.8 Z M 232.1 185.2 C 232.1 185.1 232.1 185.1 232.1 185.2 C 232.1 185.2 232.1 185.2 232.1 185.2 Z M 240.5 188.8 C 240.4 188.8 240.4 188.8 240.5 188.8 C 240.5 188.8 240.5 188.8 240.5 188.8 Z M 236.3 184.1 C 236.3 184.2 236.3 184.2 236.3 184.1 C 236.3 184.1 236.3 184.1 236.3 184.1 Z M 229.3 185.6 C 229.3 185.6 229.3 185.6 229.3 185.6 C 229.3 185.6 229.3 185.6 229.3 185.6 Z M 235.6 183.5 C 236.3 184.2 234.1 183.5 235.6 183.3 C 235.6 183.4 235.4 183.5 235.6 183.5 M 238.8 179.9 C 238.9 179.9 238.9 179.9 238.8 179.9 M 247.3 166.2 C 247.4 166.1 247.4 166.1 247.3 166.2 M 239.8 164.9 C 239.9 164.7 239.9 164.7 239.8 164.9 M 240.8 174.8 C 240.7 172.6 241.3 174.2 240.8 174.8 M 240.3 159.1 C 239.7 161.9 239.8 156.2 240.3 159.1 M 239.7 156.5 C 239.8 156.2 239.8 156.2 239.7 156.5 M 240.1 168.8 C 240.2 168.9 240.2 168.9 240.1 168.8 C 240.1 168.8 240.1 168.8 240.1 168.8 Z M 240.4 175.7 C 239.9 178.5 239.5 172.8 240.4 175.7 M 232.8 184.2 C 233.9 183.6 233.0 185.4 232.8 184.2 M 230.0 184.8 C 230.0 184.9 230.0 184.9 230.0 184.8 C 230.0 184.8 230.0 184.8 230.0 184.8 Z M 240.2 163.5 C 240.3 163.6 240.3 163.6 240.2 163.5 C 240.2 163.5 240.2 163.5 240.2 163.5 Z M 240.1 160.4 C 240.1 160.5 240.1 160.5 240.1 160.4 C 240.1 160.4 240.1 160.4 240.1 160.4 Z M 247.0 155.1 C 247.1 155.2 247.1 155.2 247.0 155.1 C 247.0 155.1 247.0 155.1 247.0 155.1 Z M 232.4 187.7 C 230.2 187.4 234.1 185.2 234.1 186.9 C 234.4 187.6 232.7 187.5 232.4 187.7 M 242.4 177.7 C 244.8 177.5 238.9 179.1 242.4 177.7 M 241.3 156.1 C 244.1 154.0 239.3 158.8 241.3 156.1 M 240.8 151.8 C 241.4 150.5 241.1 159.8 240.4 153.3 C 239.9 152.7 240.5 152.2 240.8 151.8 M 239.8 180.4 C 241.2 180.6 238.1 182.4 239.8 180.4 M 244.9 168.7 C 244.1 167.6 243.3 164.9 244.8 166.1 C 246.6 166.1 245.6 169.9 244.9 168.7 M 225.3 185.6 C 227.1 183.5 225.3 187.4 225.3 185.6 M 233.4 185.7 C 233.4 185.6 233.4 185.6 233.4 185.7 C 233.4 185.7 233.4 185.7 233.4 185.7 Z M 235.8 184.5 C 236.0 184.6 236.0 184.6 235.8 184.5 M 226.7 183.8 C 226.8 183.9 226.8 183.9 226.7 183.8 M 242.7 168.7 C 242.9 168.6 242.9 168.6 242.7 168.7 M 241.3 175.4 C 243.4 172.2 241.8 177.1 241.3 175.4 M 242.8 183.8 C 244.2 183.5 241.5 185.7 242.8 183.8 M 240.6 170.2 C 242.5 167.9 242.4 173.3 240.6 170.2 M 241.1 176.8 C 241.1 176.7 241.1 176.7 241.1 176.8 C 241.1 176.8 241.1 176.8 241.1 176.8 Z M 245.1 167.8 C 245.2 167.9 245.2 167.9 245.1 167.8 C 245.1 167.8 245.1 167.8 245.1 167.8 Z M 245.0 166.9 C 245.1 167.0 245.1 167.0 245.0 166.9 C 245.0 166.9 245.0 166.9 245.0 166.9 Z M 240.3 167.4 C 240.4 167.5 240.4 167.5 240.3 167.4 C 240.3 167.4 240.3 167.4 240.3 167.4 Z M 229.8 190.3 C 232.0 190.4 228.0 190.6 229.8 190.3 C 229.8 190.3 229.8 190.3 229.8 190.3 Z M 237.1 182.5 C 240.1 182.0 236.6 184.8 237.1 182.5 C 237.1 182.5 237.1 182.5 237.1 182.5 Z M 241.3 181.5 C 241.4 181.6 241.4 181.6 241.3 181.5 C 241.3 181.5 241.3 181.5 241.3 181.5 Z M 239.3 171.6 C 239.5 171.6 239.5 171.6 239.3 171.6 C 239.3 171.6 239.3 171.6 239.3 171.6 Z M 230.9 190.5 C 230.9 190.6 230.9 190.6 230.9 190.5 C 230.9 190.5 230.9 190.5 230.9 190.5 Z M 241.4 161.0 C 241.5 161.0 241.5 161.0 241.4 161.0 C 241.4 161.0 241.4 161.0 241.4 161.0 Z M 245.4 173.9 C 244.7 173.1 246.1 173.8 245.4 173.9 C 245.4 173.9 245.4 173.9 245.4 173.9 Z M 245.5 170.6 C 245.4 170.5 245.4 170.5 245.5 170.6 C 245.5 170.6 245.5 170.6 245.5 170.6 Z M 239.6 155.6 C 239.6 155.5 239.6 155.5 239.6 155.6 C 239.6 155.6 239.6 155.6 239.6 155.6 Z M 247.3 162.0 C 247.3 161.9 247.3 161.9 247.3 162.0 C 247.3 162.0 247.3 162.0 247.3 162.0 Z M 245.0 159.1 C 245.0 159.2 245.0 159.2 245.0 159.1 C 245.0 159.1 245.0 159.1 245.0 159.1 Z M 240.8 168.0 C 240.4 164.6 241.7 168.8 240.8 168.0 C 240.8 168.0 240.8 168.0 240.8 168.0 Z M 244.4 150.8 C 244.5 150.7 244.5 150.7 244.4 150.8 C 244.4 150.8 244.4 150.8 244.4 150.8 Z M 241.7 149.1 C 241.8 149.0 241.8 149.0 241.7 149.1 C 241.7 149.1 241.7 149.1 241.7 149.1 Z M 240.2 148.2 C 240.4 148.1 240.4 148.1 240.2 148.2 C 240.2 148.2 240.2 148.2 240.2 148.2 Z M 237.0 187.2 C 236.9 187.1 236.9 187.1 237.0 187.2 C 237.0 187.2 237.0 187.2 237.0 187.2 Z M 234.3 183.6 C 234.3 183.5 234.3 183.5 234.3 183.6 C 234.3 183.6 234.3 183.6 234.3 183.6 Z M 236.8 181.9 C 236.8 181.9 236.8 181.9 236.8 181.9 C 236.8 181.9 236.8 181.9 236.8 181.9 Z M 237.2 190.0 C 237.1 190.0 237.1 190.0 237.2 190.0 C 237.2 190.0 237.2 190.0 237.2 190.0 Z M 243.1 173.0 C 243.0 173.1 243.0 173.1 243.1 173.0 C 243.1 173.0 243.1 173.0 243.1 173.0 Z M 244.8 171.4 C 244.8 171.5 244.8 171.5 244.8 171.4 C 244.8 171.4 244.8 171.4 244.8 171.4 Z M 247.2 175.4 C 247.2 175.4 247.2 175.4 247.2 175.4 C 247.2 175.4 247.2 175.4 247.2 175.4 Z M 246.4 170.2 C 246.3 170.2 246.3 170.2 246.4 170.2 C 246.4 170.2 246.4 170.2 246.4 170.2 Z M 224.5 190.2 C 224.5 190.2 224.5 190.2 224.5 190.2 C 224.5 190.2 224.5 190.2 224.5 190.2 Z M 224.2 186.8 C 224.1 187.0 224.1 187.0 224.2 186.8 C 224.2 186.8 224.2 186.8 224.2 186.8 Z M 240.6 172.5 C 239.9 171.7 241.6 170.9 240.6 172.5 M 240.7 178.4 C 240.8 178.5 240.8 178.5 240.7 178.4 C 240.7 178.4 240.7 178.4 240.7 178.4 Z M 240.8 161.5 C 242.1 160.7 240.1 164.6 240.8 161.5 C 240.8 161.5 240.8 161.5 240.8 161.5 Z M 246.4 165.0 C 246.4 164.9 246.4 164.9 246.4 165.0 C 246.4 165.0 246.4 165.0 246.4 165.0 Z M 245.8 163.3 C 245.9 163.1 245.9 163.1 245.8 163.3 C 245.8 163.3 245.8 163.3 245.8 163.3 Z M 242.2 153.8 C 242.3 153.6 242.3 153.6 242.2 153.8 M 239.4 178.7 C 240.2 178.2 240.0 178.3 239.4 178.7 M 240.8 159.3 C 240.8 159.4 240.8 159.4 240.8 159.3 C 240.8 159.3 240.8 159.3 240.8 159.3 Z M 241.4 151.7 C 241.5 151.8 241.5 151.8 241.4 151.7 C 241.4 151.7 241.4 151.7 241.4 151.7 Z M 238.5 182.0 C 239.8 182.9 239.0 183.2 238.5 182.0 M 228.7 185.5 C 228.7 185.6 228.7 185.6 228.7 185.5 C 228.7 185.5 228.7 185.5 228.7 185.5 Z M 240.3 141.4 C 238.5 144.9 241.0 144.9 241.1 144.9 C 237.7 144.5 242.4 148.1 243.1 147.4 C 243.5 147.5 249.5 144.7 245.9 142.3 C 245.4 141.6 246.5 141.2 246.6 140.7 C 246.4 136.4 244.7 143.7 244.7 138.4 C 245.2 137.5 248.0 138.5 246.1 135.4 C 246.3 135.3 247.4 131.8 246.1 133.1 C 247.4 131.4 245.8 130.3 245.5 128.8 C 246.3 127.3 247.6 129.9 246.0 124.8 C 248.3 122.7 244.3 121.9 246.8 119.9 C 246.9 118.6 242.7 116.7 245.1 119.6 C 244.8 119.2 242.8 121.1 243.5 117.1 C 244.1 117.6 248.4 119.9 246.3 113.5 C 246.4 112.5 245.3 110.1 245.8 109.5 C 246.3 112.8 247.7 105.1 246.4 105.8 C 247.3 100.8 245.3 103.7 246.8 100.1 C 246.8 97.1 244.8 101.0 246.0 97.3 C 245.7 94.5 246.8 96.4 246.7 96.7 C 247.0 94.3 246.2 93.4 246.2 92.5 C 246.4 92.0 247.3 90.4 246.1 89.8 C 243.7 86.9 242.2 90.0 240.1 89.7 C 239.5 91.3 241.8 90.2 240.4 91.3 C 241.7 91.9 240.3 91.2 240.6 96.3 C 240.9 96.2 241.7 95.0 241.9 96.2 C 241.7 98.2 238.4 96.8 240.7 100.1 C 241.4 96.2 241.8 105.5 242.5 101.9 C 242.9 106.4 242.2 103.2 241.4 106.5 C 243.7 106.3 239.0 106.7 240.8 107.9 C 239.9 108.2 240.3 113.4 241.7 109.7 C 242.3 115.0 241.0 111.7 239.8 113.6 C 239.7 116.0 243.4 113.7 240.7 115.3 C 239.5 118.5 242.1 115.4 239.9 117.7 C 241.8 116.7 239.9 120.1 242.0 119.2 C 242.1 124.7 239.8 118.5 241.2 122.4 C 241.3 121.2 238.5 121.6 240.3 124.0 C 243.6 123.0 237.4 127.1 241.8 125.4 C 243.0 133.0 239.9 126.6 239.9 130.8 C 239.9 131.9 241.4 129.7 241.4 130.6 C 240.8 136.0 239.6 131.5 241.8 134.4 C 242.3 139.7 239.9 135.9 239.8 138.5 C 240.8 138.7 242.5 140.9 240.3 141.4 M 241.3 136.6 C 240.6 135.5 242.0 135.9 241.3 136.6 M 240.3 147.3 C 239.6 146.2 241.0 146.7 240.3 147.3 M 240.7 132.2 C 240.0 130.7 241.8 131.7 240.7 132.2 M 241.7 103.5 C 241.7 105.5 241.2 102.6 241.7 103.5 M 240.2 143.1 C 239.3 141.5 241.3 142.6 240.2 143.1 M 241.8 145.0 C 241.9 144.9 241.9 144.9 241.8 145.0 M 240.0 100.6 C 240.0 100.5 240.0 100.5 240.0 100.6 M 239.9 108.3 C 240.0 106.7 240.4 109.2 239.9 108.3 M 247.1 108.6 C 247.2 107.0 247.6 109.6 247.1 108.6 M 239.9 96.4 C 239.3 94.8 240.7 96.0 239.9 96.4 M 241.4 92.2 C 240.8 90.7 242.2 91.2 241.4 92.2 M 243.8 137.6 C 243.9 137.6 243.9 137.6 243.8 137.6 C 243.8 137.6 243.8 137.6 243.8 137.6 Z M 245.6 123.5 C 244.9 125.1 246.5 121.4 245.6 123.5 M 240.9 126.1 C 242.4 124.9 240.8 128.3 240.9 126.1 C 240.9 126.1 240.9 126.1 240.9 126.1 Z M 241.6 128.5 C 241.6 128.6 241.6 128.6 241.6 128.5 C 241.6 128.5 241.6 128.5 241.6 128.5 Z M 241.6 120.6 C 241.7 120.6 241.7 120.6 241.6 120.6 C 241.6 120.6 241.6 120.6 241.6 120.6 Z M 241.8 122.2 C 242.1 122.8 241.5 123.1 241.8 122.2 C 241.8 122.2 241.8 122.2 241.8 122.2 Z M 246.4 110.6 C 246.7 111.3 246.1 111.5 246.4 110.6 C 246.4 110.6 246.4 110.6 246.4 110.6 Z M 242.3 124.7 C 243.7 124.9 241.3 125.9 242.3 124.7 C 242.3 124.7 242.3 124.7 242.3 124.7 Z M 245.7 116.2 C 245.4 115.4 247.1 114.7 245.7 116.2 M 240.2 99.0 C 239.8 98.3 241.6 97.5 240.2 99.0 M 239.8 115.9 C 239.4 115.2 241.2 114.4 239.8 115.9 M 240.7 135.7 C 240.8 135.5 240.8 135.5 240.7 135.7 M 247.0 126.3 C 246.4 125.3 247.6 125.8 247.0 126.3 M 246.5 142.2 C 246.0 141.1 247.2 141.7 246.5 142.2 M 247.0 101.4 C 246.6 101.5 247.1 99.7 247.0 101.4 M 242.1 113.9 C 242.3 112.4 243.1 110.9 243.0 114.0 C 242.7 114.2 242.5 113.3 242.1 113.9 C 242.1 113.9 242.1 113.9 242.1 113.9 Z M 245.5 108.6 C 245.6 108.4 245.6 108.4 245.5 108.6 M 240.8 111.3 C 240.9 111.1 240.9 111.1 240.8 111.3 M 240.9 102.7 C 241.2 102.5 241.2 102.5 240.9 102.7 M 240.5 101.6 C 240.6 101.6 240.6 101.6 240.5 101.6 C 240.5 101.6 240.5 101.6 240.5 101.6 Z M 239.9 92.1 C 240.0 92.1 240.0 92.1 239.9 92.1 C 239.9 92.1 239.9 92.1 239.9 92.1 Z M 241.1 105.4 C 241.2 105.4 241.2 105.4 241.1 105.4 C 241.1 105.4 241.1 105.4 241.1 105.4 Z M 246.7 97.6 C 246.7 97.6 246.7 97.6 246.7 97.6 C 246.7 97.6 246.7 97.6 246.7 97.6 Z M 245.8 98.6 C 245.9 98.6 245.9 98.6 245.8 98.6 C 245.8 98.6 245.8 98.6 245.8 98.6 Z M 240.3 140.6 C 239.2 139.3 242.8 139.9 240.3 140.6 M 245.8 94.4 C 246.8 93.1 246.0 96.6 245.8 94.4 C 245.8 94.4 245.8 94.4 245.8 94.4 Z M 242.3 106.4 C 242.5 106.3 242.5 106.3 242.3 106.4 M 240.7 101.0 C 240.9 100.9 240.9 100.9 240.7 101.0 M 239.6 126.1 C 239.8 126.0 239.8 126.0 239.6 126.1 M 240.9 94.4 C 241.3 90.4 243.0 96.2 240.9 94.4 M 241.0 128.0 C 240.8 128.1 240.8 128.1 241.0 128.0 M 243.7 118.9 C 243.6 116.2 244.5 119.9 243.7 118.9 M 241.8 112.1 C 241.9 112.1 241.9 112.1 241.8 112.1 C 241.8 112.1 241.8 112.1 241.8 112.1 Z M 241.8 116.1 C 242.0 118.0 241.4 116.6 241.8 116.1 C 241.8 116.1 241.8 116.1 241.8 116.1 Z M 241.6 138.7 C 241.8 136.2 242.1 141.3 241.6 138.7 C 241.6 138.7 241.6 138.7 241.6 138.7 Z M 244.3 96.2 C 244.4 96.3 244.4 96.3 244.3 96.2 C 244.3 96.2 244.3 96.2 244.3 96.2 Z M 240.1 105.9 C 240.5 107.1 239.7 106.5 240.1 105.9 C 240.1 105.9 240.1 105.9 240.1 105.9 Z M 239.9 91.1 C 240.3 91.9 239.5 91.5 239.9 91.1 C 239.9 91.1 239.9 91.1 239.9 91.1 Z M 241.4 141.8 C 243.8 132.4 240.7 154.2 241.4 141.8 C 241.4 141.8 241.4 141.8 241.4 141.8 Z M 240.8 114.5 C 240.9 114.5 240.9 114.5 240.8 114.5 C 240.8 114.5 240.8 114.5 240.8 114.5 Z M 239.8 131.7 C 239.9 131.7 239.9 131.7 239.8 131.7 C 239.8 131.7 239.8 131.7 239.8 131.7 Z M 241.2 134.6 C 241.2 134.7 241.2 134.7 241.2 134.6 C 241.2 134.6 241.2 134.6 241.2 134.6 Z M 246.9 133.8 C 246.9 133.8 246.9 133.8 246.9 133.8 C 246.9 133.8 246.9 133.8 246.9 133.8 Z M 244.2 132.8 C 244.4 132.9 244.4 132.9 244.2 132.8 C 244.2 132.8 244.2 132.8 244.2 132.8 Z M 245.2 138.8 C 245.3 138.9 245.3 138.9 245.2 138.8 C 245.2 138.8 245.2 138.8 245.2 138.8 Z M 246.0 138.7 C 246.0 138.7 246.0 138.7 246.0 138.7 C 246.0 138.7 246.0 138.7 246.0 138.7 Z M 242.3 101.0 C 242.4 101.1 242.4 101.1 242.3 101.0 C 242.3 101.0 242.3 101.0 242.3 101.0 Z M 244.6 104.2 C 243.8 102.1 245.9 104.9 244.6 104.2 C 244.6 104.2 244.6 104.2 244.6 104.2 Z M 243.5 123.5 C 243.2 121.5 244.2 124.8 243.5 123.5 C 243.5 123.5 243.5 123.5 243.5 123.5 Z M 246.6 121.4 C 246.6 121.3 246.6 121.3 246.6 121.4 C 246.6 121.4 246.6 121.4 246.6 121.4 Z M 239.8 134.6 C 239.9 134.7 239.9 134.7 239.8 134.6 C 239.8 134.6 239.8 134.6 239.8 134.6 Z M 240.8 138.3 C 242.0 138.4 240.2 139.4 240.8 138.3 M 240.1 119.8 C 240.2 119.8 240.2 119.8 240.1 119.8 C 240.1 119.8 240.1 119.8 240.1 119.8 Z M 242.0 108.1 C 242.0 108.1 242.0 108.1 242.0 108.1 C 242.0 108.1 242.0 108.1 242.0 108.1 Z M 241.2 96.5 C 241.3 96.6 241.3 96.6 241.2 96.5 C 241.2 96.5 241.2 96.5 241.2 96.5 Z M 240.2 112.5 C 240.4 112.6 240.4 112.6 240.2 112.5 C 240.2 112.5 240.2 112.5 240.2 112.5 Z M 241.3 118.0 C 241.5 118.1 241.5 118.1 241.3 118.0 C 241.3 118.0 241.3 118.0 241.3 118.0 Z M 242.9 93.9 C 242.9 94.0 242.9 94.0 242.9 93.9 C 242.9 93.9 242.9 93.9 242.9 93.9 Z M 240.1 111.2 C 240.1 111.3 240.1 111.3 240.1 111.2 C 240.1 111.2 240.1 111.2 240.1 111.2 Z M 243.9 107.9 C 244.0 108.0 244.0 108.0 243.9 107.9 C 243.9 107.9 243.9 107.9 243.9 107.9 Z M 239.1 137.7 C 239.1 137.8 239.1 137.8 239.1 137.7 C 239.1 137.7 239.1 137.7 239.1 137.7 Z M 241.3 93.8 C 241.3 93.9 241.3 93.9 241.3 93.8 C 241.3 93.8 241.3 93.8 241.3 93.8 Z M 240.2 93.1 C 240.3 93.2 240.3 93.2 240.2 93.1 C 240.2 93.1 240.2 93.1 240.2 93.1 Z M 245.9 101.3 C 245.2 105.4 245.6 97.7 244.3 100.6 C 244.0 94.8 246.0 100.5 245.9 101.3 C 245.9 101.3 245.9 101.3 245.9 101.3 Z M 239.2 89.0 C 241.3 89.9 242.8 90.1 244.1 88.6 C 244.6 87.2 241.5 88.3 244.1 87.3 C 245.6 89.8 247.2 84.3 244.1 85.9 C 241.9 82.6 245.8 83.9 243.1 82.9 C 241.6 81.2 241.2 80.9 241.0 80.5 C 240.8 80.1 240.8 79.6 239.2 78.8 C 236.4 79.5 237.5 77.0 236.1 78.5 C 238.4 77.1 232.5 78.3 232.4 77.4 C 234.1 76.9 231.1 76.8 229.2 77.0 C 227.3 77.2 225.8 77.7 229.2 78.0 C 226.5 78.9 227.0 77.2 226.0 77.0 C 224.9 78.2 221.5 76.1 219.9 77.2 C 220.2 77.5 221.0 77.6 221.3 78.0 C 221.8 78.7 219.4 77.8 219.6 77.8 C 218.5 78.3 214.1 79.5 218.8 77.4 C 219.0 76.4 215.0 77.8 215.1 77.0 C 211.0 76.9 214.1 78.9 212.3 77.4 C 209.4 77.4 207.3 77.4 207.3 77.6 C 205.5 77.4 205.1 76.3 203.5 77.4 C 200.0 75.3 201.0 81.4 199.7 77.3 C 198.6 78.3 197.7 75.6 197.8 78.2 C 199.0 77.0 191.7 76.2 194.9 78.0 C 194.0 78.6 189.4 75.4 190.1 78.0 C 188.4 79.9 188.7 81.8 192.3 83.6 C 191.9 82.1 196.1 85.1 193.4 82.6 C 190.3 81.7 199.1 81.7 197.2 82.6 C 196.8 85.6 201.5 80.7 203.3 82.9 C 201.8 81.7 208.9 81.1 206.8 83.3 C 208.2 83.5 208.5 82.4 209.9 83.7 C 205.7 83.5 211.6 81.4 211.3 82.7 C 210.6 83.6 216.9 84.3 216.3 83.0 C 214.1 79.9 217.9 83.7 219.0 82.4 C 222.5 81.8 218.5 85.1 221.1 82.8 C 221.8 83.2 226.4 83.2 223.5 83.8 C 222.4 83.5 226.2 80.4 226.7 83.1 C 221.8 84.6 232.5 83.9 230.8 83.1 C 226.9 82.4 229.0 81.9 231.2 81.9 C 233.5 81.8 235.1 82.5 232.7 82.9 C 235.2 84.7 231.9 82.8 235.1 83.5 C 235.0 82.6 237.8 83.1 236.4 84.2 C 236.0 85.4 236.6 84.8 237.4 84.4 C 238.1 84.1 239.2 84.2 238.6 86.1 C 237.6 87.3 241.5 88.9 239.4 88.4 C 239.2 88.4 239.1 89.0 239.2 89.0 M 239.0 88.0 C 239.7 88.0 238.7 88.9 239.0 88.0 M 239.7 88.1 C 239.7 88.2 239.7 88.2 239.7 88.1 C 239.7 88.1 239.7 88.1 239.7 88.1 Z M 235.6 83.6 C 235.6 83.7 235.6 83.7 235.6 83.6 C 235.6 83.6 235.6 83.6 235.6 83.6 Z M 230.3 76.4 C 230.3 76.5 230.3 76.5 230.3 76.4 C 230.3 76.4 230.3 76.4 230.3 76.4 Z M 231.3 82.6 C 231.4 82.6 231.4 82.6 231.3 82.6 C 231.3 82.6 231.3 82.6 231.3 82.6 Z M 237.8 84.5 C 237.8 84.5 237.8 84.5 237.8 84.5 C 237.8 84.5 237.8 84.5 237.8 84.5 Z M 231.8 83.5 C 231.5 82.6 233.2 84.2 231.7 83.7 C 231.6 83.6 231.9 83.6 231.8 83.5 M 224.7 83.9 C 224.6 83.8 224.6 83.8 224.7 83.9 M 209.0 76.5 C 208.9 76.3 208.9 76.3 209.0 76.5 M 207.7 84.0 C 207.5 83.8 207.5 83.8 207.7 84.0 M 217.6 82.9 C 215.4 83.0 217.1 82.5 217.6 82.9 M 202.0 83.4 C 204.7 84.0 199.0 83.9 202.0 83.4 M 199.3 84.0 C 199.1 83.9 199.1 83.9 199.3 84.0 M 211.7 83.6 C 211.7 83.5 211.7 83.5 211.7 83.6 C 211.7 83.6 211.7 83.6 211.7 83.6 Z M 218.5 83.3 C 221.4 83.8 215.6 84.2 218.5 83.3 M 234.6 84.2 C 233.4 84.2 235.0 83.0 234.6 84.2 M 236.9 84.8 C 236.9 84.8 236.9 84.8 236.9 84.8 C 236.9 84.8 236.9 84.8 236.9 84.8 Z M 206.4 83.5 C 206.5 83.5 206.5 83.5 206.4 83.5 C 206.4 83.5 206.4 83.5 206.4 83.5 Z M 203.2 83.6 C 203.3 83.6 203.3 83.6 203.2 83.6 C 203.2 83.6 203.2 83.6 203.2 83.6 Z M 198.0 76.7 C 198.1 76.7 198.1 76.7 198.0 76.7 C 198.0 76.7 198.0 76.7 198.0 76.7 Z M 236.6 81.3 C 238.3 82.6 233.9 82.8 234.8 81.2 C 234.7 80.5 236.3 81.3 236.6 81.3 M 220.6 81.2 C 220.1 78.8 222.7 84.4 220.6 81.2 M 198.9 82.4 C 196.8 79.6 201.6 84.4 198.9 82.4 M 194.6 82.9 C 193.3 82.4 202.6 82.6 196.1 83.3 C 195.5 83.8 195.0 83.2 194.6 82.9 M 224.6 82.7 C 224.0 81.4 228.0 83.3 224.6 82.7 M 211.5 78.8 C 210.5 79.7 207.7 80.4 208.9 79.0 C 209.0 77.1 212.7 78.1 211.5 78.8 M 239.9 86.9 C 237.4 86.8 241.4 86.0 239.9 86.9 M 234.8 82.6 C 234.7 82.7 234.7 82.7 234.8 82.6 C 234.8 82.6 234.8 82.6 234.8 82.6 Z M 232.1 82.5 C 231.9 82.3 231.9 82.3 232.1 82.5 M 237.8 87.2 C 237.9 87.0 237.9 87.0 237.8 87.2 M 211.6 81.0 C 211.4 80.8 211.4 80.8 211.6 81.0 M 218.2 82.4 C 215.1 80.3 219.9 82.0 218.2 82.4 M 226.0 78.4 C 225.1 77.4 228.0 78.3 226.0 78.4 M 213.0 83.2 C 210.7 81.2 216.1 81.3 213.0 83.2 M 219.8 82.6 C 219.6 82.6 219.6 82.6 219.8 82.6 C 219.8 82.6 219.8 82.6 219.8 82.6 Z M 210.7 78.6 C 210.7 78.6 210.7 78.6 210.7 78.6 C 210.7 78.6 210.7 78.6 210.7 78.6 Z M 209.7 78.7 C 209.8 78.6 209.8 78.6 209.7 78.7 C 209.7 78.7 209.7 78.7 209.7 78.7 Z M 210.2 83.4 C 210.3 83.3 210.3 83.3 210.2 83.4 C 210.2 83.4 210.2 83.4 210.2 83.4 Z M 240.3 80.6 C 238.2 78.8 242.1 81.6 240.3 80.6 C 240.3 80.6 240.3 80.6 240.3 80.6 Z M 229.2 83.5 C 225.5 81.9 231.8 82.0 229.2 83.5 C 229.2 83.5 229.2 83.5 229.2 83.5 Z M 225.0 80.9 C 225.0 80.8 225.0 80.8 225.0 80.9 C 225.0 80.9 225.0 80.9 225.0 80.9 Z M 214.4 84.4 C 214.4 84.3 214.4 84.3 214.4 84.4 C 214.4 84.4 214.4 84.4 214.4 84.4 Z M 239.3 79.6 C 239.4 79.5 239.4 79.5 239.3 79.6 C 239.3 79.6 239.3 79.6 239.3 79.6 Z M 203.8 82.3 C 203.8 82.2 203.8 82.2 203.8 82.3 C 203.8 82.3 203.8 82.3 203.8 82.3 Z M 216.8 78.3 C 216.0 79.0 216.6 77.7 216.8 78.3 C 216.8 78.3 216.8 78.3 216.8 78.3 Z M 213.4 78.3 C 213.3 78.3 213.3 78.3 213.4 78.3 C 213.4 78.3 213.4 78.3 213.4 78.3 Z M 198.5 84.1 C 198.4 84.1 198.4 84.1 198.5 84.1 C 198.5 84.1 198.5 84.1 198.5 84.1 Z M 204.8 76.4 C 204.7 76.4 204.7 76.4 204.8 76.4 C 204.8 76.4 204.8 76.4 204.8 76.4 Z M 202.0 78.7 C 202.0 78.7 202.0 78.7 202.0 78.7 C 202.0 78.7 202.0 78.7 202.0 78.7 Z M 210.8 82.9 C 207.4 83.3 211.6 82.0 210.8 82.9 C 210.8 82.9 210.8 82.9 210.8 82.9 Z M 193.6 79.4 C 193.5 79.2 193.5 79.2 193.6 79.4 C 193.6 79.4 193.6 79.4 193.6 79.4 Z M 191.9 82.1 C 191.8 81.9 191.8 81.9 191.9 82.1 C 191.9 82.1 191.9 82.1 191.9 82.1 Z M 191.0 83.5 C 190.9 83.4 190.9 83.4 191.0 83.5 C 191.0 83.5 191.0 83.5 191.0 83.5 Z M 232.2 79.6 C 232.3 79.7 232.3 79.7 232.2 79.6 C 232.2 79.6 232.2 79.6 232.2 79.6 Z M 233.0 84.1 C 233.0 84.1 233.0 84.1 233.0 84.1 C 233.0 84.1 233.0 84.1 233.0 84.1 Z M 228.9 84.2 C 229.0 84.2 229.0 84.2 228.9 84.2 C 228.9 84.2 228.9 84.2 228.9 84.2 Z M 233.4 77.0 C 233.5 77.1 233.5 77.1 233.4 77.0 C 233.4 77.0 233.4 77.0 233.4 77.0 Z M 215.9 80.7 C 215.9 80.7 215.9 80.7 215.9 80.7 C 215.9 80.7 215.9 80.7 215.9 80.7 Z M 214.2 78.9 C 214.3 79.0 214.3 79.0 214.2 78.9 C 214.2 78.9 214.2 78.9 214.2 78.9 Z M 218.2 76.5 C 218.2 76.6 218.2 76.6 218.2 76.5 C 218.2 76.5 218.2 76.5 218.2 76.5 Z M 213.0 77.4 C 213.0 77.4 213.0 77.4 213.0 77.4 C 213.0 77.4 213.0 77.4 213.0 77.4 Z M 244.3 85.3 C 244.3 85.3 244.3 85.3 244.3 85.3 C 244.3 85.3 244.3 85.3 244.3 85.3 Z M 241.5 87.2 C 241.6 87.2 241.6 87.2 241.5 87.2 C 241.5 87.2 241.5 87.2 241.5 87.2 Z M 215.3 83.1 C 214.6 83.8 213.8 82.1 215.3 83.1 M 221.9 82.7 C 221.9 82.6 221.9 82.6 221.9 82.7 C 221.9 82.7 221.9 82.7 221.9 82.7 Z M 204.3 83.0 C 203.5 81.6 207.4 83.7 204.3 83.0 C 204.3 83.0 204.3 83.0 204.3 83.0 Z M 207.8 77.4 C 207.7 77.3 207.7 77.3 207.8 77.4 C 207.8 77.4 207.8 77.4 207.8 77.4 Z M 206.1 77.9 C 206.0 77.8 206.0 77.8 206.1 77.9 C 206.1 77.9 206.1 77.9 206.1 77.9 Z M 196.6 81.6 C 196.5 81.4 196.5 81.4 196.6 81.6 M 222.7 83.9 C 221.7 83.3 221.9 83.4 222.7 83.9 M 202.1 82.9 C 202.2 82.9 202.2 82.9 202.1 82.9 C 202.1 82.9 202.1 82.9 202.1 82.9 Z M 194.6 82.3 C 194.6 82.3 194.6 82.3 194.6 82.3 C 194.6 82.3 194.6 82.3 194.6 82.3 Z M 227.3 83.0 C 227.2 81.3 228.1 81.7 227.3 83.0 M 238.1 84.9 C 238.2 84.8 238.2 84.8 238.1 84.9 C 238.1 84.9 238.1 84.9 238.1 84.9 Z M 183.7 82.2 C 191.6 84.3 189.7 80.7 190.0 80.0 C 191.1 79.1 190.0 78.4 188.5 77.8 C 186.9 75.5 186.0 80.1 184.9 77.8 C 182.7 74.8 182.5 80.5 181.6 77.3 C 181.9 76.5 178.9 77.1 179.1 77.3 C 177.6 75.8 175.4 78.5 175.4 78.8 C 174.4 78.4 174.3 75.5 171.1 77.7 C 168.7 78.4 167.6 75.6 168.3 77.6 C 166.5 75.4 167.0 78.2 165.3 77.5 C 164.0 76.3 165.2 79.3 163.0 77.0 C 162.0 78.8 164.0 75.8 158.0 77.1 C 160.9 77.3 155.1 78.6 156.3 77.3 C 158.3 76.0 153.4 77.8 150.7 77.0 C 150.0 77.7 146.7 79.4 147.2 77.5 C 144.4 75.4 144.3 78.8 143.1 77.1 C 142.2 76.4 141.8 77.9 141.2 77.8 C 140.2 76.5 139.8 76.9 135.2 77.2 C 130.2 77.6 130.5 79.3 131.2 80.0 C 132.0 80.7 133.2 81.3 132.1 82.2 C 132.0 82.9 136.8 85.6 134.4 83.0 C 135.2 83.7 139.8 80.0 137.5 83.6 C 139.3 82.1 136.9 85.0 141.8 83.3 C 135.2 80.8 149.3 82.3 142.9 83.5 C 144.0 84.3 146.6 84.1 144.7 83.5 C 144.0 81.3 149.3 84.5 146.6 81.8 C 150.7 82.6 149.6 80.1 150.8 81.8 C 151.7 84.8 150.6 81.0 152.6 81.9 C 157.4 81.9 153.7 85.3 156.6 83.1 C 161.3 84.6 157.7 81.8 159.3 81.4 C 159.7 79.4 164.1 83.0 160.5 83.3 C 162.4 82.2 160.8 84.2 163.0 82.9 C 161.4 81.1 165.8 85.0 165.1 83.4 C 167.0 83.0 166.0 81.8 166.6 81.8 C 169.5 81.8 168.6 83.6 169.2 82.2 C 169.9 81.5 171.2 83.9 171.6 83.3 C 168.6 83.2 174.0 81.3 174.3 82.3 C 172.5 82.5 175.2 84.8 176.4 83.3 C 174.9 79.2 178.9 84.4 180.3 82.9 C 179.0 80.6 186.7 82.7 183.8 83.7 C 184.0 83.5 183.7 82.2 183.7 82.2 M 172.4 83.0 C 170.0 82.8 175.0 82.5 172.4 83.0 M 172.5 83.6 C 171.5 82.8 174.8 84.2 172.4 83.8 C 172.4 83.8 172.7 83.6 172.5 83.6 M 162.5 83.7 C 162.8 83.0 163.9 84.0 162.5 83.7 M 160.6 82.2 C 159.0 81.6 162.8 82.1 160.6 82.2 M 138.5 82.7 C 140.7 79.3 140.8 84.6 138.5 82.7 M 153.1 83.4 C 155.8 82.9 152.2 84.8 153.1 83.4 M 153.9 82.5 C 155.2 82.0 154.2 83.3 153.9 82.5 M 142.7 82.7 C 142.5 82.6 142.5 82.6 142.7 82.7 C 142.7 82.7 142.7 82.7 142.7 82.7 Z M 136.4 82.7 C 136.3 82.7 136.3 82.7 136.4 82.7 C 136.4 82.7 136.4 82.7 136.4 82.7 Z M 149.0 82.3 C 151.1 83.1 145.7 82.7 149.0 82.3 C 149.0 82.3 149.0 82.3 149.0 82.3 Z M 139.2 77.4 C 139.4 77.3 139.4 77.3 139.2 77.4 C 139.2 77.4 139.2 77.4 139.2 77.4 Z M 174.3 81.4 C 174.4 81.4 174.4 81.4 174.3 81.4 C 174.3 81.4 174.3 81.4 174.3 81.4 Z M 181.8 82.7 C 181.7 82.2 183.2 83.1 181.8 82.7 C 181.8 82.7 181.8 82.7 181.8 82.7 Z M 187.8 78.8 C 187.9 78.7 187.9 78.7 187.8 78.8 C 187.8 78.8 187.8 78.8 187.8 78.8 Z M 176.8 79.6 C 176.9 79.6 176.9 79.6 176.8 79.6 C 176.8 79.6 176.8 79.6 176.8 79.6 Z M 175.8 82.2 C 177.0 84.0 172.9 81.7 175.8 82.2 C 175.8 82.2 175.8 82.2 175.8 82.2 Z M 151.6 77.6 C 151.5 78.4 149.8 77.3 151.6 77.6 C 151.6 77.6 151.6 77.6 151.6 77.6 Z M 160.3 81.5 C 160.0 81.9 159.2 81.3 160.3 81.5 C 160.3 81.5 160.3 81.5 160.3 81.5 Z M 164.4 84.0 C 164.1 84.5 163.3 83.8 164.4 84.0 C 164.4 84.0 164.4 84.0 164.4 84.0 Z M 181.7 83.2 C 181.5 83.3 181.5 83.3 181.7 83.2 C 181.7 83.2 181.7 83.2 181.7 83.2 Z M 179.0 81.8 C 180.8 83.6 176.2 80.8 179.0 81.8 C 179.0 81.8 179.0 81.8 179.0 81.8 Z M 182.2 81.3 C 181.2 80.6 184.6 81.6 182.2 81.3 M 180.4 78.6 C 178.1 79.3 182.4 75.4 180.4 78.6 C 180.4 78.6 180.4 78.6 180.4 78.6 Z M 168.9 77.9 C 168.7 77.8 168.7 77.8 168.9 77.9 C 168.9 77.9 168.9 77.9 168.9 77.9 Z M 170.1 83.0 C 168.1 83.0 171.4 82.6 170.1 83.0 C 170.1 83.0 170.1 83.0 170.1 83.0 Z M 187.4 83.4 C 185.4 83.4 188.7 83.0 187.4 83.4 C 187.4 83.4 187.4 83.4 187.4 83.4 Z M 162.2 79.6 C 158.9 79.9 164.2 78.7 162.2 79.6 C 162.2 79.6 162.2 79.6 162.2 79.6 Z M 150.2 81.7 C 150.1 81.6 150.1 81.6 150.2 81.7 C 150.2 81.7 150.2 81.7 150.2 81.7 Z M 147.9 82.4 C 147.9 82.3 147.9 82.3 147.9 82.4 C 147.9 82.4 147.9 82.4 147.9 82.4 Z M 138.7 80.6 C 138.5 80.5 138.5 80.5 138.7 80.6 C 138.7 80.6 138.7 80.6 138.7 80.6 Z M 145.9 83.2 C 145.9 83.2 145.9 83.2 145.9 83.2 C 145.9 83.2 145.9 83.2 145.9 83.2 Z M 139.5 82.8 C 139.4 82.7 139.4 82.7 139.5 82.8 C 139.5 82.8 139.5 82.8 139.5 82.8 Z M 140.4 84.3 C 140.2 84.2 140.2 84.2 140.4 84.3 C 140.4 84.3 140.4 84.3 140.4 84.3 Z M 154.7 76.6 C 154.6 76.5 154.6 76.5 154.7 76.6 C 154.7 76.6 154.7 76.6 154.7 76.6 Z M 178.2 83.8 C 178.0 83.7 178.0 83.7 178.2 83.8 C 178.2 83.8 178.2 83.8 178.2 83.8 Z M 140.0 82.1 C 139.9 82.0 139.9 82.0 140.0 82.1 C 140.0 82.1 140.0 82.1 140.0 82.1 Z M 155.7 80.7 C 155.7 79.2 157.1 82.7 155.3 80.8 C 155.4 80.7 155.8 80.9 155.7 80.7 M 153.6 78.2 C 153.7 78.1 153.7 78.1 153.6 78.2 C 153.6 78.2 153.6 78.2 153.6 78.2 Z M 160.7 77.3 C 160.8 77.2 160.8 77.2 160.7 77.3 C 160.7 77.3 160.7 77.3 160.7 77.3 Z M 147.1 83.5 C 147.3 84.4 145.3 82.9 147.3 83.5 M 138.6 77.9 C 138.9 78.8 136.8 77.3 138.9 77.9 M 189.7 82.9 C 189.9 82.2 191.0 83.2 189.7 82.9 M 162.3 76.5 C 162.6 75.8 163.7 76.8 162.3 76.5 M 159.0 78.4 C 159.3 79.2 157.2 77.7 159.3 78.3 M 143.5 78.0 C 143.4 78.0 143.4 78.0 143.5 78.0 C 143.5 78.0 143.5 78.0 143.5 78.0 Z M 167.0 82.9 C 166.9 82.9 166.9 82.9 167.0 82.9 C 167.0 82.9 167.0 82.9 167.0 82.9 Z M 158.3 81.1 C 159.5 82.2 156.8 80.3 158.3 81.1 M 169.6 80.9 C 171.3 82.3 166.8 80.4 169.6 80.9 M 134.2 77.9 C 136.9 79.1 132.3 77.4 134.2 77.9 M 144.5 81.9 C 146.4 83.6 143.0 81.0 144.5 81.9 M 165.3 82.1 C 165.4 83.0 163.3 81.6 165.3 82.1 M 185.1 83.0 C 187.0 83.2 182.7 83.7 185.1 83.0 M 148.2 77.9 C 148.1 77.9 148.1 77.9 148.2 77.9 C 148.2 77.9 148.2 77.9 148.2 77.9 Z M 179.1 76.4 C 179.0 76.4 179.0 76.4 179.1 76.4 C 179.1 76.4 179.1 76.4 179.1 76.4 Z M 133.8 84.1 C 133.7 84.0 133.7 84.0 133.8 84.1 C 133.8 84.1 133.8 84.1 133.8 84.1 Z M 145.6 81.1 C 145.6 81.0 145.6 81.0 145.6 81.1 C 145.6 81.1 145.6 81.1 145.6 81.1 Z M 136.5 83.5 C 136.4 83.4 136.4 83.4 136.5 83.5 C 136.5 83.5 136.5 83.5 136.5 83.5 Z M 151.6 79.8 C 151.6 79.7 151.6 79.7 151.6 79.8 C 151.6 79.8 151.6 79.8 151.6 79.8 Z M 152.9 84.2 C 152.8 84.1 152.8 84.1 152.9 84.2 C 152.9 84.2 152.9 84.2 152.9 84.2 Z M 159.4 82.3 C 159.4 82.2 159.4 82.2 159.4 82.3 C 159.4 82.3 159.4 82.3 159.4 82.3 Z M 149.9 83.8 C 145.9 84.1 151.9 82.4 149.9 83.8 C 149.9 83.8 149.9 83.8 149.9 83.8 Z M 156.7 79.4 C 156.6 79.4 156.6 79.4 156.7 79.4 C 156.7 79.4 156.7 79.4 156.7 79.4 Z M 157.2 82.5 C 154.7 83.8 155.9 80.4 157.2 82.5 M 168.2 83.6 C 167.4 84.2 167.8 82.5 168.2 83.6 M 172.5 77.8 C 172.6 77.7 172.6 77.7 172.5 77.8 C 172.5 77.8 172.5 77.8 172.5 77.8 Z M 171.4 78.2 C 171.3 78.2 171.3 78.2 171.4 78.2 C 171.4 78.2 171.4 78.2 171.4 78.2 Z M 170.8 83.8 C 170.8 83.8 170.8 83.8 170.8 83.8 C 170.8 83.8 170.8 83.8 170.8 83.8 Z M 171.2 76.6 C 171.1 76.6 171.1 76.6 171.2 76.6 C 171.2 76.6 171.2 76.6 171.2 76.6 Z M 154.4 84.0 C 154.3 84.0 154.3 84.0 154.4 84.0 C 154.4 84.0 154.4 84.0 154.4 84.0 Z M 135.3 84.4 C 135.2 84.4 135.2 84.4 135.3 84.4 C 135.3 84.4 135.3 84.4 135.3 84.4 Z M 184.6 78.4 C 184.5 78.3 184.5 78.3 184.6 78.4 C 184.6 78.4 184.6 78.4 184.6 78.4 Z M 152.3 82.3 C 152.2 82.2 152.2 82.2 152.3 82.3 C 152.3 82.3 152.3 82.3 152.3 82.3 Z M 175.4 78.1 C 175.3 78.0 175.3 78.0 175.4 78.1 C 175.4 78.1 175.4 78.1 175.4 78.1 Z M 153.6 82.7 C 153.5 82.7 153.5 82.7 153.6 82.7 C 153.6 82.7 153.6 82.7 153.6 82.7 Z M 148.8 77.6 C 148.8 77.5 148.8 77.5 148.8 77.6 C 148.8 77.6 148.8 77.6 148.8 77.6 Z M 144.5 76.6 C 144.4 76.6 144.4 76.6 144.5 76.6 C 144.5 76.6 144.5 76.6 144.5 76.6 Z M 149.1 80.6 C 149.1 80.6 149.1 80.6 149.1 80.6 C 149.1 80.6 149.1 80.6 149.1 80.6 Z M 176.8 80.0 C 184.8 81.5 170.5 80.6 176.8 80.0 M 147.8 80.3 C 153.3 80.6 143.4 82.0 147.8 80.3 C 147.2 80.7 147.7 80.3 147.8 80.3 " fill="#52575F"></path><g><clipPath id="clip-559"><path d="M 125.7 80.3 L 243.4 80.3 L 243.4 187.7 L 125.7 187.7 Z M 125.7 80.3 "></path></clipPath><g clip-path="url(#clip-559)"><text xml:space="preserve" font-family="Helvetica-Bold" font-weight="bold" font-size="24.0" fill="#FEFFFE" transform="matrix(1.00, 0.00, -0.00, -1.00, 136.0, 125.0)">N</text><text xml:space="preserve" font-family="Helvetica-Bold" font-weight="bold" font-size="24.0" fill="#FEFFFE" transform="matrix(1.00, 0.00, -0.00, -1.00, 153.3, 125.0)">o</text><text xml:space="preserve" font-family="Helvetica-Bold" font-weight="bold" font-size="24.0" fill="#FEFFFE" transform="matrix(1.00, 0.00, -0.00, -1.00, 168.0, 125.0)">t</text><text xml:space="preserve" font-family="Helvetica-Bold" font-weight="bold" font-size="24.0" fill="#FEFFFE" transform="matrix(1.00, 0.00, -0.00, -1.00, 176.0, 125.0)">a</text><text xml:space="preserve" font-family="Helvetica-Bold" font-weight="bold" font-size="24.0" fill="#FEFFFE" transform="matrix(1.00, 0.00, -0.00, -1.00, 189.3, 125.0)">t</text><text xml:space="preserve" font-family="Helvetica-Bold" font-weight="bold" font-size="24.0" fill="#FEFFFE" transform="matrix(1.00, 0.00, -0.00, -1.00, 197.3, 125.0)">i</text><text xml:space="preserve" font-family="Helvetica-Bold" font-weight="bold" font-size="24.0" fill="#FEFFFE" transform="matrix(1.00, 0.00, -0.00, -1.00, 204.0, 125.0)">o</text><text xml:space="preserve" font-family="Helvetica-Bold" font-weight="bold" font-size="24.0" fill="#FEFFFE" transform="matrix(1.00, 0.00, -0.00, -1.00, 218.6, 125.0)">n</text></g></g></g></svg>