<?xml version="1.0" encoding="UTF-8" standalone="no"?><svg xmlns="http://www.w3.org/2000/svg" xmlns:xlink="http://www.w3.org/1999/xlink" clip-rule="evenodd" stroke-miterlimit="4.00" viewBox="0 0 1024 768"><desc>SVG generated by Keynote</desc><defs><linearGradient id="gradSh1.184" x1="0.0" y1="0.0" x2="100.0" y2="0.0" gradientUnits="userSpaceOnUse" gradientTransform="matrix(0.00, -1.09, -1.20, 0.00, 630.6, 470.7)"><stop offset="0.00000" stop-color="#EF951A"></stop><stop offset="0.00293" stop-color="#EF941A"></stop><stop offset="1.00000" stop-color="#DE6A10"></stop></linearGradient><linearGradient id="gradSh2.185" x1="0.0" y1="0.0" x2="100.0" y2="0.0" gradientUnits="userSpaceOnUse" gradientTransform="matrix(0.00, -0.91, -1.76, 0.00, 417.8, 461.5)"><stop offset="0.00000" stop-color="#70BF41"></stop><stop offset="0.00293" stop-color="#6FBF41"></stop><stop offset="0.01979" stop-color="#6EBC3F"></stop><stop offset="0.02053" stop-color="#6DBB3F"></stop><stop offset="0.52199" stop-color="#365D1F"></stop><stop offset="0.52346" stop-color="#355D1F"></stop><stop offset="0.68109" stop-color="#243F15"></stop><stop offset="0.68548" stop-color="#233F15"></stop><stop offset="0.77346" stop-color="#1A2E0F"></stop><stop offset="0.77493" stop-color="#192E0F"></stop><stop offset="0.85191" stop-color="#111F0A"></stop><stop offset="0.85631" stop-color="#101F0A"></stop><stop offset="0.89883" stop-color="#0C1707"></stop><stop offset="0.89956" stop-color="#0C1607"></stop><stop offset="0.93695" stop-color="#070F05"></stop><stop offset="0.94208" stop-color="#070E05"></stop><stop offset="0.96188" stop-color="#050B03"></stop><stop offset="0.96334" stop-color="#050A03"></stop><stop offset="0.97287" stop-color="#030903"></stop><stop offset="0.97434" stop-color="#030803"></stop><stop offset="0.99047" stop-color="#010502"></stop><stop offset="0.99340" stop-color="#010501"></stop><stop offset="0.99560" stop-color="#010401"></stop><stop offset="1.00000" stop-color="#000401"></stop></linearGradient></defs><g transform="matrix(1.00, 0.00, -0.00, -1.00, 0.0, 768.0)"><path d="M 0.0 768.0 L 1024.0 768.0 L 1024.0 0.0 L 0.0 0.0 Z M 0.0 768.0 " fill="#000000"></path><image xlink:href="../../4AAE6EA7-3F1F-4CAC-8E5B-8863539C57B9/assets/839057E8351A24D80F5D243E5F061EE0.png" width="366.00" height="150.00" transform="matrix(1.00, 0.00, -0.00, -1.00, 447.7, 433.3)" opacity="0.75"></image><g><clipPath id="clip-562"><path d="M 571.7 374.1 L 571.7 457.9 C 571.7 464.4 577.0 469.7 583.5 469.7 L 677.7 469.7 C 684.2 469.7 689.4 464.4 689.4 457.9 L 689.4 374.1 C 689.4 367.6 684.2 362.3 677.7 362.3 L 583.5 362.3 C 577.0 362.3 571.7 367.6 571.7 374.1 Z M 571.7 374.1 "></path></clipPath><g clip-path="url(#clip-562)"><path d="M 571.7 374.1 L 571.7 457.9 C 571.7 464.4 577.0 469.7 583.5 469.7 L 677.7 469.7 C 684.2 469.7 689.4 464.4 689.4 457.9 L 689.4 374.1 C 689.4 367.6 684.2 362.3 677.7 362.3 L 583.5 362.3 C 577.0 362.3 571.7 367.6 571.7 374.1 Z M 571.7 374.1 " fill="url(#gradSh1.184)"></path></g></g><path d="M 573.7 388.0 C 573.5 387.6 573.8 386.6 573.6 386.4 M 573.7 388.0 C 575.2 387.0 575.3 385.3 575.6 382.9 C 575.6 380.4 574.2 383.0 573.6 382.7 C 573.0 379.4 574.1 379.4 575.7 379.9 C 574.6 378.6 576.5 374.8 574.5 375.6 C 574.5 380.9 574.0 371.8 572.9 376.3 C 572.6 376.8 572.1 375.5 572.1 375.0 C 571.2 376.5 570.3 373.9 569.7 376.3 C 568.4 376.6 569.0 376.2 568.0 377.7 C 567.9 378.4 568.3 378.1 568.6 378.1 C 570.1 378.3 567.8 379.9 568.7 381.1 C 566.8 382.3 569.0 383.5 569.8 382.4 C 569.6 383.6 567.6 384.9 569.0 386.1 C 568.0 386.7 568.7 389.7 569.9 387.9 C 570.6 386.6 571.2 388.1 571.7 388.3 C 572.1 387.8 571.5 386.0 571.8 385.7 C 572.1 386.2 572.8 388.6 572.8 386.1 C 573.4 386.9 573.8 385.7 573.7 388.0 C 573.7 388.0 573.7 388.0 573.7 388.0 Z M 574.8 378.9 C 575.3 378.9 574.8 379.8 574.8 378.9 C 574.8 378.9 574.8 378.9 574.8 378.9 Z M 568.0 385.1 C 568.5 385.1 568.0 386.0 568.0 385.1 C 568.0 385.1 568.0 385.1 568.0 385.1 Z M 568.6 378.5 C 569.1 378.5 568.5 379.4 568.6 378.5 C 568.6 378.5 568.6 378.5 568.6 378.5 Z M 574.5 381.3 C 574.0 382.7 573.8 380.1 574.2 379.9 C 574.2 380.2 574.9 380.9 574.5 381.3 C 574.5 381.3 574.5 381.3 574.5 381.3 Z M 571.5 381.5 C 571.7 381.6 571.8 382.2 571.3 382.1 C 571.2 381.7 571.4 381.4 571.5 381.5 C 571.5 381.5 571.5 381.5 571.5 381.5 Z M 573.6 374.4 C 573.8 374.5 573.9 375.1 573.4 375.1 C 573.2 374.7 573.4 374.3 573.6 374.4 C 573.6 374.4 573.6 374.4 573.6 374.4 Z M 573.1 382.9 C 573.1 383.3 572.6 383.4 572.5 383.0 C 572.8 382.8 572.8 381.8 573.1 382.9 C 573.1 382.9 573.1 382.9 573.1 382.9 Z M 574.8 385.1 C 574.6 386.3 573.8 383.9 574.0 383.9 C 574.4 383.6 575.2 384.5 574.8 385.1 C 574.8 385.1 574.8 385.1 574.8 385.1 Z M 572.4 383.6 C 572.2 384.6 572.1 383.2 572.4 383.6 C 572.4 383.6 572.4 383.6 572.4 383.6 Z M 569.9 375.4 C 569.6 376.4 569.5 375.0 569.9 375.4 C 569.9 375.4 569.9 375.4 569.9 375.4 Z M 568.3 380.6 C 568.1 381.6 567.9 380.2 568.3 380.6 C 568.3 380.6 568.3 380.6 568.3 380.6 Z M 573.5 378.7 C 573.5 376.9 574.8 378.4 573.5 378.7 C 573.5 378.7 573.5 378.7 573.5 378.7 Z M 575.0 387.9 C 575.0 386.2 576.2 387.7 575.0 387.9 C 575.0 387.9 575.0 387.9 575.0 387.9 Z M 574.7 372.3 C 574.7 373.5 577.6 369.7 575.1 370.6 C 573.4 370.5 575.2 367.5 576.0 369.0 C 576.7 368.4 576.7 368.5 576.5 367.6 C 577.5 368.3 579.3 367.5 579.7 366.6 C 579.6 365.5 578.3 367.3 578.9 365.7 C 581.3 364.0 578.0 364.8 578.7 363.0 C 578.8 362.9 579.1 363.5 579.3 363.0 C 579.0 361.8 576.4 362.0 577.1 360.7 C 576.5 361.1 573.1 361.8 574.8 361.9 C 575.9 362.6 571.1 363.3 572.8 364.4 C 571.4 364.5 571.8 366.1 570.3 366.5 C 569.7 367.1 570.6 367.6 570.9 367.6 C 571.8 367.9 568.5 367.7 569.7 369.4 C 569.2 369.4 568.4 372.9 569.8 370.5 C 569.5 371.2 568.7 375.2 570.6 373.3 C 571.5 370.7 572.2 375.7 572.5 373.1 C 572.9 371.1 572.7 370.8 573.4 372.3 C 573.2 372.7 573.2 374.7 574.1 373.1 C 573.9 372.7 574.2 372.0 574.7 372.3 C 574.7 372.3 574.7 372.3 574.7 372.3 Z M 572.1 372.2 C 572.2 371.0 572.7 372.2 572.1 372.2 C 572.1 372.2 572.1 372.2 572.1 372.2 Z M 570.1 366.1 C 570.8 364.7 570.7 366.3 570.1 366.1 C 570.1 366.1 570.1 366.1 570.1 366.1 Z M 576.1 369.8 C 575.8 369.1 577.5 370.0 576.1 369.8 C 576.1 369.8 576.1 369.8 576.1 369.8 Z M 570.3 369.0 C 570.3 368.9 570.4 369.3 570.4 369.6 C 570.4 369.5 570.3 369.1 570.3 369.0 C 570.3 369.0 570.3 369.0 570.3 369.0 Z M 576.9 368.6 C 577.0 367.1 578.2 369.3 576.9 368.6 C 576.9 368.6 576.9 368.6 576.9 368.6 Z M 577.9 365.4 C 577.0 363.8 579.4 364.9 577.9 365.4 C 577.9 365.4 577.9 365.4 577.9 365.4 Z M 573.4 364.0 C 573.4 364.5 572.9 364.1 573.4 364.0 C 573.4 364.0 573.4 364.0 573.4 364.0 Z M 569.0 372.3 C 569.4 372.8 568.8 372.7 569.0 372.3 C 569.0 372.3 569.0 372.3 569.0 372.3 Z M 575.5 362.4 C 575.7 363.0 574.7 362.5 575.5 362.4 C 575.5 362.4 575.5 362.4 575.5 362.4 Z M 575.6 369.2 C 576.1 371.1 572.9 369.4 575.6 369.2 C 575.6 369.2 575.6 369.2 575.6 369.2 Z M 574.8 371.4 C 574.8 372.3 573.9 370.9 574.3 370.6 C 574.4 370.7 574.7 371.2 574.8 371.4 C 574.8 371.4 574.8 371.4 574.8 371.4 Z M 576.2 368.0 C 576.2 369.2 575.4 368.4 576.2 368.0 C 576.2 368.0 576.2 368.0 576.2 368.0 Z M 575.7 370.3 C 575.4 370.5 575.7 369.9 575.7 370.3 C 575.7 370.3 575.7 370.3 575.7 370.3 Z M 578.4 367.9 C 578.0 368.0 578.6 367.6 578.4 367.9 C 578.4 367.9 578.4 367.9 578.4 367.9 Z M 575.2 372.6 C 575.0 372.9 575.1 372.2 575.2 372.6 C 575.2 372.6 575.2 372.6 575.2 372.6 Z M 577.6 367.4 C 577.2 366.8 575.3 366.4 577.9 366.0 C 578.5 366.2 578.3 367.5 577.6 367.4 C 577.6 367.4 577.6 367.4 577.6 367.4 Z M 573.7 393.5 C 575.7 385.7 572.1 387.6 571.5 387.2 C 570.5 386.1 569.9 387.2 569.2 388.7 C 566.9 390.4 571.5 391.2 569.3 392.4 C 566.3 394.5 571.9 394.8 568.7 395.7 C 567.9 395.3 568.6 398.4 568.8 398.1 C 567.3 399.6 570.0 401.8 570.2 401.8 C 569.8 402.9 567.0 403.0 569.1 406.1 C 569.9 408.5 567.0 409.6 569.0 409.0 C 566.8 410.8 569.6 410.2 568.9 412.0 C 567.7 413.2 570.8 412.0 568.4 414.3 C 570.3 415.2 567.2 413.2 568.5 419.3 C 568.7 416.4 570.0 422.1 568.8 420.9 C 567.4 418.9 569.3 423.8 568.5 426.5 C 569.1 427.3 570.8 430.6 569.0 430.0 C 566.9 432.8 570.3 432.9 568.5 434.1 C 567.8 435.1 569.4 435.4 569.2 436.1 C 567.9 437.1 568.8 438.0 568.4 441.5 C 567.8 449.2 571.8 442.6 572.2 445.6 C 572.8 446.1 577.1 441.8 573.9 443.5 C 574.8 442.9 571.5 436.6 575.0 439.8 C 573.6 437.4 576.4 440.3 574.8 435.4 C 572.3 442.1 573.8 427.9 575.0 434.3 C 575.7 433.2 575.6 430.6 575.0 432.5 C 572.7 433.2 576.0 428.0 573.2 430.6 C 574.0 426.5 571.5 427.6 573.3 426.5 C 576.2 425.5 572.5 426.7 573.4 424.6 C 573.4 419.8 576.8 423.5 574.5 420.6 C 576.0 415.9 573.2 419.6 572.9 417.9 C 570.8 417.5 574.4 413.1 574.7 416.7 C 573.6 414.8 575.7 416.4 574.4 414.3 C 572.5 415.8 576.4 411.5 574.9 412.1 C 574.4 410.2 573.3 411.2 573.2 410.6 C 573.2 407.7 575.1 408.6 573.7 408.0 C 572.9 407.4 575.4 406.0 574.8 405.6 C 574.7 408.6 572.8 403.2 573.8 402.9 C 573.9 404.7 576.3 402.0 574.8 400.8 C 570.6 402.3 575.8 398.3 574.4 397.0 C 572.1 398.2 574.1 390.5 575.2 393.4 C 575.0 393.3 573.7 393.5 573.7 393.5 M 574.4 404.8 C 574.2 407.2 574.0 402.2 574.4 404.8 M 575.0 404.7 C 574.3 405.8 575.6 402.4 575.3 404.8 C 575.3 404.9 575.1 404.5 575.0 404.7 M 575.1 414.7 C 574.5 414.4 575.5 413.4 575.1 414.7 M 573.7 416.6 C 573.1 418.2 573.6 414.5 573.7 416.6 M 574.1 438.8 C 570.7 436.5 576.1 436.4 574.1 438.8 M 574.8 424.1 C 574.4 421.4 576.3 425.1 574.8 424.1 M 574.0 423.3 C 573.4 422.1 574.8 423.0 574.0 423.3 M 574.1 434.6 C 574.1 434.8 574.1 434.8 574.1 434.6 C 574.1 434.6 574.1 434.6 574.1 434.6 Z M 574.0 441.1 C 574.1 441.1 574.1 441.1 574.0 441.1 C 574.0 441.1 574.0 441.1 574.0 441.1 Z M 573.8 428.2 C 574.6 426.1 574.1 431.5 573.8 428.2 C 573.8 428.2 573.8 428.2 573.8 428.2 Z M 568.8 438.0 C 568.8 437.9 568.8 437.9 568.8 438.0 C 568.8 438.0 568.8 438.0 568.8 438.0 Z M 572.9 402.9 C 572.8 402.8 572.8 402.8 572.9 402.9 C 572.9 402.9 572.9 402.9 572.9 402.9 Z M 574.1 395.4 C 573.7 395.5 574.5 394.1 574.1 395.4 C 574.1 395.4 574.1 395.4 574.1 395.4 Z M 570.2 389.4 C 570.2 389.3 570.2 389.3 570.2 389.4 C 570.2 389.4 570.2 389.4 570.2 389.4 Z M 571.1 400.4 C 571.0 400.3 571.0 400.3 571.1 400.4 C 571.1 400.4 571.1 400.4 571.1 400.4 Z M 573.6 401.5 C 575.5 400.2 573.1 404.3 573.6 401.5 C 573.6 401.5 573.6 401.5 573.6 401.5 Z M 569.0 425.7 C 569.9 425.7 568.8 427.4 569.0 425.7 C 569.0 425.7 569.0 425.7 569.0 425.7 Z M 572.9 416.9 C 573.4 417.2 572.7 418.0 572.9 416.9 C 572.9 416.9 572.9 416.9 572.9 416.9 Z M 575.5 412.8 C 575.9 413.1 575.3 413.9 575.5 412.8 C 575.5 412.8 575.5 412.8 575.5 412.8 Z M 574.7 395.6 C 574.8 395.7 574.8 395.7 574.7 395.6 C 574.7 395.6 574.7 395.6 574.7 395.6 Z M 573.2 398.2 C 575.0 396.4 572.3 401.1 573.2 398.2 C 573.2 398.2 573.2 398.2 573.2 398.2 Z M 572.7 395.1 C 572.1 396.0 573.0 392.7 572.7 395.1 M 570.0 396.9 C 570.8 399.1 566.9 394.8 570.0 396.9 C 570.0 396.9 570.0 396.9 570.0 396.9 Z M 569.3 408.4 C 569.2 408.5 569.2 408.5 569.3 408.4 C 569.3 408.4 569.3 408.4 569.3 408.4 Z M 574.5 407.2 C 574.4 409.2 574.1 405.9 574.5 407.2 C 574.5 407.2 574.5 407.2 574.5 407.2 Z M 574.9 389.8 C 574.8 391.8 574.5 388.5 574.9 389.8 C 574.9 389.8 574.9 389.8 574.9 389.8 Z M 571.0 415.1 C 571.3 418.3 570.1 413.1 571.0 415.1 C 571.0 415.1 571.0 415.1 571.0 415.1 Z M 573.1 427.0 C 573.0 427.1 573.0 427.1 573.1 427.0 C 573.1 427.0 573.1 427.0 573.1 427.0 Z M 573.8 429.3 C 573.8 429.3 573.8 429.3 573.8 429.3 C 573.8 429.3 573.8 429.3 573.8 429.3 Z M 572.0 438.6 C 571.9 438.7 571.9 438.7 572.0 438.6 C 572.0 438.6 572.0 438.6 572.0 438.6 Z M 574.7 431.3 C 574.6 431.4 574.6 431.4 574.7 431.3 C 574.7 431.3 574.7 431.3 574.7 431.3 Z M 574.2 437.7 C 574.1 437.9 574.1 437.9 574.2 437.7 C 574.2 437.7 574.2 437.7 574.2 437.7 Z M 575.7 436.8 C 575.7 437.0 575.7 437.0 575.7 436.8 C 575.7 436.8 575.7 436.8 575.7 436.8 Z M 568.0 422.5 C 568.0 422.7 568.0 422.7 568.0 422.5 C 568.0 422.5 568.0 422.5 568.0 422.5 Z M 575.3 399.1 C 575.1 399.2 575.1 399.2 575.3 399.1 C 575.3 399.1 575.3 399.1 575.3 399.1 Z M 573.5 437.2 C 573.5 437.3 573.5 437.3 573.5 437.2 C 573.5 437.2 573.5 437.2 573.5 437.2 Z M 572.1 421.5 C 570.6 421.6 574.1 420.2 572.2 421.9 C 572.1 421.8 572.4 421.4 572.1 421.5 M 569.6 423.6 C 569.6 423.5 569.6 423.5 569.6 423.6 C 569.6 423.6 569.6 423.6 569.6 423.6 Z M 568.7 416.5 C 568.6 416.4 568.6 416.4 568.7 416.5 C 568.7 416.5 568.7 416.5 568.7 416.5 Z M 575.0 430.2 C 575.8 429.9 574.3 431.9 574.9 429.9 M 569.4 438.6 C 570.2 438.4 568.7 440.4 569.3 438.4 M 574.3 387.6 C 573.7 387.3 574.7 386.2 574.3 387.6 M 567.9 414.9 C 567.3 414.6 568.3 413.6 567.9 414.9 M 569.8 418.2 C 570.7 417.9 569.2 420.0 569.8 418.0 M 569.4 433.7 C 569.4 433.9 569.4 433.9 569.4 433.7 C 569.4 433.7 569.4 433.7 569.4 433.7 Z M 574.3 410.2 C 574.3 410.3 574.3 410.3 574.3 410.2 C 574.3 410.2 574.3 410.2 574.3 410.2 Z M 572.5 418.9 C 573.7 417.7 571.8 420.5 572.5 418.9 M 572.3 407.7 C 573.7 406.0 571.8 410.4 572.3 407.7 M 569.0 442.3 C 570.7 440.4 568.1 443.8 569.0 442.3 M 573.3 432.8 C 575.1 430.9 572.4 434.2 573.3 432.8 M 573.6 412.0 C 574.5 411.8 573.0 413.9 573.6 412.0 M 574.5 392.1 C 574.6 390.3 575.2 394.5 574.5 392.1 M 569.4 429.0 C 569.3 429.1 569.3 429.1 569.4 429.0 C 569.4 429.0 569.4 429.0 569.4 429.0 Z M 567.9 398.1 C 567.8 398.2 567.8 398.2 567.9 398.1 C 567.9 398.1 567.9 398.1 567.9 398.1 Z M 574.7 444.8 C 574.6 444.9 574.6 444.9 574.7 444.8 C 574.7 444.8 574.7 444.8 574.7 444.8 Z M 572.5 431.6 C 572.4 431.7 572.4 431.7 572.5 431.6 C 572.5 431.6 572.5 431.6 572.5 431.6 Z M 574.9 441.1 C 574.8 441.2 574.8 441.2 574.9 441.1 C 574.9 441.1 574.9 441.1 574.9 441.1 Z M 571.2 425.6 C 571.2 425.6 571.2 425.6 571.2 425.6 C 571.2 425.6 571.2 425.6 571.2 425.6 Z M 575.6 424.4 C 575.6 424.4 575.6 424.4 575.6 424.4 C 575.6 424.4 575.6 424.4 575.6 424.4 Z M 573.7 417.8 C 573.7 417.8 573.7 417.8 573.7 417.8 C 573.7 417.8 573.7 417.8 573.7 417.8 Z M 575.3 427.4 C 575.5 431.3 573.8 425.4 575.3 427.4 C 575.3 427.4 575.3 427.4 575.3 427.4 Z M 570.9 420.6 C 570.8 420.6 570.8 420.6 570.9 420.6 C 570.9 420.6 570.9 420.6 570.9 420.6 Z M 574.0 420.0 C 575.2 422.5 571.8 421.3 574.0 420.0 M 575.0 409.0 C 575.7 409.8 574.0 409.4 575.0 409.0 M 569.2 404.7 C 569.2 404.7 569.2 404.7 569.2 404.7 C 569.2 404.7 569.2 404.7 569.2 404.7 Z M 569.7 405.8 C 569.6 406.0 569.6 406.0 569.7 405.8 C 569.7 405.8 569.7 405.8 569.7 405.8 Z M 575.3 406.4 C 575.3 406.4 575.3 406.4 575.3 406.4 C 575.3 406.4 575.3 406.4 575.3 406.4 Z M 568.0 406.0 C 568.0 406.1 568.0 406.1 568.0 406.0 C 568.0 406.0 568.0 406.0 568.0 406.0 Z M 575.5 422.9 C 575.5 422.9 575.5 422.9 575.5 422.9 C 575.5 422.9 575.5 422.9 575.5 422.9 Z M 575.5 443.0 C 575.5 443.1 575.5 443.1 575.5 443.0 C 575.5 443.0 575.5 443.0 575.5 443.0 Z M 569.8 392.7 C 569.8 392.8 569.8 392.8 569.8 392.7 C 569.8 392.7 569.8 392.7 569.8 392.7 Z M 573.8 425.0 C 573.7 425.0 573.7 425.0 573.8 425.0 C 573.8 425.0 573.8 425.0 573.8 425.0 Z M 569.5 401.8 C 569.4 401.9 569.4 401.9 569.5 401.8 C 569.5 401.8 569.5 401.8 569.5 401.8 Z M 574.1 423.7 C 574.1 423.7 574.1 423.7 574.1 423.7 C 574.1 423.7 574.1 423.7 574.1 423.7 Z M 569.0 428.4 C 569.0 428.5 569.0 428.5 569.0 428.4 C 569.0 428.4 569.0 428.4 569.0 428.4 Z M 568.0 432.7 C 568.0 432.8 568.0 432.8 568.0 432.7 C 568.0 432.7 568.0 432.7 568.0 432.7 Z M 572.1 428.1 C 572.0 428.2 572.0 428.2 572.1 428.1 C 572.1 428.1 572.1 428.1 572.1 428.1 Z M 571.4 400.4 C 572.9 392.5 572.1 406.7 571.4 400.4 M 571.7 429.4 C 572.1 423.9 573.4 433.9 571.7 429.4 C 572.2 430.0 571.8 429.5 571.7 429.4 M 575.4 446.8 C 573.8 444.5 572.2 444.5 570.6 445.5 C 569.7 446.6 573.0 446.6 570.2 446.6 C 569.7 444.0 566.1 447.8 569.6 447.7 C 570.1 451.1 567.4 448.3 568.8 450.3 C 569.1 454.0 568.1 452.1 568.3 454.9 C 570.2 456.5 567.4 456.5 569.2 457.3 C 567.2 455.9 570.0 460.7 569.2 461.0 C 568.2 459.6 568.8 462.7 570.1 464.8 C 571.4 466.8 572.5 468.0 570.9 464.3 C 573.2 466.8 571.7 467.0 572.3 468.0 C 574.2 468.3 576.4 472.4 578.8 472.0 C 578.5 471.6 577.5 471.1 577.5 470.6 C 577.3 469.7 579.5 471.6 579.2 471.5 C 580.6 471.4 586.3 471.5 580.1 472.2 C 579.6 473.0 584.6 472.1 584.5 473.0 C 588.6 473.0 585.5 471.1 587.3 472.5 C 590.2 472.5 592.3 472.6 592.3 472.3 C 594.1 472.5 594.5 473.6 596.1 472.6 C 599.6 474.7 598.6 468.5 600.0 472.6 C 601.0 471.7 602.0 474.3 601.8 471.8 C 600.6 473.0 607.9 473.8 604.7 471.9 C 605.6 471.3 610.2 474.6 609.5 472.0 C 611.2 470.1 610.9 468.2 607.3 466.4 C 607.7 467.9 603.5 464.9 606.2 467.4 C 609.3 468.2 600.5 468.3 602.4 467.4 C 602.8 464.4 598.1 469.3 596.3 467.1 C 597.8 468.3 590.7 468.9 592.8 466.7 C 591.4 466.5 591.1 467.5 589.7 466.2 C 594.0 466.4 588.1 468.6 588.3 467.2 C 589.0 466.4 582.9 465.7 583.4 466.9 C 585.1 470.1 582.3 466.3 581.1 467.2 C 578.2 467.2 582.5 465.1 579.7 466.3 C 579.4 465.8 576.7 463.9 578.7 464.6 C 579.1 465.3 574.7 465.5 576.5 463.5 C 578.2 464.5 577.6 463.5 576.9 462.6 C 576.1 461.6 575.2 460.2 575.0 460.9 C 575.3 463.9 574.4 462.8 573.8 460.9 C 573.2 459.1 573.3 457.1 574.4 459.4 C 575.4 456.5 574.9 460.7 574.3 456.5 C 573.4 457.0 572.6 453.7 574.3 454.5 C 576.8 453.9 570.9 453.4 574.4 450.8 C 575.9 450.4 573.3 445.6 574.9 447.5 C 575.1 447.6 575.4 446.9 575.4 446.8 M 575.1 448.3 C 574.5 447.7 575.8 447.4 575.1 448.3 M 574.6 447.7 C 574.6 447.6 574.6 447.6 574.6 447.7 C 574.6 447.7 574.6 447.7 574.6 447.7 Z M 574.2 455.9 C 574.2 455.8 574.2 455.8 574.2 455.9 C 574.2 455.9 574.2 455.9 574.2 455.9 Z M 569.0 463.7 C 569.0 463.6 569.0 463.6 569.0 463.7 C 569.0 463.7 569.0 463.7 569.0 463.7 Z M 574.4 460.7 C 574.4 460.6 574.4 460.6 574.4 460.7 C 574.4 460.7 574.4 460.7 574.4 460.7 Z M 573.8 452.9 C 573.8 452.9 573.8 452.9 573.8 452.9 C 573.8 452.9 573.8 452.9 573.8 452.9 Z M 575.2 460.0 C 574.4 460.6 575.5 458.6 575.4 460.1 C 575.3 460.1 575.3 459.9 575.2 460.0 M 578.1 464.0 C 578.0 464.1 578.0 464.1 578.1 464.0 M 590.6 473.5 C 590.7 473.6 590.7 473.6 590.6 473.5 M 591.9 466.0 C 592.1 466.1 592.1 466.1 591.9 466.0 M 582.3 466.9 C 584.0 467.1 582.7 467.5 582.3 466.9 M 597.6 466.5 C 594.9 465.9 600.6 466.0 597.6 466.5 M 600.3 466.0 C 600.5 466.1 600.5 466.1 600.3 466.0 M 588.0 466.3 C 587.9 466.4 587.9 466.4 588.0 466.3 C 588.0 466.3 588.0 466.3 588.0 466.3 Z M 581.7 466.4 C 579.7 465.5 584.0 466.0 581.7 466.4 M 575.1 456.8 C 575.5 458.4 573.9 456.8 575.1 456.8 M 574.6 453.6 C 574.5 453.6 574.5 453.6 574.6 453.6 C 574.6 453.6 574.6 453.6 574.6 453.6 Z M 593.3 466.5 C 593.2 466.5 593.2 466.5 593.3 466.5 C 593.3 466.5 593.3 466.5 593.3 466.5 Z M 596.4 466.3 C 596.3 466.3 596.3 466.3 596.4 466.3 C 596.4 466.3 596.4 466.3 596.4 466.3 Z M 601.7 473.3 C 601.6 473.3 601.6 473.3 601.7 473.3 C 601.7 473.3 601.7 473.3 601.7 473.3 Z M 571.7 456.0 C 572.1 453.9 573.9 458.1 572.2 457.7 C 571.5 458.0 571.8 456.2 571.7 456.0 M 579.4 468.0 C 579.0 470.3 578.9 464.3 579.4 468.0 M 600.7 467.5 C 602.8 470.3 598.0 465.5 600.7 467.5 M 605.0 467.0 C 606.3 467.6 597.0 467.4 603.5 466.6 C 604.1 466.2 604.6 466.7 605.0 467.0 M 577.4 464.9 C 576.9 466.2 575.8 462.8 577.4 464.9 M 588.1 471.1 C 589.2 470.3 591.9 469.6 590.7 471.0 C 590.7 472.8 586.9 471.8 588.1 471.1 M 573.8 448.9 C 575.9 450.7 572.0 448.9 573.8 448.9 M 573.6 457.2 C 573.7 457.3 573.7 457.3 573.6 457.2 C 573.6 457.2 573.6 457.2 573.6 457.2 Z M 574.2 460.0 C 574.0 460.2 574.0 460.2 574.2 460.0 M 575.6 450.3 C 575.5 450.4 575.5 450.4 575.6 450.3 M 588.1 469.0 C 588.2 469.1 588.2 469.1 588.1 469.0 M 581.7 467.4 C 583.9 469.9 580.2 467.6 581.7 467.4 M 573.4 467.1 C 573.4 468.5 571.8 465.4 573.4 467.1 M 586.6 466.8 C 588.9 468.7 583.5 468.7 586.6 466.8 M 580.5 466.9 C 580.7 466.9 580.7 466.9 580.5 466.9 C 580.5 466.9 580.5 466.9 580.5 466.9 Z M 589.0 471.4 C 588.9 471.4 588.9 471.4 589.0 471.4 C 589.0 471.4 589.0 471.4 589.0 471.4 Z M 589.9 471.3 C 589.8 471.3 589.8 471.3 589.9 471.3 C 589.9 471.3 589.9 471.3 589.9 471.3 Z M 589.4 466.6 C 589.3 466.6 589.3 466.6 589.4 466.6 C 589.4 466.6 589.4 466.6 589.4 466.6 Z M 569.1 453.4 C 569.0 455.6 568.8 451.6 569.1 453.4 C 569.1 453.4 569.1 453.4 569.1 453.4 Z M 575.9 461.8 C 575.7 464.9 573.7 460.8 575.9 461.8 C 575.9 461.8 575.9 461.8 575.9 461.8 Z M 575.9 466.1 C 575.9 466.1 575.9 466.1 575.9 466.1 C 575.9 466.1 575.9 466.1 575.9 466.1 Z M 585.2 465.6 C 585.2 465.7 585.2 465.7 585.2 465.6 C 585.2 465.6 585.2 465.6 585.2 465.6 Z M 568.9 454.5 C 568.8 454.5 568.8 454.5 568.9 454.5 C 568.9 454.5 568.9 454.5 568.9 454.5 Z M 595.8 467.6 C 595.8 467.7 595.8 467.7 595.8 467.6 C 595.8 467.6 595.8 467.6 595.8 467.6 Z M 582.7 471.6 C 583.7 470.9 582.9 472.3 582.7 471.6 C 582.7 471.6 582.7 471.6 582.7 471.6 Z M 586.2 471.7 C 586.3 471.7 586.3 471.7 586.2 471.7 C 586.2 471.7 586.2 471.7 586.2 471.7 Z M 601.2 465.8 C 601.2 465.8 601.2 465.8 601.2 465.8 C 601.2 465.8 601.2 465.8 601.2 465.8 Z M 594.8 473.5 C 594.9 473.5 594.9 473.5 594.8 473.5 C 594.8 473.5 594.8 473.5 594.8 473.5 Z M 597.7 471.2 C 597.6 471.3 597.6 471.3 597.7 471.2 C 597.7 471.2 597.7 471.2 597.7 471.2 Z M 588.8 467.0 C 592.2 466.7 588.0 467.9 588.8 467.0 C 588.8 467.0 588.8 467.0 588.8 467.0 Z M 606.0 470.6 C 606.1 470.7 606.1 470.7 606.0 470.6 C 606.0 470.6 606.0 470.6 606.0 470.6 Z M 607.7 467.9 C 607.8 468.0 607.8 468.0 607.7 467.9 C 607.7 467.9 607.7 467.9 607.7 467.9 Z M 608.6 466.5 C 608.7 466.6 608.7 466.6 608.6 466.5 C 608.6 466.5 608.6 466.5 608.6 466.5 Z M 571.3 460.6 C 571.4 460.5 571.4 460.5 571.3 460.6 C 571.3 460.6 571.3 460.6 571.3 460.6 Z M 575.5 458.8 C 575.5 458.7 575.5 458.7 575.5 458.8 C 575.5 458.8 575.5 458.8 575.5 458.8 Z M 576.6 461.6 C 576.6 461.6 576.6 461.6 576.6 461.6 C 576.6 461.6 576.6 461.6 576.6 461.6 Z M 568.6 460.2 C 568.6 460.1 568.6 460.1 568.6 460.2 C 568.6 460.2 568.6 460.2 568.6 460.2 Z M 583.8 469.3 C 583.7 469.2 583.7 469.2 583.8 469.3 C 583.8 469.3 583.8 469.3 583.8 469.3 Z M 585.4 471.1 C 585.3 471.0 585.3 471.0 585.4 471.1 C 585.4 471.1 585.4 471.1 585.4 471.1 Z M 580.7 473.2 C 580.7 473.1 580.7 473.1 580.7 473.2 C 580.7 473.2 580.7 473.2 580.7 473.2 Z M 586.6 472.6 C 586.6 472.6 586.6 472.6 586.6 472.6 C 586.6 472.6 586.6 472.6 586.6 472.6 Z M 569.2 448.1 C 569.1 448.1 569.1 448.1 569.2 448.1 C 569.2 448.1 569.2 448.1 569.2 448.1 Z M 572.6 447.8 C 572.4 447.7 572.4 447.7 572.6 447.8 C 572.6 447.8 572.6 447.8 572.6 447.8 Z M 584.3 466.9 C 585.1 466.1 585.8 467.8 584.3 466.9 M 579.1 466.2 C 579.0 466.2 579.0 466.2 579.1 466.2 C 579.1 466.2 579.1 466.2 579.1 466.2 Z M 595.3 467.0 C 596.1 468.3 592.2 466.3 595.3 467.0 C 595.3 467.0 595.3 467.0 595.3 467.0 Z M 591.8 472.6 C 591.9 472.6 591.9 472.6 591.8 472.6 C 591.8 472.6 591.8 472.6 591.8 472.6 Z M 593.5 472.0 C 593.6 472.2 593.6 472.2 593.5 472.0 C 593.5 472.0 593.5 472.0 593.5 472.0 Z M 603.0 468.4 C 603.1 468.5 603.1 468.5 603.0 468.4 M 579.1 464.8 C 579.4 465.7 579.3 465.5 579.1 464.8 M 597.5 467.0 C 597.4 467.1 597.4 467.1 597.5 467.0 C 597.5 467.0 597.5 467.0 597.5 467.0 Z M 605.1 467.7 C 605.0 467.7 605.0 467.7 605.1 467.7 C 605.1 467.7 605.1 467.7 605.1 467.7 Z M 576.1 463.2 C 574.9 464.3 574.8 463.5 576.1 463.2 M 573.9 452.3 C 573.8 452.3 573.8 452.3 573.9 452.3 C 573.9 452.3 573.9 452.3 573.9 452.3 Z M 615.4 466.5 C 611.9 464.7 611.9 467.2 611.9 467.3 C 612.3 463.9 608.7 468.6 609.4 469.3 C 609.3 469.8 612.0 475.7 614.5 472.1 C 615.2 471.7 615.6 472.7 616.1 472.8 C 620.4 472.6 613.1 470.9 618.4 470.9 C 619.3 471.4 618.2 474.2 621.3 472.3 C 621.5 472.6 625.0 473.6 623.7 472.3 C 625.4 473.6 626.5 472.1 628.0 471.7 C 629.5 472.5 626.8 473.8 631.9 472.2 C 634.1 474.6 634.9 470.5 636.9 473.1 C 638.2 473.1 640.1 468.9 637.1 471.3 C 637.6 471.0 635.7 469.0 639.7 469.7 C 639.1 470.3 636.9 474.6 643.3 472.5 C 644.3 472.6 646.7 471.5 647.3 472.0 C 644.0 472.5 651.7 473.9 650.9 472.6 C 656.0 473.5 653.1 471.5 656.7 473.0 C 659.7 473.0 655.7 471.1 659.5 472.2 C 662.3 472.0 660.4 473.0 660.1 473.0 C 662.5 473.2 663.4 472.4 664.2 472.4 C 664.8 472.7 665.9 473.5 666.5 472.5 C 669.0 470.5 666.7 468.6 667.8 466.6 C 665.9 465.7 667.0 468.1 665.7 466.6 C 664.8 467.9 665.6 466.5 660.4 466.8 C 660.6 467.1 661.8 468.0 660.6 468.1 C 658.6 467.9 660.0 464.6 656.7 467.0 C 660.6 467.7 651.2 468.0 654.9 468.7 C 650.4 469.1 653.6 468.4 650.3 467.7 C 650.5 469.9 650.1 465.3 648.8 467.1 C 648.5 466.1 643.4 466.5 647.1 467.9 C 641.8 468.5 645.1 467.2 643.2 466.1 C 640.8 465.9 643.0 469.7 641.5 466.9 C 638.3 465.7 641.4 468.3 639.1 466.1 C 640.1 468.0 636.7 466.1 637.6 468.2 C 632.1 468.4 638.3 466.0 634.4 467.4 C 635.6 467.5 635.1 464.7 632.8 466.5 C 633.8 469.8 629.7 463.6 631.4 468.0 C 623.8 469.2 630.1 466.2 626.0 466.2 C 624.9 466.2 627.1 467.6 626.2 467.6 C 620.8 467.0 625.2 465.9 622.4 468.0 C 617.1 468.5 620.9 466.2 618.2 466.0 C 618.0 467.0 615.9 468.8 615.4 466.5 M 620.2 467.5 C 621.3 466.9 620.9 468.2 620.2 467.5 M 609.5 466.5 C 610.6 465.8 610.1 467.2 609.5 466.5 M 624.6 466.9 C 626.1 466.2 625.0 468.0 624.6 466.9 M 653.3 468.0 C 651.3 468.0 654.2 467.4 653.3 468.0 M 613.7 466.4 C 615.3 465.6 614.2 467.6 613.7 466.4 M 611.8 468.1 C 611.9 468.1 611.9 468.1 611.8 468.1 M 656.1 466.2 C 656.2 466.2 656.2 466.2 656.1 466.2 M 648.4 466.2 C 650.1 466.2 647.5 466.6 648.4 466.2 M 648.2 473.3 C 649.8 473.4 647.2 473.8 648.2 473.3 M 660.3 466.1 C 662.0 465.6 660.8 466.9 660.3 466.1 M 664.6 467.7 C 666.1 467.0 665.6 468.4 664.6 467.7 M 619.2 470.0 C 619.2 470.1 619.2 470.1 619.2 470.0 C 619.2 470.0 619.2 470.0 619.2 470.0 Z M 633.3 471.8 C 631.6 471.1 635.4 472.7 633.3 471.8 M 630.7 467.1 C 631.9 468.6 628.5 467.0 630.7 467.1 C 630.7 467.1 630.7 467.1 630.7 467.1 Z M 628.3 467.8 C 628.2 467.9 628.2 467.9 628.3 467.8 C 628.3 467.8 628.3 467.8 628.3 467.8 Z M 636.2 467.9 C 636.1 467.9 636.1 467.9 636.2 467.9 C 636.2 467.9 636.2 467.9 636.2 467.9 Z M 634.6 468.0 C 633.9 468.3 633.7 467.7 634.6 468.0 C 634.6 468.0 634.6 468.0 634.6 468.0 Z M 646.2 472.6 C 645.5 472.9 645.3 472.3 646.2 472.6 C 646.2 472.6 646.2 472.6 646.2 472.6 Z M 632.1 468.5 C 631.9 470.0 630.9 467.5 632.1 468.5 C 632.1 468.5 632.1 468.5 632.1 468.5 Z M 640.6 472.0 C 641.3 471.6 642.1 473.3 640.6 472.0 M 657.8 466.5 C 658.5 466.1 659.2 467.8 657.8 466.5 M 640.9 466.0 C 641.6 465.7 642.4 467.4 640.9 466.0 M 621.1 466.9 C 621.3 467.1 621.3 467.1 621.1 466.9 M 630.4 473.2 C 631.5 472.7 631.0 473.9 630.4 473.2 M 614.6 472.7 C 615.7 472.2 615.1 473.4 614.6 472.7 M 655.4 473.2 C 655.3 472.8 657.1 473.4 655.4 473.2 M 642.9 468.4 C 644.4 468.6 645.9 469.3 642.8 469.2 C 642.6 468.9 643.5 468.7 642.9 468.4 C 642.9 468.4 642.9 468.4 642.9 468.4 Z M 648.2 471.7 C 648.4 471.8 648.4 471.8 648.2 471.7 M 645.5 467.0 C 645.7 467.2 645.7 467.2 645.5 467.0 M 654.1 467.2 C 654.3 467.4 654.3 467.4 654.1 467.2 M 655.2 466.8 C 655.2 466.8 655.2 466.8 655.2 466.8 C 655.2 466.8 655.2 466.8 655.2 466.8 Z M 664.7 466.2 C 664.7 466.2 664.7 466.2 664.7 466.2 C 664.7 466.2 664.7 466.2 664.7 466.2 Z M 651.4 467.4 C 651.4 467.4 651.4 467.4 651.4 467.4 C 651.4 467.4 651.4 467.4 651.4 467.4 Z M 659.2 472.9 C 659.2 473.0 659.2 473.0 659.2 472.9 C 659.2 472.9 659.2 472.9 659.2 472.9 Z M 658.2 472.0 C 658.2 472.1 658.2 472.1 658.2 472.0 C 658.2 472.0 658.2 472.0 658.2 472.0 Z M 616.2 466.5 C 617.5 465.5 616.9 469.0 616.2 466.5 M 662.4 472.0 C 663.7 473.0 660.2 472.2 662.4 472.0 C 662.4 472.0 662.4 472.0 662.4 472.0 Z M 650.4 468.6 C 650.5 468.8 650.5 468.8 650.4 468.6 M 655.8 466.9 C 655.9 467.1 655.9 467.1 655.8 466.9 M 630.7 465.8 C 630.8 466.0 630.8 466.0 630.7 465.8 M 662.4 467.2 C 666.4 467.5 660.6 469.2 662.4 467.2 M 628.8 467.2 C 628.7 467.1 628.7 467.1 628.8 467.2 M 637.9 469.9 C 640.6 469.8 636.9 470.7 637.9 469.9 M 644.7 468.1 C 644.7 468.1 644.7 468.1 644.7 468.1 C 644.7 468.1 644.7 468.1 644.7 468.1 Z M 640.7 468.1 C 638.8 468.3 640.2 467.7 640.7 468.1 C 640.7 468.1 640.7 468.1 640.7 468.1 Z M 618.1 467.8 C 620.6 468.0 615.5 468.3 618.1 467.8 C 618.1 467.8 618.1 467.8 618.1 467.8 Z M 660.6 470.6 C 660.5 470.7 660.5 470.7 660.6 470.6 C 660.6 470.6 660.6 470.6 660.6 470.6 Z M 650.9 466.3 C 649.7 466.7 650.3 465.9 650.9 466.3 C 650.9 466.3 650.9 466.3 650.9 466.3 Z M 666.1 466.2 C 664.9 466.5 665.5 465.7 666.1 466.2 C 666.1 466.2 666.1 466.2 666.1 466.2 Z M 615.0 467.6 C 624.4 470.0 602.6 467.0 615.0 467.6 C 615.0 467.6 615.0 467.6 615.0 467.6 Z M 642.3 467.1 C 642.3 467.2 642.3 467.2 642.3 467.1 C 642.3 467.1 642.3 467.1 642.3 467.1 Z M 625.1 466.1 C 625.0 466.1 625.0 466.1 625.1 466.1 C 625.1 466.1 625.1 466.1 625.1 466.1 Z M 622.2 467.4 C 622.1 467.5 622.1 467.5 622.2 467.4 C 622.2 467.4 622.2 467.4 622.2 467.4 Z M 623.0 473.1 C 623.0 473.2 623.0 473.2 623.0 473.1 C 623.0 473.1 623.0 473.1 623.0 473.1 Z M 624.0 470.5 C 623.9 470.7 623.9 470.7 624.0 470.5 C 624.0 470.5 624.0 470.5 624.0 470.5 Z M 618.0 471.5 C 617.9 471.6 617.9 471.6 618.0 471.5 C 618.0 471.5 618.0 471.5 618.0 471.5 Z M 618.1 472.2 C 618.1 472.3 618.1 472.3 618.1 472.2 C 618.1 472.2 618.1 472.2 618.1 472.2 Z M 655.8 468.5 C 655.7 468.6 655.7 468.6 655.8 468.5 C 655.8 468.5 655.8 468.5 655.8 468.5 Z M 652.5 470.9 C 654.7 470.0 651.9 472.1 652.5 470.9 C 652.5 470.9 652.5 470.9 652.5 470.9 Z M 633.3 469.7 C 635.3 469.4 632.0 470.4 633.3 469.7 C 633.3 469.7 633.3 469.7 633.3 469.7 Z M 635.4 472.8 C 635.5 472.8 635.5 472.8 635.4 472.8 C 635.4 472.8 635.4 472.8 635.4 472.8 Z M 622.2 466.0 C 622.1 466.2 622.1 466.2 622.2 466.0 C 622.2 466.0 622.2 466.0 622.2 466.0 Z M 618.5 467.0 C 618.4 468.2 617.4 466.4 618.5 467.0 M 637.0 466.3 C 637.0 466.4 637.0 466.4 637.0 466.3 C 637.0 466.3 637.0 466.3 637.0 466.3 Z M 648.7 468.2 C 648.7 468.3 648.7 468.3 648.7 468.2 C 648.7 468.2 648.7 468.2 648.7 468.2 Z M 660.3 467.4 C 660.2 467.6 660.2 467.6 660.3 467.4 C 660.3 467.4 660.3 467.4 660.3 467.4 Z M 644.3 466.5 C 644.2 466.6 644.2 466.6 644.3 466.5 C 644.3 466.5 644.3 466.5 644.3 466.5 Z M 638.7 467.6 C 638.7 467.7 638.7 467.7 638.7 467.6 C 638.7 467.6 638.7 467.6 638.7 467.6 Z M 662.8 469.1 C 662.8 469.2 662.8 469.2 662.8 469.1 C 662.8 469.1 662.8 469.1 662.8 469.1 Z M 645.6 466.3 C 645.5 466.3 645.5 466.3 645.6 466.3 C 645.6 466.3 645.6 466.3 645.6 466.3 Z M 648.9 470.1 C 648.8 470.2 648.8 470.2 648.9 470.1 C 648.9 470.1 648.9 470.1 648.9 470.1 Z M 619.0 465.3 C 619.0 465.3 619.0 465.3 619.0 465.3 C 619.0 465.3 619.0 465.3 619.0 465.3 Z M 663.0 467.5 C 662.9 467.6 662.9 467.6 663.0 467.5 C 663.0 467.5 663.0 467.5 663.0 467.5 Z M 663.7 466.4 C 663.6 466.5 663.6 466.5 663.7 466.4 C 663.7 466.4 663.7 466.4 663.7 466.4 Z M 655.5 472.1 C 651.4 471.5 659.1 471.9 656.1 470.6 C 662.0 470.2 656.3 472.2 655.5 472.1 C 655.5 472.1 655.5 472.1 655.5 472.1 Z M 669.2 466.0 C 666.9 467.6 666.9 469.2 667.9 470.8 C 669.0 471.7 669.0 468.4 669.0 471.2 C 666.4 471.7 670.1 475.3 670.1 471.8 C 673.5 471.3 670.6 474.0 672.7 472.6 C 676.3 472.3 674.5 473.3 677.3 473.1 C 678.9 471.2 679.6 473.9 680.1 472.0 C 678.8 474.3 683.4 470.4 683.9 471.2 C 682.7 472.4 685.6 471.2 687.3 469.5 C 689.0 467.8 689.8 466.5 686.6 468.8 C 688.5 466.0 689.0 467.5 689.9 466.7 C 689.8 464.8 693.4 461.7 692.4 459.4 C 692.1 459.8 691.9 460.8 691.4 461.0 C 690.6 461.4 691.9 458.7 691.8 459.0 C 691.7 458.3 691.3 456.9 691.2 456.2 C 691.1 455.6 691.3 454.9 692.3 458.0 C 693.3 458.3 691.9 454.2 692.8 454.3 C 692.8 450.2 690.9 453.3 692.3 451.5 C 692.3 448.5 692.3 446.4 692.1 446.4 C 692.3 444.7 693.4 444.3 692.3 442.7 C 694.4 439.1 688.3 440.2 692.4 438.8 C 691.4 437.8 694.1 436.8 691.6 437.0 C 692.7 438.2 693.6 430.9 691.7 434.0 C 691.1 433.2 694.3 428.6 691.7 429.3 C 689.8 427.6 688.0 427.9 686.2 431.5 C 687.6 431.1 684.6 435.3 687.2 432.6 C 688.0 429.5 688.1 438.3 687.2 436.4 C 684.1 435.9 689.0 440.6 686.9 442.5 C 688.1 441.0 688.7 448.1 686.4 446.0 C 686.2 447.3 687.3 447.6 686.0 449.1 C 686.2 444.8 688.4 450.7 687.0 450.5 C 686.1 449.7 685.4 456.1 686.7 455.4 C 689.8 453.2 686.1 457.2 687.3 458.1 C 687.9 461.1 684.9 457.3 686.7 459.8 C 686.2 460.2 685.0 463.3 685.2 461.2 C 685.8 460.6 687.0 464.9 684.7 463.5 C 685.2 461.6 684.4 462.4 683.6 463.4 C 682.9 464.4 681.7 465.5 682.4 465.5 C 685.2 464.6 684.3 465.7 682.7 466.7 C 681.1 467.7 679.2 468.0 681.1 466.4 C 678.1 466.1 682.0 466.1 678.6 467.1 C 679.2 467.9 676.1 468.8 676.9 467.1 C 676.2 464.6 675.8 470.5 673.2 467.0 C 672.8 465.5 668.0 468.1 669.9 466.5 C 670.0 466.3 669.3 466.0 669.2 466.0 M 670.7 466.3 C 670.1 466.8 669.8 465.6 670.7 466.3 M 670.1 466.8 C 670.0 466.8 670.0 466.8 670.1 466.8 C 670.1 466.8 670.1 466.8 670.1 466.8 Z M 678.1 467.2 C 678.1 467.1 678.1 467.1 678.1 467.2 C 678.1 467.2 678.1 467.2 678.1 467.2 Z M 686.5 470.8 C 686.4 470.8 686.4 470.8 686.5 470.8 C 686.5 470.8 686.5 470.8 686.5 470.8 Z M 682.3 466.1 C 682.3 466.2 682.3 466.2 682.3 466.1 C 682.3 466.1 682.3 466.1 682.3 466.1 Z M 675.3 467.6 C 675.3 467.6 675.3 467.6 675.3 467.6 C 675.3 467.6 675.3 467.6 675.3 467.6 Z M 681.6 465.5 C 682.3 466.2 680.1 465.5 681.6 465.3 C 681.6 465.4 681.4 465.5 681.6 465.5 M 684.8 461.9 C 684.9 461.9 684.9 461.9 684.8 461.9 M 693.3 448.2 C 693.4 448.1 693.4 448.1 693.3 448.2 M 685.8 446.9 C 685.9 446.7 685.9 446.7 685.8 446.9 M 686.8 456.8 C 686.7 454.6 687.3 456.2 686.8 456.8 M 686.3 441.1 C 685.7 443.9 685.8 438.2 686.3 441.1 M 685.7 438.5 C 685.8 438.2 685.8 438.2 685.7 438.5 M 686.1 450.8 C 686.2 450.9 686.2 450.9 686.1 450.8 C 686.1 450.8 686.1 450.8 686.1 450.8 Z M 686.4 457.7 C 685.9 460.5 685.5 454.8 686.4 457.7 M 678.8 466.2 C 679.9 465.6 679.0 467.4 678.8 466.2 M 676.0 466.8 C 676.0 466.9 676.0 466.9 676.0 466.8 C 676.0 466.8 676.0 466.8 676.0 466.8 Z M 686.2 445.5 C 686.3 445.6 686.3 445.6 686.2 445.5 C 686.2 445.5 686.2 445.5 686.2 445.5 Z M 686.1 442.4 C 686.1 442.5 686.1 442.5 686.1 442.4 C 686.1 442.4 686.1 442.4 686.1 442.4 Z M 693.0 437.1 C 693.1 437.2 693.1 437.2 693.0 437.1 C 693.0 437.1 693.0 437.1 693.0 437.1 Z M 678.4 469.7 C 676.2 469.4 680.1 467.2 680.1 468.9 C 680.4 469.6 678.7 469.5 678.4 469.7 M 688.4 459.7 C 690.8 459.5 684.9 461.1 688.4 459.7 M 687.3 438.1 C 690.1 436.0 685.3 440.8 687.3 438.1 M 686.8 433.8 C 687.4 432.5 687.1 441.8 686.4 435.3 C 685.9 434.7 686.5 434.2 686.8 433.8 M 685.8 462.4 C 687.2 462.6 684.1 464.4 685.8 462.4 M 690.9 450.7 C 690.1 449.6 689.3 446.9 690.8 448.1 C 692.6 448.1 691.6 451.9 690.9 450.7 M 671.3 467.6 C 673.1 465.5 671.3 469.4 671.3 467.6 M 679.4 467.7 C 679.4 467.6 679.4 467.6 679.4 467.7 C 679.4 467.7 679.4 467.7 679.4 467.7 Z M 681.8 466.5 C 682.0 466.6 682.0 466.6 681.8 466.5 M 672.7 465.8 C 672.8 465.9 672.8 465.9 672.7 465.8 M 688.7 450.7 C 688.9 450.6 688.9 450.6 688.7 450.7 M 687.3 457.4 C 689.4 454.2 687.8 459.1 687.3 457.4 M 688.8 465.8 C 690.2 465.5 687.5 467.7 688.8 465.8 M 686.6 452.2 C 688.5 449.9 688.4 455.3 686.6 452.2 M 687.1 458.8 C 687.1 458.7 687.1 458.7 687.1 458.8 C 687.1 458.8 687.1 458.8 687.1 458.8 Z M 691.1 449.8 C 691.2 449.9 691.2 449.9 691.1 449.8 C 691.1 449.8 691.1 449.8 691.1 449.8 Z M 691.0 448.9 C 691.1 449.0 691.1 449.0 691.0 448.9 C 691.0 448.9 691.0 448.9 691.0 448.9 Z M 686.3 449.4 C 686.4 449.5 686.4 449.5 686.3 449.4 C 686.3 449.4 686.3 449.4 686.3 449.4 Z M 675.8 472.3 C 678.0 472.4 674.0 472.6 675.8 472.3 C 675.8 472.3 675.8 472.3 675.8 472.3 Z M 683.1 464.5 C 686.1 464.0 682.6 466.8 683.1 464.5 C 683.1 464.5 683.1 464.5 683.1 464.5 Z M 687.3 463.5 C 687.4 463.6 687.4 463.6 687.3 463.5 C 687.3 463.5 687.3 463.5 687.3 463.5 Z M 685.3 453.6 C 685.5 453.6 685.5 453.6 685.3 453.6 C 685.3 453.6 685.3 453.6 685.3 453.6 Z M 676.9 472.5 C 676.9 472.6 676.9 472.6 676.9 472.5 C 676.9 472.5 676.9 472.5 676.9 472.5 Z M 687.4 443.0 C 687.5 443.0 687.5 443.0 687.4 443.0 C 687.4 443.0 687.4 443.0 687.4 443.0 Z M 691.4 455.9 C 690.7 455.1 692.1 455.8 691.4 455.9 C 691.4 455.9 691.4 455.9 691.4 455.9 Z M 691.5 452.6 C 691.4 452.5 691.4 452.5 691.5 452.6 C 691.5 452.6 691.5 452.6 691.5 452.6 Z M 685.6 437.6 C 685.6 437.5 685.6 437.5 685.6 437.6 C 685.6 437.6 685.6 437.6 685.6 437.6 Z M 693.3 444.0 C 693.3 443.9 693.3 443.9 693.3 444.0 C 693.3 444.0 693.3 444.0 693.3 444.0 Z M 691.0 441.1 C 691.0 441.2 691.0 441.2 691.0 441.1 C 691.0 441.1 691.0 441.1 691.0 441.1 Z M 686.8 450.0 C 686.4 446.6 687.7 450.8 686.8 450.0 C 686.8 450.0 686.8 450.0 686.8 450.0 Z M 690.4 432.8 C 690.5 432.7 690.5 432.7 690.4 432.8 C 690.4 432.8 690.4 432.8 690.4 432.8 Z M 687.7 431.1 C 687.8 431.0 687.8 431.0 687.7 431.1 C 687.7 431.1 687.7 431.1 687.7 431.1 Z M 686.2 430.2 C 686.4 430.1 686.4 430.1 686.2 430.2 C 686.2 430.2 686.2 430.2 686.2 430.2 Z M 683.0 469.2 C 682.9 469.1 682.9 469.1 683.0 469.2 C 683.0 469.2 683.0 469.2 683.0 469.2 Z M 680.3 465.6 C 680.3 465.5 680.3 465.5 680.3 465.6 C 680.3 465.6 680.3 465.6 680.3 465.6 Z M 682.8 463.9 C 682.8 463.9 682.8 463.9 682.8 463.9 C 682.8 463.9 682.8 463.9 682.8 463.9 Z M 683.2 472.0 C 683.1 472.0 683.1 472.0 683.2 472.0 C 683.2 472.0 683.2 472.0 683.2 472.0 Z M 689.1 455.0 C 689.0 455.1 689.0 455.1 689.1 455.0 C 689.1 455.0 689.1 455.0 689.1 455.0 Z M 690.8 453.4 C 690.8 453.5 690.8 453.5 690.8 453.4 C 690.8 453.4 690.8 453.4 690.8 453.4 Z M 693.2 457.4 C 693.2 457.4 693.2 457.4 693.2 457.4 C 693.2 457.4 693.2 457.4 693.2 457.4 Z M 692.4 452.2 C 692.3 452.2 692.3 452.2 692.4 452.2 C 692.4 452.2 692.4 452.2 692.4 452.2 Z M 670.5 472.2 C 670.5 472.2 670.5 472.2 670.5 472.2 C 670.5 472.2 670.5 472.2 670.5 472.2 Z M 670.2 468.8 C 670.1 469.0 670.1 469.0 670.2 468.8 C 670.2 468.8 670.2 468.8 670.2 468.8 Z M 686.6 454.5 C 685.9 453.7 687.6 452.9 686.6 454.5 M 686.7 460.4 C 686.8 460.5 686.8 460.5 686.7 460.4 C 686.7 460.4 686.7 460.4 686.7 460.4 Z M 686.8 443.5 C 688.1 442.7 686.1 446.6 686.8 443.5 C 686.8 443.5 686.8 443.5 686.8 443.5 Z M 692.4 447.0 C 692.4 446.9 692.4 446.9 692.4 447.0 C 692.4 447.0 692.4 447.0 692.4 447.0 Z M 691.8 445.3 C 691.9 445.1 691.9 445.1 691.8 445.3 C 691.8 445.3 691.8 445.3 691.8 445.3 Z M 688.2 435.8 C 688.3 435.6 688.3 435.6 688.2 435.8 M 685.4 460.7 C 686.2 460.2 686.0 460.3 685.4 460.7 M 686.8 441.3 C 686.8 441.4 686.8 441.4 686.8 441.3 C 686.8 441.3 686.8 441.3 686.8 441.3 Z M 687.4 433.7 C 687.5 433.8 687.5 433.8 687.4 433.7 C 687.4 433.7 687.4 433.7 687.4 433.7 Z M 684.5 464.0 C 685.8 464.9 685.0 465.2 684.5 464.0 M 674.7 467.5 C 674.7 467.6 674.7 467.6 674.7 467.5 C 674.7 467.5 674.7 467.5 674.7 467.5 Z M 686.3 423.4 C 684.5 426.9 687.0 426.9 687.1 426.9 C 683.7 426.5 688.4 430.1 689.1 429.4 C 689.5 429.5 695.5 426.7 691.9 424.3 C 691.4 423.6 692.5 423.2 692.6 422.7 C 692.4 418.4 690.7 425.7 690.7 420.4 C 691.2 419.5 694.0 420.5 692.1 417.4 C 692.3 417.3 693.4 413.8 692.1 415.1 C 693.4 413.4 691.8 412.3 691.5 410.8 C 692.3 409.3 693.6 411.9 692.0 406.8 C 694.3 404.7 690.3 403.9 692.8 401.9 C 692.9 400.6 688.7 398.7 691.1 401.6 C 690.8 401.2 688.8 403.1 689.5 399.1 C 690.1 399.6 694.4 401.9 692.3 395.5 C 692.4 394.5 691.3 392.1 691.8 391.5 C 692.3 394.8 693.7 387.1 692.4 387.8 C 693.3 382.8 691.3 385.7 692.8 382.1 C 692.8 379.1 690.8 383.0 692.0 379.3 C 691.7 376.5 692.8 378.4 692.7 378.7 C 693.0 376.3 692.2 375.4 692.2 374.5 C 692.4 374.0 693.3 372.4 692.1 371.8 C 689.7 368.9 688.2 372.0 686.1 371.7 C 685.5 373.3 687.8 372.2 686.4 373.3 C 687.7 373.9 686.3 373.2 686.6 378.3 C 686.9 378.2 687.7 377.0 687.9 378.2 C 687.7 380.2 684.4 378.8 686.7 382.1 C 687.4 378.2 687.8 387.5 688.5 383.9 C 688.9 388.4 688.2 385.2 687.4 388.5 C 689.7 388.3 685.0 388.7 686.8 389.9 C 685.9 390.2 686.3 395.4 687.7 391.7 C 688.3 397.0 687.0 393.7 685.8 395.6 C 685.7 398.0 689.4 395.7 686.7 397.3 C 685.5 400.5 688.1 397.4 685.9 399.7 C 687.8 398.7 685.9 402.1 688.0 401.2 C 688.1 406.7 685.8 400.5 687.2 404.4 C 687.3 403.2 684.5 403.6 686.3 406.0 C 689.6 405.0 683.4 409.1 687.8 407.4 C 689.0 415.0 685.9 408.6 685.9 412.8 C 685.9 413.9 687.4 411.7 687.4 412.6 C 686.8 418.0 685.6 413.5 687.8 416.4 C 688.3 421.7 685.9 417.9 685.8 420.5 C 686.8 420.7 688.5 422.9 686.3 423.4 M 687.3 418.6 C 686.6 417.5 688.0 417.9 687.3 418.6 M 686.3 429.3 C 685.6 428.2 687.0 428.7 686.3 429.3 M 686.7 414.2 C 686.0 412.7 687.8 413.7 686.7 414.2 M 687.7 385.5 C 687.7 387.5 687.2 384.6 687.7 385.5 M 686.2 425.1 C 685.3 423.5 687.3 424.6 686.2 425.1 M 687.8 427.0 C 687.9 426.9 687.9 426.9 687.8 427.0 M 686.0 382.6 C 686.0 382.5 686.0 382.5 686.0 382.6 M 685.9 390.3 C 686.0 388.7 686.4 391.2 685.9 390.3 M 693.1 390.6 C 693.2 389.0 693.6 391.6 693.1 390.6 M 685.9 378.4 C 685.3 376.8 686.7 378.0 685.9 378.4 M 687.4 374.2 C 686.8 372.7 688.2 373.2 687.4 374.2 M 689.8 419.6 C 689.9 419.6 689.9 419.6 689.8 419.6 C 689.8 419.6 689.8 419.6 689.8 419.6 Z M 691.6 405.5 C 690.9 407.1 692.5 403.4 691.6 405.5 M 686.9 408.1 C 688.4 406.9 686.8 410.3 686.9 408.1 C 686.9 408.1 686.9 408.1 686.9 408.1 Z M 687.6 410.5 C 687.6 410.6 687.6 410.6 687.6 410.5 C 687.6 410.5 687.6 410.5 687.6 410.5 Z M 687.6 402.6 C 687.7 402.6 687.7 402.6 687.6 402.6 C 687.6 402.6 687.6 402.6 687.6 402.6 Z M 687.8 404.2 C 688.1 404.8 687.5 405.1 687.8 404.2 C 687.8 404.2 687.8 404.2 687.8 404.2 Z M 692.4 392.6 C 692.7 393.3 692.1 393.5 692.4 392.6 C 692.4 392.6 692.4 392.6 692.4 392.6 Z M 688.3 406.7 C 689.7 406.9 687.3 407.9 688.3 406.7 C 688.3 406.7 688.3 406.7 688.3 406.7 Z M 691.7 398.2 C 691.4 397.4 693.1 396.7 691.7 398.2 M 686.2 381.0 C 685.8 380.3 687.6 379.5 686.2 381.0 M 685.8 397.9 C 685.4 397.2 687.2 396.4 685.8 397.9 M 686.7 417.7 C 686.8 417.5 686.8 417.5 686.7 417.7 M 693.0 408.3 C 692.4 407.3 693.6 407.8 693.0 408.3 M 692.5 424.2 C 692.0 423.1 693.2 423.7 692.5 424.2 M 693.0 383.4 C 692.6 383.5 693.1 381.7 693.0 383.4 M 688.1 395.9 C 688.3 394.4 689.1 392.9 689.0 396.0 C 688.7 396.2 688.5 395.3 688.1 395.9 C 688.1 395.9 688.1 395.9 688.1 395.9 Z M 691.5 390.6 C 691.6 390.4 691.6 390.4 691.5 390.6 M 686.8 393.3 C 686.9 393.1 686.9 393.1 686.8 393.3 M 686.9 384.7 C 687.2 384.5 687.2 384.5 686.9 384.7 M 686.5 383.6 C 686.6 383.6 686.6 383.6 686.5 383.6 C 686.5 383.6 686.5 383.6 686.5 383.6 Z M 685.9 374.1 C 686.0 374.1 686.0 374.1 685.9 374.1 C 685.9 374.1 685.9 374.1 685.9 374.1 Z M 687.1 387.4 C 687.2 387.4 687.2 387.4 687.1 387.4 C 687.1 387.4 687.1 387.4 687.1 387.4 Z M 692.7 379.6 C 692.7 379.6 692.7 379.6 692.7 379.6 C 692.7 379.6 692.7 379.6 692.7 379.6 Z M 691.8 380.6 C 691.9 380.6 691.9 380.6 691.8 380.6 C 691.8 380.6 691.8 380.6 691.8 380.6 Z M 686.3 422.6 C 685.2 421.3 688.8 421.9 686.3 422.6 M 691.8 376.4 C 692.8 375.1 692.0 378.6 691.8 376.4 C 691.8 376.4 691.8 376.4 691.8 376.4 Z M 688.3 388.4 C 688.5 388.3 688.5 388.3 688.3 388.4 M 686.7 383.0 C 686.9 382.9 686.9 382.9 686.7 383.0 M 685.6 408.1 C 685.8 408.0 685.8 408.0 685.6 408.1 M 686.9 376.4 C 687.3 372.4 689.0 378.2 686.9 376.4 M 687.0 410.0 C 686.8 410.1 686.8 410.1 687.0 410.0 M 689.7 400.9 C 689.6 398.2 690.5 401.9 689.7 400.9 M 687.8 394.1 C 687.9 394.1 687.9 394.1 687.8 394.1 C 687.8 394.1 687.8 394.1 687.8 394.1 Z M 687.8 398.1 C 688.0 400.0 687.4 398.6 687.8 398.1 C 687.8 398.1 687.8 398.1 687.8 398.1 Z M 687.6 420.7 C 687.8 418.2 688.1 423.3 687.6 420.7 C 687.6 420.7 687.6 420.7 687.6 420.7 Z M 690.3 378.2 C 690.4 378.3 690.4 378.3 690.3 378.2 C 690.3 378.2 690.3 378.2 690.3 378.2 Z M 686.1 387.9 C 686.5 389.1 685.7 388.5 686.1 387.9 C 686.1 387.9 686.1 387.9 686.1 387.9 Z M 685.9 373.1 C 686.3 373.9 685.5 373.5 685.9 373.1 C 685.9 373.1 685.9 373.1 685.9 373.1 Z M 687.4 423.8 C 689.8 414.4 686.7 436.2 687.4 423.8 C 687.4 423.8 687.4 423.8 687.4 423.8 Z M 686.8 396.5 C 686.9 396.5 686.9 396.5 686.8 396.5 C 686.8 396.5 686.8 396.5 686.8 396.5 Z M 685.8 413.7 C 685.9 413.7 685.9 413.7 685.8 413.7 C 685.8 413.7 685.8 413.7 685.8 413.7 Z M 687.2 416.6 C 687.2 416.7 687.2 416.7 687.2 416.6 C 687.2 416.6 687.2 416.6 687.2 416.6 Z M 692.9 415.8 C 692.9 415.8 692.9 415.8 692.9 415.8 C 692.9 415.8 692.9 415.8 692.9 415.8 Z M 690.2 414.8 C 690.4 414.9 690.4 414.9 690.2 414.8 C 690.2 414.8 690.2 414.8 690.2 414.8 Z M 691.2 420.8 C 691.3 420.9 691.3 420.9 691.2 420.8 C 691.2 420.8 691.2 420.8 691.2 420.8 Z M 692.0 420.7 C 692.0 420.7 692.0 420.7 692.0 420.7 C 692.0 420.7 692.0 420.7 692.0 420.7 Z M 688.3 383.0 C 688.4 383.1 688.4 383.1 688.3 383.0 C 688.3 383.0 688.3 383.0 688.3 383.0 Z M 690.6 386.2 C 689.8 384.1 691.9 386.9 690.6 386.2 C 690.6 386.2 690.6 386.2 690.6 386.2 Z M 689.5 405.5 C 689.2 403.5 690.2 406.8 689.5 405.5 C 689.5 405.5 689.5 405.5 689.5 405.5 Z M 692.6 403.4 C 692.6 403.3 692.6 403.3 692.6 403.4 C 692.6 403.4 692.6 403.4 692.6 403.4 Z M 685.8 416.6 C 685.9 416.7 685.9 416.7 685.8 416.6 C 685.8 416.6 685.8 416.6 685.8 416.6 Z M 686.8 420.3 C 688.0 420.4 686.2 421.4 686.8 420.3 M 686.1 401.8 C 686.2 401.8 686.2 401.8 686.1 401.8 C 686.1 401.8 686.1 401.8 686.1 401.8 Z M 688.0 390.1 C 688.0 390.1 688.0 390.1 688.0 390.1 C 688.0 390.1 688.0 390.1 688.0 390.1 Z M 687.2 378.5 C 687.3 378.6 687.3 378.6 687.2 378.5 C 687.2 378.5 687.2 378.5 687.2 378.5 Z M 686.2 394.5 C 686.4 394.6 686.4 394.6 686.2 394.5 C 686.2 394.5 686.2 394.5 686.2 394.5 Z M 687.3 400.0 C 687.5 400.1 687.5 400.1 687.3 400.0 C 687.3 400.0 687.3 400.0 687.3 400.0 Z M 688.9 375.9 C 688.9 376.0 688.9 376.0 688.9 375.9 C 688.9 375.9 688.9 375.9 688.9 375.9 Z M 686.1 393.2 C 686.1 393.3 686.1 393.3 686.1 393.2 C 686.1 393.2 686.1 393.2 686.1 393.2 Z M 689.9 389.9 C 690.0 390.0 690.0 390.0 689.9 389.9 C 689.9 389.9 689.9 389.9 689.9 389.9 Z M 685.1 419.7 C 685.1 419.8 685.1 419.8 685.1 419.7 C 685.1 419.7 685.1 419.7 685.1 419.7 Z M 687.3 375.8 C 687.3 375.9 687.3 375.9 687.3 375.8 C 687.3 375.8 687.3 375.8 687.3 375.8 Z M 686.2 375.1 C 686.3 375.2 686.3 375.2 686.2 375.1 C 686.2 375.1 686.2 375.1 686.2 375.1 Z M 691.9 383.3 C 691.2 387.4 691.6 379.7 690.3 382.6 C 690.0 376.8 692.0 382.5 691.9 383.3 C 691.9 383.3 691.9 383.3 691.9 383.3 Z M 685.2 371.0 C 687.3 371.9 688.8 372.1 690.1 370.6 C 690.6 369.2 687.5 370.3 690.1 369.3 C 691.6 371.8 693.2 366.3 690.1 367.9 C 687.9 364.6 691.8 365.9 689.1 364.9 C 687.6 363.2 687.2 362.9 687.0 362.5 C 686.8 362.1 686.8 361.6 685.2 360.8 C 682.4 361.5 683.5 359.0 682.1 360.5 C 684.4 359.1 678.5 360.3 678.4 359.4 C 680.1 358.9 677.1 358.8 675.2 359.0 C 673.3 359.2 671.8 359.7 675.2 360.0 C 672.5 360.9 673.0 359.2 672.0 359.0 C 670.9 360.2 667.5 358.1 665.9 359.2 C 666.2 359.5 667.0 359.6 667.3 360.0 C 667.8 360.7 665.4 359.8 665.6 359.8 C 664.5 360.3 660.1 361.5 664.8 359.4 C 665.0 358.4 661.0 359.8 661.1 359.0 C 657.0 358.9 660.1 360.9 658.3 359.4 C 655.4 359.4 653.3 359.4 653.3 359.6 C 651.5 359.4 651.1 358.3 649.5 359.4 C 646.0 357.3 647.0 363.4 645.7 359.3 C 644.6 360.3 643.7 357.6 643.8 360.2 C 645.0 359.0 637.7 358.2 640.9 360.0 C 640.0 360.6 635.4 357.4 636.1 360.0 C 634.4 361.9 634.7 363.8 638.3 365.6 C 637.9 364.1 642.1 367.1 639.4 364.6 C 636.3 363.7 645.1 363.7 643.2 364.6 C 642.8 367.6 647.5 362.7 649.3 364.9 C 647.8 363.7 654.9 363.1 652.8 365.3 C 654.2 365.5 654.5 364.4 655.9 365.7 C 651.7 365.5 657.6 363.4 657.3 364.7 C 656.6 365.6 662.9 366.3 662.3 365.0 C 660.1 361.9 663.9 365.7 665.0 364.4 C 668.5 363.8 664.5 367.1 667.1 364.8 C 667.8 365.2 672.4 365.2 669.5 365.8 C 668.4 365.5 672.2 362.4 672.7 365.1 C 667.8 366.6 678.5 365.9 676.8 365.1 C 672.9 364.4 675.0 363.9 677.2 363.9 C 679.5 363.8 681.1 364.5 678.7 364.9 C 681.2 366.7 677.9 364.8 681.1 365.5 C 681.0 364.6 683.8 365.1 682.4 366.2 C 682.0 367.4 682.6 366.8 683.4 366.4 C 684.1 366.1 685.2 366.2 684.6 368.1 C 683.6 369.3 687.5 370.9 685.4 370.4 C 685.2 370.4 685.1 371.0 685.2 371.0 M 685.0 370.0 C 685.7 370.0 684.7 370.9 685.0 370.0 M 685.7 370.1 C 685.7 370.2 685.7 370.2 685.7 370.1 C 685.7 370.1 685.7 370.1 685.7 370.1 Z M 681.6 365.6 C 681.6 365.7 681.6 365.7 681.6 365.6 C 681.6 365.6 681.6 365.6 681.6 365.6 Z M 676.3 358.4 C 676.3 358.5 676.3 358.5 676.3 358.4 C 676.3 358.4 676.3 358.4 676.3 358.4 Z M 677.3 364.6 C 677.4 364.6 677.4 364.6 677.3 364.6 C 677.3 364.6 677.3 364.6 677.3 364.6 Z M 683.8 366.5 C 683.8 366.5 683.8 366.5 683.8 366.5 C 683.8 366.5 683.8 366.5 683.8 366.5 Z M 677.8 365.5 C 677.5 364.6 679.2 366.2 677.7 365.7 C 677.6 365.6 677.9 365.6 677.8 365.5 M 670.7 365.9 C 670.6 365.8 670.6 365.8 670.7 365.9 M 655.0 358.5 C 654.9 358.3 654.9 358.3 655.0 358.5 M 653.7 366.0 C 653.5 365.8 653.5 365.8 653.7 366.0 M 663.6 364.9 C 661.4 365.0 663.1 364.5 663.6 364.9 M 648.0 365.4 C 650.7 366.0 645.0 365.9 648.0 365.4 M 645.3 366.0 C 645.1 365.9 645.1 365.9 645.3 366.0 M 657.7 365.6 C 657.7 365.5 657.7 365.5 657.7 365.6 C 657.7 365.6 657.7 365.6 657.7 365.6 Z M 664.5 365.3 C 667.4 365.8 661.6 366.2 664.5 365.3 M 680.6 366.2 C 679.4 366.2 681.0 365.0 680.6 366.2 M 682.9 366.8 C 682.9 366.8 682.9 366.8 682.9 366.8 C 682.9 366.8 682.9 366.8 682.9 366.8 Z M 652.4 365.5 C 652.5 365.5 652.5 365.5 652.4 365.5 C 652.4 365.5 652.4 365.5 652.4 365.5 Z M 649.2 365.6 C 649.3 365.6 649.3 365.6 649.2 365.6 C 649.2 365.6 649.2 365.6 649.2 365.6 Z M 644.0 358.7 C 644.1 358.7 644.1 358.7 644.0 358.7 C 644.0 358.7 644.0 358.7 644.0 358.7 Z M 682.6 363.3 C 684.3 364.6 679.9 364.8 680.8 363.2 C 680.7 362.5 682.3 363.3 682.6 363.3 M 666.6 363.2 C 666.1 360.8 668.7 366.4 666.6 363.2 M 644.9 364.4 C 642.8 361.6 647.6 366.4 644.9 364.4 M 640.6 364.9 C 639.3 364.4 648.6 364.6 642.1 365.3 C 641.5 365.8 641.0 365.2 640.6 364.9 M 670.6 364.7 C 670.0 363.4 674.0 365.3 670.6 364.7 M 657.5 360.8 C 656.5 361.7 653.7 362.4 654.9 361.0 C 655.0 359.1 658.7 360.1 657.5 360.8 M 685.9 368.9 C 683.4 368.8 687.4 368.0 685.9 368.9 M 680.8 364.6 C 680.7 364.7 680.7 364.7 680.8 364.6 C 680.8 364.6 680.8 364.6 680.8 364.6 Z M 678.1 364.5 C 677.9 364.3 677.9 364.3 678.1 364.5 M 683.8 369.2 C 683.9 369.0 683.9 369.0 683.8 369.2 M 657.6 363.0 C 657.4 362.8 657.4 362.8 657.6 363.0 M 664.2 364.4 C 661.1 362.3 665.9 364.0 664.2 364.4 M 672.0 360.4 C 671.1 359.4 674.0 360.3 672.0 360.4 M 659.0 365.2 C 656.7 363.2 662.1 363.3 659.0 365.2 M 665.8 364.6 C 665.6 364.6 665.6 364.6 665.8 364.6 C 665.8 364.6 665.8 364.6 665.8 364.6 Z M 656.7 360.6 C 656.7 360.6 656.7 360.6 656.7 360.6 C 656.7 360.6 656.7 360.6 656.7 360.6 Z M 655.7 360.7 C 655.8 360.6 655.8 360.6 655.7 360.7 C 655.7 360.7 655.7 360.7 655.7 360.7 Z M 656.2 365.4 C 656.3 365.3 656.3 365.3 656.2 365.4 C 656.2 365.4 656.2 365.4 656.2 365.4 Z M 686.3 362.6 C 684.2 360.8 688.1 363.6 686.3 362.6 C 686.3 362.6 686.3 362.6 686.3 362.6 Z M 675.2 365.5 C 671.5 363.9 677.8 364.0 675.2 365.5 C 675.2 365.5 675.2 365.5 675.2 365.5 Z M 671.0 362.9 C 671.0 362.8 671.0 362.8 671.0 362.9 C 671.0 362.9 671.0 362.9 671.0 362.9 Z M 660.4 366.4 C 660.4 366.3 660.4 366.3 660.4 366.4 C 660.4 366.4 660.4 366.4 660.4 366.4 Z M 685.3 361.6 C 685.4 361.5 685.4 361.5 685.3 361.6 C 685.3 361.6 685.3 361.6 685.3 361.6 Z M 649.8 364.3 C 649.8 364.2 649.8 364.2 649.8 364.3 C 649.8 364.3 649.8 364.3 649.8 364.3 Z M 662.8 360.3 C 662.0 361.0 662.6 359.7 662.8 360.3 C 662.8 360.3 662.8 360.3 662.8 360.3 Z M 659.4 360.3 C 659.3 360.3 659.3 360.3 659.4 360.3 C 659.4 360.3 659.4 360.3 659.4 360.3 Z M 644.5 366.1 C 644.4 366.1 644.4 366.1 644.5 366.1 C 644.5 366.1 644.5 366.1 644.5 366.1 Z M 650.8 358.4 C 650.7 358.4 650.7 358.4 650.8 358.4 C 650.8 358.4 650.8 358.4 650.8 358.4 Z M 648.0 360.7 C 648.0 360.7 648.0 360.7 648.0 360.7 C 648.0 360.7 648.0 360.7 648.0 360.7 Z M 656.8 364.9 C 653.4 365.3 657.6 364.0 656.8 364.9 C 656.8 364.9 656.8 364.9 656.8 364.9 Z M 639.6 361.4 C 639.5 361.2 639.5 361.2 639.6 361.4 C 639.6 361.4 639.6 361.4 639.6 361.4 Z M 637.9 364.1 C 637.8 363.9 637.8 363.9 637.9 364.1 C 637.9 364.1 637.9 364.1 637.9 364.1 Z M 637.0 365.5 C 636.9 365.4 636.9 365.4 637.0 365.5 C 637.0 365.5 637.0 365.5 637.0 365.5 Z M 678.2 361.6 C 678.3 361.7 678.3 361.7 678.2 361.6 C 678.2 361.6 678.2 361.6 678.2 361.6 Z M 679.0 366.1 C 679.0 366.1 679.0 366.1 679.0 366.1 C 679.0 366.1 679.0 366.1 679.0 366.1 Z M 674.9 366.2 C 675.0 366.2 675.0 366.2 674.9 366.2 C 674.9 366.2 674.9 366.2 674.9 366.2 Z M 679.4 359.0 C 679.5 359.1 679.5 359.1 679.4 359.0 C 679.4 359.0 679.4 359.0 679.4 359.0 Z M 661.9 362.7 C 661.9 362.7 661.9 362.7 661.9 362.7 C 661.9 362.7 661.9 362.7 661.9 362.7 Z M 660.2 360.9 C 660.3 361.0 660.3 361.0 660.2 360.9 C 660.2 360.9 660.2 360.9 660.2 360.9 Z M 664.2 358.5 C 664.2 358.6 664.2 358.6 664.2 358.5 C 664.2 358.5 664.2 358.5 664.2 358.5 Z M 659.0 359.4 C 659.0 359.4 659.0 359.4 659.0 359.4 C 659.0 359.4 659.0 359.4 659.0 359.4 Z M 690.3 367.3 C 690.3 367.3 690.3 367.3 690.3 367.3 C 690.3 367.3 690.3 367.3 690.3 367.3 Z M 687.5 369.2 C 687.6 369.2 687.6 369.2 687.5 369.2 C 687.5 369.2 687.5 369.2 687.5 369.2 Z M 661.3 365.1 C 660.6 365.8 659.8 364.1 661.3 365.1 M 667.9 364.7 C 667.9 364.6 667.9 364.6 667.9 364.7 C 667.9 364.7 667.9 364.7 667.9 364.7 Z M 650.3 365.0 C 649.5 363.6 653.4 365.7 650.3 365.0 C 650.3 365.0 650.3 365.0 650.3 365.0 Z M 653.8 359.4 C 653.7 359.3 653.7 359.3 653.8 359.4 C 653.8 359.4 653.8 359.4 653.8 359.4 Z M 652.1 359.9 C 652.0 359.8 652.0 359.8 652.1 359.9 C 652.1 359.9 652.1 359.9 652.1 359.9 Z M 642.6 363.6 C 642.5 363.4 642.5 363.4 642.6 363.6 M 668.7 365.9 C 667.7 365.3 667.9 365.4 668.7 365.9 M 648.1 364.9 C 648.2 364.9 648.2 364.9 648.1 364.9 C 648.1 364.9 648.1 364.9 648.1 364.9 Z M 640.6 364.3 C 640.6 364.3 640.6 364.3 640.6 364.3 C 640.6 364.3 640.6 364.3 640.6 364.3 Z M 673.3 365.0 C 673.2 363.3 674.1 363.7 673.3 365.0 M 684.1 366.9 C 684.2 366.8 684.2 366.8 684.1 366.9 C 684.1 366.9 684.1 366.9 684.1 366.9 Z M 629.7 364.2 C 637.6 366.3 635.7 362.7 636.0 362.0 C 637.1 361.1 636.0 360.4 634.5 359.8 C 632.9 357.5 632.0 362.1 630.9 359.8 C 628.7 356.8 628.5 362.5 627.6 359.3 C 627.9 358.5 624.9 359.1 625.1 359.3 C 623.6 357.8 621.4 360.5 621.4 360.8 C 620.4 360.4 620.3 357.5 617.1 359.7 C 614.7 360.4 613.6 357.6 614.3 359.6 C 612.5 357.4 613.0 360.2 611.3 359.5 C 610.0 358.3 611.2 361.3 609.0 359.0 C 608.0 360.8 610.0 357.8 604.0 359.1 C 606.9 359.3 601.1 360.6 602.3 359.3 C 604.3 358.0 599.4 359.8 596.7 359.0 C 596.0 359.7 592.7 361.4 593.2 359.5 C 590.4 357.4 590.3 360.8 589.1 359.1 C 588.2 358.4 587.8 359.9 587.2 359.8 C 586.2 358.5 585.8 358.9 581.2 359.2 C 576.2 359.6 576.5 361.3 577.2 362.0 C 578.0 362.7 579.2 363.3 578.1 364.2 C 578.0 364.9 582.8 367.6 580.4 365.0 C 581.2 365.7 585.8 362.0 583.5 365.6 C 585.3 364.1 582.9 367.0 587.8 365.3 C 581.2 362.8 595.3 364.3 588.9 365.5 C 590.0 366.3 592.6 366.1 590.7 365.5 C 590.0 363.3 595.3 366.5 592.6 363.8 C 596.7 364.6 595.6 362.1 596.8 363.8 C 597.7 366.8 596.6 363.0 598.6 363.9 C 603.4 363.9 599.7 367.3 602.6 365.1 C 607.3 366.6 603.7 363.8 605.3 363.4 C 605.7 361.4 610.1 365.0 606.5 365.3 C 608.4 364.2 606.8 366.2 609.0 364.9 C 607.4 363.1 611.8 367.0 611.1 365.4 C 613.0 365.0 612.0 363.8 612.6 363.8 C 615.5 363.8 614.6 365.6 615.2 364.2 C 615.9 363.5 617.2 365.9 617.6 365.3 C 614.6 365.2 620.0 363.3 620.3 364.3 C 618.5 364.5 621.2 366.8 622.4 365.3 C 620.9 361.2 624.9 366.4 626.3 364.9 C 625.0 362.6 632.7 364.7 629.8 365.7 C 630.0 365.5 629.7 364.2 629.7 364.2 M 618.4 365.0 C 616.0 364.8 621.0 364.5 618.4 365.0 M 618.5 365.6 C 617.5 364.8 620.8 366.2 618.4 365.8 C 618.4 365.8 618.7 365.6 618.5 365.6 M 608.5 365.7 C 608.8 365.0 609.9 366.0 608.5 365.7 M 606.6 364.2 C 605.0 363.6 608.8 364.1 606.6 364.2 M 584.5 364.7 C 586.7 361.3 586.8 366.6 584.5 364.7 M 599.1 365.4 C 601.8 364.9 598.2 366.8 599.1 365.4 M 599.9 364.5 C 601.2 364.0 600.2 365.3 599.9 364.5 M 588.7 364.7 C 588.5 364.6 588.5 364.6 588.7 364.7 C 588.7 364.7 588.7 364.7 588.7 364.7 Z M 582.4 364.7 C 582.3 364.7 582.3 364.7 582.4 364.7 C 582.4 364.7 582.4 364.7 582.4 364.7 Z M 595.0 364.3 C 597.1 365.1 591.7 364.7 595.0 364.3 C 595.0 364.3 595.0 364.3 595.0 364.3 Z M 585.2 359.4 C 585.4 359.3 585.4 359.3 585.2 359.4 C 585.2 359.4 585.2 359.4 585.2 359.4 Z M 620.3 363.4 C 620.4 363.4 620.4 363.4 620.3 363.4 C 620.3 363.4 620.3 363.4 620.3 363.4 Z M 627.8 364.7 C 627.7 364.2 629.2 365.1 627.8 364.7 C 627.8 364.7 627.8 364.7 627.8 364.7 Z M 633.8 360.8 C 633.9 360.7 633.9 360.7 633.8 360.8 C 633.8 360.8 633.8 360.8 633.8 360.8 Z M 622.8 361.6 C 622.9 361.6 622.9 361.6 622.8 361.6 C 622.8 361.6 622.8 361.6 622.8 361.6 Z M 621.8 364.2 C 623.0 366.0 618.9 363.7 621.8 364.2 C 621.8 364.2 621.8 364.2 621.8 364.2 Z M 597.6 359.6 C 597.5 360.4 595.8 359.3 597.6 359.6 C 597.6 359.6 597.6 359.6 597.6 359.6 Z M 606.3 363.5 C 606.0 363.9 605.2 363.3 606.3 363.5 C 606.3 363.5 606.3 363.5 606.3 363.5 Z M 610.4 366.0 C 610.1 366.5 609.3 365.8 610.4 366.0 C 610.4 366.0 610.4 366.0 610.4 366.0 Z M 627.7 365.2 C 627.5 365.3 627.5 365.3 627.7 365.2 C 627.7 365.2 627.7 365.2 627.7 365.2 Z M 625.0 363.8 C 626.8 365.6 622.2 362.8 625.0 363.8 C 625.0 363.8 625.0 363.8 625.0 363.8 Z M 628.2 363.3 C 627.2 362.6 630.6 363.6 628.2 363.3 M 626.4 360.6 C 624.1 361.3 628.4 357.4 626.4 360.6 C 626.4 360.6 626.4 360.6 626.4 360.6 Z M 614.9 359.9 C 614.7 359.8 614.7 359.8 614.9 359.9 C 614.9 359.9 614.9 359.9 614.9 359.9 Z M 616.1 365.0 C 614.1 365.0 617.4 364.6 616.1 365.0 C 616.1 365.0 616.1 365.0 616.1 365.0 Z M 633.4 365.4 C 631.4 365.4 634.7 365.0 633.4 365.4 C 633.4 365.4 633.4 365.4 633.4 365.4 Z M 608.2 361.6 C 604.9 361.9 610.2 360.7 608.2 361.6 C 608.2 361.6 608.2 361.6 608.2 361.6 Z M 596.2 363.7 C 596.1 363.6 596.1 363.6 596.2 363.7 C 596.2 363.7 596.2 363.7 596.2 363.7 Z M 593.9 364.4 C 593.9 364.3 593.9 364.3 593.9 364.4 C 593.9 364.4 593.9 364.4 593.9 364.4 Z M 584.7 362.6 C 584.5 362.5 584.5 362.5 584.7 362.6 C 584.7 362.6 584.7 362.6 584.7 362.6 Z M 591.9 365.2 C 591.9 365.2 591.9 365.2 591.9 365.2 C 591.9 365.2 591.9 365.2 591.9 365.2 Z M 585.5 364.8 C 585.4 364.7 585.4 364.7 585.5 364.8 C 585.5 364.8 585.5 364.8 585.5 364.8 Z M 586.4 366.3 C 586.2 366.2 586.2 366.2 586.4 366.3 C 586.4 366.3 586.4 366.3 586.4 366.3 Z M 600.7 358.6 C 600.6 358.5 600.6 358.5 600.7 358.6 C 600.7 358.6 600.7 358.6 600.7 358.6 Z M 624.2 365.8 C 624.0 365.7 624.0 365.7 624.2 365.8 C 624.2 365.8 624.2 365.8 624.2 365.8 Z M 586.0 364.1 C 585.9 364.0 585.9 364.0 586.0 364.1 C 586.0 364.1 586.0 364.1 586.0 364.1 Z M 601.7 362.7 C 601.7 361.2 603.1 364.7 601.3 362.8 C 601.4 362.7 601.8 362.9 601.7 362.7 M 599.6 360.2 C 599.7 360.1 599.7 360.1 599.6 360.2 C 599.6 360.2 599.6 360.2 599.6 360.2 Z M 606.7 359.3 C 606.8 359.2 606.8 359.2 606.7 359.3 C 606.7 359.3 606.7 359.3 606.7 359.3 Z M 593.1 365.5 C 593.3 366.4 591.3 364.9 593.3 365.5 M 584.6 359.9 C 584.9 360.8 582.8 359.3 584.9 359.9 M 635.7 364.9 C 635.9 364.2 637.0 365.2 635.7 364.9 M 608.3 358.5 C 608.6 357.8 609.7 358.8 608.3 358.5 M 605.0 360.4 C 605.3 361.2 603.2 359.7 605.3 360.3 M 589.5 360.0 C 589.4 360.0 589.4 360.0 589.5 360.0 C 589.5 360.0 589.5 360.0 589.5 360.0 Z M 613.0 364.9 C 612.9 364.9 612.9 364.9 613.0 364.9 C 613.0 364.9 613.0 364.9 613.0 364.9 Z M 604.3 363.1 C 605.5 364.2 602.8 362.3 604.3 363.1 M 615.6 362.9 C 617.3 364.3 612.8 362.4 615.6 362.9 M 580.2 359.9 C 582.9 361.1 578.3 359.4 580.2 359.9 M 590.5 363.9 C 592.4 365.6 589.0 363.0 590.5 363.9 M 611.3 364.1 C 611.4 365.0 609.3 363.6 611.3 364.1 M 631.1 365.0 C 633.0 365.2 628.7 365.7 631.1 365.0 M 594.2 359.9 C 594.1 359.9 594.1 359.9 594.2 359.9 C 594.2 359.9 594.2 359.9 594.2 359.9 Z M 625.1 358.4 C 625.0 358.4 625.0 358.4 625.1 358.4 C 625.1 358.4 625.1 358.4 625.1 358.4 Z M 579.8 366.1 C 579.7 366.0 579.7 366.0 579.8 366.1 C 579.8 366.1 579.8 366.1 579.8 366.1 Z M 591.6 363.1 C 591.6 363.0 591.6 363.0 591.6 363.1 C 591.6 363.1 591.6 363.1 591.6 363.1 Z M 582.5 365.5 C 582.4 365.4 582.4 365.4 582.5 365.5 C 582.5 365.5 582.5 365.5 582.5 365.5 Z M 597.6 361.8 C 597.6 361.7 597.6 361.7 597.6 361.8 C 597.6 361.8 597.6 361.8 597.6 361.8 Z M 598.9 366.2 C 598.8 366.1 598.8 366.1 598.9 366.2 C 598.9 366.2 598.9 366.2 598.9 366.2 Z M 605.4 364.3 C 605.4 364.2 605.4 364.2 605.4 364.3 C 605.4 364.3 605.4 364.3 605.4 364.3 Z M 595.9 365.8 C 591.9 366.1 597.9 364.4 595.9 365.8 C 595.9 365.8 595.9 365.8 595.9 365.8 Z M 602.7 361.4 C 602.6 361.4 602.6 361.4 602.7 361.4 C 602.7 361.4 602.7 361.4 602.7 361.4 Z M 603.2 364.5 C 600.7 365.8 601.9 362.4 603.2 364.5 M 614.2 365.6 C 613.4 366.2 613.8 364.5 614.2 365.6 M 618.5 359.8 C 618.6 359.7 618.6 359.7 618.5 359.8 C 618.5 359.8 618.5 359.8 618.5 359.8 Z M 617.4 360.2 C 617.3 360.2 617.3 360.2 617.4 360.2 C 617.4 360.2 617.4 360.2 617.4 360.2 Z M 616.8 365.8 C 616.8 365.8 616.8 365.8 616.8 365.8 C 616.8 365.8 616.8 365.8 616.8 365.8 Z M 617.2 358.6 C 617.1 358.6 617.1 358.6 617.2 358.6 C 617.2 358.6 617.2 358.6 617.2 358.6 Z M 600.4 366.0 C 600.3 366.0 600.3 366.0 600.4 366.0 C 600.4 366.0 600.4 366.0 600.4 366.0 Z M 581.3 366.4 C 581.2 366.4 581.2 366.4 581.3 366.4 C 581.3 366.4 581.3 366.4 581.3 366.4 Z M 630.6 360.4 C 630.5 360.3 630.5 360.3 630.6 360.4 C 630.6 360.4 630.6 360.4 630.6 360.4 Z M 598.3 364.3 C 598.2 364.2 598.2 364.2 598.3 364.3 C 598.3 364.3 598.3 364.3 598.3 364.3 Z M 621.4 360.1 C 621.3 360.0 621.3 360.0 621.4 360.1 C 621.4 360.1 621.4 360.1 621.4 360.1 Z M 599.6 364.7 C 599.5 364.7 599.5 364.7 599.6 364.7 C 599.6 364.7 599.6 364.7 599.6 364.7 Z M 594.8 359.6 C 594.8 359.5 594.8 359.5 594.8 359.6 C 594.8 359.6 594.8 359.6 594.8 359.6 Z M 590.5 358.6 C 590.4 358.6 590.4 358.6 590.5 358.6 C 590.5 358.6 590.5 358.6 590.5 358.6 Z M 595.1 362.6 C 595.1 362.6 595.1 362.6 595.1 362.6 C 595.1 362.6 595.1 362.6 595.1 362.6 Z M 622.8 362.0 C 630.8 363.5 616.5 362.6 622.8 362.0 M 593.8 362.3 C 599.3 362.6 589.4 364.0 593.8 362.3 C 593.2 362.7 593.7 362.3 593.8 362.3 " fill="#52575F"></path><g><clipPath id="clip-563"><path d="M 571.7 362.3 L 689.4 362.3 L 689.4 469.7 L 571.7 469.7 Z M 571.7 362.3 "></path></clipPath><g clip-path="url(#clip-563)"><text xml:space="preserve" font-family="Helvetica-Bold" font-weight="bold" font-size="24.0" fill="#FEFFFE" transform="matrix(1.00, 0.00, -0.00, -1.00, 582.0, 407.0)">N</text><text xml:space="preserve" font-family="Helvetica-Bold" font-weight="bold" font-size="24.0" fill="#FEFFFE" transform="matrix(1.00, 0.00, -0.00, -1.00, 599.3, 407.0)">o</text><text xml:space="preserve" font-family="Helvetica-Bold" font-weight="bold" font-size="24.0" fill="#FEFFFE" transform="matrix(1.00, 0.00, -0.00, -1.00, 614.0, 407.0)">t</text><text xml:space="preserve" font-family="Helvetica-Bold" font-weight="bold" font-size="24.0" fill="#FEFFFE" transform="matrix(1.00, 0.00, -0.00, -1.00, 622.0, 407.0)">a</text><text xml:space="preserve" font-family="Helvetica-Bold" font-weight="bold" font-size="24.0" fill="#FEFFFE" transform="matrix(1.00, 0.00, -0.00, -1.00, 635.3, 407.0)">t</text><text xml:space="preserve" font-family="Helvetica-Bold" font-weight="bold" font-size="24.0" fill="#FEFFFE" transform="matrix(1.00, 0.00, -0.00, -1.00, 643.3, 407.0)">i</text><text xml:space="preserve" font-family="Helvetica-Bold" font-weight="bold" font-size="24.0" fill="#FEFFFE" transform="matrix(1.00, 0.00, -0.00, -1.00, 650.0, 407.0)">o</text><text xml:space="preserve" font-family="Helvetica-Bold" font-weight="bold" font-size="24.0" fill="#FEFFFE" transform="matrix(1.00, 0.00, -0.00, -1.00, 664.6, 407.0)">n</text></g></g><path d="M 164.2 63.4 L 163.5 61.6 C 124.9 -28.1 70.4 -19.8 0.0 86.4 " fill="none" stroke="#DE6A10" stroke-width="4.00" transform="matrix(1.00, 0.00, 0.00, -1.00, 445.0, 546.9)"></path><path d="M 599.1 486.1 L 613.1 473.7 L 614.6 492.4 L 608.4 485.3 Z M 599.1 486.1 " fill="#DE6A10"></path><image xlink:href="../../CAEC101A-A25B-4BC9-B795-BA1C0A57C4FE/assets/F57FAADD2E88378432A502EAC1AD7361.png" width="415.00" height="150.00" transform="matrix(1.00, 0.00, -0.00, -1.00, 210.6, 436.5)" opacity="0.76"></image><g><clipPath id="clip-564"><path d="M 330.6 385.2 L 330.6 446.8 C 330.6 454.3 336.7 460.5 344.3 460.5 L 491.3 460.5 C 498.9 460.5 505.0 454.3 505.0 446.8 L 505.0 385.2 C 505.0 377.6 498.9 371.5 491.3 371.5 L 344.3 371.5 C 336.7 371.5 330.6 377.6 330.6 385.2 Z M 330.6 385.2 "></path></clipPath><g clip-path="url(#clip-564)"><path d="M 330.6 385.2 L 330.6 446.8 C 330.6 454.3 336.7 460.5 344.3 460.5 L 491.3 460.5 C 498.9 460.5 505.0 454.3 505.0 446.8 L 505.0 385.2 C 505.0 377.6 498.9 371.5 491.3 371.5 L 344.3 371.5 C 336.7 371.5 330.6 377.6 330.6 385.2 Z M 330.6 385.2 " fill="url(#gradSh2.185)"></path></g></g><g><clipPath id="clip-565"><path d="M 328.6 371.5 L 507.0 371.5 L 507.0 460.5 L 328.6 460.5 Z M 328.6 371.5 "></path></clipPath><g clip-path="url(#clip-565)"><text xml:space="preserve" font-family="Helvetica" font-size="24.0" fill="#FEFFFE" transform="matrix(1.00, 0.00, -0.00, -1.00, 351.0, 422.0)">C</text><text xml:space="preserve" font-family="Helvetica" font-size="24.0" fill="#FEFFFE" transform="matrix(1.00, 0.00, -0.00, -1.00, 368.3, 422.0)">o</text><text xml:space="preserve" font-family="Helvetica" font-size="24.0" fill="#FEFFFE" transform="matrix(1.00, 0.00, -0.00, -1.00, 381.7, 422.0)">m</text><text xml:space="preserve" font-family="Helvetica" font-size="24.0" fill="#FEFFFE" transform="matrix(1.00, 0.00, -0.00, -1.00, 401.7, 422.0)">p</text><text xml:space="preserve" font-family="Helvetica" font-size="24.0" fill="#FEFFFE" transform="matrix(1.00, 0.00, -0.00, -1.00, 415.0, 422.0)">o</text><text xml:space="preserve" font-family="Helvetica" font-size="24.0" fill="#FEFFFE" transform="matrix(1.00, 0.00, -0.00, -1.00, 428.4, 422.0)">s</text><text xml:space="preserve" font-family="Helvetica" font-size="24.0" fill="#FEFFFE" transform="matrix(1.00, 0.00, -0.00, -1.00, 440.4, 422.0)">i</text><text xml:space="preserve" font-family="Helvetica" font-size="24.0" fill="#FEFFFE" transform="matrix(1.00, 0.00, -0.00, -1.00, 445.7, 422.0)">t</text><text xml:space="preserve" font-family="Helvetica" font-size="24.0" fill="#FEFFFE" transform="matrix(1.00, 0.00, -0.00, -1.00, 452.4, 422.0)">i</text><text xml:space="preserve" font-family="Helvetica" font-size="24.0" fill="#FEFFFE" transform="matrix(1.00, 0.00, -0.00, -1.00, 457.7, 422.0)">o</text><text xml:space="preserve" font-family="Helvetica" font-size="24.0" fill="#FEFFFE" transform="matrix(1.00, 0.00, -0.00, -1.00, 471.1, 422.0)">n</text><text xml:space="preserve" font-family="Helvetica" font-size="24.0" fill="#FEFFFE" transform="matrix(1.00, 0.00, -0.00, -1.00, 484.4, 422.0)"> </text><text xml:space="preserve" font-family="Helvetica" font-size="24.0" fill="#FEFFFE" transform="matrix(1.00, 0.00, -0.00, -1.00, 376.0, 393.0)">p</text><text xml:space="preserve" font-family="Helvetica" font-size="24.0" fill="#FEFFFE" transform="matrix(1.00, 0.00, -0.00, -1.00, 389.4, 393.0)">r</text><text xml:space="preserve" font-family="Helvetica" font-size="24.0" fill="#FEFFFE" transform="matrix(1.00, 0.00, -0.00, -1.00, 397.3, 393.0)">o</text><text xml:space="preserve" font-family="Helvetica" font-size="24.0" fill="#FEFFFE" transform="matrix(1.00, 0.00, -0.00, -1.00, 410.7, 393.0)">c</text><text xml:space="preserve" font-family="Helvetica" font-size="24.0" fill="#FEFFFE" transform="matrix(1.00, 0.00, -0.00, -1.00, 422.7, 393.0)">e</text><text xml:space="preserve" font-family="Helvetica" font-size="24.0" fill="#FEFFFE" transform="matrix(1.00, 0.00, -0.00, -1.00, 436.0, 393.0)">s</text><text xml:space="preserve" font-family="Helvetica" font-size="24.0" fill="#FEFFFE" transform="matrix(1.00, 0.00, -0.00, -1.00, 448.0, 393.0)">s</text></g></g><path d="M 5.5 9.1 L 6.5 10.8 C 82.3 132.8 138.1 133.6 174.1 13.2 " fill="none" stroke="#DE6A10" stroke-width="4.00" transform="matrix(1.00, 0.00, 0.00, -1.00, 442.6, 371.5)"></path><path d="M 458.5 361.5 L 442.6 371.5 L 444.1 352.8 L 449.1 360.7 Z M 458.5 361.5 " fill="#DE6A10"></path></g></svg>