<?xml version="1.0" encoding="UTF-8" standalone="no"?><svg xmlns="http://www.w3.org/2000/svg" xmlns:xlink="http://www.w3.org/1999/xlink" clip-rule="evenodd" stroke-miterlimit="4.00" viewBox="0 0 379 28"><desc>SVG generated by Keynote</desc><defs></defs><g transform="matrix(1.00, 0.00, -0.00, -1.00, 0.0, 28.0)"><text xml:space="preserve" font-family="Helvetica-Bold" font-weight="bold" font-size="32.0" fill="#0264C0" transform="matrix(1.00, 0.00, -0.00, -1.00, 0.0, 3.0)">m</text><text xml:space="preserve" font-family="Helvetica-Bold" font-weight="bold" font-size="32.0" fill="#0264C0" transform="matrix(1.00, 0.00, -0.00, -1.00, 28.5, 3.0)">o</text><text xml:space="preserve" font-family="Helvetica-Bold" font-weight="bold" font-size="32.0" fill="#0264C0" transform="matrix(1.00, 0.00, -0.00, -1.00, 48.0, 3.0)">v</text><text xml:space="preserve" font-family="Helvetica-Bold" font-weight="bold" font-size="32.0" fill="#0264C0" transform="matrix(1.00, 0.00, -0.00, -1.00, 65.8, 3.0)">e</text><text xml:space="preserve" font-family="Helvetica-Bold" font-weight="bold" font-size="32.0" fill="#0264C0" transform="matrix(1.00, 0.00, -0.00, -1.00, 83.6, 3.0)">s</text><text xml:space="preserve" font-family="Helvetica-Bold" font-weight="bold" font-size="32.0" fill="#0264C0" transform="matrix(1.00, 0.00, -0.00, -1.00, 101.4, 3.0)"> </text><text xml:space="preserve" font-family="Helvetica-Bold" font-weight="bold" font-size="32.0" fill="#0264C0" transform="matrix(1.00, 0.00, -0.00, -1.00, 110.3, 3.0)">t</text><text xml:space="preserve" font-family="Helvetica-Bold" font-weight="bold" font-size="32.0" fill="#0264C0" transform="matrix(1.00, 0.00, -0.00, -1.00, 121.0, 3.0)">h</text><text xml:space="preserve" font-family="Helvetica-Bold" font-weight="bold" font-size="32.0" fill="#0264C0" transform="matrix(1.00, 0.00, -0.00, -1.00, 140.5, 3.0)">e</text><text xml:space="preserve" font-family="Helvetica-Bold" font-weight="bold" font-size="32.0" fill="#0264C0" transform="matrix(1.00, 0.00, -0.00, -1.00, 158.3, 3.0)"> </text><text xml:space="preserve" font-family="Helvetica-Bold" font-weight="bold" font-size="32.0" fill="#0264C0" transform="matrix(1.00, 0.00, -0.00, -1.00, 167.2, 3.0)">c</text><text xml:space="preserve" font-family="Helvetica-Bold" font-weight="bold" font-size="32.0" fill="#0264C0" transform="matrix(1.00, 0.00, -0.00, -1.00, 185.0, 3.0)">u</text><text xml:space="preserve" font-family="Helvetica-Bold" font-weight="bold" font-size="32.0" fill="#0264C0" transform="matrix(1.00, 0.00, -0.00, -1.00, 204.5, 3.0)">r</text><text xml:space="preserve" font-family="Helvetica-Bold" font-weight="bold" font-size="32.0" fill="#0264C0" transform="matrix(1.00, 0.00, -0.00, -1.00, 217.0, 3.0)">s</text><text xml:space="preserve" font-family="Helvetica-Bold" font-weight="bold" font-size="32.0" fill="#0264C0" transform="matrix(1.00, 0.00, -0.00, -1.00, 234.8, 3.0)">o</text><text xml:space="preserve" font-family="Helvetica-Bold" font-weight="bold" font-size="32.0" fill="#0264C0" transform="matrix(1.00, 0.00, -0.00, -1.00, 254.3, 3.0)">r</text><text xml:space="preserve" font-family="Helvetica-Bold" font-weight="bold" font-size="32.0" fill="#0264C0" transform="matrix(1.00, 0.00, -0.00, -1.00, 266.8, 3.0)"> </text><text xml:space="preserve" font-family="Helvetica-Bold" font-weight="bold" font-size="32.0" fill="#0264C0" transform="matrix(1.00, 0.00, -0.00, -1.00, 275.7, 3.0)">i</text><text xml:space="preserve" font-family="Helvetica-Bold" font-weight="bold" font-size="32.0" fill="#0264C0" transform="matrix(1.00, 0.00, -0.00, -1.00, 284.6, 3.0)">n</text><text xml:space="preserve" font-family="Helvetica-Bold" font-weight="bold" font-size="32.0" fill="#0264C0" transform="matrix(1.00, 0.00, -0.00, -1.00, 304.1, 3.0)"> </text><text xml:space="preserve" font-family="Helvetica-Bold" font-weight="bold" font-size="32.0" fill="#0264C0" transform="matrix(1.00, 0.00, -0.00, -1.00, 313.0, 3.0)">t</text><text xml:space="preserve" font-family="Helvetica-Bold" font-weight="bold" font-size="32.0" fill="#0264C0" transform="matrix(1.00, 0.00, -0.00, -1.00, 323.6, 3.0)">i</text><text xml:space="preserve" font-family="Helvetica-Bold" font-weight="bold" font-size="32.0" fill="#0264C0" transform="matrix(1.00, 0.00, -0.00, -1.00, 332.5, 3.0)">m</text><text xml:space="preserve" font-family="Helvetica-Bold" font-weight="bold" font-size="32.0" fill="#0264C0" transform="matrix(1.00, 0.00, -0.00, -1.00, 361.0, 3.0)">e</text></g></svg>