<?xml version="1.0" encoding="UTF-8" standalone="no"?><svg xmlns="http://www.w3.org/2000/svg" xmlns:xlink="http://www.w3.org/1999/xlink" clip-rule="evenodd" stroke-miterlimit="4.00" viewBox="0 0 603 457"><desc>SVG generated by Keynote</desc><defs><linearGradient id="gradSh1.22" x1="0.0" y1="0.0" x2="0.0" y2="21.9" gradientUnits="userSpaceOnUse" gradientTransform="matrix(2.48, 0.00, 0.00, 2.49, -144.8, 544.5)"><stop offset="0.00000" stop-color="#FFFFFF"></stop><stop offset="0.00073" stop-color="#FEFEFE"></stop><stop offset="0.12537" stop-color="#1F1F1F"></stop><stop offset="0.12610" stop-color="#1E1E1E"></stop><stop offset="0.13490" stop-color="#0E0E0E"></stop><stop offset="0.13563" stop-color="#0D0D0D"></stop><stop offset="0.13930" stop-color="#060606"></stop><stop offset="0.14003" stop-color="#050505"></stop><stop offset="0.14150" stop-color="#020202"></stop><stop offset="0.14223" stop-color="#010101"></stop><stop offset="0.14370" stop-color="#000000"></stop><stop offset="1.00000" stop-color="#000000"></stop></linearGradient><linearGradient id="gradSh2.23" x1="0.0" y1="0.0" x2="0.0" y2="6.3" gradientUnits="userSpaceOnUse" gradientTransform="matrix(2.48, 0.00, 0.00, 2.49, -144.8, 540.4)"><stop offset="0.00000" stop-color="#00FFFF"></stop><stop offset="0.50147" stop-color="#01FEFE"></stop><stop offset="0.50440" stop-color="#02FDFD"></stop><stop offset="0.50733" stop-color="#04FBFB"></stop><stop offset="0.51026" stop-color="#05FAFA"></stop><stop offset="0.51540" stop-color="#08F7F7"></stop><stop offset="0.51760" stop-color="#09F6F6"></stop><stop offset="0.53079" stop-color="#10EFEF"></stop><stop offset="0.53372" stop-color="#11EEEE"></stop><stop offset="0.56232" stop-color="#20DFDF"></stop><stop offset="0.56452" stop-color="#21DEDE"></stop><stop offset="0.62463" stop-color="#40BFBF"></stop><stop offset="0.62757" stop-color="#41BEBE"></stop><stop offset="0.75000" stop-color="#808080"></stop><stop offset="0.75073" stop-color="#807F7F"></stop><stop offset="0.75293" stop-color="#817E7E"></stop><stop offset="0.87610" stop-color="#C03F3F"></stop><stop offset="0.87830" stop-color="#C13E3E"></stop><stop offset="0.93842" stop-color="#E01F1F"></stop><stop offset="0.94135" stop-color="#E11E1E"></stop><stop offset="0.96994" stop-color="#F00F0F"></stop><stop offset="0.97287" stop-color="#F10E0E"></stop><stop offset="0.98534" stop-color="#F80707"></stop><stop offset="0.98827" stop-color="#F90606"></stop><stop offset="0.99340" stop-color="#FC0303"></stop><stop offset="0.99633" stop-color="#FD0202"></stop><stop offset="0.99707" stop-color="#FE0101"></stop><stop offset="1.00000" stop-color="#FF0000"></stop></linearGradient><linearGradient id="gradSh3.24" x1="0.0" y1="0.0" x2="0.0" y2="3.1" gradientUnits="userSpaceOnUse" gradientTransform="matrix(2.48, 0.00, 0.00, 2.49, -144.8, 501.7)"><stop offset="0.00000" stop-color="#FFFFFF"></stop><stop offset="0.00220" stop-color="#FEFEFE"></stop><stop offset="1.00000" stop-color="#000000"></stop></linearGradient></defs><g transform="matrix(1.00, 0.00, -0.00, -1.00, 0.0, 457.0)"><g><clipPath id="clip-726"><path d="M 2.0 2.0 L 602.0 2.0 L 602.0 456.0 L 2.0 456.0 Z M 2.0 2.0 "></path></clipPath><g clip-path="url(#clip-726)"><path d="M -144.8 -79.1 L 755.9 -79.1 L 755.9 599.1 L -144.8 599.1 Z M -144.8 -79.1 " fill="#FFFFFF"></path></g></g><g><clipPath id="clip-727"><path d="M 0.0 0.0 L 0.0 0.0 L 0.0 0.0 L 0.0 0.0 Z M 0.0 0.0 "></path></clipPath><g clip-path="url(#clip-727)"><path d="M 0.0 0.0 L 0.0 0.0 L 0.0 0.0 L 0.0 0.0 Z M 0.0 0.0 " fill="url(#gradSh1.22)"></path></g></g><g><clipPath id="clip-728"><path d="M 2.0 2.0 L 602.0 2.0 L 602.0 456.0 L 2.0 456.0 Z M 2.0 2.0 "></path></clipPath><g clip-path="url(#clip-728)"><path d="M 2.8 1.4 C 2.8 2.2 2.2 2.8 1.4 2.8 C 0.6 2.8 0.0 2.2 0.0 1.4 C 0.0 0.6 0.6 0.0 1.4 0.0 C 2.2 0.0 2.8 0.6 2.8 1.4 Z M 1.4 1.4 " fill="none" stroke="#7C756C" stroke-width="0.40" stroke-miterlimit="0.00" transform="matrix(2.48, 0.00, 0.00, 2.49, -121.2, 566.0)"></path><path d="M 2.8 1.4 C 2.8 2.2 2.2 2.8 1.4 2.8 C 0.6 2.8 0.0 2.2 0.0 1.4 C 0.0 0.6 0.6 0.0 1.4 0.0 C 2.2 0.0 2.8 0.6 2.8 1.4 Z M 1.4 1.4 " fill="none" stroke="#7C756C" stroke-width="0.40" stroke-miterlimit="0.00" transform="matrix(2.48, 0.00, 0.00, 2.49, -111.3, 566.0)"></path><path d="M 2.8 1.4 C 2.8 2.2 2.2 2.8 1.4 2.8 C 0.6 2.8 0.0 2.2 0.0 1.4 C 0.0 0.6 0.6 0.0 1.4 0.0 C 2.2 0.0 2.8 0.6 2.8 1.4 Z M 1.4 1.4 " fill="none" stroke="#7C756C" stroke-width="0.40" stroke-miterlimit="0.00" transform="matrix(2.48, 0.00, 0.00, 2.49, -101.5, 566.0)"></path><path d="M 2.8 1.4 C 2.8 2.2 2.2 2.8 1.4 2.8 C 0.6 2.8 0.0 2.2 0.0 1.4 C 0.0 0.6 0.6 0.0 1.4 0.0 C 2.2 0.0 2.8 0.6 2.8 1.4 Z M 1.4 1.4 " fill="none" stroke="#7C756C" stroke-width="0.40" stroke-miterlimit="0.00" transform="matrix(2.48, 0.00, 0.00, 2.49, -91.6, 566.0)"></path><path d="M 2.8 1.4 C 2.8 2.2 2.2 2.8 1.4 2.8 C 0.6 2.8 0.0 2.2 0.0 1.4 C 0.0 0.6 0.6 0.0 1.4 0.0 C 2.2 0.0 2.8 0.6 2.8 1.4 Z M 1.4 1.4 " fill="none" stroke="#7C756C" stroke-width="0.40" stroke-miterlimit="0.00" transform="matrix(2.48, 0.00, 0.00, 2.49, -81.8, 566.0)"></path><path d="M 2.8 1.4 C 2.8 2.2 2.2 2.8 1.4 2.8 C 0.6 2.8 0.0 2.2 0.0 1.4 C 0.0 0.6 0.6 0.0 1.4 0.0 C 2.2 0.0 2.8 0.6 2.8 1.4 Z M 1.4 1.4 " fill="none" stroke="#7C756C" stroke-width="0.40" stroke-miterlimit="0.00" transform="matrix(2.48, 0.00, 0.00, 2.49, -71.9, 566.0)"></path><path d="M 2.8 1.4 C 2.8 2.2 2.2 2.8 1.4 2.8 C 0.6 2.8 0.0 2.2 0.0 1.4 C 0.0 0.6 0.6 0.0 1.4 0.0 C 2.2 0.0 2.8 0.6 2.8 1.4 Z M 1.4 1.4 " fill="none" stroke="#7C756C" stroke-width="0.40" stroke-miterlimit="0.00" transform="matrix(2.48, 0.00, 0.00, 2.49, -62.1, 566.0)"></path><path d="M 2.8 1.4 C 2.8 2.2 2.2 2.8 1.4 2.8 C 0.6 2.8 0.0 2.2 0.0 1.4 C 0.0 0.6 0.6 0.0 1.4 0.0 C 2.2 0.0 2.8 0.6 2.8 1.4 Z M 1.4 1.4 " fill="none" stroke="#7C756C" stroke-width="0.40" stroke-miterlimit="0.00" transform="matrix(2.48, 0.00, 0.00, 2.49, -52.2, 566.0)"></path><text xml:space="preserve" font-family="Helvetica" font-size="6.0" fill="#7C756C" transform="matrix(2.48, 0.00, -0.00, -2.49, -123.6, 581.5)">I</text><text xml:space="preserve" font-family="Helvetica" font-size="6.0" fill="#7C756C" transform="matrix(2.48, 0.00, -0.00, -2.49, -119.5, 581.5)">n</text><text xml:space="preserve" font-family="Helvetica" font-size="6.0" fill="#7C756C" transform="matrix(2.48, 0.00, -0.00, -2.49, -111.3, 581.5)">t</text><text xml:space="preserve" font-family="Helvetica" font-size="6.0" fill="#7C756C" transform="matrix(2.48, 0.00, -0.00, -2.49, -107.2, 581.5)">r</text><text xml:space="preserve" font-family="Helvetica" font-size="6.0" fill="#7C756C" transform="matrix(2.48, 0.00, -0.00, -2.49, -102.2, 581.5)">o</text><text xml:space="preserve" font-family="Helvetica" font-size="6.0" fill="#7C756C" transform="matrix(2.48, 0.00, -0.00, -2.49, -94.0, 581.5)">d</text><text xml:space="preserve" font-family="Helvetica" font-size="6.0" fill="#7C756C" transform="matrix(2.48, 0.00, -0.00, -2.49, -85.7, 581.5)">u</text><text xml:space="preserve" font-family="Helvetica" font-size="6.0" fill="#7C756C" transform="matrix(2.48, 0.00, -0.00, -2.49, -77.5, 581.5)">c</text><text xml:space="preserve" font-family="Helvetica" font-size="6.0" fill="#7C756C" transform="matrix(2.48, 0.00, -0.00, -2.49, -70.0, 581.5)">t</text><text xml:space="preserve" font-family="Helvetica" font-size="6.0" fill="#7C756C" transform="matrix(2.48, 0.00, -0.00, -2.49, -65.9, 581.5)">i</text><text xml:space="preserve" font-family="Helvetica" font-size="6.0" fill="#7C756C" transform="matrix(2.48, 0.00, -0.00, -2.49, -62.6, 581.5)">o</text><text xml:space="preserve" font-family="Helvetica" font-size="6.0" fill="#7C756C" transform="matrix(2.48, 0.00, -0.00, -2.49, -54.4, 581.5)">n</text><path d="M 2.8 1.4 C 2.8 2.2 2.2 2.8 1.4 2.8 C 0.6 2.8 0.0 2.2 0.0 1.4 C 0.0 0.6 0.6 0.0 1.4 0.0 C 2.2 0.0 2.8 0.6 2.8 1.4 Z M 1.4 1.4 " fill="none" stroke="#7C756C" stroke-width="0.40" stroke-miterlimit="0.00" transform="matrix(2.48, 0.00, 0.00, 2.49, 93.7, 566.0)"></path><path d="M 2.8 1.4 C 2.8 2.2 2.2 2.8 1.4 2.8 C 0.6 2.8 0.0 2.2 0.0 1.4 C 0.0 0.6 0.6 0.0 1.4 0.0 C 2.2 0.0 2.8 0.6 2.8 1.4 Z M 1.4 1.4 " fill="none" stroke="#7C756C" stroke-width="0.40" stroke-miterlimit="0.00" transform="matrix(2.48, 0.00, 0.00, 2.49, 103.6, 566.0)"></path><path d="M 2.8 1.4 C 2.8 2.2 2.2 2.8 1.4 2.8 C 0.6 2.8 0.0 2.2 0.0 1.4 C 0.0 0.6 0.6 0.0 1.4 0.0 C 2.2 0.0 2.8 0.6 2.8 1.4 Z M 1.4 1.4 " fill="none" stroke="#7C756C" stroke-width="0.40" stroke-miterlimit="0.00" transform="matrix(2.48, 0.00, 0.00, 2.49, 113.4, 566.0)"></path><path d="M 2.8 1.4 C 2.8 2.2 2.2 2.8 1.4 2.8 C 0.6 2.8 0.0 2.2 0.0 1.4 C 0.0 0.6 0.6 0.0 1.4 0.0 C 2.2 0.0 2.8 0.6 2.8 1.4 Z M 1.4 1.4 " fill="none" stroke="#7C756C" stroke-width="0.40" stroke-miterlimit="0.00" transform="matrix(2.48, 0.00, 0.00, 2.49, 123.3, 566.0)"></path><path d="M 2.8 1.4 C 2.8 2.2 2.2 2.8 1.4 2.8 C 0.6 2.8 0.0 2.2 0.0 1.4 C 0.0 0.6 0.6 0.0 1.4 0.0 C 2.2 0.0 2.8 0.6 2.8 1.4 Z M 1.4 1.4 " fill="none" stroke="#7C756C" stroke-width="0.40" stroke-miterlimit="0.00" transform="matrix(2.48, 0.00, 0.00, 2.49, 133.1, 566.0)"></path><text xml:space="preserve" font-family="Helvetica" font-size="6.0" fill="#7C756C" transform="matrix(2.48, 0.00, -0.00, -2.49, 91.2, 581.5)">A</text><text xml:space="preserve" font-family="Helvetica" font-size="6.0" fill="#7C756C" transform="matrix(2.48, 0.00, -0.00, -2.49, 100.7, 581.5)">u</text><text xml:space="preserve" font-family="Helvetica" font-size="6.0" fill="#7C756C" transform="matrix(2.48, 0.00, -0.00, -2.49, 108.9, 581.5)">g</text><text xml:space="preserve" font-family="Helvetica" font-size="6.0" fill="#7C756C" transform="matrix(2.48, 0.00, -0.00, -2.49, 117.2, 581.5)">m</text><text xml:space="preserve" font-family="Helvetica" font-size="6.0" fill="#7C756C" transform="matrix(2.48, 0.00, -0.00, -2.49, 129.6, 581.5)">e</text><text xml:space="preserve" font-family="Helvetica" font-size="6.0" fill="#7C756C" transform="matrix(2.48, 0.00, -0.00, -2.49, 137.8, 581.5)">n</text><text xml:space="preserve" font-family="Helvetica" font-size="6.0" fill="#7C756C" transform="matrix(2.48, 0.00, -0.00, -2.49, 146.1, 581.5)">t</text><text xml:space="preserve" font-family="Helvetica" font-size="6.0" fill="#7C756C" transform="matrix(2.48, 0.00, -0.00, -2.49, 150.2, 581.5)">e</text><text xml:space="preserve" font-family="Helvetica" font-size="6.0" fill="#7C756C" transform="matrix(2.48, 0.00, -0.00, -2.49, 158.4, 581.5)">d</text><text xml:space="preserve" font-family="Helvetica" font-size="6.0" fill="#7C756C" transform="matrix(2.48, 0.00, -0.00, -2.49, 170.8, 581.5)">M</text><text xml:space="preserve" font-family="Helvetica" font-size="6.0" fill="#7C756C" transform="matrix(2.48, 0.00, -0.00, -2.49, 183.2, 581.5)">u</text><text xml:space="preserve" font-family="Helvetica" font-size="6.0" fill="#7C756C" transform="matrix(2.48, 0.00, -0.00, -2.49, 191.4, 581.5)">s</text><text xml:space="preserve" font-family="Helvetica" font-size="6.0" fill="#7C756C" transform="matrix(2.48, 0.00, -0.00, -2.49, 198.9, 581.5)">i</text><text xml:space="preserve" font-family="Helvetica" font-size="6.0" fill="#7C756C" transform="matrix(2.48, 0.00, -0.00, -2.49, 202.1, 581.5)">c</text><text xml:space="preserve" font-family="Helvetica" font-size="6.0" fill="#7C756C" transform="matrix(2.48, 0.00, -0.00, -2.49, 213.7, 581.5)">S</text><text xml:space="preserve" font-family="Helvetica" font-size="6.0" fill="#7C756C" transform="matrix(2.48, 0.00, -0.00, -2.49, 223.6, 581.5)">c</text><text xml:space="preserve" font-family="Helvetica" font-size="6.0" fill="#7C756C" transform="matrix(2.48, 0.00, -0.00, -2.49, 231.0, 581.5)">o</text><text xml:space="preserve" font-family="Helvetica" font-size="6.0" fill="#7C756C" transform="matrix(2.48, 0.00, -0.00, -2.49, 239.3, 581.5)">r</text><text xml:space="preserve" font-family="Helvetica" font-size="6.0" fill="#7C756C" transform="matrix(2.48, 0.00, -0.00, -2.49, 244.2, 581.5)">e</text><path d="M 2.8 1.4 C 2.8 2.2 2.2 2.8 1.4 2.8 C 0.6 2.8 0.0 2.2 0.0 1.4 C 0.0 0.6 0.6 0.0 1.4 0.0 C 2.2 0.0 2.8 0.6 2.8 1.4 Z M 1.4 1.4 " fill="none" stroke="#7C756C" stroke-width="0.40" stroke-miterlimit="0.00" transform="matrix(2.48, 0.00, 0.00, 2.49, 392.3, 566.0)"></path><path d="M 2.8 1.4 C 2.8 2.2 2.2 2.8 1.4 2.8 C 0.6 2.8 0.0 2.2 0.0 1.4 C 0.0 0.6 0.6 0.0 1.4 0.0 C 2.2 0.0 2.8 0.6 2.8 1.4 Z M 1.4 1.4 " fill="none" stroke="#7C756C" stroke-width="0.40" stroke-miterlimit="0.00" transform="matrix(2.48, 0.00, 0.00, 2.49, 402.1, 566.0)"></path><path d="M 2.8 1.4 C 2.8 2.2 2.2 2.8 1.4 2.8 C 0.6 2.8 0.0 2.2 0.0 1.4 C 0.0 0.6 0.6 0.0 1.4 0.0 C 2.2 0.0 2.8 0.6 2.8 1.4 Z M 1.4 1.4 " fill="none" stroke="#7C756C" stroke-width="0.40" stroke-miterlimit="0.00" transform="matrix(2.48, 0.00, 0.00, 2.49, 412.0, 566.0)"></path><path d="M 2.8 1.4 C 2.8 2.2 2.2 2.8 1.4 2.8 C 0.6 2.8 0.0 2.2 0.0 1.4 C 0.0 0.6 0.6 0.0 1.4 0.0 C 2.2 0.0 2.8 0.6 2.8 1.4 Z M 1.4 1.4 " fill="none" stroke="#7C756C" stroke-width="0.40" stroke-miterlimit="0.00" transform="matrix(2.48, 0.00, 0.00, 2.49, 421.8, 566.0)"></path><text xml:space="preserve" font-family="Helvetica" font-size="6.0" fill="#7C756C" transform="matrix(2.48, 0.00, -0.00, -2.49, 389.8, 581.5)">S</text><text xml:space="preserve" font-family="Helvetica" font-size="6.0" fill="#7C756C" transform="matrix(2.48, 0.00, -0.00, -2.49, 399.7, 581.5)">y</text><text xml:space="preserve" font-family="Helvetica" font-size="6.0" fill="#7C756C" transform="matrix(2.48, 0.00, -0.00, -2.49, 407.1, 581.5)">n</text><text xml:space="preserve" font-family="Helvetica" font-size="6.0" fill="#7C756C" transform="matrix(2.48, 0.00, -0.00, -2.49, 415.4, 581.5)">c</text><text xml:space="preserve" font-family="Helvetica" font-size="6.0" fill="#7C756C" transform="matrix(2.48, 0.00, -0.00, -2.49, 422.8, 581.5)">h</text><text xml:space="preserve" font-family="Helvetica" font-size="6.0" fill="#7C756C" transform="matrix(2.48, 0.00, -0.00, -2.49, 431.0, 581.5)">r</text><text xml:space="preserve" font-family="Helvetica" font-size="6.0" fill="#7C756C" transform="matrix(2.48, 0.00, -0.00, -2.49, 436.0, 581.5)">o</text><text xml:space="preserve" font-family="Helvetica" font-size="6.0" fill="#7C756C" transform="matrix(2.48, 0.00, -0.00, -2.49, 444.2, 581.5)">n</text><text xml:space="preserve" font-family="Helvetica" font-size="6.0" fill="#7C756C" transform="matrix(2.48, 0.00, -0.00, -2.49, 452.5, 581.5)">i</text><text xml:space="preserve" font-family="Helvetica" font-size="6.0" fill="#7C756C" transform="matrix(2.48, 0.00, -0.00, -2.49, 455.8, 581.5)">z</text><text xml:space="preserve" font-family="Helvetica" font-size="6.0" fill="#7C756C" transform="matrix(2.48, 0.00, -0.00, -2.49, 463.2, 581.5)">a</text><text xml:space="preserve" font-family="Helvetica" font-size="6.0" fill="#7C756C" transform="matrix(2.48, 0.00, -0.00, -2.49, 471.4, 581.5)">t</text><text xml:space="preserve" font-family="Helvetica" font-size="6.0" fill="#7C756C" transform="matrix(2.48, 0.00, -0.00, -2.49, 475.6, 581.5)">i</text><text xml:space="preserve" font-family="Helvetica" font-size="6.0" fill="#7C756C" transform="matrix(2.48, 0.00, -0.00, -2.49, 478.9, 581.5)">o</text><text xml:space="preserve" font-family="Helvetica" font-size="6.0" fill="#7C756C" transform="matrix(2.48, 0.00, -0.00, -2.49, 487.1, 581.5)">n</text><path d="M 2.8 1.4 C 2.8 2.2 2.2 2.8 1.4 2.8 C 0.6 2.8 0.0 2.2 0.0 1.4 C 0.0 0.6 0.6 0.0 1.4 0.0 C 2.2 0.0 2.8 0.6 2.8 1.4 Z M 1.4 1.4 " fill="none" stroke="#7C756C" stroke-width="0.40" stroke-miterlimit="0.00" transform="matrix(2.48, 0.00, 0.00, 2.49, 635.2, 566.0)"></path><path d="M 2.8 1.4 C 2.8 2.2 2.2 2.8 1.4 2.8 C 0.6 2.8 0.0 2.2 0.0 1.4 C 0.0 0.6 0.6 0.0 1.4 0.0 C 2.2 0.0 2.8 0.6 2.8 1.4 Z M 1.4 1.4 " fill="none" stroke="#7C756C" stroke-width="0.40" stroke-miterlimit="0.00" transform="matrix(2.48, 0.00, 0.00, 2.49, 645.0, 566.0)"></path><path d="M 2.8 1.4 C 2.8 2.2 2.2 2.8 1.4 2.8 C 0.6 2.8 0.0 2.2 0.0 1.4 C 0.0 0.6 0.6 0.0 1.4 0.0 C 2.2 0.0 2.8 0.6 2.8 1.4 Z M 1.4 1.4 " fill="none" stroke="#7C756C" stroke-width="0.40" stroke-miterlimit="0.00" transform="matrix(2.48, 0.00, 0.00, 2.49, 654.9, 566.0)"></path><path d="M 2.8 1.4 C 2.8 2.2 2.2 2.8 1.4 2.8 C 0.6 2.8 0.0 2.2 0.0 1.4 C 0.0 0.6 0.6 0.0 1.4 0.0 C 2.2 0.0 2.8 0.6 2.8 1.4 Z M 1.4 1.4 " fill="none" stroke="#7C756C" stroke-width="0.40" stroke-miterlimit="0.00" transform="matrix(2.48, 0.00, 0.00, 2.49, 664.7, 566.0)"></path><path d="M 2.8 1.4 C 2.8 2.2 2.2 2.8 1.4 2.8 C 0.6 2.8 0.0 2.2 0.0 1.4 C 0.0 0.6 0.6 0.0 1.4 0.0 C 2.2 0.0 2.8 0.6 2.8 1.4 Z M 1.4 1.4 " fill="none" stroke="#7C756C" stroke-width="0.40" stroke-miterlimit="0.00" transform="matrix(2.48, 0.00, 0.00, 2.49, 674.6, 566.0)"></path><path d="M 2.8 1.4 C 2.8 2.2 2.2 2.8 1.4 2.8 C 0.6 2.8 0.0 2.2 0.0 1.4 C 0.0 0.6 0.6 0.0 1.4 0.0 C 2.2 0.0 2.8 0.6 2.8 1.4 Z M 1.4 1.4 " fill="none" stroke="#000000" stroke-width="0.40" stroke-miterlimit="0.00" transform="matrix(2.48, 0.00, 0.00, 2.49, 684.4, 566.0)"></path><path d="M 2.8 1.4 C 2.8 2.2 2.2 2.8 1.4 2.8 C 0.6 2.8 0.0 2.2 0.0 1.4 C 0.0 0.6 0.6 0.0 1.4 0.0 C 2.2 0.0 2.8 0.6 2.8 1.4 Z M 1.4 1.4 " fill="none" stroke="#000000" stroke-width="0.40" stroke-miterlimit="0.00" transform="matrix(2.48, 0.00, 0.00, 2.49, 694.3, 566.0)"></path><path d="M 2.8 1.4 C 2.8 2.2 2.2 2.8 1.4 2.8 C 0.6 2.8 0.0 2.2 0.0 1.4 C 0.0 0.6 0.6 0.0 1.4 0.0 C 2.2 0.0 2.8 0.6 2.8 1.4 Z M 1.4 1.4 " fill="none" stroke="#000000" stroke-width="0.40" stroke-miterlimit="0.00" transform="matrix(2.48, 0.00, 0.00, 2.49, 704.1, 566.0)"></path><path d="M 2.8 1.4 C 2.8 2.2 2.2 2.8 1.4 2.8 C 0.6 2.8 0.0 2.2 0.0 1.4 C 0.0 0.6 0.6 0.0 1.4 0.0 C 2.2 0.0 2.8 0.6 2.8 1.4 Z M 1.4 1.4 " fill="none" stroke="#000000" stroke-width="0.40" stroke-miterlimit="0.00" transform="matrix(2.48, 0.00, 0.00, 2.49, 714.0, 566.0)"></path><path d="M 2.8 1.4 C 2.8 2.2 2.2 2.8 1.4 2.8 C 0.6 2.8 0.0 2.2 0.0 1.4 C 0.0 0.6 0.6 0.0 1.4 0.0 C 2.2 0.0 2.8 0.6 2.8 1.4 Z M 1.4 1.4 " fill="#000000" stroke="#000000" stroke-width="0.40" stroke-miterlimit="0.00" transform="matrix(2.48, 0.00, 0.00, 2.49, 723.8, 566.0)"></path><path d="M 2.8 1.4 C 2.8 2.2 2.2 2.8 1.4 2.8 C 0.6 2.8 0.0 2.2 0.0 1.4 C 0.0 0.6 0.6 0.0 1.4 0.0 C 2.2 0.0 2.8 0.6 2.8 1.4 Z M 1.4 1.4 " fill="none" stroke="#000000" stroke-width="0.40" stroke-miterlimit="0.00" transform="matrix(2.48, 0.00, 0.00, 2.49, 733.7, 566.0)"></path><path d="M 2.8 1.4 C 2.8 2.2 2.2 2.8 1.4 2.8 C 0.6 2.8 0.0 2.2 0.0 1.4 C 0.0 0.6 0.6 0.0 1.4 0.0 C 2.2 0.0 2.8 0.6 2.8 1.4 Z M 1.4 1.4 " fill="none" stroke="#000000" stroke-width="0.40" stroke-miterlimit="0.00" transform="matrix(2.48, 0.00, 0.00, 2.49, 743.5, 566.0)"></path><text xml:space="preserve" font-family="Helvetica" font-size="6.0" fill="#000000" transform="matrix(2.48, 0.00, -0.00, -2.49, 632.7, 581.5)">G</text><text xml:space="preserve" font-family="Helvetica" font-size="6.0" fill="#000000" transform="matrix(2.48, 0.00, -0.00, -2.49, 644.3, 581.5)">r</text><text xml:space="preserve" font-family="Helvetica" font-size="6.0" fill="#000000" transform="matrix(2.48, 0.00, -0.00, -2.49, 649.0, 581.5)">a</text><text xml:space="preserve" font-family="Helvetica" font-size="6.0" fill="#000000" transform="matrix(2.48, 0.00, -0.00, -2.49, 657.3, 581.5)">p</text><text xml:space="preserve" font-family="Helvetica" font-size="6.0" fill="#000000" transform="matrix(2.48, 0.00, -0.00, -2.49, 665.6, 581.5)">h</text><text xml:space="preserve" font-family="Helvetica" font-size="6.0" fill="#000000" transform="matrix(2.48, 0.00, -0.00, -2.49, 673.8, 581.5)">i</text><text xml:space="preserve" font-family="Helvetica" font-size="6.0" fill="#000000" transform="matrix(2.48, 0.00, -0.00, -2.49, 677.1, 581.5)">c</text><text xml:space="preserve" font-family="Helvetica" font-size="6.0" fill="#000000" transform="matrix(2.48, 0.00, -0.00, -2.49, 688.6, 581.5)">s</text><text xml:space="preserve" font-family="Helvetica" font-size="6.0" fill="#000000" transform="matrix(2.48, 0.00, -0.00, -2.49, 696.1, 581.5)">i</text><text xml:space="preserve" font-family="Helvetica" font-size="6.0" fill="#000000" transform="matrix(2.48, 0.00, -0.00, -2.49, 699.4, 581.5)">g</text><text xml:space="preserve" font-family="Helvetica" font-size="6.0" fill="#000000" transform="matrix(2.48, 0.00, -0.00, -2.49, 707.6, 581.5)">n</text><text xml:space="preserve" font-family="Helvetica" font-size="6.0" fill="#000000" transform="matrix(2.48, 0.00, -0.00, -2.49, 715.9, 581.5)">a</text><text xml:space="preserve" font-family="Helvetica" font-size="6.0" fill="#000000" transform="matrix(2.48, 0.00, -0.00, -2.49, 724.1, 581.5)">l</text><text xml:space="preserve" font-family="Helvetica" font-size="6.0" fill="#000000" transform="matrix(2.48, 0.00, -0.00, -2.49, 727.4, 581.5)">s</text></g></g><g><clipPath id="clip-729"><path d="M 0.0 0.0 L 0.0 0.0 L 0.0 0.0 L 0.0 0.0 Z M 0.0 0.0 "></path></clipPath><g clip-path="url(#clip-729)"><path d="M 0.0 0.0 L 0.0 0.0 L 0.0 0.0 L 0.0 0.0 Z M 0.0 0.0 " fill="url(#gradSh2.23)"></path></g></g><g><clipPath id="clip-730"><path d="M 2.0 2.0 L 602.0 2.0 L 602.0 456.0 L 2.0 456.0 Z M 2.0 2.0 "></path></clipPath><g clip-path="url(#clip-730)"><path d="M -144.8 505.7 L 755.9 505.7 L 755.9 544.4 L -144.8 544.4 Z M -144.8 505.7 " fill="#EDEDE0"></path><text xml:space="preserve" font-family="Helvetica" font-size="12.0" fill="#ED2B2B" transform="matrix(2.48, 0.00, -0.00, -2.49, -123.6, 520.1)">E</text><text xml:space="preserve" font-family="Helvetica" font-size="12.0" fill="#ED2B2B" transform="matrix(2.48, 0.00, -0.00, -2.49, -103.9, 520.1)">x</text><text xml:space="preserve" font-family="Helvetica" font-size="12.0" fill="#ED2B2B" transform="matrix(2.48, 0.00, -0.00, -2.49, -89.0, 520.1)">a</text><text xml:space="preserve" font-family="Helvetica" font-size="12.0" fill="#ED2B2B" transform="matrix(2.48, 0.00, -0.00, -2.49, -72.5, 520.1)">m</text><text xml:space="preserve" font-family="Helvetica" font-size="12.0" fill="#ED2B2B" transform="matrix(2.48, 0.00, -0.00, -2.49, -47.8, 520.1)">p</text><text xml:space="preserve" font-family="Helvetica" font-size="12.0" fill="#ED2B2B" transform="matrix(2.48, 0.00, -0.00, -2.49, -31.3, 520.1)">l</text><text xml:space="preserve" font-family="Helvetica" font-size="12.0" fill="#ED2B2B" transform="matrix(2.48, 0.00, -0.00, -2.49, -24.7, 520.1)">e</text><text xml:space="preserve" font-family="Helvetica" font-size="12.0" fill="#ED2B2B" transform="matrix(2.48, 0.00, -0.00, -2.49, -8.2, 520.1)">s</text></g></g><g><clipPath id="clip-731"><path d="M 0.0 0.0 L 0.0 0.0 L 0.0 0.0 L 0.0 0.0 Z M 0.0 0.0 "></path></clipPath><g clip-path="url(#clip-731)"><path d="M 0.0 0.0 L 0.0 0.0 L 0.0 0.0 L 0.0 0.0 Z M 0.0 0.0 " fill="url(#gradSh3.24)"></path></g></g><g><clipPath id="clip-732"><path d="M 24.1 357.3 L 587.1 357.3 L 587.1 434.2 L 24.1 434.2 Z M 24.1 357.3 "></path></clipPath><g clip-path="url(#clip-732)"><image xlink:href="86500F8A7EF08C708063B0E9E0927AB5.png" width="955.00" height="130.00" transform="matrix(0.59, 0.00, -0.00, -0.59, 24.1, 434.2)"></image></g></g><g><clipPath id="clip-733"><path d="M 2.0 2.0 L 602.0 2.0 L 602.0 456.0 L 2.0 456.0 Z M 2.0 2.0 "></path></clipPath><g clip-path="url(#clip-733)"><text xml:space="preserve" font-family="Helvetica" font-size="10.0" fill="#000000" transform="matrix(2.48, 0.00, -0.00, -2.49, 24.1, 306.4)">g</text><text xml:space="preserve" font-family="Helvetica" font-size="10.0" fill="#000000" transform="matrix(2.48, 0.00, -0.00, -2.49, 39.2, 306.4)">0</text><text xml:space="preserve" font-family="Helvetica" font-size="10.0" fill="#000000" transform="matrix(2.48, 0.00, -0.00, -2.49, 59.8, 306.4)">=</text><text xml:space="preserve" font-family="Helvetica" font-size="10.0" fill="#000000" transform="matrix(2.48, 0.00, -0.00, -2.49, 85.9, 306.4)">S</text><text xml:space="preserve" font-family="Helvetica" font-size="7.0" fill="#000000" transform="matrix(2.48, 0.00, -0.00, -2.49, 102.4, 302.2)">f</text><text xml:space="preserve" font-family="Helvetica" font-size="7.0" fill="#000000" transform="matrix(2.48, 0.00, -0.00, -2.49, 109.6, 302.2)">0</text><text xml:space="preserve" font-family="Helvetica" font-size="10.0" fill="#000000" transform="matrix(2.48, 0.00, -0.00, -2.49, 127.4, 306.4)">/</text><text xml:space="preserve" font-family="Helvetica" font-size="10.0" fill="#000000" transform="matrix(2.48, 0.00, -0.00, -2.49, 146.6, 306.4)">S</text><text xml:space="preserve" font-family="Helvetica" font-size="7.0" fill="#000000" transform="matrix(2.48, 0.00, -0.00, -2.49, 163.1, 302.6)">r</text><text xml:space="preserve" font-family="Helvetica" font-size="7.0" fill="#000000" transform="matrix(2.48, 0.00, -0.00, -2.49, 169.3, 302.6)">m</text><text xml:space="preserve" font-family="Helvetica" font-size="7.0" fill="#000000" transform="matrix(2.48, 0.00, -0.00, -2.49, 183.7, 302.6)">s</text><text xml:space="preserve" font-family="Helvetica" font-size="7.0" fill="#000000" transform="matrix(2.48, 0.00, -0.00, -2.49, 192.9, 302.6)">0</text><text xml:space="preserve" font-family="Helvetica" font-size="10.0" fill="#000000" transform="matrix(2.48, 0.00, -0.00, -2.49, 210.6, 306.4)">/</text><text xml:space="preserve" font-family="Helvetica" font-size="10.0" fill="#000000" transform="matrix(2.48, 0.00, -0.00, -2.49, 229.9, 306.4)">k</text><text xml:space="preserve" font-family="Helvetica" font-size="7.0" fill="#000000" transform="matrix(2.48, 0.00, -0.00, -2.49, 242.2, 302.6)">c</text><text xml:space="preserve" font-family="Helvetica" font-size="10.0" fill="#000000" transform="matrix(2.48, 0.00, -0.00, -2.49, 253.0, 306.4)">0</text><text xml:space="preserve" font-family="Helvetica" font-size="9.0" fill="#7F6666" transform="matrix(2.48, 0.00, -0.00, -2.49, 24.1, 272.6)">S</text><text xml:space="preserve" font-family="Helvetica" font-size="6.0" fill="#7F6666" transform="matrix(2.48, 0.00, -0.00, -2.49, 39.0, 269.4)">f</text><text xml:space="preserve" font-family="Helvetica" font-size="6.0" fill="#7F6666" transform="matrix(2.48, 0.00, -0.00, -2.49, 45.1, 269.4)">0</text><text xml:space="preserve" font-family="Helvetica" font-size="9.0" fill="#7F6666" transform="matrix(2.48, 0.00, -0.00, -2.49, 60.8, 272.6)">:</text><text xml:space="preserve" font-family="Helvetica" font-size="9.0" fill="#7F6666" transform="matrix(2.48, 0.00, -0.00, -2.49, 74.7, 272.6)">f</text><text xml:space="preserve" font-family="Helvetica" font-size="9.0" fill="#7F6666" transform="matrix(2.48, 0.00, -0.00, -2.49, 80.8, 272.6)">u</text><text xml:space="preserve" font-family="Helvetica" font-size="9.0" fill="#7F6666" transform="matrix(2.48, 0.00, -0.00, -2.49, 93.2, 272.6)">n</text><text xml:space="preserve" font-family="Helvetica" font-size="9.0" fill="#7F6666" transform="matrix(2.48, 0.00, -0.00, -2.49, 105.6, 272.6)">d</text><text xml:space="preserve" font-family="Helvetica" font-size="9.0" fill="#7F6666" transform="matrix(2.48, 0.00, -0.00, -2.49, 118.0, 272.6)">a</text><text xml:space="preserve" font-family="Helvetica" font-size="9.0" fill="#7F6666" transform="matrix(2.48, 0.00, -0.00, -2.49, 130.4, 272.6)">m</text><text xml:space="preserve" font-family="Helvetica" font-size="9.0" fill="#7F6666" transform="matrix(2.48, 0.00, -0.00, -2.49, 148.9, 272.6)">e</text><text xml:space="preserve" font-family="Helvetica" font-size="9.0" fill="#7F6666" transform="matrix(2.48, 0.00, -0.00, -2.49, 161.3, 272.6)">n</text><text xml:space="preserve" font-family="Helvetica" font-size="9.0" fill="#7F6666" transform="matrix(2.48, 0.00, -0.00, -2.49, 173.7, 272.6)">t</text><text xml:space="preserve" font-family="Helvetica" font-size="9.0" fill="#7F6666" transform="matrix(2.48, 0.00, -0.00, -2.49, 179.8, 272.6)">a</text><text xml:space="preserve" font-family="Helvetica" font-size="9.0" fill="#7F6666" transform="matrix(2.48, 0.00, -0.00, -2.49, 192.2, 272.6)">l</text><text xml:space="preserve" font-family="Helvetica" font-size="9.0" fill="#7F6666" transform="matrix(2.48, 0.00, -0.00, -2.49, 203.3, 272.6)">f</text><text xml:space="preserve" font-family="Helvetica" font-size="9.0" fill="#7F6666" transform="matrix(2.48, 0.00, -0.00, -2.49, 209.5, 272.6)">r</text><text xml:space="preserve" font-family="Helvetica" font-size="9.0" fill="#7F6666" transform="matrix(2.48, 0.00, -0.00, -2.49, 216.9, 272.6)">e</text><text xml:space="preserve" font-family="Helvetica" font-size="9.0" fill="#7F6666" transform="matrix(2.48, 0.00, -0.00, -2.49, 229.3, 272.6)">q</text><text xml:space="preserve" font-family="Helvetica" font-size="9.0" fill="#7F6666" transform="matrix(2.48, 0.00, -0.00, -2.49, 241.7, 272.6)">u</text><text xml:space="preserve" font-family="Helvetica" font-size="9.0" fill="#7F6666" transform="matrix(2.48, 0.00, -0.00, -2.49, 254.1, 272.6)">e</text><text xml:space="preserve" font-family="Helvetica" font-size="9.0" fill="#7F6666" transform="matrix(2.48, 0.00, -0.00, -2.49, 266.5, 272.6)">n</text><text xml:space="preserve" font-family="Helvetica" font-size="9.0" fill="#7F6666" transform="matrix(2.48, 0.00, -0.00, -2.49, 278.8, 272.6)">c</text><text xml:space="preserve" font-family="Helvetica" font-size="9.0" fill="#7F6666" transform="matrix(2.48, 0.00, -0.00, -2.49, 290.0, 272.6)">y</text><text xml:space="preserve" font-family="Helvetica" font-size="9.0" fill="#7F6666" transform="matrix(2.48, 0.00, -0.00, -2.49, 24.1, 238.8)">S</text><text xml:space="preserve" font-family="Helvetica" font-size="6.0" fill="#7F6666" transform="matrix(2.48, 0.00, -0.00, -2.49, 39.0, 236.0)">r</text><text xml:space="preserve" font-family="Helvetica" font-size="6.0" fill="#7F6666" transform="matrix(2.48, 0.00, -0.00, -2.49, 44.3, 236.0)">m</text><text xml:space="preserve" font-family="Helvetica" font-size="6.0" fill="#7F6666" transform="matrix(2.48, 0.00, -0.00, -2.49, 56.6, 236.0)">s</text><text xml:space="preserve" font-family="Helvetica" font-size="6.0" fill="#7F6666" transform="matrix(2.48, 0.00, -0.00, -2.49, 64.5, 236.0)">0</text><text xml:space="preserve" font-family="Helvetica" font-size="9.0" fill="#7F6666" transform="matrix(2.48, 0.00, -0.00, -2.49, 80.2, 238.8)">:</text><text xml:space="preserve" font-family="Helvetica" font-size="9.0" fill="#7F6666" transform="matrix(2.48, 0.00, -0.00, -2.49, 94.0, 238.8)">f</text><text xml:space="preserve" font-family="Helvetica" font-size="9.0" fill="#7F6666" transform="matrix(2.48, 0.00, -0.00, -2.49, 100.2, 238.8)">0</text><text xml:space="preserve" font-family="Helvetica" font-size="9.0" fill="#7F6666" transform="matrix(2.48, 0.00, -0.00, -2.49, 118.8, 238.8)">R</text><text xml:space="preserve" font-family="Helvetica" font-size="9.0" fill="#7F6666" transform="matrix(2.48, 0.00, -0.00, -2.49, 134.8, 238.8)">M</text><text xml:space="preserve" font-family="Helvetica" font-size="9.0" fill="#7F6666" transform="matrix(2.48, 0.00, -0.00, -2.49, 153.4, 238.8)">S</text><text xml:space="preserve" font-family="Helvetica" font-size="9.0" fill="#7F6666" transform="matrix(2.48, 0.00, -0.00, -2.49, 174.4, 238.8)">v</text><text xml:space="preserve" font-family="Helvetica" font-size="9.0" fill="#7F6666" transform="matrix(2.48, 0.00, -0.00, -2.49, 185.0, 238.8)">a</text><text xml:space="preserve" font-family="Helvetica" font-size="9.0" fill="#7F6666" transform="matrix(2.48, 0.00, -0.00, -2.49, 197.4, 238.8)">l</text><text xml:space="preserve" font-family="Helvetica" font-size="9.0" fill="#7F6666" transform="matrix(2.48, 0.00, -0.00, -2.49, 202.3, 238.8)">u</text><text xml:space="preserve" font-family="Helvetica" font-size="9.0" fill="#7F6666" transform="matrix(2.48, 0.00, -0.00, -2.49, 214.7, 238.8)">e</text><text xml:space="preserve" font-family="Helvetica" font-size="9.0" fill="#7F6666" transform="matrix(2.48, 0.00, -0.00, -2.49, 227.1, 238.8)">s</text><text xml:space="preserve" font-family="Helvetica" font-size="10.0" fill="#000000" transform="matrix(2.48, 0.00, -0.00, -2.49, 24.1, 199.5)">g</text><text xml:space="preserve" font-family="Helvetica" font-size="10.0" fill="#000000" transform="matrix(2.48, 0.00, -0.00, -2.49, 39.2, 199.5)">1</text><text xml:space="preserve" font-family="Helvetica" font-size="10.0" fill="#000000" transform="matrix(2.48, 0.00, -0.00, -2.49, 59.8, 199.5)">=</text><text xml:space="preserve" font-family="Helvetica" font-size="10.0" fill="#000000" transform="matrix(2.48, 0.00, -0.00, -2.49, 85.9, 199.5)">S</text><text xml:space="preserve" font-family="Helvetica" font-size="7.0" fill="#000000" transform="matrix(2.48, 0.00, -0.00, -2.49, 102.4, 195.4)">f</text><text xml:space="preserve" font-family="Helvetica" font-size="7.0" fill="#000000" transform="matrix(2.48, 0.00, -0.00, -2.49, 109.6, 195.4)">0</text><text xml:space="preserve" font-family="Helvetica" font-size="10.0" fill="#000000" transform="matrix(2.48, 0.00, -0.00, -2.49, 127.4, 199.5)">/</text><text xml:space="preserve" font-family="Helvetica" font-size="10.0" fill="#000000" transform="matrix(2.48, 0.00, -0.00, -2.49, 146.6, 199.5)">S</text><text xml:space="preserve" font-family="Helvetica" font-size="7.0" fill="#000000" transform="matrix(2.48, 0.00, -0.00, -2.49, 163.1, 195.8)">r</text><text xml:space="preserve" font-family="Helvetica" font-size="7.0" fill="#000000" transform="matrix(2.48, 0.00, -0.00, -2.49, 169.3, 195.8)">m</text><text xml:space="preserve" font-family="Helvetica" font-size="7.0" fill="#000000" transform="matrix(2.48, 0.00, -0.00, -2.49, 183.7, 195.8)">s</text><text xml:space="preserve" font-family="Helvetica" font-size="7.0" fill="#000000" transform="matrix(2.48, 0.00, -0.00, -2.49, 192.9, 195.8)">1</text><text xml:space="preserve" font-family="Helvetica" font-size="10.0" fill="#000000" transform="matrix(2.48, 0.00, -0.00, -2.49, 209.2, 199.5)">+</text><text xml:space="preserve" font-family="Helvetica" font-size="10.0" fill="#000000" transform="matrix(2.48, 0.00, -0.00, -2.49, 234.0, 199.5)">S</text><text xml:space="preserve" font-family="Helvetica" font-size="7.0" fill="#000000" transform="matrix(2.48, 0.00, -0.00, -2.49, 250.5, 195.8)">r</text><text xml:space="preserve" font-family="Helvetica" font-size="7.0" fill="#000000" transform="matrix(2.48, 0.00, -0.00, -2.49, 256.7, 195.8)">m</text><text xml:space="preserve" font-family="Helvetica" font-size="7.0" fill="#000000" transform="matrix(2.48, 0.00, -0.00, -2.49, 271.1, 195.8)">s</text><text xml:space="preserve" font-family="Helvetica" font-size="7.0" fill="#000000" transform="matrix(2.48, 0.00, -0.00, -2.49, 280.2, 195.8)">0</text><text xml:space="preserve" font-family="Helvetica" font-size="10.0" fill="#000000" transform="matrix(2.48, 0.00, -0.00, -2.49, 298.0, 199.5)">/</text><text xml:space="preserve" font-family="Helvetica" font-size="10.0" fill="#000000" transform="matrix(2.48, 0.00, -0.00, -2.49, 317.2, 199.5)">k</text><text xml:space="preserve" font-family="Helvetica" font-size="7.0" fill="#000000" transform="matrix(2.48, 0.00, -0.00, -2.49, 329.6, 195.8)">c</text><text xml:space="preserve" font-family="Helvetica" font-size="10.0" fill="#000000" transform="matrix(2.48, 0.00, -0.00, -2.49, 340.4, 199.5)">1</text><text xml:space="preserve" font-family="Helvetica" font-size="9.0" fill="#7F6666" transform="matrix(2.48, 0.00, -0.00, -2.49, 24.1, 165.8)">S</text><text xml:space="preserve" font-family="Helvetica" font-size="6.0" fill="#7F6666" transform="matrix(2.48, 0.00, -0.00, -2.49, 39.0, 163.0)">r</text><text xml:space="preserve" font-family="Helvetica" font-size="6.0" fill="#7F6666" transform="matrix(2.48, 0.00, -0.00, -2.49, 44.3, 163.0)">m</text><text xml:space="preserve" font-family="Helvetica" font-size="6.0" fill="#7F6666" transform="matrix(2.48, 0.00, -0.00, -2.49, 56.6, 163.0)">s</text><text xml:space="preserve" font-family="Helvetica" font-size="6.0" fill="#7F6666" transform="matrix(2.48, 0.00, -0.00, -2.49, 64.5, 163.0)">1</text><text xml:space="preserve" font-family="Helvetica" font-size="9.0" fill="#7F6666" transform="matrix(2.48, 0.00, -0.00, -2.49, 80.2, 165.8)">:</text><text xml:space="preserve" font-family="Helvetica" font-size="9.0" fill="#7F6666" transform="matrix(2.48, 0.00, -0.00, -2.49, 94.0, 165.8)">f</text><text xml:space="preserve" font-family="Helvetica" font-size="9.0" fill="#7F6666" transform="matrix(2.48, 0.00, -0.00, -2.49, 100.2, 165.8)">1</text><text xml:space="preserve" font-family="Helvetica" font-size="9.0" fill="#7F6666" transform="matrix(2.48, 0.00, -0.00, -2.49, 118.8, 165.8)">R</text><text xml:space="preserve" font-family="Helvetica" font-size="9.0" fill="#7F6666" transform="matrix(2.48, 0.00, -0.00, -2.49, 134.8, 165.8)">M</text><text xml:space="preserve" font-family="Helvetica" font-size="9.0" fill="#7F6666" transform="matrix(2.48, 0.00, -0.00, -2.49, 153.4, 165.8)">S</text><text xml:space="preserve" font-family="Helvetica" font-size="9.0" fill="#7F6666" transform="matrix(2.48, 0.00, -0.00, -2.49, 174.4, 165.8)">v</text><text xml:space="preserve" font-family="Helvetica" font-size="9.0" fill="#7F6666" transform="matrix(2.48, 0.00, -0.00, -2.49, 185.0, 165.8)">a</text><text xml:space="preserve" font-family="Helvetica" font-size="9.0" fill="#7F6666" transform="matrix(2.48, 0.00, -0.00, -2.49, 197.4, 165.8)">l</text><text xml:space="preserve" font-family="Helvetica" font-size="9.0" fill="#7F6666" transform="matrix(2.48, 0.00, -0.00, -2.49, 202.3, 165.8)">u</text><text xml:space="preserve" font-family="Helvetica" font-size="9.0" fill="#7F6666" transform="matrix(2.48, 0.00, -0.00, -2.49, 214.7, 165.8)">e</text><text xml:space="preserve" font-family="Helvetica" font-size="9.0" fill="#7F6666" transform="matrix(2.48, 0.00, -0.00, -2.49, 227.1, 165.8)">s</text><text xml:space="preserve" font-family="Helvetica" font-size="10.0" fill="#000000" transform="matrix(2.48, 0.00, -0.00, -2.49, 24.1, 126.5)">g</text><text xml:space="preserve" font-family="Helvetica" font-size="10.0" fill="#000000" transform="matrix(2.48, 0.00, -0.00, -2.49, 39.2, 126.5)">2</text><text xml:space="preserve" font-family="Helvetica" font-size="10.0" fill="#000000" transform="matrix(2.48, 0.00, -0.00, -2.49, 59.8, 126.5)">=</text><text xml:space="preserve" font-family="Helvetica" font-size="10.0" fill="#000000" transform="matrix(2.48, 0.00, -0.00, -2.49, 85.9, 126.5)">S</text><text xml:space="preserve" font-family="Helvetica" font-size="7.0" fill="#000000" transform="matrix(2.48, 0.00, -0.00, -2.49, 102.4, 122.3)">f</text><text xml:space="preserve" font-family="Helvetica" font-size="7.0" fill="#000000" transform="matrix(2.48, 0.00, -0.00, -2.49, 109.6, 122.3)">0</text><text xml:space="preserve" font-family="Helvetica" font-size="10.0" fill="#000000" transform="matrix(2.48, 0.00, -0.00, -2.49, 120.5, 126.5)">/</text><text xml:space="preserve" font-family="Helvetica" font-size="10.0" fill="#000000" transform="matrix(2.48, 0.00, -0.00, -2.49, 139.7, 126.5)">S</text><text xml:space="preserve" font-family="Helvetica" font-size="7.0" fill="#000000" transform="matrix(2.48, 0.00, -0.00, -2.49, 156.2, 122.8)">r</text><text xml:space="preserve" font-family="Helvetica" font-size="7.0" fill="#000000" transform="matrix(2.48, 0.00, -0.00, -2.49, 162.4, 122.8)">m</text><text xml:space="preserve" font-family="Helvetica" font-size="7.0" fill="#000000" transform="matrix(2.48, 0.00, -0.00, -2.49, 176.8, 122.8)">s</text><text xml:space="preserve" font-family="Helvetica" font-size="7.0" fill="#000000" transform="matrix(2.48, 0.00, -0.00, -2.49, 186.0, 122.8)">2</text><text xml:space="preserve" font-family="Helvetica" font-size="10.0" fill="#000000" transform="matrix(2.48, 0.00, -0.00, -2.49, 202.4, 126.5)">+</text><text xml:space="preserve" font-family="Helvetica" font-size="10.0" fill="#000000" transform="matrix(2.48, 0.00, -0.00, -2.49, 227.1, 126.5)">S</text><text xml:space="preserve" font-family="Helvetica" font-size="7.0" fill="#000000" transform="matrix(2.48, 0.00, -0.00, -2.49, 243.6, 122.8)">r</text><text xml:space="preserve" font-family="Helvetica" font-size="7.0" fill="#000000" transform="matrix(2.48, 0.00, -0.00, -2.49, 249.8, 122.8)">m</text><text xml:space="preserve" font-family="Helvetica" font-size="7.0" fill="#000000" transform="matrix(2.48, 0.00, -0.00, -2.49, 264.2, 122.8)">s</text><text xml:space="preserve" font-family="Helvetica" font-size="7.0" fill="#000000" transform="matrix(2.48, 0.00, -0.00, -2.49, 273.4, 122.8)">1</text><text xml:space="preserve" font-family="Helvetica" font-size="10.0" fill="#000000" transform="matrix(2.48, 0.00, -0.00, -2.49, 289.7, 126.5)">+</text><text xml:space="preserve" font-family="Helvetica" font-size="10.0" fill="#000000" transform="matrix(2.48, 0.00, -0.00, -2.49, 314.4, 126.5)">S</text><text xml:space="preserve" font-family="Helvetica" font-size="7.0" fill="#000000" transform="matrix(2.48, 0.00, -0.00, -2.49, 330.9, 122.8)">r</text><text xml:space="preserve" font-family="Helvetica" font-size="7.0" fill="#000000" transform="matrix(2.48, 0.00, -0.00, -2.49, 337.1, 122.8)">m</text><text xml:space="preserve" font-family="Helvetica" font-size="7.0" fill="#000000" transform="matrix(2.48, 0.00, -0.00, -2.49, 351.6, 122.8)">s</text><text xml:space="preserve" font-family="Helvetica" font-size="7.0" fill="#000000" transform="matrix(2.48, 0.00, -0.00, -2.49, 360.7, 122.8)">0</text><text xml:space="preserve" font-family="Helvetica" font-size="10.0" fill="#000000" transform="matrix(2.48, 0.00, -0.00, -2.49, 378.5, 126.5)">/</text><text xml:space="preserve" font-family="Helvetica" font-size="10.0" fill="#000000" transform="matrix(2.48, 0.00, -0.00, -2.49, 397.7, 126.5)">k</text><text xml:space="preserve" font-family="Helvetica" font-size="7.0" fill="#000000" transform="matrix(2.48, 0.00, -0.00, -2.49, 410.1, 122.8)">c</text><text xml:space="preserve" font-family="Helvetica" font-size="10.0" fill="#000000" transform="matrix(2.48, 0.00, -0.00, -2.49, 420.9, 126.5)">2</text><text xml:space="preserve" font-family="Helvetica" font-size="9.0" fill="#7F6666" transform="matrix(2.48, 0.00, -0.00, -2.49, 24.1, 92.7)">S</text><text xml:space="preserve" font-family="Helvetica" font-size="6.0" fill="#7F6666" transform="matrix(2.48, 0.00, -0.00, -2.49, 39.0, 89.9)">r</text><text xml:space="preserve" font-family="Helvetica" font-size="6.0" fill="#7F6666" transform="matrix(2.48, 0.00, -0.00, -2.49, 44.3, 89.9)">m</text><text xml:space="preserve" font-family="Helvetica" font-size="6.0" fill="#7F6666" transform="matrix(2.48, 0.00, -0.00, -2.49, 56.6, 89.9)">s</text><text xml:space="preserve" font-family="Helvetica" font-size="6.0" fill="#7F6666" transform="matrix(2.48, 0.00, -0.00, -2.49, 64.5, 89.9)">2</text><text xml:space="preserve" font-family="Helvetica" font-size="9.0" fill="#7F6666" transform="matrix(2.48, 0.00, -0.00, -2.49, 80.2, 92.7)">:</text><text xml:space="preserve" font-family="Helvetica" font-size="9.0" fill="#7F6666" transform="matrix(2.48, 0.00, -0.00, -2.49, 94.0, 92.7)">f</text><text xml:space="preserve" font-family="Helvetica" font-size="9.0" fill="#7F6666" transform="matrix(2.48, 0.00, -0.00, -2.49, 100.2, 92.7)">2</text><text xml:space="preserve" font-family="Helvetica" font-size="9.0" fill="#7F6666" transform="matrix(2.48, 0.00, -0.00, -2.49, 118.8, 92.7)">R</text><text xml:space="preserve" font-family="Helvetica" font-size="9.0" fill="#7F6666" transform="matrix(2.48, 0.00, -0.00, -2.49, 134.8, 92.7)">M</text><text xml:space="preserve" font-family="Helvetica" font-size="9.0" fill="#7F6666" transform="matrix(2.48, 0.00, -0.00, -2.49, 153.4, 92.7)">S</text><text xml:space="preserve" font-family="Helvetica" font-size="9.0" fill="#7F6666" transform="matrix(2.48, 0.00, -0.00, -2.49, 174.4, 92.7)">v</text><text xml:space="preserve" font-family="Helvetica" font-size="9.0" fill="#7F6666" transform="matrix(2.48, 0.00, -0.00, -2.49, 185.0, 92.7)">a</text><text xml:space="preserve" font-family="Helvetica" font-size="9.0" fill="#7F6666" transform="matrix(2.48, 0.00, -0.00, -2.49, 197.4, 92.7)">l</text><text xml:space="preserve" font-family="Helvetica" font-size="9.0" fill="#7F6666" transform="matrix(2.48, 0.00, -0.00, -2.49, 202.3, 92.7)">u</text><text xml:space="preserve" font-family="Helvetica" font-size="9.0" fill="#7F6666" transform="matrix(2.48, 0.00, -0.00, -2.49, 214.7, 92.7)">e</text><text xml:space="preserve" font-family="Helvetica" font-size="9.0" fill="#7F6666" transform="matrix(2.48, 0.00, -0.00, -2.49, 227.1, 92.7)">s</text><text xml:space="preserve" font-family="Helvetica" font-size="10.9" fill="#000000" transform="matrix(2.48, 0.00, -0.00, -2.49, 24.1, 58.9)">.</text><text xml:space="preserve" font-family="Helvetica" font-size="10.9" fill="#000000" transform="matrix(2.48, 0.00, -0.00, -2.49, 31.6, 58.9)">.</text><text xml:space="preserve" font-family="Helvetica" font-size="10.9" fill="#000000" transform="matrix(2.48, 0.00, -0.00, -2.49, 39.2, 58.9)">.</text><text xml:space="preserve" font-family="Helvetica" font-size="10.9" fill="#000000" transform="matrix(2.48, 0.00, -0.00, -2.49, 24.1, 22.7)">g</text><text xml:space="preserve" font-family="Helvetica" font-size="10.9" fill="#000000" transform="matrix(2.48, 0.00, -0.00, -2.49, 48.2, 22.7)">=</text><text xml:space="preserve" font-family="Helvetica" font-size="10.9" fill="#000000" transform="matrix(2.48, 0.00, -0.00, -2.49, 76.7, 22.7)">g</text><text xml:space="preserve" font-family="Helvetica" font-size="10.9" fill="#000000" transform="matrix(2.48, 0.00, -0.00, -2.49, 93.3, 22.7)">2</text><text xml:space="preserve" font-family="Helvetica" font-size="10.9" fill="#000000" transform="matrix(2.48, 0.00, -0.00, -2.49, 115.8, 22.7)">/</text><text xml:space="preserve" font-family="Helvetica" font-size="10.9" fill="#000000" transform="matrix(2.48, 0.00, -0.00, -2.49, 136.9, 22.7)">g</text><text xml:space="preserve" font-family="Helvetica" font-size="10.9" fill="#000000" transform="matrix(2.48, 0.00, -0.00, -2.49, 153.4, 22.7)">1</text><text xml:space="preserve" font-family="Helvetica" font-size="10.9" fill="#000000" transform="matrix(2.48, 0.00, -0.00, -2.49, 176.0, 22.7)">/</text><text xml:space="preserve" font-family="Helvetica" font-size="10.9" fill="#000000" transform="matrix(2.48, 0.00, -0.00, -2.49, 197.1, 22.7)">g</text><text xml:space="preserve" font-family="Helvetica" font-size="10.9" fill="#000000" transform="matrix(2.48, 0.00, -0.00, -2.49, 213.6, 22.7)">0</text></g></g><g><clipPath id="clip-734"><path d="M 0.0 0.0 L 0.0 0.0 L 0.0 0.0 L 0.0 0.0 Z M 0.0 0.0 "></path></clipPath><g clip-path="url(#clip-734)"><image xlink:href="../../6EA7E438-379A-467B-9F6A-EAFF37FBAC01/assets/4DCDA0C6F1EE599E95D7EDABDAC32378.png" width="1701.00" height="1276.00" transform="matrix(0.58, 0.00, -0.00, -0.58, -191.3, 661.2)"></image></g></g></g></svg>