<?xml version="1.0" encoding="UTF-8" standalone="no"?><svg xmlns="http://www.w3.org/2000/svg" xmlns:xlink="http://www.w3.org/1999/xlink" clip-rule="evenodd" stroke-miterlimit="4.00" viewBox="0 0 342 25"><desc>SVG generated by Keynote</desc><defs></defs><g transform="matrix(1.00, 0.00, -0.00, -1.00, 0.0, 25.0)"><text xml:space="preserve" font-family="Courier" font-size="24.0" fill="#000000" transform="matrix(1.00, 0.00, -0.00, -1.00, -1.0, 6.0)">/</text><text xml:space="preserve" font-family="Courier" font-size="24.0" fill="#000000" transform="matrix(1.00, 0.00, -0.00, -1.00, 13.4, 6.0)">I</text><text xml:space="preserve" font-family="Courier" font-size="24.0" fill="#000000" transform="matrix(1.00, 0.00, -0.00, -1.00, 27.8, 6.0)">T</text><text xml:space="preserve" font-family="Courier" font-size="24.0" fill="#000000" transform="matrix(1.00, 0.00, -0.00, -1.00, 42.2, 6.0)">L</text><text xml:space="preserve" font-family="Courier" font-size="24.0" fill="#000000" transform="matrix(1.00, 0.00, -0.00, -1.00, 56.6, 6.0)">/</text><text xml:space="preserve" font-family="Courier" font-size="24.0" fill="#000000" transform="matrix(1.00, 0.00, -0.00, -1.00, 71.0, 6.0)">s</text><text xml:space="preserve" font-family="Courier" font-size="24.0" fill="#000000" transform="matrix(1.00, 0.00, -0.00, -1.00, 85.4, 6.0)">c</text><text xml:space="preserve" font-family="Courier" font-size="24.0" fill="#000000" transform="matrix(1.00, 0.00, -0.00, -1.00, 99.8, 6.0)">e</text><text xml:space="preserve" font-family="Courier" font-size="24.0" fill="#000000" transform="matrix(1.00, 0.00, -0.00, -1.00, 114.2, 6.0)">n</text><text xml:space="preserve" font-family="Courier" font-size="24.0" fill="#000000" transform="matrix(1.00, 0.00, -0.00, -1.00, 128.6, 6.0)">e</text><text xml:space="preserve" font-family="Courier" font-size="24.0" fill="#000000" transform="matrix(1.00, 0.00, -0.00, -1.00, 143.0, 6.0)">/</text><text xml:space="preserve" font-family="Courier" font-size="24.0" fill="#000000" transform="matrix(1.00, 0.00, -0.00, -1.00, 157.5, 6.0)">t</text><text xml:space="preserve" font-family="Courier" font-size="24.0" fill="#000000" transform="matrix(1.00, 0.00, -0.00, -1.00, 171.9, 6.0)">i</text><text xml:space="preserve" font-family="Courier" font-size="24.0" fill="#000000" transform="matrix(1.00, 0.00, -0.00, -1.00, 186.3, 6.0)">t</text><text xml:space="preserve" font-family="Courier" font-size="24.0" fill="#000000" transform="matrix(1.00, 0.00, -0.00, -1.00, 200.7, 6.0)">l</text><text xml:space="preserve" font-family="Courier" font-size="24.0" fill="#000000" transform="matrix(1.00, 0.00, -0.00, -1.00, 215.1, 6.0)">e</text><text xml:space="preserve" font-family="Courier" font-size="24.0" fill="#000000" transform="matrix(1.00, 0.00, -0.00, -1.00, 229.5, 6.0)"> </text><text xml:space="preserve" font-family="Courier" font-size="24.0" fill="#000000" transform="matrix(1.00, 0.00, -0.00, -1.00, 243.9, 6.0)">y</text><text xml:space="preserve" font-family="Courier" font-size="24.0" fill="#000000" transform="matrix(1.00, 0.00, -0.00, -1.00, 258.3, 6.0)"> </text><text xml:space="preserve" font-family="Courier" font-size="24.0" fill="#000000" transform="matrix(1.00, 0.00, -0.00, -1.00, 272.7, 6.0)">-</text><text xml:space="preserve" font-family="Courier" font-size="24.0" fill="#000000" transform="matrix(1.00, 0.00, -0.00, -1.00, 287.1, 6.0)">0</text><text xml:space="preserve" font-family="Courier" font-size="24.0" fill="#000000" transform="matrix(1.00, 0.00, -0.00, -1.00, 301.5, 6.0)">.</text><text xml:space="preserve" font-family="Courier" font-size="24.0" fill="#000000" transform="matrix(1.00, 0.00, -0.00, -1.00, 315.9, 6.0)">6</text><text xml:space="preserve" font-family="Courier" font-size="24.0" fill="#000000" transform="matrix(1.00, 0.00, -0.00, -1.00, 330.3, 6.0)">;</text></g></svg>