<?xml version="1.0" encoding="UTF-8" standalone="no"?><svg xmlns="http://www.w3.org/2000/svg" xmlns:xlink="http://www.w3.org/1999/xlink" clip-rule="evenodd" stroke-miterlimit="4.00" viewBox="0 0 1024 768"><desc>SVG generated by Keynote</desc><defs></defs><g transform="matrix(1.00, 0.00, -0.00, -1.00, 0.0, 768.0)"><path d="M 0.0 768.0 L 1024.0 768.0 L 1024.0 0.0 L 0.0 0.0 Z M 0.0 768.0 " fill="#000000"></path><text xml:space="preserve" font-family="Avenir-Book" font-size="18.0" fill="#D5D5D5" transform="matrix(1.00, 0.00, -0.00, -1.00, 30.0, 28.0)">8</text><text xml:space="preserve" font-family="Avenir-Book" font-size="18.0" fill="#D5D5D5" transform="matrix(1.00, 0.00, -0.00, -1.00, 40.0, 28.0)">5</text><text xml:space="preserve" font-family="Courier" font-size="29.0" fill="#FFD478" transform="matrix(1.00, 0.00, -0.00, -1.00, 320.0, 276.0)">h</text><text xml:space="preserve" font-family="Courier" font-size="29.0" fill="#FFD478" transform="matrix(1.00, 0.00, -0.00, -1.00, 337.4, 276.0)">t</text><text xml:space="preserve" font-family="Courier" font-size="29.0" fill="#FFD478" transform="matrix(1.00, 0.00, -0.00, -1.00, 354.8, 276.0)">t</text><text xml:space="preserve" font-family="Courier" font-size="29.0" fill="#FFD478" transform="matrix(1.00, 0.00, -0.00, -1.00, 372.2, 276.0)">p</text><text xml:space="preserve" font-family="Courier" font-size="29.0" fill="#FFD478" transform="matrix(1.00, 0.00, -0.00, -1.00, 389.6, 276.0)">:</text><text xml:space="preserve" font-family="Courier" font-size="29.0" fill="#FFD478" transform="matrix(1.00, 0.00, -0.00, -1.00, 407.0, 276.0)">/</text><text xml:space="preserve" font-family="Courier" font-size="29.0" fill="#FFD478" transform="matrix(1.00, 0.00, -0.00, -1.00, 424.4, 276.0)">/</text><text xml:space="preserve" font-family="Courier" font-size="29.0" fill="#FFD478" transform="matrix(1.00, 0.00, -0.00, -1.00, 441.8, 276.0)">i</text><text xml:space="preserve" font-family="Courier" font-size="29.0" fill="#FFD478" transform="matrix(1.00, 0.00, -0.00, -1.00, 459.2, 276.0)">n</text><text xml:space="preserve" font-family="Courier" font-size="29.0" fill="#FFD478" transform="matrix(1.00, 0.00, -0.00, -1.00, 476.7, 276.0)">s</text><text xml:space="preserve" font-family="Courier" font-size="29.0" fill="#FFD478" transform="matrix(1.00, 0.00, -0.00, -1.00, 494.1, 276.0)">c</text><text xml:space="preserve" font-family="Courier" font-size="29.0" fill="#FFD478" transform="matrix(1.00, 0.00, -0.00, -1.00, 511.5, 276.0)">o</text><text xml:space="preserve" font-family="Courier" font-size="29.0" fill="#FFD478" transform="matrix(1.00, 0.00, -0.00, -1.00, 528.9, 276.0)">r</text><text xml:space="preserve" font-family="Courier" font-size="29.0" fill="#FFD478" transform="matrix(1.00, 0.00, -0.00, -1.00, 546.3, 276.0)">e</text><text xml:space="preserve" font-family="Courier" font-size="29.0" fill="#FFD478" transform="matrix(1.00, 0.00, -0.00, -1.00, 563.7, 276.0)">.</text><text xml:space="preserve" font-family="Courier" font-size="29.0" fill="#FFD478" transform="matrix(1.00, 0.00, -0.00, -1.00, 581.1, 276.0)">s</text><text xml:space="preserve" font-family="Courier" font-size="29.0" fill="#FFD478" transform="matrix(1.00, 0.00, -0.00, -1.00, 598.5, 276.0)">f</text><text xml:space="preserve" font-family="Courier" font-size="29.0" fill="#FFD478" transform="matrix(1.00, 0.00, -0.00, -1.00, 615.9, 276.0)">.</text><text xml:space="preserve" font-family="Courier" font-size="29.0" fill="#FFD478" transform="matrix(1.00, 0.00, -0.00, -1.00, 633.3, 276.0)">n</text><text xml:space="preserve" font-family="Courier" font-size="29.0" fill="#FFD478" transform="matrix(1.00, 0.00, -0.00, -1.00, 650.7, 276.0)">e</text><text xml:space="preserve" font-family="Courier" font-size="29.0" fill="#FFD478" transform="matrix(1.00, 0.00, -0.00, -1.00, 668.1, 276.0)">t</text><text xml:space="preserve" font-family="Courier" font-size="29.0" fill="#FFD478" transform="matrix(1.00, 0.00, -0.00, -1.00, 685.5, 276.0)">/</text><g><clipPath id="clip-992"><path d="M 319.1 269.1 L 702.9 269.1 L 702.9 272.8 L 319.1 272.8 Z M 319.1 269.1 "></path></clipPath><g clip-path="url(#clip-992)"><path d="M 4.0 37.0 L 386.9 37.0 " fill="none" stroke="#FFD478" stroke-width="1.67" stroke-miterlimit="0.00" transform="matrix(1.00, 0.00, 0.00, -1.00, 316.1, 308.0)"></path></g></g><g><clipPath id="clip-993"><path d="M 444.0 70.0 L 580.0 70.0 L 580.0 206.0 L 444.0 206.0 Z M 444.0 70.0 "></path></clipPath><g clip-path="url(#clip-993)"><image xlink:href="../../B04F1C97-ECAB-4D96-BED1-068678BAA01E/assets/148BD9EAF26B2158AAD53290A6DD2526.png" width="134.00" height="134.00" transform="matrix(1.00, 0.00, -0.00, -1.00, 445.0, 205.0)" opacity="0.50"></image><path d="M 557.3 185.3 C 582.2 160.3 582.2 119.7 557.3 94.8 C 532.3 69.8 491.7 69.8 466.7 94.8 C 441.8 119.7 441.8 160.3 466.7 185.3 C 491.7 210.3 532.3 210.3 557.3 185.3 Z M 557.3 185.3 " fill="#FEFFFE"></path></g></g><g><clipPath id="clip-994"><path d="M 438.9 213.7 L 589.1 213.7 L 589.1 67.9 L 438.9 67.9 Z M 438.9 213.7 "></path></clipPath><g clip-path="url(#clip-994)"><g><clipPath id="clip-995"><path d="M 450.0 78.0 L 574.0 78.0 L 574.0 202.0 L 450.0 202.0 Z M 450.0 78.0 "></path></clipPath><g clip-path="url(#clip-995)"><path d="M 518.5 128.9 C 518.4 128.9 518.3 128.9 518.3 128.8 C 517.8 128.7 517.5 128.2 517.5 127.8 L 517.5 122.4 C 517.5 122.0 517.8 121.9 518.1 122.0 C 518.6 122.1 518.9 122.6 518.9 123.0 L 518.9 128.4 C 518.9 128.7 518.7 128.9 518.5 128.9 " fill="#1A1918"></path><path d="M 508.8 120.1 L 509.9 120.5 L 509.3 124.3 Z M 508.8 120.1 " fill="#1A1918"></path><path d="M 552.4 135.9 L 553.5 136.3 L 552.9 140.1 Z M 552.4 135.9 " fill="#1A1918"></path><path d="M 546.6 139.0 C 546.5 139.0 546.5 139.0 546.4 138.9 L 545.6 138.6 L 545.6 135.5 L 546.1 135.6 C 546.6 135.8 546.8 136.1 546.8 136.6 L 546.8 138.5 C 546.8 138.7 546.8 139.0 546.6 139.0 " fill="#1A1918"></path><path d="M 497.5 118.7 L 497.5 120.6 C 497.5 120.9 497.5 121.1 497.3 121.1 C 497.2 121.1 497.2 121.1 497.1 121.1 L 496.3 120.8 L 496.3 117.6 L 496.8 117.8 C 497.3 118.0 497.5 118.3 497.5 118.7 " fill="#1A1918"></path><path d="M 500.2 105.6 L 501.3 106.0 L 500.8 109.8 Z M 500.2 105.6 " fill="#1A1918"></path><path d="M 489.5 145.0 L 489.5 152.6 C 489.5 153.6 489.2 153.9 488.5 153.7 L 487.3 153.2 L 487.3 142.7 L 488.6 143.2 C 489.3 143.4 489.5 143.9 489.5 145.0 " fill="#1A1918"></path><path d="M 473.2 151.2 C 470.6 150.3 468.8 147.7 468.8 145.0 L 468.8 123.6 C 468.8 120.9 470.7 119.7 473.2 120.6 C 475.8 121.5 477.6 124.0 477.6 126.7 L 477.6 136.9 L 474.7 135.8 L 474.7 135.1 L 476.8 135.8 L 476.8 126.5 C 476.8 124.1 475.4 122.2 473.2 121.4 C 471.0 120.6 469.6 121.7 469.6 123.9 L 469.6 145.3 C 469.6 147.4 471.0 149.6 473.2 150.5 C 475.4 151.3 476.8 150.3 476.8 147.9 L 476.8 144.8 L 477.6 145.1 L 477.6 148.2 C 477.6 151.0 475.8 152.2 473.2 151.2 " fill="#1A1918"></path><path d="M 566.6 139.0 L 565.0 144.6 L 565.0 138.5 L 564.4 138.3 L 564.4 146.1 L 565.0 146.3 L 566.7 140.7 L 566.7 146.9 L 567.3 147.1 L 567.3 139.3 Z M 563.1 138.9 C 563.1 138.2 562.5 137.5 561.9 137.2 C 561.7 137.2 561.6 137.2 561.5 137.2 L 561.5 137.2 C 560.9 137.2 560.6 137.6 560.6 138.1 L 560.6 143.5 C 560.6 144.2 561.1 144.9 561.8 145.2 C 561.9 145.2 562.0 145.2 562.2 145.2 C 562.7 145.2 563.1 144.8 563.1 144.3 Z M 559.2 136.4 L 558.6 136.2 L 558.6 143.9 L 559.2 144.1 Z M 557.6 143.0 L 556.6 142.6 L 556.6 135.4 L 556.0 135.2 L 556.0 142.4 L 555.1 142.0 L 555.1 142.6 L 557.6 143.5 Z M 553.7 134.4 L 553.5 135.8 L 552.3 135.3 L 552.1 133.8 L 551.6 133.6 L 552.6 141.7 L 553.3 142.0 L 554.3 134.6 Z M 550.8 140.5 L 549.3 140.0 L 549.3 137.1 L 550.4 137.5 L 550.4 136.9 L 549.3 136.5 L 549.3 133.4 L 550.8 133.9 L 550.8 133.3 L 548.7 132.6 L 548.7 140.3 L 550.8 141.1 Z M 547.0 131.9 L 546.9 132.1 C 546.9 132.4 546.9 132.7 546.9 133.0 L 546.9 134.8 C 546.9 135.1 546.7 135.2 546.5 135.2 C 546.4 135.2 546.3 135.2 546.2 135.1 L 545.6 134.9 L 545.6 131.4 L 545.0 131.2 L 545.0 139.0 L 546.3 139.5 C 546.9 139.7 547.4 139.3 547.4 138.6 L 547.4 136.7 C 547.4 136.3 547.3 135.9 547.0 135.7 C 547.3 135.5 547.4 135.3 547.4 134.8 L 547.4 133.1 C 547.4 132.8 547.5 132.5 547.5 132.3 L 547.5 132.1 Z M 543.8 136.2 L 543.2 136.0 L 543.2 137.2 C 543.2 137.7 543.0 137.7 542.9 137.7 C 542.8 137.7 542.7 137.7 542.6 137.6 C 542.2 137.5 541.9 137.0 541.9 136.6 L 541.9 131.3 C 541.9 131.1 541.9 131.0 542.0 130.9 C 542.1 130.7 542.3 130.7 542.5 130.8 C 543.0 131.0 543.2 131.4 543.2 131.9 L 543.2 132.9 L 543.8 133.1 L 543.8 131.9 C 543.8 131.2 543.3 130.5 542.6 130.3 C 542.5 130.2 542.4 130.2 542.2 130.2 C 541.7 130.2 541.3 130.6 541.3 131.2 L 541.3 136.5 C 541.3 137.3 541.8 137.9 542.5 138.2 C 543.3 138.5 543.8 138.1 543.8 137.3 Z M 537.1 144.3 C 536.3 145.3 535.9 146.6 535.9 148.2 L 535.9 169.3 C 535.9 173.4 538.7 177.5 542.6 178.9 C 543.5 179.2 544.3 179.3 545.0 179.3 C 547.7 179.3 549.3 177.4 549.3 174.1 L 549.3 161.8 L 541.7 159.1 L 541.7 150.0 C 541.7 149.0 541.9 148.9 542.2 148.9 C 542.3 148.9 542.5 148.9 542.7 149.0 C 543.5 149.3 543.8 149.8 543.8 150.9 L 543.8 157.3 L 549.3 159.2 L 549.3 152.8 C 549.3 148.5 546.7 144.9 542.8 143.4 C 541.9 143.1 541.1 143.0 540.3 143.0 C 539.0 143.0 537.9 143.4 537.1 144.3 M 538.8 136.1 L 537.3 135.6 L 537.3 132.7 L 538.4 133.1 L 538.4 132.5 L 537.3 132.1 L 537.3 129.0 L 538.8 129.5 L 538.8 128.9 L 536.7 128.2 L 536.7 136.0 L 538.8 136.7 Z M 535.4 129.0 C 535.4 128.2 534.9 127.6 534.2 127.3 L 532.9 126.8 L 532.9 134.6 L 534.1 135.0 C 534.8 135.3 535.4 134.9 535.4 134.1 Z M 530.4 126.0 L 528.5 125.2 L 528.5 133.0 L 529.1 133.2 L 529.1 126.0 L 530.4 126.6 Z M 528.0 167.7 C 527.9 167.7 527.8 167.7 527.7 167.6 C 527.1 167.4 526.5 166.8 526.0 165.8 L 526.0 137.8 L 520.3 135.8 L 520.3 164.2 C 520.3 164.8 520.0 164.8 519.9 164.8 C 519.8 164.8 519.7 164.8 519.6 164.7 C 519.1 164.5 518.5 163.9 518.0 162.8 L 518.0 134.9 L 512.2 132.8 L 512.2 167.3 L 517.7 169.3 L 517.7 168.3 C 518.7 169.6 520.0 170.7 521.2 171.1 C 522.9 171.7 524.3 171.4 525.1 170.3 C 526.2 172.1 527.7 173.5 529.2 174.0 C 529.8 174.2 530.4 174.3 530.9 174.3 C 532.9 174.3 534.0 172.7 534.0 170.0 L 534.0 140.8 L 528.3 138.7 L 528.3 167.1 C 528.3 167.7 528.1 167.7 528.0 167.7 M 526.8 124.6 L 526.7 126.0 L 525.4 125.6 L 525.3 124.1 L 524.7 123.9 L 525.7 132.0 L 526.4 132.2 L 527.4 124.8 Z M 523.6 123.5 L 523.0 123.2 L 521.4 128.8 L 521.4 122.7 L 520.8 122.5 L 520.8 130.3 L 521.4 130.5 L 523.1 124.9 L 523.1 131.1 L 523.6 131.3 Z M 519.5 123.1 C 519.5 122.4 518.9 121.7 518.3 121.4 C 518.1 121.4 518.0 121.4 517.8 121.4 C 517.3 121.4 517.0 121.8 517.0 122.3 L 517.0 127.7 C 517.0 128.4 517.5 129.1 518.1 129.4 C 518.3 129.4 518.4 129.4 518.6 129.4 C 519.1 129.4 519.5 129.0 519.5 128.5 Z M 515.6 120.6 L 515.0 120.4 L 515.0 128.1 L 515.6 128.3 Z M 514.0 127.2 L 513.0 126.8 L 513.0 119.6 L 512.4 119.4 L 512.4 126.6 L 511.4 126.2 L 511.4 126.8 L 514.0 127.7 Z M 506.0 130.6 L 505.9 130.8 C 505.8 130.9 505.7 131.2 505.6 131.4 C 504.9 130.2 503.7 129.2 502.4 128.8 C 501.6 128.5 500.9 128.3 500.2 128.3 C 498.8 128.3 496.4 129.1 496.4 134.0 L 496.4 137.4 C 496.4 142.5 498.7 146.8 504.3 152.1 L 504.3 158.1 C 504.3 159.0 504.1 159.1 503.9 159.1 C 503.7 159.1 503.6 159.1 503.4 159.0 C 502.6 158.7 502.3 158.2 502.3 157.2 L 502.3 152.1 L 496.8 150.1 L 496.8 155.2 C 496.8 159.4 499.4 163.2 503.3 164.6 C 504.1 164.9 504.9 165.0 505.7 165.0 C 508.4 165.0 510.1 163.0 510.1 159.7 L 510.1 136.9 C 510.1 134.9 510.3 133.8 510.8 132.6 L 510.8 132.3 Z M 510.1 118.6 L 509.9 119.9 L 508.7 119.5 L 508.5 118.0 L 508.0 117.8 L 509.0 125.9 L 509.6 126.2 L 510.6 118.8 Z M 508.3 113.7 L 506.9 113.2 L 506.9 110.3 L 507.9 110.7 L 507.9 110.1 L 506.9 109.7 L 506.9 106.6 L 508.3 107.1 L 508.3 106.5 L 506.3 105.8 L 506.3 113.5 L 508.3 114.3 Z M 504.6 122.7 L 504.6 116.6 L 504.1 116.4 L 504.1 124.2 L 504.7 124.4 L 506.4 118.8 L 506.4 125.0 L 506.9 125.2 L 506.9 117.4 L 506.3 117.1 Z M 505.2 105.4 L 503.2 104.7 L 503.2 112.4 L 503.8 112.6 L 503.8 105.4 L 505.2 106.0 Z M 501.1 119.6 L 501.1 119.0 L 500.0 118.6 L 500.0 115.5 L 501.5 116.0 L 501.5 115.4 L 499.4 114.7 L 499.4 122.5 L 501.5 123.2 L 501.5 122.6 L 500.0 122.1 L 500.0 119.2 Z M 501.5 104.0 L 501.4 105.4 L 500.2 105.0 L 500.0 103.5 L 499.4 103.3 L 500.4 111.4 L 501.1 111.6 L 502.1 104.2 Z M 498.5 108.3 L 498.0 108.1 L 498.0 109.3 C 498.0 109.9 497.7 109.9 497.6 109.9 C 497.6 109.9 497.5 109.9 497.4 109.8 C 496.9 109.7 496.6 109.2 496.6 108.7 L 496.6 103.4 C 496.6 103.3 496.7 103.1 496.7 103.0 C 496.8 102.9 497.0 102.9 497.2 103.0 C 497.7 103.1 498.0 103.5 498.0 104.0 L 498.0 105.1 L 498.5 105.3 L 498.5 104.1 C 498.5 103.3 498.1 102.7 497.4 102.4 C 497.2 102.4 497.1 102.3 496.9 102.3 C 496.4 102.3 496.1 102.7 496.1 103.4 L 496.1 108.6 C 496.1 109.4 496.5 110.1 497.2 110.3 C 498.0 110.6 498.5 110.2 498.5 109.4 Z M 495.7 121.1 L 497.0 121.6 C 497.6 121.8 498.1 121.4 498.1 120.7 L 498.1 118.8 C 498.1 118.4 498.0 118.1 497.7 117.8 C 498.0 117.7 498.1 117.4 498.1 117.0 L 498.1 115.2 C 498.1 114.9 498.2 114.6 498.2 114.4 L 498.2 114.3 L 497.7 114.1 L 497.6 114.3 C 497.6 114.5 497.6 114.8 497.6 115.1 L 497.6 116.9 C 497.6 117.3 497.4 117.3 497.2 117.3 C 497.1 117.3 497.0 117.3 496.9 117.2 L 496.3 117.0 L 496.3 113.5 L 495.7 113.3 Z M 494.7 101.6 L 494.2 101.4 L 494.2 109.1 L 494.7 109.3 Z M 493.7 112.6 L 493.1 112.4 L 493.1 119.6 L 492.1 119.2 L 492.1 119.8 L 494.6 120.7 L 494.6 120.1 L 493.7 119.8 Z M 493.0 106.8 L 492.4 106.6 L 492.4 107.3 C 492.4 107.5 492.4 107.9 492.1 107.9 C 492.0 107.9 491.9 107.9 491.9 107.9 C 491.3 107.7 491.0 107.2 491.0 106.6 C 491.0 105.8 491.4 105.3 491.9 104.7 L 492.0 104.6 C 492.5 103.9 493.0 103.2 493.0 102.2 C 493.0 101.3 492.5 100.6 491.7 100.3 C 491.6 100.3 491.4 100.2 491.3 100.2 C 490.7 100.2 490.4 100.7 490.4 101.3 L 490.4 101.9 L 490.9 102.1 L 490.9 101.4 C 490.9 101.2 491.0 101.0 491.0 100.9 C 491.2 100.8 491.3 100.8 491.6 100.9 C 492.1 101.1 492.4 101.5 492.4 102.1 C 492.4 102.9 492.0 103.5 491.5 104.2 L 491.4 104.3 C 491.0 104.9 490.5 105.5 490.5 106.5 C 490.5 107.4 491.0 108.1 491.7 108.4 C 491.9 108.4 492.0 108.5 492.1 108.5 C 492.5 108.5 493.0 108.2 493.0 107.4 Z M 489.3 100.7 C 489.3 100.1 488.8 99.3 488.1 99.1 C 488.0 99.0 487.8 99.0 487.7 99.0 C 487.2 99.0 486.8 99.4 486.8 100.0 L 486.8 106.5 L 487.4 106.7 L 487.4 100.0 C 487.4 99.8 487.5 99.6 487.8 99.6 C 487.8 99.6 487.9 99.6 488.0 99.6 C 488.4 99.8 488.7 100.2 488.7 100.7 L 488.7 107.2 L 489.3 107.4 Z M 485.5 98.2 L 484.9 98.0 L 484.9 104.0 L 483.8 97.6 L 483.2 97.4 L 482.1 103.1 L 482.1 97.0 L 481.5 96.8 L 481.5 104.6 L 482.3 104.9 L 483.5 98.9 L 484.7 105.7 L 485.5 106.0 Z M 481.4 114.7 C 481.4 115.5 481.9 116.2 482.6 116.5 C 483.3 116.7 483.9 116.3 483.9 115.5 L 483.9 114.4 L 483.3 114.2 L 483.3 115.4 C 483.3 116.0 483.1 116.0 483.0 116.0 C 482.9 116.0 482.8 116.0 482.7 115.9 C 482.3 115.8 482.0 115.3 482.0 114.8 L 482.0 109.5 C 482.0 109.4 482.0 109.2 482.1 109.1 C 482.2 109.0 482.4 109.0 482.6 109.1 C 483.1 109.2 483.3 109.6 483.3 110.1 L 483.3 111.2 L 483.9 111.4 L 483.9 110.2 C 483.9 109.4 483.4 108.8 482.7 108.5 C 482.6 108.5 482.4 108.4 482.3 108.4 C 481.8 108.4 481.4 108.9 481.4 109.5 Z M 479.9 143.6 L 474.6 141.7 L 474.6 147.3 C 474.6 148.2 474.1 148.2 473.9 148.2 C 473.8 148.2 473.6 148.2 473.4 148.1 C 472.5 147.8 472.1 147.2 472.1 146.2 L 472.1 124.6 C 472.1 123.6 472.5 123.6 472.7 123.6 C 472.8 123.6 473.0 123.7 473.2 123.8 C 474.1 124.1 474.6 124.8 474.6 125.7 L 474.6 132.7 L 473.1 132.2 L 473.1 137.6 L 479.9 140.1 L 479.9 127.6 C 479.9 123.4 477.2 119.6 473.3 118.2 C 472.5 117.9 471.6 117.7 470.8 117.7 L 470.8 117.7 C 469.5 117.7 468.3 118.2 467.5 119.1 C 466.7 120.0 466.2 121.3 466.2 122.9 L 466.2 144.0 C 466.2 148.0 469.2 152.2 473.2 153.6 C 474.0 154.0 474.9 154.1 475.6 154.1 C 478.3 154.1 479.9 152.2 479.9 148.9 Z M 486.7 114.4 L 486.7 113.8 L 485.6 113.4 L 485.6 110.3 L 487.1 110.8 L 487.1 110.2 L 485.1 109.5 L 485.1 117.3 L 487.1 118.0 L 487.1 117.4 L 485.6 116.9 L 485.6 114.0 Z M 491.1 119.4 L 491.1 111.6 L 490.4 111.4 L 488.8 116.9 L 488.8 110.8 L 488.2 110.6 L 488.2 118.4 L 488.8 118.7 L 490.5 113.1 L 490.5 119.2 Z M 481.7 156.2 L 489.0 158.9 C 489.8 159.2 490.5 159.3 491.2 159.3 C 492.6 159.3 494.9 158.7 494.9 154.7 L 494.9 147.0 C 494.9 145.2 494.3 143.8 493.3 142.6 C 494.4 142.1 495.0 141.0 495.0 139.3 L 495.0 132.4 C 495.0 130.1 495.4 128.2 495.7 127.0 L 495.7 126.8 L 490.3 124.9 L 490.2 125.1 C 489.7 126.2 489.4 127.5 489.4 130.2 L 489.4 137.6 C 489.4 138.5 489.2 138.5 489.0 138.5 C 488.9 138.5 488.8 138.5 488.6 138.4 L 487.5 138.0 L 487.5 123.9 L 481.7 121.8 Z M 550.0 143.2 L 550.7 143.5 L 550.1 141.7 L 549.5 141.5 Z M 512.0 202.0 C 477.8 202.0 450.0 174.2 450.0 140.0 C 450.0 105.8 477.8 78.0 512.0 78.0 C 546.2 78.0 574.0 105.8 574.0 140.0 C 574.0 174.2 546.2 202.0 512.0 202.0 " fill="#1A1918"></path><path d="M 485.0 154.4 L 488.9 155.8 C 490.8 156.5 491.7 155.4 491.7 153.5 L 491.7 145.8 C 491.7 143.5 490.5 142.0 488.1 141.1 L 485.0 140.0 Z M 491.8 138.3 L 491.8 131.1 C 491.8 130.0 491.9 128.8 492.1 127.8 L 492.9 128.1 C 492.7 129.1 492.6 130.3 492.6 131.4 L 492.6 138.6 C 492.6 140.0 492.1 141.6 489.9 141.4 C 491.8 142.7 492.4 144.1 492.4 146.1 L 492.4 153.8 C 492.4 156.0 491.4 157.5 488.9 156.5 L 484.2 154.9 L 484.2 125.0 L 485.0 125.3 L 485.0 139.3 L 488.1 140.4 C 490.3 141.2 491.8 140.5 491.8 138.3 " fill="#1A1918"></path><path d="M 506.8 137.0 C 506.4 135.6 504.6 132.7 502.7 132.0 C 500.5 131.2 499.8 132.7 499.8 135.0 L 499.8 139.1 C 499.8 142.3 500.6 145.3 506.8 151.0 Z M 507.6 159.1 C 507.6 161.8 506.0 163.1 503.4 162.2 C 500.7 161.2 499.2 158.8 499.2 156.1 L 499.2 153.2 L 500.0 153.5 L 500.0 156.4 C 500.0 158.7 501.1 160.6 503.4 161.4 C 505.4 162.1 506.8 161.0 506.8 158.8 L 506.8 151.9 C 500.8 146.4 499.0 143.0 499.0 138.8 L 499.0 134.8 C 499.0 131.7 500.2 130.4 502.7 131.3 C 504.5 131.9 506.0 133.7 506.9 135.7 C 506.9 134.9 507.0 134.1 507.2 133.3 L 507.9 133.6 C 507.7 134.7 507.6 135.9 507.6 137.1 Z M 507.6 159.1 " fill="#1A1918"></path><path d="M 539.2 170.6 C 539.2 172.8 540.7 174.9 542.7 175.7 C 544.9 176.5 546.1 175.4 546.1 173.1 L 546.1 163.5 L 539.2 161.0 Z M 546.9 151.9 L 546.9 156.0 L 546.1 155.7 L 546.1 151.6 C 546.1 149.3 544.8 147.4 542.7 146.6 C 540.4 145.8 539.2 147.0 539.2 149.2 L 539.2 160.2 L 546.9 163.0 L 546.9 173.4 C 546.9 176.1 545.3 177.4 542.7 176.5 C 540.0 175.5 538.4 173.0 538.4 170.3 L 538.4 148.9 C 538.4 146.2 540.2 144.9 542.7 145.8 C 545.3 146.7 546.9 149.2 546.9 151.9 " fill="#1A1918"></path><path d="M 542.7 173.6 C 541.7 173.2 541.5 172.3 541.5 171.4 L 541.5 163.8 L 544.0 164.7 L 544.0 172.3 C 544.0 173.3 543.8 173.9 542.7 173.6 " fill="#1A1918"></path><path d="M 502.0 135.8 C 502.0 134.6 502.3 134.2 503.2 134.5 C 504.1 134.8 504.5 136.3 504.6 138.1 L 504.6 146.4 C 502.8 144.5 502.0 142.5 502.0 140.4 Z M 502.0 135.8 " fill="#1A1918"></path><path d="M 530.8 168.3 L 530.8 141.9 L 531.6 142.2 L 531.6 168.6 C 531.6 171.0 530.5 172.0 528.6 171.3 C 526.7 170.7 525.0 168.8 523.6 166.0 C 523.5 167.9 522.5 169.1 520.5 168.4 C 518.7 167.7 517.0 165.9 515.5 163.1 L 515.5 166.2 L 514.7 165.9 L 514.7 136.0 L 515.5 136.3 L 515.5 161.9 C 517.0 164.9 518.7 167.0 520.4 167.6 C 521.9 168.1 522.7 167.2 522.7 165.3 L 522.7 139.0 L 523.6 139.2 L 523.6 164.8 C 525.1 167.8 526.8 169.9 528.5 170.5 C 530.0 171.1 530.8 170.1 530.8 168.3 " fill="#1A1918"></path><path d="M 534.5 134.5 C 534.4 134.5 534.3 134.5 534.2 134.5 L 533.4 134.2 L 533.4 127.6 L 534.1 127.8 C 534.6 128.0 534.8 128.4 534.8 128.9 L 534.8 134.0 C 534.8 134.5 534.6 134.5 534.5 134.5 " fill="#1A1918"></path><path d="M 525.5 126.2 L 526.6 126.6 L 526.1 130.4 Z M 525.5 126.2 " fill="#1A1918"></path><path d="M 562.1 144.7 C 562.0 144.7 562.0 144.7 561.9 144.6 C 561.5 144.5 561.1 144.0 561.1 143.6 L 561.1 138.2 C 561.1 137.8 561.4 137.7 561.8 137.8 C 562.2 137.9 562.5 138.4 562.5 138.8 L 562.5 144.2 C 562.5 144.5 562.4 144.7 562.1 144.7 " fill="#1A1918"></path></g></g></g></g><image xlink:href="5EB63E9AADDF5D9BF958384F6E972186.png" width="148.00" height="137.00" transform="matrix(1.00, 0.00, -0.00, -0.99, 438.0, 452.0)"></image><text xml:space="preserve" font-family="Avenir-Black" font-weight="bold" font-size="44.0" fill="#FEFFFF" transform="matrix(1.00, 0.00, -0.00, -1.00, 443.0, 584.0)">I</text><text xml:space="preserve" font-family="Avenir-Black" font-weight="bold" font-size="44.0" fill="#FEFFFF" transform="matrix(1.00, 0.00, -0.00, -1.00, 456.0, 584.0)">N</text><text xml:space="preserve" font-family="Avenir-Black" font-weight="bold" font-size="44.0" fill="#FEFFFF" transform="matrix(1.00, 0.00, -0.00, -1.00, 491.9, 584.0)">S</text><text xml:space="preserve" font-family="Avenir-Black" font-weight="bold" font-size="44.0" fill="#FEFFFF" transform="matrix(1.00, 0.00, -0.00, -1.00, 517.1, 584.0)">c</text><text xml:space="preserve" font-family="Avenir-Black" font-weight="bold" font-size="44.0" fill="#FEFFFF" transform="matrix(1.00, 0.00, -0.00, -1.00, 538.3, 584.0)">o</text><text xml:space="preserve" font-family="Avenir-Black" font-weight="bold" font-size="44.0" fill="#FEFFFF" transform="matrix(1.00, 0.00, -0.00, -1.00, 565.2, 584.0)">r</text><text xml:space="preserve" font-family="Avenir-Black" font-weight="bold" font-size="44.0" fill="#FEFFFF" transform="matrix(1.00, 0.00, -0.00, -1.00, 582.3, 584.0)">e</text><text xml:space="preserve" font-family="Avenir-Black" font-weight="bold" font-size="44.0" fill="#FEFFFF" transform="matrix(1.00, 0.00, -0.00, -1.00, 607.6, 584.0)"> </text><text xml:space="preserve" font-family="Avenir-Medium" font-size="38.0" fill="#EAEAEA" transform="matrix(1.00, 0.00, -0.00, -1.00, 143.0, 530.0)">A</text><text xml:space="preserve" font-family="Avenir-Medium" font-size="38.0" fill="#EAEAEA" transform="matrix(1.00, 0.00, -0.00, -1.00, 169.8, 530.0)">n</text><text xml:space="preserve" font-family="Avenir-Medium" font-size="38.0" fill="#EAEAEA" transform="matrix(1.00, 0.00, -0.00, -1.00, 190.9, 530.0)"> </text><text xml:space="preserve" font-family="Avenir-Medium" font-size="38.0" fill="#EAEAEA" transform="matrix(1.00, 0.00, -0.00, -1.00, 201.4, 530.0)">e</text><text xml:space="preserve" font-family="Avenir-Medium" font-size="38.0" fill="#EAEAEA" transform="matrix(1.00, 0.00, -0.00, -1.00, 222.6, 530.0)">n</text><text xml:space="preserve" font-family="Avenir-Medium" font-size="38.0" fill="#EAEAEA" transform="matrix(1.00, 0.00, -0.00, -1.00, 243.7, 530.0)">v</text><text xml:space="preserve" font-family="Avenir-Medium" font-size="38.0" fill="#EAEAEA" transform="matrix(1.00, 0.00, -0.00, -1.00, 262.7, 530.0)">i</text><text xml:space="preserve" font-family="Avenir-Medium" font-size="38.0" fill="#EAEAEA" transform="matrix(1.00, 0.00, -0.00, -1.00, 271.8, 530.0)">r</text><text xml:space="preserve" font-family="Avenir-Medium" font-size="38.0" fill="#EAEAEA" transform="matrix(1.00, 0.00, -0.00, -1.00, 285.2, 530.0)">o</text><text xml:space="preserve" font-family="Avenir-Medium" font-size="38.0" fill="#EAEAEA" transform="matrix(1.00, 0.00, -0.00, -1.00, 307.8, 530.0)">n</text><text xml:space="preserve" font-family="Avenir-Medium" font-size="38.0" fill="#EAEAEA" transform="matrix(1.00, 0.00, -0.00, -1.00, 328.9, 530.0)">m</text><text xml:space="preserve" font-family="Avenir-Medium" font-size="38.0" fill="#EAEAEA" transform="matrix(1.00, 0.00, -0.00, -1.00, 361.3, 530.0)">e</text><text xml:space="preserve" font-family="Avenir-Medium" font-size="38.0" fill="#EAEAEA" transform="matrix(1.00, 0.00, -0.00, -1.00, 382.4, 530.0)">n</text><text xml:space="preserve" font-family="Avenir-Medium" font-size="38.0" fill="#EAEAEA" transform="matrix(1.00, 0.00, -0.00, -1.00, 403.5, 530.0)">t</text><text xml:space="preserve" font-family="Avenir-Medium" font-size="38.0" fill="#EAEAEA" transform="matrix(1.00, 0.00, -0.00, -1.00, 417.6, 530.0)"> </text><text xml:space="preserve" font-family="Avenir-Medium" font-size="38.0" fill="#EAEAEA" transform="matrix(1.00, 0.00, -0.00, -1.00, 428.2, 530.0)">f</text><text xml:space="preserve" font-family="Avenir-Medium" font-size="38.0" fill="#EAEAEA" transform="matrix(1.00, 0.00, -0.00, -1.00, 440.8, 530.0)">o</text><text xml:space="preserve" font-family="Avenir-Medium" font-size="38.0" fill="#EAEAEA" transform="matrix(1.00, 0.00, -0.00, -1.00, 463.4, 530.0)">r</text><text xml:space="preserve" font-family="Avenir-Medium" font-size="38.0" fill="#EAEAEA" transform="matrix(1.00, 0.00, -0.00, -1.00, 477.4, 530.0)"> </text><text xml:space="preserve" font-family="Avenir-Medium" font-size="38.0" fill="#EAEAEA" transform="matrix(1.00, 0.00, -0.00, -1.00, 488.0, 530.0)">t</text><text xml:space="preserve" font-family="Avenir-Medium" font-size="38.0" fill="#EAEAEA" transform="matrix(1.00, 0.00, -0.00, -1.00, 502.1, 530.0)">h</text><text xml:space="preserve" font-family="Avenir-Medium" font-size="38.0" fill="#EAEAEA" transform="matrix(1.00, 0.00, -0.00, -1.00, 523.2, 530.0)">e</text><text xml:space="preserve" font-family="Avenir-Medium" font-size="38.0" fill="#EAEAEA" transform="matrix(1.00, 0.00, -0.00, -1.00, 544.3, 530.0)"> </text><text xml:space="preserve" font-family="Avenir-Medium" font-size="38.0" fill="#EAEAEA" transform="matrix(1.00, 0.00, -0.00, -1.00, 554.9, 530.0)">d</text><text xml:space="preserve" font-family="Avenir-Medium" font-size="38.0" fill="#EAEAEA" transform="matrix(1.00, 0.00, -0.00, -1.00, 578.1, 530.0)">e</text><text xml:space="preserve" font-family="Avenir-Medium" font-size="38.0" fill="#EAEAEA" transform="matrix(1.00, 0.00, -0.00, -1.00, 599.2, 530.0)">s</text><text xml:space="preserve" font-family="Avenir-Medium" font-size="38.0" fill="#EAEAEA" transform="matrix(1.00, 0.00, -0.00, -1.00, 616.1, 530.0)">i</text><text xml:space="preserve" font-family="Avenir-Medium" font-size="38.0" fill="#EAEAEA" transform="matrix(1.00, 0.00, -0.00, -1.00, 625.2, 530.0)">g</text><text xml:space="preserve" font-family="Avenir-Medium" font-size="38.0" fill="#EAEAEA" transform="matrix(1.00, 0.00, -0.00, -1.00, 648.4, 530.0)">n</text><text xml:space="preserve" font-family="Avenir-Medium" font-size="38.0" fill="#EAEAEA" transform="matrix(1.00, 0.00, -0.00, -1.00, 669.6, 530.0)"> </text><text xml:space="preserve" font-family="Avenir-Medium" font-size="38.0" fill="#EAEAEA" transform="matrix(1.00, 0.00, -0.00, -1.00, 680.1, 530.0)">o</text><text xml:space="preserve" font-family="Avenir-Medium" font-size="38.0" fill="#EAEAEA" transform="matrix(1.00, 0.00, -0.00, -1.00, 702.7, 530.0)">f</text><text xml:space="preserve" font-family="Avenir-Medium" font-size="38.0" fill="#EAEAEA" transform="matrix(1.00, 0.00, -0.00, -1.00, 715.4, 530.0)"> </text><text xml:space="preserve" font-family="Avenir-Medium" font-size="38.0" fill="#EAEAEA" transform="matrix(1.00, 0.00, -0.00, -1.00, 725.9, 530.0)">i</text><text xml:space="preserve" font-family="Avenir-Medium" font-size="38.0" fill="#EAEAEA" transform="matrix(1.00, 0.00, -0.00, -1.00, 735.0, 530.0)">n</text><text xml:space="preserve" font-family="Avenir-Medium" font-size="38.0" fill="#EAEAEA" transform="matrix(1.00, 0.00, -0.00, -1.00, 756.2, 530.0)">t</text><text xml:space="preserve" font-family="Avenir-Medium" font-size="38.0" fill="#EAEAEA" transform="matrix(1.00, 0.00, -0.00, -1.00, 770.2, 530.0)">e</text><text xml:space="preserve" font-family="Avenir-Medium" font-size="38.0" fill="#EAEAEA" transform="matrix(1.00, 0.00, -0.00, -1.00, 791.4, 530.0)">r</text><text xml:space="preserve" font-family="Avenir-Medium" font-size="38.0" fill="#EAEAEA" transform="matrix(1.00, 0.00, -0.00, -1.00, 805.4, 530.0)">a</text><text xml:space="preserve" font-family="Avenir-Medium" font-size="38.0" fill="#EAEAEA" transform="matrix(1.00, 0.00, -0.00, -1.00, 825.1, 530.0)">c</text><text xml:space="preserve" font-family="Avenir-Medium" font-size="38.0" fill="#EAEAEA" transform="matrix(1.00, 0.00, -0.00, -1.00, 843.5, 530.0)">t</text><text xml:space="preserve" font-family="Avenir-Medium" font-size="38.0" fill="#EAEAEA" transform="matrix(1.00, 0.00, -0.00, -1.00, 857.5, 530.0)">i</text><text xml:space="preserve" font-family="Avenir-Medium" font-size="38.0" fill="#EAEAEA" transform="matrix(1.00, 0.00, -0.00, -1.00, 866.6, 530.0)">v</text><text xml:space="preserve" font-family="Avenir-Medium" font-size="38.0" fill="#EAEAEA" transform="matrix(1.00, 0.00, -0.00, -1.00, 885.6, 530.0)">e</text><text xml:space="preserve" font-family="Avenir-Medium" font-size="38.0" fill="#EAEAEA" transform="matrix(1.00, 0.00, -0.00, -1.00, 906.8, 530.0)"> </text><text xml:space="preserve" font-family="Avenir-Medium" font-size="38.0" fill="#EAEAEA" transform="matrix(1.00, 0.00, -0.00, -1.00, 917.3, 530.0)"> </text><text xml:space="preserve" font-family="Avenir-Medium" font-size="38.0" fill="#EAEAEA" transform="matrix(1.00, 0.00, -0.00, -1.00, 307.0, 478.0)">a</text><text xml:space="preserve" font-family="Avenir-Medium" font-size="38.0" fill="#EAEAEA" transform="matrix(1.00, 0.00, -0.00, -1.00, 326.7, 478.0)">u</text><text xml:space="preserve" font-family="Avenir-Medium" font-size="38.0" fill="#EAEAEA" transform="matrix(1.00, 0.00, -0.00, -1.00, 347.9, 478.0)">g</text><text xml:space="preserve" font-family="Avenir-Medium" font-size="38.0" fill="#EAEAEA" transform="matrix(1.00, 0.00, -0.00, -1.00, 371.1, 478.0)">m</text><text xml:space="preserve" font-family="Avenir-Medium" font-size="38.0" fill="#EAEAEA" transform="matrix(1.00, 0.00, -0.00, -1.00, 403.4, 478.0)">e</text><text xml:space="preserve" font-family="Avenir-Medium" font-size="38.0" fill="#EAEAEA" transform="matrix(1.00, 0.00, -0.00, -1.00, 424.6, 478.0)">n</text><text xml:space="preserve" font-family="Avenir-Medium" font-size="38.0" fill="#EAEAEA" transform="matrix(1.00, 0.00, -0.00, -1.00, 445.7, 478.0)">t</text><text xml:space="preserve" font-family="Avenir-Medium" font-size="38.0" fill="#EAEAEA" transform="matrix(1.00, 0.00, -0.00, -1.00, 459.8, 478.0)">e</text><text xml:space="preserve" font-family="Avenir-Medium" font-size="38.0" fill="#EAEAEA" transform="matrix(1.00, 0.00, -0.00, -1.00, 480.9, 478.0)">d</text><text xml:space="preserve" font-family="Avenir-Medium" font-size="38.0" fill="#EAEAEA" transform="matrix(1.00, 0.00, -0.00, -1.00, 504.1, 478.0)"> </text><text xml:space="preserve" font-family="Avenir-Medium" font-size="38.0" fill="#EAEAEA" transform="matrix(1.00, 0.00, -0.00, -1.00, 514.7, 478.0)">m</text><text xml:space="preserve" font-family="Avenir-Medium" font-size="38.0" fill="#EAEAEA" transform="matrix(1.00, 0.00, -0.00, -1.00, 547.0, 478.0)">u</text><text xml:space="preserve" font-family="Avenir-Medium" font-size="38.0" fill="#EAEAEA" transform="matrix(1.00, 0.00, -0.00, -1.00, 568.2, 478.0)">s</text><text xml:space="preserve" font-family="Avenir-Medium" font-size="38.0" fill="#EAEAEA" transform="matrix(1.00, 0.00, -0.00, -1.00, 585.0, 478.0)">i</text><text xml:space="preserve" font-family="Avenir-Medium" font-size="38.0" fill="#EAEAEA" transform="matrix(1.00, 0.00, -0.00, -1.00, 594.2, 478.0)">c</text><text xml:space="preserve" font-family="Avenir-Medium" font-size="38.0" fill="#EAEAEA" transform="matrix(1.00, 0.00, -0.00, -1.00, 612.5, 478.0)"> </text><text xml:space="preserve" font-family="Avenir-Medium" font-size="38.0" fill="#EAEAEA" transform="matrix(1.00, 0.00, -0.00, -1.00, 623.0, 478.0)">s</text><text xml:space="preserve" font-family="Avenir-Medium" font-size="38.0" fill="#EAEAEA" transform="matrix(1.00, 0.00, -0.00, -1.00, 639.9, 478.0)">c</text><text xml:space="preserve" font-family="Avenir-Medium" font-size="38.0" fill="#EAEAEA" transform="matrix(1.00, 0.00, -0.00, -1.00, 658.2, 478.0)">o</text><text xml:space="preserve" font-family="Avenir-Medium" font-size="38.0" fill="#EAEAEA" transform="matrix(1.00, 0.00, -0.00, -1.00, 680.8, 478.0)">r</text><text xml:space="preserve" font-family="Avenir-Medium" font-size="38.0" fill="#EAEAEA" transform="matrix(1.00, 0.00, -0.00, -1.00, 694.2, 478.0)">e</text><text xml:space="preserve" font-family="Avenir-Medium" font-size="38.0" fill="#EAEAEA" transform="matrix(1.00, 0.00, -0.00, -1.00, 715.3, 478.0)">s</text><text xml:space="preserve" font-family="Avenir-Medium" font-size="38.0" fill="#EAEAEA" transform="matrix(1.00, 0.00, -0.00, -1.00, 732.2, 478.0)">.</text></g></svg>