<?xml version="1.0" encoding="UTF-8" standalone="no"?><svg xmlns="http://www.w3.org/2000/svg" xmlns:xlink="http://www.w3.org/1999/xlink" clip-rule="evenodd" stroke-miterlimit="4.00" viewBox="0 0 129 97"><desc>SVG generated by Keynote</desc><defs></defs><g transform="matrix(1.00, 0.00, -0.00, -1.00, 0.0, 97.0)"><image xlink:href="A4320ECDAF3447B97E88E728839E6C2A.png" width="103.00" height="72.00" transform="matrix(1.00, 0.00, -0.00, -0.99, 24.6, 72.6)" opacity="0.55"></image><path d="M 41.7 69.2 L 87.0 69.2 C 90.9 69.2 92.9 69.2 95.0 68.5 C 97.3 67.7 99.1 65.9 100.0 63.6 C 100.6 61.5 100.6 59.5 100.6 55.5 L 100.6 41.3 C 100.6 37.4 100.6 35.4 100.0 33.3 C 99.1 31.0 97.3 29.2 95.0 28.3 C 92.9 27.7 90.9 27.7 86.9 27.7 L 41.7 27.7 C 37.8 27.7 35.8 27.7 33.7 28.3 C 31.4 29.2 29.6 31.0 28.7 33.3 C 28.1 35.4 28.1 37.4 28.1 41.4 L 28.1 55.6 C 28.1 59.5 28.1 61.5 28.7 63.6 C 29.6 65.9 31.4 67.7 33.7 68.5 C 35.8 69.2 37.8 69.2 41.7 69.2 Z M 41.7 69.2 " fill="#DCDDE0"></path><g><clipPath id="clip-891"><path d="M 28.1 27.7 L 100.6 27.7 L 100.6 69.2 L 28.1 69.2 Z M 28.1 27.7 "></path></clipPath><g clip-path="url(#clip-891)"><text xml:space="preserve" font-family="Helvetica-Bold" font-weight="bold" font-size="12.0" fill="#52575F" transform="matrix(1.00, 0.00, -0.00, -1.00, 51.0, 44.0)">O</text><text xml:space="preserve" font-family="Helvetica-Bold" font-weight="bold" font-size="12.0" fill="#52575F" transform="matrix(1.00, 0.00, -0.00, -1.00, 60.3, 44.0)">S</text><text xml:space="preserve" font-family="Helvetica-Bold" font-weight="bold" font-size="12.0" fill="#52575F" transform="matrix(1.00, 0.00, -0.00, -1.00, 68.3, 44.0)">C</text></g></g></g></svg>