<?xml version="1.0" encoding="UTF-8" standalone="no"?><svg xmlns="http://www.w3.org/2000/svg" xmlns:xlink="http://www.w3.org/1999/xlink" clip-rule="evenodd" stroke-miterlimit="4.00" viewBox="0 0 138 34"><desc>SVG generated by Keynote</desc><defs></defs><g transform="matrix(1.00, 0.00, -0.00, -1.00, 0.0, 34.0)"><text xml:space="preserve" font-family="Helvetica-Bold" font-weight="bold" font-size="32.0" fill="#A6AAA8" transform="matrix(1.00, 0.00, -0.00, -1.00, 0.0, 9.0)">F</text><text xml:space="preserve" font-family="Helvetica-Bold" font-weight="bold" font-size="32.0" fill="#A6AAA8" transform="matrix(1.00, 0.00, -0.00, -1.00, 19.5, 9.0)">i</text><text xml:space="preserve" font-family="Helvetica-Bold" font-weight="bold" font-size="32.0" fill="#A6AAA8" transform="matrix(1.00, 0.00, -0.00, -1.00, 28.4, 9.0)">l</text><text xml:space="preserve" font-family="Helvetica-Bold" font-weight="bold" font-size="32.0" fill="#A6AAA8" transform="matrix(1.00, 0.00, -0.00, -1.00, 37.3, 9.0)">t</text><text xml:space="preserve" font-family="Helvetica-Bold" font-weight="bold" font-size="32.0" fill="#A6AAA8" transform="matrix(1.00, 0.00, -0.00, -1.00, 48.0, 9.0)">e</text><text xml:space="preserve" font-family="Helvetica-Bold" font-weight="bold" font-size="32.0" fill="#A6AAA8" transform="matrix(1.00, 0.00, -0.00, -1.00, 65.8, 9.0)">r</text><text xml:space="preserve" font-family="Helvetica-Bold" font-weight="bold" font-size="32.0" fill="#A6AAA8" transform="matrix(1.00, 0.00, -0.00, -1.00, 78.2, 9.0)">i</text><text xml:space="preserve" font-family="Helvetica-Bold" font-weight="bold" font-size="32.0" fill="#A6AAA8" transform="matrix(1.00, 0.00, -0.00, -1.00, 87.1, 9.0)">n</text><text xml:space="preserve" font-family="Helvetica-Bold" font-weight="bold" font-size="32.0" fill="#A6AAA8" transform="matrix(1.00, 0.00, -0.00, -1.00, 106.7, 9.0)">g</text><text xml:space="preserve" font-family="Helvetica-Bold" font-weight="bold" font-size="32.0" fill="#A6AAA8" transform="matrix(1.00, 0.00, -0.00, -1.00, 126.2, 9.0)">:</text></g></svg>