<?xml version="1.0" encoding="UTF-8" standalone="no"?><svg xmlns="http://www.w3.org/2000/svg" xmlns:xlink="http://www.w3.org/1999/xlink" clip-rule="evenodd" stroke-miterlimit="4.00" viewBox="0 0 264 51"><desc>SVG generated by Keynote</desc><defs></defs><g transform="matrix(1.00, 0.00, -0.00, -1.00, 0.0, 51.0)"><text xml:space="preserve" font-family="AvenirNext-DemiBold" font-weight="bold" font-size="50.0" fill="#FEFFFF" transform="matrix(1.00, 0.00, -0.00, -1.00, -2.4, 13.0)">D</text><text xml:space="preserve" font-family="AvenirNext-DemiBold" font-weight="bold" font-size="50.0" fill="#FEFFFF" transform="matrix(1.00, 0.00, -0.00, -1.00, 35.9, 13.0)">e</text><text xml:space="preserve" font-family="AvenirNext-DemiBold" font-weight="bold" font-size="50.0" fill="#FEFFFF" transform="matrix(1.00, 0.00, -0.00, -1.00, 64.6, 13.0)">s</text><text xml:space="preserve" font-family="AvenirNext-DemiBold" font-weight="bold" font-size="50.0" fill="#FEFFFF" transform="matrix(1.00, 0.00, -0.00, -1.00, 86.8, 13.0)">c</text><text xml:space="preserve" font-family="AvenirNext-DemiBold" font-weight="bold" font-size="50.0" fill="#FEFFFF" transform="matrix(1.00, 0.00, -0.00, -1.00, 111.2, 13.0)">r</text><text xml:space="preserve" font-family="AvenirNext-DemiBold" font-weight="bold" font-size="50.0" fill="#FEFFFF" transform="matrix(1.00, 0.00, -0.00, -1.00, 129.4, 13.0)">i</text><text xml:space="preserve" font-family="AvenirNext-DemiBold" font-weight="bold" font-size="50.0" fill="#FEFFFF" transform="matrix(1.00, 0.00, -0.00, -1.00, 142.8, 13.0)">p</text><text xml:space="preserve" font-family="AvenirNext-DemiBold" font-weight="bold" font-size="50.0" fill="#FEFFFF" transform="matrix(1.00, 0.00, -0.00, -1.00, 174.4, 13.0)">t</text><text xml:space="preserve" font-family="AvenirNext-DemiBold" font-weight="bold" font-size="50.0" fill="#FEFFFF" transform="matrix(1.00, 0.00, -0.00, -1.00, 191.4, 13.0)">i</text><text xml:space="preserve" font-family="AvenirNext-DemiBold" font-weight="bold" font-size="50.0" fill="#FEFFFF" transform="matrix(1.00, 0.00, -0.00, -1.00, 204.8, 13.0)">o</text><text xml:space="preserve" font-family="AvenirNext-DemiBold" font-weight="bold" font-size="50.0" fill="#FEFFFF" transform="matrix(1.00, 0.00, -0.00, -1.00, 235.3, 13.0)">n</text></g></svg>