<?xml version="1.0" encoding="UTF-8" standalone="no"?><svg xmlns="http://www.w3.org/2000/svg" xmlns:xlink="http://www.w3.org/1999/xlink" clip-rule="evenodd" stroke-miterlimit="4.00" viewBox="0 0 201 17"><desc>SVG generated by Keynote</desc><defs></defs><g transform="matrix(1.00, 0.00, -0.00, -1.00, 0.0, 17.0)"><text xml:space="preserve" font-family="Courier" font-size="14.0" fill="#000000" transform="matrix(1.00, 0.00, -0.00, -1.00, 0.0, 4.0)">/</text><text xml:space="preserve" font-family="Courier" font-size="14.0" fill="#000000" transform="matrix(1.00, 0.00, -0.00, -1.00, 8.4, 4.0)">I</text><text xml:space="preserve" font-family="Courier" font-size="14.0" fill="#000000" transform="matrix(1.00, 0.00, -0.00, -1.00, 16.8, 4.0)">T</text><text xml:space="preserve" font-family="Courier" font-size="14.0" fill="#000000" transform="matrix(1.00, 0.00, -0.00, -1.00, 25.2, 4.0)">L</text><text xml:space="preserve" font-family="Courier" font-size="14.0" fill="#000000" transform="matrix(1.00, 0.00, -0.00, -1.00, 33.6, 4.0)">/</text><text xml:space="preserve" font-family="Courier" font-size="14.0" fill="#000000" transform="matrix(1.00, 0.00, -0.00, -1.00, 42.0, 4.0)">s</text><text xml:space="preserve" font-family="Courier" font-size="14.0" fill="#000000" transform="matrix(1.00, 0.00, -0.00, -1.00, 50.4, 4.0)">c</text><text xml:space="preserve" font-family="Courier" font-size="14.0" fill="#000000" transform="matrix(1.00, 0.00, -0.00, -1.00, 58.8, 4.0)">e</text><text xml:space="preserve" font-family="Courier" font-size="14.0" fill="#000000" transform="matrix(1.00, 0.00, -0.00, -1.00, 67.2, 4.0)">n</text><text xml:space="preserve" font-family="Courier" font-size="14.0" fill="#000000" transform="matrix(1.00, 0.00, -0.00, -1.00, 75.6, 4.0)">e</text><text xml:space="preserve" font-family="Courier" font-size="14.0" fill="#000000" transform="matrix(1.00, 0.00, -0.00, -1.00, 84.0, 4.0)">/</text><text xml:space="preserve" font-family="Courier" font-size="14.0" fill="#000000" transform="matrix(1.00, 0.00, -0.00, -1.00, 92.4, 4.0)">t</text><text xml:space="preserve" font-family="Courier" font-size="14.0" fill="#000000" transform="matrix(1.00, 0.00, -0.00, -1.00, 100.8, 4.0)">i</text><text xml:space="preserve" font-family="Courier" font-size="14.0" fill="#000000" transform="matrix(1.00, 0.00, -0.00, -1.00, 109.2, 4.0)">t</text><text xml:space="preserve" font-family="Courier" font-size="14.0" fill="#000000" transform="matrix(1.00, 0.00, -0.00, -1.00, 117.6, 4.0)">l</text><text xml:space="preserve" font-family="Courier" font-size="14.0" fill="#000000" transform="matrix(1.00, 0.00, -0.00, -1.00, 126.0, 4.0)">e</text><text xml:space="preserve" font-family="Courier" font-size="14.0" fill="#000000" transform="matrix(1.00, 0.00, -0.00, -1.00, 134.4, 4.0)"> </text><text xml:space="preserve" font-family="Courier" font-size="14.0" fill="#000000" transform="matrix(1.00, 0.00, -0.00, -1.00, 142.8, 4.0)">y</text><text xml:space="preserve" font-family="Courier" font-size="14.0" fill="#000000" transform="matrix(1.00, 0.00, -0.00, -1.00, 151.2, 4.0)"> </text><text xml:space="preserve" font-family="Courier" font-size="14.0" fill="#000000" transform="matrix(1.00, 0.00, -0.00, -1.00, 159.7, 4.0)">-</text><text xml:space="preserve" font-family="Courier" font-size="14.0" fill="#000000" transform="matrix(1.00, 0.00, -0.00, -1.00, 168.1, 4.0)">0</text><text xml:space="preserve" font-family="Courier" font-size="14.0" fill="#000000" transform="matrix(1.00, 0.00, -0.00, -1.00, 176.5, 4.0)">.</text><text xml:space="preserve" font-family="Courier" font-size="14.0" fill="#000000" transform="matrix(1.00, 0.00, -0.00, -1.00, 184.9, 4.0)">6</text><text xml:space="preserve" font-family="Courier" font-size="14.0" fill="#000000" transform="matrix(1.00, 0.00, -0.00, -1.00, 193.3, 4.0)">;</text></g></svg>