<?xml version="1.0" encoding="UTF-8" standalone="no"?><svg xmlns="http://www.w3.org/2000/svg" xmlns:xlink="http://www.w3.org/1999/xlink" clip-rule="evenodd" stroke-miterlimit="4.00" viewBox="0 0 266 30"><desc>SVG generated by Keynote</desc><defs></defs><g transform="matrix(1.00, 0.00, -0.00, -1.00, 0.0, 30.0)"><text xml:space="preserve" font-family="Helvetica-Bold" font-weight="bold" font-size="28.0" fill="#0264C0" transform="matrix(1.00, 0.00, -0.00, -1.00, 0.0, 8.0)">n</text><text xml:space="preserve" font-family="Helvetica-Bold" font-weight="bold" font-size="28.0" fill="#0264C0" transform="matrix(1.00, 0.00, -0.00, -1.00, 17.1, 8.0)">o</text><text xml:space="preserve" font-family="Helvetica-Bold" font-weight="bold" font-size="28.0" fill="#0264C0" transform="matrix(1.00, 0.00, -0.00, -1.00, 34.2, 8.0)">t</text><text xml:space="preserve" font-family="Helvetica-Bold" font-weight="bold" font-size="28.0" fill="#0264C0" transform="matrix(1.00, 0.00, -0.00, -1.00, 43.5, 8.0)">e</text><text xml:space="preserve" font-family="Helvetica-Bold" font-weight="bold" font-size="28.0" fill="#0264C0" transform="matrix(1.00, 0.00, -0.00, -1.00, 59.1, 8.0)"> </text><text xml:space="preserve" font-family="Helvetica-Bold" font-weight="bold" font-size="28.0" fill="#0264C0" transform="matrix(1.00, 0.00, -0.00, -1.00, 66.9, 8.0)">t</text><text xml:space="preserve" font-family="Helvetica-Bold" font-weight="bold" font-size="28.0" fill="#0264C0" transform="matrix(1.00, 0.00, -0.00, -1.00, 76.2, 8.0)">h</text><text xml:space="preserve" font-family="Helvetica-Bold" font-weight="bold" font-size="28.0" fill="#0264C0" transform="matrix(1.00, 0.00, -0.00, -1.00, 93.3, 8.0)">a</text><text xml:space="preserve" font-family="Helvetica-Bold" font-weight="bold" font-size="28.0" fill="#0264C0" transform="matrix(1.00, 0.00, -0.00, -1.00, 108.9, 8.0)">t</text><text xml:space="preserve" font-family="Helvetica-Bold" font-weight="bold" font-size="28.0" fill="#0264C0" transform="matrix(1.00, 0.00, -0.00, -1.00, 118.2, 8.0)"> </text><text xml:space="preserve" font-family="Helvetica-Bold" font-weight="bold" font-size="28.0" fill="#0264C0" transform="matrix(1.00, 0.00, -0.00, -1.00, 126.0, 8.0)">t</text><text xml:space="preserve" font-family="Helvetica-Bold" font-weight="bold" font-size="28.0" fill="#0264C0" transform="matrix(1.00, 0.00, -0.00, -1.00, 135.3, 8.0)">h</text><text xml:space="preserve" font-family="Helvetica-Bold" font-weight="bold" font-size="28.0" fill="#0264C0" transform="matrix(1.00, 0.00, -0.00, -1.00, 152.4, 8.0)">e</text><text xml:space="preserve" font-family="Helvetica-Bold" font-weight="bold" font-size="28.0" fill="#0264C0" transform="matrix(1.00, 0.00, -0.00, -1.00, 168.0, 8.0)"> </text><text xml:space="preserve" font-family="Helvetica-Bold" font-weight="bold" font-size="28.0" fill="#0264C0" transform="matrix(1.00, 0.00, -0.00, -1.00, 175.7, 8.0)">m</text><text xml:space="preserve" font-family="Helvetica-Bold" font-weight="bold" font-size="28.0" fill="#0264C0" transform="matrix(1.00, 0.00, -0.00, -1.00, 200.6, 8.0)">s</text><text xml:space="preserve" font-family="Helvetica-Bold" font-weight="bold" font-size="28.0" fill="#0264C0" transform="matrix(1.00, 0.00, -0.00, -1.00, 216.2, 8.0)">g</text><text xml:space="preserve" font-family="Helvetica-Bold" font-weight="bold" font-size="28.0" fill="#0264C0" transform="matrix(1.00, 0.00, -0.00, -1.00, 233.3, 8.0)"> </text><text xml:space="preserve" font-family="Helvetica-Bold" font-weight="bold" font-size="28.0" fill="#0264C0" transform="matrix(1.00, 0.00, -0.00, -1.00, 241.1, 8.0)">i</text><text xml:space="preserve" font-family="Helvetica-Bold" font-weight="bold" font-size="28.0" fill="#0264C0" transform="matrix(1.00, 0.00, -0.00, -1.00, 248.9, 8.0)">s</text></g></svg>