<?xml version="1.0" encoding="UTF-8" standalone="no"?><svg xmlns="http://www.w3.org/2000/svg" xmlns:xlink="http://www.w3.org/1999/xlink" clip-rule="evenodd" stroke-miterlimit="4.00" viewBox="0 0 373 30"><desc>SVG generated by Keynote</desc><defs></defs><g transform="matrix(1.00, 0.00, -0.00, -1.00, 0.0, 30.0)"><text xml:space="preserve" font-family="Helvetica-Bold" font-weight="bold" font-size="28.0" fill="#0264C0" transform="matrix(1.00, 0.00, -0.00, -1.00, 1.0, 8.0)">a</text><text xml:space="preserve" font-family="Helvetica-Bold" font-weight="bold" font-size="28.0" fill="#0264C0" transform="matrix(1.00, 0.00, -0.00, -1.00, 16.6, 8.0)">d</text><text xml:space="preserve" font-family="Helvetica-Bold" font-weight="bold" font-size="28.0" fill="#0264C0" transform="matrix(1.00, 0.00, -0.00, -1.00, 33.7, 8.0)">d</text><text xml:space="preserve" font-family="Helvetica-Bold" font-weight="bold" font-size="28.0" fill="#0264C0" transform="matrix(1.00, 0.00, -0.00, -1.00, 50.8, 8.0)">r</text><text xml:space="preserve" font-family="Helvetica-Bold" font-weight="bold" font-size="28.0" fill="#0264C0" transform="matrix(1.00, 0.00, -0.00, -1.00, 61.7, 8.0)">e</text><text xml:space="preserve" font-family="Helvetica-Bold" font-weight="bold" font-size="28.0" fill="#0264C0" transform="matrix(1.00, 0.00, -0.00, -1.00, 77.3, 8.0)">s</text><text xml:space="preserve" font-family="Helvetica-Bold" font-weight="bold" font-size="28.0" fill="#0264C0" transform="matrix(1.00, 0.00, -0.00, -1.00, 92.8, 8.0)">s</text><text xml:space="preserve" font-family="Helvetica-Bold" font-weight="bold" font-size="28.0" fill="#0264C0" transform="matrix(1.00, 0.00, -0.00, -1.00, 108.4, 8.0)">e</text><text xml:space="preserve" font-family="Helvetica-Bold" font-weight="bold" font-size="28.0" fill="#0264C0" transform="matrix(1.00, 0.00, -0.00, -1.00, 124.0, 8.0)">d</text><text xml:space="preserve" font-family="Helvetica-Bold" font-weight="bold" font-size="28.0" fill="#0264C0" transform="matrix(1.00, 0.00, -0.00, -1.00, 141.1, 8.0)"> </text><text xml:space="preserve" font-family="Helvetica-Bold" font-weight="bold" font-size="28.0" fill="#0264C0" transform="matrix(1.00, 0.00, -0.00, -1.00, 148.9, 8.0)">t</text><text xml:space="preserve" font-family="Helvetica-Bold" font-weight="bold" font-size="28.0" fill="#0264C0" transform="matrix(1.00, 0.00, -0.00, -1.00, 158.2, 8.0)">o</text><text xml:space="preserve" font-family="Helvetica-Bold" font-weight="bold" font-size="28.0" fill="#0264C0" transform="matrix(1.00, 0.00, -0.00, -1.00, 175.3, 8.0)"> </text><text xml:space="preserve" font-family="Helvetica-Bold" font-weight="bold" font-size="28.0" fill="#0264C0" transform="matrix(1.00, 0.00, -0.00, -1.00, 183.1, 8.0)">t</text><text xml:space="preserve" font-family="Helvetica-Bold" font-weight="bold" font-size="28.0" fill="#0264C0" transform="matrix(1.00, 0.00, -0.00, -1.00, 192.4, 8.0)">h</text><text xml:space="preserve" font-family="Helvetica-Bold" font-weight="bold" font-size="28.0" fill="#0264C0" transform="matrix(1.00, 0.00, -0.00, -1.00, 209.5, 8.0)">e</text><text xml:space="preserve" font-family="Helvetica-Bold" font-weight="bold" font-size="28.0" fill="#0264C0" transform="matrix(1.00, 0.00, -0.00, -1.00, 225.1, 8.0)"> </text><text xml:space="preserve" font-family="Helvetica-Bold" font-weight="bold" font-size="28.0" fill="#0264C0" transform="matrix(1.00, 0.00, -0.00, -1.00, 232.8, 8.0)">s</text><text xml:space="preserve" font-family="Helvetica-Bold" font-weight="bold" font-size="28.0" fill="#0264C0" transform="matrix(1.00, 0.00, -0.00, -1.00, 248.4, 8.0)">y</text><text xml:space="preserve" font-family="Helvetica-Bold" font-weight="bold" font-size="28.0" fill="#0264C0" transform="matrix(1.00, 0.00, -0.00, -1.00, 264.0, 8.0)">n</text><text xml:space="preserve" font-family="Helvetica-Bold" font-weight="bold" font-size="28.0" fill="#0264C0" transform="matrix(1.00, 0.00, -0.00, -1.00, 281.1, 8.0)">c</text><text xml:space="preserve" font-family="Helvetica-Bold" font-weight="bold" font-size="28.0" fill="#0264C0" transform="matrix(1.00, 0.00, -0.00, -1.00, 296.7, 8.0)"> </text><text xml:space="preserve" font-family="Helvetica-Bold" font-weight="bold" font-size="28.0" fill="#0264C0" transform="matrix(1.00, 0.00, -0.00, -1.00, 304.4, 8.0)">n</text><text xml:space="preserve" font-family="Helvetica-Bold" font-weight="bold" font-size="28.0" fill="#0264C0" transform="matrix(1.00, 0.00, -0.00, -1.00, 321.5, 8.0)">o</text><text xml:space="preserve" font-family="Helvetica-Bold" font-weight="bold" font-size="28.0" fill="#0264C0" transform="matrix(1.00, 0.00, -0.00, -1.00, 338.6, 8.0)">d</text><text xml:space="preserve" font-family="Helvetica-Bold" font-weight="bold" font-size="28.0" fill="#0264C0" transform="matrix(1.00, 0.00, -0.00, -1.00, 355.7, 8.0)">e</text></g></svg>