<?xml version="1.0" encoding="UTF-8" standalone="no"?><svg xmlns="http://www.w3.org/2000/svg" xmlns:xlink="http://www.w3.org/1999/xlink" clip-rule="evenodd" stroke-miterlimit="4.00" viewBox="0 0 267 66"><desc>SVG generated by Keynote</desc><defs></defs><g transform="matrix(1.00, 0.00, -0.00, -1.00, 0.0, 66.0)"><text xml:space="preserve" font-family="Helvetica-Bold" font-weight="bold" font-size="32.0" fill="#0264C0" transform="matrix(1.00, 0.00, -0.00, -1.00, 1.0, 41.0)">a</text><text xml:space="preserve" font-family="Helvetica-Bold" font-weight="bold" font-size="32.0" fill="#0264C0" transform="matrix(1.00, 0.00, -0.00, -1.00, 18.8, 41.0)">n</text><text xml:space="preserve" font-family="Helvetica-Bold" font-weight="bold" font-size="32.0" fill="#0264C0" transform="matrix(1.00, 0.00, -0.00, -1.00, 38.4, 41.0)">d</text><text xml:space="preserve" font-family="Helvetica-Bold" font-weight="bold" font-size="32.0" fill="#0264C0" transform="matrix(1.00, 0.00, -0.00, -1.00, 57.9, 41.0)"> </text><text xml:space="preserve" font-family="Helvetica-Bold" font-weight="bold" font-size="32.0" fill="#0264C0" transform="matrix(1.00, 0.00, -0.00, -1.00, 66.8, 41.0)">s</text><text xml:space="preserve" font-family="Helvetica-Bold" font-weight="bold" font-size="32.0" fill="#0264C0" transform="matrix(1.00, 0.00, -0.00, -1.00, 84.6, 41.0)">y</text><text xml:space="preserve" font-family="Helvetica-Bold" font-weight="bold" font-size="32.0" fill="#0264C0" transform="matrix(1.00, 0.00, -0.00, -1.00, 102.4, 41.0)">n</text><text xml:space="preserve" font-family="Helvetica-Bold" font-weight="bold" font-size="32.0" fill="#0264C0" transform="matrix(1.00, 0.00, -0.00, -1.00, 122.0, 41.0)">c</text><text xml:space="preserve" font-family="Helvetica-Bold" font-weight="bold" font-size="32.0" fill="#0264C0" transform="matrix(1.00, 0.00, -0.00, -1.00, 139.8, 41.0)">h</text><text xml:space="preserve" font-family="Helvetica-Bold" font-weight="bold" font-size="32.0" fill="#0264C0" transform="matrix(1.00, 0.00, -0.00, -1.00, 159.3, 41.0)">r</text><text xml:space="preserve" font-family="Helvetica-Bold" font-weight="bold" font-size="32.0" fill="#0264C0" transform="matrix(1.00, 0.00, -0.00, -1.00, 171.8, 41.0)">o</text><text xml:space="preserve" font-family="Helvetica-Bold" font-weight="bold" font-size="32.0" fill="#0264C0" transform="matrix(1.00, 0.00, -0.00, -1.00, 191.3, 41.0)">n</text><text xml:space="preserve" font-family="Helvetica-Bold" font-weight="bold" font-size="32.0" fill="#0264C0" transform="matrix(1.00, 0.00, -0.00, -1.00, 210.9, 41.0)">i</text><text xml:space="preserve" font-family="Helvetica-Bold" font-weight="bold" font-size="32.0" fill="#0264C0" transform="matrix(1.00, 0.00, -0.00, -1.00, 219.8, 41.0)">s</text><text xml:space="preserve" font-family="Helvetica-Bold" font-weight="bold" font-size="32.0" fill="#0264C0" transform="matrix(1.00, 0.00, -0.00, -1.00, 237.6, 41.0)">e</text><text xml:space="preserve" font-family="Helvetica-Bold" font-weight="bold" font-size="32.0" fill="#0264C0" transform="matrix(1.00, 0.00, -0.00, -1.00, 255.4, 41.0)"> </text><text xml:space="preserve" font-family="Helvetica-Bold" font-weight="bold" font-size="32.0" fill="#0264C0" transform="matrix(1.00, 0.00, -0.00, -1.00, 1.0, 3.0)">i</text><text xml:space="preserve" font-family="Helvetica-Bold" font-weight="bold" font-size="32.0" fill="#0264C0" transform="matrix(1.00, 0.00, -0.00, -1.00, 9.9, 3.0)">t</text><text xml:space="preserve" font-family="Helvetica-Bold" font-weight="bold" font-size="32.0" fill="#0264C0" transform="matrix(1.00, 0.00, -0.00, -1.00, 20.5, 3.0)"> </text><text xml:space="preserve" font-family="Helvetica-Bold" font-weight="bold" font-size="32.0" fill="#0264C0" transform="matrix(1.00, 0.00, -0.00, -1.00, 29.4, 3.0)">t</text><text xml:space="preserve" font-family="Helvetica-Bold" font-weight="bold" font-size="32.0" fill="#0264C0" transform="matrix(1.00, 0.00, -0.00, -1.00, 40.1, 3.0)">o</text><text xml:space="preserve" font-family="Helvetica-Bold" font-weight="bold" font-size="32.0" fill="#0264C0" transform="matrix(1.00, 0.00, -0.00, -1.00, 59.6, 3.0)"> </text><text xml:space="preserve" font-family="Helvetica-Bold" font-weight="bold" font-size="32.0" fill="#0264C0" transform="matrix(1.00, 0.00, -0.00, -1.00, 68.5, 3.0)">t</text><text xml:space="preserve" font-family="Helvetica-Bold" font-weight="bold" font-size="32.0" fill="#0264C0" transform="matrix(1.00, 0.00, -0.00, -1.00, 79.2, 3.0)">h</text><text xml:space="preserve" font-family="Helvetica-Bold" font-weight="bold" font-size="32.0" fill="#0264C0" transform="matrix(1.00, 0.00, -0.00, -1.00, 98.7, 3.0)">e</text><text xml:space="preserve" font-family="Helvetica-Bold" font-weight="bold" font-size="32.0" fill="#0264C0" transform="matrix(1.00, 0.00, -0.00, -1.00, 116.5, 3.0)"> </text><text xml:space="preserve" font-family="Helvetica-Bold" font-weight="bold" font-size="32.0" fill="#0264C0" transform="matrix(1.00, 0.00, -0.00, -1.00, 125.4, 3.0)">s</text><text xml:space="preserve" font-family="Helvetica-Bold" font-weight="bold" font-size="32.0" fill="#0264C0" transform="matrix(1.00, 0.00, -0.00, -1.00, 143.2, 3.0)">c</text><text xml:space="preserve" font-family="Helvetica-Bold" font-weight="bold" font-size="32.0" fill="#0264C0" transform="matrix(1.00, 0.00, -0.00, -1.00, 161.0, 3.0)">o</text><text xml:space="preserve" font-family="Helvetica-Bold" font-weight="bold" font-size="32.0" fill="#0264C0" transform="matrix(1.00, 0.00, -0.00, -1.00, 180.5, 3.0)">r</text><text xml:space="preserve" font-family="Helvetica-Bold" font-weight="bold" font-size="32.0" fill="#0264C0" transform="matrix(1.00, 0.00, -0.00, -1.00, 193.0, 3.0)">e</text></g></svg>