<?xml version="1.0" encoding="UTF-8" standalone="no"?><svg xmlns="http://www.w3.org/2000/svg" xmlns:xlink="http://www.w3.org/1999/xlink" clip-rule="evenodd" stroke-miterlimit="4.00" viewBox="0 0 1024 768"><desc>SVG generated by Keynote</desc><defs></defs><g transform="matrix(1.00, 0.00, -0.00, -1.00, 0.0, 768.0)"><path d="M 0.0 768.0 L 1024.0 768.0 L 1024.0 0.0 L 0.0 0.0 Z M 0.0 768.0 " fill="#000000"></path><text xml:space="preserve" font-family="AvenirNext-DemiBold" font-weight="bold" font-size="53.0" fill="#FEFFFF" transform="matrix(1.00, 0.00, -0.00, -1.00, 74.0, 677.0)">I</text><text xml:space="preserve" font-family="AvenirNext-DemiBold" font-weight="bold" font-size="53.0" fill="#FEFFFF" transform="matrix(1.00, 0.00, -0.00, -1.00, 88.9, 677.0)">N</text><text xml:space="preserve" font-family="AvenirNext-DemiBold" font-weight="bold" font-size="53.0" fill="#FEFFFF" transform="matrix(1.00, 0.00, -0.00, -1.00, 130.3, 677.0)">S</text><text xml:space="preserve" font-family="AvenirNext-DemiBold" font-weight="bold" font-size="53.0" fill="#FEFFFF" transform="matrix(1.00, 0.00, -0.00, -1.00, 160.7, 677.0)">c</text><text xml:space="preserve" font-family="AvenirNext-DemiBold" font-weight="bold" font-size="53.0" fill="#FEFFFF" transform="matrix(1.00, 0.00, -0.00, -1.00, 186.6, 677.0)">o</text><text xml:space="preserve" font-family="AvenirNext-DemiBold" font-weight="bold" font-size="53.0" fill="#FEFFFF" transform="matrix(1.00, 0.00, -0.00, -1.00, 218.9, 677.0)">r</text><text xml:space="preserve" font-family="AvenirNext-DemiBold" font-weight="bold" font-size="53.0" fill="#FEFFFF" transform="matrix(1.00, 0.00, -0.00, -1.00, 237.2, 677.0)">e</text><text xml:space="preserve" font-family="Avenir-Book" font-size="18.0" fill="#D5D5D5" transform="matrix(1.00, 0.00, -0.00, -1.00, 30.0, 28.0)">1</text><text xml:space="preserve" font-family="Avenir-Book" font-size="18.0" fill="#D5D5D5" transform="matrix(1.00, 0.00, -0.00, -1.00, 40.0, 28.0)">8</text><text xml:space="preserve" font-family="Avenir-Book" font-size="27.5" fill="#FEFFFF" transform="matrix(1.00, 0.00, -0.00, -1.00, 74.0, 633.0)">A</text><text xml:space="preserve" font-family="Avenir-Book" font-size="27.5" fill="#FEFFFF" transform="matrix(1.00, 0.00, -0.00, -1.00, 92.9, 633.0)">n</text><text xml:space="preserve" font-family="Avenir-Book" font-size="27.5" fill="#FEFFFF" transform="matrix(1.00, 0.00, -0.00, -1.00, 108.2, 633.0)"> </text><text xml:space="preserve" font-family="Avenir-Book" font-size="27.5" fill="#FEFFFF" transform="matrix(1.00, 0.00, -0.00, -1.00, 115.8, 633.0)">e</text><text xml:space="preserve" font-family="Avenir-Book" font-size="27.5" fill="#FEFFFF" transform="matrix(1.00, 0.00, -0.00, -1.00, 131.1, 633.0)">n</text><text xml:space="preserve" font-family="Avenir-Book" font-size="27.5" fill="#FEFFFF" transform="matrix(1.00, 0.00, -0.00, -1.00, 146.4, 633.0)">v</text><text xml:space="preserve" font-family="Avenir-Book" font-size="27.5" fill="#FEFFFF" transform="matrix(1.00, 0.00, -0.00, -1.00, 159.6, 633.0)">i</text><text xml:space="preserve" font-family="Avenir-Book" font-size="27.5" fill="#FEFFFF" transform="matrix(1.00, 0.00, -0.00, -1.00, 166.2, 633.0)">r</text><text xml:space="preserve" font-family="Avenir-Book" font-size="27.5" fill="#FEFFFF" transform="matrix(1.00, 0.00, -0.00, -1.00, 174.9, 633.0)">o</text><text xml:space="preserve" font-family="Avenir-Book" font-size="27.5" fill="#FEFFFF" transform="matrix(1.00, 0.00, -0.00, -1.00, 191.2, 633.0)">n</text><text xml:space="preserve" font-family="Avenir-Book" font-size="27.5" fill="#FEFFFF" transform="matrix(1.00, 0.00, -0.00, -1.00, 206.5, 633.0)">m</text><text xml:space="preserve" font-family="Avenir-Book" font-size="27.5" fill="#FEFFFF" transform="matrix(1.00, 0.00, -0.00, -1.00, 229.9, 633.0)">e</text><text xml:space="preserve" font-family="Avenir-Book" font-size="27.5" fill="#FEFFFF" transform="matrix(1.00, 0.00, -0.00, -1.00, 245.2, 633.0)">n</text><text xml:space="preserve" font-family="Avenir-Book" font-size="27.5" fill="#FEFFFF" transform="matrix(1.00, 0.00, -0.00, -1.00, 260.5, 633.0)">t</text><text xml:space="preserve" font-family="Avenir-Book" font-size="27.5" fill="#FEFFFF" transform="matrix(1.00, 0.00, -0.00, -1.00, 269.6, 633.0)"> </text><text xml:space="preserve" font-family="Avenir-Book" font-size="27.5" fill="#FEFFFF" transform="matrix(1.00, 0.00, -0.00, -1.00, 277.3, 633.0)">f</text><text xml:space="preserve" font-family="Avenir-Book" font-size="27.5" fill="#FEFFFF" transform="matrix(1.00, 0.00, -0.00, -1.00, 285.4, 633.0)">o</text><text xml:space="preserve" font-family="Avenir-Book" font-size="27.5" fill="#FEFFFF" transform="matrix(1.00, 0.00, -0.00, -1.00, 301.7, 633.0)">r</text><text xml:space="preserve" font-family="Avenir-Book" font-size="27.5" fill="#FEFFFF" transform="matrix(1.00, 0.00, -0.00, -1.00, 310.8, 633.0)"> </text><text xml:space="preserve" font-family="Avenir-Book" font-size="27.5" fill="#FEFFFF" transform="matrix(1.00, 0.00, -0.00, -1.00, 318.5, 633.0)">t</text><text xml:space="preserve" font-family="Avenir-Book" font-size="27.5" fill="#FEFFFF" transform="matrix(1.00, 0.00, -0.00, -1.00, 327.6, 633.0)">h</text><text xml:space="preserve" font-family="Avenir-Book" font-size="27.5" fill="#FEFFFF" transform="matrix(1.00, 0.00, -0.00, -1.00, 342.9, 633.0)">e</text><text xml:space="preserve" font-family="Avenir-Book" font-size="27.5" fill="#FEFFFF" transform="matrix(1.00, 0.00, -0.00, -1.00, 358.2, 633.0)"> </text><text xml:space="preserve" font-family="Avenir-Book" font-size="27.5" fill="#FEFFFF" transform="matrix(1.00, 0.00, -0.00, -1.00, 365.8, 633.0)">d</text><text xml:space="preserve" font-family="Avenir-Book" font-size="27.5" fill="#FEFFFF" transform="matrix(1.00, 0.00, -0.00, -1.00, 382.6, 633.0)">e</text><text xml:space="preserve" font-family="Avenir-Book" font-size="27.5" fill="#FEFFFF" transform="matrix(1.00, 0.00, -0.00, -1.00, 397.9, 633.0)">s</text><text xml:space="preserve" font-family="Avenir-Book" font-size="27.5" fill="#FEFFFF" transform="matrix(1.00, 0.00, -0.00, -1.00, 409.6, 633.0)">i</text><text xml:space="preserve" font-family="Avenir-Book" font-size="27.5" fill="#FEFFFF" transform="matrix(1.00, 0.00, -0.00, -1.00, 416.2, 633.0)">g</text><text xml:space="preserve" font-family="Avenir-Book" font-size="27.5" fill="#FEFFFF" transform="matrix(1.00, 0.00, -0.00, -1.00, 433.0, 633.0)">n</text><text xml:space="preserve" font-family="Avenir-Book" font-size="27.5" fill="#FEFFFF" transform="matrix(1.00, 0.00, -0.00, -1.00, 448.3, 633.0)"> </text><text xml:space="preserve" font-family="Avenir-Book" font-size="27.5" fill="#FEFFFF" transform="matrix(1.00, 0.00, -0.00, -1.00, 456.0, 633.0)">o</text><text xml:space="preserve" font-family="Avenir-Book" font-size="27.5" fill="#FEFFFF" transform="matrix(1.00, 0.00, -0.00, -1.00, 472.3, 633.0)">f</text><text xml:space="preserve" font-family="Avenir-Book" font-size="27.5" fill="#FEFFFF" transform="matrix(1.00, 0.00, -0.00, -1.00, 480.4, 633.0)"> </text><text xml:space="preserve" font-family="Avenir-Book" font-size="27.5" fill="#FEFFFF" transform="matrix(1.00, 0.00, -0.00, -1.00, 488.1, 633.0)">i</text><text xml:space="preserve" font-family="Avenir-Book" font-size="27.5" fill="#FEFFFF" transform="matrix(1.00, 0.00, -0.00, -1.00, 494.7, 633.0)">n</text><text xml:space="preserve" font-family="Avenir-Book" font-size="27.5" fill="#FEFFFF" transform="matrix(1.00, 0.00, -0.00, -1.00, 510.0, 633.0)">t</text><text xml:space="preserve" font-family="Avenir-Book" font-size="27.5" fill="#FEFFFF" transform="matrix(1.00, 0.00, -0.00, -1.00, 519.1, 633.0)">e</text><text xml:space="preserve" font-family="Avenir-Book" font-size="27.5" fill="#FEFFFF" transform="matrix(1.00, 0.00, -0.00, -1.00, 534.4, 633.0)">r</text><text xml:space="preserve" font-family="Avenir-Book" font-size="27.5" fill="#FEFFFF" transform="matrix(1.00, 0.00, -0.00, -1.00, 543.5, 633.0)">a</text><text xml:space="preserve" font-family="Avenir-Book" font-size="27.5" fill="#FEFFFF" transform="matrix(1.00, 0.00, -0.00, -1.00, 557.8, 633.0)">c</text><text xml:space="preserve" font-family="Avenir-Book" font-size="27.5" fill="#FEFFFF" transform="matrix(1.00, 0.00, -0.00, -1.00, 571.0, 633.0)">t</text><text xml:space="preserve" font-family="Avenir-Book" font-size="27.5" fill="#FEFFFF" transform="matrix(1.00, 0.00, -0.00, -1.00, 580.2, 633.0)">i</text><text xml:space="preserve" font-family="Avenir-Book" font-size="27.5" fill="#FEFFFF" transform="matrix(1.00, 0.00, -0.00, -1.00, 586.8, 633.0)">v</text><text xml:space="preserve" font-family="Avenir-Book" font-size="27.5" fill="#FEFFFF" transform="matrix(1.00, 0.00, -0.00, -1.00, 600.0, 633.0)">e</text><text xml:space="preserve" font-family="Avenir-Book" font-size="27.5" fill="#FEFFFF" transform="matrix(1.00, 0.00, -0.00, -1.00, 615.3, 633.0)"> </text><text xml:space="preserve" font-family="Avenir-Book" font-size="27.5" fill="#FEFFFF" transform="matrix(1.00, 0.00, -0.00, -1.00, 623.0, 633.0)">a</text><text xml:space="preserve" font-family="Avenir-Book" font-size="27.5" fill="#FEFFFF" transform="matrix(1.00, 0.00, -0.00, -1.00, 637.2, 633.0)">u</text><text xml:space="preserve" font-family="Avenir-Book" font-size="27.5" fill="#FEFFFF" transform="matrix(1.00, 0.00, -0.00, -1.00, 652.5, 633.0)">g</text><text xml:space="preserve" font-family="Avenir-Book" font-size="27.5" fill="#FEFFFF" transform="matrix(1.00, 0.00, -0.00, -1.00, 669.3, 633.0)">m</text><text xml:space="preserve" font-family="Avenir-Book" font-size="27.5" fill="#FEFFFF" transform="matrix(1.00, 0.00, -0.00, -1.00, 692.7, 633.0)">e</text><text xml:space="preserve" font-family="Avenir-Book" font-size="27.5" fill="#FEFFFF" transform="matrix(1.00, 0.00, -0.00, -1.00, 708.0, 633.0)">n</text><text xml:space="preserve" font-family="Avenir-Book" font-size="27.5" fill="#FEFFFF" transform="matrix(1.00, 0.00, -0.00, -1.00, 723.3, 633.0)">t</text><text xml:space="preserve" font-family="Avenir-Book" font-size="27.5" fill="#FEFFFF" transform="matrix(1.00, 0.00, -0.00, -1.00, 732.5, 633.0)">e</text><text xml:space="preserve" font-family="Avenir-Book" font-size="27.5" fill="#FEFFFF" transform="matrix(1.00, 0.00, -0.00, -1.00, 747.7, 633.0)">d</text><text xml:space="preserve" font-family="Avenir-Book" font-size="27.5" fill="#FEFFFF" transform="matrix(1.00, 0.00, -0.00, -1.00, 764.6, 633.0)"> </text><text xml:space="preserve" font-family="Avenir-Book" font-size="27.5" fill="#FEFFFF" transform="matrix(1.00, 0.00, -0.00, -1.00, 772.2, 633.0)">m</text><text xml:space="preserve" font-family="Avenir-Book" font-size="27.5" fill="#FEFFFF" transform="matrix(1.00, 0.00, -0.00, -1.00, 795.6, 633.0)">u</text><text xml:space="preserve" font-family="Avenir-Book" font-size="27.5" fill="#FEFFFF" transform="matrix(1.00, 0.00, -0.00, -1.00, 810.9, 633.0)">s</text><text xml:space="preserve" font-family="Avenir-Book" font-size="27.5" fill="#FEFFFF" transform="matrix(1.00, 0.00, -0.00, -1.00, 822.6, 633.0)">i</text><text xml:space="preserve" font-family="Avenir-Book" font-size="27.5" fill="#FEFFFF" transform="matrix(1.00, 0.00, -0.00, -1.00, 829.2, 633.0)">c</text><text xml:space="preserve" font-family="Avenir-Book" font-size="27.5" fill="#FEFFFF" transform="matrix(1.00, 0.00, -0.00, -1.00, 842.5, 633.0)"> </text><text xml:space="preserve" font-family="Avenir-Book" font-size="27.5" fill="#FEFFFF" transform="matrix(1.00, 0.00, -0.00, -1.00, 850.1, 633.0)">s</text><text xml:space="preserve" font-family="Avenir-Book" font-size="27.5" fill="#FEFFFF" transform="matrix(1.00, 0.00, -0.00, -1.00, 861.8, 633.0)">c</text><text xml:space="preserve" font-family="Avenir-Book" font-size="27.5" fill="#FEFFFF" transform="matrix(1.00, 0.00, -0.00, -1.00, 875.1, 633.0)">o</text><text xml:space="preserve" font-family="Avenir-Book" font-size="27.5" fill="#FEFFFF" transform="matrix(1.00, 0.00, -0.00, -1.00, 891.4, 633.0)">r</text><text xml:space="preserve" font-family="Avenir-Book" font-size="27.5" fill="#FEFFFF" transform="matrix(1.00, 0.00, -0.00, -1.00, 900.0, 633.0)">e</text><text xml:space="preserve" font-family="Avenir-Book" font-size="27.5" fill="#FEFFFF" transform="matrix(1.00, 0.00, -0.00, -1.00, 915.3, 633.0)">s</text><image xlink:href="../../B04F1C97-ECAB-4D96-BED1-068678BAA01E/assets/BEF333F0D2746660C5E29CAA3BCC24B1.png" width="236.00" height="101.00" transform="matrix(1.00, 0.00, -0.00, -1.00, -285.0, 1087.0)"></image><text xml:space="preserve" font-family="Avenir-Heavy" font-weight="bold" font-size="34.0" fill="#DCDDE0" transform="matrix(1.00, 0.00, -0.00, -1.00, 77.0, 577.0)">P</text><text xml:space="preserve" font-family="Avenir-Heavy" font-weight="bold" font-size="34.0" fill="#DCDDE0" transform="matrix(1.00, 0.00, -0.00, -1.00, 97.8, 577.0)">a</text><text xml:space="preserve" font-family="Avenir-Heavy" font-weight="bold" font-size="34.0" fill="#DCDDE0" transform="matrix(1.00, 0.00, -0.00, -1.00, 116.0, 577.0)">r</text><text xml:space="preserve" font-family="Avenir-Heavy" font-weight="bold" font-size="34.0" fill="#DCDDE0" transform="matrix(1.00, 0.00, -0.00, -1.00, 129.3, 577.0)">a</text><text xml:space="preserve" font-family="Avenir-Heavy" font-weight="bold" font-size="34.0" fill="#DCDDE0" transform="matrix(1.00, 0.00, -0.00, -1.00, 147.5, 577.0)">m</text><text xml:space="preserve" font-family="Avenir-Heavy" font-weight="bold" font-size="34.0" fill="#DCDDE0" transform="matrix(1.00, 0.00, -0.00, -1.00, 177.1, 577.0)">e</text><text xml:space="preserve" font-family="Avenir-Heavy" font-weight="bold" font-size="34.0" fill="#DCDDE0" transform="matrix(1.00, 0.00, -0.00, -1.00, 196.6, 577.0)">t</text><text xml:space="preserve" font-family="Avenir-Heavy" font-weight="bold" font-size="34.0" fill="#DCDDE0" transform="matrix(1.00, 0.00, -0.00, -1.00, 209.8, 577.0)">e</text><text xml:space="preserve" font-family="Avenir-Heavy" font-weight="bold" font-size="34.0" fill="#DCDDE0" transform="matrix(1.00, 0.00, -0.00, -1.00, 229.4, 577.0)">r</text><text xml:space="preserve" font-family="Avenir-Heavy" font-weight="bold" font-size="34.0" fill="#DCDDE0" transform="matrix(1.00, 0.00, -0.00, -1.00, 242.6, 577.0)">s</text><g><clipPath id="clip-434"><path d="M 273.0 500.0 L 728.0 500.0 L 728.0 582.0 L 273.0 582.0 Z M 273.0 500.0 "></path></clipPath><g clip-path="url(#clip-434)"><image xlink:href="../../D51D7656-423F-4084-A5B7-0BE4A0E5ADDE/assets/A3D205114B302A36EE1BC375BCE3C73D.png" width="118.00" height="54.00" transform="matrix(1.00, 0.00, -0.00, -1.00, 298.5, 564.7)"></image><image xlink:href="../../D51D7656-423F-4084-A5B7-0BE4A0E5ADDE/assets/A3D205114B302A36EE1BC375BCE3C73D.png" width="118.00" height="54.00" transform="matrix(1.00, 0.00, -0.00, -1.00, 436.6, 564.7)"></image><image xlink:href="../../D51D7656-423F-4084-A5B7-0BE4A0E5ADDE/assets/A3D205114B302A36EE1BC375BCE3C73D.png" width="118.00" height="54.00" transform="matrix(1.00, 0.00, -0.00, -1.00, 574.8, 564.7)"></image><path d="M 309.5 525.6 L 405.6 525.6 L 405.6 557.7 L 309.5 557.7 Z M 309.5 525.6 " fill="#FEFFFF"></path><path d="M 108.0 662.0 L 204.0 662.0 L 204.0 694.0 L 108.0 694.0 Z M 108.0 662.0 " fill="none" stroke="#B3B3B3" stroke-width="1.00" stroke-miterlimit="0.00" stroke-linecap="round" stroke-linejoin="round" transform="matrix(1.00, 0.00, 0.00, -1.00, 201.4, 1221.5)"></path><text xml:space="preserve" font-family="Helvetica" font-size="12.0" fill="#B3B3B3" transform="matrix(1.00, 0.00, -0.00, -1.00, 320.8, 538.5)">O</text><text xml:space="preserve" font-family="Helvetica" font-size="12.0" fill="#B3B3B3" transform="matrix(1.00, 0.00, -0.00, -1.00, 330.2, 538.5)">S</text><text xml:space="preserve" font-family="Helvetica" font-size="12.0" fill="#B3B3B3" transform="matrix(1.00, 0.00, -0.00, -1.00, 338.2, 538.5)">C</text><text xml:space="preserve" font-family="Helvetica" font-size="12.0" fill="#B3B3B3" transform="matrix(1.00, 0.00, -0.00, -1.00, 346.9, 538.5)"> </text><text xml:space="preserve" font-family="Helvetica" font-size="12.0" fill="#B3B3B3" transform="matrix(1.00, 0.00, -0.00, -1.00, 350.2, 538.5)">a</text><text xml:space="preserve" font-family="Helvetica" font-size="12.0" fill="#B3B3B3" transform="matrix(1.00, 0.00, -0.00, -1.00, 356.9, 538.5)">d</text><text xml:space="preserve" font-family="Helvetica" font-size="12.0" fill="#B3B3B3" transform="matrix(1.00, 0.00, -0.00, -1.00, 363.6, 538.5)">d</text><text xml:space="preserve" font-family="Helvetica" font-size="12.0" fill="#B3B3B3" transform="matrix(1.00, 0.00, -0.00, -1.00, 370.2, 538.5)">r</text><text xml:space="preserve" font-family="Helvetica" font-size="12.0" fill="#B3B3B3" transform="matrix(1.00, 0.00, -0.00, -1.00, 374.2, 538.5)">e</text><text xml:space="preserve" font-family="Helvetica" font-size="12.0" fill="#B3B3B3" transform="matrix(1.00, 0.00, -0.00, -1.00, 380.9, 538.5)">s</text><text xml:space="preserve" font-family="Helvetica" font-size="12.0" fill="#B3B3B3" transform="matrix(1.00, 0.00, -0.00, -1.00, 386.9, 538.5)">s</text><path d="M 447.7 525.6 L 543.7 525.6 L 543.7 557.7 L 447.7 557.7 Z M 447.7 525.6 " fill="#FEFFFF"></path><path d="M 246.0 662.0 L 342.0 662.0 L 342.0 694.0 L 246.0 694.0 Z M 246.0 662.0 " fill="none" stroke="#B3B3B3" stroke-width="1.00" stroke-miterlimit="0.00" stroke-linecap="round" stroke-linejoin="round" transform="matrix(1.00, 0.00, 0.00, -1.00, 201.4, 1221.5)"></path><text xml:space="preserve" font-family="Helvetica" font-size="12.0" fill="#B3B3B3" transform="matrix(1.00, 0.00, -0.00, -1.00, 454.3, 538.5)">m</text><text xml:space="preserve" font-family="Helvetica" font-size="12.0" fill="#B3B3B3" transform="matrix(1.00, 0.00, -0.00, -1.00, 464.3, 538.5)">e</text><text xml:space="preserve" font-family="Helvetica" font-size="12.0" fill="#B3B3B3" transform="matrix(1.00, 0.00, -0.00, -1.00, 471.0, 538.5)">s</text><text xml:space="preserve" font-family="Helvetica" font-size="12.0" fill="#B3B3B3" transform="matrix(1.00, 0.00, -0.00, -1.00, 477.0, 538.5)">s</text><text xml:space="preserve" font-family="Helvetica" font-size="12.0" fill="#B3B3B3" transform="matrix(1.00, 0.00, -0.00, -1.00, 483.0, 538.5)">a</text><text xml:space="preserve" font-family="Helvetica" font-size="12.0" fill="#B3B3B3" transform="matrix(1.00, 0.00, -0.00, -1.00, 489.7, 538.5)">g</text><text xml:space="preserve" font-family="Helvetica" font-size="12.0" fill="#B3B3B3" transform="matrix(1.00, 0.00, -0.00, -1.00, 496.3, 538.5)">e</text><text xml:space="preserve" font-family="Helvetica" font-size="12.0" fill="#B3B3B3" transform="matrix(1.00, 0.00, -0.00, -1.00, 503.0, 538.5)"> </text><text xml:space="preserve" font-family="Helvetica" font-size="12.0" fill="#B3B3B3" transform="matrix(1.00, 0.00, -0.00, -1.00, 506.4, 538.5)">s</text><text xml:space="preserve" font-family="Helvetica" font-size="12.0" fill="#B3B3B3" transform="matrix(1.00, 0.00, -0.00, -1.00, 512.4, 538.5)">t</text><text xml:space="preserve" font-family="Helvetica" font-size="12.0" fill="#B3B3B3" transform="matrix(1.00, 0.00, -0.00, -1.00, 515.7, 538.5)">r</text><text xml:space="preserve" font-family="Helvetica" font-size="12.0" fill="#B3B3B3" transform="matrix(1.00, 0.00, -0.00, -1.00, 519.7, 538.5)">i</text><text xml:space="preserve" font-family="Helvetica" font-size="12.0" fill="#B3B3B3" transform="matrix(1.00, 0.00, -0.00, -1.00, 522.4, 538.5)">n</text><text xml:space="preserve" font-family="Helvetica" font-size="12.0" fill="#B3B3B3" transform="matrix(1.00, 0.00, -0.00, -1.00, 529.0, 538.5)">g</text><path d="M 585.8 525.6 L 681.9 525.6 L 681.9 557.7 L 585.8 557.7 Z M 585.8 525.6 " fill="#FEFFFF"></path><path d="M 384.0 662.0 L 480.0 662.0 L 480.0 694.0 L 384.0 694.0 Z M 384.0 662.0 " fill="none" stroke="#000000" stroke-width="1.00" stroke-miterlimit="0.00" stroke-linecap="round" stroke-linejoin="round" transform="matrix(1.00, 0.00, 0.00, -1.00, 201.4, 1221.5)"></path><text xml:space="preserve" font-family="Helvetica" font-size="12.0" fill="#000000" transform="matrix(1.00, 0.00, -0.00, -1.00, 605.7, 538.5)">p</text><text xml:space="preserve" font-family="Helvetica" font-size="12.0" fill="#000000" transform="matrix(1.00, 0.00, -0.00, -1.00, 612.4, 538.5)">a</text><text xml:space="preserve" font-family="Helvetica" font-size="12.0" fill="#000000" transform="matrix(1.00, 0.00, -0.00, -1.00, 619.1, 538.5)">r</text><text xml:space="preserve" font-family="Helvetica" font-size="12.0" fill="#000000" transform="matrix(1.00, 0.00, -0.00, -1.00, 623.1, 538.5)">a</text><text xml:space="preserve" font-family="Helvetica" font-size="12.0" fill="#000000" transform="matrix(1.00, 0.00, -0.00, -1.00, 629.8, 538.5)">m</text><text xml:space="preserve" font-family="Helvetica" font-size="12.0" fill="#000000" transform="matrix(1.00, 0.00, -0.00, -1.00, 639.8, 538.5)">e</text><text xml:space="preserve" font-family="Helvetica" font-size="12.0" fill="#000000" transform="matrix(1.00, 0.00, -0.00, -1.00, 646.5, 538.5)">t</text><text xml:space="preserve" font-family="Helvetica" font-size="12.0" fill="#000000" transform="matrix(1.00, 0.00, -0.00, -1.00, 649.8, 538.5)">e</text><text xml:space="preserve" font-family="Helvetica" font-size="12.0" fill="#000000" transform="matrix(1.00, 0.00, -0.00, -1.00, 656.5, 538.5)">r</text><path d="M 204.0 678.0 L 211.0 678.0 L 239.0 678.0 L 246.0 678.0 " fill="none" stroke="#B3B3B3" stroke-width="1.00" stroke-miterlimit="0.00" transform="matrix(1.00, 0.00, 0.00, -1.00, 201.4, 1221.5)"></path><path d="M 342.0 678.0 L 349.0 678.0 L 377.0 678.0 L 384.0 678.0 " fill="none" stroke="#B3B3B3" stroke-width="1.00" stroke-miterlimit="0.00" transform="matrix(1.00, 0.00, 0.00, -1.00, 201.4, 1221.5)"></path><path d="M 480.0 678.0 L 487.0 678.0 L 522.0 678.0 L 522.0 677.0 " fill="none" stroke="#B3B3B3" stroke-width="1.00" stroke-miterlimit="0.00" transform="matrix(1.00, 0.00, 0.00, -1.00, 201.4, 1221.5)"></path><path d="M 77.0 679.0 L 77.0 678.0 L 101.0 678.0 L 108.0 678.0 " fill="none" stroke="#B3B3B3" stroke-width="1.00" stroke-miterlimit="0.00" transform="matrix(1.00, 0.00, 0.00, -1.00, 201.4, 1221.5)"></path><path d="M 342.0 678.0 C 351.0 680.0 362.0 677.8 369.0 684.0 C 376.0 690.2 365.5 710.0 384.0 715.0 C 402.5 720.0 461.3 719.3 480.0 714.0 C 498.7 708.7 491.0 689.0 496.0 683.0 C 498.6 679.9 501.0 679.1 503.4 678.9 " fill="none" stroke="#B3B3B3" stroke-width="1.00" stroke-miterlimit="0.00" stroke-linecap="round" stroke-linejoin="round" transform="matrix(1.00, 0.00, 0.00, -1.00, 201.4, 1221.5)"></path><path d="M 710.2 541.4 L 701.9 543.4 L 705.3 540.8 L 705.3 540.8 L 702.7 537.4 Z M 710.2 541.4 " fill="#B3B3B3"></path><path d="M 508.4 678.2 L 500.1 676.2 L 503.4 678.9 L 503.4 678.9 L 500.8 682.2 Z M 508.4 678.2 " fill="none" stroke="#B3B3B3" stroke-width="1.00" stroke-miterlimit="0.00" transform="matrix(1.00, 0.00, 0.00, -1.00, 201.4, 1221.5)"></path><path d="M 480.0 678.0 C 484.3 672.7 493.0 667.8 493.0 662.0 C 493.0 656.2 498.2 646.2 480.0 643.0 C 461.8 639.8 402.3 639.8 384.0 643.0 C 365.7 646.2 370.0 656.2 370.0 662.0 C 370.0 666.1 374.6 669.7 378.9 673.3 " fill="none" stroke="#B3B3B3" stroke-width="1.00" stroke-miterlimit="0.00" stroke-linecap="round" stroke-linejoin="round" transform="matrix(1.00, 0.00, 0.00, -1.00, 201.4, 1221.5)"></path><path d="M 584.4 542.9 L 580.5 550.6 L 580.7 546.3 L 580.7 546.3 L 576.5 546.2 Z M 584.4 542.9 " fill="#B3B3B3"></path><path d="M 382.6 676.7 L 378.8 669.1 L 378.9 673.3 L 378.9 673.3 L 374.7 673.5 Z M 382.6 676.7 " fill="none" stroke="#B3B3B3" stroke-width="1.00" stroke-miterlimit="0.00" transform="matrix(1.00, 0.00, 0.00, -1.00, 201.4, 1221.5)"></path></g></g><text xml:space="preserve" font-family="Avenir-Book" font-size="30.0" fill="#E42100" transform="matrix(1.00, 0.00, -0.00, -1.00, 271.0, 404.3)">•</text><text xml:space="preserve" font-family="Avenir-Book" font-size="24.0" fill="#FEFFFE" transform="matrix(1.00, 0.00, -0.00, -1.00, 305.0, 406.0)">i</text><text xml:space="preserve" font-family="Avenir-Book" font-size="24.0" fill="#FEFFFE" transform="matrix(1.00, 0.00, -0.00, -1.00, 310.8, 406.0)">n</text><text xml:space="preserve" font-family="Avenir-Book" font-size="24.0" fill="#FEFFFE" transform="matrix(1.00, 0.00, -0.00, -1.00, 324.1, 406.0)">t</text><text xml:space="preserve" font-family="Avenir-Book" font-size="24.0" fill="#FEFFFE" transform="matrix(1.00, 0.00, -0.00, -1.00, 332.1, 406.0)">3</text><text xml:space="preserve" font-family="Avenir-Book" font-size="24.0" fill="#FEFFFE" transform="matrix(1.00, 0.00, -0.00, -1.00, 345.4, 406.0)">2</text><text xml:space="preserve" font-family="Avenir-Book" font-size="24.0" fill="#FEFFFE" transform="matrix(1.00, 0.00, -0.00, -1.00, 358.8, 406.0)"> </text><text xml:space="preserve" font-family="Avenir-Book" font-size="24.0" fill="#FEFFFE" transform="matrix(1.00, 0.00, -0.00, -1.00, 365.4, 406.0)"> </text><text xml:space="preserve" font-family="Avenir-Book" font-size="30.0" fill="#E42100" transform="matrix(1.00, 0.00, -0.00, -1.00, 271.0, 371.3)">•</text><text xml:space="preserve" font-family="Avenir-Book" font-size="24.0" fill="#FEFFFE" transform="matrix(1.00, 0.00, -0.00, -1.00, 305.0, 373.0)">f</text><text xml:space="preserve" font-family="Avenir-Book" font-size="24.0" fill="#FEFFFE" transform="matrix(1.00, 0.00, -0.00, -1.00, 312.1, 373.0)">l</text><text xml:space="preserve" font-family="Avenir-Book" font-size="24.0" fill="#FEFFFE" transform="matrix(1.00, 0.00, -0.00, -1.00, 317.9, 373.0)">o</text><text xml:space="preserve" font-family="Avenir-Book" font-size="24.0" fill="#FEFFFE" transform="matrix(1.00, 0.00, -0.00, -1.00, 332.1, 373.0)">a</text><text xml:space="preserve" font-family="Avenir-Book" font-size="24.0" fill="#FEFFFE" transform="matrix(1.00, 0.00, -0.00, -1.00, 344.6, 373.0)">t</text><text xml:space="preserve" font-family="Avenir-Book" font-size="24.0" fill="#FEFFFE" transform="matrix(1.00, 0.00, -0.00, -1.00, 352.5, 373.0)">3</text><text xml:space="preserve" font-family="Avenir-Book" font-size="24.0" fill="#FEFFFE" transform="matrix(1.00, 0.00, -0.00, -1.00, 365.9, 373.0)">2</text><text xml:space="preserve" font-family="Avenir-Book" font-size="24.0" fill="#FEFFFE" transform="matrix(1.00, 0.00, -0.00, -1.00, 379.2, 373.0)"> </text><text xml:space="preserve" font-family="Avenir-Book" font-size="30.0" fill="#E42100" transform="matrix(1.00, 0.00, -0.00, -1.00, 271.0, 338.3)">•</text><text xml:space="preserve" font-family="Avenir-Book" font-size="24.0" fill="#FEFFFE" transform="matrix(1.00, 0.00, -0.00, -1.00, 305.0, 340.0)">O</text><text xml:space="preserve" font-family="Avenir-Book" font-size="24.0" fill="#FEFFFE" transform="matrix(1.00, 0.00, -0.00, -1.00, 325.0, 340.0)">S</text><text xml:space="preserve" font-family="Avenir-Book" font-size="24.0" fill="#FEFFFE" transform="matrix(1.00, 0.00, -0.00, -1.00, 338.4, 340.0)">C</text><text xml:space="preserve" font-family="Avenir-Book" font-size="24.0" fill="#FEFFFE" transform="matrix(1.00, 0.00, -0.00, -1.00, 355.3, 340.0)">-</text><text xml:space="preserve" font-family="Avenir-Book" font-size="24.0" fill="#FEFFFE" transform="matrix(1.00, 0.00, -0.00, -1.00, 363.2, 340.0)">s</text><text xml:space="preserve" font-family="Avenir-Book" font-size="24.0" fill="#FEFFFE" transform="matrix(1.00, 0.00, -0.00, -1.00, 373.5, 340.0)">t</text><text xml:space="preserve" font-family="Avenir-Book" font-size="24.0" fill="#FEFFFE" transform="matrix(1.00, 0.00, -0.00, -1.00, 381.4, 340.0)">r</text><text xml:space="preserve" font-family="Avenir-Book" font-size="24.0" fill="#FEFFFE" transform="matrix(1.00, 0.00, -0.00, -1.00, 389.4, 340.0)">i</text><text xml:space="preserve" font-family="Avenir-Book" font-size="24.0" fill="#FEFFFE" transform="matrix(1.00, 0.00, -0.00, -1.00, 395.2, 340.0)">n</text><text xml:space="preserve" font-family="Avenir-Book" font-size="24.0" fill="#FEFFFE" transform="matrix(1.00, 0.00, -0.00, -1.00, 408.5, 340.0)">g</text><text xml:space="preserve" font-family="Avenir-Book" font-size="36.0" fill="#FEFFFE" transform="matrix(1.00, 0.00, -0.00, -1.00, 305.0, 439.0)">D</text><text xml:space="preserve" font-family="Avenir-Book" font-size="36.0" fill="#FEFFFE" transform="matrix(1.00, 0.00, -0.00, -1.00, 331.7, 439.0)">i</text><text xml:space="preserve" font-family="Avenir-Book" font-size="36.0" fill="#FEFFFE" transform="matrix(1.00, 0.00, -0.00, -1.00, 340.3, 439.0)">r</text><text xml:space="preserve" font-family="Avenir-Book" font-size="36.0" fill="#FEFFFE" transform="matrix(1.00, 0.00, -0.00, -1.00, 351.6, 439.0)">e</text><text xml:space="preserve" font-family="Avenir-Book" font-size="36.0" fill="#FEFFFE" transform="matrix(1.00, 0.00, -0.00, -1.00, 371.6, 439.0)">c</text><text xml:space="preserve" font-family="Avenir-Book" font-size="36.0" fill="#FEFFFE" transform="matrix(1.00, 0.00, -0.00, -1.00, 389.0, 439.0)">t</text><text xml:space="preserve" font-family="Avenir-Book" font-size="36.0" fill="#FEFFFE" transform="matrix(1.00, 0.00, -0.00, -1.00, 400.9, 439.0)"> </text><text xml:space="preserve" font-family="Avenir-Book" font-size="36.0" fill="#FEFFFE" transform="matrix(1.00, 0.00, -0.00, -1.00, 410.9, 439.0)">u</text><text xml:space="preserve" font-family="Avenir-Book" font-size="36.0" fill="#FEFFFE" transform="matrix(1.00, 0.00, -0.00, -1.00, 431.0, 439.0)">s</text><text xml:space="preserve" font-family="Avenir-Book" font-size="36.0" fill="#FEFFFE" transform="matrix(1.00, 0.00, -0.00, -1.00, 446.3, 439.0)">e</text><text xml:space="preserve" font-family="Avenir-Book" font-size="36.0" fill="#FEFFFE" transform="matrix(1.00, 0.00, -0.00, -1.00, 466.3, 439.0)"> </text><text xml:space="preserve" font-family="Avenir-Book" font-size="36.0" fill="#FEFFFE" transform="matrix(1.00, 0.00, -0.00, -1.00, 476.3, 439.0)">o</text><text xml:space="preserve" font-family="Avenir-Book" font-size="36.0" fill="#FEFFFE" transform="matrix(1.00, 0.00, -0.00, -1.00, 497.7, 439.0)">f</text><text xml:space="preserve" font-family="Avenir-Book" font-size="36.0" fill="#FEFFFE" transform="matrix(1.00, 0.00, -0.00, -1.00, 508.3, 439.0)"> </text><text xml:space="preserve" font-family="Avenir-Book" font-size="36.0" fill="#FEFFFE" transform="matrix(1.00, 0.00, -0.00, -1.00, 518.3, 439.0)">b</text><text xml:space="preserve" font-family="Avenir-Book" font-size="36.0" fill="#FEFFFE" transform="matrix(1.00, 0.00, -0.00, -1.00, 540.3, 439.0)">a</text><text xml:space="preserve" font-family="Avenir-Book" font-size="36.0" fill="#FEFFFE" transform="matrix(1.00, 0.00, -0.00, -1.00, 559.0, 439.0)">s</text><text xml:space="preserve" font-family="Avenir-Book" font-size="36.0" fill="#FEFFFE" transform="matrix(1.00, 0.00, -0.00, -1.00, 574.4, 439.0)">i</text><text xml:space="preserve" font-family="Avenir-Book" font-size="36.0" fill="#FEFFFE" transform="matrix(1.00, 0.00, -0.00, -1.00, 583.0, 439.0)">c</text><text xml:space="preserve" font-family="Avenir-Book" font-size="36.0" fill="#FEFFFE" transform="matrix(1.00, 0.00, -0.00, -1.00, 600.3, 439.0)"> </text><text xml:space="preserve" font-family="Avenir-Book" font-size="36.0" fill="#FEFFFE" transform="matrix(1.00, 0.00, -0.00, -1.00, 610.4, 439.0)">O</text><text xml:space="preserve" font-family="Avenir-Book" font-size="36.0" fill="#FEFFFE" transform="matrix(1.00, 0.00, -0.00, -1.00, 640.4, 439.0)">S</text><text xml:space="preserve" font-family="Avenir-Book" font-size="36.0" fill="#FEFFFE" transform="matrix(1.00, 0.00, -0.00, -1.00, 660.4, 439.0)">C</text><text xml:space="preserve" font-family="Avenir-Book" font-size="36.0" fill="#FEFFFE" transform="matrix(1.00, 0.00, -0.00, -1.00, 685.7, 439.0)"> </text><text xml:space="preserve" font-family="Avenir-Book" font-size="36.0" fill="#FEFFFE" transform="matrix(1.00, 0.00, -0.00, -1.00, 695.7, 439.0)">t</text><text xml:space="preserve" font-family="Avenir-Book" font-size="36.0" fill="#FEFFFE" transform="matrix(1.00, 0.00, -0.00, -1.00, 707.7, 439.0)">y</text><text xml:space="preserve" font-family="Avenir-Book" font-size="36.0" fill="#FEFFFE" transform="matrix(1.00, 0.00, -0.00, -1.00, 725.0, 439.0)">p</text><text xml:space="preserve" font-family="Avenir-Book" font-size="36.0" fill="#FEFFFE" transform="matrix(1.00, 0.00, -0.00, -1.00, 747.0, 439.0)">e</text><text xml:space="preserve" font-family="Avenir-Book" font-size="36.0" fill="#FEFFFE" transform="matrix(1.00, 0.00, -0.00, -1.00, 767.1, 439.0)">s</text><text xml:space="preserve" font-family="Avenir-Book" font-size="36.0" fill="#FEFFFE" transform="matrix(1.00, 0.00, -0.00, -1.00, 301.0, 271.0)">R</text><text xml:space="preserve" font-family="Avenir-Book" font-size="36.0" fill="#FEFFFE" transform="matrix(1.00, 0.00, -0.00, -1.00, 322.3, 271.0)">e</text><text xml:space="preserve" font-family="Avenir-Book" font-size="36.0" fill="#FEFFFE" transform="matrix(1.00, 0.00, -0.00, -1.00, 342.4, 271.0)">l</text><text xml:space="preserve" font-family="Avenir-Book" font-size="36.0" fill="#FEFFFE" transform="matrix(1.00, 0.00, -0.00, -1.00, 351.0, 271.0)">a</text><text xml:space="preserve" font-family="Avenir-Book" font-size="36.0" fill="#FEFFFE" transform="matrix(1.00, 0.00, -0.00, -1.00, 369.7, 271.0)">x</text><text xml:space="preserve" font-family="Avenir-Book" font-size="36.0" fill="#FEFFFE" transform="matrix(1.00, 0.00, -0.00, -1.00, 387.0, 271.0)">e</text><text xml:space="preserve" font-family="Avenir-Book" font-size="36.0" fill="#FEFFFE" transform="matrix(1.00, 0.00, -0.00, -1.00, 407.1, 271.0)">d</text><text xml:space="preserve" font-family="Avenir-Book" font-size="36.0" fill="#FEFFFE" transform="matrix(1.00, 0.00, -0.00, -1.00, 429.1, 271.0)"> </text><text xml:space="preserve" font-family="Avenir-Book" font-size="36.0" fill="#FEFFFE" transform="matrix(1.00, 0.00, -0.00, -1.00, 439.1, 271.0)">t</text><text xml:space="preserve" font-family="Avenir-Book" font-size="36.0" fill="#FEFFFE" transform="matrix(1.00, 0.00, -0.00, -1.00, 451.0, 271.0)">y</text><text xml:space="preserve" font-family="Avenir-Book" font-size="36.0" fill="#FEFFFE" transform="matrix(1.00, 0.00, -0.00, -1.00, 468.4, 271.0)">p</text><text xml:space="preserve" font-family="Avenir-Book" font-size="36.0" fill="#FEFFFE" transform="matrix(1.00, 0.00, -0.00, -1.00, 490.4, 271.0)">e</text><text xml:space="preserve" font-family="Avenir-Book" font-size="36.0" fill="#FEFFFE" transform="matrix(1.00, 0.00, -0.00, -1.00, 510.4, 271.0)">s</text><text xml:space="preserve" font-family="Avenir-Book" font-size="36.0" fill="#FEFFFE" transform="matrix(1.00, 0.00, -0.00, -1.00, 301.0, 209.0)">S</text><text xml:space="preserve" font-family="Avenir-Book" font-size="36.0" fill="#FEFFFE" transform="matrix(1.00, 0.00, -0.00, -1.00, 321.0, 209.0)">t</text><text xml:space="preserve" font-family="Avenir-Book" font-size="36.0" fill="#FEFFFE" transform="matrix(1.00, 0.00, -0.00, -1.00, 333.0, 209.0)">r</text><text xml:space="preserve" font-family="Avenir-Book" font-size="36.0" fill="#FEFFFE" transform="matrix(1.00, 0.00, -0.00, -1.00, 344.9, 209.0)">i</text><text xml:space="preserve" font-family="Avenir-Book" font-size="36.0" fill="#FEFFFE" transform="matrix(1.00, 0.00, -0.00, -1.00, 353.6, 209.0)">c</text><text xml:space="preserve" font-family="Avenir-Book" font-size="36.0" fill="#FEFFFE" transform="matrix(1.00, 0.00, -0.00, -1.00, 370.9, 209.0)">t</text><text xml:space="preserve" font-family="Avenir-Book" font-size="36.0" fill="#FEFFFE" transform="matrix(1.00, 0.00, -0.00, -1.00, 382.9, 209.0)"> </text><text xml:space="preserve" font-family="Avenir-Book" font-size="36.0" fill="#FEFFFE" transform="matrix(1.00, 0.00, -0.00, -1.00, 392.9, 209.0)">p</text><text xml:space="preserve" font-family="Avenir-Book" font-size="36.0" fill="#FEFFFE" transform="matrix(1.00, 0.00, -0.00, -1.00, 414.9, 209.0)">a</text><text xml:space="preserve" font-family="Avenir-Book" font-size="36.0" fill="#FEFFFE" transform="matrix(1.00, 0.00, -0.00, -1.00, 433.6, 209.0)">r</text><text xml:space="preserve" font-family="Avenir-Book" font-size="36.0" fill="#FEFFFE" transform="matrix(1.00, 0.00, -0.00, -1.00, 445.5, 209.0)">a</text><text xml:space="preserve" font-family="Avenir-Book" font-size="36.0" fill="#FEFFFE" transform="matrix(1.00, 0.00, -0.00, -1.00, 464.2, 209.0)">m</text><text xml:space="preserve" font-family="Avenir-Book" font-size="36.0" fill="#FEFFFE" transform="matrix(1.00, 0.00, -0.00, -1.00, 494.9, 209.0)">e</text><text xml:space="preserve" font-family="Avenir-Book" font-size="36.0" fill="#FEFFFE" transform="matrix(1.00, 0.00, -0.00, -1.00, 514.9, 209.0)">t</text><text xml:space="preserve" font-family="Avenir-Book" font-size="36.0" fill="#FEFFFE" transform="matrix(1.00, 0.00, -0.00, -1.00, 526.8, 209.0)">e</text><text xml:space="preserve" font-family="Avenir-Book" font-size="36.0" fill="#FEFFFE" transform="matrix(1.00, 0.00, -0.00, -1.00, 546.8, 209.0)">r</text><text xml:space="preserve" font-family="Avenir-Book" font-size="36.0" fill="#FEFFFE" transform="matrix(1.00, 0.00, -0.00, -1.00, 558.8, 209.0)">s</text><text xml:space="preserve" font-family="Avenir-Book" font-size="36.0" fill="#FEFFFE" transform="matrix(1.00, 0.00, -0.00, -1.00, 574.1, 209.0)"> </text><text xml:space="preserve" font-family="Avenir-Book" font-size="36.0" fill="#FEFFFE" transform="matrix(1.00, 0.00, -0.00, -1.00, 584.1, 209.0)">c</text><text xml:space="preserve" font-family="Avenir-Book" font-size="36.0" fill="#FEFFFE" transform="matrix(1.00, 0.00, -0.00, -1.00, 601.5, 209.0)">o</text><text xml:space="preserve" font-family="Avenir-Book" font-size="36.0" fill="#FEFFFE" transform="matrix(1.00, 0.00, -0.00, -1.00, 622.8, 209.0)">u</text><text xml:space="preserve" font-family="Avenir-Book" font-size="36.0" fill="#FEFFFE" transform="matrix(1.00, 0.00, -0.00, -1.00, 642.9, 209.0)">n</text><text xml:space="preserve" font-family="Avenir-Book" font-size="36.0" fill="#FEFFFE" transform="matrix(1.00, 0.00, -0.00, -1.00, 662.9, 209.0)">t</text></g></svg>