<?xml version="1.0" encoding="UTF-8" standalone="no"?><svg xmlns="http://www.w3.org/2000/svg" xmlns:xlink="http://www.w3.org/1999/xlink" clip-rule="evenodd" stroke-miterlimit="4.00" viewBox="0 0 1093 154"><desc>SVG generated by Keynote</desc><defs></defs><g transform="matrix(1.00, 0.00, -0.00, -1.00, 0.0, 154.0)"><g><clipPath id="clip-409"><path d="M 0.3 1.0 L 547.9 1.0 L 547.9 154.0 L 0.3 154.0 Z M 0.3 1.0 "></path></clipPath><g clip-path="url(#clip-409)"><image xlink:href="82F551D76182049F7F4A2DC1A892127D.png" width="546.00" height="150.00" transform="matrix(1.00, 0.00, -0.00, -1.00, 1.3, 152.0)" opacity="0.75"></image><path d="M 121.3 153.0 L 426.9 153.0 L 426.9 81.0 L 121.3 81.0 Z M 121.3 153.0 " fill="#FEFFFE" fill-opacity="0.89"></path></g></g><g><clipPath id="clip-410"><path d="M 134.7 100.0 L 397.8 100.0 L 397.8 134.0 L 134.7 134.0 Z M 134.7 100.0 "></path></clipPath><g clip-path="url(#clip-410)"><text xml:space="preserve" font-family="Courier" font-size="20.0" fill="#324763" transform="matrix(1.00, 0.00, -0.00, -1.00, 140.0, 110.0)">/</text><text xml:space="preserve" font-family="Courier" font-size="20.0" fill="#324763" transform="matrix(1.00, 0.00, -0.00, -1.00, 152.0, 110.0)">I</text><text xml:space="preserve" font-family="Courier" font-size="20.0" fill="#324763" transform="matrix(1.00, 0.00, -0.00, -1.00, 164.0, 110.0)">T</text><text xml:space="preserve" font-family="Courier" font-size="20.0" fill="#324763" transform="matrix(1.00, 0.00, -0.00, -1.00, 176.0, 110.0)">L</text><text xml:space="preserve" font-family="Courier" font-size="20.0" fill="#324763" transform="matrix(1.00, 0.00, -0.00, -1.00, 188.0, 110.0)">/</text><text xml:space="preserve" font-family="Courier" font-size="20.0" fill="#324763" transform="matrix(1.00, 0.00, -0.00, -1.00, 200.0, 110.0)">s</text><text xml:space="preserve" font-family="Courier" font-size="20.0" fill="#324763" transform="matrix(1.00, 0.00, -0.00, -1.00, 212.0, 110.0)">c</text><text xml:space="preserve" font-family="Courier" font-size="20.0" fill="#324763" transform="matrix(1.00, 0.00, -0.00, -1.00, 224.0, 110.0)">e</text><text xml:space="preserve" font-family="Courier" font-size="20.0" fill="#324763" transform="matrix(1.00, 0.00, -0.00, -1.00, 236.0, 110.0)">n</text><text xml:space="preserve" font-family="Courier" font-size="20.0" fill="#324763" transform="matrix(1.00, 0.00, -0.00, -1.00, 248.0, 110.0)">e</text><text xml:space="preserve" font-family="Courier" font-size="20.0" fill="#324763" transform="matrix(1.00, 0.00, -0.00, -1.00, 260.0, 110.0)">/</text><text xml:space="preserve" font-family="Courier" font-size="20.0" fill="#324763" transform="matrix(1.00, 0.00, -0.00, -1.00, 272.0, 110.0)">o</text><text xml:space="preserve" font-family="Courier" font-size="20.0" fill="#324763" transform="matrix(1.00, 0.00, -0.00, -1.00, 284.0, 110.0)">b</text><text xml:space="preserve" font-family="Courier" font-size="20.0" fill="#324763" transform="matrix(1.00, 0.00, -0.00, -1.00, 296.1, 110.0)">j</text><text xml:space="preserve" font-family="Courier" font-size="20.0" fill="#324763" transform="matrix(1.00, 0.00, -0.00, -1.00, 308.1, 110.0)">e</text><text xml:space="preserve" font-family="Courier" font-size="20.0" fill="#324763" transform="matrix(1.00, 0.00, -0.00, -1.00, 320.1, 110.0)">c</text><text xml:space="preserve" font-family="Courier" font-size="20.0" fill="#324763" transform="matrix(1.00, 0.00, -0.00, -1.00, 332.1, 110.0)">t</text><text xml:space="preserve" font-family="Courier" font-size="20.0" fill="#324763" transform="matrix(1.00, 0.00, -0.00, -1.00, 344.1, 110.0)"> </text><text xml:space="preserve" font-family="Courier" font-size="20.0" fill="#324763" transform="matrix(1.00, 0.00, -0.00, -1.00, 356.1, 110.0)">g</text><text xml:space="preserve" font-family="Courier" font-size="20.0" fill="#324763" transform="matrix(1.00, 0.00, -0.00, -1.00, 368.1, 110.0)">e</text><text xml:space="preserve" font-family="Courier" font-size="20.0" fill="#324763" transform="matrix(1.00, 0.00, -0.00, -1.00, 380.1, 110.0)">t</text></g></g><g><clipPath id="clip-411"><path d="M 368.3 1.0 L 1092.7 1.0 L 1092.7 154.0 L 368.3 154.0 Z M 368.3 1.0 "></path></clipPath><g clip-path="url(#clip-411)"><image xlink:href="62A42616386622A53AAC8EFEB6B3E42B.png" width="723.00" height="150.00" transform="matrix(1.00, 0.00, -0.00, -1.00, 369.3, 152.0)" opacity="0.75"></image><path d="M 489.3 153.0 L 971.7 153.0 L 971.7 81.0 L 489.3 81.0 Z M 489.3 153.0 " fill="#FFE6C5"></path></g></g><g><clipPath id="clip-412"><path d="M 515.0 100.0 L 946.0 100.0 L 946.0 134.0 L 515.0 134.0 Z M 515.0 100.0 "></path></clipPath><g clip-path="url(#clip-412)"><text xml:space="preserve" font-family="Courier" font-size="20.0" fill="#324763" transform="matrix(1.00, 0.00, -0.00, -1.00, 520.0, 110.0)">/</text><text xml:space="preserve" font-family="Courier" font-size="20.0" fill="#324763" transform="matrix(1.00, 0.00, -0.00, -1.00, 532.0, 110.0)">I</text><text xml:space="preserve" font-family="Courier" font-size="20.0" fill="#324763" transform="matrix(1.00, 0.00, -0.00, -1.00, 544.0, 110.0)">T</text><text xml:space="preserve" font-family="Courier" font-size="20.0" fill="#324763" transform="matrix(1.00, 0.00, -0.00, -1.00, 556.0, 110.0)">L</text><text xml:space="preserve" font-family="Courier" font-size="20.0" fill="#324763" transform="matrix(1.00, 0.00, -0.00, -1.00, 568.0, 110.0)">/</text><text xml:space="preserve" font-family="Courier" font-size="20.0" fill="#324763" transform="matrix(1.00, 0.00, -0.00, -1.00, 580.0, 110.0)">s</text><text xml:space="preserve" font-family="Courier" font-size="20.0" fill="#324763" transform="matrix(1.00, 0.00, -0.00, -1.00, 592.0, 110.0)">c</text><text xml:space="preserve" font-family="Courier" font-size="20.0" fill="#324763" transform="matrix(1.00, 0.00, -0.00, -1.00, 604.0, 110.0)">e</text><text xml:space="preserve" font-family="Courier" font-size="20.0" fill="#324763" transform="matrix(1.00, 0.00, -0.00, -1.00, 616.0, 110.0)">n</text><text xml:space="preserve" font-family="Courier" font-size="20.0" fill="#324763" transform="matrix(1.00, 0.00, -0.00, -1.00, 628.0, 110.0)">e</text><text xml:space="preserve" font-family="Courier" font-size="20.0" fill="#324763" transform="matrix(1.00, 0.00, -0.00, -1.00, 640.0, 110.0)">/</text><text xml:space="preserve" font-family="Courier" font-size="20.0" fill="#324763" transform="matrix(1.00, 0.00, -0.00, -1.00, 652.0, 110.0)">o</text><text xml:space="preserve" font-family="Courier" font-size="20.0" fill="#324763" transform="matrix(1.00, 0.00, -0.00, -1.00, 664.0, 110.0)">b</text><text xml:space="preserve" font-family="Courier" font-size="20.0" fill="#324763" transform="matrix(1.00, 0.00, -0.00, -1.00, 676.1, 110.0)">j</text><text xml:space="preserve" font-family="Courier" font-size="20.0" fill="#324763" transform="matrix(1.00, 0.00, -0.00, -1.00, 688.1, 110.0)">e</text><text xml:space="preserve" font-family="Courier" font-size="20.0" fill="#324763" transform="matrix(1.00, 0.00, -0.00, -1.00, 700.1, 110.0)">c</text><text xml:space="preserve" font-family="Courier" font-size="20.0" fill="#324763" transform="matrix(1.00, 0.00, -0.00, -1.00, 712.1, 110.0)">t</text><text xml:space="preserve" font-family="Courier" font-size="20.0" fill="#324763" transform="matrix(1.00, 0.00, -0.00, -1.00, 724.1, 110.0)"> </text><text xml:space="preserve" font-family="Courier" font-size="20.0" fill="#324763" transform="matrix(1.00, 0.00, -0.00, -1.00, 736.1, 110.0)">s</text><text xml:space="preserve" font-family="Courier" font-size="20.0" fill="#324763" transform="matrix(1.00, 0.00, -0.00, -1.00, 748.1, 110.0)">e</text><text xml:space="preserve" font-family="Courier" font-size="20.0" fill="#324763" transform="matrix(1.00, 0.00, -0.00, -1.00, 760.1, 110.0)">t</text><text xml:space="preserve" font-family="Courier" font-size="20.0" fill="#324763" transform="matrix(1.00, 0.00, -0.00, -1.00, 772.1, 110.0)"> </text><text xml:space="preserve" font-family="Courier" font-size="20.0" fill="#324763" transform="matrix(1.00, 0.00, -0.00, -1.00, 784.1, 110.0)">t</text><text xml:space="preserve" font-family="Courier" font-size="20.0" fill="#324763" transform="matrix(1.00, 0.00, -0.00, -1.00, 796.1, 110.0)">y</text><text xml:space="preserve" font-family="Courier" font-size="20.0" fill="#324763" transform="matrix(1.00, 0.00, -0.00, -1.00, 808.1, 110.0)">p</text><text xml:space="preserve" font-family="Courier" font-size="20.0" fill="#324763" transform="matrix(1.00, 0.00, -0.00, -1.00, 820.1, 110.0)">e</text><text xml:space="preserve" font-family="Courier" font-size="20.0" fill="#324763" transform="matrix(1.00, 0.00, -0.00, -1.00, 832.1, 110.0)"> </text><text xml:space="preserve" font-family="Courier" font-size="20.0" fill="#324763" transform="matrix(1.00, 0.00, -0.00, -1.00, 844.1, 110.0)">&lt;</text><text xml:space="preserve" font-family="Courier" font-size="20.0" fill="#324763" transform="matrix(1.00, 0.00, -0.00, -1.00, 856.1, 110.0)">p</text><text xml:space="preserve" font-family="Courier" font-size="20.0" fill="#324763" transform="matrix(1.00, 0.00, -0.00, -1.00, 868.1, 110.0)">a</text><text xml:space="preserve" font-family="Courier" font-size="20.0" fill="#324763" transform="matrix(1.00, 0.00, -0.00, -1.00, 880.1, 110.0)">r</text><text xml:space="preserve" font-family="Courier" font-size="20.0" fill="#324763" transform="matrix(1.00, 0.00, -0.00, -1.00, 892.1, 110.0)">a</text><text xml:space="preserve" font-family="Courier" font-size="20.0" fill="#324763" transform="matrix(1.00, 0.00, -0.00, -1.00, 904.1, 110.0)">m</text><text xml:space="preserve" font-family="Courier" font-size="20.0" fill="#324763" transform="matrix(1.00, 0.00, -0.00, -1.00, 916.1, 110.0)">s</text><text xml:space="preserve" font-family="Courier" font-size="20.0" fill="#324763" transform="matrix(1.00, 0.00, -0.00, -1.00, 928.1, 110.0)">&gt;</text></g></g><g><clipPath id="clip-413"><path d="M 451.1 109.0 L 451.1 92.0 L 483.1 117.0 L 451.1 142.0 L 451.1 125.0 L 433.1 125.0 L 433.1 109.0 Z M 451.1 109.0 "></path></clipPath><g clip-path="url(#clip-413)"><g><clipPath id="clip-414"><path d="M 432.1 91.0 L 484.1 91.0 L 484.1 143.0 L 432.1 143.0 Z M 432.1 91.0 "></path></clipPath><g clip-path="url(#clip-414)"><image xlink:href="AB143A555AC104F6E2FCD0DDFD488D1F.jpeg" width="191.00" height="191.00" transform="matrix(1.01, 0.00, -0.00, -1.01, 433.1, 142.0)"></image><path d="M 433.1 142.0 L 483.1 142.0 L 483.1 92.0 L 433.1 92.0 Z M 433.1 142.0 " fill="#4C76A3" fill-opacity="0.85"></path></g></g></g></g></g></svg>