<?xml version="1.0" encoding="UTF-8" standalone="no"?><svg xmlns="http://www.w3.org/2000/svg" xmlns:xlink="http://www.w3.org/1999/xlink" clip-rule="evenodd" stroke-miterlimit="4.00" viewBox="0 0 598 212"><desc>SVG generated by Keynote</desc><defs></defs><g transform="matrix(1.00, 0.00, -0.00, -1.00, 0.0, 212.0)"><g><clipPath id="clip-370"><path d="M 0.6 0.2 L 597.3 0.2 L 597.3 211.2 L 0.6 211.2 Z M 0.6 0.2 "></path></clipPath><g clip-path="url(#clip-370)"><image xlink:href="../../A71061F2-9473-4D17-8A7E-C9A0974BD1B5/assets/7C38BA735C4765DF42E47B7A11B6BEBF.png" width="595.00" height="150.00" transform="matrix(1.00, 0.00, -0.00, -1.00, 1.6, 151.2)" opacity="0.75"></image><path d="M 122.6 97.4 L 122.6 193.1 C 122.6 202.0 129.8 209.2 138.7 209.2 L 459.1 209.2 C 468.1 209.2 475.3 202.0 475.3 193.1 L 475.3 97.4 C 475.3 88.4 468.1 81.2 459.1 81.2 L 138.7 81.2 C 129.8 81.2 122.6 88.4 122.6 97.4 Z M 122.6 97.4 " fill="#FEFFFE"></path><path d="M 0.0 111.9 L 0.0 16.1 C 0.0 7.2 7.2 0.0 16.1 0.0 L 336.6 0.0 C 345.5 0.0 352.7 7.2 352.7 16.1 L 352.7 111.9 C 352.7 120.8 345.5 128.0 336.6 128.0 L 16.1 128.0 C 7.2 128.0 0.0 120.8 0.0 111.9 Z M 0.0 111.9 " fill="none" stroke="#7995B9" stroke-width="2.00" transform="matrix(1.00, 0.00, 0.00, -1.00, 122.6, 209.2)"></path></g></g><g><clipPath id="clip-371"><path d="M 125.8 159.1 L 287.7 159.1 L 287.7 211.5 L 125.8 211.5 Z M 125.8 159.1 "></path></clipPath><g clip-path="url(#clip-371)"><text xml:space="preserve" font-family="Palatino-Roman" font-size="28.0" fill="#324763" transform="matrix(1.00, 0.00, -0.00, -1.00, 134.0, 175.0)">W</text><text xml:space="preserve" font-family="Palatino-Roman" font-size="28.0" fill="#324763" transform="matrix(1.00, 0.00, -0.00, -1.00, 159.4, 175.0)">e</text><text xml:space="preserve" font-family="Palatino-Roman" font-size="28.0" fill="#324763" transform="matrix(1.00, 0.00, -0.00, -1.00, 172.8, 175.0)">b</text><text xml:space="preserve" font-family="Palatino-Roman" font-size="28.0" fill="#324763" transform="matrix(1.00, 0.00, -0.00, -1.00, 188.3, 175.0)"> </text><text xml:space="preserve" font-family="Palatino-Roman" font-size="28.0" fill="#324763" transform="matrix(1.00, 0.00, -0.00, -1.00, 195.3, 175.0)">o</text><text xml:space="preserve" font-family="Palatino-Roman" font-size="28.0" fill="#324763" transform="matrix(1.00, 0.00, -0.00, -1.00, 210.6, 175.0)">b</text><text xml:space="preserve" font-family="Palatino-Roman" font-size="28.0" fill="#324763" transform="matrix(1.00, 0.00, -0.00, -1.00, 226.1, 175.0)">j</text><text xml:space="preserve" font-family="Palatino-Roman" font-size="28.0" fill="#324763" transform="matrix(1.00, 0.00, -0.00, -1.00, 232.7, 175.0)">e</text><text xml:space="preserve" font-family="Palatino-Roman" font-size="28.0" fill="#324763" transform="matrix(1.00, 0.00, -0.00, -1.00, 246.1, 175.0)">c</text><text xml:space="preserve" font-family="Palatino-Roman" font-size="28.0" fill="#324763" transform="matrix(1.00, 0.00, -0.00, -1.00, 258.5, 175.0)">t</text><text xml:space="preserve" font-family="Palatino-Roman" font-size="28.0" fill="#324763" transform="matrix(1.00, 0.00, -0.00, -1.00, 267.6, 175.0)">s</text></g></g><g><clipPath id="clip-372"><path d="M 160.9 91.9 L 452.7 91.9 L 452.7 161.9 L 160.9 161.9 Z M 160.9 91.9 "></path></clipPath><g clip-path="url(#clip-372)"><text xml:space="preserve" font-family="Palatino-Roman" font-size="30.0" fill="#E42100" transform="matrix(1.00, 0.00, -0.00, -1.00, 166.9, 129.7)">•</text><text xml:space="preserve" font-family="Courier" font-size="24.0" fill="#000000" transform="matrix(1.00, 0.00, -0.00, -1.00, 203.0, 133.0)">h</text><text xml:space="preserve" font-family="Courier" font-size="24.0" fill="#000000" transform="matrix(1.00, 0.00, -0.00, -1.00, 217.4, 133.0)">t</text><text xml:space="preserve" font-family="Courier" font-size="24.0" fill="#000000" transform="matrix(1.00, 0.00, -0.00, -1.00, 231.8, 133.0)">t</text><text xml:space="preserve" font-family="Courier" font-size="24.0" fill="#000000" transform="matrix(1.00, 0.00, -0.00, -1.00, 246.2, 133.0)">p</text><text xml:space="preserve" font-family="Courier" font-size="24.0" fill="#000000" transform="matrix(1.00, 0.00, -0.00, -1.00, 260.6, 133.0)">d</text><text xml:space="preserve" font-family="Palatino-Roman" font-size="30.0" fill="#E42100" transform="matrix(1.00, 0.00, -0.00, -1.00, 166.9, 100.7)">•</text><text xml:space="preserve" font-family="Courier" font-size="24.0" fill="#000000" transform="matrix(1.00, 0.00, -0.00, -1.00, 203.0, 104.0)">w</text><text xml:space="preserve" font-family="Courier" font-size="24.0" fill="#000000" transform="matrix(1.00, 0.00, -0.00, -1.00, 217.4, 104.0)">e</text><text xml:space="preserve" font-family="Courier" font-size="24.0" fill="#000000" transform="matrix(1.00, 0.00, -0.00, -1.00, 231.8, 104.0)">b</text><text xml:space="preserve" font-family="Courier" font-size="24.0" fill="#000000" transform="matrix(1.00, 0.00, -0.00, -1.00, 246.2, 104.0)">s</text><text xml:space="preserve" font-family="Courier" font-size="24.0" fill="#000000" transform="matrix(1.00, 0.00, -0.00, -1.00, 260.6, 104.0)">o</text><text xml:space="preserve" font-family="Courier" font-size="24.0" fill="#000000" transform="matrix(1.00, 0.00, -0.00, -1.00, 275.0, 104.0)">c</text><text xml:space="preserve" font-family="Courier" font-size="24.0" fill="#000000" transform="matrix(1.00, 0.00, -0.00, -1.00, 289.4, 104.0)">k</text><text xml:space="preserve" font-family="Courier" font-size="24.0" fill="#000000" transform="matrix(1.00, 0.00, -0.00, -1.00, 303.8, 104.0)">e</text><text xml:space="preserve" font-family="Courier" font-size="24.0" fill="#000000" transform="matrix(1.00, 0.00, -0.00, -1.00, 318.2, 104.0)">t</text></g></g></g></svg>