<?xml version="1.0" encoding="UTF-8" standalone="no"?><svg xmlns="http://www.w3.org/2000/svg" xmlns:xlink="http://www.w3.org/1999/xlink" clip-rule="evenodd" stroke-miterlimit="4.00" viewBox="0 0 598 232"><desc>SVG generated by Keynote</desc><defs></defs><g transform="matrix(1.00, 0.00, -0.00, -1.00, 0.0, 232.0)"><g><clipPath id="clip-376"><path d="M 0.6 0.4 L 597.4 0.4 L 597.4 231.1 L 0.6 231.1 Z M 0.6 0.4 "></path></clipPath><g clip-path="url(#clip-376)"><image xlink:href="../../A71061F2-9473-4D17-8A7E-C9A0974BD1B5/assets/7C38BA735C4765DF42E47B7A11B6BEBF.png" width="595.00" height="150.00" transform="matrix(1.00, 0.00, -0.00, -1.00, 1.6, 151.4)" opacity="0.75"></image><path d="M 122.6 97.5 L 122.6 213.0 C 122.6 221.9 129.9 229.1 138.8 229.1 L 459.2 229.1 C 468.1 229.1 475.4 221.9 475.4 213.0 L 475.4 97.5 C 475.4 88.6 468.1 81.4 459.2 81.4 L 138.8 81.4 C 129.9 81.4 122.6 88.6 122.6 97.5 Z M 122.6 97.5 " fill="#FEFFFE"></path><path d="M 0.0 131.6 L 0.0 16.1 C 0.0 7.2 7.2 0.0 16.1 0.0 L 336.6 0.0 C 345.5 0.0 352.7 7.2 352.7 16.1 L 352.7 131.6 C 352.7 140.5 345.5 147.8 336.6 147.8 L 16.1 147.8 C 7.2 147.8 0.0 140.5 0.0 131.6 Z M 0.0 131.6 " fill="none" stroke="#7995B9" stroke-width="2.00" transform="matrix(1.00, 0.00, 0.00, -1.00, 122.6, 229.1)"></path></g></g><g><clipPath id="clip-377"><path d="M 125.9 179.1 L 201.3 179.1 L 201.3 231.5 L 125.9 231.5 Z M 125.9 179.1 "></path></clipPath><g clip-path="url(#clip-377)"><text xml:space="preserve" font-family="Palatino-Roman" font-size="28.0" fill="#324763" transform="matrix(1.00, 0.00, -0.00, -1.00, 134.0, 195.0)">M</text><text xml:space="preserve" font-family="Palatino-Roman" font-size="28.0" fill="#324763" transform="matrix(1.00, 0.00, -0.00, -1.00, 160.5, 195.0)">i</text><text xml:space="preserve" font-family="Palatino-Roman" font-size="28.0" fill="#324763" transform="matrix(1.00, 0.00, -0.00, -1.00, 168.6, 195.0)">s</text><text xml:space="preserve" font-family="Palatino-Roman" font-size="28.0" fill="#324763" transform="matrix(1.00, 0.00, -0.00, -1.00, 180.5, 195.0)">c</text></g></g><g><clipPath id="clip-378"><path d="M 166.0 90.1 L 414.6 90.1 L 414.6 189.1 L 166.0 189.1 Z M 166.0 90.1 "></path></clipPath><g clip-path="url(#clip-378)"><text xml:space="preserve" font-family="Palatino-Roman" font-size="30.0" fill="#E42100" transform="matrix(1.00, 0.00, -0.00, -1.00, 172.0, 156.9)">•</text><text xml:space="preserve" font-family="Courier" font-size="24.0" fill="#000000" transform="matrix(1.00, 0.00, -0.00, -1.00, 208.0, 160.0)">l</text><text xml:space="preserve" font-family="Courier" font-size="24.0" fill="#000000" transform="matrix(1.00, 0.00, -0.00, -1.00, 222.4, 160.0)">a</text><text xml:space="preserve" font-family="Courier" font-size="24.0" fill="#000000" transform="matrix(1.00, 0.00, -0.00, -1.00, 236.8, 160.0)">y</text><text xml:space="preserve" font-family="Courier" font-size="24.0" fill="#000000" transform="matrix(1.00, 0.00, -0.00, -1.00, 251.2, 160.0)">e</text><text xml:space="preserve" font-family="Courier" font-size="24.0" fill="#000000" transform="matrix(1.00, 0.00, -0.00, -1.00, 265.6, 160.0)">r</text><text xml:space="preserve" font-family="Palatino-Roman" font-size="30.0" fill="#E42100" transform="matrix(1.00, 0.00, -0.00, -1.00, 172.0, 127.9)">•</text><text xml:space="preserve" font-family="Courier" font-size="24.0" fill="#000000" transform="matrix(1.00, 0.00, -0.00, -1.00, 208.0, 131.0)">g</text><text xml:space="preserve" font-family="Courier" font-size="24.0" fill="#000000" transform="matrix(1.00, 0.00, -0.00, -1.00, 222.4, 131.0)">r</text><text xml:space="preserve" font-family="Courier" font-size="24.0" fill="#000000" transform="matrix(1.00, 0.00, -0.00, -1.00, 236.8, 131.0)">i</text><text xml:space="preserve" font-family="Courier" font-size="24.0" fill="#000000" transform="matrix(1.00, 0.00, -0.00, -1.00, 251.2, 131.0)">d</text><text xml:space="preserve" font-family="Palatino-Roman" font-size="30.0" fill="#E42100" transform="matrix(1.00, 0.00, -0.00, -1.00, 172.0, 98.9)">•</text><text xml:space="preserve" font-family="Courier" font-size="24.0" fill="#000000" transform="matrix(1.00, 0.00, -0.00, -1.00, 208.0, 102.0)">f</text><text xml:space="preserve" font-family="Courier" font-size="24.0" fill="#000000" transform="matrix(1.00, 0.00, -0.00, -1.00, 222.4, 102.0)">i</text><text xml:space="preserve" font-family="Courier" font-size="24.0" fill="#000000" transform="matrix(1.00, 0.00, -0.00, -1.00, 236.8, 102.0)">l</text><text xml:space="preserve" font-family="Courier" font-size="24.0" fill="#000000" transform="matrix(1.00, 0.00, -0.00, -1.00, 251.2, 102.0)">e</text></g></g></g></svg>