<?xml version="1.0" encoding="UTF-8" standalone="no"?><svg xmlns="http://www.w3.org/2000/svg" xmlns:xlink="http://www.w3.org/1999/xlink" clip-rule="evenodd" stroke-miterlimit="4.00" viewBox="0 0 598 234"><desc>SVG generated by Keynote</desc><defs></defs><g transform="matrix(1.00, 0.00, -0.00, -1.00, 0.0, 234.0)"><g><clipPath id="clip-358"><path d="M 0.6 0.7 L 597.4 0.7 L 597.4 233.5 L 0.6 233.5 Z M 0.6 0.7 "></path></clipPath><g clip-path="url(#clip-358)"><image xlink:href="../../A71061F2-9473-4D17-8A7E-C9A0974BD1B5/assets/7C38BA735C4765DF42E47B7A11B6BEBF.png" width="595.00" height="150.00" transform="matrix(1.00, 0.00, -0.00, -1.00, 1.6, 151.7)" opacity="0.75"></image><path d="M 122.6 97.8 L 122.6 215.3 C 122.6 224.2 129.9 231.5 138.8 231.5 L 459.2 231.5 C 468.1 231.5 475.4 224.2 475.4 215.3 L 475.4 97.8 C 475.4 88.9 468.1 81.7 459.2 81.7 L 138.8 81.7 C 129.9 81.7 122.6 88.9 122.6 97.8 Z M 122.6 97.8 " fill="#FEFFFE"></path><path d="M 0.0 133.6 L 0.0 16.1 C 0.0 7.2 7.2 0.0 16.1 0.0 L 336.6 0.0 C 345.5 0.0 352.7 7.2 352.7 16.1 L 352.7 133.6 C 352.7 142.5 345.5 149.8 336.6 149.8 L 16.1 149.8 C 7.2 149.8 0.0 142.5 0.0 133.6 Z M 0.0 133.6 " fill="none" stroke="#7995B9" stroke-width="2.00" transform="matrix(1.00, 0.00, 0.00, -1.00, 122.6, 231.5)"></path></g></g><g><clipPath id="clip-359"><path d="M 125.9 181.4 L 336.9 181.4 L 336.9 233.8 L 125.9 233.8 Z M 125.9 181.4 "></path></clipPath><g clip-path="url(#clip-359)"><text xml:space="preserve" font-family="Palatino-Roman" font-size="28.0" fill="#324763" transform="matrix(1.00, 0.00, -0.00, -1.00, 134.0, 197.0)">I</text><text xml:space="preserve" font-family="Palatino-Roman" font-size="28.0" fill="#324763" transform="matrix(1.00, 0.00, -0.00, -1.00, 143.4, 197.0)">m</text><text xml:space="preserve" font-family="Palatino-Roman" font-size="28.0" fill="#324763" transform="matrix(1.00, 0.00, -0.00, -1.00, 168.1, 197.0)">a</text><text xml:space="preserve" font-family="Palatino-Roman" font-size="28.0" fill="#324763" transform="matrix(1.00, 0.00, -0.00, -1.00, 182.1, 197.0)">g</text><text xml:space="preserve" font-family="Palatino-Roman" font-size="28.0" fill="#324763" transform="matrix(1.00, 0.00, -0.00, -1.00, 197.7, 197.0)">e</text><text xml:space="preserve" font-family="Palatino-Roman" font-size="28.0" fill="#324763" transform="matrix(1.00, 0.00, -0.00, -1.00, 211.1, 197.0)">s</text><text xml:space="preserve" font-family="Palatino-Roman" font-size="28.0" fill="#324763" transform="matrix(1.00, 0.00, -0.00, -1.00, 223.0, 197.0)"> </text><text xml:space="preserve" font-family="Palatino-Roman" font-size="28.0" fill="#324763" transform="matrix(1.00, 0.00, -0.00, -1.00, 230.0, 197.0)">&amp;</text><text xml:space="preserve" font-family="Palatino-Roman" font-size="28.0" fill="#324763" transform="matrix(1.00, 0.00, -0.00, -1.00, 251.8, 197.0)"> </text><text xml:space="preserve" font-family="Palatino-Roman" font-size="28.0" fill="#324763" transform="matrix(1.00, 0.00, -0.00, -1.00, 258.8, 197.0)">v</text><text xml:space="preserve" font-family="Palatino-Roman" font-size="28.0" fill="#324763" transform="matrix(1.00, 0.00, -0.00, -1.00, 274.6, 197.0)">i</text><text xml:space="preserve" font-family="Palatino-Roman" font-size="28.0" fill="#324763" transform="matrix(1.00, 0.00, -0.00, -1.00, 282.7, 197.0)">d</text><text xml:space="preserve" font-family="Palatino-Roman" font-size="28.0" fill="#324763" transform="matrix(1.00, 0.00, -0.00, -1.00, 299.8, 197.0)">e</text><text xml:space="preserve" font-family="Palatino-Roman" font-size="28.0" fill="#324763" transform="matrix(1.00, 0.00, -0.00, -1.00, 313.2, 197.0)">o</text></g></g><g><clipPath id="clip-360"><path d="M 144.8 92.0 L 422.2 92.0 L 422.2 191.0 L 144.8 191.0 Z M 144.8 92.0 "></path></clipPath><g clip-path="url(#clip-360)"><text xml:space="preserve" font-family="Palatino-Roman" font-size="30.0" fill="#E42100" transform="matrix(1.00, 0.00, -0.00, -1.00, 150.8, 158.8)">•</text><text xml:space="preserve" font-family="Courier" font-size="24.0" fill="#000000" transform="matrix(1.00, 0.00, -0.00, -1.00, 187.0, 162.0)">i</text><text xml:space="preserve" font-family="Courier" font-size="24.0" fill="#000000" transform="matrix(1.00, 0.00, -0.00, -1.00, 201.4, 162.0)">m</text><text xml:space="preserve" font-family="Courier" font-size="24.0" fill="#000000" transform="matrix(1.00, 0.00, -0.00, -1.00, 215.8, 162.0)">g</text><text xml:space="preserve" font-family="Palatino-Roman" font-size="30.0" fill="#E42100" transform="matrix(1.00, 0.00, -0.00, -1.00, 150.8, 129.8)">•</text><text xml:space="preserve" font-family="Courier" font-size="24.0" fill="#000000" transform="matrix(1.00, 0.00, -0.00, -1.00, 187.0, 133.0)">m</text><text xml:space="preserve" font-family="Courier" font-size="24.0" fill="#000000" transform="matrix(1.00, 0.00, -0.00, -1.00, 201.4, 133.0)">e</text><text xml:space="preserve" font-family="Courier" font-size="24.0" fill="#000000" transform="matrix(1.00, 0.00, -0.00, -1.00, 215.8, 133.0)">m</text><text xml:space="preserve" font-family="Courier" font-size="24.0" fill="#000000" transform="matrix(1.00, 0.00, -0.00, -1.00, 230.2, 133.0)">i</text><text xml:space="preserve" font-family="Courier" font-size="24.0" fill="#000000" transform="matrix(1.00, 0.00, -0.00, -1.00, 244.6, 133.0)">m</text><text xml:space="preserve" font-family="Courier" font-size="24.0" fill="#000000" transform="matrix(1.00, 0.00, -0.00, -1.00, 259.0, 133.0)">g</text><text xml:space="preserve" font-family="Palatino-Roman" font-size="30.0" fill="#E42100" transform="matrix(1.00, 0.00, -0.00, -1.00, 150.8, 100.8)">•</text><text xml:space="preserve" font-family="Courier" font-size="24.0" fill="#000000" transform="matrix(1.00, 0.00, -0.00, -1.00, 187.0, 104.0)">v</text><text xml:space="preserve" font-family="Courier" font-size="24.0" fill="#000000" transform="matrix(1.00, 0.00, -0.00, -1.00, 201.4, 104.0)">i</text><text xml:space="preserve" font-family="Courier" font-size="24.0" fill="#000000" transform="matrix(1.00, 0.00, -0.00, -1.00, 215.8, 104.0)">d</text><text xml:space="preserve" font-family="Courier" font-size="24.0" fill="#000000" transform="matrix(1.00, 0.00, -0.00, -1.00, 230.2, 104.0)">e</text><text xml:space="preserve" font-family="Courier" font-size="24.0" fill="#000000" transform="matrix(1.00, 0.00, -0.00, -1.00, 244.6, 104.0)">o</text></g></g></g></svg>