<?xml version="1.0" encoding="UTF-8" standalone="no"?><svg xmlns="http://www.w3.org/2000/svg" xmlns:xlink="http://www.w3.org/1999/xlink" clip-rule="evenodd" stroke-miterlimit="4.00" viewBox="0 0 121 18"><desc>SVG generated by Keynote</desc><defs></defs><g transform="matrix(1.00, 0.00, -0.00, -1.00, 0.0, 18.0)"><text xml:space="preserve" font-family="Monaco" font-size="14.0" fill="#FEFFFE" transform="matrix(1.00, 0.00, -0.00, -1.00, 1.0, 6.0)">A</text><text xml:space="preserve" font-family="Monaco" font-size="14.0" fill="#FEFFFE" transform="matrix(1.00, 0.00, -0.00, -1.00, 9.4, 6.0)">b</text><text xml:space="preserve" font-family="Monaco" font-size="14.0" fill="#FEFFFE" transform="matrix(1.00, 0.00, -0.00, -1.00, 17.8, 6.0)">s</text><text xml:space="preserve" font-family="Monaco" font-size="14.0" fill="#FEFFFE" transform="matrix(1.00, 0.00, -0.00, -1.00, 26.2, 6.0)">t</text><text xml:space="preserve" font-family="Monaco" font-size="14.0" fill="#FEFFFE" transform="matrix(1.00, 0.00, -0.00, -1.00, 34.6, 6.0)">r</text><text xml:space="preserve" font-family="Monaco" font-size="14.0" fill="#FEFFFE" transform="matrix(1.00, 0.00, -0.00, -1.00, 43.0, 6.0)">a</text><text xml:space="preserve" font-family="Monaco" font-size="14.0" fill="#FEFFFE" transform="matrix(1.00, 0.00, -0.00, -1.00, 51.4, 6.0)">c</text><text xml:space="preserve" font-family="Monaco" font-size="14.0" fill="#FEFFFE" transform="matrix(1.00, 0.00, -0.00, -1.00, 59.8, 6.0)">t</text><text xml:space="preserve" font-family="Monaco" font-size="14.0" fill="#FEFFFE" transform="matrix(1.00, 0.00, -0.00, -1.00, 68.2, 6.0)">S</text><text xml:space="preserve" font-family="Monaco" font-size="14.0" fill="#FEFFFE" transform="matrix(1.00, 0.00, -0.00, -1.00, 76.6, 6.0)">y</text><text xml:space="preserve" font-family="Monaco" font-size="14.0" fill="#FEFFFE" transform="matrix(1.00, 0.00, -0.00, -1.00, 85.0, 6.0)">s</text><text xml:space="preserve" font-family="Monaco" font-size="14.0" fill="#FEFFFE" transform="matrix(1.00, 0.00, -0.00, -1.00, 93.4, 6.0)">t</text><text xml:space="preserve" font-family="Monaco" font-size="14.0" fill="#FEFFFE" transform="matrix(1.00, 0.00, -0.00, -1.00, 101.8, 6.0)">e</text><text xml:space="preserve" font-family="Monaco" font-size="14.0" fill="#FEFFFE" transform="matrix(1.00, 0.00, -0.00, -1.00, 110.2, 6.0)">m</text></g></svg>