<?xml version="1.0" encoding="UTF-8" standalone="no"?><svg xmlns="http://www.w3.org/2000/svg" xmlns:xlink="http://www.w3.org/1999/xlink" clip-rule="evenodd" stroke-miterlimit="4.00" viewBox="0 0 162 18"><desc>SVG generated by Keynote</desc><defs></defs><g transform="matrix(1.00, 0.00, -0.00, -1.00, 0.0, 18.0)"><text xml:space="preserve" font-family="Monaco" font-size="14.0" fill="#F5D327" transform="matrix(1.00, 0.00, -0.00, -1.00, 0.6, 6.0)">G</text><text xml:space="preserve" font-family="Monaco" font-size="14.0" fill="#F5D327" transform="matrix(1.00, 0.00, -0.00, -1.00, 9.0, 6.0)">u</text><text xml:space="preserve" font-family="Monaco" font-size="14.0" fill="#F5D327" transform="matrix(1.00, 0.00, -0.00, -1.00, 17.4, 6.0)">i</text><text xml:space="preserve" font-family="Monaco" font-size="14.0" fill="#F5D327" transform="matrix(1.00, 0.00, -0.00, -1.00, 25.8, 6.0)">d</text><text xml:space="preserve" font-family="Monaco" font-size="14.0" fill="#F5D327" transform="matrix(1.00, 0.00, -0.00, -1.00, 34.2, 6.0)">o</text><text xml:space="preserve" font-family="Monaco" font-size="14.0" fill="#F5D327" transform="matrix(1.00, 0.00, -0.00, -1.00, 42.6, 6.0)">L</text><text xml:space="preserve" font-family="Monaco" font-size="14.0" fill="#F5D327" transform="matrix(1.00, 0.00, -0.00, -1.00, 51.0, 6.0)">a</text><text xml:space="preserve" font-family="Monaco" font-size="14.0" fill="#F5D327" transform="matrix(1.00, 0.00, -0.00, -1.00, 59.4, 6.0)">y</text><text xml:space="preserve" font-family="Monaco" font-size="14.0" fill="#F5D327" transform="matrix(1.00, 0.00, -0.00, -1.00, 67.8, 6.0)">o</text><text xml:space="preserve" font-family="Monaco" font-size="14.0" fill="#F5D327" transform="matrix(1.00, 0.00, -0.00, -1.00, 76.2, 6.0)">u</text><text xml:space="preserve" font-family="Monaco" font-size="14.0" fill="#F5D327" transform="matrix(1.00, 0.00, -0.00, -1.00, 84.6, 6.0)">t</text><text xml:space="preserve" font-family="Monaco" font-size="14.0" fill="#F5D327" transform="matrix(1.00, 0.00, -0.00, -1.00, 93.0, 6.0)">S</text><text xml:space="preserve" font-family="Monaco" font-size="14.0" fill="#F5D327" transform="matrix(1.00, 0.00, -0.00, -1.00, 101.4, 6.0)">e</text><text xml:space="preserve" font-family="Monaco" font-size="14.0" fill="#F5D327" transform="matrix(1.00, 0.00, -0.00, -1.00, 109.8, 6.0)">t</text><text xml:space="preserve" font-family="Monaco" font-size="14.0" fill="#F5D327" transform="matrix(1.00, 0.00, -0.00, -1.00, 118.2, 6.0)">t</text><text xml:space="preserve" font-family="Monaco" font-size="14.0" fill="#F5D327" transform="matrix(1.00, 0.00, -0.00, -1.00, 126.6, 6.0)">i</text><text xml:space="preserve" font-family="Monaco" font-size="14.0" fill="#F5D327" transform="matrix(1.00, 0.00, -0.00, -1.00, 135.0, 6.0)">n</text><text xml:space="preserve" font-family="Monaco" font-size="14.0" fill="#F5D327" transform="matrix(1.00, 0.00, -0.00, -1.00, 143.5, 6.0)">g</text><text xml:space="preserve" font-family="Monaco" font-size="14.0" fill="#F5D327" transform="matrix(1.00, 0.00, -0.00, -1.00, 151.9, 6.0)">s</text></g></svg>