<?xml version="1.0" encoding="UTF-8" standalone="no"?><svg xmlns="http://www.w3.org/2000/svg" xmlns:xlink="http://www.w3.org/1999/xlink" clip-rule="evenodd" stroke-miterlimit="4.00" viewBox="0 0 87 15"><desc>SVG generated by Keynote</desc><defs></defs><g transform="matrix(1.00, 0.00, -0.00, -1.00, 0.0, 15.0)"><text xml:space="preserve" font-family="Monaco" font-size="14.0" fill="#F5D327" transform="matrix(1.00, 0.00, -0.00, -1.00, 0.2, 3.0)">G</text><text xml:space="preserve" font-family="Monaco" font-size="14.0" fill="#F5D327" transform="matrix(1.00, 0.00, -0.00, -1.00, 8.6, 3.0)">u</text><text xml:space="preserve" font-family="Monaco" font-size="14.0" fill="#F5D327" transform="matrix(1.00, 0.00, -0.00, -1.00, 17.0, 3.0)">i</text><text xml:space="preserve" font-family="Monaco" font-size="14.0" fill="#F5D327" transform="matrix(1.00, 0.00, -0.00, -1.00, 25.4, 3.0)">d</text><text xml:space="preserve" font-family="Monaco" font-size="14.0" fill="#F5D327" transform="matrix(1.00, 0.00, -0.00, -1.00, 33.8, 3.0)">o</text><text xml:space="preserve" font-family="Monaco" font-size="14.0" fill="#F5D327" transform="matrix(1.00, 0.00, -0.00, -1.00, 42.2, 3.0)">A</text><text xml:space="preserve" font-family="Monaco" font-size="14.0" fill="#F5D327" transform="matrix(1.00, 0.00, -0.00, -1.00, 50.6, 3.0)">R</text><text xml:space="preserve" font-family="Monaco" font-size="14.0" fill="#F5D327" transform="matrix(1.00, 0.00, -0.00, -1.00, 59.1, 3.0)">2</text><text xml:space="preserve" font-family="Monaco" font-size="14.0" fill="#F5D327" transform="matrix(1.00, 0.00, -0.00, -1.00, 67.5, 3.0)">G</text><text xml:space="preserve" font-family="Monaco" font-size="14.0" fill="#F5D327" transform="matrix(1.00, 0.00, -0.00, -1.00, 75.9, 3.0)">R</text></g></svg>