<?xml version="1.0" encoding="UTF-8" standalone="no"?><svg xmlns="http://www.w3.org/2000/svg" xmlns:xlink="http://www.w3.org/1999/xlink" clip-rule="evenodd" stroke-miterlimit="4.00" viewBox="0 0 78 15"><desc>SVG generated by Keynote</desc><defs></defs><g transform="matrix(1.00, 0.00, -0.00, -1.00, 0.0, 15.0)"><text xml:space="preserve" font-family="Monaco" font-size="14.0" fill="#F5D327" transform="matrix(1.00, 0.00, -0.00, -1.00, 0.6, 3.0)">G</text><text xml:space="preserve" font-family="Monaco" font-size="14.0" fill="#F5D327" transform="matrix(1.00, 0.00, -0.00, -1.00, 9.0, 3.0)">R</text><text xml:space="preserve" font-family="Monaco" font-size="14.0" fill="#F5D327" transform="matrix(1.00, 0.00, -0.00, -1.00, 17.4, 3.0)">H</text><text xml:space="preserve" font-family="Monaco" font-size="14.0" fill="#F5D327" transform="matrix(1.00, 0.00, -0.00, -1.00, 25.8, 3.0)">a</text><text xml:space="preserve" font-family="Monaco" font-size="14.0" fill="#F5D327" transform="matrix(1.00, 0.00, -0.00, -1.00, 34.2, 3.0)">n</text><text xml:space="preserve" font-family="Monaco" font-size="14.0" fill="#F5D327" transform="matrix(1.00, 0.00, -0.00, -1.00, 42.6, 3.0)">d</text><text xml:space="preserve" font-family="Monaco" font-size="14.0" fill="#F5D327" transform="matrix(1.00, 0.00, -0.00, -1.00, 51.0, 3.0)">l</text><text xml:space="preserve" font-family="Monaco" font-size="14.0" fill="#F5D327" transform="matrix(1.00, 0.00, -0.00, -1.00, 59.4, 3.0)">e</text><text xml:space="preserve" font-family="Monaco" font-size="14.0" fill="#F5D327" transform="matrix(1.00, 0.00, -0.00, -1.00, 67.8, 3.0)">r</text></g></svg>