<?xml version="1.0" encoding="UTF-8" standalone="no"?><svg xmlns="http://www.w3.org/2000/svg" xmlns:xlink="http://www.w3.org/1999/xlink" clip-rule="evenodd" stroke-miterlimit="4.00" viewBox="0 0 1024 768"><desc>SVG generated by Keynote</desc><defs></defs><g transform="matrix(1.00, 0.00, -0.00, -1.00, 0.0, 768.0)"><path d="M 0.0 768.0 L 1024.0 768.0 L 1024.0 0.0 L 0.0 0.0 Z M 0.0 768.0 " fill="#000000"></path><text xml:space="preserve" font-family="Avenir-Book" font-size="20.0" fill="#D5D5D5" transform="matrix(1.00, 0.00, -0.00, -1.00, 366.0, 28.0)">G</text><text xml:space="preserve" font-family="Avenir-Book" font-size="20.0" fill="#D5D5D5" transform="matrix(1.00, 0.00, -0.00, -1.00, 381.6, 28.0)">u</text><text xml:space="preserve" font-family="Avenir-Book" font-size="20.0" fill="#D5D5D5" transform="matrix(1.00, 0.00, -0.00, -1.00, 392.7, 28.0)">i</text><text xml:space="preserve" font-family="Avenir-Book" font-size="20.0" fill="#D5D5D5" transform="matrix(1.00, 0.00, -0.00, -1.00, 397.5, 28.0)">d</text><text xml:space="preserve" font-family="Avenir-Book" font-size="20.0" fill="#D5D5D5" transform="matrix(1.00, 0.00, -0.00, -1.00, 409.7, 28.0)">o</text><text xml:space="preserve" font-family="Avenir-Book" font-size="20.0" fill="#D5D5D5" transform="matrix(1.00, 0.00, -0.00, -1.00, 421.6, 28.0)"> </text><text xml:space="preserve" font-family="Avenir-Book" font-size="20.0" fill="#D5D5D5" transform="matrix(1.00, 0.00, -0.00, -1.00, 427.1, 28.0)">M</text><text xml:space="preserve" font-family="Avenir-Book" font-size="20.0" fill="#D5D5D5" transform="matrix(1.00, 0.00, -0.00, -1.00, 444.9, 28.0)">u</text><text xml:space="preserve" font-family="Avenir-Book" font-size="20.0" fill="#D5D5D5" transform="matrix(1.00, 0.00, -0.00, -1.00, 456.0, 28.0)">s</text><text xml:space="preserve" font-family="Avenir-Book" font-size="20.0" fill="#D5D5D5" transform="matrix(1.00, 0.00, -0.00, -1.00, 464.6, 28.0)">i</text><text xml:space="preserve" font-family="Avenir-Book" font-size="20.0" fill="#D5D5D5" transform="matrix(1.00, 0.00, -0.00, -1.00, 469.4, 28.0)">c</text><text xml:space="preserve" font-family="Avenir-Book" font-size="20.0" fill="#D5D5D5" transform="matrix(1.00, 0.00, -0.00, -1.00, 479.0, 28.0)"> </text><text xml:space="preserve" font-family="Avenir-Book" font-size="20.0" fill="#D5D5D5" transform="matrix(1.00, 0.00, -0.00, -1.00, 484.6, 28.0)">N</text><text xml:space="preserve" font-family="Avenir-Book" font-size="20.0" fill="#D5D5D5" transform="matrix(1.00, 0.00, -0.00, -1.00, 500.1, 28.0)">o</text><text xml:space="preserve" font-family="Avenir-Book" font-size="20.0" fill="#D5D5D5" transform="matrix(1.00, 0.00, -0.00, -1.00, 512.0, 28.0)">t</text><text xml:space="preserve" font-family="Avenir-Book" font-size="20.0" fill="#D5D5D5" transform="matrix(1.00, 0.00, -0.00, -1.00, 518.6, 28.0)">a</text><text xml:space="preserve" font-family="Avenir-Book" font-size="20.0" fill="#D5D5D5" transform="matrix(1.00, 0.00, -0.00, -1.00, 529.0, 28.0)">t</text><text xml:space="preserve" font-family="Avenir-Book" font-size="20.0" fill="#D5D5D5" transform="matrix(1.00, 0.00, -0.00, -1.00, 535.6, 28.0)">i</text><text xml:space="preserve" font-family="Avenir-Book" font-size="20.0" fill="#D5D5D5" transform="matrix(1.00, 0.00, -0.00, -1.00, 540.4, 28.0)">o</text><text xml:space="preserve" font-family="Avenir-Book" font-size="20.0" fill="#D5D5D5" transform="matrix(1.00, 0.00, -0.00, -1.00, 552.3, 28.0)">n</text><text xml:space="preserve" font-family="Avenir-Book" font-size="20.0" fill="#D5D5D5" transform="matrix(1.00, 0.00, -0.00, -1.00, 563.4, 28.0)"> </text><text xml:space="preserve" font-family="Avenir-Book" font-size="20.0" fill="#D5D5D5" transform="matrix(1.00, 0.00, -0.00, -1.00, 569.0, 28.0)">L</text><text xml:space="preserve" font-family="Avenir-Book" font-size="20.0" fill="#D5D5D5" transform="matrix(1.00, 0.00, -0.00, -1.00, 579.0, 28.0)">a</text><text xml:space="preserve" font-family="Avenir-Book" font-size="20.0" fill="#D5D5D5" transform="matrix(1.00, 0.00, -0.00, -1.00, 589.4, 28.0)">n</text><text xml:space="preserve" font-family="Avenir-Book" font-size="20.0" fill="#D5D5D5" transform="matrix(1.00, 0.00, -0.00, -1.00, 600.5, 28.0)">g</text><text xml:space="preserve" font-family="Avenir-Book" font-size="20.0" fill="#D5D5D5" transform="matrix(1.00, 0.00, -0.00, -1.00, 612.7, 28.0)">u</text><text xml:space="preserve" font-family="Avenir-Book" font-size="20.0" fill="#D5D5D5" transform="matrix(1.00, 0.00, -0.00, -1.00, 623.8, 28.0)">a</text><text xml:space="preserve" font-family="Avenir-Book" font-size="20.0" fill="#D5D5D5" transform="matrix(1.00, 0.00, -0.00, -1.00, 634.2, 28.0)">g</text><text xml:space="preserve" font-family="Avenir-Book" font-size="20.0" fill="#D5D5D5" transform="matrix(1.00, 0.00, -0.00, -1.00, 646.4, 28.0)">e</text><text xml:space="preserve" font-family="AvenirNext-DemiBold" font-weight="bold" font-size="50.0" fill="#FEFFFF" transform="matrix(1.00, 0.00, -0.00, -1.00, 73.0, 676.0)">C</text><text xml:space="preserve" font-family="AvenirNext-DemiBold" font-weight="bold" font-size="50.0" fill="#FEFFFF" transform="matrix(1.00, 0.00, -0.00, -1.00, 107.2, 676.0)">o</text><text xml:space="preserve" font-family="AvenirNext-DemiBold" font-weight="bold" font-size="50.0" fill="#FEFFFF" transform="matrix(1.00, 0.00, -0.00, -1.00, 137.7, 676.0)">m</text><text xml:space="preserve" font-family="AvenirNext-DemiBold" font-weight="bold" font-size="50.0" fill="#FEFFFF" transform="matrix(1.00, 0.00, -0.00, -1.00, 182.2, 676.0)">m</text><text xml:space="preserve" font-family="AvenirNext-DemiBold" font-weight="bold" font-size="50.0" fill="#FEFFFF" transform="matrix(1.00, 0.00, -0.00, -1.00, 226.7, 676.0)">e</text><text xml:space="preserve" font-family="AvenirNext-DemiBold" font-weight="bold" font-size="50.0" fill="#FEFFFF" transform="matrix(1.00, 0.00, -0.00, -1.00, 255.4, 676.0)">n</text><text xml:space="preserve" font-family="AvenirNext-DemiBold" font-weight="bold" font-size="50.0" fill="#FEFFFF" transform="matrix(1.00, 0.00, -0.00, -1.00, 284.5, 676.0)">t</text><text xml:space="preserve" font-family="AvenirNext-DemiBold" font-weight="bold" font-size="50.0" fill="#FEFFFF" transform="matrix(1.00, 0.00, -0.00, -1.00, 301.5, 676.0)">s</text><text xml:space="preserve" font-family="Avenir-Book" font-size="18.0" fill="#D5D5D5" transform="matrix(1.00, 0.00, -0.00, -1.00, 30.0, 28.0)">2</text><text xml:space="preserve" font-family="Avenir-Book" font-size="18.0" fill="#D5D5D5" transform="matrix(1.00, 0.00, -0.00, -1.00, 40.0, 28.0)">1</text><image xlink:href="../../B04F1C97-ECAB-4D96-BED1-068678BAA01E/assets/BEF333F0D2746660C5E29CAA3BCC24B1.png" width="236.00" height="101.00" transform="matrix(1.00, 0.00, -0.00, -1.00, -285.0, 1087.0)"></image><text xml:space="preserve" font-family="Courier" font-size="32.0" fill="#F5D327" transform="matrix(1.00, 0.00, -0.00, -1.00, 130.0, 514.0)">%</text><text xml:space="preserve" font-family="Courier" font-size="32.0" fill="#F5D327" transform="matrix(1.00, 0.00, -0.00, -1.00, 149.2, 514.0)"> </text><text xml:space="preserve" font-family="Courier" font-size="32.0" fill="#DCDDE0" transform="matrix(1.00, 0.00, -0.00, -1.00, 168.4, 514.0)">t</text><text xml:space="preserve" font-family="Courier" font-size="32.0" fill="#DCDDE0" transform="matrix(1.00, 0.00, -0.00, -1.00, 187.6, 514.0)">e</text><text xml:space="preserve" font-family="Courier" font-size="32.0" fill="#DCDDE0" transform="matrix(1.00, 0.00, -0.00, -1.00, 206.8, 514.0)">x</text><text xml:space="preserve" font-family="Courier" font-size="32.0" fill="#DCDDE0" transform="matrix(1.00, 0.00, -0.00, -1.00, 226.0, 514.0)">t</text><text xml:space="preserve" font-family="Courier" font-size="32.0" fill="#DCDDE0" transform="matrix(1.00, 0.00, -0.00, -1.00, 245.2, 514.0)"> </text><text xml:space="preserve" font-family="Courier" font-size="32.0" fill="#DCDDE0" transform="matrix(1.00, 0.00, -0.00, -1.00, 264.4, 514.0)">i</text><text xml:space="preserve" font-family="Courier" font-size="32.0" fill="#DCDDE0" transform="matrix(1.00, 0.00, -0.00, -1.00, 283.6, 514.0)">g</text><text xml:space="preserve" font-family="Courier" font-size="32.0" fill="#DCDDE0" transform="matrix(1.00, 0.00, -0.00, -1.00, 302.9, 514.0)">n</text><text xml:space="preserve" font-family="Courier" font-size="32.0" fill="#DCDDE0" transform="matrix(1.00, 0.00, -0.00, -1.00, 322.1, 514.0)">o</text><text xml:space="preserve" font-family="Courier" font-size="32.0" fill="#DCDDE0" transform="matrix(1.00, 0.00, -0.00, -1.00, 341.3, 514.0)">r</text><text xml:space="preserve" font-family="Courier" font-size="32.0" fill="#DCDDE0" transform="matrix(1.00, 0.00, -0.00, -1.00, 360.5, 514.0)">e</text><text xml:space="preserve" font-family="Courier" font-size="32.0" fill="#DCDDE0" transform="matrix(1.00, 0.00, -0.00, -1.00, 379.7, 514.0)">d</text><text xml:space="preserve" font-family="Courier" font-size="32.0" fill="#DCDDE0" transform="matrix(1.00, 0.00, -0.00, -1.00, 398.9, 514.0)"> </text><text xml:space="preserve" font-family="Courier" font-size="32.0" fill="#DCDDE0" transform="matrix(1.00, 0.00, -0.00, -1.00, 418.1, 514.0)">u</text><text xml:space="preserve" font-family="Courier" font-size="32.0" fill="#DCDDE0" transform="matrix(1.00, 0.00, -0.00, -1.00, 437.3, 514.0)">p</text><text xml:space="preserve" font-family="Courier" font-size="32.0" fill="#DCDDE0" transform="matrix(1.00, 0.00, -0.00, -1.00, 456.5, 514.0)"> </text><text xml:space="preserve" font-family="Courier" font-size="32.0" fill="#DCDDE0" transform="matrix(1.00, 0.00, -0.00, -1.00, 475.7, 514.0)">t</text><text xml:space="preserve" font-family="Courier" font-size="32.0" fill="#DCDDE0" transform="matrix(1.00, 0.00, -0.00, -1.00, 494.9, 514.0)">o</text><text xml:space="preserve" font-family="Courier" font-size="32.0" fill="#DCDDE0" transform="matrix(1.00, 0.00, -0.00, -1.00, 514.1, 514.0)"> </text><text xml:space="preserve" font-family="Courier" font-size="32.0" fill="#DCDDE0" transform="matrix(1.00, 0.00, -0.00, -1.00, 533.3, 514.0)">t</text><text xml:space="preserve" font-family="Courier" font-size="32.0" fill="#DCDDE0" transform="matrix(1.00, 0.00, -0.00, -1.00, 552.5, 514.0)">h</text><text xml:space="preserve" font-family="Courier" font-size="32.0" fill="#DCDDE0" transform="matrix(1.00, 0.00, -0.00, -1.00, 571.7, 514.0)">e</text><text xml:space="preserve" font-family="Courier" font-size="32.0" fill="#DCDDE0" transform="matrix(1.00, 0.00, -0.00, -1.00, 590.9, 514.0)"> </text><text xml:space="preserve" font-family="Courier" font-size="32.0" fill="#DCDDE0" transform="matrix(1.00, 0.00, -0.00, -1.00, 610.2, 514.0)">e</text><text xml:space="preserve" font-family="Courier" font-size="32.0" fill="#DCDDE0" transform="matrix(1.00, 0.00, -0.00, -1.00, 629.4, 514.0)">n</text><text xml:space="preserve" font-family="Courier" font-size="32.0" fill="#DCDDE0" transform="matrix(1.00, 0.00, -0.00, -1.00, 648.6, 514.0)">d</text><text xml:space="preserve" font-family="Courier" font-size="32.0" fill="#DCDDE0" transform="matrix(1.00, 0.00, -0.00, -1.00, 667.8, 514.0)"> </text><text xml:space="preserve" font-family="Courier" font-size="32.0" fill="#DCDDE0" transform="matrix(1.00, 0.00, -0.00, -1.00, 687.0, 514.0)">o</text><text xml:space="preserve" font-family="Courier" font-size="32.0" fill="#DCDDE0" transform="matrix(1.00, 0.00, -0.00, -1.00, 706.2, 514.0)">f</text><text xml:space="preserve" font-family="Courier" font-size="32.0" fill="#DCDDE0" transform="matrix(1.00, 0.00, -0.00, -1.00, 725.4, 514.0)"> </text><text xml:space="preserve" font-family="Courier" font-size="32.0" fill="#DCDDE0" transform="matrix(1.00, 0.00, -0.00, -1.00, 744.6, 514.0)">t</text><text xml:space="preserve" font-family="Courier" font-size="32.0" fill="#DCDDE0" transform="matrix(1.00, 0.00, -0.00, -1.00, 763.8, 514.0)">h</text><text xml:space="preserve" font-family="Courier" font-size="32.0" fill="#DCDDE0" transform="matrix(1.00, 0.00, -0.00, -1.00, 783.0, 514.0)">e</text><text xml:space="preserve" font-family="Courier" font-size="32.0" fill="#DCDDE0" transform="matrix(1.00, 0.00, -0.00, -1.00, 802.2, 514.0)"> </text><text xml:space="preserve" font-family="Courier" font-size="32.0" fill="#DCDDE0" transform="matrix(1.00, 0.00, -0.00, -1.00, 821.4, 514.0)">l</text><text xml:space="preserve" font-family="Courier" font-size="32.0" fill="#DCDDE0" transform="matrix(1.00, 0.00, -0.00, -1.00, 840.6, 514.0)">i</text><text xml:space="preserve" font-family="Courier" font-size="32.0" fill="#DCDDE0" transform="matrix(1.00, 0.00, -0.00, -1.00, 859.8, 514.0)">n</text><text xml:space="preserve" font-family="Courier" font-size="32.0" fill="#DCDDE0" transform="matrix(1.00, 0.00, -0.00, -1.00, 879.0, 514.0)">e</text><text xml:space="preserve" font-family="AvenirNext-DemiBold" font-weight="bold" font-size="38.0" fill="#FEFFFF" transform="matrix(1.00, 0.00, -0.00, -1.00, 70.0, 557.0)">L</text><text xml:space="preserve" font-family="AvenirNext-DemiBold" font-weight="bold" font-size="38.0" fill="#FEFFFF" transform="matrix(1.00, 0.00, -0.00, -1.00, 89.4, 557.0)">i</text><text xml:space="preserve" font-family="AvenirNext-DemiBold" font-weight="bold" font-size="38.0" fill="#FEFFFF" transform="matrix(1.00, 0.00, -0.00, -1.00, 99.6, 557.0)">n</text><text xml:space="preserve" font-family="AvenirNext-DemiBold" font-weight="bold" font-size="38.0" fill="#FEFFFF" transform="matrix(1.00, 0.00, -0.00, -1.00, 121.7, 557.0)">e</text><text xml:space="preserve" font-family="AvenirNext-DemiBold" font-weight="bold" font-size="38.0" fill="#FEFFFF" transform="matrix(1.00, 0.00, -0.00, -1.00, 143.5, 557.0)"> </text><text xml:space="preserve" font-family="AvenirNext-DemiBold" font-weight="bold" font-size="38.0" fill="#FEFFFF" transform="matrix(1.00, 0.00, -0.00, -1.00, 153.0, 557.0)">c</text><text xml:space="preserve" font-family="AvenirNext-DemiBold" font-weight="bold" font-size="38.0" fill="#FEFFFF" transform="matrix(1.00, 0.00, -0.00, -1.00, 171.6, 557.0)">o</text><text xml:space="preserve" font-family="AvenirNext-DemiBold" font-weight="bold" font-size="38.0" fill="#FEFFFF" transform="matrix(1.00, 0.00, -0.00, -1.00, 194.8, 557.0)">m</text><text xml:space="preserve" font-family="AvenirNext-DemiBold" font-weight="bold" font-size="38.0" fill="#FEFFFF" transform="matrix(1.00, 0.00, -0.00, -1.00, 228.6, 557.0)">m</text><text xml:space="preserve" font-family="AvenirNext-DemiBold" font-weight="bold" font-size="38.0" fill="#FEFFFF" transform="matrix(1.00, 0.00, -0.00, -1.00, 262.4, 557.0)">e</text><text xml:space="preserve" font-family="AvenirNext-DemiBold" font-weight="bold" font-size="38.0" fill="#FEFFFF" transform="matrix(1.00, 0.00, -0.00, -1.00, 284.2, 557.0)">n</text><text xml:space="preserve" font-family="AvenirNext-DemiBold" font-weight="bold" font-size="38.0" fill="#FEFFFF" transform="matrix(1.00, 0.00, -0.00, -1.00, 306.3, 557.0)">t</text><text xml:space="preserve" font-family="AvenirNext-DemiBold" font-weight="bold" font-size="38.0" fill="#FEFFFF" transform="matrix(1.00, 0.00, -0.00, -1.00, 319.2, 557.0)">s</text></g></svg>