<?xml version="1.0" encoding="UTF-8" standalone="no"?><svg xmlns="http://www.w3.org/2000/svg" xmlns:xlink="http://www.w3.org/1999/xlink" clip-rule="evenodd" stroke-miterlimit="4.00" viewBox="0 0 87 18"><desc>SVG generated by Keynote</desc><defs></defs><g transform="matrix(1.00, 0.00, -0.00, -1.00, 0.0, 18.0)"><text xml:space="preserve" font-family="Helvetica-Light" font-size="18.0" fill="#FEFC78" transform="matrix(1.00, 0.00, -0.00, -1.00, 1.0, 2.0)">P</text><text xml:space="preserve" font-family="Helvetica-Light" font-size="18.0" fill="#FEFC78" transform="matrix(1.00, 0.00, -0.00, -1.00, 12.0, 2.0)">a</text><text xml:space="preserve" font-family="Helvetica-Light" font-size="18.0" fill="#FEFC78" transform="matrix(1.00, 0.00, -0.00, -1.00, 22.0, 2.0)">t</text><text xml:space="preserve" font-family="Helvetica-Light" font-size="18.0" fill="#FEFC78" transform="matrix(1.00, 0.00, -0.00, -1.00, 27.0, 2.0)">c</text><text xml:space="preserve" font-family="Helvetica-Light" font-size="18.0" fill="#FEFC78" transform="matrix(1.00, 0.00, -0.00, -1.00, 37.0, 2.0)">h</text><text xml:space="preserve" font-family="Helvetica-Light" font-size="18.0" fill="#FEFC78" transform="matrix(1.00, 0.00, -0.00, -1.00, 47.0, 2.0)">w</text><text xml:space="preserve" font-family="Helvetica-Light" font-size="18.0" fill="#FEFC78" transform="matrix(1.00, 0.00, -0.00, -1.00, 60.0, 2.0)">o</text><text xml:space="preserve" font-family="Helvetica-Light" font-size="18.0" fill="#FEFC78" transform="matrix(1.00, 0.00, -0.00, -1.00, 70.0, 2.0)">r</text><text xml:space="preserve" font-family="Helvetica-Light" font-size="18.0" fill="#FEFC78" transform="matrix(1.00, 0.00, -0.00, -1.00, 76.0, 2.0)">k</text></g></svg>