<?xml version="1.0" encoding="UTF-8" standalone="no"?><svg xmlns="http://www.w3.org/2000/svg" xmlns:xlink="http://www.w3.org/1999/xlink" clip-rule="evenodd" stroke-miterlimit="4.00" viewBox="0 0 80 21"><desc>SVG generated by Keynote</desc><defs></defs><g transform="matrix(1.00, 0.00, -0.00, -1.00, 0.0, 21.0)"><text xml:space="preserve" font-family="Helvetica-Light" font-size="18.0" fill="#FEFC78" transform="matrix(1.00, 0.00, -0.00, -1.00, 1.0, 6.0)">E</text><text xml:space="preserve" font-family="Helvetica-Light" font-size="18.0" fill="#FEFC78" transform="matrix(1.00, 0.00, -0.00, -1.00, 12.0, 6.0)">A</text><text xml:space="preserve" font-family="Helvetica-Light" font-size="18.0" fill="#FEFC78" transform="matrix(1.00, 0.00, -0.00, -1.00, 24.0, 6.0)">n</text><text xml:space="preserve" font-family="Helvetica-Light" font-size="18.0" fill="#FEFC78" transform="matrix(1.00, 0.00, -0.00, -1.00, 34.0, 6.0)">a</text><text xml:space="preserve" font-family="Helvetica-Light" font-size="18.0" fill="#FEFC78" transform="matrix(1.00, 0.00, -0.00, -1.00, 44.0, 6.0)">l</text><text xml:space="preserve" font-family="Helvetica-Light" font-size="18.0" fill="#FEFC78" transform="matrix(1.00, 0.00, -0.00, -1.00, 48.0, 6.0)">y</text><text xml:space="preserve" font-family="Helvetica-Light" font-size="18.0" fill="#FEFC78" transform="matrix(1.00, 0.00, -0.00, -1.00, 57.0, 6.0)">s</text><text xml:space="preserve" font-family="Helvetica-Light" font-size="18.0" fill="#FEFC78" transform="matrix(1.00, 0.00, -0.00, -1.00, 66.0, 6.0)">i</text><text xml:space="preserve" font-family="Helvetica-Light" font-size="18.0" fill="#FEFC78" transform="matrix(1.00, 0.00, -0.00, -1.00, 70.0, 6.0)">s</text></g></svg>