<?xml version="1.0" encoding="UTF-8" standalone="no"?><svg xmlns="http://www.w3.org/2000/svg" xmlns:xlink="http://www.w3.org/1999/xlink" clip-rule="evenodd" stroke-miterlimit="4.00" viewBox="0 0 127 21"><desc>SVG generated by Keynote</desc><defs></defs><g transform="matrix(1.00, 0.00, -0.00, -1.00, 0.0, 21.0)"><text xml:space="preserve" font-family="Helvetica-Light" font-size="18.0" fill="#FEFC78" transform="matrix(1.00, 0.00, -0.00, -1.00, 2.0, 6.0)">A</text><text xml:space="preserve" font-family="Helvetica-Light" font-size="18.0" fill="#FEFC78" transform="matrix(1.00, 0.00, -0.00, -1.00, 14.0, 6.0)">c</text><text xml:space="preserve" font-family="Helvetica-Light" font-size="18.0" fill="#FEFC78" transform="matrix(1.00, 0.00, -0.00, -1.00, 24.0, 6.0)">o</text><text xml:space="preserve" font-family="Helvetica-Light" font-size="18.0" fill="#FEFC78" transform="matrix(1.00, 0.00, -0.00, -1.00, 34.0, 6.0)">u</text><text xml:space="preserve" font-family="Helvetica-Light" font-size="18.0" fill="#FEFC78" transform="matrix(1.00, 0.00, -0.00, -1.00, 44.0, 6.0)">s</text><text xml:space="preserve" font-family="Helvetica-Light" font-size="18.0" fill="#FEFC78" transform="matrix(1.00, 0.00, -0.00, -1.00, 53.0, 6.0)">m</text><text xml:space="preserve" font-family="Helvetica-Light" font-size="18.0" fill="#FEFC78" transform="matrix(1.00, 0.00, -0.00, -1.00, 68.0, 6.0)">o</text><text xml:space="preserve" font-family="Helvetica-Light" font-size="18.0" fill="#FEFC78" transform="matrix(1.00, 0.00, -0.00, -1.00, 78.0, 6.0)">g</text><text xml:space="preserve" font-family="Helvetica-Light" font-size="18.0" fill="#FEFC78" transform="matrix(1.00, 0.00, -0.00, -1.00, 89.0, 6.0)">r</text><text xml:space="preserve" font-family="Helvetica-Light" font-size="18.0" fill="#FEFC78" transform="matrix(1.00, 0.00, -0.00, -1.00, 95.0, 6.0)">a</text><text xml:space="preserve" font-family="Helvetica-Light" font-size="18.0" fill="#FEFC78" transform="matrix(1.00, 0.00, -0.00, -1.00, 105.0, 6.0)">p</text><text xml:space="preserve" font-family="Helvetica-Light" font-size="18.0" fill="#FEFC78" transform="matrix(1.00, 0.00, -0.00, -1.00, 116.0, 6.0)">h</text></g></svg>