<?xml version="1.0" encoding="UTF-8" standalone="no"?><svg xmlns="http://www.w3.org/2000/svg" xmlns:xlink="http://www.w3.org/1999/xlink" clip-rule="evenodd" stroke-miterlimit="4.00" viewBox="0 0 393 232"><desc>SVG generated by Keynote</desc><defs><linearGradient id="gradSh1.10" x1="0.0" y1="0.0" x2="100.0" y2="0.0" gradientUnits="userSpaceOnUse" gradientTransform="matrix(0.16, -0.87, -1.58, -0.30, 188.6, 159.7)"><stop offset="0.00000" stop-color="#51A7F9"></stop><stop offset="0.00513" stop-color="#51A6F9"></stop><stop offset="0.22214" stop-color="#3F85D8"></stop><stop offset="0.22434" stop-color="#3F85D7"></stop><stop offset="0.25806" stop-color="#3D7FD2"></stop><stop offset="0.25953" stop-color="#3C7FD2"></stop><stop offset="0.67375" stop-color="#1B3F93"></stop><stop offset="0.68035" stop-color="#1A3E92"></stop><stop offset="0.81525" stop-color="#0F2A7E"></stop><stop offset="0.81598" stop-color="#0F297E"></stop><stop offset="0.91422" stop-color="#071A6F"></stop><stop offset="0.91789" stop-color="#071A6E"></stop><stop offset="0.96334" stop-color="#031368"></stop><stop offset="0.96481" stop-color="#031367"></stop><stop offset="0.98460" stop-color="#020F64"></stop><stop offset="0.98827" stop-color="#010F64"></stop><stop offset="0.99120" stop-color="#010E63"></stop><stop offset="1.00000" stop-color="#010D62"></stop></linearGradient></defs><g transform="matrix(1.00, 0.00, -0.00, -1.00, 0.0, 232.0)"><image xlink:href="../../4AAE6EA7-3F1F-4CAC-8E5B-8863539C57B9/assets/0ABDBFE58846D4E14DFCA112EE026A95.png" width="390.00" height="150.00" transform="matrix(1.00, 0.00, -0.00, -1.00, 1.8, 151.0)" opacity="0.76"></image><g><clipPath id="clip-216"><path d="M 121.8 97.8 L 121.8 134.2 C 121.8 140.7 127.1 146.0 133.6 146.0 L 260.1 146.0 C 266.6 146.0 271.8 140.7 271.8 134.2 L 271.8 97.8 C 271.8 91.3 266.6 86.0 260.1 86.0 L 133.6 86.0 C 127.1 86.0 121.8 91.3 121.8 97.8 Z M 121.8 97.8 "></path></clipPath><g clip-path="url(#clip-216)"><path d="M 121.8 97.8 L 121.8 134.2 C 121.8 140.7 127.1 146.0 133.6 146.0 L 260.1 146.0 C 266.6 146.0 271.8 140.7 271.8 134.2 L 271.8 97.8 C 271.8 91.3 266.6 86.0 260.1 86.0 L 133.6 86.0 C 127.1 86.0 121.8 91.3 121.8 97.8 Z M 121.8 97.8 " fill="url(#gradSh1.10)"></path></g></g><g><clipPath id="clip-217"><path d="M 121.3 86.0 L 272.3 86.0 L 272.3 146.0 L 121.3 146.0 Z M 121.3 86.0 "></path></clipPath><g clip-path="url(#clip-217)"><text xml:space="preserve" font-family="Helvetica" font-size="18.0" fill="#FEFFFE" transform="matrix(1.00, 0.00, -0.00, -1.00, 156.0, 110.0)">E</text><text xml:space="preserve" font-family="Helvetica" font-size="18.0" fill="#FEFFFE" transform="matrix(1.00, 0.00, -0.00, -1.00, 168.0, 110.0)">n</text><text xml:space="preserve" font-family="Helvetica" font-size="18.0" fill="#FEFFFE" transform="matrix(1.00, 0.00, -0.00, -1.00, 178.0, 110.0)">g</text><text xml:space="preserve" font-family="Helvetica" font-size="18.0" fill="#FEFFFE" transform="matrix(1.00, 0.00, -0.00, -1.00, 188.0, 110.0)">r</text><text xml:space="preserve" font-family="Helvetica" font-size="18.0" fill="#FEFFFE" transform="matrix(1.00, 0.00, -0.00, -1.00, 194.0, 110.0)">a</text><text xml:space="preserve" font-family="Helvetica" font-size="18.0" fill="#FEFFFE" transform="matrix(1.00, 0.00, -0.00, -1.00, 204.0, 110.0)">v</text><text xml:space="preserve" font-family="Helvetica" font-size="18.0" fill="#FEFFFE" transform="matrix(1.00, 0.00, -0.00, -1.00, 213.0, 110.0)">i</text><text xml:space="preserve" font-family="Helvetica" font-size="18.0" fill="#FEFFFE" transform="matrix(1.00, 0.00, -0.00, -1.00, 217.0, 110.0)">n</text><text xml:space="preserve" font-family="Helvetica" font-size="18.0" fill="#FEFFFE" transform="matrix(1.00, 0.00, -0.00, -1.00, 227.1, 110.0)">g</text></g></g></g></svg>