<?xml version="1.0" encoding="UTF-8" standalone="no"?><svg xmlns="http://www.w3.org/2000/svg" xmlns:xlink="http://www.w3.org/1999/xlink" clip-rule="evenodd" stroke-miterlimit="4.00" viewBox="0 0 153 63"><desc>SVG generated by Keynote</desc><defs><linearGradient id="gradSh1.13" x1="0.0" y1="0.0" x2="100.0" y2="0.0" gradientUnits="userSpaceOnUse" gradientTransform="matrix(0.16, -0.87, -1.58, -0.30, 68.6, 75.2)"><stop offset="0.00000" stop-color="#51A7F9"></stop><stop offset="0.00513" stop-color="#51A6F9"></stop><stop offset="0.22214" stop-color="#3F85D8"></stop><stop offset="0.22434" stop-color="#3F85D7"></stop><stop offset="0.25806" stop-color="#3D7FD2"></stop><stop offset="0.25953" stop-color="#3C7FD2"></stop><stop offset="0.67375" stop-color="#1B3F93"></stop><stop offset="0.68035" stop-color="#1A3E92"></stop><stop offset="0.81525" stop-color="#0F2A7E"></stop><stop offset="0.81598" stop-color="#0F297E"></stop><stop offset="0.91422" stop-color="#071A6F"></stop><stop offset="0.91789" stop-color="#071A6E"></stop><stop offset="0.96334" stop-color="#031368"></stop><stop offset="0.96481" stop-color="#031367"></stop><stop offset="0.98460" stop-color="#020F64"></stop><stop offset="0.98827" stop-color="#010F64"></stop><stop offset="0.99120" stop-color="#010E63"></stop><stop offset="1.00000" stop-color="#010D62"></stop></linearGradient></defs><g transform="matrix(1.00, 0.00, -0.00, -1.00, 0.0, 63.0)"><g><clipPath id="clip-222"><path d="M 1.8 13.2 L 1.8 49.6 C 1.8 56.1 7.1 61.4 13.6 61.4 L 140.1 61.4 C 146.6 61.4 151.8 56.1 151.8 49.6 L 151.8 13.2 C 151.8 6.7 146.6 1.4 140.1 1.4 L 13.6 1.4 C 7.1 1.4 1.8 6.7 1.8 13.2 Z M 1.8 13.2 "></path></clipPath><g clip-path="url(#clip-222)"><path d="M 1.8 13.2 L 1.8 49.6 C 1.8 56.1 7.1 61.4 13.6 61.4 L 140.1 61.4 C 146.6 61.4 151.8 56.1 151.8 49.6 L 151.8 13.2 C 151.8 6.7 146.6 1.4 140.1 1.4 L 13.6 1.4 C 7.1 1.4 1.8 6.7 1.8 13.2 Z M 1.8 13.2 " fill="url(#gradSh1.13)"></path></g></g><g><clipPath id="clip-223"><path d="M 1.8 1.4 L 151.8 1.4 L 151.8 61.4 L 1.8 61.4 Z M 1.8 1.4 "></path></clipPath><g clip-path="url(#clip-223)"><text xml:space="preserve" font-family="Helvetica" font-size="18.0" fill="#FEFFFE" transform="matrix(1.00, 0.00, -0.00, -1.00, 29.0, 35.0)">A</text><text xml:space="preserve" font-family="Helvetica" font-size="18.0" fill="#FEFFFE" transform="matrix(1.00, 0.00, -0.00, -1.00, 41.0, 35.0)">n</text><text xml:space="preserve" font-family="Helvetica" font-size="18.0" fill="#FEFFFE" transform="matrix(1.00, 0.00, -0.00, -1.00, 51.0, 35.0)">n</text><text xml:space="preserve" font-family="Helvetica" font-size="18.0" fill="#FEFFFE" transform="matrix(1.00, 0.00, -0.00, -1.00, 61.0, 35.0)">o</text><text xml:space="preserve" font-family="Helvetica" font-size="18.0" fill="#FEFFFE" transform="matrix(1.00, 0.00, -0.00, -1.00, 71.0, 35.0)">t</text><text xml:space="preserve" font-family="Helvetica" font-size="18.0" fill="#FEFFFE" transform="matrix(1.00, 0.00, -0.00, -1.00, 76.0, 35.0)">a</text><text xml:space="preserve" font-family="Helvetica" font-size="18.0" fill="#FEFFFE" transform="matrix(1.00, 0.00, -0.00, -1.00, 86.1, 35.0)">t</text><text xml:space="preserve" font-family="Helvetica" font-size="18.0" fill="#FEFFFE" transform="matrix(1.00, 0.00, -0.00, -1.00, 91.1, 35.0)">i</text><text xml:space="preserve" font-family="Helvetica" font-size="18.0" fill="#FEFFFE" transform="matrix(1.00, 0.00, -0.00, -1.00, 95.1, 35.0)">o</text><text xml:space="preserve" font-family="Helvetica" font-size="18.0" fill="#FEFFFE" transform="matrix(1.00, 0.00, -0.00, -1.00, 105.1, 35.0)">n</text><text xml:space="preserve" font-family="Helvetica" font-size="18.0" fill="#FEFFFE" transform="matrix(1.00, 0.00, -0.00, -1.00, 115.1, 35.0)"> </text><text xml:space="preserve" font-family="Helvetica" font-size="18.0" fill="#FEFFFE" transform="matrix(1.00, 0.00, -0.00, -1.00, 120.1, 35.0)">/</text><text xml:space="preserve" font-family="Helvetica" font-size="18.0" fill="#FEFFFE" transform="matrix(1.00, 0.00, -0.00, -1.00, 125.1, 35.0)"> </text><text xml:space="preserve" font-family="Helvetica" font-size="18.0" fill="#FEFFFE" transform="matrix(1.00, 0.00, -0.00, -1.00, 43.0, 13.0)">A</text><text xml:space="preserve" font-family="Helvetica" font-size="18.0" fill="#FEFFFE" transform="matrix(1.00, 0.00, -0.00, -1.00, 55.0, 13.0)">n</text><text xml:space="preserve" font-family="Helvetica" font-size="18.0" fill="#FEFFFE" transform="matrix(1.00, 0.00, -0.00, -1.00, 65.0, 13.0)">a</text><text xml:space="preserve" font-family="Helvetica" font-size="18.0" fill="#FEFFFE" transform="matrix(1.00, 0.00, -0.00, -1.00, 75.0, 13.0)">l</text><text xml:space="preserve" font-family="Helvetica" font-size="18.0" fill="#FEFFFE" transform="matrix(1.00, 0.00, -0.00, -1.00, 79.0, 13.0)">y</text><text xml:space="preserve" font-family="Helvetica" font-size="18.0" fill="#FEFFFE" transform="matrix(1.00, 0.00, -0.00, -1.00, 88.0, 13.0)">s</text><text xml:space="preserve" font-family="Helvetica" font-size="18.0" fill="#FEFFFE" transform="matrix(1.00, 0.00, -0.00, -1.00, 97.0, 13.0)">i</text><text xml:space="preserve" font-family="Helvetica" font-size="18.0" fill="#FEFFFE" transform="matrix(1.00, 0.00, -0.00, -1.00, 101.0, 13.0)">s</text></g></g></g></svg>