<?xml version="1.0" encoding="UTF-8" standalone="no"?><svg xmlns="http://www.w3.org/2000/svg" xmlns:xlink="http://www.w3.org/1999/xlink" clip-rule="evenodd" stroke-miterlimit="4.00" viewBox="0 0 258 25"><desc>SVG generated by Keynote</desc><defs></defs><g transform="matrix(1.00, 0.00, -0.00, -1.00, 0.0, 25.0)"><g><clipPath id="clip-194"><path d="M 0.0 1.2 L 258.0 1.2 L 258.0 25.0 L 0.0 25.0 Z M 0.0 1.2 "></path></clipPath><g clip-path="url(#clip-194)"><text xml:space="preserve" font-family="AvenirNext-Regular" font-size="21.2" fill="#FEFFFF" transform="matrix(1.00, 0.00, -0.00, -1.00, 1.0, 7.0)">H</text><text xml:space="preserve" font-family="AvenirNext-Regular" font-size="21.2" fill="#FEFFFF" transform="matrix(1.00, 0.00, -0.00, -1.00, 16.2, 7.0)">o</text><text xml:space="preserve" font-family="AvenirNext-Regular" font-size="21.2" fill="#FEFFFF" transform="matrix(1.00, 0.00, -0.00, -1.00, 29.2, 7.0)">l</text><text xml:space="preserve" font-family="AvenirNext-Regular" font-size="21.2" fill="#FEFFFF" transform="matrix(1.00, 0.00, -0.00, -1.00, 34.5, 7.0)">o</text><text xml:space="preserve" font-family="AvenirNext-Regular" font-size="21.2" fill="#FEFFFF" transform="matrix(1.00, 0.00, -0.00, -1.00, 47.5, 7.0)">p</text><text xml:space="preserve" font-family="AvenirNext-Regular" font-size="21.2" fill="#FEFFFF" transform="matrix(1.00, 0.00, -0.00, -1.00, 60.9, 7.0)">h</text><text xml:space="preserve" font-family="AvenirNext-Regular" font-size="21.2" fill="#FEFFFF" transform="matrix(1.00, 0.00, -0.00, -1.00, 73.3, 7.0)">o</text><text xml:space="preserve" font-family="AvenirNext-Regular" font-size="21.2" fill="#FEFFFF" transform="matrix(1.00, 0.00, -0.00, -1.00, 86.2, 7.0)">n</text><text xml:space="preserve" font-family="AvenirNext-Regular" font-size="21.2" fill="#FEFFFF" transform="matrix(1.00, 0.00, -0.00, -1.00, 98.6, 7.0)"> </text><text xml:space="preserve" font-family="AvenirNext-Regular" font-size="21.2" fill="#FEFFFF" transform="matrix(1.00, 0.00, -0.00, -1.00, 103.9, 7.0)">-</text><text xml:space="preserve" font-family="AvenirNext-Regular" font-size="21.2" fill="#FEFFFF" transform="matrix(1.00, 0.00, -0.00, -1.00, 110.6, 7.0)"> </text><text xml:space="preserve" font-family="AvenirNext-Regular" font-size="21.2" fill="#FEFFFF" transform="matrix(1.00, 0.00, -0.00, -1.00, 115.9, 7.0)">L</text><text xml:space="preserve" font-family="AvenirNext-Regular" font-size="21.2" fill="#FEFFFF" transform="matrix(1.00, 0.00, -0.00, -1.00, 126.8, 7.0)">a</text><text xml:space="preserve" font-family="AvenirNext-Regular" font-size="21.2" fill="#FEFFFF" transform="matrix(1.00, 0.00, -0.00, -1.00, 138.1, 7.0)">u</text><text xml:space="preserve" font-family="AvenirNext-Regular" font-size="21.2" fill="#FEFFFF" transform="matrix(1.00, 0.00, -0.00, -1.00, 150.4, 7.0)">r</text><text xml:space="preserve" font-family="AvenirNext-Regular" font-size="21.2" fill="#FEFFFF" transform="matrix(1.00, 0.00, -0.00, -1.00, 157.6, 7.0)">e</text><text xml:space="preserve" font-family="AvenirNext-Regular" font-size="21.2" fill="#FEFFFF" transform="matrix(1.00, 0.00, -0.00, -1.00, 169.8, 7.0)">n</text><text xml:space="preserve" font-family="AvenirNext-Regular" font-size="21.2" fill="#FEFFFF" transform="matrix(1.00, 0.00, -0.00, -1.00, 182.1, 7.0)">t</text><text xml:space="preserve" font-family="AvenirNext-Regular" font-size="21.2" fill="#FEFFFF" transform="matrix(1.00, 0.00, -0.00, -1.00, 188.8, 7.0)"> </text><text xml:space="preserve" font-family="AvenirNext-Regular" font-size="21.2" fill="#FEFFFF" transform="matrix(1.00, 0.00, -0.00, -1.00, 194.1, 7.0)">P</text><text xml:space="preserve" font-family="AvenirNext-Regular" font-size="21.2" fill="#FEFFFF" transform="matrix(1.00, 0.00, -0.00, -1.00, 204.9, 7.0)">o</text><text xml:space="preserve" font-family="AvenirNext-Regular" font-size="21.2" fill="#FEFFFF" transform="matrix(1.00, 0.00, -0.00, -1.00, 217.8, 7.0)">t</text><text xml:space="preserve" font-family="AvenirNext-Regular" font-size="21.2" fill="#FEFFFF" transform="matrix(1.00, 0.00, -0.00, -1.00, 224.3, 7.0)">t</text><text xml:space="preserve" font-family="AvenirNext-Regular" font-size="21.2" fill="#FEFFFF" transform="matrix(1.00, 0.00, -0.00, -1.00, 231.0, 7.0)">i</text><text xml:space="preserve" font-family="AvenirNext-Regular" font-size="21.2" fill="#FEFFFF" transform="matrix(1.00, 0.00, -0.00, -1.00, 236.3, 7.0)">e</text><text xml:space="preserve" font-family="AvenirNext-Regular" font-size="21.2" fill="#FEFFFF" transform="matrix(1.00, 0.00, -0.00, -1.00, 248.4, 7.0)">r</text></g></g></g></svg>