<?xml version="1.0" encoding="UTF-8" standalone="no"?><svg xmlns="http://www.w3.org/2000/svg" xmlns:xlink="http://www.w3.org/1999/xlink" clip-rule="evenodd" stroke-miterlimit="4.00" viewBox="0 0 698 40"><desc>SVG generated by Keynote</desc><defs></defs><g transform="matrix(1.00, 0.00, -0.00, -1.00, 0.0, 40.0)"><text xml:space="preserve" font-family="Courier" font-size="18.0" fill="#000000" transform="matrix(1.00, 0.00, -0.00, -1.00, 38.0, 27.0)">r</text><text xml:space="preserve" font-family="Courier" font-size="18.0" fill="#000000" transform="matrix(1.00, 0.00, -0.00, -1.00, 48.8, 27.0)">e</text><text xml:space="preserve" font-family="Courier" font-size="18.0" fill="#000000" transform="matrix(1.00, 0.00, -0.00, -1.00, 59.6, 27.0)">t</text><text xml:space="preserve" font-family="Courier" font-size="18.0" fill="#000000" transform="matrix(1.00, 0.00, -0.00, -1.00, 70.4, 27.0)">u</text><text xml:space="preserve" font-family="Courier" font-size="18.0" fill="#000000" transform="matrix(1.00, 0.00, -0.00, -1.00, 81.2, 27.0)">r</text><text xml:space="preserve" font-family="Courier" font-size="18.0" fill="#000000" transform="matrix(1.00, 0.00, -0.00, -1.00, 92.0, 27.0)">n</text><text xml:space="preserve" font-family="Courier" font-size="18.0" fill="#000000" transform="matrix(1.00, 0.00, -0.00, -1.00, 102.8, 27.0)"> </text><text xml:space="preserve" font-family="Courier" font-size="18.0" fill="#000000" transform="matrix(1.00, 0.00, -0.00, -1.00, 113.6, 27.0)">m</text><text xml:space="preserve" font-family="Courier" font-size="18.0" fill="#000000" transform="matrix(1.00, 0.00, -0.00, -1.00, 124.4, 27.0)">a</text><text xml:space="preserve" font-family="Courier" font-size="18.0" fill="#000000" transform="matrix(1.00, 0.00, -0.00, -1.00, 135.2, 27.0)">k</text><text xml:space="preserve" font-family="Courier" font-size="18.0" fill="#000000" transform="matrix(1.00, 0.00, -0.00, -1.00, 146.0, 27.0)">e</text><text xml:space="preserve" font-family="Courier" font-size="18.0" fill="#000000" transform="matrix(1.00, 0.00, -0.00, -1.00, 156.8, 27.0)">M</text><text xml:space="preserve" font-family="Courier" font-size="18.0" fill="#000000" transform="matrix(1.00, 0.00, -0.00, -1.00, 167.6, 27.0)">s</text><text xml:space="preserve" font-family="Courier" font-size="18.0" fill="#000000" transform="matrix(1.00, 0.00, -0.00, -1.00, 178.4, 27.0)">g</text><text xml:space="preserve" font-family="Courier" font-size="18.0" fill="#000000" transform="matrix(1.00, 0.00, -0.00, -1.00, 189.2, 27.0)">(</text><text xml:space="preserve" font-family="Courier" font-size="18.0" fill="#000000" transform="matrix(1.00, 0.00, -0.00, -1.00, 200.1, 27.0)">m</text><text xml:space="preserve" font-family="Courier" font-size="18.0" fill="#000000" transform="matrix(1.00, 0.00, -0.00, -1.00, 210.9, 27.0)">s</text><text xml:space="preserve" font-family="Courier" font-size="18.0" fill="#000000" transform="matrix(1.00, 0.00, -0.00, -1.00, 221.7, 27.0)">g</text><text xml:space="preserve" font-family="Courier" font-size="18.0" fill="#000000" transform="matrix(1.00, 0.00, -0.00, -1.00, 232.5, 27.0)">T</text><text xml:space="preserve" font-family="Courier" font-size="18.0" fill="#000000" transform="matrix(1.00, 0.00, -0.00, -1.00, 243.3, 27.0)">e</text><text xml:space="preserve" font-family="Courier" font-size="18.0" fill="#000000" transform="matrix(1.00, 0.00, -0.00, -1.00, 254.1, 27.0)">m</text><text xml:space="preserve" font-family="Courier" font-size="18.0" fill="#000000" transform="matrix(1.00, 0.00, -0.00, -1.00, 264.9, 27.0)">p</text><text xml:space="preserve" font-family="Courier" font-size="18.0" fill="#000000" transform="matrix(1.00, 0.00, -0.00, -1.00, 275.7, 27.0)">l</text><text xml:space="preserve" font-family="Courier" font-size="18.0" fill="#000000" transform="matrix(1.00, 0.00, -0.00, -1.00, 286.5, 27.0)">a</text><text xml:space="preserve" font-family="Courier" font-size="18.0" fill="#000000" transform="matrix(1.00, 0.00, -0.00, -1.00, 297.3, 27.0)">t</text><text xml:space="preserve" font-family="Courier" font-size="18.0" fill="#000000" transform="matrix(1.00, 0.00, -0.00, -1.00, 308.1, 27.0)">e</text><text xml:space="preserve" font-family="Courier" font-size="18.0" fill="#000000" transform="matrix(1.00, 0.00, -0.00, -1.00, 318.9, 27.0)">,</text><text xml:space="preserve" font-family="Courier" font-size="18.0" fill="#000000" transform="matrix(1.00, 0.00, -0.00, -1.00, 329.7, 27.0)"> </text><text xml:space="preserve" font-family="Courier" font-size="18.0" fill="#000000" transform="matrix(1.00, 0.00, -0.00, -1.00, 340.5, 27.0)">r</text><text xml:space="preserve" font-family="Courier" font-size="18.0" fill="#000000" transform="matrix(1.00, 0.00, -0.00, -1.00, 351.3, 27.0)">a</text><text xml:space="preserve" font-family="Courier" font-size="18.0" fill="#000000" transform="matrix(1.00, 0.00, -0.00, -1.00, 362.1, 27.0)">n</text><text xml:space="preserve" font-family="Courier" font-size="18.0" fill="#000000" transform="matrix(1.00, 0.00, -0.00, -1.00, 372.9, 27.0)">d</text><text xml:space="preserve" font-family="Courier" font-size="18.0" fill="#000000" transform="matrix(1.00, 0.00, -0.00, -1.00, 383.7, 27.0)">o</text><text xml:space="preserve" font-family="Courier" font-size="18.0" fill="#000000" transform="matrix(1.00, 0.00, -0.00, -1.00, 394.5, 27.0)">m</text><text xml:space="preserve" font-family="Courier" font-size="18.0" fill="#000000" transform="matrix(1.00, 0.00, -0.00, -1.00, 405.3, 27.0)">n</text><text xml:space="preserve" font-family="Courier" font-size="18.0" fill="#000000" transform="matrix(1.00, 0.00, -0.00, -1.00, 416.1, 27.0)">o</text><text xml:space="preserve" font-family="Courier" font-size="18.0" fill="#000000" transform="matrix(1.00, 0.00, -0.00, -1.00, 426.9, 27.0)">t</text><text xml:space="preserve" font-family="Courier" font-size="18.0" fill="#000000" transform="matrix(1.00, 0.00, -0.00, -1.00, 437.7, 27.0)">e</text><text xml:space="preserve" font-family="Courier" font-size="18.0" fill="#000000" transform="matrix(1.00, 0.00, -0.00, -1.00, 448.5, 27.0)">(</text><text xml:space="preserve" font-family="Courier" font-size="18.0" fill="#000000" transform="matrix(1.00, 0.00, -0.00, -1.00, 459.3, 27.0)">)</text><text xml:space="preserve" font-family="Courier" font-size="18.0" fill="#000000" transform="matrix(1.00, 0.00, -0.00, -1.00, 470.1, 27.0)">,</text><text xml:space="preserve" font-family="Courier" font-size="18.0" fill="#000000" transform="matrix(1.00, 0.00, -0.00, -1.00, 480.9, 27.0)"> </text><text xml:space="preserve" font-family="Courier" font-size="18.0" fill="#000000" transform="matrix(1.00, 0.00, -0.00, -1.00, 491.7, 27.0)">d</text><text xml:space="preserve" font-family="Courier" font-size="18.0" fill="#000000" transform="matrix(1.00, 0.00, -0.00, -1.00, 502.6, 27.0)">u</text><text xml:space="preserve" font-family="Courier" font-size="18.0" fill="#000000" transform="matrix(1.00, 0.00, -0.00, -1.00, 513.4, 27.0)">r</text><text xml:space="preserve" font-family="Courier" font-size="18.0" fill="#000000" transform="matrix(1.00, 0.00, -0.00, -1.00, 524.2, 27.0)">,</text><text xml:space="preserve" font-family="Courier" font-size="18.0" fill="#000000" transform="matrix(1.00, 0.00, -0.00, -1.00, 535.0, 27.0)"> </text><text xml:space="preserve" font-family="Courier" font-size="18.0" fill="#000000" transform="matrix(1.00, 0.00, -0.00, -1.00, 545.8, 27.0)">+</text><text xml:space="preserve" font-family="Courier" font-size="18.0" fill="#000000" transform="matrix(1.00, 0.00, -0.00, -1.00, 556.6, 27.0)">+</text><text xml:space="preserve" font-family="Courier" font-size="18.0" fill="#000000" transform="matrix(1.00, 0.00, -0.00, -1.00, 567.4, 27.0)">d</text><text xml:space="preserve" font-family="Courier" font-size="18.0" fill="#000000" transform="matrix(1.00, 0.00, -0.00, -1.00, 578.2, 27.0)">u</text><text xml:space="preserve" font-family="Courier" font-size="18.0" fill="#000000" transform="matrix(1.00, 0.00, -0.00, -1.00, 589.0, 27.0)">r</text><text xml:space="preserve" font-family="Courier" font-size="18.0" fill="#000000" transform="matrix(1.00, 0.00, -0.00, -1.00, 599.8, 27.0)">,</text><text xml:space="preserve" font-family="Courier" font-size="18.0" fill="#000000" transform="matrix(1.00, 0.00, -0.00, -1.00, 610.6, 27.0)"> </text><text xml:space="preserve" font-family="Courier" font-size="18.0" fill="#000000" transform="matrix(1.00, 0.00, -0.00, -1.00, 621.4, 27.0)">t</text><text xml:space="preserve" font-family="Courier" font-size="18.0" fill="#000000" transform="matrix(1.00, 0.00, -0.00, -1.00, 632.2, 27.0)">e</text><text xml:space="preserve" font-family="Courier" font-size="18.0" fill="#000000" transform="matrix(1.00, 0.00, -0.00, -1.00, 643.0, 27.0)">m</text><text xml:space="preserve" font-family="Courier" font-size="18.0" fill="#000000" transform="matrix(1.00, 0.00, -0.00, -1.00, 653.8, 27.0)">p</text><text xml:space="preserve" font-family="Courier" font-size="18.0" fill="#000000" transform="matrix(1.00, 0.00, -0.00, -1.00, 664.6, 27.0)">o</text><text xml:space="preserve" font-family="Courier" font-size="18.0" fill="#000000" transform="matrix(1.00, 0.00, -0.00, -1.00, 675.4, 27.0)">)</text><text xml:space="preserve" font-family="Courier" font-size="18.0" fill="#000000" transform="matrix(1.00, 0.00, -0.00, -1.00, 686.2, 27.0)">;</text><text xml:space="preserve" font-family="Courier" font-size="18.0" fill="#000000" transform="matrix(1.00, 0.00, -0.00, -1.00, 2.0, 5.0)">}</text></g></svg>