<?xml version="1.0" encoding="UTF-8" standalone="no"?><svg xmlns="http://www.w3.org/2000/svg" xmlns:xlink="http://www.w3.org/1999/xlink" clip-rule="evenodd" stroke-miterlimit="4.00" viewBox="0 0 768 32"><desc>SVG generated by Keynote</desc><defs></defs><g transform="matrix(1.00, 0.00, -0.00, -1.00, 0.0, 32.0)"><text xml:space="preserve" font-family="Courier" font-size="32.0" fill="#F5D327" transform="matrix(1.00, 0.00, -0.00, -1.00, -2.0, 9.0)">%</text><text xml:space="preserve" font-family="Courier" font-size="32.0" fill="#F5D327" transform="matrix(1.00, 0.00, -0.00, -1.00, 17.2, 9.0)"> </text><text xml:space="preserve" font-family="Courier" font-size="32.0" fill="#DCDDE0" transform="matrix(1.00, 0.00, -0.00, -1.00, 36.4, 9.0)">t</text><text xml:space="preserve" font-family="Courier" font-size="32.0" fill="#DCDDE0" transform="matrix(1.00, 0.00, -0.00, -1.00, 55.6, 9.0)">e</text><text xml:space="preserve" font-family="Courier" font-size="32.0" fill="#DCDDE0" transform="matrix(1.00, 0.00, -0.00, -1.00, 74.8, 9.0)">x</text><text xml:space="preserve" font-family="Courier" font-size="32.0" fill="#DCDDE0" transform="matrix(1.00, 0.00, -0.00, -1.00, 94.0, 9.0)">t</text><text xml:space="preserve" font-family="Courier" font-size="32.0" fill="#DCDDE0" transform="matrix(1.00, 0.00, -0.00, -1.00, 113.2, 9.0)"> </text><text xml:space="preserve" font-family="Courier" font-size="32.0" fill="#DCDDE0" transform="matrix(1.00, 0.00, -0.00, -1.00, 132.4, 9.0)">i</text><text xml:space="preserve" font-family="Courier" font-size="32.0" fill="#DCDDE0" transform="matrix(1.00, 0.00, -0.00, -1.00, 151.6, 9.0)">g</text><text xml:space="preserve" font-family="Courier" font-size="32.0" fill="#DCDDE0" transform="matrix(1.00, 0.00, -0.00, -1.00, 170.9, 9.0)">n</text><text xml:space="preserve" font-family="Courier" font-size="32.0" fill="#DCDDE0" transform="matrix(1.00, 0.00, -0.00, -1.00, 190.1, 9.0)">o</text><text xml:space="preserve" font-family="Courier" font-size="32.0" fill="#DCDDE0" transform="matrix(1.00, 0.00, -0.00, -1.00, 209.3, 9.0)">r</text><text xml:space="preserve" font-family="Courier" font-size="32.0" fill="#DCDDE0" transform="matrix(1.00, 0.00, -0.00, -1.00, 228.5, 9.0)">e</text><text xml:space="preserve" font-family="Courier" font-size="32.0" fill="#DCDDE0" transform="matrix(1.00, 0.00, -0.00, -1.00, 247.7, 9.0)">d</text><text xml:space="preserve" font-family="Courier" font-size="32.0" fill="#DCDDE0" transform="matrix(1.00, 0.00, -0.00, -1.00, 266.9, 9.0)"> </text><text xml:space="preserve" font-family="Courier" font-size="32.0" fill="#DCDDE0" transform="matrix(1.00, 0.00, -0.00, -1.00, 286.1, 9.0)">u</text><text xml:space="preserve" font-family="Courier" font-size="32.0" fill="#DCDDE0" transform="matrix(1.00, 0.00, -0.00, -1.00, 305.3, 9.0)">p</text><text xml:space="preserve" font-family="Courier" font-size="32.0" fill="#DCDDE0" transform="matrix(1.00, 0.00, -0.00, -1.00, 324.5, 9.0)"> </text><text xml:space="preserve" font-family="Courier" font-size="32.0" fill="#DCDDE0" transform="matrix(1.00, 0.00, -0.00, -1.00, 343.7, 9.0)">t</text><text xml:space="preserve" font-family="Courier" font-size="32.0" fill="#DCDDE0" transform="matrix(1.00, 0.00, -0.00, -1.00, 362.9, 9.0)">o</text><text xml:space="preserve" font-family="Courier" font-size="32.0" fill="#DCDDE0" transform="matrix(1.00, 0.00, -0.00, -1.00, 382.1, 9.0)"> </text><text xml:space="preserve" font-family="Courier" font-size="32.0" fill="#DCDDE0" transform="matrix(1.00, 0.00, -0.00, -1.00, 401.3, 9.0)">t</text><text xml:space="preserve" font-family="Courier" font-size="32.0" fill="#DCDDE0" transform="matrix(1.00, 0.00, -0.00, -1.00, 420.5, 9.0)">h</text><text xml:space="preserve" font-family="Courier" font-size="32.0" fill="#DCDDE0" transform="matrix(1.00, 0.00, -0.00, -1.00, 439.7, 9.0)">e</text><text xml:space="preserve" font-family="Courier" font-size="32.0" fill="#DCDDE0" transform="matrix(1.00, 0.00, -0.00, -1.00, 458.9, 9.0)"> </text><text xml:space="preserve" font-family="Courier" font-size="32.0" fill="#DCDDE0" transform="matrix(1.00, 0.00, -0.00, -1.00, 478.2, 9.0)">e</text><text xml:space="preserve" font-family="Courier" font-size="32.0" fill="#DCDDE0" transform="matrix(1.00, 0.00, -0.00, -1.00, 497.4, 9.0)">n</text><text xml:space="preserve" font-family="Courier" font-size="32.0" fill="#DCDDE0" transform="matrix(1.00, 0.00, -0.00, -1.00, 516.6, 9.0)">d</text><text xml:space="preserve" font-family="Courier" font-size="32.0" fill="#DCDDE0" transform="matrix(1.00, 0.00, -0.00, -1.00, 535.8, 9.0)"> </text><text xml:space="preserve" font-family="Courier" font-size="32.0" fill="#DCDDE0" transform="matrix(1.00, 0.00, -0.00, -1.00, 555.0, 9.0)">o</text><text xml:space="preserve" font-family="Courier" font-size="32.0" fill="#DCDDE0" transform="matrix(1.00, 0.00, -0.00, -1.00, 574.2, 9.0)">f</text><text xml:space="preserve" font-family="Courier" font-size="32.0" fill="#DCDDE0" transform="matrix(1.00, 0.00, -0.00, -1.00, 593.4, 9.0)"> </text><text xml:space="preserve" font-family="Courier" font-size="32.0" fill="#DCDDE0" transform="matrix(1.00, 0.00, -0.00, -1.00, 612.6, 9.0)">t</text><text xml:space="preserve" font-family="Courier" font-size="32.0" fill="#DCDDE0" transform="matrix(1.00, 0.00, -0.00, -1.00, 631.8, 9.0)">h</text><text xml:space="preserve" font-family="Courier" font-size="32.0" fill="#DCDDE0" transform="matrix(1.00, 0.00, -0.00, -1.00, 651.0, 9.0)">e</text><text xml:space="preserve" font-family="Courier" font-size="32.0" fill="#DCDDE0" transform="matrix(1.00, 0.00, -0.00, -1.00, 670.2, 9.0)"> </text><text xml:space="preserve" font-family="Courier" font-size="32.0" fill="#DCDDE0" transform="matrix(1.00, 0.00, -0.00, -1.00, 689.4, 9.0)">l</text><text xml:space="preserve" font-family="Courier" font-size="32.0" fill="#DCDDE0" transform="matrix(1.00, 0.00, -0.00, -1.00, 708.6, 9.0)">i</text><text xml:space="preserve" font-family="Courier" font-size="32.0" fill="#DCDDE0" transform="matrix(1.00, 0.00, -0.00, -1.00, 727.8, 9.0)">n</text><text xml:space="preserve" font-family="Courier" font-size="32.0" fill="#DCDDE0" transform="matrix(1.00, 0.00, -0.00, -1.00, 747.0, 9.0)">e</text></g></svg>